M48
;Layer_Color=9474304
;FILE_FORMAT=4:3
METRIC,LZ
;TYPE=PLATED
T1F00S00C0.125
%
T01
X0011929Y-0010901
X0013329
X0014729
X0016129
X0039774Y-0005346
X0042958Y-0006058
X0044358
X0045758
X0045058Y-0007458
X0043658
X0042258
X0045758Y-0008858
X0046253Y-0000877
X0045254Y-0000876
X0044451
X0040302Y-0000878
X0038932Y-0000294
X0038844Y0001111
Y0001521
Y000193
X0039766Y0004278
X0035797Y0003989
X0035356Y0003989
X0034915Y0003989
X0034474Y0003989
X0034033Y0003989
X0033655Y0004101
X0033655Y0004542
X0033942Y0004813
X0033966Y000521
X0034266Y0005464
X0034426Y0005835
X0033986Y0005835
X003419Y0006264
X0034631Y0006264
X0035072Y0006265
X0035513Y0006265
X0035308Y0005835
X0034867Y0005835
X0035075Y0005213
X0035516Y0005213
X0035356Y0004842
X0034915Y0004842
X0034474Y0004842
X0034634Y0005213
X0034681Y0004416
X003424Y0004416
X0035122Y0004416
X0035563Y0004416
X0035797Y0004842
X0036021Y0003606
Y0003141
X0035172Y0003637
X0034701Y0003577
X0033945Y0003349
X0033493Y0003625
X0033433Y0003093
X0032888Y0003259
X0033005Y0003943
X0033075Y0004673
X0031936Y0004148
X0031625Y0004427
X0031634Y0003814
X0031846Y0003404
X0031625Y0003107
X0031905Y0002805
X003163Y0002463
X0031932Y0002206
X0031738Y0001801
X003218Y0000759
X0032539Y0001117
X0032663Y0000181
X00315Y-00005
X0031
X003
Y-0001
Y-00015
X00305
X0031
Y-0002
X00305
Y-00025
Y-0003
X0031
X00315
Y-00035
X003
Y-0003
X00295
X0029
Y-00035
X00285
X0028Y-0004
Y-0002
X00285
X0029
X00295
Y-00015
X0028997Y-0001009
X00285Y-0001
Y-00005
X00295Y0
X002873Y0001223
X0028621Y0001629
X0029224Y0003075
X0029214Y0003454
X0028244Y000384
X0027839Y0003355
X0027459Y0003346
X0026895Y0003933
X0027418Y0006313
X0027987Y00073
X0030649Y0007196
X0030649Y0006755
X0030649Y0007637
X0030522Y0005711
X0029991Y0005711
X003163Y000572
X0032086Y0005874
X0031927Y0005382
X0033521Y0008066
X0033962Y0008066
X0034337Y0008513
X0034337Y0008954
X003458Y0001049
X0034961Y0001048
X0035419Y0001048
X0035764Y0001032
X0036212Y0001057
X0036622
X0036362Y0000691
X0035953Y0000688
X0035574Y0000684
X0035179Y000069
X0034775Y000069
X0034387Y0000704
X0035112Y000138
X0035618Y0001399
X0036088Y-0000062
X0036558Y-0000216
Y-0000848
X0036194Y-0001218
X0036139Y-0002098
X0036549
X0036399Y-0002464
X0035989
X0035579Y-0002461
X003517
X003476Y-0002458
X003491Y-0002092
X003532Y-0002095
X003573
X0037831Y-0001925
X0038634
X00315Y-0002
Y-00015
X00305Y-0001
X003Y-0002
X0026285Y-0001983
X0026723Y-0005469
X0026724Y-000591
X0026313Y-0005978
X0025872Y-0005978
X0027495Y-0005952
X0027558Y-0008858
X0028958
X0026158
X0023659Y-0006285
X0023218Y-0006286
X0022103Y-0004252
X0021662Y-0004252
X0021221Y-0004252
X002078Y-0004252
X002078Y-0003811
X0022343Y-0003539
X0022388Y-0000568
Y-0000127
X0022051Y0000115
X002161Y0000115
X0021169Y0000115
X0020728Y0000115
X0020728Y-0000326
X0019681Y0000365
X0020086Y0001648
X0020967Y0001648
X0020499Y0002501
X0019618Y0002501
X0022128Y0002971
X0023009Y0002971
X0022541Y0003824
X0022567Y0001569
X0024015Y0001896
X0024353Y0001613
X0024691Y0001329
X0024998Y0006424
X0023733Y0007031
X0023221Y0009708
X0022303Y0010066
X0020792Y0009908
X0019289Y0010197
X0018295Y0009897
X0016614Y0008914
X0015658Y0006542
Y0003742
Y0000942
X0018529Y-0000906
X0016253Y-0007373
X0016828Y-0008234
X0014304Y-0006848
X0012904
X0011504
X0010104
X0008704Y-0006848
X0007304
X0005904
X0004504
X0003104Y-0006848
X0007258Y0006542
X0006558Y0007942
X0009358
X0010758
X0011458Y0009342
X0011799Y001057
X0013199
X0014599
X0010399
X0011458Y0012142
X0022658
X0025458
X0026858
X0020418Y0007624
X001985Y0006835
X0033265Y-0004168
X003355Y-00051
X0034323Y-000564
X0033853Y-0008108
X0034828Y-0008482
M30
