G04*
G04 #@! TF.GenerationSoftware,Altium Limited,Altium Designer,22.1.2 (22)*
G04*
G04 Layer_Physical_Order=3*
G04 Layer_Color=16440176*
%FSLAX43Y43*%
%MOMM*%
G71*
G04*
G04 #@! TF.SameCoordinates,549D327D-CD9E-48CF-806C-D238132880F2*
G04*
G04*
G04 #@! TF.FilePolarity,Positive*
G04*
G01*
G75*
%ADD15C,0.300*%
%ADD16C,0.254*%
%ADD17C,0.152*%
%ADD43C,0.400*%
%ADD74C,0.700*%
%ADD78C,0.550*%
%ADD81C,1.800*%
G04:AMPARAMS|DCode=82|XSize=1.8mm|YSize=1.8mm|CornerRadius=0.45mm|HoleSize=0mm|Usage=FLASHONLY|Rotation=180.000|XOffset=0mm|YOffset=0mm|HoleType=Round|Shape=RoundedRectangle|*
%AMROUNDEDRECTD82*
21,1,1.800,0.900,0,0,180.0*
21,1,0.900,1.800,0,0,180.0*
1,1,0.900,-0.450,0.450*
1,1,0.900,0.450,0.450*
1,1,0.900,0.450,-0.450*
1,1,0.900,-0.450,-0.450*
%
%ADD82ROUNDEDRECTD82*%
%ADD83C,0.500*%
%ADD85C,0.650*%
%ADD86C,1.700*%
%ADD87C,1.100*%
%ADD88C,0.800*%
%ADD89C,1.000*%
%ADD90C,0.750*%
%ADD91C,1.400*%
G36*
X50818Y17432D02*
X50818Y-17511D01*
X-10704Y-17511D01*
X-10704Y17417D01*
X-10619Y17502D01*
X50818Y17432D01*
D02*
G37*
G36*
X1206Y-35896D02*
X968D01*
Y-35626D01*
X1206D01*
Y-35896D01*
D02*
G37*
G36*
X2684Y-37550D02*
X2465D01*
Y-37377D01*
X2462Y-37380D01*
X2459Y-37386D01*
X2450Y-37395D01*
X2438Y-37410D01*
X2427Y-37424D01*
X2409Y-37442D01*
X2389Y-37459D01*
X2365Y-37480D01*
X2339Y-37497D01*
X2310Y-37518D01*
X2277Y-37536D01*
X2245Y-37550D01*
X2207Y-37565D01*
X2166Y-37574D01*
X2122Y-37579D01*
X2075Y-37582D01*
X2058D01*
X2046Y-37579D01*
X2014Y-37577D01*
X1976Y-37571D01*
X1926Y-37559D01*
X1876Y-37544D01*
X1821Y-37521D01*
X1768Y-37492D01*
X1765D01*
X1762Y-37489D01*
X1744Y-37474D01*
X1721Y-37454D01*
X1689Y-37424D01*
X1657Y-37389D01*
X1618Y-37345D01*
X1586Y-37295D01*
X1554Y-37237D01*
Y-37234D01*
X1551Y-37228D01*
X1548Y-37219D01*
X1542Y-37208D01*
X1536Y-37193D01*
X1531Y-37172D01*
X1516Y-37126D01*
X1501Y-37070D01*
X1490Y-37005D01*
X1481Y-36935D01*
X1478Y-36856D01*
Y-36853D01*
Y-36847D01*
Y-36836D01*
Y-36821D01*
X1481Y-36803D01*
Y-36780D01*
X1487Y-36730D01*
X1495Y-36672D01*
X1507Y-36610D01*
X1522Y-36543D01*
X1545Y-36478D01*
Y-36475D01*
X1548Y-36470D01*
X1554Y-36461D01*
X1560Y-36449D01*
X1575Y-36420D01*
X1598Y-36382D01*
X1627Y-36338D01*
X1662Y-36294D01*
X1703Y-36253D01*
X1753Y-36215D01*
X1756D01*
X1759Y-36212D01*
X1777Y-36200D01*
X1806Y-36185D01*
X1844Y-36168D01*
X1891Y-36153D01*
X1944Y-36139D01*
X2002Y-36127D01*
X2064Y-36124D01*
X2084D01*
X2108Y-36127D01*
X2140Y-36130D01*
X2172Y-36139D01*
X2210Y-36147D01*
X2248Y-36162D01*
X2286Y-36180D01*
X2292Y-36183D01*
X2304Y-36188D01*
X2321Y-36200D01*
X2345Y-36218D01*
X2368Y-36235D01*
X2397Y-36259D01*
X2424Y-36288D01*
X2447Y-36317D01*
Y-35626D01*
X2684D01*
Y-37550D01*
D02*
G37*
G36*
X9438Y-36127D02*
X9470Y-36133D01*
X9505Y-36144D01*
X9546Y-36156D01*
X9590Y-36177D01*
X9637Y-36203D01*
X9552Y-36420D01*
X9549Y-36417D01*
X9537Y-36411D01*
X9520Y-36402D01*
X9499Y-36393D01*
X9473Y-36385D01*
X9444Y-36376D01*
X9412Y-36370D01*
X9379Y-36367D01*
X9368D01*
X9353Y-36370D01*
X9332Y-36373D01*
X9312Y-36379D01*
X9289Y-36388D01*
X9265Y-36399D01*
X9242Y-36414D01*
X9239Y-36417D01*
X9233Y-36423D01*
X9221Y-36434D01*
X9209Y-36449D01*
X9195Y-36467D01*
X9180Y-36490D01*
X9168Y-36516D01*
X9157Y-36546D01*
X9154Y-36552D01*
X9151Y-36566D01*
X9145Y-36593D01*
X9139Y-36628D01*
X9130Y-36669D01*
X9125Y-36716D01*
X9122Y-36765D01*
X9119Y-36821D01*
Y-37550D01*
X8881D01*
Y-36156D01*
X9095D01*
Y-36364D01*
X9098Y-36361D01*
X9110Y-36344D01*
X9125Y-36317D01*
X9142Y-36288D01*
X9166Y-36256D01*
X9192Y-36224D01*
X9215Y-36194D01*
X9242Y-36174D01*
X9245Y-36171D01*
X9253Y-36165D01*
X9268Y-36159D01*
X9289Y-36147D01*
X9309Y-36139D01*
X9335Y-36133D01*
X9365Y-36127D01*
X9394Y-36124D01*
X9414D01*
X9438Y-36127D01*
D02*
G37*
G36*
X588Y-37550D02*
X342D01*
Y-35939D01*
X-221Y-37550D01*
X-449D01*
X-1003Y-35913D01*
Y-37550D01*
X-1249D01*
Y-35626D01*
X-868D01*
X-411Y-36988D01*
Y-36991D01*
X-408Y-36997D01*
X-405Y-37005D01*
X-402Y-37020D01*
X-391Y-37052D01*
X-376Y-37093D01*
X-361Y-37140D01*
X-347Y-37187D01*
X-332Y-37234D01*
X-320Y-37272D01*
X-317Y-37266D01*
X-314Y-37251D01*
X-306Y-37228D01*
X-294Y-37196D01*
X-282Y-37152D01*
X-265Y-37099D01*
X-241Y-37038D01*
X-218Y-36964D01*
X242Y-35626D01*
X588D01*
Y-37550D01*
D02*
G37*
G36*
X6659Y-37574D02*
Y-37577D01*
X6656Y-37582D01*
X6650Y-37594D01*
X6644Y-37612D01*
X6638Y-37629D01*
X6629Y-37650D01*
X6612Y-37700D01*
X6588Y-37752D01*
X6568Y-37802D01*
X6547Y-37852D01*
X6536Y-37872D01*
X6527Y-37890D01*
X6524Y-37896D01*
X6515Y-37907D01*
X6503Y-37928D01*
X6486Y-37954D01*
X6462Y-37981D01*
X6439Y-38010D01*
X6410Y-38036D01*
X6380Y-38060D01*
X6377Y-38063D01*
X6366Y-38069D01*
X6348Y-38077D01*
X6325Y-38086D01*
X6298Y-38098D01*
X6263Y-38107D01*
X6228Y-38112D01*
X6187Y-38115D01*
X6175D01*
X6161Y-38112D01*
X6143D01*
X6120Y-38110D01*
X6093Y-38104D01*
X6035Y-38086D01*
X6008Y-37866D01*
X6011D01*
X6020Y-37869D01*
X6035Y-37872D01*
X6055Y-37878D01*
X6096Y-37887D01*
X6143Y-37890D01*
X6158D01*
X6170Y-37887D01*
X6190D01*
X6231Y-37878D01*
X6252Y-37872D01*
X6269Y-37864D01*
X6272D01*
X6278Y-37858D01*
X6287Y-37852D01*
X6295Y-37843D01*
X6322Y-37820D01*
X6348Y-37787D01*
Y-37784D01*
X6351Y-37779D01*
X6357Y-37770D01*
X6366Y-37752D01*
X6375Y-37729D01*
X6386Y-37700D01*
X6401Y-37659D01*
X6418Y-37612D01*
X6421Y-37609D01*
X6424Y-37597D01*
X6433Y-37579D01*
X6442Y-37553D01*
X5912Y-36156D01*
X6164D01*
X6454Y-36959D01*
Y-36962D01*
X6457Y-36964D01*
X6459Y-36973D01*
X6462Y-36985D01*
X6474Y-37017D01*
X6489Y-37058D01*
X6503Y-37105D01*
X6521Y-37161D01*
X6539Y-37219D01*
X6556Y-37281D01*
Y-37278D01*
X6559Y-37275D01*
Y-37266D01*
X6565Y-37254D01*
X6571Y-37222D01*
X6582Y-37184D01*
X6597Y-37137D01*
X6615Y-37085D01*
X6632Y-37029D01*
X6653Y-36970D01*
X6951Y-36156D01*
X7186D01*
X6659Y-37574D01*
D02*
G37*
G36*
X11139Y-35620D02*
X11163Y-35623D01*
X11189Y-35626D01*
X11218Y-35629D01*
X11251Y-35638D01*
X11321Y-35655D01*
X11394Y-35682D01*
X11432Y-35699D01*
X11467Y-35720D01*
X11500Y-35746D01*
X11532Y-35773D01*
X11535Y-35775D01*
X11538Y-35778D01*
X11546Y-35787D01*
X11558Y-35799D01*
X11570Y-35816D01*
X11585Y-35834D01*
X11614Y-35878D01*
X11643Y-35934D01*
X11669Y-35998D01*
X11690Y-36071D01*
X11693Y-36112D01*
X11696Y-36153D01*
Y-36159D01*
Y-36174D01*
X11693Y-36197D01*
X11690Y-36226D01*
X11684Y-36262D01*
X11675Y-36300D01*
X11664Y-36341D01*
X11646Y-36382D01*
X11643Y-36388D01*
X11637Y-36402D01*
X11626Y-36423D01*
X11608Y-36452D01*
X11587Y-36487D01*
X11561Y-36528D01*
X11526Y-36569D01*
X11488Y-36616D01*
X11482Y-36622D01*
X11467Y-36639D01*
X11441Y-36666D01*
X11423Y-36683D01*
X11403Y-36704D01*
X11380Y-36727D01*
X11350Y-36754D01*
X11321Y-36780D01*
X11289Y-36812D01*
X11254Y-36844D01*
X11213Y-36880D01*
X11172Y-36915D01*
X11125Y-36956D01*
X11122Y-36959D01*
X11116Y-36964D01*
X11104Y-36973D01*
X11090Y-36985D01*
X11054Y-37014D01*
X11011Y-37052D01*
X10967Y-37093D01*
X10920Y-37134D01*
X10882Y-37169D01*
X10867Y-37184D01*
X10852Y-37199D01*
X10849Y-37202D01*
X10844Y-37210D01*
X10832Y-37222D01*
X10817Y-37240D01*
X10785Y-37278D01*
X10753Y-37325D01*
X11699D01*
Y-37550D01*
X10425D01*
Y-37547D01*
Y-37536D01*
Y-37518D01*
X10428Y-37497D01*
X10431Y-37474D01*
X10434Y-37448D01*
X10442Y-37418D01*
X10451Y-37389D01*
Y-37386D01*
X10454Y-37383D01*
X10460Y-37366D01*
X10472Y-37342D01*
X10489Y-37307D01*
X10510Y-37269D01*
X10539Y-37225D01*
X10568Y-37181D01*
X10606Y-37134D01*
Y-37131D01*
X10612Y-37128D01*
X10627Y-37111D01*
X10650Y-37085D01*
X10685Y-37049D01*
X10729Y-37008D01*
X10782Y-36959D01*
X10847Y-36903D01*
X10917Y-36841D01*
X10920Y-36839D01*
X10931Y-36830D01*
X10946Y-36818D01*
X10967Y-36798D01*
X10993Y-36777D01*
X11022Y-36751D01*
X11087Y-36695D01*
X11157Y-36628D01*
X11227Y-36560D01*
X11262Y-36528D01*
X11292Y-36496D01*
X11318Y-36464D01*
X11341Y-36434D01*
Y-36431D01*
X11347Y-36429D01*
X11353Y-36420D01*
X11359Y-36408D01*
X11377Y-36379D01*
X11397Y-36341D01*
X11418Y-36297D01*
X11435Y-36250D01*
X11447Y-36197D01*
X11453Y-36147D01*
Y-36144D01*
Y-36142D01*
X11450Y-36124D01*
X11447Y-36098D01*
X11441Y-36065D01*
X11426Y-36027D01*
X11409Y-35989D01*
X11385Y-35948D01*
X11350Y-35910D01*
X11344Y-35907D01*
X11333Y-35896D01*
X11309Y-35881D01*
X11280Y-35860D01*
X11242Y-35843D01*
X11198Y-35828D01*
X11145Y-35816D01*
X11087Y-35814D01*
X11069D01*
X11057Y-35816D01*
X11028Y-35819D01*
X10990Y-35825D01*
X10946Y-35840D01*
X10899Y-35857D01*
X10855Y-35884D01*
X10814Y-35919D01*
X10811Y-35925D01*
X10800Y-35937D01*
X10782Y-35960D01*
X10765Y-35992D01*
X10744Y-36033D01*
X10729Y-36080D01*
X10718Y-36136D01*
X10712Y-36200D01*
X10469Y-36174D01*
Y-36171D01*
Y-36162D01*
X10472Y-36147D01*
X10475Y-36130D01*
X10480Y-36106D01*
X10483Y-36080D01*
X10501Y-36021D01*
X10524Y-35954D01*
X10557Y-35887D01*
X10601Y-35819D01*
X10624Y-35790D01*
X10653Y-35761D01*
X10656Y-35758D01*
X10662Y-35755D01*
X10671Y-35746D01*
X10683Y-35737D01*
X10700Y-35729D01*
X10721Y-35714D01*
X10744Y-35702D01*
X10770Y-35688D01*
X10800Y-35676D01*
X10832Y-35661D01*
X10870Y-35650D01*
X10908Y-35641D01*
X10996Y-35623D01*
X11043Y-35620D01*
X11093Y-35617D01*
X11119D01*
X11139Y-35620D01*
D02*
G37*
G36*
X5200Y-36127D02*
X5241Y-36130D01*
X5288Y-36136D01*
X5338Y-36142D01*
X5385Y-36153D01*
X5429Y-36168D01*
X5434Y-36171D01*
X5446Y-36174D01*
X5467Y-36185D01*
X5490Y-36197D01*
X5516Y-36212D01*
X5546Y-36229D01*
X5569Y-36250D01*
X5593Y-36273D01*
X5596Y-36276D01*
X5601Y-36285D01*
X5610Y-36297D01*
X5622Y-36317D01*
X5634Y-36341D01*
X5645Y-36367D01*
X5657Y-36399D01*
X5666Y-36434D01*
Y-36437D01*
X5669Y-36446D01*
X5672Y-36461D01*
X5675Y-36484D01*
Y-36513D01*
X5678Y-36552D01*
X5680Y-36595D01*
Y-36651D01*
Y-36967D01*
Y-36970D01*
Y-36982D01*
Y-37000D01*
Y-37020D01*
Y-37046D01*
Y-37076D01*
X5683Y-37143D01*
Y-37216D01*
X5686Y-37284D01*
X5689Y-37316D01*
Y-37342D01*
X5692Y-37366D01*
X5695Y-37386D01*
Y-37389D01*
X5698Y-37401D01*
X5701Y-37418D01*
X5707Y-37439D01*
X5716Y-37462D01*
X5727Y-37492D01*
X5754Y-37550D01*
X5508D01*
X5505Y-37547D01*
X5502Y-37538D01*
X5496Y-37521D01*
X5487Y-37500D01*
X5478Y-37474D01*
X5473Y-37445D01*
X5467Y-37413D01*
X5461Y-37374D01*
X5455Y-37380D01*
X5437Y-37392D01*
X5414Y-37413D01*
X5379Y-37436D01*
X5341Y-37465D01*
X5297Y-37492D01*
X5253Y-37515D01*
X5206Y-37536D01*
X5200Y-37538D01*
X5186Y-37541D01*
X5162Y-37550D01*
X5130Y-37559D01*
X5089Y-37568D01*
X5045Y-37574D01*
X4998Y-37579D01*
X4945Y-37582D01*
X4925D01*
X4907Y-37579D01*
X4890D01*
X4866Y-37577D01*
X4817Y-37568D01*
X4758Y-37556D01*
X4702Y-37536D01*
X4644Y-37509D01*
X4594Y-37471D01*
X4588Y-37465D01*
X4573Y-37451D01*
X4556Y-37427D01*
X4532Y-37392D01*
X4509Y-37351D01*
X4491Y-37304D01*
X4477Y-37246D01*
X4471Y-37184D01*
Y-37178D01*
Y-37167D01*
X4474Y-37146D01*
X4477Y-37123D01*
X4483Y-37093D01*
X4489Y-37061D01*
X4500Y-37029D01*
X4515Y-36997D01*
X4518Y-36994D01*
X4524Y-36982D01*
X4532Y-36967D01*
X4547Y-36947D01*
X4565Y-36926D01*
X4588Y-36903D01*
X4612Y-36882D01*
X4638Y-36862D01*
X4641Y-36859D01*
X4653Y-36853D01*
X4667Y-36844D01*
X4688Y-36833D01*
X4714Y-36818D01*
X4740Y-36806D01*
X4773Y-36795D01*
X4808Y-36783D01*
X4811D01*
X4822Y-36780D01*
X4837Y-36777D01*
X4860Y-36771D01*
X4890Y-36765D01*
X4928Y-36759D01*
X4969Y-36754D01*
X5019Y-36748D01*
X5022D01*
X5030Y-36745D01*
X5045D01*
X5065Y-36742D01*
X5089Y-36739D01*
X5115Y-36736D01*
X5180Y-36724D01*
X5247Y-36713D01*
X5317Y-36701D01*
X5385Y-36683D01*
X5414Y-36675D01*
X5440Y-36666D01*
Y-36663D01*
Y-36657D01*
X5443Y-36639D01*
Y-36619D01*
Y-36610D01*
Y-36604D01*
Y-36601D01*
Y-36598D01*
Y-36581D01*
X5440Y-36554D01*
X5434Y-36525D01*
X5426Y-36493D01*
X5414Y-36458D01*
X5399Y-36429D01*
X5376Y-36402D01*
X5373Y-36399D01*
X5358Y-36390D01*
X5338Y-36376D01*
X5309Y-36361D01*
X5270Y-36347D01*
X5224Y-36332D01*
X5168Y-36323D01*
X5106Y-36320D01*
X5080D01*
X5051Y-36323D01*
X5013Y-36326D01*
X4972Y-36335D01*
X4934Y-36344D01*
X4893Y-36358D01*
X4860Y-36379D01*
X4858Y-36382D01*
X4849Y-36390D01*
X4834Y-36405D01*
X4817Y-36426D01*
X4796Y-36455D01*
X4778Y-36490D01*
X4758Y-36534D01*
X4743Y-36584D01*
X4512Y-36552D01*
Y-36549D01*
X4515Y-36546D01*
X4518Y-36528D01*
X4527Y-36502D01*
X4535Y-36467D01*
X4550Y-36429D01*
X4568Y-36390D01*
X4588Y-36349D01*
X4614Y-36314D01*
X4617Y-36311D01*
X4629Y-36300D01*
X4644Y-36282D01*
X4667Y-36262D01*
X4696Y-36241D01*
X4735Y-36218D01*
X4776Y-36194D01*
X4822Y-36174D01*
X4825D01*
X4828Y-36171D01*
X4837Y-36168D01*
X4846Y-36165D01*
X4875Y-36159D01*
X4913Y-36147D01*
X4960Y-36139D01*
X5013Y-36133D01*
X5074Y-36127D01*
X5139Y-36124D01*
X5168D01*
X5200Y-36127D01*
D02*
G37*
G36*
X3332Y-37325D02*
X4278D01*
Y-37550D01*
X3077D01*
Y-35626D01*
X3332D01*
Y-37325D01*
D02*
G37*
G36*
X1206Y-37550D02*
X968D01*
Y-36156D01*
X1206D01*
Y-37550D01*
D02*
G37*
G36*
X8006Y-36127D02*
X8029Y-36130D01*
X8059Y-36133D01*
X8088Y-36139D01*
X8123Y-36147D01*
X8193Y-36171D01*
X8231Y-36185D01*
X8269Y-36206D01*
X8307Y-36226D01*
X8345Y-36253D01*
X8381Y-36282D01*
X8416Y-36317D01*
X8419Y-36320D01*
X8425Y-36326D01*
X8433Y-36338D01*
X8445Y-36352D01*
X8457Y-36373D01*
X8471Y-36396D01*
X8489Y-36423D01*
X8507Y-36455D01*
X8521Y-36493D01*
X8539Y-36531D01*
X8553Y-36575D01*
X8568Y-36625D01*
X8577Y-36675D01*
X8586Y-36730D01*
X8592Y-36789D01*
X8594Y-36853D01*
Y-36856D01*
Y-36868D01*
Y-36888D01*
X8592Y-36915D01*
X7555D01*
Y-36918D01*
Y-36923D01*
X7558Y-36938D01*
Y-36953D01*
X7561Y-36973D01*
X7564Y-36994D01*
X7575Y-37046D01*
X7593Y-37102D01*
X7613Y-37161D01*
X7646Y-37219D01*
X7684Y-37269D01*
X7689Y-37275D01*
X7704Y-37287D01*
X7730Y-37307D01*
X7763Y-37328D01*
X7807Y-37351D01*
X7856Y-37372D01*
X7912Y-37383D01*
X7974Y-37389D01*
X7997D01*
X8020Y-37386D01*
X8050Y-37380D01*
X8085Y-37372D01*
X8123Y-37360D01*
X8161Y-37345D01*
X8196Y-37322D01*
X8199Y-37319D01*
X8211Y-37307D01*
X8228Y-37292D01*
X8249Y-37266D01*
X8272Y-37237D01*
X8296Y-37199D01*
X8319Y-37152D01*
X8343Y-37099D01*
X8586Y-37131D01*
Y-37134D01*
X8583Y-37140D01*
X8580Y-37152D01*
X8574Y-37167D01*
X8568Y-37184D01*
X8559Y-37205D01*
X8536Y-37254D01*
X8507Y-37307D01*
X8471Y-37363D01*
X8425Y-37418D01*
X8372Y-37465D01*
X8369D01*
X8366Y-37471D01*
X8357Y-37477D01*
X8343Y-37483D01*
X8328Y-37492D01*
X8310Y-37503D01*
X8290Y-37512D01*
X8264Y-37524D01*
X8208Y-37544D01*
X8138Y-37565D01*
X8061Y-37577D01*
X7974Y-37582D01*
X7944D01*
X7924Y-37579D01*
X7897Y-37577D01*
X7868Y-37574D01*
X7836Y-37568D01*
X7798Y-37559D01*
X7722Y-37536D01*
X7681Y-37521D01*
X7643Y-37503D01*
X7602Y-37483D01*
X7564Y-37456D01*
X7525Y-37427D01*
X7490Y-37395D01*
X7487Y-37392D01*
X7482Y-37386D01*
X7473Y-37374D01*
X7464Y-37360D01*
X7449Y-37342D01*
X7435Y-37319D01*
X7417Y-37290D01*
X7402Y-37257D01*
X7385Y-37222D01*
X7367Y-37184D01*
X7353Y-37140D01*
X7341Y-37093D01*
X7329Y-37044D01*
X7320Y-36988D01*
X7315Y-36929D01*
X7312Y-36868D01*
Y-36865D01*
Y-36853D01*
Y-36833D01*
X7315Y-36809D01*
X7318Y-36780D01*
X7320Y-36745D01*
X7326Y-36707D01*
X7335Y-36666D01*
X7356Y-36578D01*
X7370Y-36534D01*
X7388Y-36487D01*
X7408Y-36443D01*
X7432Y-36399D01*
X7458Y-36358D01*
X7490Y-36320D01*
X7493Y-36317D01*
X7499Y-36311D01*
X7508Y-36303D01*
X7523Y-36288D01*
X7540Y-36273D01*
X7564Y-36259D01*
X7587Y-36241D01*
X7616Y-36221D01*
X7648Y-36203D01*
X7684Y-36185D01*
X7722Y-36171D01*
X7766Y-36153D01*
X7810Y-36142D01*
X7856Y-36133D01*
X7906Y-36127D01*
X7959Y-36124D01*
X7985D01*
X8006Y-36127D01*
D02*
G37*
G36*
X42107Y-35597D02*
X42130D01*
X42180Y-35603D01*
X42236Y-35611D01*
X42300Y-35623D01*
X42364Y-35641D01*
X42429Y-35664D01*
X42432D01*
X42438Y-35667D01*
X42446Y-35670D01*
X42458Y-35676D01*
X42487Y-35691D01*
X42525Y-35714D01*
X42569Y-35740D01*
X42613Y-35773D01*
X42657Y-35808D01*
X42695Y-35852D01*
X42698Y-35857D01*
X42710Y-35872D01*
X42728Y-35898D01*
X42751Y-35937D01*
X42774Y-35980D01*
X42798Y-36033D01*
X42821Y-36095D01*
X42842Y-36165D01*
X42610Y-36229D01*
Y-36226D01*
X42607Y-36224D01*
X42605Y-36206D01*
X42593Y-36180D01*
X42581Y-36144D01*
X42566Y-36109D01*
X42549Y-36071D01*
X42528Y-36033D01*
X42505Y-35998D01*
X42502Y-35995D01*
X42493Y-35983D01*
X42479Y-35969D01*
X42458Y-35948D01*
X42432Y-35928D01*
X42400Y-35904D01*
X42364Y-35884D01*
X42320Y-35863D01*
X42315Y-35860D01*
X42300Y-35855D01*
X42274Y-35846D01*
X42241Y-35837D01*
X42203Y-35828D01*
X42159Y-35819D01*
X42110Y-35814D01*
X42057Y-35811D01*
X42028D01*
X41995Y-35814D01*
X41954Y-35816D01*
X41908Y-35825D01*
X41855Y-35834D01*
X41805Y-35849D01*
X41755Y-35866D01*
X41749Y-35869D01*
X41735Y-35875D01*
X41711Y-35887D01*
X41682Y-35904D01*
X41650Y-35925D01*
X41615Y-35948D01*
X41582Y-35975D01*
X41550Y-36007D01*
X41547Y-36010D01*
X41539Y-36021D01*
X41524Y-36039D01*
X41506Y-36062D01*
X41486Y-36092D01*
X41465Y-36124D01*
X41448Y-36159D01*
X41430Y-36197D01*
Y-36200D01*
X41427Y-36206D01*
X41424Y-36215D01*
X41418Y-36229D01*
X41413Y-36244D01*
X41407Y-36265D01*
X41395Y-36311D01*
X41380Y-36370D01*
X41369Y-36434D01*
X41360Y-36508D01*
X41357Y-36584D01*
Y-36587D01*
Y-36595D01*
Y-36607D01*
X41360Y-36628D01*
Y-36648D01*
X41363Y-36675D01*
X41366Y-36704D01*
X41369Y-36733D01*
X41377Y-36803D01*
X41395Y-36877D01*
X41416Y-36947D01*
X41445Y-37017D01*
Y-37020D01*
X41448Y-37026D01*
X41454Y-37035D01*
X41462Y-37046D01*
X41483Y-37076D01*
X41509Y-37114D01*
X41544Y-37155D01*
X41588Y-37199D01*
X41641Y-37240D01*
X41700Y-37275D01*
X41702D01*
X41708Y-37278D01*
X41717Y-37284D01*
X41729Y-37287D01*
X41743Y-37292D01*
X41764Y-37301D01*
X41808Y-37316D01*
X41864Y-37331D01*
X41922Y-37345D01*
X41990Y-37354D01*
X42060Y-37357D01*
X42089D01*
X42121Y-37354D01*
X42162Y-37348D01*
X42209Y-37342D01*
X42265Y-37331D01*
X42323Y-37316D01*
X42382Y-37295D01*
X42385D01*
X42388Y-37292D01*
X42397Y-37290D01*
X42408Y-37284D01*
X42438Y-37272D01*
X42473Y-37254D01*
X42511Y-37234D01*
X42549Y-37210D01*
X42587Y-37184D01*
X42622Y-37158D01*
Y-36795D01*
X42057D01*
Y-36569D01*
X42871D01*
Y-37284D01*
X42868Y-37287D01*
X42862Y-37290D01*
X42853Y-37298D01*
X42839Y-37307D01*
X42821Y-37322D01*
X42801Y-37333D01*
X42751Y-37369D01*
X42692Y-37404D01*
X42628Y-37442D01*
X42555Y-37477D01*
X42482Y-37509D01*
X42479D01*
X42473Y-37512D01*
X42461Y-37515D01*
X42446Y-37521D01*
X42429Y-37527D01*
X42408Y-37533D01*
X42382Y-37538D01*
X42356Y-37544D01*
X42294Y-37559D01*
X42227Y-37571D01*
X42151Y-37579D01*
X42074Y-37582D01*
X42048D01*
X42028Y-37579D01*
X42001D01*
X41972Y-37577D01*
X41940Y-37574D01*
X41905Y-37568D01*
X41823Y-37553D01*
X41738Y-37533D01*
X41647Y-37503D01*
X41559Y-37462D01*
X41556Y-37459D01*
X41550Y-37456D01*
X41536Y-37451D01*
X41521Y-37439D01*
X41500Y-37427D01*
X41480Y-37413D01*
X41430Y-37374D01*
X41372Y-37325D01*
X41316Y-37263D01*
X41260Y-37193D01*
X41210Y-37114D01*
Y-37111D01*
X41205Y-37102D01*
X41199Y-37090D01*
X41193Y-37073D01*
X41184Y-37052D01*
X41172Y-37026D01*
X41164Y-36997D01*
X41152Y-36962D01*
X41140Y-36926D01*
X41131Y-36885D01*
X41111Y-36798D01*
X41099Y-36701D01*
X41093Y-36598D01*
Y-36595D01*
Y-36587D01*
Y-36572D01*
X41096Y-36552D01*
Y-36525D01*
X41099Y-36496D01*
X41102Y-36464D01*
X41108Y-36429D01*
X41123Y-36347D01*
X41143Y-36259D01*
X41172Y-36165D01*
X41210Y-36074D01*
Y-36071D01*
X41216Y-36062D01*
X41222Y-36051D01*
X41231Y-36033D01*
X41246Y-36013D01*
X41260Y-35992D01*
X41295Y-35937D01*
X41345Y-35878D01*
X41401Y-35819D01*
X41471Y-35764D01*
X41506Y-35737D01*
X41547Y-35714D01*
X41550D01*
X41556Y-35708D01*
X41571Y-35702D01*
X41585Y-35696D01*
X41606Y-35685D01*
X41632Y-35676D01*
X41661Y-35664D01*
X41694Y-35652D01*
X41729Y-35644D01*
X41767Y-35632D01*
X41855Y-35611D01*
X41949Y-35600D01*
X42054Y-35594D01*
X42089D01*
X42107Y-35597D01*
D02*
G37*
G36*
X43832Y-35620D02*
X43855Y-35623D01*
X43881Y-35626D01*
X43911Y-35629D01*
X43943Y-35638D01*
X44013Y-35655D01*
X44086Y-35682D01*
X44124Y-35699D01*
X44160Y-35720D01*
X44192Y-35746D01*
X44224Y-35773D01*
X44227Y-35775D01*
X44230Y-35778D01*
X44239Y-35787D01*
X44250Y-35799D01*
X44262Y-35816D01*
X44277Y-35834D01*
X44306Y-35878D01*
X44335Y-35934D01*
X44362Y-35998D01*
X44382Y-36071D01*
X44385Y-36112D01*
X44388Y-36153D01*
Y-36159D01*
Y-36174D01*
X44385Y-36197D01*
X44382Y-36226D01*
X44376Y-36262D01*
X44368Y-36300D01*
X44356Y-36341D01*
X44338Y-36382D01*
X44335Y-36388D01*
X44329Y-36402D01*
X44318Y-36423D01*
X44300Y-36452D01*
X44280Y-36487D01*
X44253Y-36528D01*
X44218Y-36569D01*
X44180Y-36616D01*
X44174Y-36622D01*
X44160Y-36639D01*
X44133Y-36666D01*
X44116Y-36683D01*
X44095Y-36704D01*
X44072Y-36727D01*
X44042Y-36754D01*
X44013Y-36780D01*
X43981Y-36812D01*
X43946Y-36844D01*
X43905Y-36880D01*
X43864Y-36915D01*
X43817Y-36956D01*
X43814Y-36959D01*
X43808Y-36964D01*
X43796Y-36973D01*
X43782Y-36985D01*
X43747Y-37014D01*
X43703Y-37052D01*
X43659Y-37093D01*
X43612Y-37134D01*
X43574Y-37169D01*
X43559Y-37184D01*
X43545Y-37199D01*
X43542Y-37202D01*
X43536Y-37210D01*
X43524Y-37222D01*
X43509Y-37240D01*
X43477Y-37278D01*
X43445Y-37325D01*
X44391D01*
Y-37550D01*
X43117D01*
Y-37547D01*
Y-37536D01*
Y-37518D01*
X43120Y-37497D01*
X43123Y-37474D01*
X43126Y-37448D01*
X43135Y-37418D01*
X43143Y-37389D01*
Y-37386D01*
X43146Y-37383D01*
X43152Y-37366D01*
X43164Y-37342D01*
X43181Y-37307D01*
X43202Y-37269D01*
X43231Y-37225D01*
X43261Y-37181D01*
X43299Y-37134D01*
Y-37131D01*
X43304Y-37128D01*
X43319Y-37111D01*
X43343Y-37085D01*
X43378Y-37049D01*
X43422Y-37008D01*
X43474Y-36959D01*
X43539Y-36903D01*
X43609Y-36841D01*
X43612Y-36839D01*
X43624Y-36830D01*
X43638Y-36818D01*
X43659Y-36798D01*
X43685Y-36777D01*
X43714Y-36751D01*
X43779Y-36695D01*
X43849Y-36628D01*
X43919Y-36560D01*
X43955Y-36528D01*
X43984Y-36496D01*
X44010Y-36464D01*
X44034Y-36434D01*
Y-36431D01*
X44040Y-36429D01*
X44045Y-36420D01*
X44051Y-36408D01*
X44069Y-36379D01*
X44089Y-36341D01*
X44110Y-36297D01*
X44127Y-36250D01*
X44139Y-36197D01*
X44145Y-36147D01*
Y-36144D01*
Y-36142D01*
X44142Y-36124D01*
X44139Y-36098D01*
X44133Y-36065D01*
X44119Y-36027D01*
X44101Y-35989D01*
X44078Y-35948D01*
X44042Y-35910D01*
X44037Y-35907D01*
X44025Y-35896D01*
X44001Y-35881D01*
X43972Y-35860D01*
X43934Y-35843D01*
X43890Y-35828D01*
X43837Y-35816D01*
X43779Y-35814D01*
X43761D01*
X43750Y-35816D01*
X43720Y-35819D01*
X43682Y-35825D01*
X43638Y-35840D01*
X43591Y-35857D01*
X43548Y-35884D01*
X43507Y-35919D01*
X43504Y-35925D01*
X43492Y-35937D01*
X43474Y-35960D01*
X43457Y-35992D01*
X43436Y-36033D01*
X43422Y-36080D01*
X43410Y-36136D01*
X43404Y-36200D01*
X43161Y-36174D01*
Y-36171D01*
Y-36162D01*
X43164Y-36147D01*
X43167Y-36130D01*
X43173Y-36106D01*
X43176Y-36080D01*
X43193Y-36021D01*
X43217Y-35954D01*
X43249Y-35887D01*
X43293Y-35819D01*
X43316Y-35790D01*
X43345Y-35761D01*
X43348Y-35758D01*
X43354Y-35755D01*
X43363Y-35746D01*
X43375Y-35737D01*
X43392Y-35729D01*
X43413Y-35714D01*
X43436Y-35702D01*
X43463Y-35688D01*
X43492Y-35676D01*
X43524Y-35661D01*
X43562Y-35650D01*
X43600Y-35641D01*
X43688Y-35623D01*
X43735Y-35620D01*
X43785Y-35617D01*
X43811D01*
X43832Y-35620D01*
D02*
G37*
G36*
X40716Y-37550D02*
X40446D01*
Y-37281D01*
X40716D01*
Y-37550D01*
D02*
G37*
%LPC*%
G36*
X43580Y15146D02*
X42680D01*
X42500Y15122D01*
X42332Y15053D01*
X42188Y14942D01*
X42077Y14798D01*
X42008Y14630D01*
X41984Y14450D01*
Y13550D01*
X42008Y13370D01*
X42077Y13202D01*
X42188Y13058D01*
X42332Y12947D01*
X42500Y12878D01*
X42680Y12854D01*
X43580D01*
X43760Y12878D01*
X43928Y12947D01*
X44072Y13058D01*
X44183Y13202D01*
X44252Y13370D01*
X44276Y13550D01*
Y14450D01*
X44252Y14630D01*
X44183Y14798D01*
X44072Y14942D01*
X43928Y15053D01*
X43760Y15122D01*
X43580Y15146D01*
D02*
G37*
G36*
X40590Y15150D02*
X40292Y15111D01*
X40015Y14996D01*
X39777Y14813D01*
X39594Y14575D01*
X39479Y14298D01*
X39440Y14000D01*
X39479Y13702D01*
X39594Y13425D01*
X39777Y13187D01*
X40015Y13004D01*
X40292Y12889D01*
X40590Y12850D01*
X40888Y12889D01*
X41165Y13004D01*
X41403Y13187D01*
X41586Y13425D01*
X41701Y13702D01*
X41740Y14000D01*
X41701Y14298D01*
X41586Y14575D01*
X41403Y14813D01*
X41165Y14996D01*
X40888Y15111D01*
X40590Y15150D01*
D02*
G37*
G36*
X38050D02*
X37752Y15111D01*
X37475Y14996D01*
X37237Y14813D01*
X37054Y14575D01*
X36939Y14298D01*
X36900Y14000D01*
X36939Y13702D01*
X37054Y13425D01*
X37237Y13187D01*
X37475Y13004D01*
X37752Y12889D01*
X38050Y12850D01*
X38348Y12889D01*
X38625Y13004D01*
X38863Y13187D01*
X39046Y13425D01*
X39161Y13702D01*
X39200Y14000D01*
X39161Y14298D01*
X39046Y14575D01*
X38863Y14813D01*
X38625Y14996D01*
X38348Y15111D01*
X38050Y15150D01*
D02*
G37*
G36*
X35510D02*
X35212Y15111D01*
X34935Y14996D01*
X34697Y14813D01*
X34514Y14575D01*
X34399Y14298D01*
X34360Y14000D01*
X34399Y13702D01*
X34514Y13425D01*
X34697Y13187D01*
X34935Y13004D01*
X35212Y12889D01*
X35510Y12850D01*
X35808Y12889D01*
X36085Y13004D01*
X36323Y13187D01*
X36506Y13425D01*
X36621Y13702D01*
X36660Y14000D01*
X36621Y14298D01*
X36506Y14575D01*
X36323Y14813D01*
X36085Y14996D01*
X35808Y15111D01*
X35510Y15150D01*
D02*
G37*
G36*
X32970D02*
X32672Y15111D01*
X32395Y14996D01*
X32157Y14813D01*
X31974Y14575D01*
X31859Y14298D01*
X31820Y14000D01*
X31859Y13702D01*
X31974Y13425D01*
X32157Y13187D01*
X32395Y13004D01*
X32672Y12889D01*
X32970Y12850D01*
X33268Y12889D01*
X33545Y13004D01*
X33783Y13187D01*
X33966Y13425D01*
X34081Y13702D01*
X34120Y14000D01*
X34081Y14298D01*
X33966Y14575D01*
X33783Y14813D01*
X33545Y14996D01*
X33268Y15111D01*
X32970Y15150D01*
D02*
G37*
G36*
X30430D02*
X30132Y15111D01*
X29855Y14996D01*
X29617Y14813D01*
X29434Y14575D01*
X29319Y14298D01*
X29280Y14000D01*
X29319Y13702D01*
X29434Y13425D01*
X29617Y13187D01*
X29855Y13004D01*
X30132Y12889D01*
X30430Y12850D01*
X30728Y12889D01*
X31005Y13004D01*
X31243Y13187D01*
X31426Y13425D01*
X31541Y13702D01*
X31580Y14000D01*
X31541Y14298D01*
X31426Y14575D01*
X31243Y14813D01*
X31005Y14996D01*
X30728Y15111D01*
X30430Y15150D01*
D02*
G37*
G36*
X27890D02*
X27592Y15111D01*
X27315Y14996D01*
X27077Y14813D01*
X26894Y14575D01*
X26779Y14298D01*
X26740Y14000D01*
X26779Y13702D01*
X26894Y13425D01*
X27077Y13187D01*
X27315Y13004D01*
X27592Y12889D01*
X27890Y12850D01*
X28188Y12889D01*
X28465Y13004D01*
X28703Y13187D01*
X28886Y13425D01*
X29001Y13702D01*
X29040Y14000D01*
X29001Y14298D01*
X28886Y14575D01*
X28703Y14813D01*
X28465Y14996D01*
X28188Y15111D01*
X27890Y15150D01*
D02*
G37*
G36*
X25350D02*
X25052Y15111D01*
X24775Y14996D01*
X24537Y14813D01*
X24354Y14575D01*
X24239Y14298D01*
X24200Y14000D01*
X24239Y13702D01*
X24354Y13425D01*
X24537Y13187D01*
X24775Y13004D01*
X25052Y12889D01*
X25350Y12850D01*
X25648Y12889D01*
X25925Y13004D01*
X26163Y13187D01*
X26346Y13425D01*
X26461Y13702D01*
X26500Y14000D01*
X26461Y14298D01*
X26346Y14575D01*
X26163Y14813D01*
X25925Y14996D01*
X25648Y15111D01*
X25350Y15150D01*
D02*
G37*
G36*
X22810D02*
X22512Y15111D01*
X22235Y14996D01*
X21997Y14813D01*
X21814Y14575D01*
X21699Y14298D01*
X21660Y14000D01*
X21699Y13702D01*
X21814Y13425D01*
X21997Y13187D01*
X22235Y13004D01*
X22512Y12889D01*
X22810Y12850D01*
X23108Y12889D01*
X23385Y13004D01*
X23623Y13187D01*
X23806Y13425D01*
X23921Y13702D01*
X23960Y14000D01*
X23921Y14298D01*
X23806Y14575D01*
X23623Y14813D01*
X23385Y14996D01*
X23108Y15111D01*
X22810Y15150D01*
D02*
G37*
G36*
X20270D02*
X19972Y15111D01*
X19695Y14996D01*
X19457Y14813D01*
X19274Y14575D01*
X19159Y14298D01*
X19120Y14000D01*
X19159Y13702D01*
X19274Y13425D01*
X19457Y13187D01*
X19695Y13004D01*
X19972Y12889D01*
X20270Y12850D01*
X20568Y12889D01*
X20845Y13004D01*
X21083Y13187D01*
X21266Y13425D01*
X21381Y13702D01*
X21420Y14000D01*
X21381Y14298D01*
X21266Y14575D01*
X21083Y14813D01*
X20845Y14996D01*
X20568Y15111D01*
X20270Y15150D01*
D02*
G37*
G36*
X12650D02*
X12352Y15111D01*
X12075Y14996D01*
X11837Y14813D01*
X11654Y14575D01*
X11539Y14298D01*
X11500Y14000D01*
X11539Y13702D01*
X11654Y13425D01*
X11837Y13187D01*
X12075Y13004D01*
X12352Y12889D01*
X12650Y12850D01*
X12948Y12889D01*
X13225Y13004D01*
X13463Y13187D01*
X13646Y13425D01*
X13761Y13702D01*
X13800Y14000D01*
X13761Y14298D01*
X13646Y14575D01*
X13463Y14813D01*
X13225Y14996D01*
X12948Y15111D01*
X12650Y15150D01*
D02*
G37*
G36*
X10110D02*
X9812Y15111D01*
X9535Y14996D01*
X9297Y14813D01*
X9114Y14575D01*
X8999Y14298D01*
X8960Y14000D01*
X8999Y13702D01*
X9114Y13425D01*
X9297Y13187D01*
X9535Y13004D01*
X9812Y12889D01*
X10110Y12850D01*
X10408Y12889D01*
X10685Y13004D01*
X10923Y13187D01*
X11106Y13425D01*
X11221Y13702D01*
X11260Y14000D01*
X11221Y14298D01*
X11106Y14575D01*
X10923Y14813D01*
X10685Y14996D01*
X10408Y15111D01*
X10110Y15150D01*
D02*
G37*
G36*
X7570D02*
X7272Y15111D01*
X6995Y14996D01*
X6757Y14813D01*
X6574Y14575D01*
X6459Y14298D01*
X6420Y14000D01*
X6459Y13702D01*
X6574Y13425D01*
X6757Y13187D01*
X6995Y13004D01*
X7272Y12889D01*
X7570Y12850D01*
X7868Y12889D01*
X8145Y13004D01*
X8383Y13187D01*
X8566Y13425D01*
X8681Y13702D01*
X8720Y14000D01*
X8681Y14298D01*
X8566Y14575D01*
X8383Y14813D01*
X8145Y14996D01*
X7868Y15111D01*
X7570Y15150D01*
D02*
G37*
G36*
X5030D02*
X4732Y15111D01*
X4455Y14996D01*
X4217Y14813D01*
X4034Y14575D01*
X3919Y14298D01*
X3880Y14000D01*
X3919Y13702D01*
X4034Y13425D01*
X4217Y13187D01*
X4455Y13004D01*
X4732Y12889D01*
X5030Y12850D01*
X5328Y12889D01*
X5605Y13004D01*
X5843Y13187D01*
X6026Y13425D01*
X6141Y13702D01*
X6180Y14000D01*
X6141Y14298D01*
X6026Y14575D01*
X5843Y14813D01*
X5605Y14996D01*
X5328Y15111D01*
X5030Y15150D01*
D02*
G37*
G36*
X2490D02*
X2192Y15111D01*
X1915Y14996D01*
X1677Y14813D01*
X1494Y14575D01*
X1379Y14298D01*
X1340Y14000D01*
X1379Y13702D01*
X1494Y13425D01*
X1677Y13187D01*
X1915Y13004D01*
X2192Y12889D01*
X2490Y12850D01*
X2788Y12889D01*
X3065Y13004D01*
X3303Y13187D01*
X3486Y13425D01*
X3601Y13702D01*
X3640Y14000D01*
X3601Y14298D01*
X3486Y14575D01*
X3303Y14813D01*
X3065Y14996D01*
X2788Y15111D01*
X2490Y15150D01*
D02*
G37*
G36*
X-50D02*
X-348Y15111D01*
X-625Y14996D01*
X-863Y14813D01*
X-1046Y14575D01*
X-1161Y14298D01*
X-1200Y14000D01*
X-1161Y13702D01*
X-1046Y13425D01*
X-863Y13187D01*
X-625Y13004D01*
X-348Y12889D01*
X-50Y12850D01*
X248Y12889D01*
X525Y13004D01*
X763Y13187D01*
X946Y13425D01*
X1061Y13702D01*
X1100Y14000D01*
X1061Y14298D01*
X946Y14575D01*
X763Y14813D01*
X525Y14996D01*
X248Y15111D01*
X-50Y15150D01*
D02*
G37*
G36*
X17028Y10777D02*
X16807Y10733D01*
X16620Y10608D01*
X16495Y10421D01*
X16452Y10201D01*
X16495Y9981D01*
X16620Y9794D01*
X16807Y9669D01*
X17028Y9625D01*
X17248Y9669D01*
X17435Y9794D01*
X17560Y9981D01*
X17604Y10201D01*
X17560Y10421D01*
X17435Y10608D01*
X17248Y10733D01*
X17028Y10777D01*
D02*
G37*
G36*
X17730Y15150D02*
X17432Y15111D01*
X17155Y14996D01*
X16917Y14813D01*
X16734Y14575D01*
X16619Y14298D01*
X16580Y14000D01*
X16619Y13702D01*
X16734Y13425D01*
X16917Y13187D01*
X17077Y13064D01*
Y11438D01*
X17077Y11438D01*
X17127Y11188D01*
X17269Y10976D01*
X23016Y5229D01*
X23016Y5229D01*
X23228Y5087D01*
X23477Y5038D01*
X23477Y5038D01*
X29264D01*
X29310Y4927D01*
X28462Y4079D01*
X28336Y3914D01*
X28256Y3722D01*
X28229Y3516D01*
Y3416D01*
X28109Y3366D01*
X28050Y3425D01*
X28030Y3438D01*
X28013Y3455D01*
X27876Y3547D01*
X27854Y3556D01*
X27834Y3569D01*
X27682Y3632D01*
X27658Y3637D01*
X27636Y3646D01*
X27509Y3671D01*
X27492D01*
X27475Y3676D01*
X27358Y3683D01*
X27351Y3682D01*
X27344Y3683D01*
X27344D01*
X27344Y3683D01*
X25986D01*
X25910Y3776D01*
X25935Y3901D01*
X25891Y4121D01*
X25766Y4308D01*
X25579Y4433D01*
X25359Y4477D01*
X25138Y4433D01*
X24951Y4308D01*
X24826Y4121D01*
X24782Y3901D01*
X24807Y3776D01*
X24731Y3683D01*
X19624Y3683D01*
X19374D01*
X19350Y3678D01*
X19326D01*
X18835Y3581D01*
X18813Y3571D01*
X18790Y3567D01*
X18327Y3375D01*
X18307Y3362D01*
X18285Y3353D01*
X17869Y3075D01*
X17852Y3058D01*
X17832Y3044D01*
X17478Y2691D01*
X17465Y2670D01*
X17448Y2653D01*
X17170Y2237D01*
X17160Y2215D01*
X17147Y2195D01*
X16956Y1733D01*
X16951Y1709D01*
X16942Y1687D01*
X16844Y1196D01*
Y1172D01*
X16839Y1148D01*
Y898D01*
X16839Y-11025D01*
X16839Y-11178D01*
X16845Y-11206D01*
X16846Y-11236D01*
X16919Y-11532D01*
X16931Y-11558D01*
X16939Y-11586D01*
X17080Y-11857D01*
X17098Y-11879D01*
X17113Y-11905D01*
X17313Y-12134D01*
X17336Y-12152D01*
X17357Y-12173D01*
X17478Y-12259D01*
X17622Y-12366D01*
X17892Y-12608D01*
X18128Y-12878D01*
X18330Y-13174D01*
X18495Y-13492D01*
X18558Y-13658D01*
X18560Y-13662D01*
X18561Y-13666D01*
X18611Y-13786D01*
X18614Y-13809D01*
X18621Y-13828D01*
X18707Y-14177D01*
X18750Y-14536D01*
X18755Y-14716D01*
Y-14823D01*
X18774Y-14917D01*
X18859Y-15122D01*
X18912Y-15201D01*
X19069Y-15358D01*
X19148Y-15411D01*
X19353Y-15496D01*
X19447Y-15515D01*
X19558Y-15515D01*
X21209Y-15515D01*
X21302Y-15496D01*
X21302Y-15496D01*
X21512Y-15409D01*
X21592Y-15356D01*
X21592Y-15356D01*
X21753Y-15195D01*
X21753Y-15195D01*
X21806Y-15116D01*
X21893Y-14906D01*
X21911Y-14812D01*
Y-14698D01*
X21911Y-14698D01*
Y-14048D01*
X21908Y-14033D01*
X21909Y-14016D01*
X21907Y-14000D01*
X21909Y-13984D01*
X21908Y-13967D01*
X21911Y-13952D01*
X21911Y-4604D01*
X21917Y-4486D01*
X21964Y-4249D01*
X22054Y-4031D01*
X22186Y-3835D01*
X22352Y-3668D01*
X22548Y-3537D01*
X22766Y-3447D01*
X23004Y-3400D01*
X23122Y-3394D01*
X24869Y-3394D01*
X24904Y-3387D01*
X24940Y-3384D01*
X24950Y-3378D01*
X24962Y-3375D01*
X24992Y-3355D01*
X25024Y-3338D01*
X25032Y-3329D01*
X25042Y-3322D01*
X25062Y-3292D01*
X25084Y-3265D01*
X25123Y-3255D01*
X25221Y-3320D01*
X25441Y-3364D01*
X25662Y-3320D01*
X25697Y-3297D01*
X25825Y-3322D01*
X25837Y-3331D01*
X25847Y-3343D01*
X25875Y-3360D01*
X25902Y-3379D01*
X25917Y-3383D01*
X25930Y-3390D01*
X25963Y-3394D01*
X25994Y-3402D01*
X26046Y-3405D01*
X26483Y-3494D01*
X26887Y-3665D01*
X27254Y-3918D01*
X27415Y-4068D01*
X27633Y-4294D01*
X27589Y-4421D01*
X27443Y-4440D01*
X27251Y-4520D01*
X27086Y-4647D01*
X26643Y-5089D01*
X26516Y-5254D01*
X26437Y-5446D01*
X26429Y-5508D01*
X25935Y-6001D01*
X25793Y-6213D01*
X25744Y-6463D01*
X25744Y-6463D01*
Y-8945D01*
X25744Y-8945D01*
X25793Y-9195D01*
X25935Y-9406D01*
X26615Y-10086D01*
X26615Y-10086D01*
X26826Y-10228D01*
X27076Y-10277D01*
X32075D01*
X32075Y-10277D01*
X32325Y-10228D01*
X32537Y-10086D01*
X35005Y-7618D01*
X35005Y-7618D01*
X35146Y-7407D01*
X35196Y-7157D01*
Y-6082D01*
X35309Y-6044D01*
X35360Y-6110D01*
X36866Y-7616D01*
Y-7959D01*
X36844Y-7967D01*
X36746Y-7979D01*
X36635Y-7813D01*
X36448Y-7688D01*
X36227Y-7644D01*
X36007Y-7688D01*
X35820Y-7813D01*
X35695Y-7999D01*
X35651Y-8220D01*
X35695Y-8440D01*
X35820Y-8627D01*
X36007Y-8752D01*
X36156Y-8782D01*
X36195Y-8912D01*
X34341Y-10766D01*
X26020D01*
X26018Y-10765D01*
X25827Y-10727D01*
X25777Y-10737D01*
X24387Y-9348D01*
Y-7415D01*
X24451Y-7338D01*
X24684Y-6901D01*
X24828Y-6427D01*
X24877Y-5934D01*
X24828Y-5441D01*
X24684Y-4967D01*
X24451Y-4530D01*
X24260Y-4298D01*
X24261Y-4297D01*
X24209Y-4230D01*
X24198Y-4221D01*
X24151Y-4152D01*
X23965Y-4027D01*
X23866Y-4007D01*
X23716Y-3945D01*
X23432Y-3908D01*
X23147Y-3945D01*
X22882Y-4055D01*
X22654Y-4230D01*
X22479Y-4457D01*
X22370Y-4723D01*
X22332Y-5007D01*
X22370Y-5292D01*
X22479Y-5557D01*
X22603Y-5717D01*
X22596Y-5723D01*
X22653Y-5808D01*
X22678Y-5934D01*
X22653Y-6060D01*
X22633Y-6090D01*
X22563Y-6179D01*
X22511Y-6229D01*
X22484Y-6263D01*
X22336Y-6457D01*
X22226Y-6722D01*
X22189Y-7006D01*
Y-9804D01*
X22226Y-10088D01*
X22336Y-10353D01*
X22511Y-10581D01*
X24573Y-12643D01*
X24800Y-12818D01*
X24868Y-12846D01*
Y-12966D01*
X24775Y-13004D01*
X24537Y-13187D01*
X24354Y-13425D01*
X24239Y-13702D01*
X24200Y-14000D01*
X24239Y-14298D01*
X24354Y-14575D01*
X24537Y-14813D01*
X24775Y-14996D01*
X25052Y-15111D01*
X25350Y-15150D01*
X25648Y-15111D01*
X25925Y-14996D01*
X26163Y-14813D01*
X26346Y-14575D01*
X26461Y-14298D01*
X26500Y-14000D01*
X26461Y-13702D01*
X26414Y-13589D01*
X26829Y-13314D01*
X26912Y-13402D01*
X26894Y-13425D01*
X26779Y-13702D01*
X26740Y-14000D01*
X26779Y-14298D01*
X26894Y-14575D01*
X27077Y-14813D01*
X27315Y-14996D01*
X27592Y-15111D01*
X27890Y-15150D01*
X28188Y-15111D01*
X28465Y-14996D01*
X28703Y-14813D01*
X28886Y-14575D01*
X29001Y-14298D01*
X29040Y-14000D01*
X29001Y-13702D01*
X28886Y-13425D01*
X28703Y-13187D01*
X28570Y-13085D01*
X28611Y-12965D01*
X32249D01*
X32290Y-13085D01*
X32157Y-13187D01*
X31974Y-13425D01*
X31859Y-13702D01*
X31820Y-14000D01*
X31859Y-14298D01*
X31974Y-14575D01*
X32157Y-14813D01*
X32395Y-14996D01*
X32672Y-15111D01*
X32970Y-15150D01*
X33268Y-15111D01*
X33545Y-14996D01*
X33783Y-14813D01*
X33966Y-14575D01*
X34081Y-14298D01*
X34120Y-14000D01*
X34081Y-13702D01*
X33966Y-13425D01*
X33783Y-13187D01*
X33650Y-13085D01*
X33691Y-12965D01*
X34789D01*
X34799Y-12976D01*
X34830Y-13085D01*
X34697Y-13187D01*
X34514Y-13425D01*
X34399Y-13702D01*
X34360Y-14000D01*
X34399Y-14298D01*
X34514Y-14575D01*
X34697Y-14813D01*
X34935Y-14996D01*
X35212Y-15111D01*
X35510Y-15150D01*
X35808Y-15111D01*
X36085Y-14996D01*
X36323Y-14813D01*
X36506Y-14575D01*
X36621Y-14298D01*
X36660Y-14000D01*
X36621Y-13702D01*
X36506Y-13425D01*
X36323Y-13187D01*
X36085Y-13004D01*
X35808Y-12889D01*
X35510Y-12850D01*
X35499Y-12852D01*
X35451Y-12737D01*
X35574Y-12643D01*
X38743Y-9474D01*
X38917Y-9246D01*
X39027Y-8981D01*
X39065Y-8697D01*
Y-7160D01*
X39027Y-6876D01*
X38917Y-6611D01*
X38743Y-6383D01*
X37417Y-5058D01*
X37476Y-4947D01*
X37488Y-4949D01*
X37708Y-4905D01*
X37895Y-4781D01*
X38020Y-4594D01*
X38064Y-4373D01*
X38020Y-4153D01*
X37895Y-3966D01*
X37708Y-3841D01*
X37488Y-3797D01*
X37383Y-3818D01*
X37263Y-3720D01*
X37263Y-2502D01*
X37258Y-2478D01*
Y-2454D01*
X37249Y-2432D01*
X37244Y-2408D01*
X37230Y-2388D01*
X37221Y-2366D01*
X37204Y-2349D01*
X37191Y-2329D01*
X37171Y-2316D01*
X37154Y-2299D01*
X37132Y-2289D01*
X37111Y-2276D01*
X37088Y-2271D01*
X37066Y-2262D01*
X37003Y-2250D01*
X36922Y-2195D01*
X36868Y-2114D01*
X36849Y-2019D01*
X36868Y-1923D01*
X36922Y-1842D01*
X37003Y-1787D01*
X37066Y-1775D01*
X37088Y-1766D01*
X37111Y-1761D01*
X37132Y-1748D01*
X37154Y-1739D01*
X37171Y-1722D01*
X37191Y-1708D01*
X37204Y-1688D01*
X37221Y-1671D01*
X37230Y-1649D01*
X37244Y-1629D01*
X37249Y-1605D01*
X37258Y-1583D01*
Y-1559D01*
X37263Y-1535D01*
X37263Y355D01*
X37244Y449D01*
X37191Y528D01*
X36995Y724D01*
X36915Y828D01*
X35794Y1949D01*
Y8045D01*
X35757Y8330D01*
X35647Y8595D01*
X35472Y8822D01*
X34988Y9307D01*
Y9740D01*
X34988Y9740D01*
Y9823D01*
X34969Y9917D01*
X34906Y10070D01*
X34906Y10070D01*
X34853Y10150D01*
X34735Y10267D01*
X34735Y10267D01*
X34656Y10321D01*
X34502Y10384D01*
X34408Y10403D01*
X32672Y10403D01*
X32672Y10403D01*
X32591Y10403D01*
X32498Y10384D01*
X32349Y10323D01*
X32270Y10270D01*
X32156Y10156D01*
X32103Y10076D01*
X32041Y9928D01*
X32041Y9928D01*
X32023Y9834D01*
X32023Y9754D01*
X32023Y9376D01*
X32023Y9376D01*
X32023Y9322D01*
X32027Y9301D01*
X32026Y9279D01*
X32045Y9173D01*
X32053Y9153D01*
X32056Y9132D01*
X32093Y9031D01*
X32104Y9012D01*
X32111Y8992D01*
X32165Y8899D01*
X32180Y8882D01*
X32190Y8864D01*
X33595Y7198D01*
Y2442D01*
X30471D01*
X30225Y2410D01*
X29997Y2315D01*
X29800Y2164D01*
X29786Y2149D01*
X29779Y2141D01*
X29659Y2182D01*
Y2484D01*
X29716Y2558D01*
X29795Y2750D01*
X29822Y2956D01*
Y3185D01*
X30332Y3695D01*
X31764Y5127D01*
X32362Y5725D01*
X32489Y5890D01*
X32568Y6082D01*
X32595Y6288D01*
Y7019D01*
X32568Y7225D01*
X32489Y7417D01*
X32362Y7582D01*
X32197Y7709D01*
X32005Y7789D01*
X31798Y7816D01*
X31592Y7789D01*
X31400Y7709D01*
X31235Y7582D01*
X31108Y7417D01*
X31029Y7225D01*
X31002Y7019D01*
Y6618D01*
X30726Y6343D01*
X23748D01*
X18383Y11708D01*
Y13064D01*
X18543Y13187D01*
X18726Y13425D01*
X18841Y13702D01*
X18880Y14000D01*
X18841Y14298D01*
X18726Y14575D01*
X18543Y14813D01*
X18305Y14996D01*
X18028Y15111D01*
X17730Y15150D01*
D02*
G37*
G36*
X40536Y3457D02*
X40315Y3413D01*
X40128Y3288D01*
X40004Y3101D01*
X39960Y2881D01*
X40004Y2661D01*
X40128Y2474D01*
X40315Y2349D01*
X40536Y2305D01*
X40756Y2349D01*
X40943Y2474D01*
X41068Y2661D01*
X41112Y2881D01*
X41068Y3101D01*
X40943Y3288D01*
X40756Y3413D01*
X40536Y3457D01*
D02*
G37*
G36*
X38793Y-4097D02*
X38572Y-4141D01*
X38385Y-4266D01*
X38261Y-4453D01*
X38217Y-4673D01*
X38261Y-4893D01*
X38385Y-5080D01*
X38572Y-5205D01*
X38793Y-5249D01*
X39013Y-5205D01*
X39200Y-5080D01*
X39325Y-4893D01*
X39369Y-4673D01*
X39325Y-4453D01*
X39200Y-4266D01*
X39013Y-4141D01*
X38793Y-4097D01*
D02*
G37*
G36*
X43580Y-12854D02*
X42680D01*
X42500Y-12878D01*
X42332Y-12947D01*
X42188Y-13058D01*
X42077Y-13202D01*
X42008Y-13370D01*
X41984Y-13550D01*
Y-14450D01*
X42008Y-14630D01*
X42077Y-14798D01*
X42188Y-14942D01*
X42332Y-15053D01*
X42500Y-15122D01*
X42680Y-15146D01*
X43580D01*
X43760Y-15122D01*
X43928Y-15053D01*
X44072Y-14942D01*
X44183Y-14798D01*
X44252Y-14630D01*
X44276Y-14450D01*
Y-13550D01*
X44252Y-13370D01*
X44183Y-13202D01*
X44072Y-13058D01*
X43928Y-12947D01*
X43760Y-12878D01*
X43580Y-12854D01*
D02*
G37*
G36*
X40590Y-12850D02*
X40292Y-12889D01*
X40015Y-13004D01*
X39777Y-13187D01*
X39594Y-13425D01*
X39479Y-13702D01*
X39440Y-14000D01*
X39479Y-14298D01*
X39594Y-14575D01*
X39777Y-14813D01*
X40015Y-14996D01*
X40292Y-15111D01*
X40590Y-15150D01*
X40888Y-15111D01*
X41165Y-14996D01*
X41403Y-14813D01*
X41586Y-14575D01*
X41701Y-14298D01*
X41740Y-14000D01*
X41701Y-13702D01*
X41586Y-13425D01*
X41403Y-13187D01*
X41165Y-13004D01*
X40888Y-12889D01*
X40590Y-12850D01*
D02*
G37*
G36*
X38050D02*
X37752Y-12889D01*
X37475Y-13004D01*
X37237Y-13187D01*
X37054Y-13425D01*
X36939Y-13702D01*
X36900Y-14000D01*
X36939Y-14298D01*
X37054Y-14575D01*
X37237Y-14813D01*
X37475Y-14996D01*
X37752Y-15111D01*
X38050Y-15150D01*
X38348Y-15111D01*
X38625Y-14996D01*
X38863Y-14813D01*
X39046Y-14575D01*
X39161Y-14298D01*
X39200Y-14000D01*
X39161Y-13702D01*
X39046Y-13425D01*
X38863Y-13187D01*
X38625Y-13004D01*
X38348Y-12889D01*
X38050Y-12850D01*
D02*
G37*
G36*
X15190D02*
X14892Y-12889D01*
X14615Y-13004D01*
X14377Y-13187D01*
X14194Y-13425D01*
X14079Y-13702D01*
X14040Y-14000D01*
X14079Y-14298D01*
X14194Y-14575D01*
X14377Y-14813D01*
X14615Y-14996D01*
X14892Y-15111D01*
X15190Y-15150D01*
X15488Y-15111D01*
X15765Y-14996D01*
X16003Y-14813D01*
X16186Y-14575D01*
X16301Y-14298D01*
X16340Y-14000D01*
X16301Y-13702D01*
X16186Y-13425D01*
X16003Y-13187D01*
X15765Y-13004D01*
X15488Y-12889D01*
X15190Y-12850D01*
D02*
G37*
G36*
X12650D02*
X12352Y-12889D01*
X12075Y-13004D01*
X11837Y-13187D01*
X11654Y-13425D01*
X11539Y-13702D01*
X11500Y-14000D01*
X11539Y-14298D01*
X11654Y-14575D01*
X11837Y-14813D01*
X12075Y-14996D01*
X12352Y-15111D01*
X12650Y-15150D01*
X12948Y-15111D01*
X13225Y-14996D01*
X13463Y-14813D01*
X13646Y-14575D01*
X13761Y-14298D01*
X13800Y-14000D01*
X13761Y-13702D01*
X13646Y-13425D01*
X13463Y-13187D01*
X13225Y-13004D01*
X12948Y-12889D01*
X12650Y-12850D01*
D02*
G37*
G36*
X10110D02*
X9812Y-12889D01*
X9535Y-13004D01*
X9297Y-13187D01*
X9114Y-13425D01*
X8999Y-13702D01*
X8960Y-14000D01*
X8999Y-14298D01*
X9114Y-14575D01*
X9297Y-14813D01*
X9535Y-14996D01*
X9812Y-15111D01*
X10110Y-15150D01*
X10408Y-15111D01*
X10685Y-14996D01*
X10923Y-14813D01*
X11106Y-14575D01*
X11221Y-14298D01*
X11260Y-14000D01*
X11221Y-13702D01*
X11106Y-13425D01*
X10923Y-13187D01*
X10685Y-13004D01*
X10408Y-12889D01*
X10110Y-12850D01*
D02*
G37*
G36*
X7570D02*
X7272Y-12889D01*
X6995Y-13004D01*
X6757Y-13187D01*
X6574Y-13425D01*
X6459Y-13702D01*
X6420Y-14000D01*
X6459Y-14298D01*
X6574Y-14575D01*
X6757Y-14813D01*
X6995Y-14996D01*
X7272Y-15111D01*
X7570Y-15150D01*
X7868Y-15111D01*
X8145Y-14996D01*
X8383Y-14813D01*
X8566Y-14575D01*
X8681Y-14298D01*
X8720Y-14000D01*
X8681Y-13702D01*
X8566Y-13425D01*
X8383Y-13187D01*
X8145Y-13004D01*
X7868Y-12889D01*
X7570Y-12850D01*
D02*
G37*
G36*
X5030D02*
X4732Y-12889D01*
X4455Y-13004D01*
X4217Y-13187D01*
X4034Y-13425D01*
X3919Y-13702D01*
X3880Y-14000D01*
X3919Y-14298D01*
X4034Y-14575D01*
X4217Y-14813D01*
X4455Y-14996D01*
X4732Y-15111D01*
X5030Y-15150D01*
X5328Y-15111D01*
X5605Y-14996D01*
X5843Y-14813D01*
X6026Y-14575D01*
X6141Y-14298D01*
X6180Y-14000D01*
X6141Y-13702D01*
X6026Y-13425D01*
X5843Y-13187D01*
X5605Y-13004D01*
X5328Y-12889D01*
X5030Y-12850D01*
D02*
G37*
G36*
X2490D02*
X2192Y-12889D01*
X1915Y-13004D01*
X1677Y-13187D01*
X1494Y-13425D01*
X1379Y-13702D01*
X1340Y-14000D01*
X1379Y-14298D01*
X1494Y-14575D01*
X1677Y-14813D01*
X1915Y-14996D01*
X2192Y-15111D01*
X2490Y-15150D01*
X2788Y-15111D01*
X3065Y-14996D01*
X3303Y-14813D01*
X3486Y-14575D01*
X3601Y-14298D01*
X3640Y-14000D01*
X3601Y-13702D01*
X3486Y-13425D01*
X3303Y-13187D01*
X3065Y-13004D01*
X2788Y-12889D01*
X2490Y-12850D01*
D02*
G37*
G36*
X-50D02*
X-348Y-12889D01*
X-625Y-13004D01*
X-863Y-13187D01*
X-1046Y-13425D01*
X-1161Y-13702D01*
X-1200Y-14000D01*
X-1161Y-14298D01*
X-1046Y-14575D01*
X-863Y-14813D01*
X-625Y-14996D01*
X-348Y-15111D01*
X-50Y-15150D01*
X248Y-15111D01*
X525Y-14996D01*
X763Y-14813D01*
X946Y-14575D01*
X1061Y-14298D01*
X1100Y-14000D01*
X1061Y-13702D01*
X946Y-13425D01*
X763Y-13187D01*
X525Y-13004D01*
X248Y-12889D01*
X-50Y-12850D01*
D02*
G37*
G36*
X-2590D02*
X-2888Y-12889D01*
X-3165Y-13004D01*
X-3403Y-13187D01*
X-3586Y-13425D01*
X-3701Y-13702D01*
X-3740Y-14000D01*
X-3701Y-14298D01*
X-3586Y-14575D01*
X-3403Y-14813D01*
X-3165Y-14996D01*
X-2888Y-15111D01*
X-2590Y-15150D01*
X-2292Y-15111D01*
X-2015Y-14996D01*
X-1777Y-14813D01*
X-1594Y-14575D01*
X-1479Y-14298D01*
X-1440Y-14000D01*
X-1479Y-13702D01*
X-1594Y-13425D01*
X-1777Y-13187D01*
X-2015Y-13004D01*
X-2292Y-12889D01*
X-2590Y-12850D01*
D02*
G37*
G36*
X-5130D02*
X-5428Y-12889D01*
X-5705Y-13004D01*
X-5943Y-13187D01*
X-6126Y-13425D01*
X-6241Y-13702D01*
X-6280Y-14000D01*
X-6241Y-14298D01*
X-6126Y-14575D01*
X-5943Y-14813D01*
X-5705Y-14996D01*
X-5428Y-15111D01*
X-5130Y-15150D01*
X-4832Y-15111D01*
X-4555Y-14996D01*
X-4317Y-14813D01*
X-4134Y-14575D01*
X-4019Y-14298D01*
X-3980Y-14000D01*
X-4019Y-13702D01*
X-4134Y-13425D01*
X-4317Y-13187D01*
X-4555Y-13004D01*
X-4832Y-12889D01*
X-5130Y-12850D01*
D02*
G37*
%LPD*%
G36*
X34325Y10158D02*
X34408D01*
X34562Y10094D01*
X34680Y9977D01*
X34743Y9823D01*
Y9740D01*
X34743Y9740D01*
X34743Y7782D01*
Y7163D01*
X33944D01*
X32412Y8980D01*
X32377Y9021D01*
X32323Y9115D01*
X32286Y9216D01*
X32267Y9322D01*
X32267Y9376D01*
X32267Y9376D01*
X32267Y9754D01*
X32267Y9834D01*
X32329Y9983D01*
X32443Y10097D01*
X32591Y10158D01*
X32672Y10158D01*
X32672Y10158D01*
X34325Y10158D01*
D02*
G37*
G36*
X27344Y3438D02*
X27461Y3431D01*
X27588Y3406D01*
X27740Y3343D01*
X27760Y3330D01*
X27760Y3330D01*
X27857Y3265D01*
X27857Y3265D01*
X27877Y3252D01*
X27994Y3135D01*
X28085Y2998D01*
X28148Y2846D01*
X28180Y2684D01*
X28180Y2602D01*
X28180Y2084D01*
X28132Y2044D01*
X27940Y2006D01*
X27778Y1897D01*
X27670Y1735D01*
X27632Y1544D01*
X27670Y1353D01*
X27778Y1191D01*
X27940Y1083D01*
X28132Y1045D01*
X28180Y1005D01*
X28180Y-1164D01*
X28185Y-1258D01*
X28222Y-1442D01*
X28294Y-1616D01*
X28398Y-1772D01*
X28531Y-1905D01*
X28688Y-2010D01*
X28861Y-2082D01*
X29046Y-2118D01*
X29140Y-2123D01*
X32976Y-2123D01*
X32976Y-2123D01*
X32976Y-2123D01*
X33118D01*
X33391Y-2203D01*
X33630Y-2356D01*
X33817Y-2570D01*
X33891Y-2729D01*
Y-3502D01*
X33825Y-3650D01*
X33709Y-3786D01*
X33659Y-3841D01*
X33607Y-3894D01*
X33553Y-3944D01*
X33525Y-3969D01*
X31884Y-5399D01*
X31754Y-5512D01*
X31461Y-5693D01*
X31142Y-5825D01*
X30807Y-5905D01*
X30463Y-5928D01*
X30119Y-5897D01*
X29786Y-5810D01*
X29470Y-5671D01*
X29326Y-5577D01*
X29250Y-5527D01*
X29104Y-5420D01*
X29104Y-5420D01*
X28965Y-5305D01*
X28832Y-5183D01*
X28770Y-5118D01*
X27587Y-3894D01*
X27587Y-3894D01*
X27587D01*
X27496Y-3809D01*
X27408Y-3726D01*
X27005Y-3450D01*
X26555Y-3259D01*
X26077Y-3162D01*
X26031Y-3159D01*
X26022Y-3157D01*
X25987Y-3112D01*
X25973Y-3055D01*
X25974Y-3009D01*
X26018Y-2788D01*
X25974Y-2568D01*
X25849Y-2381D01*
X25662Y-2256D01*
X25441Y-2212D01*
X25221Y-2256D01*
X25034Y-2381D01*
X24909Y-2568D01*
X24865Y-2788D01*
X24909Y-3009D01*
X24936Y-3048D01*
X24859Y-3147D01*
X24856D01*
X24844Y-3149D01*
X23116Y-3149D01*
X23116Y-3149D01*
X22974Y-3156D01*
X22956Y-3160D01*
X22956D01*
X22695Y-3212D01*
X22433Y-3320D01*
X22196Y-3478D01*
X21995Y-3679D01*
X21838Y-3915D01*
X21828Y-3938D01*
X21828Y-3938D01*
X21729Y-4178D01*
X21674Y-4456D01*
X21667Y-4598D01*
Y-4679D01*
X21667Y-13952D01*
X21660Y-14000D01*
X21667Y-14048D01*
Y-14698D01*
X21667Y-14698D01*
Y-14788D01*
X21657Y-14834D01*
X21589Y-15000D01*
X21562Y-15039D01*
X21436Y-15166D01*
X21396Y-15192D01*
X21231Y-15261D01*
X21185Y-15270D01*
X19558Y-15270D01*
X19471Y-15270D01*
X19425Y-15261D01*
X19264Y-15194D01*
X19225Y-15168D01*
X19102Y-15045D01*
X19076Y-15006D01*
X19009Y-14845D01*
X19000Y-14799D01*
Y-14712D01*
X18994Y-14518D01*
X18948Y-14133D01*
X18856Y-13756D01*
X18843Y-13723D01*
X18841Y-13702D01*
X18787Y-13572D01*
X18724Y-13406D01*
X18724Y-13406D01*
X18719Y-13393D01*
X18712Y-13380D01*
X18712Y-13380D01*
X18540Y-13048D01*
X18322Y-12728D01*
X18066Y-12436D01*
X17777Y-12177D01*
X17622Y-12060D01*
X17517Y-11987D01*
X17513Y-11983D01*
X17498Y-11972D01*
X17486Y-11958D01*
X17482Y-11955D01*
X17313Y-11762D01*
X17310Y-11757D01*
X17298Y-11743D01*
X17289Y-11726D01*
X17286Y-11722D01*
X17167Y-11495D01*
X17166Y-11490D01*
X17157Y-11473D01*
X17153Y-11455D01*
X17151Y-11450D01*
X17090Y-11201D01*
X17090Y-11196D01*
X17085Y-11178D01*
Y-11159D01*
X17084Y-11154D01*
X17084Y-11025D01*
X17084Y-11025D01*
X17084Y-10908D01*
X17084Y898D01*
Y1148D01*
X17182Y1639D01*
X17182Y1639D01*
X17182Y1639D01*
X17373Y2101D01*
X17651Y2517D01*
X17988Y2854D01*
X17988Y2854D01*
X18005Y2871D01*
X18421Y3149D01*
X18883Y3341D01*
X19374Y3438D01*
X19624D01*
X25034Y3438D01*
X25138Y3369D01*
X25359Y3325D01*
X25579Y3369D01*
X25683Y3438D01*
X27226D01*
X27344Y3438D01*
D02*
G37*
G36*
X36822Y551D02*
X36822Y551D01*
X37001Y372D01*
X37013Y353D01*
X37018Y331D01*
X37018Y-1408D01*
X37018Y-1535D01*
X36908Y-1557D01*
X36786Y-1638D01*
X36786Y-1638D01*
X36746Y-1665D01*
X36637Y-1827D01*
X36628Y-1875D01*
X36628Y-1875D01*
X36599Y-2019D01*
X36628Y-2162D01*
X36628Y-2162D01*
X36637Y-2210D01*
X36665Y-2250D01*
X36665Y-2250D01*
X36665Y-2250D01*
X36746Y-2372D01*
X36908Y-2480D01*
X36956Y-2490D01*
X37018Y-2502D01*
X37018Y-4200D01*
X35389Y-4231D01*
X35298Y-4142D01*
Y115D01*
X36278Y1095D01*
X36822Y551D01*
D02*
G37*
G36*
X33805Y-4078D02*
X33891Y-4126D01*
Y-6887D01*
X31805Y-8972D01*
X30574D01*
X30562Y-8852D01*
X30582Y-8848D01*
X30735Y-8818D01*
X30922Y-8693D01*
X31047Y-8506D01*
X31091Y-8285D01*
X31047Y-8065D01*
X30922Y-7878D01*
X30735Y-7753D01*
X30515Y-7709D01*
X30294Y-7753D01*
X30107Y-7878D01*
X29982Y-8065D01*
X29938Y-8285D01*
X29982Y-8506D01*
X30107Y-8693D01*
X30294Y-8818D01*
X30447Y-8848D01*
X30467Y-8852D01*
X30456Y-8972D01*
X27346D01*
X27049Y-8675D01*
Y-6733D01*
X27351Y-6430D01*
X27413Y-6422D01*
X27560Y-6361D01*
X27603Y-6378D01*
X27665Y-6418D01*
X27680Y-6436D01*
X27718Y-6626D01*
X27843Y-6813D01*
X28030Y-6938D01*
X28250Y-6982D01*
X28470Y-6938D01*
X28657Y-6813D01*
X28782Y-6626D01*
X28826Y-6406D01*
X28782Y-6185D01*
X28657Y-5998D01*
X28470Y-5873D01*
X28312Y-5842D01*
X28258Y-5715D01*
X28340Y-5608D01*
X28420Y-5416D01*
X28435Y-5297D01*
X28562Y-5255D01*
X28594Y-5288D01*
X28594Y-5288D01*
X28656Y-5353D01*
X28662Y-5357D01*
X28666Y-5362D01*
X28799Y-5485D01*
X28805Y-5489D01*
X28809Y-5494D01*
X28949Y-5609D01*
X28955Y-5612D01*
X28959Y-5617D01*
X29105Y-5724D01*
X29111Y-5727D01*
X29116Y-5732D01*
X29192Y-5782D01*
X29192Y-5782D01*
X29192Y-5782D01*
X29336Y-5876D01*
X29355Y-5883D01*
X29371Y-5895D01*
X29687Y-6034D01*
X29706Y-6038D01*
X29724Y-6047D01*
X30058Y-6134D01*
X30078Y-6135D01*
X30097Y-6140D01*
X30440Y-6172D01*
X30460Y-6170D01*
X30480Y-6173D01*
X30824Y-6149D01*
X30843Y-6143D01*
X30863Y-6143D01*
X31198Y-6064D01*
X31216Y-6055D01*
X31236Y-6052D01*
X31554Y-5919D01*
X31571Y-5908D01*
X31590Y-5901D01*
X31883Y-5720D01*
X31897Y-5706D01*
X31914Y-5696D01*
X32044Y-5583D01*
X33686Y-4153D01*
X33714Y-4129D01*
X33717Y-4125D01*
X33721Y-4123D01*
X33771Y-4076D01*
X33805Y-4078D01*
D02*
G37*
G36*
X27540Y-12548D02*
X25350Y-14000D01*
X25440Y-11336D01*
X27540Y-12548D01*
D02*
G37*
%LPC*%
G36*
X23706Y2786D02*
X23515Y2748D01*
X23353Y2640D01*
X23245Y2478D01*
X23207Y2287D01*
X23245Y2096D01*
X23353Y1934D01*
X23515Y1825D01*
X23706Y1787D01*
X23897Y1825D01*
X24060Y1934D01*
X24168Y2096D01*
X24206Y2287D01*
X24168Y2478D01*
X24060Y2640D01*
X23897Y2748D01*
X23706Y2786D01*
D02*
G37*
G36*
X18221Y2663D02*
X18000Y2619D01*
X17814Y2494D01*
X17689Y2308D01*
X17645Y2087D01*
X17689Y1867D01*
X17814Y1680D01*
X18000Y1555D01*
X18221Y1511D01*
X18441Y1555D01*
X18628Y1680D01*
X18753Y1867D01*
X18797Y2087D01*
X18753Y2308D01*
X18628Y2494D01*
X18441Y2619D01*
X18221Y2663D01*
D02*
G37*
G36*
X23711Y676D02*
X23490Y632D01*
X23303Y507D01*
X23178Y320D01*
X23135Y100D01*
X23178Y-120D01*
X23303Y-307D01*
X23490Y-432D01*
X23711Y-476D01*
X23931Y-432D01*
X23981Y-399D01*
X24050Y-434D01*
X24101Y-471D01*
X24136Y-649D01*
X24224Y-781D01*
X24136Y-913D01*
X24098Y-1104D01*
X24136Y-1295D01*
X24245Y-1457D01*
X24407Y-1565D01*
X24598Y-1603D01*
X24789Y-1565D01*
X24951Y-1457D01*
X25060Y-1295D01*
X25098Y-1104D01*
X25060Y-913D01*
X24972Y-781D01*
X25060Y-649D01*
X25098Y-458D01*
X25060Y-267D01*
X24951Y-105D01*
X24789Y3D01*
X24598Y41D01*
X24407Y3D01*
X24384Y-12D01*
X24279Y59D01*
X24287Y100D01*
X24243Y320D01*
X24118Y507D01*
X23931Y632D01*
X23711Y676D01*
D02*
G37*
G36*
X18275Y-4349D02*
X18054Y-4393D01*
X17867Y-4518D01*
X17742Y-4705D01*
X17699Y-4925D01*
X17742Y-5146D01*
X17867Y-5333D01*
X18054Y-5458D01*
X18275Y-5501D01*
X18495Y-5458D01*
X18682Y-5333D01*
X18807Y-5146D01*
X18851Y-4925D01*
X18807Y-4705D01*
X18682Y-4518D01*
X18495Y-4393D01*
X18275Y-4349D01*
D02*
G37*
G36*
X19700Y-3724D02*
X19480Y-3768D01*
X19293Y-3893D01*
X19168Y-4080D01*
X19124Y-4300D01*
X19168Y-4520D01*
X19293Y-4707D01*
X19480Y-4832D01*
X19700Y-4876D01*
X19902Y-4836D01*
X19968Y-4878D01*
X20014Y-4922D01*
X20002Y-4985D01*
X20046Y-5206D01*
X20170Y-5393D01*
X20357Y-5517D01*
X20578Y-5561D01*
X20798Y-5517D01*
X20985Y-5393D01*
X21110Y-5206D01*
X21154Y-4985D01*
X21110Y-4765D01*
X20985Y-4578D01*
X20798Y-4453D01*
X20578Y-4409D01*
X20376Y-4449D01*
X20310Y-4408D01*
X20264Y-4363D01*
X20276Y-4300D01*
X20232Y-4080D01*
X20107Y-3893D01*
X19920Y-3768D01*
X19700Y-3724D01*
D02*
G37*
G36*
X2116Y-36320D02*
X2072D01*
X2061Y-36323D01*
X2031Y-36326D01*
X1996Y-36335D01*
X1955Y-36352D01*
X1911Y-36376D01*
X1867Y-36405D01*
X1847Y-36426D01*
X1826Y-36449D01*
X1821Y-36455D01*
X1818Y-36464D01*
X1809Y-36472D01*
X1803Y-36487D01*
X1794Y-36505D01*
X1782Y-36525D01*
X1774Y-36549D01*
X1765Y-36575D01*
X1753Y-36604D01*
X1744Y-36639D01*
X1739Y-36675D01*
X1730Y-36716D01*
X1727Y-36759D01*
X1721Y-36806D01*
Y-36856D01*
Y-36859D01*
Y-36868D01*
Y-36882D01*
X1724Y-36900D01*
Y-36923D01*
X1727Y-36947D01*
X1736Y-37008D01*
X1747Y-37073D01*
X1768Y-37140D01*
X1794Y-37202D01*
X1812Y-37231D01*
X1832Y-37257D01*
X1838Y-37263D01*
X1853Y-37278D01*
X1876Y-37298D01*
X1908Y-37322D01*
X1946Y-37348D01*
X1990Y-37369D01*
X2043Y-37383D01*
X2069Y-37386D01*
X2099Y-37389D01*
X2113D01*
X2125Y-37386D01*
X2154Y-37383D01*
X2190Y-37374D01*
X2231Y-37357D01*
X2274Y-37336D01*
X2321Y-37304D01*
X2342Y-37287D01*
X2362Y-37263D01*
Y-37260D01*
X2368Y-37257D01*
X2371Y-37249D01*
X2380Y-37240D01*
X2389Y-37225D01*
X2397Y-37210D01*
X2406Y-37190D01*
X2418Y-37167D01*
X2427Y-37143D01*
X2436Y-37114D01*
X2444Y-37082D01*
X2453Y-37046D01*
X2462Y-37008D01*
X2465Y-36967D01*
X2471Y-36923D01*
Y-36877D01*
Y-36874D01*
Y-36865D01*
Y-36850D01*
X2468Y-36830D01*
Y-36806D01*
X2465Y-36780D01*
X2456Y-36716D01*
X2444Y-36648D01*
X2424Y-36578D01*
X2397Y-36511D01*
X2380Y-36481D01*
X2359Y-36455D01*
Y-36452D01*
X2354Y-36449D01*
X2339Y-36434D01*
X2315Y-36411D01*
X2283Y-36388D01*
X2245Y-36364D01*
X2198Y-36341D01*
X2146Y-36326D01*
X2116Y-36320D01*
D02*
G37*
G36*
X5440Y-36850D02*
X5434Y-36853D01*
X5426Y-36856D01*
X5417Y-36859D01*
X5402Y-36865D01*
X5385Y-36868D01*
X5367Y-36874D01*
X5344Y-36882D01*
X5317Y-36888D01*
X5288Y-36894D01*
X5259Y-36903D01*
X5224Y-36912D01*
X5186Y-36918D01*
X5145Y-36926D01*
X5101Y-36932D01*
X5054Y-36941D01*
X5048D01*
X5030Y-36944D01*
X5004Y-36950D01*
X4972Y-36956D01*
X4904Y-36970D01*
X4872Y-36979D01*
X4846Y-36988D01*
X4843D01*
X4837Y-36994D01*
X4825Y-37000D01*
X4814Y-37008D01*
X4784Y-37032D01*
X4755Y-37067D01*
Y-37070D01*
X4749Y-37076D01*
X4746Y-37085D01*
X4740Y-37099D01*
X4729Y-37134D01*
X4726Y-37155D01*
X4723Y-37178D01*
Y-37181D01*
Y-37193D01*
X4726Y-37210D01*
X4732Y-37234D01*
X4740Y-37257D01*
X4752Y-37284D01*
X4770Y-37310D01*
X4793Y-37336D01*
X4796Y-37339D01*
X4808Y-37345D01*
X4822Y-37357D01*
X4846Y-37366D01*
X4875Y-37377D01*
X4913Y-37389D01*
X4954Y-37395D01*
X5004Y-37398D01*
X5027D01*
X5051Y-37395D01*
X5086Y-37389D01*
X5121Y-37383D01*
X5162Y-37374D01*
X5203Y-37360D01*
X5244Y-37339D01*
X5250Y-37336D01*
X5262Y-37328D01*
X5282Y-37316D01*
X5306Y-37295D01*
X5329Y-37275D01*
X5355Y-37246D01*
X5382Y-37213D01*
X5402Y-37175D01*
X5405Y-37172D01*
X5408Y-37161D01*
X5414Y-37143D01*
X5423Y-37117D01*
X5429Y-37082D01*
X5434Y-37041D01*
X5437Y-36994D01*
X5440Y-36938D01*
Y-36850D01*
D02*
G37*
G36*
X7962Y-36317D02*
X7947D01*
X7936Y-36320D01*
X7903Y-36323D01*
X7865Y-36332D01*
X7821Y-36344D01*
X7777Y-36364D01*
X7730Y-36390D01*
X7687Y-36429D01*
X7681Y-36434D01*
X7669Y-36449D01*
X7651Y-36472D01*
X7631Y-36508D01*
X7610Y-36549D01*
X7590Y-36598D01*
X7575Y-36657D01*
X7566Y-36721D01*
X8345D01*
Y-36718D01*
Y-36713D01*
X8343Y-36704D01*
Y-36692D01*
X8337Y-36660D01*
X8328Y-36622D01*
X8316Y-36581D01*
X8299Y-36537D01*
X8281Y-36493D01*
X8255Y-36458D01*
Y-36455D01*
X8249Y-36452D01*
X8234Y-36434D01*
X8208Y-36414D01*
X8176Y-36388D01*
X8132Y-36361D01*
X8082Y-36338D01*
X8026Y-36323D01*
X7994Y-36320D01*
X7962Y-36317D01*
D02*
G37*
%LPD*%
D15*
X50818Y17489D02*
X50818Y-17511D01*
X-10704Y17489D02*
X50818Y17489D01*
X-10704Y-17511D02*
X50818Y-17511D01*
X-10704Y17489D02*
X-10704Y-17511D01*
D16*
X-17322Y17399D02*
X-16814Y15875D01*
X-17830D02*
X-17322Y17399D01*
X-17830Y-16083D02*
X-17322Y-17607D01*
X-16814Y-16083D01*
X-17322Y4720D02*
Y17399D01*
Y-17607D02*
Y-5741D01*
X-17576Y17399D02*
X-10761D01*
X-17576Y-17607D02*
X-10706D01*
X-10736Y23308D02*
X-9212Y23816D01*
X-10736Y23308D02*
X-9212Y22800D01*
X49229D02*
X50753Y23308D01*
X49229Y23816D02*
X50753Y23308D01*
X-10736D02*
X14371D01*
X24833D02*
X50753D01*
X-10736Y17423D02*
Y23562D01*
X50753Y17423D02*
Y23562D01*
D17*
X-17678Y-5335D02*
X-17932Y-5081D01*
Y-4573D01*
X-17678Y-4319D01*
X-17424D01*
X-17170Y-4573D01*
Y-4827D01*
Y-4573D01*
X-16916Y-4319D01*
X-16662D01*
X-16408Y-4573D01*
Y-5081D01*
X-16662Y-5335D01*
X-17932Y-2796D02*
Y-3811D01*
X-17170D01*
X-17424Y-3304D01*
Y-3050D01*
X-17170Y-2796D01*
X-16662D01*
X-16408Y-3050D01*
Y-3557D01*
X-16662Y-3811D01*
X-16408Y-2288D02*
X-16662D01*
Y-2034D01*
X-16408D01*
Y-2288D01*
X-17678Y-1018D02*
X-17932Y-764D01*
Y-257D01*
X-17678Y-3D01*
X-16662D01*
X-16408Y-257D01*
Y-764D01*
X-16662Y-1018D01*
X-17678D01*
X-16408Y505D02*
Y1013D01*
Y759D01*
X-17932D01*
X-17678Y505D01*
X-16408Y1775D02*
X-17424D01*
Y2029D01*
X-17170Y2283D01*
X-16408D01*
X-17170D01*
X-17424Y2537D01*
X-17170Y2790D01*
X-16408D01*
Y3298D02*
X-17424D01*
Y3552D01*
X-17170Y3806D01*
X-16408D01*
X-17170D01*
X-17424Y4060D01*
X-17170Y4314D01*
X-16408D01*
X15793Y23917D02*
X15286Y23663D01*
X14778Y23155D01*
Y22647D01*
X15032Y22394D01*
X15539D01*
X15793Y22647D01*
Y22901D01*
X15539Y23155D01*
X14778D01*
X16301Y22394D02*
X16809D01*
X16555D01*
Y23917D01*
X16301Y23663D01*
X17571Y22394D02*
Y22647D01*
X17825D01*
Y22394D01*
X17571D01*
X19602D02*
Y23917D01*
X18840Y23155D01*
X19856D01*
X20364Y22647D02*
X20618Y22394D01*
X21126D01*
X21380Y22647D01*
Y23663D01*
X21126Y23917D01*
X20618D01*
X20364Y23663D01*
Y23409D01*
X20618Y23155D01*
X21380D01*
X21887Y22394D02*
Y23409D01*
X22141D01*
X22395Y23155D01*
Y22394D01*
Y23155D01*
X22649Y23409D01*
X22903Y23155D01*
Y22394D01*
X23411D02*
Y23409D01*
X23665D01*
X23919Y23155D01*
Y22394D01*
Y23155D01*
X24173Y23409D01*
X24427Y23155D01*
Y22394D01*
D43*
X36138Y-4359D02*
X36152Y-4373D01*
X37488D01*
D74*
X32670Y9531D02*
X33462D01*
X33835D02*
X34041Y9737D01*
D78*
X37096Y6537D02*
X38640Y4993D01*
X36252Y6537D02*
X37096D01*
D81*
X10110Y14000D02*
D03*
X12650D02*
D03*
X2490D02*
D03*
X5030D02*
D03*
X-5130D02*
D03*
X-50D02*
D03*
X-2590D02*
D03*
X7570D02*
D03*
X35510D02*
D03*
X38050D02*
D03*
X30430D02*
D03*
X32970D02*
D03*
X40590D02*
D03*
X15190D02*
D03*
X20270D02*
D03*
X17730D02*
D03*
X22810D02*
D03*
X27890D02*
D03*
X25350D02*
D03*
X10110Y-14000D02*
D03*
X12650D02*
D03*
X2490D02*
D03*
X5030D02*
D03*
X-5130D02*
D03*
X-50D02*
D03*
X-2590D02*
D03*
X7570D02*
D03*
X35510D02*
D03*
X38050D02*
D03*
X30430D02*
D03*
X32970D02*
D03*
X40590D02*
D03*
X15190D02*
D03*
X20270D02*
D03*
X17730D02*
D03*
X22810D02*
D03*
X27890D02*
D03*
X25350D02*
D03*
D82*
X43130Y14000D02*
D03*
X43130Y-14000D02*
D03*
D83*
X49958Y-1858D02*
D03*
X48558Y14942D02*
D03*
X47858Y13542D02*
D03*
X48558Y12142D02*
D03*
X47858Y10742D02*
D03*
X48558Y9342D02*
D03*
X47858Y7942D02*
D03*
X48558Y6542D02*
D03*
X47858Y5142D02*
D03*
X48558Y-1858D02*
D03*
X47858Y-6058D02*
D03*
X48558Y-7458D02*
D03*
X47858Y-8858D02*
D03*
X48558Y-10258D02*
D03*
X47858Y-11658D02*
D03*
X48558Y-13058D02*
D03*
X47858Y-14458D02*
D03*
X47158Y14942D02*
D03*
X46458Y13542D02*
D03*
X47158Y12142D02*
D03*
X46458Y10742D02*
D03*
X47158Y9342D02*
D03*
X46458Y7942D02*
D03*
X47158Y6542D02*
D03*
X46458Y5142D02*
D03*
Y2342D02*
D03*
Y-6058D02*
D03*
X47158Y-7458D02*
D03*
X46458Y-8858D02*
D03*
X47158Y-10258D02*
D03*
X46458Y-11658D02*
D03*
X47158Y-13058D02*
D03*
X46458Y-14458D02*
D03*
X45758Y14942D02*
D03*
X45058Y13542D02*
D03*
X45758Y12142D02*
D03*
X45058Y10742D02*
D03*
X45758Y9342D02*
D03*
X45058Y7942D02*
D03*
X45758Y6542D02*
D03*
X45058Y5142D02*
D03*
Y2342D02*
D03*
Y-3258D02*
D03*
Y-6058D02*
D03*
X45758Y-7458D02*
D03*
X45058Y-8858D02*
D03*
X45758Y-10258D02*
D03*
X45058Y-11658D02*
D03*
X45758Y-13058D02*
D03*
X45058Y-14458D02*
D03*
X44358Y12142D02*
D03*
X43658Y10742D02*
D03*
X44358Y9342D02*
D03*
X43658Y7942D02*
D03*
X44358Y6542D02*
D03*
X43658Y5142D02*
D03*
X44358Y3742D02*
D03*
X43658Y2342D02*
D03*
Y-3258D02*
D03*
X44358Y-4658D02*
D03*
X43658Y-6058D02*
D03*
X44358Y-7458D02*
D03*
X43658Y-8858D02*
D03*
X44358Y-10258D02*
D03*
X43658Y-11658D02*
D03*
X42258Y10742D02*
D03*
X42958Y9342D02*
D03*
X42258Y7942D02*
D03*
X42958Y6542D02*
D03*
X42258Y5142D02*
D03*
X42958Y3742D02*
D03*
X42258Y2342D02*
D03*
Y-3258D02*
D03*
X42958Y-4658D02*
D03*
X42258Y-6058D02*
D03*
X42958Y-7458D02*
D03*
X42258Y-8858D02*
D03*
X40858Y5142D02*
D03*
X41558Y3742D02*
D03*
Y-4658D02*
D03*
X40858Y-6058D02*
D03*
X41558Y-7458D02*
D03*
X40858Y-8858D02*
D03*
X40158Y9342D02*
D03*
X39458Y7942D02*
D03*
X40158Y6542D02*
D03*
Y-7458D02*
D03*
X39458Y-8858D02*
D03*
X38758Y12142D02*
D03*
Y9342D02*
D03*
X38058Y7942D02*
D03*
X38758Y6542D02*
D03*
X38058Y5142D02*
D03*
Y-458D02*
D03*
X37358Y9342D02*
D03*
X36658Y7942D02*
D03*
X37358Y6542D02*
D03*
X35958Y9342D02*
D03*
X33158Y12142D02*
D03*
Y-10258D02*
D03*
X31758Y14942D02*
D03*
X28958D02*
D03*
Y12142D02*
D03*
X25458Y10742D02*
D03*
X24758Y12142D02*
D03*
X22658Y5142D02*
D03*
X21258D02*
D03*
X19158Y14942D02*
D03*
X18458Y5142D02*
D03*
X16358Y14942D02*
D03*
Y-13058D02*
D03*
X14258Y7942D02*
D03*
X14958Y6542D02*
D03*
Y3742D02*
D03*
X14258Y2342D02*
D03*
X14958Y942D02*
D03*
X14258Y-458D02*
D03*
X14958Y-1858D02*
D03*
X14258Y-3258D02*
D03*
X12858Y7942D02*
D03*
X13558Y6542D02*
D03*
Y3742D02*
D03*
X12858Y2342D02*
D03*
X13558Y942D02*
D03*
X12858Y-458D02*
D03*
X13558Y-1858D02*
D03*
X12858Y-3258D02*
D03*
X13558Y-4658D02*
D03*
X12158Y12142D02*
D03*
X11458Y7942D02*
D03*
X12158Y6542D02*
D03*
Y3742D02*
D03*
X11458Y2342D02*
D03*
X12158Y942D02*
D03*
X11458Y-458D02*
D03*
X12158Y-1858D02*
D03*
X11458Y-3258D02*
D03*
X12158Y-4658D02*
D03*
X11458Y-11658D02*
D03*
X10058Y7942D02*
D03*
X10758Y6542D02*
D03*
Y3742D02*
D03*
X10058Y2342D02*
D03*
X10758Y942D02*
D03*
X10058Y-458D02*
D03*
X10758Y-1858D02*
D03*
X10058Y-3258D02*
D03*
X10758Y-4658D02*
D03*
X9358Y12142D02*
D03*
X8658Y7942D02*
D03*
X9358Y6542D02*
D03*
Y3742D02*
D03*
X8658Y2342D02*
D03*
X9358Y942D02*
D03*
X8658Y-458D02*
D03*
X9358Y-1858D02*
D03*
X8658Y-3258D02*
D03*
X9358Y-4658D02*
D03*
X8658Y-11658D02*
D03*
X7258Y10742D02*
D03*
Y7942D02*
D03*
X7958Y6542D02*
D03*
Y3742D02*
D03*
X7258Y2342D02*
D03*
X7958Y942D02*
D03*
X7258Y-458D02*
D03*
X7958Y-1858D02*
D03*
X7258Y-3258D02*
D03*
X7958Y-4658D02*
D03*
X6558Y12142D02*
D03*
X5858Y7942D02*
D03*
X6558Y6542D02*
D03*
Y3742D02*
D03*
X5858Y2342D02*
D03*
X6558Y942D02*
D03*
X5858Y-458D02*
D03*
X6558Y-1858D02*
D03*
X5858Y-3258D02*
D03*
X6558Y-4658D02*
D03*
Y-10258D02*
D03*
X5858Y-11658D02*
D03*
X4458Y10742D02*
D03*
Y7942D02*
D03*
X5158Y6542D02*
D03*
Y3742D02*
D03*
X4458Y2342D02*
D03*
X5158Y942D02*
D03*
X4458Y-458D02*
D03*
X5158Y-1858D02*
D03*
X4458Y-3258D02*
D03*
X5158Y-4658D02*
D03*
X4458Y-11658D02*
D03*
X3758Y14942D02*
D03*
Y12142D02*
D03*
X3058Y7942D02*
D03*
Y5142D02*
D03*
X3758Y3742D02*
D03*
X3058Y2342D02*
D03*
X3758Y942D02*
D03*
X3058Y-458D02*
D03*
X3758Y-1858D02*
D03*
X3058Y-3258D02*
D03*
X3758Y-4658D02*
D03*
X3058Y-11658D02*
D03*
X3758Y-13058D02*
D03*
X1658Y10742D02*
D03*
X2358Y9342D02*
D03*
X1658Y5142D02*
D03*
X2358Y3742D02*
D03*
X1658Y2342D02*
D03*
X2358Y942D02*
D03*
X1658Y-458D02*
D03*
X2358Y-1858D02*
D03*
X1658Y-3258D02*
D03*
X2358Y-4658D02*
D03*
X1658Y-8858D02*
D03*
X2358Y-10258D02*
D03*
X1658Y-11658D02*
D03*
X958Y12142D02*
D03*
X258Y7942D02*
D03*
X958Y6542D02*
D03*
X258Y5142D02*
D03*
X958Y3742D02*
D03*
X258Y2342D02*
D03*
X958Y942D02*
D03*
X258Y-458D02*
D03*
X958Y-1858D02*
D03*
X258Y-3258D02*
D03*
X958Y-4658D02*
D03*
Y-7458D02*
D03*
X-1142Y10742D02*
D03*
Y7942D02*
D03*
X-442Y6542D02*
D03*
X-1142Y5142D02*
D03*
X-442Y3742D02*
D03*
X-1142Y2342D02*
D03*
X-442Y942D02*
D03*
X-1142Y-458D02*
D03*
X-442Y-1858D02*
D03*
X-1142Y-3258D02*
D03*
X-442Y-4658D02*
D03*
X-1142Y-6058D02*
D03*
Y-11658D02*
D03*
X-1842Y12142D02*
D03*
X-2542Y10742D02*
D03*
X-1842Y9342D02*
D03*
X-2542Y7942D02*
D03*
X-1842Y6542D02*
D03*
X-2542Y5142D02*
D03*
X-1842Y3742D02*
D03*
X-2542Y2342D02*
D03*
X-1842Y942D02*
D03*
X-2542Y-458D02*
D03*
X-1842Y-1858D02*
D03*
X-2542Y-3258D02*
D03*
X-1842Y-4658D02*
D03*
X-2542Y-6058D02*
D03*
X-1842Y-10258D02*
D03*
X-3242Y12142D02*
D03*
X-3942Y10742D02*
D03*
X-3242Y9342D02*
D03*
X-3942Y7942D02*
D03*
X-3242Y6542D02*
D03*
X-3942Y5142D02*
D03*
X-3242Y3742D02*
D03*
X-3942Y2342D02*
D03*
X-3242Y942D02*
D03*
X-3942Y-458D02*
D03*
X-3242Y-1858D02*
D03*
X-3942Y-3258D02*
D03*
X-3242Y-4658D02*
D03*
X-3942Y-6058D02*
D03*
X-3242Y-7458D02*
D03*
X-3942Y-8858D02*
D03*
X-4642Y12142D02*
D03*
X-5342Y10742D02*
D03*
X-4642Y9342D02*
D03*
X-5342Y7942D02*
D03*
X-4642Y6542D02*
D03*
X-5342Y5142D02*
D03*
X-4642Y3742D02*
D03*
X-5342Y2342D02*
D03*
X-4642Y942D02*
D03*
X-5342Y-458D02*
D03*
X-4642Y-1858D02*
D03*
X-5342Y-3258D02*
D03*
X-4642Y-4658D02*
D03*
X-5342Y-6058D02*
D03*
X-4642Y-7458D02*
D03*
X-5342Y-8858D02*
D03*
X-6042Y14942D02*
D03*
X-6742Y13542D02*
D03*
X-6042Y12142D02*
D03*
X-6742Y10742D02*
D03*
X-6042Y9342D02*
D03*
X-6742Y7942D02*
D03*
X-6042Y6542D02*
D03*
X-6742Y5142D02*
D03*
X-6042Y3742D02*
D03*
X-6742Y2342D02*
D03*
X-6042Y942D02*
D03*
X-6742Y-458D02*
D03*
X-6042Y-1858D02*
D03*
X-6742Y-3258D02*
D03*
X-6042Y-4658D02*
D03*
X-6742Y-6058D02*
D03*
X-6042Y-7458D02*
D03*
X-6742Y-8858D02*
D03*
X-6042Y-10258D02*
D03*
X-6742Y-11658D02*
D03*
X-7442Y14942D02*
D03*
X-8142Y13542D02*
D03*
X-7442Y12142D02*
D03*
X-8142Y10742D02*
D03*
X-7442Y9342D02*
D03*
Y6542D02*
D03*
X-8142Y5142D02*
D03*
X-7442Y3742D02*
D03*
Y942D02*
D03*
X-8142Y-458D02*
D03*
X-7442Y-1858D02*
D03*
Y-4658D02*
D03*
X-8142Y-6058D02*
D03*
X-7442Y-7458D02*
D03*
X-8142Y-8858D02*
D03*
X-7442Y-10258D02*
D03*
X-8142Y-11658D02*
D03*
X-7442Y-13058D02*
D03*
X-8142Y-14458D02*
D03*
X46826Y-3530D02*
D03*
X46976Y3050D02*
D03*
X37099Y-2019D02*
D03*
X45051Y-1539D02*
D03*
X38724Y-3102D02*
D03*
X39095Y-2571D02*
D03*
X37981Y-3102D02*
D03*
X38352Y-2571D02*
D03*
X37609D02*
D03*
X38059Y2106D02*
D03*
X38430Y1574D02*
D03*
X37316Y2106D02*
D03*
X37687Y1574D02*
D03*
X36944D02*
D03*
X45794Y-1539D02*
D03*
X45423Y-2071D02*
D03*
X46166D02*
D03*
X44679D02*
D03*
X44308Y-1539D02*
D03*
X42821D02*
D03*
X40964Y-2071D02*
D03*
X41707D02*
D03*
X43193D02*
D03*
X42450D02*
D03*
X43936D02*
D03*
X41335Y-1539D02*
D03*
X42078D02*
D03*
X43564D02*
D03*
X40692D02*
D03*
X46681Y1488D02*
D03*
X45938D02*
D03*
X45566Y957D02*
D03*
X46309D02*
D03*
X44823D02*
D03*
X45195Y1488D02*
D03*
X41479D02*
D03*
X40736D02*
D03*
X42965D02*
D03*
X42222D02*
D03*
X42593Y957D02*
D03*
X41107D02*
D03*
X41850D02*
D03*
X40464D02*
D03*
X44080D02*
D03*
X43337D02*
D03*
X43708Y1488D02*
D03*
X44452D02*
D03*
X36588Y2731D02*
D03*
X36960Y3263D02*
D03*
X36589Y3794D02*
D03*
X36961Y4326D02*
D03*
X36218D02*
D03*
X19677Y-11718D02*
D03*
X19527Y-10930D02*
D03*
X18635Y-11095D02*
D03*
X18772Y-12608D02*
D03*
X25837Y-12483D02*
D03*
X25827Y-11227D02*
D03*
X49566Y-4035D02*
D03*
X48080D02*
D03*
X50310D02*
D03*
X48823D02*
D03*
X47556Y-4035D02*
D03*
Y3451D02*
D03*
X48823Y3451D02*
D03*
X50310D02*
D03*
X48080D02*
D03*
X49566D02*
D03*
X28132Y1544D02*
D03*
X27708Y4532D02*
D03*
Y3949D02*
D03*
X23706Y2287D02*
D03*
X24598Y-458D02*
D03*
Y-1104D02*
D03*
X28441Y7636D02*
D03*
X37231Y12029D02*
D03*
X36488D02*
D03*
X40220Y11926D02*
D03*
X39477D02*
D03*
X42825Y11793D02*
D03*
X42082D02*
D03*
X24503Y11554D02*
D03*
X25246D02*
D03*
X21776Y11558D02*
D03*
X22519D02*
D03*
X19467Y11550D02*
D03*
X20210D02*
D03*
X43235Y-9752D02*
D03*
X41849D02*
D03*
X38976D02*
D03*
X40363D02*
D03*
X35200Y-7900D02*
D03*
X36219Y5389D02*
D03*
X36591Y5920D02*
D03*
X36962Y5389D02*
D03*
X36590Y4857D02*
D03*
X46376Y-1564D02*
D03*
D85*
X31798Y7019D02*
D03*
X37488Y-4373D02*
D03*
X38793Y-4673D02*
D03*
X40536Y2881D02*
D03*
X33285Y-2916D02*
D03*
X18221Y2087D02*
D03*
X30409Y-5175D02*
D03*
X50199Y16250D02*
D03*
X49300Y14816D02*
D03*
X50253Y15366D02*
D03*
X48052Y15942D02*
D03*
X49152D02*
D03*
X47502Y16895D02*
D03*
X48602D02*
D03*
X49702D02*
D03*
X49300Y-15203D02*
D03*
X47415Y-16917D02*
D03*
X48515D02*
D03*
X49615D02*
D03*
X47965Y-15964D02*
D03*
X49065D02*
D03*
X50165D02*
D03*
X-9030Y16301D02*
D03*
X50253Y14266D02*
D03*
X49300Y13716D02*
D03*
X49300Y7116D02*
D03*
X49300Y4916D02*
D03*
Y6016D02*
D03*
X49300Y12616D02*
D03*
X49300Y8216D02*
D03*
X49300Y10416D02*
D03*
X49300Y9316D02*
D03*
X49300Y11516D02*
D03*
X50253Y6566D02*
D03*
Y13166D02*
D03*
Y12066D02*
D03*
X50253Y7666D02*
D03*
X50253Y8766D02*
D03*
Y9866D02*
D03*
X50253Y10966D02*
D03*
X50253Y5466D02*
D03*
X50253Y4366D02*
D03*
X50253Y-5034D02*
D03*
X50253Y-6134D02*
D03*
X50253Y-7234D02*
D03*
X50253Y-8334D02*
D03*
X50253Y-9434D02*
D03*
X50253Y-10534D02*
D03*
X50253Y-11634D02*
D03*
Y-12734D02*
D03*
X50253Y-13834D02*
D03*
X50253Y-14934D02*
D03*
X49300Y-5584D02*
D03*
X49300Y-6684D02*
D03*
X49300Y-7784D02*
D03*
Y-8884D02*
D03*
Y-9984D02*
D03*
X49300Y-11084D02*
D03*
X49300Y-12184D02*
D03*
Y-13284D02*
D03*
X49300Y-14384D02*
D03*
X-8995Y-16137D02*
D03*
X-9785Y16083D02*
D03*
X-9785Y14983D02*
D03*
X-9785Y13883D02*
D03*
X-9785Y12783D02*
D03*
Y11683D02*
D03*
X-9785Y10583D02*
D03*
X-9785Y9483D02*
D03*
X-9785Y8383D02*
D03*
X-9785Y7283D02*
D03*
X-9785Y6183D02*
D03*
X-9785Y5083D02*
D03*
X-9785Y3983D02*
D03*
X-9785Y2883D02*
D03*
X-9785Y1783D02*
D03*
X-9785Y683D02*
D03*
X-9785Y-417D02*
D03*
X-9785Y-1517D02*
D03*
X-9785Y-2617D02*
D03*
X-9785Y-3717D02*
D03*
X-9785Y-4817D02*
D03*
Y-5917D02*
D03*
Y-7017D02*
D03*
Y-8117D02*
D03*
X-9785Y-9217D02*
D03*
X-9785Y-10317D02*
D03*
X-9785Y-11417D02*
D03*
X-9785Y-12517D02*
D03*
X-9785Y-13617D02*
D03*
X-9785Y-14717D02*
D03*
X-9785Y-15817D02*
D03*
X-8832Y15533D02*
D03*
X-8832Y14433D02*
D03*
X-8832Y13333D02*
D03*
X-8832Y12233D02*
D03*
X-8832Y11133D02*
D03*
X-8832Y10033D02*
D03*
X-8832Y8933D02*
D03*
Y7833D02*
D03*
X-8832Y6733D02*
D03*
X-8832Y5633D02*
D03*
Y4533D02*
D03*
X-8832Y3433D02*
D03*
X-8832Y2333D02*
D03*
X-8832Y1233D02*
D03*
X-8832Y133D02*
D03*
X-8832Y-967D02*
D03*
X-8832Y-2067D02*
D03*
X-8832Y-3167D02*
D03*
X-8832Y-4267D02*
D03*
Y-5367D02*
D03*
X-8832Y-6467D02*
D03*
X-8832Y-7567D02*
D03*
X-8832Y-8667D02*
D03*
X-8832Y-9767D02*
D03*
X-8832Y-10867D02*
D03*
X-8832Y-11967D02*
D03*
Y-13067D02*
D03*
Y-14167D02*
D03*
X-8832Y-15267D02*
D03*
X46402Y16895D02*
D03*
X45302D02*
D03*
X44202D02*
D03*
X43102D02*
D03*
X42002D02*
D03*
X40902D02*
D03*
X39802D02*
D03*
X38702D02*
D03*
X37602D02*
D03*
X36502D02*
D03*
X35402D02*
D03*
X34302D02*
D03*
X33202D02*
D03*
X32102D02*
D03*
X31002D02*
D03*
X29902D02*
D03*
X28802D02*
D03*
X27702D02*
D03*
X26602D02*
D03*
X25502D02*
D03*
X24402D02*
D03*
X23302D02*
D03*
X22202D02*
D03*
X21102D02*
D03*
X20002D02*
D03*
X18902D02*
D03*
X17802D02*
D03*
X16702D02*
D03*
X15602D02*
D03*
X14502D02*
D03*
X13402D02*
D03*
X12302D02*
D03*
X11202D02*
D03*
X10102D02*
D03*
X9002D02*
D03*
X7902D02*
D03*
X6802D02*
D03*
X5702D02*
D03*
X4602D02*
D03*
X3502D02*
D03*
X2402D02*
D03*
X1302D02*
D03*
X202D02*
D03*
X-898D02*
D03*
X-1998D02*
D03*
X-3098D02*
D03*
X-4198D02*
D03*
X-5298D02*
D03*
X-6398D02*
D03*
X-7498D02*
D03*
X-8598D02*
D03*
X-9698D02*
D03*
X46952Y15942D02*
D03*
X45852D02*
D03*
X44752D02*
D03*
X43652D02*
D03*
X42552D02*
D03*
X41452D02*
D03*
X40352D02*
D03*
X39252D02*
D03*
X38152D02*
D03*
X37052D02*
D03*
X35952D02*
D03*
X34852D02*
D03*
X33752D02*
D03*
X32652D02*
D03*
X31552D02*
D03*
X30452D02*
D03*
X29352D02*
D03*
X28252D02*
D03*
X27152D02*
D03*
X26052D02*
D03*
X24952D02*
D03*
X23852D02*
D03*
X22752D02*
D03*
X21652D02*
D03*
X20552D02*
D03*
X19452D02*
D03*
X18352D02*
D03*
X17252D02*
D03*
X16152D02*
D03*
X15052D02*
D03*
X13952D02*
D03*
X12852D02*
D03*
X11752D02*
D03*
X10652D02*
D03*
X9552D02*
D03*
X8452D02*
D03*
X7352D02*
D03*
X6252D02*
D03*
X5152D02*
D03*
X4052D02*
D03*
X2952D02*
D03*
X1852D02*
D03*
X752D02*
D03*
X-348D02*
D03*
X-1448D02*
D03*
X-2548D02*
D03*
X-3648D02*
D03*
X-4748D02*
D03*
X-5848D02*
D03*
X-6948D02*
D03*
X-8048D02*
D03*
X46865Y-15964D02*
D03*
X45765D02*
D03*
X44665D02*
D03*
X43565D02*
D03*
X42465D02*
D03*
X41365D02*
D03*
X40265D02*
D03*
X39165D02*
D03*
X38065D02*
D03*
X36965D02*
D03*
X35865D02*
D03*
X34765D02*
D03*
X33665D02*
D03*
X32565D02*
D03*
X31465D02*
D03*
X30365D02*
D03*
X29265D02*
D03*
X28165D02*
D03*
X27065D02*
D03*
X25965D02*
D03*
X24865D02*
D03*
X23765D02*
D03*
X22665D02*
D03*
X21565D02*
D03*
X20465D02*
D03*
X19365D02*
D03*
X18265D02*
D03*
X17165D02*
D03*
X16065D02*
D03*
X14965D02*
D03*
X13865D02*
D03*
X12765D02*
D03*
X11665D02*
D03*
X10565D02*
D03*
X9465D02*
D03*
X8365D02*
D03*
X7265D02*
D03*
X6165D02*
D03*
X5065D02*
D03*
X3965D02*
D03*
X2865D02*
D03*
X665D02*
D03*
X-435D02*
D03*
X-1535D02*
D03*
X-2635D02*
D03*
X-3735D02*
D03*
X-4835D02*
D03*
X-5935D02*
D03*
X-7035D02*
D03*
X-8135D02*
D03*
X46315Y-16917D02*
D03*
X45215D02*
D03*
X44115D02*
D03*
X43015D02*
D03*
X41915D02*
D03*
X40815D02*
D03*
X39715D02*
D03*
X38615D02*
D03*
X37515D02*
D03*
X36415D02*
D03*
X35315D02*
D03*
X34215D02*
D03*
X33115D02*
D03*
X32015D02*
D03*
X30915D02*
D03*
X29815D02*
D03*
X28715D02*
D03*
X27615D02*
D03*
X26515D02*
D03*
X25415D02*
D03*
X24315D02*
D03*
X23215D02*
D03*
X22115D02*
D03*
X21015D02*
D03*
X19915D02*
D03*
X18815D02*
D03*
X17715D02*
D03*
X16615D02*
D03*
X15515D02*
D03*
X14415D02*
D03*
X13315D02*
D03*
X12215D02*
D03*
X11115D02*
D03*
X10015D02*
D03*
X8915D02*
D03*
X7815D02*
D03*
X6715D02*
D03*
X5615D02*
D03*
X4515D02*
D03*
X3415D02*
D03*
X2315D02*
D03*
X1215D02*
D03*
X115D02*
D03*
X-985D02*
D03*
X-2085D02*
D03*
X-3185D02*
D03*
X-4285D02*
D03*
X-5385D02*
D03*
X-6485D02*
D03*
X-7585D02*
D03*
X-9785D02*
D03*
X-8685D02*
D03*
X25328Y1874D02*
D03*
X29769Y4259D02*
D03*
X24579Y2628D02*
D03*
X34041Y9737D02*
D03*
X32670Y9531D02*
D03*
X22349Y-5934D02*
D03*
X25441Y-2788D02*
D03*
X17028Y10201D02*
D03*
X23312Y-5533D02*
D03*
X23744Y-4559D02*
D03*
X30515Y-8285D02*
D03*
X36227Y-8220D02*
D03*
X20578Y-4985D02*
D03*
X27593Y2397D02*
D03*
X25359Y3901D02*
D03*
X30008Y1405D02*
D03*
X27650Y-5210D02*
D03*
X28250Y-6406D02*
D03*
X23711Y100D02*
D03*
X30788Y-6550D02*
D03*
X18275Y-4925D02*
D03*
X18500Y-2250D02*
D03*
X19700Y-4300D02*
D03*
D86*
X23288Y-7006D02*
G03*
X23432Y-5007I-939J1072D01*
G01*
X23288Y-9804D02*
X25350Y-11866D01*
X25837D02*
X34796D01*
X25350D02*
X25827D01*
X36138Y-5333D02*
Y-4359D01*
X23288Y-9804D02*
Y-7006D01*
X34695Y1494D02*
X36138Y51D01*
Y-5333D02*
X37965Y-7160D01*
Y-8697D02*
Y-7160D01*
X34796Y-11866D02*
X37965Y-8697D01*
X34695Y1494D02*
Y8045D01*
X34014Y8726D02*
X34695Y8045D01*
D87*
X31798Y6288D02*
Y7019D01*
X31200Y5690D02*
X31798Y6288D01*
X29769Y4259D02*
X31200Y5690D01*
X27206Y-5653D02*
X27649Y-5210D01*
X27650D01*
X29026Y2956D02*
Y3516D01*
X29769Y4259D01*
D88*
X28977Y-15D02*
Y1020D01*
Y-15D02*
X29568Y-605D01*
X29007Y1866D02*
Y2937D01*
X29026Y2956D01*
X23477Y5690D02*
X31200D01*
X17730Y11438D02*
X23477Y5690D01*
X26396Y-8945D02*
Y-6463D01*
X27206Y-5653D01*
X29568Y-605D02*
X33230D01*
X34543Y-1918D01*
Y-7157D02*
Y-1918D01*
X32075Y-9625D02*
X34543Y-7157D01*
X27076Y-9625D02*
X32075D01*
X26396Y-8945D02*
X27076Y-9625D01*
X17730Y11438D02*
Y14000D01*
D89*
X30022Y1405D02*
Y1418D01*
D90*
X28977Y1152D02*
X29007Y1182D01*
X28977Y1020D02*
Y1152D01*
X29007Y1182D02*
Y1866D01*
D91*
X30456Y1479D02*
X30471Y1494D01*
X34695D01*
M02*
