G04*
G04 #@! TF.GenerationSoftware,Altium Limited,Altium Designer,22.1.2 (22)*
G04*
G04 Layer_Color=16711935*
%FSLAX43Y43*%
%MOMM*%
G71*
G04*
G04 #@! TF.SameCoordinates,549D327D-CD9E-48CF-806C-D238132880F2*
G04*
G04*
G04 #@! TF.FilePolarity,Negative*
G04*
G01*
G75*
%ADD15C,0.300*%
%ADD16C,0.254*%
%ADD17C,0.152*%
%ADD23R,5.000X1.700*%
%ADD25R,0.700X0.850*%
%ADD27R,0.875X1.150*%
%ADD33R,0.850X0.700*%
%ADD37R,1.150X0.875*%
%ADD38C,1.950*%
G04:AMPARAMS|DCode=39|XSize=1.95mm|YSize=1.95mm|CornerRadius=0.525mm|HoleSize=0mm|Usage=FLASHONLY|Rotation=180.000|XOffset=0mm|YOffset=0mm|HoleType=Round|Shape=RoundedRectangle|*
%AMROUNDEDRECTD39*
21,1,1.950,0.900,0,0,180.0*
21,1,0.900,1.950,0,0,180.0*
1,1,1.050,-0.450,0.450*
1,1,1.050,0.450,0.450*
1,1,1.050,0.450,-0.450*
1,1,1.050,-0.450,-0.450*
%
%ADD39ROUNDEDRECTD39*%
%ADD40C,0.100*%
%ADD41C,0.250*%
%ADD94R,1.110X1.550*%
%ADD95R,1.250X1.100*%
G36*
X63719Y-36159D02*
X63768Y-36165D01*
X63809Y-36176D01*
X63847Y-36188D01*
X63877Y-36200D01*
X63900Y-36212D01*
X63915Y-36217D01*
X63921Y-36220D01*
X63959Y-36244D01*
X63994Y-36273D01*
X64023Y-36299D01*
X64047Y-36326D01*
X64067Y-36349D01*
X64082Y-36367D01*
X64091Y-36379D01*
X64093Y-36384D01*
Y-36188D01*
X64304D01*
Y-37582D01*
X64067D01*
Y-36859D01*
X64064Y-36791D01*
X64061Y-36733D01*
X64055Y-36683D01*
X64047Y-36642D01*
X64041Y-36610D01*
X64035Y-36586D01*
X64032Y-36575D01*
X64029Y-36569D01*
X64011Y-36534D01*
X63994Y-36502D01*
X63973Y-36475D01*
X63953Y-36452D01*
X63935Y-36437D01*
X63921Y-36422D01*
X63909Y-36417D01*
X63906Y-36414D01*
X63874Y-36396D01*
X63842Y-36384D01*
X63809Y-36373D01*
X63783Y-36367D01*
X63757Y-36364D01*
X63739Y-36361D01*
X63722D01*
X63675Y-36364D01*
X63637Y-36373D01*
X63604Y-36387D01*
X63578Y-36399D01*
X63557Y-36414D01*
X63546Y-36428D01*
X63537Y-36437D01*
X63534Y-36440D01*
X63514Y-36472D01*
X63499Y-36510D01*
X63490Y-36548D01*
X63481Y-36589D01*
X63478Y-36622D01*
X63475Y-36651D01*
Y-36663D01*
Y-36671D01*
Y-36674D01*
Y-36677D01*
Y-37582D01*
X63238Y-37582D01*
Y-36774D01*
X63235Y-36698D01*
X63224Y-36633D01*
X63209Y-36581D01*
X63188Y-36537D01*
X63171Y-36502D01*
X63156Y-36478D01*
X63145Y-36466D01*
X63142Y-36461D01*
X63104Y-36428D01*
X63060Y-36402D01*
X63019Y-36384D01*
X62981Y-36373D01*
X62948Y-36367D01*
X62919Y-36361D01*
X62896D01*
X62866Y-36364D01*
X62840Y-36367D01*
X62814Y-36373D01*
X62793Y-36379D01*
X62778Y-36387D01*
X62767Y-36393D01*
X62758Y-36396D01*
X62755Y-36399D01*
X62735Y-36414D01*
X62717Y-36431D01*
X62702Y-36449D01*
X62691Y-36463D01*
X62682Y-36478D01*
X62676Y-36490D01*
X62670Y-36499D01*
Y-36502D01*
X62661Y-36528D01*
X62655Y-36560D01*
X62650Y-36627D01*
X62647Y-36657D01*
Y-36683D01*
Y-36701D01*
Y-36704D01*
Y-36707D01*
Y-37582D01*
X62409D01*
Y-36627D01*
Y-36584D01*
X62415Y-36543D01*
X62427Y-36469D01*
X62445Y-36411D01*
X62465Y-36361D01*
X62489Y-36323D01*
X62506Y-36294D01*
X62518Y-36279D01*
X62524Y-36273D01*
X62571Y-36235D01*
X62620Y-36206D01*
X62673Y-36185D01*
X62726Y-36171D01*
X62770Y-36162D01*
X62790Y-36159D01*
X62808D01*
X62822Y-36156D01*
X62843D01*
X62893Y-36159D01*
X62937Y-36168D01*
X62981Y-36179D01*
X63022Y-36194D01*
X63098Y-36235D01*
X63130Y-36256D01*
X63159Y-36279D01*
X63186Y-36302D01*
X63209Y-36323D01*
X63229Y-36343D01*
X63247Y-36364D01*
X63259Y-36379D01*
X63268Y-36390D01*
X63273Y-36399D01*
X63276Y-36402D01*
X63294Y-36361D01*
X63314Y-36323D01*
X63338Y-36294D01*
X63361Y-36267D01*
X63382Y-36247D01*
X63399Y-36232D01*
X63411Y-36223D01*
X63417Y-36220D01*
X63455Y-36200D01*
X63496Y-36182D01*
X63540Y-36171D01*
X63578Y-36165D01*
X63613Y-36159D01*
X63642Y-36156D01*
X63669D01*
X63719Y-36159D01*
D02*
G37*
G36*
X67250Y-35846D02*
Y-36188D01*
X67426D01*
Y-36373D01*
X67250D01*
Y-37175D01*
Y-37213D01*
Y-37248D01*
X67248Y-37281D01*
Y-37310D01*
X67245Y-37336D01*
X67242Y-37357D01*
X67236Y-37395D01*
X67233Y-37424D01*
X67227Y-37442D01*
X67224Y-37453D01*
Y-37456D01*
X67212Y-37480D01*
X67195Y-37500D01*
X67180Y-37518D01*
X67163Y-37532D01*
X67148Y-37544D01*
X67136Y-37553D01*
X67127Y-37559D01*
X67125Y-37562D01*
X67095Y-37573D01*
X67063Y-37582D01*
X67028Y-37591D01*
X66996Y-37594D01*
X66966Y-37597D01*
X66943Y-37600D01*
X66922D01*
X66861Y-37597D01*
X66832Y-37594D01*
X66805Y-37588D01*
X66779Y-37585D01*
X66761Y-37582D01*
X66750Y-37579D01*
X66744D01*
X66776Y-37371D01*
X66820Y-37377D01*
X66838D01*
X66852Y-37380D01*
X66881D01*
X66917Y-37377D01*
X66943Y-37371D01*
X66958Y-37368D01*
X66963Y-37365D01*
X66981Y-37351D01*
X66993Y-37336D01*
X66999Y-37324D01*
X67002Y-37319D01*
X67004Y-37304D01*
X67007Y-37286D01*
X67010Y-37242D01*
X67013Y-37222D01*
Y-37204D01*
Y-37193D01*
Y-37190D01*
Y-36373D01*
X66776D01*
Y-36188D01*
X67013D01*
Y-35702D01*
X67250Y-35846D01*
D02*
G37*
G36*
X66504D02*
Y-36188D01*
X66679D01*
Y-36373D01*
X66504D01*
Y-37175D01*
Y-37213D01*
Y-37248D01*
X66501Y-37281D01*
Y-37310D01*
X66498Y-37336D01*
X66495Y-37357D01*
X66489Y-37395D01*
X66486Y-37424D01*
X66480Y-37442D01*
X66477Y-37453D01*
Y-37456D01*
X66466Y-37480D01*
X66448Y-37500D01*
X66433Y-37518D01*
X66416Y-37532D01*
X66401Y-37544D01*
X66389Y-37553D01*
X66381Y-37559D01*
X66378Y-37562D01*
X66348Y-37573D01*
X66316Y-37582D01*
X66281Y-37591D01*
X66249Y-37594D01*
X66220Y-37597D01*
X66196Y-37600D01*
X66176D01*
X66114Y-37597D01*
X66085Y-37594D01*
X66059Y-37588D01*
X66032Y-37585D01*
X66015Y-37582D01*
X66003Y-37579D01*
X65997D01*
X66029Y-37371D01*
X66073Y-37377D01*
X66091D01*
X66105Y-37380D01*
X66135D01*
X66170Y-37377D01*
X66196Y-37371D01*
X66211Y-37368D01*
X66217Y-37365D01*
X66234Y-37351D01*
X66246Y-37336D01*
X66252Y-37324D01*
X66255Y-37319D01*
X66258Y-37304D01*
X66261Y-37286D01*
X66264Y-37242D01*
X66266Y-37222D01*
Y-37204D01*
Y-37193D01*
Y-37190D01*
Y-36373D01*
X66029D01*
Y-36188D01*
X66266D01*
Y-35702D01*
X66504Y-35846D01*
D02*
G37*
G36*
X55425Y-36159D02*
X55475Y-36165D01*
X55521Y-36174D01*
X55565Y-36185D01*
X55609Y-36203D01*
X55647Y-36217D01*
X55682Y-36235D01*
X55715Y-36253D01*
X55744Y-36273D01*
X55767Y-36291D01*
X55791Y-36305D01*
X55808Y-36320D01*
X55823Y-36335D01*
X55832Y-36343D01*
X55838Y-36349D01*
X55841Y-36352D01*
X55873Y-36390D01*
X55899Y-36431D01*
X55923Y-36475D01*
X55943Y-36519D01*
X55961Y-36566D01*
X55975Y-36610D01*
X55996Y-36698D01*
X56005Y-36739D01*
X56010Y-36777D01*
X56013Y-36812D01*
X56016Y-36841D01*
X56019Y-36865D01*
Y-36885D01*
Y-36897D01*
Y-36900D01*
X56016Y-36961D01*
X56010Y-37020D01*
X56002Y-37076D01*
X55990Y-37125D01*
X55978Y-37172D01*
X55964Y-37216D01*
X55946Y-37254D01*
X55928Y-37289D01*
X55914Y-37322D01*
X55896Y-37351D01*
X55882Y-37374D01*
X55867Y-37392D01*
X55858Y-37406D01*
X55849Y-37418D01*
X55844Y-37424D01*
X55841Y-37427D01*
X55805Y-37459D01*
X55767Y-37488D01*
X55729Y-37515D01*
X55688Y-37535D01*
X55650Y-37553D01*
X55609Y-37568D01*
X55533Y-37591D01*
X55495Y-37600D01*
X55463Y-37606D01*
X55434Y-37609D01*
X55407Y-37611D01*
X55387Y-37614D01*
X55357D01*
X55270Y-37609D01*
X55193Y-37597D01*
X55123Y-37576D01*
X55067Y-37556D01*
X55041Y-37544D01*
X55021Y-37535D01*
X55003Y-37524D01*
X54988Y-37515D01*
X54974Y-37509D01*
X54965Y-37503D01*
X54962Y-37497D01*
X54959D01*
X54906Y-37450D01*
X54860Y-37395D01*
X54824Y-37339D01*
X54795Y-37286D01*
X54772Y-37237D01*
X54763Y-37216D01*
X54757Y-37199D01*
X54751Y-37184D01*
X54748Y-37172D01*
X54745Y-37166D01*
Y-37163D01*
X54988Y-37131D01*
X55012Y-37184D01*
X55035Y-37231D01*
X55059Y-37269D01*
X55082Y-37298D01*
X55103Y-37324D01*
X55120Y-37339D01*
X55132Y-37351D01*
X55135Y-37354D01*
X55170Y-37377D01*
X55208Y-37392D01*
X55246Y-37404D01*
X55281Y-37412D01*
X55311Y-37418D01*
X55334Y-37421D01*
X55357D01*
X55419Y-37415D01*
X55475Y-37404D01*
X55524Y-37383D01*
X55568Y-37360D01*
X55600Y-37339D01*
X55627Y-37319D01*
X55641Y-37307D01*
X55647Y-37301D01*
X55685Y-37251D01*
X55718Y-37193D01*
X55738Y-37134D01*
X55756Y-37078D01*
X55767Y-37026D01*
X55770Y-37005D01*
X55773Y-36985D01*
Y-36970D01*
X55776Y-36955D01*
Y-36950D01*
Y-36947D01*
X54739D01*
X54736Y-36920D01*
Y-36900D01*
Y-36888D01*
Y-36885D01*
X54739Y-36821D01*
X54745Y-36762D01*
X54754Y-36707D01*
X54763Y-36657D01*
X54778Y-36607D01*
X54792Y-36563D01*
X54810Y-36525D01*
X54824Y-36487D01*
X54842Y-36455D01*
X54860Y-36428D01*
X54874Y-36405D01*
X54886Y-36384D01*
X54898Y-36370D01*
X54906Y-36358D01*
X54912Y-36352D01*
X54915Y-36349D01*
X54950Y-36314D01*
X54985Y-36285D01*
X55023Y-36258D01*
X55062Y-36238D01*
X55100Y-36217D01*
X55138Y-36203D01*
X55208Y-36179D01*
X55243Y-36171D01*
X55272Y-36165D01*
X55302Y-36162D01*
X55325Y-36159D01*
X55346Y-36156D01*
X55372D01*
X55425Y-36159D01*
D02*
G37*
G36*
X70557Y-37582D02*
X69757D01*
X69699Y-37576D01*
X69646Y-37573D01*
X69599Y-37568D01*
X69564Y-37562D01*
X69538Y-37559D01*
X69520Y-37553D01*
X69514D01*
X69470Y-37538D01*
X69429Y-37524D01*
X69391Y-37509D01*
X69362Y-37494D01*
X69336Y-37480D01*
X69318Y-37468D01*
X69306Y-37462D01*
X69303Y-37459D01*
X69274Y-37433D01*
X69245Y-37404D01*
X69221Y-37374D01*
X69201Y-37345D01*
X69186Y-37319D01*
X69172Y-37298D01*
X69166Y-37283D01*
X69163Y-37278D01*
X69142Y-37234D01*
X69128Y-37190D01*
X69119Y-37146D01*
X69110Y-37108D01*
X69107Y-37076D01*
X69104Y-37049D01*
Y-37032D01*
Y-37026D01*
X69107Y-36964D01*
X69119Y-36909D01*
X69134Y-36862D01*
X69151Y-36818D01*
X69172Y-36783D01*
X69186Y-36756D01*
X69198Y-36742D01*
X69201Y-36736D01*
X69239Y-36692D01*
X69283Y-36657D01*
X69327Y-36627D01*
X69371Y-36601D01*
X69409Y-36584D01*
X69441Y-36569D01*
X69453Y-36566D01*
X69462Y-36563D01*
X69467Y-36560D01*
X69470D01*
X69421Y-36534D01*
X69380Y-36504D01*
X69344Y-36478D01*
X69315Y-36449D01*
X69295Y-36425D01*
X69277Y-36405D01*
X69268Y-36393D01*
X69265Y-36387D01*
X69242Y-36346D01*
X69227Y-36302D01*
X69216Y-36264D01*
X69207Y-36229D01*
X69201Y-36197D01*
X69198Y-36174D01*
Y-36159D01*
Y-36153D01*
X69201Y-36103D01*
X69210Y-36056D01*
X69221Y-36015D01*
X69236Y-35977D01*
X69251Y-35945D01*
X69262Y-35919D01*
X69271Y-35904D01*
X69274Y-35898D01*
X69306Y-35854D01*
X69339Y-35819D01*
X69374Y-35787D01*
X69409Y-35761D01*
X69438Y-35743D01*
X69462Y-35728D01*
X69479Y-35720D01*
X69482Y-35717D01*
X69485D01*
X69538Y-35696D01*
X69596Y-35682D01*
X69655Y-35673D01*
X69711Y-35664D01*
X69760Y-35661D01*
X69781D01*
X69801Y-35658D01*
X70557D01*
Y-37582D01*
D02*
G37*
G36*
X58037Y-37582D02*
X57800D01*
Y-35658D01*
X58037D01*
Y-37582D01*
D02*
G37*
G36*
X53966Y-36159D02*
X53996Y-36165D01*
X54022Y-36171D01*
X54042Y-36179D01*
X54063Y-36191D01*
X54078Y-36197D01*
X54086Y-36203D01*
X54089Y-36206D01*
X54116Y-36226D01*
X54139Y-36256D01*
X54165Y-36288D01*
X54189Y-36320D01*
X54206Y-36349D01*
X54221Y-36376D01*
X54233Y-36393D01*
X54236Y-36396D01*
Y-36188D01*
X54449D01*
Y-37582D01*
X54212D01*
Y-36853D01*
X54209Y-36797D01*
X54206Y-36748D01*
X54201Y-36701D01*
X54192Y-36660D01*
X54186Y-36625D01*
X54180Y-36598D01*
X54177Y-36584D01*
X54174Y-36578D01*
X54162Y-36548D01*
X54151Y-36522D01*
X54136Y-36499D01*
X54121Y-36481D01*
X54110Y-36466D01*
X54098Y-36455D01*
X54092Y-36449D01*
X54089Y-36446D01*
X54066Y-36431D01*
X54042Y-36420D01*
X54019Y-36411D01*
X53998Y-36405D01*
X53978Y-36402D01*
X53963Y-36399D01*
X53952D01*
X53919Y-36402D01*
X53887Y-36408D01*
X53858Y-36417D01*
X53832Y-36425D01*
X53811Y-36434D01*
X53793Y-36443D01*
X53782Y-36449D01*
X53779Y-36452D01*
X53694Y-36235D01*
X53741Y-36209D01*
X53785Y-36188D01*
X53826Y-36176D01*
X53861Y-36165D01*
X53893Y-36159D01*
X53916Y-36156D01*
X53937D01*
X53966Y-36159D01*
D02*
G37*
G36*
X68267Y-36159D02*
X68314Y-36162D01*
X68399Y-36179D01*
X68475Y-36206D01*
X68507Y-36220D01*
X68536Y-36232D01*
X68565Y-36247D01*
X68589Y-36261D01*
X68609Y-36276D01*
X68627Y-36288D01*
X68642Y-36297D01*
X68650Y-36305D01*
X68656Y-36308D01*
X68659Y-36311D01*
X68697Y-36349D01*
X68729Y-36390D01*
X68759Y-36434D01*
X68782Y-36481D01*
X68803Y-36528D01*
X68820Y-36575D01*
X68835Y-36622D01*
X68847Y-36668D01*
X68855Y-36712D01*
X68861Y-36753D01*
X68867Y-36789D01*
X68870Y-36821D01*
Y-36847D01*
X68873Y-36868D01*
Y-36879D01*
Y-36885D01*
X68870Y-36950D01*
X68864Y-37011D01*
X68855Y-37067D01*
X68844Y-37119D01*
X68832Y-37166D01*
X68817Y-37213D01*
X68800Y-37251D01*
X68782Y-37289D01*
X68768Y-37322D01*
X68750Y-37348D01*
X68735Y-37371D01*
X68721Y-37392D01*
X68712Y-37406D01*
X68703Y-37418D01*
X68697Y-37424D01*
X68694Y-37427D01*
X68659Y-37459D01*
X68621Y-37488D01*
X68583Y-37515D01*
X68542Y-37535D01*
X68504Y-37553D01*
X68463Y-37568D01*
X68390Y-37591D01*
X68355Y-37600D01*
X68322Y-37606D01*
X68293Y-37609D01*
X68270Y-37611D01*
X68249Y-37614D01*
X68220D01*
X68153Y-37611D01*
X68091Y-37600D01*
X68035Y-37588D01*
X67986Y-37570D01*
X67945Y-37556D01*
X67912Y-37541D01*
X67901Y-37538D01*
X67892Y-37532D01*
X67889Y-37529D01*
X67886D01*
X67830Y-37494D01*
X67784Y-37456D01*
X67743Y-37418D01*
X67710Y-37380D01*
X67684Y-37345D01*
X67663Y-37319D01*
X67652Y-37298D01*
X67649Y-37295D01*
Y-37292D01*
X67622Y-37231D01*
X67602Y-37160D01*
X67587Y-37090D01*
X67576Y-37023D01*
X67573Y-36991D01*
X67570Y-36961D01*
Y-36935D01*
X67567Y-36912D01*
Y-36894D01*
Y-36879D01*
Y-36871D01*
Y-36868D01*
X67570Y-36806D01*
X67576Y-36750D01*
X67584Y-36695D01*
X67596Y-36645D01*
X67611Y-36598D01*
X67625Y-36557D01*
X67643Y-36516D01*
X67658Y-36481D01*
X67675Y-36452D01*
X67693Y-36422D01*
X67707Y-36399D01*
X67722Y-36381D01*
X67734Y-36367D01*
X67743Y-36355D01*
X67748Y-36349D01*
X67751Y-36346D01*
X67786Y-36314D01*
X67825Y-36285D01*
X67863Y-36258D01*
X67901Y-36235D01*
X67942Y-36217D01*
X67980Y-36203D01*
X68053Y-36179D01*
X68088Y-36171D01*
X68120Y-36165D01*
X68147Y-36162D01*
X68173Y-36159D01*
X68194Y-36156D01*
X68220D01*
X68267Y-36159D01*
D02*
G37*
G36*
X65280D02*
X65326Y-36162D01*
X65411Y-36179D01*
X65487Y-36206D01*
X65520Y-36220D01*
X65549Y-36232D01*
X65578Y-36247D01*
X65602Y-36261D01*
X65622Y-36276D01*
X65640Y-36288D01*
X65654Y-36297D01*
X65663Y-36305D01*
X65669Y-36308D01*
X65672Y-36311D01*
X65710Y-36349D01*
X65742Y-36390D01*
X65772Y-36434D01*
X65795Y-36481D01*
X65815Y-36528D01*
X65833Y-36575D01*
X65848Y-36622D01*
X65859Y-36668D01*
X65868Y-36712D01*
X65874Y-36753D01*
X65880Y-36789D01*
X65883Y-36821D01*
Y-36847D01*
X65886Y-36868D01*
Y-36879D01*
Y-36885D01*
X65883Y-36950D01*
X65877Y-37011D01*
X65868Y-37067D01*
X65856Y-37119D01*
X65845Y-37166D01*
X65830Y-37213D01*
X65813Y-37251D01*
X65795Y-37289D01*
X65780Y-37322D01*
X65763Y-37348D01*
X65748Y-37371D01*
X65733Y-37392D01*
X65725Y-37406D01*
X65716Y-37418D01*
X65710Y-37424D01*
X65707Y-37427D01*
X65672Y-37459D01*
X65634Y-37488D01*
X65596Y-37515D01*
X65555Y-37535D01*
X65517Y-37553D01*
X65476Y-37568D01*
X65403Y-37591D01*
X65367Y-37600D01*
X65335Y-37606D01*
X65306Y-37609D01*
X65282Y-37611D01*
X65262Y-37614D01*
X65233D01*
X65165Y-37611D01*
X65104Y-37600D01*
X65048Y-37588D01*
X64998Y-37570D01*
X64957Y-37556D01*
X64925Y-37541D01*
X64913Y-37538D01*
X64905Y-37532D01*
X64902Y-37529D01*
X64899D01*
X64843Y-37494D01*
X64796Y-37456D01*
X64755Y-37418D01*
X64723Y-37380D01*
X64697Y-37345D01*
X64676Y-37319D01*
X64665Y-37298D01*
X64662Y-37295D01*
Y-37292D01*
X64635Y-37231D01*
X64615Y-37160D01*
X64600Y-37090D01*
X64588Y-37023D01*
X64585Y-36991D01*
X64583Y-36961D01*
Y-36935D01*
X64580Y-36912D01*
Y-36894D01*
Y-36879D01*
Y-36871D01*
Y-36868D01*
X64583Y-36806D01*
X64588Y-36750D01*
X64597Y-36695D01*
X64609Y-36645D01*
X64624Y-36598D01*
X64638Y-36557D01*
X64656Y-36516D01*
X64670Y-36481D01*
X64688Y-36452D01*
X64706Y-36422D01*
X64720Y-36399D01*
X64735Y-36381D01*
X64747Y-36367D01*
X64755Y-36355D01*
X64761Y-36349D01*
X64764Y-36346D01*
X64799Y-36314D01*
X64837Y-36285D01*
X64875Y-36258D01*
X64913Y-36235D01*
X64954Y-36217D01*
X64993Y-36203D01*
X65066Y-36179D01*
X65101Y-36171D01*
X65133Y-36165D01*
X65159Y-36162D01*
X65186Y-36159D01*
X65206Y-36156D01*
X65233D01*
X65280Y-36159D01*
D02*
G37*
G36*
X60696Y-35629D02*
X60764Y-35638D01*
X60822Y-35646D01*
X60875Y-35658D01*
X60916Y-35673D01*
X60933Y-35679D01*
X60948Y-35682D01*
X60963Y-35687D01*
X60972Y-35690D01*
X60974Y-35693D01*
X60977D01*
X61033Y-35720D01*
X61083Y-35752D01*
X61124Y-35784D01*
X61156Y-35813D01*
X61182Y-35843D01*
X61203Y-35866D01*
X61215Y-35881D01*
X61218Y-35884D01*
Y-35887D01*
X61244Y-35933D01*
X61264Y-35983D01*
X61279Y-36027D01*
X61288Y-36071D01*
X61294Y-36106D01*
X61300Y-36133D01*
Y-36144D01*
Y-36153D01*
Y-36156D01*
Y-36159D01*
X61297Y-36206D01*
X61288Y-36253D01*
X61279Y-36294D01*
X61264Y-36329D01*
X61253Y-36358D01*
X61244Y-36379D01*
X61235Y-36393D01*
X61232Y-36399D01*
X61203Y-36437D01*
X61171Y-36472D01*
X61138Y-36502D01*
X61103Y-36528D01*
X61074Y-36548D01*
X61051Y-36563D01*
X61033Y-36575D01*
X61030Y-36578D01*
X61027D01*
X61007Y-36589D01*
X60980Y-36598D01*
X60925Y-36619D01*
X60863Y-36639D01*
X60802Y-36660D01*
X60746Y-36674D01*
X60723Y-36680D01*
X60702Y-36686D01*
X60685Y-36692D01*
X60670Y-36695D01*
X60661Y-36698D01*
X60658D01*
X60611Y-36709D01*
X60567Y-36721D01*
X60526Y-36730D01*
X60491Y-36739D01*
X60462Y-36748D01*
X60433Y-36756D01*
X60409Y-36762D01*
X60386Y-36768D01*
X60368Y-36774D01*
X60354Y-36780D01*
X60330Y-36786D01*
X60318Y-36789D01*
X60316Y-36791D01*
X60275Y-36809D01*
X60236Y-36830D01*
X60207Y-36847D01*
X60184Y-36865D01*
X60166Y-36882D01*
X60152Y-36894D01*
X60146Y-36903D01*
X60143Y-36906D01*
X60125Y-36932D01*
X60113Y-36958D01*
X60102Y-36985D01*
X60096Y-37011D01*
X60093Y-37032D01*
X60090Y-37049D01*
Y-37061D01*
Y-37064D01*
X60093Y-37096D01*
X60099Y-37125D01*
X60108Y-37155D01*
X60116Y-37178D01*
X60128Y-37199D01*
X60137Y-37213D01*
X60143Y-37225D01*
X60146Y-37228D01*
X60169Y-37254D01*
X60195Y-37278D01*
X60222Y-37298D01*
X60251Y-37316D01*
X60275Y-37330D01*
X60295Y-37339D01*
X60307Y-37345D01*
X60313Y-37348D01*
X60357Y-37363D01*
X60400Y-37371D01*
X60441Y-37380D01*
X60482Y-37383D01*
X60515Y-37386D01*
X60544Y-37389D01*
X60567D01*
X60626Y-37386D01*
X60682Y-37380D01*
X60734Y-37371D01*
X60775Y-37360D01*
X60813Y-37351D01*
X60840Y-37342D01*
X60857Y-37336D01*
X60860Y-37333D01*
X60863D01*
X60907Y-37310D01*
X60948Y-37286D01*
X60980Y-37260D01*
X61007Y-37237D01*
X61030Y-37216D01*
X61045Y-37199D01*
X61054Y-37187D01*
X61056Y-37184D01*
X61077Y-37146D01*
X61095Y-37108D01*
X61106Y-37067D01*
X61118Y-37029D01*
X61124Y-36994D01*
X61130Y-36967D01*
X61133Y-36950D01*
Y-36947D01*
Y-36944D01*
X61373Y-36964D01*
X61367Y-37035D01*
X61355Y-37099D01*
X61338Y-37160D01*
X61320Y-37210D01*
X61302Y-37254D01*
X61294Y-37272D01*
X61285Y-37286D01*
X61279Y-37298D01*
X61273Y-37307D01*
X61270Y-37310D01*
Y-37313D01*
X61229Y-37365D01*
X61182Y-37412D01*
X61138Y-37450D01*
X61092Y-37483D01*
X61054Y-37509D01*
X61021Y-37527D01*
X61010Y-37532D01*
X61001Y-37538D01*
X60995Y-37541D01*
X60992D01*
X60922Y-37565D01*
X60849Y-37582D01*
X60775Y-37597D01*
X60708Y-37606D01*
X60676Y-37609D01*
X60646Y-37611D01*
X60620D01*
X60600Y-37614D01*
X60556D01*
X60480Y-37611D01*
X60412Y-37603D01*
X60348Y-37591D01*
X60295Y-37576D01*
X60248Y-37565D01*
X60231Y-37559D01*
X60216Y-37553D01*
X60204Y-37547D01*
X60195Y-37544D01*
X60190Y-37541D01*
X60187D01*
X60128Y-37509D01*
X60075Y-37477D01*
X60031Y-37442D01*
X59996Y-37406D01*
X59967Y-37377D01*
X59949Y-37354D01*
X59935Y-37336D01*
X59932Y-37330D01*
X59903Y-37281D01*
X59882Y-37228D01*
X59865Y-37178D01*
X59856Y-37134D01*
X59850Y-37096D01*
X59844Y-37067D01*
Y-37055D01*
Y-37046D01*
Y-37043D01*
Y-37040D01*
X59847Y-36985D01*
X59856Y-36932D01*
X59870Y-36885D01*
X59885Y-36847D01*
X59900Y-36812D01*
X59914Y-36789D01*
X59923Y-36774D01*
X59926Y-36768D01*
X59958Y-36727D01*
X59996Y-36689D01*
X60037Y-36654D01*
X60078Y-36625D01*
X60116Y-36604D01*
X60146Y-36586D01*
X60157Y-36581D01*
X60163Y-36575D01*
X60169Y-36572D01*
X60172D01*
X60195Y-36563D01*
X60225Y-36551D01*
X60254Y-36540D01*
X60289Y-36531D01*
X60359Y-36510D01*
X60430Y-36490D01*
X60494Y-36475D01*
X60523Y-36466D01*
X60550Y-36461D01*
X60570Y-36455D01*
X60585Y-36452D01*
X60597Y-36449D01*
X60600D01*
X60655Y-36434D01*
X60705Y-36422D01*
X60749Y-36411D01*
X60790Y-36396D01*
X60825Y-36384D01*
X60854Y-36376D01*
X60881Y-36364D01*
X60904Y-36352D01*
X60925Y-36343D01*
X60942Y-36338D01*
X60954Y-36329D01*
X60963Y-36323D01*
X60977Y-36314D01*
X60980Y-36311D01*
X61004Y-36285D01*
X61021Y-36258D01*
X61036Y-36229D01*
X61045Y-36203D01*
X61051Y-36179D01*
X61054Y-36159D01*
Y-36147D01*
Y-36141D01*
X61048Y-36097D01*
X61036Y-36059D01*
X61021Y-36024D01*
X61001Y-35995D01*
X60983Y-35969D01*
X60966Y-35951D01*
X60954Y-35939D01*
X60951Y-35936D01*
X60931Y-35922D01*
X60907Y-35907D01*
X60854Y-35887D01*
X60799Y-35872D01*
X60743Y-35863D01*
X60693Y-35854D01*
X60670D01*
X60652Y-35851D01*
X60614D01*
X60535Y-35854D01*
X60468Y-35866D01*
X60409Y-35881D01*
X60362Y-35898D01*
X60327Y-35916D01*
X60301Y-35930D01*
X60286Y-35942D01*
X60280Y-35945D01*
X60242Y-35983D01*
X60210Y-36027D01*
X60187Y-36071D01*
X60169Y-36115D01*
X60157Y-36156D01*
X60152Y-36188D01*
X60149Y-36200D01*
X60146Y-36209D01*
Y-36215D01*
Y-36217D01*
X59903Y-36200D01*
X59908Y-36138D01*
X59920Y-36083D01*
X59938Y-36030D01*
X59955Y-35986D01*
X59970Y-35951D01*
X59985Y-35922D01*
X59996Y-35904D01*
X59999Y-35898D01*
X60034Y-35851D01*
X60075Y-35810D01*
X60116Y-35775D01*
X60157Y-35746D01*
X60195Y-35725D01*
X60225Y-35708D01*
X60236Y-35702D01*
X60245Y-35699D01*
X60248Y-35696D01*
X60251D01*
X60313Y-35673D01*
X60377Y-35655D01*
X60441Y-35643D01*
X60500Y-35635D01*
X60550Y-35629D01*
X60570D01*
X60591Y-35626D01*
X60626D01*
X60696Y-35629D01*
D02*
G37*
G36*
X59009Y-36159D02*
X59056Y-36162D01*
X59141Y-36179D01*
X59217Y-36206D01*
X59250Y-36220D01*
X59279Y-36232D01*
X59308Y-36247D01*
X59332Y-36261D01*
X59352Y-36276D01*
X59370Y-36288D01*
X59384Y-36297D01*
X59393Y-36305D01*
X59399Y-36308D01*
X59402Y-36311D01*
X59440Y-36349D01*
X59472Y-36390D01*
X59501Y-36434D01*
X59525Y-36481D01*
X59545Y-36528D01*
X59563Y-36575D01*
X59578Y-36622D01*
X59589Y-36668D01*
X59598Y-36712D01*
X59604Y-36753D01*
X59610Y-36789D01*
X59613Y-36821D01*
Y-36847D01*
X59616Y-36868D01*
Y-36879D01*
Y-36885D01*
X59613Y-36950D01*
X59607Y-37011D01*
X59598Y-37067D01*
X59586Y-37119D01*
X59575Y-37166D01*
X59560Y-37213D01*
X59542Y-37251D01*
X59525Y-37289D01*
X59510Y-37322D01*
X59493Y-37348D01*
X59478Y-37371D01*
X59463Y-37392D01*
X59455Y-37406D01*
X59446Y-37418D01*
X59440Y-37424D01*
X59437Y-37427D01*
X59402Y-37459D01*
X59364Y-37488D01*
X59326Y-37515D01*
X59285Y-37535D01*
X59247Y-37553D01*
X59206Y-37568D01*
X59132Y-37591D01*
X59097Y-37600D01*
X59065Y-37606D01*
X59036Y-37609D01*
X59012Y-37611D01*
X58992Y-37614D01*
X58963D01*
X58895Y-37611D01*
X58834Y-37600D01*
X58778Y-37588D01*
X58728Y-37570D01*
X58687Y-37556D01*
X58655Y-37541D01*
X58643Y-37538D01*
X58634Y-37532D01*
X58632Y-37529D01*
X58629D01*
X58573Y-37494D01*
X58526Y-37456D01*
X58485Y-37418D01*
X58453Y-37380D01*
X58427Y-37345D01*
X58406Y-37319D01*
X58394Y-37298D01*
X58391Y-37295D01*
Y-37292D01*
X58365Y-37231D01*
X58345Y-37160D01*
X58330Y-37090D01*
X58318Y-37023D01*
X58315Y-36991D01*
X58312Y-36961D01*
Y-36935D01*
X58309Y-36912D01*
Y-36894D01*
Y-36879D01*
Y-36871D01*
Y-36868D01*
X58312Y-36806D01*
X58318Y-36750D01*
X58327Y-36695D01*
X58339Y-36645D01*
X58353Y-36598D01*
X58368Y-36557D01*
X58386Y-36516D01*
X58400Y-36481D01*
X58418Y-36452D01*
X58435Y-36422D01*
X58450Y-36399D01*
X58465Y-36381D01*
X58476Y-36367D01*
X58485Y-36355D01*
X58491Y-36349D01*
X58494Y-36346D01*
X58529Y-36314D01*
X58567Y-36285D01*
X58605Y-36258D01*
X58643Y-36235D01*
X58684Y-36217D01*
X58722Y-36203D01*
X58796Y-36179D01*
X58831Y-36171D01*
X58863Y-36165D01*
X58889Y-36162D01*
X58916Y-36159D01*
X58936Y-36156D01*
X58963D01*
X59009Y-36159D01*
D02*
G37*
G36*
X56552Y-36349D02*
X56576Y-36320D01*
X56602Y-36291D01*
X56631Y-36267D01*
X56655Y-36250D01*
X56678Y-36232D01*
X56696Y-36220D01*
X56707Y-36215D01*
X56713Y-36212D01*
X56751Y-36194D01*
X56789Y-36179D01*
X56828Y-36171D01*
X56860Y-36162D01*
X56892Y-36159D01*
X56915Y-36156D01*
X56936D01*
X56997Y-36159D01*
X57056Y-36171D01*
X57109Y-36185D01*
X57156Y-36200D01*
X57194Y-36217D01*
X57223Y-36232D01*
X57240Y-36244D01*
X57243Y-36247D01*
X57246D01*
X57296Y-36285D01*
X57337Y-36326D01*
X57372Y-36370D01*
X57402Y-36414D01*
X57425Y-36452D01*
X57440Y-36481D01*
X57445Y-36493D01*
X57451Y-36502D01*
X57454Y-36507D01*
Y-36510D01*
X57478Y-36575D01*
X57492Y-36642D01*
X57504Y-36704D01*
X57513Y-36762D01*
X57519Y-36812D01*
Y-36835D01*
X57522Y-36853D01*
Y-36868D01*
Y-36879D01*
Y-36885D01*
Y-36888D01*
X57519Y-36967D01*
X57510Y-37037D01*
X57498Y-37102D01*
X57484Y-37158D01*
X57469Y-37204D01*
X57463Y-37225D01*
X57457Y-37240D01*
X57451Y-37251D01*
X57448Y-37260D01*
X57445Y-37266D01*
Y-37269D01*
X57413Y-37327D01*
X57381Y-37377D01*
X57343Y-37421D01*
X57311Y-37456D01*
X57279Y-37486D01*
X57255Y-37506D01*
X57238Y-37521D01*
X57235Y-37524D01*
X57232D01*
X57179Y-37553D01*
X57123Y-37576D01*
X57074Y-37591D01*
X57024Y-37603D01*
X56986Y-37609D01*
X56953Y-37611D01*
X56942Y-37614D01*
X56924D01*
X56877Y-37611D01*
X56833Y-37606D01*
X56792Y-37597D01*
X56754Y-37582D01*
X56722Y-37568D01*
X56690Y-37550D01*
X56661Y-37529D01*
X56634Y-37512D01*
X56611Y-37491D01*
X56590Y-37474D01*
X56573Y-37456D01*
X56561Y-37442D01*
X56549Y-37427D01*
X56541Y-37418D01*
X56538Y-37412D01*
X56535Y-37409D01*
Y-37582D01*
X56315D01*
Y-35658D01*
X56552D01*
Y-36349D01*
D02*
G37*
G36*
X27741Y-35632D02*
X27834Y-35643D01*
X27922Y-35664D01*
X27960Y-35676D01*
X27995Y-35684D01*
X28028Y-35696D01*
X28057Y-35708D01*
X28083Y-35717D01*
X28104Y-35728D01*
X28118Y-35734D01*
X28133Y-35740D01*
X28139Y-35746D01*
X28142D01*
X28183Y-35769D01*
X28218Y-35796D01*
X28288Y-35851D01*
X28344Y-35910D01*
X28394Y-35969D01*
X28429Y-36024D01*
X28443Y-36045D01*
X28458Y-36065D01*
X28467Y-36083D01*
X28473Y-36094D01*
X28479Y-36103D01*
Y-36106D01*
X28517Y-36197D01*
X28546Y-36291D01*
X28566Y-36379D01*
X28581Y-36461D01*
X28587Y-36496D01*
X28590Y-36528D01*
X28593Y-36557D01*
Y-36584D01*
X28596Y-36604D01*
Y-36619D01*
Y-36627D01*
Y-36630D01*
X28590Y-36733D01*
X28578Y-36830D01*
X28558Y-36917D01*
X28549Y-36958D01*
X28537Y-36994D01*
X28525Y-37029D01*
X28517Y-37058D01*
X28505Y-37084D01*
X28496Y-37105D01*
X28490Y-37122D01*
X28484Y-37134D01*
X28479Y-37143D01*
Y-37146D01*
X28429Y-37225D01*
X28373Y-37295D01*
X28317Y-37357D01*
X28259Y-37406D01*
X28209Y-37445D01*
X28189Y-37459D01*
X28168Y-37471D01*
X28153Y-37483D01*
X28139Y-37488D01*
X28133Y-37491D01*
X28130Y-37494D01*
X28042Y-37535D01*
X27951Y-37565D01*
X27866Y-37585D01*
X27784Y-37600D01*
X27749Y-37606D01*
X27717Y-37609D01*
X27688Y-37611D01*
X27661D01*
X27641Y-37614D01*
X27615D01*
X27538Y-37611D01*
X27462Y-37603D01*
X27395Y-37591D01*
X27333Y-37576D01*
X27307Y-37570D01*
X27281Y-37565D01*
X27260Y-37559D01*
X27243Y-37553D01*
X27228Y-37547D01*
X27216Y-37544D01*
X27210Y-37541D01*
X27208D01*
X27134Y-37509D01*
X27061Y-37474D01*
X26997Y-37436D01*
X26938Y-37401D01*
X26888Y-37365D01*
X26868Y-37354D01*
X26850Y-37339D01*
X26836Y-37330D01*
X26827Y-37322D01*
X26821Y-37319D01*
X26818Y-37316D01*
Y-36601D01*
X27632D01*
Y-36827D01*
X27067D01*
Y-37190D01*
X27102Y-37216D01*
X27140Y-37242D01*
X27178Y-37266D01*
X27216Y-37286D01*
X27251Y-37304D01*
X27281Y-37316D01*
X27292Y-37322D01*
X27301Y-37324D01*
X27304Y-37327D01*
X27307D01*
X27366Y-37348D01*
X27424Y-37363D01*
X27480Y-37374D01*
X27527Y-37380D01*
X27568Y-37386D01*
X27600Y-37389D01*
X27629D01*
X27700Y-37386D01*
X27767Y-37377D01*
X27825Y-37363D01*
X27881Y-37348D01*
X27925Y-37333D01*
X27946Y-37324D01*
X27960Y-37319D01*
X27972Y-37316D01*
X27981Y-37310D01*
X27987Y-37307D01*
X27989D01*
X28048Y-37272D01*
X28101Y-37231D01*
X28145Y-37187D01*
X28180Y-37146D01*
X28206Y-37108D01*
X28227Y-37078D01*
X28235Y-37067D01*
X28241Y-37058D01*
X28244Y-37052D01*
Y-37049D01*
X28274Y-36979D01*
X28294Y-36909D01*
X28312Y-36835D01*
X28320Y-36765D01*
X28323Y-36736D01*
X28326Y-36707D01*
X28329Y-36680D01*
Y-36660D01*
X28332Y-36639D01*
Y-36627D01*
Y-36619D01*
Y-36616D01*
X28329Y-36540D01*
X28320Y-36466D01*
X28309Y-36402D01*
X28294Y-36343D01*
X28282Y-36297D01*
X28276Y-36276D01*
X28271Y-36261D01*
X28265Y-36247D01*
X28262Y-36238D01*
X28259Y-36232D01*
Y-36229D01*
X28241Y-36191D01*
X28224Y-36156D01*
X28203Y-36124D01*
X28183Y-36094D01*
X28165Y-36071D01*
X28151Y-36053D01*
X28142Y-36042D01*
X28139Y-36039D01*
X28107Y-36007D01*
X28074Y-35980D01*
X28039Y-35957D01*
X28007Y-35936D01*
X27978Y-35919D01*
X27954Y-35907D01*
X27940Y-35901D01*
X27934Y-35898D01*
X27884Y-35881D01*
X27834Y-35866D01*
X27782Y-35857D01*
X27735Y-35848D01*
X27694Y-35846D01*
X27661Y-35843D01*
X27632D01*
X27579Y-35846D01*
X27530Y-35851D01*
X27486Y-35860D01*
X27448Y-35869D01*
X27415Y-35878D01*
X27389Y-35887D01*
X27374Y-35892D01*
X27369Y-35895D01*
X27325Y-35916D01*
X27290Y-35936D01*
X27257Y-35960D01*
X27231Y-35980D01*
X27210Y-36001D01*
X27196Y-36015D01*
X27187Y-36027D01*
X27184Y-36030D01*
X27161Y-36065D01*
X27140Y-36103D01*
X27123Y-36141D01*
X27108Y-36176D01*
X27096Y-36212D01*
X27085Y-36238D01*
X27082Y-36256D01*
X27079Y-36258D01*
Y-36261D01*
X26847Y-36197D01*
X26868Y-36127D01*
X26891Y-36065D01*
X26915Y-36012D01*
X26938Y-35969D01*
X26962Y-35930D01*
X26979Y-35904D01*
X26991Y-35889D01*
X26994Y-35884D01*
X27032Y-35840D01*
X27076Y-35805D01*
X27120Y-35772D01*
X27164Y-35746D01*
X27202Y-35723D01*
X27231Y-35708D01*
X27243Y-35702D01*
X27251Y-35699D01*
X27257Y-35696D01*
X27260D01*
X27325Y-35673D01*
X27389Y-35655D01*
X27454Y-35643D01*
X27509Y-35635D01*
X27559Y-35629D01*
X27582D01*
X27600Y-35626D01*
X27635D01*
X27741Y-35632D01*
D02*
G37*
G36*
X29243Y-37582D02*
X28973D01*
Y-37313D01*
X29243D01*
Y-37582D01*
D02*
G37*
G36*
X26455D02*
X25655D01*
X25597Y-37576D01*
X25544Y-37573D01*
X25497Y-37568D01*
X25462Y-37562D01*
X25436Y-37559D01*
X25418Y-37553D01*
X25412D01*
X25368Y-37538D01*
X25327Y-37524D01*
X25289Y-37509D01*
X25260Y-37494D01*
X25234Y-37480D01*
X25216Y-37468D01*
X25204Y-37462D01*
X25201Y-37459D01*
X25172Y-37433D01*
X25143Y-37404D01*
X25119Y-37374D01*
X25099Y-37345D01*
X25084Y-37319D01*
X25070Y-37298D01*
X25064Y-37283D01*
X25061Y-37278D01*
X25040Y-37234D01*
X25026Y-37190D01*
X25017Y-37146D01*
X25008Y-37108D01*
X25005Y-37076D01*
X25002Y-37049D01*
Y-37032D01*
Y-37026D01*
X25005Y-36964D01*
X25017Y-36909D01*
X25032Y-36862D01*
X25049Y-36818D01*
X25070Y-36783D01*
X25084Y-36756D01*
X25096Y-36742D01*
X25099Y-36736D01*
X25137Y-36692D01*
X25181Y-36657D01*
X25225Y-36627D01*
X25269Y-36601D01*
X25307Y-36584D01*
X25339Y-36569D01*
X25351Y-36566D01*
X25360Y-36563D01*
X25365Y-36560D01*
X25368D01*
X25319Y-36534D01*
X25278Y-36504D01*
X25242Y-36478D01*
X25213Y-36449D01*
X25193Y-36425D01*
X25175Y-36405D01*
X25166Y-36393D01*
X25163Y-36387D01*
X25140Y-36346D01*
X25125Y-36302D01*
X25114Y-36264D01*
X25105Y-36229D01*
X25099Y-36197D01*
X25096Y-36174D01*
Y-36159D01*
Y-36153D01*
X25099Y-36103D01*
X25108Y-36056D01*
X25119Y-36015D01*
X25134Y-35977D01*
X25149Y-35945D01*
X25160Y-35919D01*
X25169Y-35904D01*
X25172Y-35898D01*
X25204Y-35854D01*
X25237Y-35819D01*
X25272Y-35787D01*
X25307Y-35761D01*
X25336Y-35743D01*
X25360Y-35728D01*
X25377Y-35720D01*
X25380Y-35717D01*
X25383D01*
X25436Y-35696D01*
X25494Y-35682D01*
X25553Y-35673D01*
X25608Y-35664D01*
X25658Y-35661D01*
X25679D01*
X25699Y-35658D01*
X26455D01*
Y-37582D01*
D02*
G37*
G36*
X24059Y-35629D02*
X24127Y-35638D01*
X24185Y-35646D01*
X24238Y-35658D01*
X24279Y-35673D01*
X24296Y-35679D01*
X24311Y-35682D01*
X24326Y-35687D01*
X24335Y-35690D01*
X24337Y-35693D01*
X24340D01*
X24396Y-35720D01*
X24446Y-35752D01*
X24487Y-35784D01*
X24519Y-35813D01*
X24545Y-35843D01*
X24566Y-35866D01*
X24578Y-35881D01*
X24581Y-35884D01*
Y-35887D01*
X24607Y-35933D01*
X24627Y-35983D01*
X24642Y-36027D01*
X24651Y-36071D01*
X24657Y-36106D01*
X24663Y-36133D01*
Y-36144D01*
Y-36153D01*
Y-36156D01*
Y-36159D01*
X24660Y-36206D01*
X24651Y-36253D01*
X24642Y-36294D01*
X24627Y-36329D01*
X24616Y-36358D01*
X24607Y-36379D01*
X24598Y-36393D01*
X24595Y-36399D01*
X24566Y-36437D01*
X24534Y-36472D01*
X24501Y-36502D01*
X24466Y-36528D01*
X24437Y-36548D01*
X24414Y-36563D01*
X24396Y-36575D01*
X24393Y-36578D01*
X24390D01*
X24370Y-36589D01*
X24343Y-36598D01*
X24288Y-36619D01*
X24226Y-36639D01*
X24165Y-36660D01*
X24109Y-36674D01*
X24086Y-36680D01*
X24065Y-36686D01*
X24048Y-36692D01*
X24033Y-36695D01*
X24024Y-36698D01*
X24021D01*
X23974Y-36709D01*
X23930Y-36721D01*
X23889Y-36730D01*
X23854Y-36739D01*
X23825Y-36748D01*
X23796Y-36756D01*
X23772Y-36762D01*
X23749Y-36768D01*
X23731Y-36774D01*
X23717Y-36780D01*
X23693Y-36786D01*
X23681Y-36789D01*
X23679Y-36791D01*
X23638Y-36809D01*
X23599Y-36830D01*
X23570Y-36847D01*
X23547Y-36865D01*
X23529Y-36882D01*
X23515Y-36894D01*
X23509Y-36903D01*
X23506Y-36906D01*
X23488Y-36932D01*
X23476Y-36958D01*
X23465Y-36985D01*
X23459Y-37011D01*
X23456Y-37032D01*
X23453Y-37049D01*
Y-37061D01*
Y-37064D01*
X23456Y-37096D01*
X23462Y-37125D01*
X23471Y-37155D01*
X23479Y-37178D01*
X23491Y-37199D01*
X23500Y-37213D01*
X23506Y-37225D01*
X23509Y-37228D01*
X23532Y-37254D01*
X23558Y-37278D01*
X23585Y-37298D01*
X23614Y-37316D01*
X23638Y-37330D01*
X23658Y-37339D01*
X23670Y-37345D01*
X23676Y-37348D01*
X23720Y-37363D01*
X23763Y-37371D01*
X23804Y-37380D01*
X23845Y-37383D01*
X23878Y-37386D01*
X23907Y-37389D01*
X23930D01*
X23989Y-37386D01*
X24045Y-37380D01*
X24097Y-37371D01*
X24138Y-37360D01*
X24176Y-37351D01*
X24203Y-37342D01*
X24220Y-37336D01*
X24223Y-37333D01*
X24226D01*
X24270Y-37310D01*
X24311Y-37286D01*
X24343Y-37260D01*
X24370Y-37237D01*
X24393Y-37216D01*
X24408Y-37199D01*
X24417Y-37187D01*
X24419Y-37184D01*
X24440Y-37146D01*
X24458Y-37108D01*
X24469Y-37067D01*
X24481Y-37029D01*
X24487Y-36994D01*
X24493Y-36967D01*
X24496Y-36950D01*
Y-36947D01*
Y-36944D01*
X24736Y-36964D01*
X24730Y-37035D01*
X24718Y-37099D01*
X24701Y-37160D01*
X24683Y-37210D01*
X24665Y-37254D01*
X24657Y-37272D01*
X24648Y-37286D01*
X24642Y-37298D01*
X24636Y-37307D01*
X24633Y-37310D01*
Y-37313D01*
X24592Y-37365D01*
X24545Y-37412D01*
X24501Y-37450D01*
X24455Y-37483D01*
X24417Y-37509D01*
X24384Y-37527D01*
X24373Y-37532D01*
X24364Y-37538D01*
X24358Y-37541D01*
X24355D01*
X24285Y-37565D01*
X24212Y-37582D01*
X24138Y-37597D01*
X24071Y-37606D01*
X24039Y-37609D01*
X24009Y-37611D01*
X23983D01*
X23963Y-37614D01*
X23919D01*
X23843Y-37611D01*
X23775Y-37603D01*
X23711Y-37591D01*
X23658Y-37576D01*
X23611Y-37565D01*
X23594Y-37559D01*
X23579Y-37553D01*
X23567Y-37547D01*
X23558Y-37544D01*
X23553Y-37541D01*
X23550D01*
X23491Y-37509D01*
X23438Y-37477D01*
X23394Y-37442D01*
X23359Y-37406D01*
X23330Y-37377D01*
X23312Y-37354D01*
X23298Y-37336D01*
X23295Y-37330D01*
X23266Y-37281D01*
X23245Y-37228D01*
X23228Y-37178D01*
X23219Y-37134D01*
X23213Y-37096D01*
X23207Y-37067D01*
Y-37055D01*
Y-37046D01*
Y-37043D01*
Y-37040D01*
X23210Y-36985D01*
X23219Y-36932D01*
X23233Y-36885D01*
X23248Y-36847D01*
X23263Y-36812D01*
X23277Y-36789D01*
X23286Y-36774D01*
X23289Y-36768D01*
X23321Y-36727D01*
X23359Y-36689D01*
X23400Y-36654D01*
X23441Y-36625D01*
X23479Y-36604D01*
X23509Y-36586D01*
X23520Y-36581D01*
X23526Y-36575D01*
X23532Y-36572D01*
X23535D01*
X23558Y-36563D01*
X23588Y-36551D01*
X23617Y-36540D01*
X23652Y-36531D01*
X23722Y-36510D01*
X23793Y-36490D01*
X23857Y-36475D01*
X23886Y-36466D01*
X23913Y-36461D01*
X23933Y-36455D01*
X23948Y-36452D01*
X23960Y-36449D01*
X23963D01*
X24018Y-36434D01*
X24068Y-36422D01*
X24112Y-36411D01*
X24153Y-36396D01*
X24188Y-36384D01*
X24217Y-36376D01*
X24244Y-36364D01*
X24267Y-36352D01*
X24288Y-36343D01*
X24305Y-36338D01*
X24317Y-36329D01*
X24326Y-36323D01*
X24340Y-36314D01*
X24343Y-36311D01*
X24367Y-36285D01*
X24384Y-36258D01*
X24399Y-36229D01*
X24408Y-36203D01*
X24414Y-36179D01*
X24417Y-36159D01*
Y-36147D01*
Y-36141D01*
X24411Y-36097D01*
X24399Y-36059D01*
X24384Y-36024D01*
X24364Y-35995D01*
X24346Y-35969D01*
X24329Y-35951D01*
X24317Y-35939D01*
X24314Y-35936D01*
X24294Y-35922D01*
X24270Y-35907D01*
X24217Y-35887D01*
X24162Y-35872D01*
X24106Y-35863D01*
X24056Y-35854D01*
X24033D01*
X24015Y-35851D01*
X23977D01*
X23898Y-35854D01*
X23831Y-35866D01*
X23772Y-35881D01*
X23725Y-35898D01*
X23690Y-35916D01*
X23664Y-35930D01*
X23649Y-35942D01*
X23643Y-35945D01*
X23605Y-35983D01*
X23573Y-36027D01*
X23550Y-36071D01*
X23532Y-36115D01*
X23520Y-36156D01*
X23515Y-36188D01*
X23512Y-36200D01*
X23509Y-36209D01*
Y-36215D01*
Y-36217D01*
X23266Y-36200D01*
X23271Y-36138D01*
X23283Y-36083D01*
X23301Y-36030D01*
X23318Y-35986D01*
X23333Y-35951D01*
X23348Y-35922D01*
X23359Y-35904D01*
X23362Y-35898D01*
X23397Y-35851D01*
X23438Y-35810D01*
X23479Y-35775D01*
X23520Y-35746D01*
X23558Y-35725D01*
X23588Y-35708D01*
X23599Y-35702D01*
X23608Y-35699D01*
X23611Y-35696D01*
X23614D01*
X23676Y-35673D01*
X23740Y-35655D01*
X23804Y-35643D01*
X23863Y-35635D01*
X23913Y-35629D01*
X23933D01*
X23954Y-35626D01*
X23989D01*
X24059Y-35629D01*
D02*
G37*
%LPC*%
G36*
X55384Y-36349D02*
X55369D01*
X55337Y-36352D01*
X55305Y-36355D01*
X55249Y-36370D01*
X55199Y-36393D01*
X55155Y-36420D01*
X55123Y-36446D01*
X55097Y-36466D01*
X55082Y-36484D01*
X55076Y-36487D01*
Y-36490D01*
X55050Y-36525D01*
X55032Y-36569D01*
X55015Y-36613D01*
X55003Y-36654D01*
X54994Y-36692D01*
X54988Y-36724D01*
Y-36736D01*
X54985Y-36745D01*
Y-36750D01*
Y-36753D01*
X55764D01*
X55756Y-36689D01*
X55741Y-36630D01*
X55721Y-36581D01*
X55700Y-36540D01*
X55680Y-36504D01*
X55662Y-36481D01*
X55650Y-36466D01*
X55644Y-36461D01*
X55600Y-36422D01*
X55554Y-36396D01*
X55510Y-36376D01*
X55466Y-36364D01*
X55428Y-36355D01*
X55395Y-36352D01*
X55384Y-36349D01*
D02*
G37*
G36*
X70302Y-35884D02*
X69848D01*
X69787Y-35889D01*
X69737Y-35892D01*
X69696Y-35898D01*
X69667Y-35904D01*
X69646Y-35907D01*
X69631Y-35913D01*
X69629D01*
X69599Y-35925D01*
X69573Y-35939D01*
X69549Y-35957D01*
X69532Y-35971D01*
X69517Y-35989D01*
X69506Y-36001D01*
X69500Y-36010D01*
X69497Y-36012D01*
X69482Y-36042D01*
X69470Y-36071D01*
X69462Y-36097D01*
X69456Y-36124D01*
X69453Y-36147D01*
X69450Y-36165D01*
Y-36179D01*
Y-36182D01*
X69453Y-36220D01*
X69459Y-36253D01*
X69465Y-36282D01*
X69473Y-36305D01*
X69485Y-36326D01*
X69491Y-36340D01*
X69497Y-36349D01*
X69500Y-36352D01*
X69520Y-36376D01*
X69544Y-36396D01*
X69567Y-36414D01*
X69590Y-36425D01*
X69614Y-36437D01*
X69631Y-36443D01*
X69643Y-36446D01*
X69646Y-36449D01*
X69678Y-36455D01*
X69713Y-36461D01*
X69754Y-36463D01*
X69795Y-36466D01*
X69831Y-36469D01*
X70302D01*
Y-35884D01*
D02*
G37*
G36*
Y-36695D02*
X69795D01*
X69737Y-36701D01*
X69690Y-36704D01*
X69649Y-36709D01*
X69620Y-36715D01*
X69596Y-36721D01*
X69585Y-36724D01*
X69579Y-36727D01*
X69544Y-36742D01*
X69514Y-36759D01*
X69488Y-36777D01*
X69467Y-36797D01*
X69450Y-36815D01*
X69435Y-36827D01*
X69429Y-36838D01*
X69426Y-36841D01*
X69406Y-36871D01*
X69391Y-36903D01*
X69383Y-36935D01*
X69374Y-36964D01*
X69371Y-36988D01*
X69368Y-37008D01*
Y-37020D01*
Y-37026D01*
X69371Y-37061D01*
X69374Y-37090D01*
X69380Y-37119D01*
X69385Y-37143D01*
X69394Y-37163D01*
X69400Y-37178D01*
X69403Y-37187D01*
X69406Y-37190D01*
X69421Y-37213D01*
X69438Y-37237D01*
X69453Y-37254D01*
X69470Y-37269D01*
X69485Y-37283D01*
X69494Y-37292D01*
X69503Y-37295D01*
X69506Y-37298D01*
X69552Y-37322D01*
X69599Y-37336D01*
X69620Y-37342D01*
X69637Y-37345D01*
X69649Y-37348D01*
X69652D01*
X69672Y-37351D01*
X69699Y-37354D01*
X69757Y-37357D01*
X70302D01*
Y-36695D01*
D02*
G37*
G36*
X68237Y-36352D02*
X68188D01*
X68158Y-36358D01*
X68103Y-36373D01*
X68053Y-36396D01*
X68009Y-36420D01*
X67977Y-36443D01*
X67950Y-36466D01*
X67936Y-36481D01*
X67930Y-36484D01*
Y-36487D01*
X67889Y-36543D01*
X67860Y-36604D01*
X67839Y-36671D01*
X67825Y-36733D01*
X67816Y-36791D01*
X67813Y-36815D01*
Y-36835D01*
X67810Y-36856D01*
Y-36868D01*
Y-36876D01*
Y-36879D01*
Y-36929D01*
X67816Y-36976D01*
X67822Y-37020D01*
X67827Y-37058D01*
X67836Y-37096D01*
X67848Y-37131D01*
X67857Y-37160D01*
X67868Y-37187D01*
X67880Y-37210D01*
X67889Y-37231D01*
X67901Y-37248D01*
X67909Y-37263D01*
X67915Y-37275D01*
X67921Y-37283D01*
X67927Y-37286D01*
Y-37289D01*
X67950Y-37313D01*
X67974Y-37333D01*
X68021Y-37365D01*
X68071Y-37389D01*
X68117Y-37404D01*
X68158Y-37415D01*
X68191Y-37418D01*
X68202Y-37421D01*
X68220D01*
X68252Y-37418D01*
X68284Y-37415D01*
X68340Y-37401D01*
X68393Y-37380D01*
X68434Y-37354D01*
X68469Y-37330D01*
X68495Y-37310D01*
X68510Y-37295D01*
X68516Y-37289D01*
X68536Y-37263D01*
X68554Y-37234D01*
X68583Y-37169D01*
X68601Y-37102D01*
X68615Y-37037D01*
X68624Y-36979D01*
X68627Y-36953D01*
Y-36932D01*
X68630Y-36914D01*
Y-36900D01*
Y-36891D01*
Y-36888D01*
Y-36838D01*
X68624Y-36794D01*
X68618Y-36750D01*
X68612Y-36712D01*
X68604Y-36674D01*
X68595Y-36642D01*
X68583Y-36613D01*
X68571Y-36586D01*
X68563Y-36563D01*
X68551Y-36543D01*
X68542Y-36525D01*
X68533Y-36510D01*
X68527Y-36502D01*
X68522Y-36493D01*
X68516Y-36487D01*
X68492Y-36463D01*
X68469Y-36443D01*
X68419Y-36408D01*
X68369Y-36384D01*
X68322Y-36370D01*
X68281Y-36358D01*
X68249Y-36355D01*
X68237Y-36352D01*
D02*
G37*
G36*
X65250D02*
X65200D01*
X65171Y-36358D01*
X65116Y-36373D01*
X65066Y-36396D01*
X65022Y-36420D01*
X64990Y-36443D01*
X64963Y-36466D01*
X64949Y-36481D01*
X64943Y-36484D01*
Y-36487D01*
X64902Y-36543D01*
X64872Y-36604D01*
X64852Y-36671D01*
X64837Y-36733D01*
X64829Y-36791D01*
X64826Y-36815D01*
Y-36835D01*
X64823Y-36856D01*
Y-36868D01*
Y-36876D01*
Y-36879D01*
Y-36929D01*
X64829Y-36976D01*
X64834Y-37020D01*
X64840Y-37058D01*
X64849Y-37096D01*
X64861Y-37131D01*
X64870Y-37160D01*
X64881Y-37187D01*
X64893Y-37210D01*
X64902Y-37231D01*
X64913Y-37248D01*
X64922Y-37263D01*
X64928Y-37275D01*
X64934Y-37283D01*
X64940Y-37286D01*
Y-37289D01*
X64963Y-37313D01*
X64987Y-37333D01*
X65034Y-37365D01*
X65083Y-37389D01*
X65130Y-37404D01*
X65171Y-37415D01*
X65203Y-37418D01*
X65215Y-37421D01*
X65233D01*
X65265Y-37418D01*
X65297Y-37415D01*
X65353Y-37401D01*
X65405Y-37380D01*
X65446Y-37354D01*
X65482Y-37330D01*
X65508Y-37310D01*
X65523Y-37295D01*
X65528Y-37289D01*
X65549Y-37263D01*
X65567Y-37234D01*
X65596Y-37169D01*
X65613Y-37102D01*
X65628Y-37037D01*
X65637Y-36979D01*
X65640Y-36953D01*
Y-36932D01*
X65643Y-36914D01*
Y-36900D01*
Y-36891D01*
Y-36888D01*
Y-36838D01*
X65637Y-36794D01*
X65631Y-36750D01*
X65625Y-36712D01*
X65616Y-36674D01*
X65608Y-36642D01*
X65596Y-36613D01*
X65584Y-36586D01*
X65575Y-36563D01*
X65564Y-36543D01*
X65555Y-36525D01*
X65546Y-36510D01*
X65540Y-36502D01*
X65534Y-36493D01*
X65528Y-36487D01*
X65505Y-36463D01*
X65482Y-36443D01*
X65432Y-36408D01*
X65382Y-36384D01*
X65335Y-36370D01*
X65294Y-36358D01*
X65262Y-36355D01*
X65250Y-36352D01*
D02*
G37*
G36*
X58980Y-36352D02*
X58930D01*
X58901Y-36358D01*
X58845Y-36373D01*
X58796Y-36396D01*
X58752Y-36420D01*
X58719Y-36443D01*
X58693Y-36466D01*
X58678Y-36481D01*
X58673Y-36484D01*
Y-36487D01*
X58632Y-36543D01*
X58602Y-36604D01*
X58582Y-36671D01*
X58567Y-36733D01*
X58558Y-36791D01*
X58555Y-36815D01*
Y-36835D01*
X58552Y-36856D01*
Y-36868D01*
Y-36876D01*
Y-36879D01*
Y-36929D01*
X58558Y-36976D01*
X58564Y-37020D01*
X58570Y-37058D01*
X58579Y-37096D01*
X58591Y-37131D01*
X58599Y-37160D01*
X58611Y-37187D01*
X58623Y-37210D01*
X58632Y-37231D01*
X58643Y-37248D01*
X58652Y-37263D01*
X58658Y-37275D01*
X58664Y-37283D01*
X58670Y-37286D01*
Y-37289D01*
X58693Y-37313D01*
X58716Y-37333D01*
X58763Y-37365D01*
X58813Y-37389D01*
X58860Y-37404D01*
X58901Y-37415D01*
X58933Y-37418D01*
X58945Y-37421D01*
X58963D01*
X58995Y-37418D01*
X59027Y-37415D01*
X59083Y-37401D01*
X59135Y-37380D01*
X59176Y-37354D01*
X59211Y-37330D01*
X59238Y-37310D01*
X59252Y-37295D01*
X59258Y-37289D01*
X59279Y-37263D01*
X59296Y-37234D01*
X59326Y-37169D01*
X59343Y-37102D01*
X59358Y-37037D01*
X59367Y-36979D01*
X59370Y-36953D01*
Y-36932D01*
X59373Y-36914D01*
Y-36900D01*
Y-36891D01*
Y-36888D01*
Y-36838D01*
X59367Y-36794D01*
X59361Y-36750D01*
X59355Y-36712D01*
X59346Y-36674D01*
X59337Y-36642D01*
X59326Y-36613D01*
X59314Y-36586D01*
X59305Y-36563D01*
X59293Y-36543D01*
X59285Y-36525D01*
X59276Y-36510D01*
X59270Y-36502D01*
X59264Y-36493D01*
X59258Y-36487D01*
X59235Y-36463D01*
X59211Y-36443D01*
X59162Y-36408D01*
X59112Y-36384D01*
X59065Y-36370D01*
X59024Y-36358D01*
X58992Y-36355D01*
X58980Y-36352D01*
D02*
G37*
G36*
X56927D02*
X56883D01*
X56854Y-36358D01*
X56801Y-36373D01*
X56754Y-36396D01*
X56716Y-36420D01*
X56684Y-36443D01*
X56661Y-36466D01*
X56646Y-36481D01*
X56640Y-36484D01*
Y-36487D01*
X56620Y-36513D01*
X56602Y-36543D01*
X56576Y-36610D01*
X56555Y-36680D01*
X56543Y-36748D01*
X56535Y-36812D01*
X56532Y-36838D01*
Y-36862D01*
X56529Y-36882D01*
Y-36897D01*
Y-36906D01*
Y-36909D01*
Y-36955D01*
X56535Y-36999D01*
X56538Y-37040D01*
X56546Y-37078D01*
X56555Y-37114D01*
X56564Y-37146D01*
X56573Y-37175D01*
X56582Y-37199D01*
X56593Y-37222D01*
X56602Y-37242D01*
X56611Y-37257D01*
X56620Y-37272D01*
X56628Y-37281D01*
X56631Y-37289D01*
X56637Y-37292D01*
Y-37295D01*
X56658Y-37319D01*
X56678Y-37336D01*
X56725Y-37368D01*
X56769Y-37389D01*
X56810Y-37406D01*
X56845Y-37415D01*
X56874Y-37418D01*
X56886Y-37421D01*
X56901D01*
X56930Y-37418D01*
X56956Y-37415D01*
X57009Y-37401D01*
X57053Y-37380D01*
X57091Y-37354D01*
X57123Y-37330D01*
X57147Y-37310D01*
X57161Y-37295D01*
X57167Y-37289D01*
X57188Y-37263D01*
X57205Y-37234D01*
X57232Y-37172D01*
X57252Y-37105D01*
X57264Y-37040D01*
X57273Y-36979D01*
X57276Y-36955D01*
Y-36932D01*
X57279Y-36914D01*
Y-36900D01*
Y-36891D01*
Y-36888D01*
Y-36838D01*
X57273Y-36791D01*
X57270Y-36748D01*
X57261Y-36707D01*
X57255Y-36671D01*
X57246Y-36636D01*
X57235Y-36607D01*
X57226Y-36581D01*
X57217Y-36557D01*
X57205Y-36537D01*
X57197Y-36519D01*
X57191Y-36504D01*
X57182Y-36496D01*
X57179Y-36487D01*
X57173Y-36481D01*
X57153Y-36458D01*
X57132Y-36437D01*
X57088Y-36408D01*
X57044Y-36384D01*
X57003Y-36367D01*
X56968Y-36358D01*
X56939Y-36355D01*
X56927Y-36352D01*
D02*
G37*
G36*
X26200Y-35884D02*
X25746D01*
X25685Y-35889D01*
X25635Y-35892D01*
X25594Y-35898D01*
X25565Y-35904D01*
X25544Y-35907D01*
X25529Y-35913D01*
X25526D01*
X25497Y-35925D01*
X25471Y-35939D01*
X25447Y-35957D01*
X25430Y-35971D01*
X25415Y-35989D01*
X25403Y-36001D01*
X25398Y-36010D01*
X25395Y-36012D01*
X25380Y-36042D01*
X25368Y-36071D01*
X25360Y-36097D01*
X25354Y-36124D01*
X25351Y-36147D01*
X25348Y-36165D01*
Y-36179D01*
Y-36182D01*
X25351Y-36220D01*
X25357Y-36253D01*
X25362Y-36282D01*
X25371Y-36305D01*
X25383Y-36326D01*
X25389Y-36340D01*
X25395Y-36349D01*
X25398Y-36352D01*
X25418Y-36376D01*
X25442Y-36396D01*
X25465Y-36414D01*
X25488Y-36425D01*
X25512Y-36437D01*
X25529Y-36443D01*
X25541Y-36446D01*
X25544Y-36449D01*
X25576Y-36455D01*
X25611Y-36461D01*
X25652Y-36463D01*
X25693Y-36466D01*
X25729Y-36469D01*
X26200D01*
Y-35884D01*
D02*
G37*
G36*
Y-36695D02*
X25693D01*
X25635Y-36701D01*
X25588Y-36704D01*
X25547Y-36709D01*
X25518Y-36715D01*
X25494Y-36721D01*
X25483Y-36724D01*
X25477Y-36727D01*
X25442Y-36742D01*
X25412Y-36759D01*
X25386Y-36777D01*
X25365Y-36797D01*
X25348Y-36815D01*
X25333Y-36827D01*
X25327Y-36838D01*
X25324Y-36841D01*
X25304Y-36871D01*
X25289Y-36903D01*
X25280Y-36935D01*
X25272Y-36964D01*
X25269Y-36988D01*
X25266Y-37008D01*
Y-37020D01*
Y-37026D01*
X25269Y-37061D01*
X25272Y-37090D01*
X25278Y-37119D01*
X25283Y-37143D01*
X25292Y-37163D01*
X25298Y-37178D01*
X25301Y-37187D01*
X25304Y-37190D01*
X25319Y-37213D01*
X25336Y-37237D01*
X25351Y-37254D01*
X25368Y-37269D01*
X25383Y-37283D01*
X25392Y-37292D01*
X25401Y-37295D01*
X25403Y-37298D01*
X25450Y-37322D01*
X25497Y-37336D01*
X25518Y-37342D01*
X25535Y-37345D01*
X25547Y-37348D01*
X25550D01*
X25570Y-37351D01*
X25597Y-37354D01*
X25655Y-37357D01*
X26200D01*
Y-36695D01*
D02*
G37*
%LPD*%
D15*
X50818Y17489D02*
X50818Y-17511D01*
X-10704Y17489D02*
X50818Y17489D01*
X-10704Y-17511D02*
X50818Y-17511D01*
X-10704Y17489D02*
X-10704Y-17511D01*
D16*
X-17322Y17399D02*
X-16814Y15875D01*
X-17830D02*
X-17322Y17399D01*
X-17830Y-16083D02*
X-17322Y-17607D01*
X-16814Y-16083D01*
X-17322Y4720D02*
Y17399D01*
Y-17607D02*
Y-5741D01*
X-17576Y17399D02*
X-10761D01*
X-17576Y-17607D02*
X-10706D01*
X-10736Y23308D02*
X-9212Y23816D01*
X-10736Y23308D02*
X-9212Y22800D01*
X49229D02*
X50753Y23308D01*
X49229Y23816D02*
X50753Y23308D01*
X-10736D02*
X14371D01*
X24833D02*
X50753D01*
X-10736Y17423D02*
Y23562D01*
X50753Y17423D02*
Y23562D01*
D17*
X-17678Y-5335D02*
X-17932Y-5081D01*
Y-4573D01*
X-17678Y-4319D01*
X-17424D01*
X-17170Y-4573D01*
Y-4827D01*
Y-4573D01*
X-16916Y-4319D01*
X-16662D01*
X-16408Y-4573D01*
Y-5081D01*
X-16662Y-5335D01*
X-17932Y-2796D02*
Y-3811D01*
X-17170D01*
X-17424Y-3304D01*
Y-3050D01*
X-17170Y-2796D01*
X-16662D01*
X-16408Y-3050D01*
Y-3557D01*
X-16662Y-3811D01*
X-16408Y-2288D02*
X-16662D01*
Y-2034D01*
X-16408D01*
Y-2288D01*
X-17678Y-1018D02*
X-17932Y-764D01*
Y-257D01*
X-17678Y-3D01*
X-16662D01*
X-16408Y-257D01*
Y-764D01*
X-16662Y-1018D01*
X-17678D01*
X-16408Y505D02*
Y1013D01*
Y759D01*
X-17932D01*
X-17678Y505D01*
X-16408Y1775D02*
X-17424D01*
Y2029D01*
X-17170Y2283D01*
X-16408D01*
X-17170D01*
X-17424Y2537D01*
X-17170Y2790D01*
X-16408D01*
Y3298D02*
X-17424D01*
Y3552D01*
X-17170Y3806D01*
X-16408D01*
X-17170D01*
X-17424Y4060D01*
X-17170Y4314D01*
X-16408D01*
X15793Y23917D02*
X15286Y23663D01*
X14778Y23155D01*
Y22647D01*
X15032Y22394D01*
X15539D01*
X15793Y22647D01*
Y22901D01*
X15539Y23155D01*
X14778D01*
X16301Y22394D02*
X16809D01*
X16555D01*
Y23917D01*
X16301Y23663D01*
X17571Y22394D02*
Y22647D01*
X17825D01*
Y22394D01*
X17571D01*
X19602D02*
Y23917D01*
X18840Y23155D01*
X19856D01*
X20364Y22647D02*
X20618Y22394D01*
X21126D01*
X21380Y22647D01*
Y23663D01*
X21126Y23917D01*
X20618D01*
X20364Y23663D01*
Y23409D01*
X20618Y23155D01*
X21380D01*
X21887Y22394D02*
Y23409D01*
X22141D01*
X22395Y23155D01*
Y22394D01*
Y23155D01*
X22649Y23409D01*
X22903Y23155D01*
Y22394D01*
X23411D02*
Y23409D01*
X23665D01*
X23919Y23155D01*
Y22394D01*
Y23155D01*
X24173Y23409D01*
X24427Y23155D01*
Y22394D01*
D23*
X47950Y-4542D02*
D03*
Y3958D02*
D03*
D25*
X24339Y-11830D02*
D03*
X25239Y-11830D02*
D03*
X17696Y-11830D02*
D03*
X18596Y-11830D02*
D03*
X24439Y-10505D02*
D03*
X25339Y-10504D02*
D03*
D27*
X17286Y-10204D02*
D03*
X18711D02*
D03*
X25525Y-6125D02*
D03*
X26950D02*
D03*
D33*
X25900Y-1350D02*
D03*
X25900Y-2250D02*
D03*
X30000Y-5900D02*
D03*
X30000Y-6800D02*
D03*
D37*
X23550Y-2263D02*
D03*
Y-837D02*
D03*
X26552Y2469D02*
D03*
X26552Y3894D02*
D03*
D38*
X10110Y14000D02*
D03*
X12650D02*
D03*
X2490D02*
D03*
X5030D02*
D03*
X-5130D02*
D03*
X-50D02*
D03*
X-2590D02*
D03*
X7570D02*
D03*
X35510D02*
D03*
X38050D02*
D03*
X30430D02*
D03*
X32970D02*
D03*
X40590D02*
D03*
X15190D02*
D03*
X20270D02*
D03*
X17730D02*
D03*
X22810D02*
D03*
X27890D02*
D03*
X25350D02*
D03*
X10110Y-14000D02*
D03*
X12650D02*
D03*
X2490D02*
D03*
X5030D02*
D03*
X-5130D02*
D03*
X-50D02*
D03*
X-2590D02*
D03*
X7570D02*
D03*
X35510D02*
D03*
X38050D02*
D03*
X30430D02*
D03*
X32970D02*
D03*
X40590D02*
D03*
X15190D02*
D03*
X20270D02*
D03*
X17730D02*
D03*
X22810D02*
D03*
X27890D02*
D03*
X25350D02*
D03*
D39*
X43130Y14000D02*
D03*
X43130Y-14000D02*
D03*
D40*
X49958Y-1858D02*
D03*
X48558Y14942D02*
D03*
X47858Y13542D02*
D03*
X48558Y12142D02*
D03*
X47858Y10742D02*
D03*
X48558Y9342D02*
D03*
X47858Y7942D02*
D03*
X48558Y6542D02*
D03*
X47858Y5142D02*
D03*
X48558Y-1858D02*
D03*
X47858Y-6058D02*
D03*
X48558Y-7458D02*
D03*
X47858Y-8858D02*
D03*
X48558Y-10258D02*
D03*
X47858Y-11658D02*
D03*
X48558Y-13058D02*
D03*
X47858Y-14458D02*
D03*
X47158Y14942D02*
D03*
X46458Y13542D02*
D03*
X47158Y12142D02*
D03*
X46458Y10742D02*
D03*
X47158Y9342D02*
D03*
X46458Y7942D02*
D03*
X47158Y6542D02*
D03*
X46458Y5142D02*
D03*
Y2342D02*
D03*
Y-6058D02*
D03*
X47158Y-7458D02*
D03*
X46458Y-8858D02*
D03*
X47158Y-10258D02*
D03*
X46458Y-11658D02*
D03*
X47158Y-13058D02*
D03*
X46458Y-14458D02*
D03*
X45758Y14942D02*
D03*
X45058Y13542D02*
D03*
X45758Y12142D02*
D03*
X45058Y10742D02*
D03*
X45758Y9342D02*
D03*
X45058Y7942D02*
D03*
X45758Y6542D02*
D03*
X45058Y5142D02*
D03*
Y2342D02*
D03*
Y-3258D02*
D03*
Y-6058D02*
D03*
X45758Y-7458D02*
D03*
X45058Y-8858D02*
D03*
X45758Y-10258D02*
D03*
X45058Y-11658D02*
D03*
X45758Y-13058D02*
D03*
X45058Y-14458D02*
D03*
X44358Y12142D02*
D03*
X43658Y10742D02*
D03*
X44358Y9342D02*
D03*
X43658Y7942D02*
D03*
X44358Y6542D02*
D03*
X43658Y5142D02*
D03*
X44358Y3742D02*
D03*
X43658Y2342D02*
D03*
Y-3258D02*
D03*
X44358Y-4658D02*
D03*
X43658Y-6058D02*
D03*
X44358Y-7458D02*
D03*
X43658Y-8858D02*
D03*
X44358Y-10258D02*
D03*
X43658Y-11658D02*
D03*
X42258Y10742D02*
D03*
X42958Y9342D02*
D03*
X42258Y7942D02*
D03*
X42958Y6542D02*
D03*
X42258Y5142D02*
D03*
X42958Y3742D02*
D03*
X42258Y2342D02*
D03*
Y-3258D02*
D03*
X42958Y-4658D02*
D03*
X42258Y-6058D02*
D03*
X42958Y-7458D02*
D03*
X42258Y-8858D02*
D03*
X40858Y5142D02*
D03*
X41558Y3742D02*
D03*
Y-4658D02*
D03*
X40858Y-6058D02*
D03*
X41558Y-7458D02*
D03*
X40858Y-8858D02*
D03*
X40158Y9342D02*
D03*
X39458Y7942D02*
D03*
X40158Y6542D02*
D03*
Y-7458D02*
D03*
X39458Y-8858D02*
D03*
X38758Y12142D02*
D03*
Y9342D02*
D03*
X38058Y7942D02*
D03*
X38758Y6542D02*
D03*
X38058Y5142D02*
D03*
Y-458D02*
D03*
X37358Y9342D02*
D03*
X36658Y7942D02*
D03*
X37358Y6542D02*
D03*
X35958Y9342D02*
D03*
X33158Y12142D02*
D03*
Y-10258D02*
D03*
X31758Y14942D02*
D03*
X28958D02*
D03*
Y12142D02*
D03*
X25458Y10742D02*
D03*
X24758Y12142D02*
D03*
X22658Y5142D02*
D03*
X21258D02*
D03*
X19158Y14942D02*
D03*
X18458Y5142D02*
D03*
X16358Y14942D02*
D03*
Y-13058D02*
D03*
X14258Y7942D02*
D03*
X14958Y6542D02*
D03*
Y3742D02*
D03*
X14258Y2342D02*
D03*
X14958Y942D02*
D03*
X14258Y-458D02*
D03*
X14958Y-1858D02*
D03*
X14258Y-3258D02*
D03*
X12858Y7942D02*
D03*
X13558Y6542D02*
D03*
Y3742D02*
D03*
X12858Y2342D02*
D03*
X13558Y942D02*
D03*
X12858Y-458D02*
D03*
X13558Y-1858D02*
D03*
X12858Y-3258D02*
D03*
X13558Y-4658D02*
D03*
X12158Y12142D02*
D03*
X11458Y7942D02*
D03*
X12158Y6542D02*
D03*
Y3742D02*
D03*
X11458Y2342D02*
D03*
X12158Y942D02*
D03*
X11458Y-458D02*
D03*
X12158Y-1858D02*
D03*
X11458Y-3258D02*
D03*
X12158Y-4658D02*
D03*
X11458Y-11658D02*
D03*
X10058Y7942D02*
D03*
X10758Y6542D02*
D03*
Y3742D02*
D03*
X10058Y2342D02*
D03*
X10758Y942D02*
D03*
X10058Y-458D02*
D03*
X10758Y-1858D02*
D03*
X10058Y-3258D02*
D03*
X10758Y-4658D02*
D03*
X9358Y12142D02*
D03*
X8658Y7942D02*
D03*
X9358Y6542D02*
D03*
Y3742D02*
D03*
X8658Y2342D02*
D03*
X9358Y942D02*
D03*
X8658Y-458D02*
D03*
X9358Y-1858D02*
D03*
X8658Y-3258D02*
D03*
X9358Y-4658D02*
D03*
X8658Y-11658D02*
D03*
X7258Y10742D02*
D03*
Y7942D02*
D03*
X7958Y6542D02*
D03*
Y3742D02*
D03*
X7258Y2342D02*
D03*
X7958Y942D02*
D03*
X7258Y-458D02*
D03*
X7958Y-1858D02*
D03*
X7258Y-3258D02*
D03*
X7958Y-4658D02*
D03*
X6558Y12142D02*
D03*
X5858Y7942D02*
D03*
X6558Y6542D02*
D03*
Y3742D02*
D03*
X5858Y2342D02*
D03*
X6558Y942D02*
D03*
X5858Y-458D02*
D03*
X6558Y-1858D02*
D03*
X5858Y-3258D02*
D03*
X6558Y-4658D02*
D03*
Y-10258D02*
D03*
X5858Y-11658D02*
D03*
X4458Y10742D02*
D03*
Y7942D02*
D03*
X5158Y6542D02*
D03*
Y3742D02*
D03*
X4458Y2342D02*
D03*
X5158Y942D02*
D03*
X4458Y-458D02*
D03*
X5158Y-1858D02*
D03*
X4458Y-3258D02*
D03*
X5158Y-4658D02*
D03*
X4458Y-11658D02*
D03*
X3758Y14942D02*
D03*
Y12142D02*
D03*
X3058Y7942D02*
D03*
Y5142D02*
D03*
X3758Y3742D02*
D03*
X3058Y2342D02*
D03*
X3758Y942D02*
D03*
X3058Y-458D02*
D03*
X3758Y-1858D02*
D03*
X3058Y-3258D02*
D03*
X3758Y-4658D02*
D03*
X3058Y-11658D02*
D03*
X3758Y-13058D02*
D03*
X1658Y10742D02*
D03*
X2358Y9342D02*
D03*
X1658Y5142D02*
D03*
X2358Y3742D02*
D03*
X1658Y2342D02*
D03*
X2358Y942D02*
D03*
X1658Y-458D02*
D03*
X2358Y-1858D02*
D03*
X1658Y-3258D02*
D03*
X2358Y-4658D02*
D03*
X1658Y-8858D02*
D03*
X2358Y-10258D02*
D03*
X1658Y-11658D02*
D03*
X958Y12142D02*
D03*
X258Y7942D02*
D03*
X958Y6542D02*
D03*
X258Y5142D02*
D03*
X958Y3742D02*
D03*
X258Y2342D02*
D03*
X958Y942D02*
D03*
X258Y-458D02*
D03*
X958Y-1858D02*
D03*
X258Y-3258D02*
D03*
X958Y-4658D02*
D03*
Y-7458D02*
D03*
X-1142Y10742D02*
D03*
Y7942D02*
D03*
X-442Y6542D02*
D03*
X-1142Y5142D02*
D03*
X-442Y3742D02*
D03*
X-1142Y2342D02*
D03*
X-442Y942D02*
D03*
X-1142Y-458D02*
D03*
X-442Y-1858D02*
D03*
X-1142Y-3258D02*
D03*
X-442Y-4658D02*
D03*
X-1142Y-6058D02*
D03*
Y-11658D02*
D03*
X-1842Y12142D02*
D03*
X-2542Y10742D02*
D03*
X-1842Y9342D02*
D03*
X-2542Y7942D02*
D03*
X-1842Y6542D02*
D03*
X-2542Y5142D02*
D03*
X-1842Y3742D02*
D03*
X-2542Y2342D02*
D03*
X-1842Y942D02*
D03*
X-2542Y-458D02*
D03*
X-1842Y-1858D02*
D03*
X-2542Y-3258D02*
D03*
X-1842Y-4658D02*
D03*
X-2542Y-6058D02*
D03*
X-1842Y-10258D02*
D03*
X-3242Y12142D02*
D03*
X-3942Y10742D02*
D03*
X-3242Y9342D02*
D03*
X-3942Y7942D02*
D03*
X-3242Y6542D02*
D03*
X-3942Y5142D02*
D03*
X-3242Y3742D02*
D03*
X-3942Y2342D02*
D03*
X-3242Y942D02*
D03*
X-3942Y-458D02*
D03*
X-3242Y-1858D02*
D03*
X-3942Y-3258D02*
D03*
X-3242Y-4658D02*
D03*
X-3942Y-6058D02*
D03*
X-3242Y-7458D02*
D03*
X-3942Y-8858D02*
D03*
X-4642Y12142D02*
D03*
X-5342Y10742D02*
D03*
X-4642Y9342D02*
D03*
X-5342Y7942D02*
D03*
X-4642Y6542D02*
D03*
X-5342Y5142D02*
D03*
X-4642Y3742D02*
D03*
X-5342Y2342D02*
D03*
X-4642Y942D02*
D03*
X-5342Y-458D02*
D03*
X-4642Y-1858D02*
D03*
X-5342Y-3258D02*
D03*
X-4642Y-4658D02*
D03*
X-5342Y-6058D02*
D03*
X-4642Y-7458D02*
D03*
X-5342Y-8858D02*
D03*
X-6042Y14942D02*
D03*
X-6742Y13542D02*
D03*
X-6042Y12142D02*
D03*
X-6742Y10742D02*
D03*
X-6042Y9342D02*
D03*
X-6742Y7942D02*
D03*
X-6042Y6542D02*
D03*
X-6742Y5142D02*
D03*
X-6042Y3742D02*
D03*
X-6742Y2342D02*
D03*
X-6042Y942D02*
D03*
X-6742Y-458D02*
D03*
X-6042Y-1858D02*
D03*
X-6742Y-3258D02*
D03*
X-6042Y-4658D02*
D03*
X-6742Y-6058D02*
D03*
X-6042Y-7458D02*
D03*
X-6742Y-8858D02*
D03*
X-6042Y-10258D02*
D03*
X-6742Y-11658D02*
D03*
X-7442Y14942D02*
D03*
X-8142Y13542D02*
D03*
X-7442Y12142D02*
D03*
X-8142Y10742D02*
D03*
X-7442Y9342D02*
D03*
Y6542D02*
D03*
X-8142Y5142D02*
D03*
X-7442Y3742D02*
D03*
Y942D02*
D03*
X-8142Y-458D02*
D03*
X-7442Y-1858D02*
D03*
Y-4658D02*
D03*
X-8142Y-6058D02*
D03*
X-7442Y-7458D02*
D03*
X-8142Y-8858D02*
D03*
X-7442Y-10258D02*
D03*
X-8142Y-11658D02*
D03*
X-7442Y-13058D02*
D03*
X-8142Y-14458D02*
D03*
X46826Y-3530D02*
D03*
X46976Y3050D02*
D03*
X37099Y-2019D02*
D03*
X45051Y-1539D02*
D03*
X38724Y-3102D02*
D03*
X39095Y-2571D02*
D03*
X37981Y-3102D02*
D03*
X38352Y-2571D02*
D03*
X37609D02*
D03*
X38059Y2106D02*
D03*
X38430Y1574D02*
D03*
X37316Y2106D02*
D03*
X37687Y1574D02*
D03*
X36944D02*
D03*
X45794Y-1539D02*
D03*
X45423Y-2071D02*
D03*
X46166D02*
D03*
X44679D02*
D03*
X44308Y-1539D02*
D03*
X42821D02*
D03*
X40964Y-2071D02*
D03*
X41707D02*
D03*
X43193D02*
D03*
X42450D02*
D03*
X43936D02*
D03*
X41335Y-1539D02*
D03*
X42078D02*
D03*
X43564D02*
D03*
X40692D02*
D03*
X46681Y1488D02*
D03*
X45938D02*
D03*
X45566Y957D02*
D03*
X46309D02*
D03*
X44823D02*
D03*
X45195Y1488D02*
D03*
X41479D02*
D03*
X40736D02*
D03*
X42965D02*
D03*
X42222D02*
D03*
X42593Y957D02*
D03*
X41107D02*
D03*
X41850D02*
D03*
X40464D02*
D03*
X44080D02*
D03*
X43337D02*
D03*
X43708Y1488D02*
D03*
X44452D02*
D03*
X36588Y2731D02*
D03*
X36960Y3263D02*
D03*
X36589Y3794D02*
D03*
X36961Y4326D02*
D03*
X36218D02*
D03*
X19677Y-11718D02*
D03*
X19527Y-10930D02*
D03*
X18635Y-11095D02*
D03*
X18772Y-12608D02*
D03*
X25837Y-12483D02*
D03*
X25827Y-11227D02*
D03*
X49566Y-4035D02*
D03*
X48080D02*
D03*
X50310D02*
D03*
X48823D02*
D03*
X47556Y-4035D02*
D03*
Y3451D02*
D03*
X48823Y3451D02*
D03*
X50310D02*
D03*
X48080D02*
D03*
X49566D02*
D03*
X28132Y1544D02*
D03*
X27708Y4532D02*
D03*
Y3949D02*
D03*
X23706Y2287D02*
D03*
X24598Y-458D02*
D03*
Y-1104D02*
D03*
X28441Y7636D02*
D03*
X37231Y12029D02*
D03*
X36488D02*
D03*
X40220Y11926D02*
D03*
X39477D02*
D03*
X42825Y11793D02*
D03*
X42082D02*
D03*
X24503Y11554D02*
D03*
X25246D02*
D03*
X21776Y11558D02*
D03*
X22519D02*
D03*
X19467Y11550D02*
D03*
X20210D02*
D03*
X43235Y-9752D02*
D03*
X41849D02*
D03*
X38976D02*
D03*
X40363D02*
D03*
X35200Y-7900D02*
D03*
X36219Y5389D02*
D03*
X36591Y5920D02*
D03*
X36962Y5389D02*
D03*
X36590Y4857D02*
D03*
X46376Y-1564D02*
D03*
D41*
X31798Y7019D02*
D03*
X37488Y-4373D02*
D03*
X38793Y-4673D02*
D03*
X40536Y2881D02*
D03*
X33285Y-2916D02*
D03*
X18221Y2087D02*
D03*
X30409Y-5175D02*
D03*
X50199Y16250D02*
D03*
X49300Y14816D02*
D03*
X50253Y15366D02*
D03*
X48052Y15942D02*
D03*
X49152D02*
D03*
X47502Y16895D02*
D03*
X48602D02*
D03*
X49702D02*
D03*
X49300Y-15203D02*
D03*
X47415Y-16917D02*
D03*
X48515D02*
D03*
X49615D02*
D03*
X47965Y-15964D02*
D03*
X49065D02*
D03*
X50165D02*
D03*
X-9030Y16301D02*
D03*
X50253Y14266D02*
D03*
X49300Y13716D02*
D03*
X49300Y7116D02*
D03*
X49300Y4916D02*
D03*
Y6016D02*
D03*
X49300Y12616D02*
D03*
X49300Y8216D02*
D03*
X49300Y10416D02*
D03*
X49300Y9316D02*
D03*
X49300Y11516D02*
D03*
X50253Y6566D02*
D03*
Y13166D02*
D03*
Y12066D02*
D03*
X50253Y7666D02*
D03*
X50253Y8766D02*
D03*
Y9866D02*
D03*
X50253Y10966D02*
D03*
X50253Y5466D02*
D03*
X50253Y4366D02*
D03*
X50253Y-5034D02*
D03*
X50253Y-6134D02*
D03*
X50253Y-7234D02*
D03*
X50253Y-8334D02*
D03*
X50253Y-9434D02*
D03*
X50253Y-10534D02*
D03*
X50253Y-11634D02*
D03*
Y-12734D02*
D03*
X50253Y-13834D02*
D03*
X50253Y-14934D02*
D03*
X49300Y-5584D02*
D03*
X49300Y-6684D02*
D03*
X49300Y-7784D02*
D03*
Y-8884D02*
D03*
Y-9984D02*
D03*
X49300Y-11084D02*
D03*
X49300Y-12184D02*
D03*
Y-13284D02*
D03*
X49300Y-14384D02*
D03*
X-8995Y-16137D02*
D03*
X-9785Y16083D02*
D03*
X-9785Y14983D02*
D03*
X-9785Y13883D02*
D03*
X-9785Y12783D02*
D03*
Y11683D02*
D03*
X-9785Y10583D02*
D03*
X-9785Y9483D02*
D03*
X-9785Y8383D02*
D03*
X-9785Y7283D02*
D03*
X-9785Y6183D02*
D03*
X-9785Y5083D02*
D03*
X-9785Y3983D02*
D03*
X-9785Y2883D02*
D03*
X-9785Y1783D02*
D03*
X-9785Y683D02*
D03*
X-9785Y-417D02*
D03*
X-9785Y-1517D02*
D03*
X-9785Y-2617D02*
D03*
X-9785Y-3717D02*
D03*
X-9785Y-4817D02*
D03*
Y-5917D02*
D03*
Y-7017D02*
D03*
Y-8117D02*
D03*
X-9785Y-9217D02*
D03*
X-9785Y-10317D02*
D03*
X-9785Y-11417D02*
D03*
X-9785Y-12517D02*
D03*
X-9785Y-13617D02*
D03*
X-9785Y-14717D02*
D03*
X-9785Y-15817D02*
D03*
X-8832Y15533D02*
D03*
X-8832Y14433D02*
D03*
X-8832Y13333D02*
D03*
X-8832Y12233D02*
D03*
X-8832Y11133D02*
D03*
X-8832Y10033D02*
D03*
X-8832Y8933D02*
D03*
Y7833D02*
D03*
X-8832Y6733D02*
D03*
X-8832Y5633D02*
D03*
Y4533D02*
D03*
X-8832Y3433D02*
D03*
X-8832Y2333D02*
D03*
X-8832Y1233D02*
D03*
X-8832Y133D02*
D03*
X-8832Y-967D02*
D03*
X-8832Y-2067D02*
D03*
X-8832Y-3167D02*
D03*
X-8832Y-4267D02*
D03*
Y-5367D02*
D03*
X-8832Y-6467D02*
D03*
X-8832Y-7567D02*
D03*
X-8832Y-8667D02*
D03*
X-8832Y-9767D02*
D03*
X-8832Y-10867D02*
D03*
X-8832Y-11967D02*
D03*
Y-13067D02*
D03*
Y-14167D02*
D03*
X-8832Y-15267D02*
D03*
X46402Y16895D02*
D03*
X45302D02*
D03*
X44202D02*
D03*
X43102D02*
D03*
X42002D02*
D03*
X40902D02*
D03*
X39802D02*
D03*
X38702D02*
D03*
X37602D02*
D03*
X36502D02*
D03*
X35402D02*
D03*
X34302D02*
D03*
X33202D02*
D03*
X32102D02*
D03*
X31002D02*
D03*
X29902D02*
D03*
X28802D02*
D03*
X27702D02*
D03*
X26602D02*
D03*
X25502D02*
D03*
X24402D02*
D03*
X23302D02*
D03*
X22202D02*
D03*
X21102D02*
D03*
X20002D02*
D03*
X18902D02*
D03*
X17802D02*
D03*
X16702D02*
D03*
X15602D02*
D03*
X14502D02*
D03*
X13402D02*
D03*
X12302D02*
D03*
X11202D02*
D03*
X10102D02*
D03*
X9002D02*
D03*
X7902D02*
D03*
X6802D02*
D03*
X5702D02*
D03*
X4602D02*
D03*
X3502D02*
D03*
X2402D02*
D03*
X1302D02*
D03*
X202D02*
D03*
X-898D02*
D03*
X-1998D02*
D03*
X-3098D02*
D03*
X-4198D02*
D03*
X-5298D02*
D03*
X-6398D02*
D03*
X-7498D02*
D03*
X-8598D02*
D03*
X-9698D02*
D03*
X46952Y15942D02*
D03*
X45852D02*
D03*
X44752D02*
D03*
X43652D02*
D03*
X42552D02*
D03*
X41452D02*
D03*
X40352D02*
D03*
X39252D02*
D03*
X38152D02*
D03*
X37052D02*
D03*
X35952D02*
D03*
X34852D02*
D03*
X33752D02*
D03*
X32652D02*
D03*
X31552D02*
D03*
X30452D02*
D03*
X29352D02*
D03*
X28252D02*
D03*
X27152D02*
D03*
X26052D02*
D03*
X24952D02*
D03*
X23852D02*
D03*
X22752D02*
D03*
X21652D02*
D03*
X20552D02*
D03*
X19452D02*
D03*
X18352D02*
D03*
X17252D02*
D03*
X16152D02*
D03*
X15052D02*
D03*
X13952D02*
D03*
X12852D02*
D03*
X11752D02*
D03*
X10652D02*
D03*
X9552D02*
D03*
X8452D02*
D03*
X7352D02*
D03*
X6252D02*
D03*
X5152D02*
D03*
X4052D02*
D03*
X2952D02*
D03*
X1852D02*
D03*
X752D02*
D03*
X-348D02*
D03*
X-1448D02*
D03*
X-2548D02*
D03*
X-3648D02*
D03*
X-4748D02*
D03*
X-5848D02*
D03*
X-6948D02*
D03*
X-8048D02*
D03*
X46865Y-15964D02*
D03*
X45765D02*
D03*
X44665D02*
D03*
X43565D02*
D03*
X42465D02*
D03*
X41365D02*
D03*
X40265D02*
D03*
X39165D02*
D03*
X38065D02*
D03*
X36965D02*
D03*
X35865D02*
D03*
X34765D02*
D03*
X33665D02*
D03*
X32565D02*
D03*
X31465D02*
D03*
X30365D02*
D03*
X29265D02*
D03*
X28165D02*
D03*
X27065D02*
D03*
X25965D02*
D03*
X24865D02*
D03*
X23765D02*
D03*
X22665D02*
D03*
X21565D02*
D03*
X20465D02*
D03*
X19365D02*
D03*
X18265D02*
D03*
X17165D02*
D03*
X16065D02*
D03*
X14965D02*
D03*
X13865D02*
D03*
X12765D02*
D03*
X11665D02*
D03*
X10565D02*
D03*
X9465D02*
D03*
X8365D02*
D03*
X7265D02*
D03*
X6165D02*
D03*
X5065D02*
D03*
X3965D02*
D03*
X2865D02*
D03*
X665D02*
D03*
X-435D02*
D03*
X-1535D02*
D03*
X-2635D02*
D03*
X-3735D02*
D03*
X-4835D02*
D03*
X-5935D02*
D03*
X-7035D02*
D03*
X-8135D02*
D03*
X46315Y-16917D02*
D03*
X45215D02*
D03*
X44115D02*
D03*
X43015D02*
D03*
X41915D02*
D03*
X40815D02*
D03*
X39715D02*
D03*
X38615D02*
D03*
X37515D02*
D03*
X36415D02*
D03*
X35315D02*
D03*
X34215D02*
D03*
X33115D02*
D03*
X32015D02*
D03*
X30915D02*
D03*
X29815D02*
D03*
X28715D02*
D03*
X27615D02*
D03*
X26515D02*
D03*
X25415D02*
D03*
X24315D02*
D03*
X23215D02*
D03*
X22115D02*
D03*
X21015D02*
D03*
X19915D02*
D03*
X18815D02*
D03*
X17715D02*
D03*
X16615D02*
D03*
X15515D02*
D03*
X14415D02*
D03*
X13315D02*
D03*
X12215D02*
D03*
X11115D02*
D03*
X10015D02*
D03*
X8915D02*
D03*
X7815D02*
D03*
X6715D02*
D03*
X5615D02*
D03*
X4515D02*
D03*
X3415D02*
D03*
X2315D02*
D03*
X1215D02*
D03*
X115D02*
D03*
X-985D02*
D03*
X-2085D02*
D03*
X-3185D02*
D03*
X-4285D02*
D03*
X-5385D02*
D03*
X-6485D02*
D03*
X-7585D02*
D03*
X-9785D02*
D03*
X-8685D02*
D03*
X25328Y1874D02*
D03*
X29769Y4259D02*
D03*
X24579Y2628D02*
D03*
X34041Y9737D02*
D03*
X32670Y9531D02*
D03*
X22349Y-5934D02*
D03*
X25441Y-2788D02*
D03*
X17028Y10201D02*
D03*
X23312Y-5533D02*
D03*
X23744Y-4559D02*
D03*
X30515Y-8285D02*
D03*
X36227Y-8220D02*
D03*
X20578Y-4985D02*
D03*
X27593Y2397D02*
D03*
X25359Y3901D02*
D03*
X30008Y1405D02*
D03*
X27650Y-5210D02*
D03*
X28250Y-6406D02*
D03*
X23711Y100D02*
D03*
X30788Y-6550D02*
D03*
X18275Y-4925D02*
D03*
X18500Y-2250D02*
D03*
X19700Y-4300D02*
D03*
D94*
X26449Y-7668D02*
D03*
X28354Y-7668D02*
D03*
D95*
X19900Y-2250D02*
D03*
X21400D02*
D03*
M02*
