G04*
G04 #@! TF.GenerationSoftware,Altium Limited,Altium Designer,22.1.2 (22)*
G04*
G04 Layer_Color=8388736*
%FSLAX43Y43*%
%MOMM*%
G71*
G04*
G04 #@! TF.SameCoordinates,549D327D-CD9E-48CF-806C-D238132880F2*
G04*
G04*
G04 #@! TF.FilePolarity,Negative*
G04*
G01*
G75*
%ADD15C,0.300*%
%ADD16C,0.254*%
%ADD17C,0.152*%
%ADD18C,1.500*%
%ADD19C,0.320*%
%ADD20R,0.430X0.500*%
%ADD21R,0.850X0.732*%
%ADD22R,0.300X0.300*%
%ADD23R,5.000X1.700*%
%ADD24R,3.100X1.600*%
%ADD25R,0.700X0.850*%
%ADD26R,0.400X0.400*%
%ADD27R,0.875X1.150*%
%ADD28R,0.800X0.610*%
%ADD29R,1.400X1.150*%
%ADD30R,1.000X0.750*%
%ADD31R,0.575X0.450*%
%ADD32R,0.700X0.900*%
%ADD33R,0.850X0.700*%
%ADD34R,0.660X0.610*%
%ADD35C,0.350*%
%ADD36R,0.400X0.400*%
%ADD37R,1.150X0.875*%
%ADD38C,1.950*%
G04:AMPARAMS|DCode=39|XSize=1.95mm|YSize=1.95mm|CornerRadius=0.525mm|HoleSize=0mm|Usage=FLASHONLY|Rotation=180.000|XOffset=0mm|YOffset=0mm|HoleType=Round|Shape=RoundedRectangle|*
%AMROUNDEDRECTD39*
21,1,1.950,0.900,0,0,180.0*
21,1,0.900,1.950,0,0,180.0*
1,1,1.050,-0.450,0.450*
1,1,1.050,0.450,0.450*
1,1,1.050,0.450,-0.450*
1,1,1.050,-0.450,-0.450*
%
%ADD39ROUNDEDRECTD39*%
%ADD40C,0.100*%
%ADD41C,0.250*%
G36*
X27800Y-4200D02*
Y-3300D01*
X28300D01*
Y-2700D01*
X27800D01*
Y-1800D01*
X28300D01*
Y-1200D01*
X27800D01*
Y200D01*
X28700D01*
Y-300D01*
X29300D01*
Y200D01*
X30200D01*
Y-300D01*
X30800D01*
Y200D01*
X32200D01*
Y-700D01*
X31700D01*
Y-1300D01*
X32200D01*
Y-2200D01*
X31700D01*
Y-2800D01*
X32200D01*
Y-4200D01*
X31300D01*
Y-3700D01*
X30700D01*
Y-4200D01*
X29800D01*
Y-3700D01*
X29200D01*
Y-4200D01*
X27800D01*
D02*
G37*
G36*
X45603Y-35597D02*
X45624D01*
X45674Y-35603D01*
X45732Y-35611D01*
X45797Y-35623D01*
X45861Y-35641D01*
X45923Y-35664D01*
X45926D01*
X45929Y-35667D01*
X45937Y-35670D01*
X45949Y-35676D01*
X45978Y-35693D01*
X46016Y-35714D01*
X46057Y-35743D01*
X46098Y-35778D01*
X46139Y-35819D01*
X46175Y-35866D01*
X46177Y-35872D01*
X46189Y-35890D01*
X46204Y-35919D01*
X46218Y-35954D01*
X46236Y-35998D01*
X46254Y-36051D01*
X46265Y-36106D01*
X46271Y-36168D01*
X46028Y-36185D01*
Y-36183D01*
Y-36177D01*
X46025Y-36168D01*
X46022Y-36156D01*
X46016Y-36124D01*
X46005Y-36083D01*
X45987Y-36039D01*
X45964Y-35995D01*
X45931Y-35951D01*
X45893Y-35913D01*
X45888Y-35910D01*
X45873Y-35898D01*
X45847Y-35884D01*
X45811Y-35866D01*
X45764Y-35849D01*
X45706Y-35834D01*
X45639Y-35822D01*
X45559Y-35819D01*
X45521D01*
X45504Y-35822D01*
X45480D01*
X45431Y-35831D01*
X45375Y-35840D01*
X45319Y-35855D01*
X45267Y-35875D01*
X45243Y-35890D01*
X45223Y-35904D01*
X45220Y-35907D01*
X45208Y-35919D01*
X45190Y-35937D01*
X45173Y-35963D01*
X45152Y-35992D01*
X45138Y-36027D01*
X45126Y-36065D01*
X45120Y-36109D01*
Y-36115D01*
Y-36127D01*
X45123Y-36147D01*
X45129Y-36171D01*
X45138Y-36197D01*
X45152Y-36226D01*
X45170Y-36253D01*
X45193Y-36279D01*
X45196Y-36282D01*
X45211Y-36291D01*
X45220Y-36297D01*
X45231Y-36306D01*
X45249Y-36311D01*
X45270Y-36320D01*
X45293Y-36332D01*
X45319Y-36344D01*
X45349Y-36352D01*
X45384Y-36364D01*
X45425Y-36379D01*
X45469Y-36390D01*
X45518Y-36402D01*
X45574Y-36417D01*
X45577D01*
X45589Y-36420D01*
X45603Y-36423D01*
X45624Y-36429D01*
X45650Y-36434D01*
X45680Y-36443D01*
X45744Y-36458D01*
X45814Y-36478D01*
X45885Y-36499D01*
X45920Y-36508D01*
X45949Y-36519D01*
X45978Y-36531D01*
X46002Y-36540D01*
X46005D01*
X46011Y-36543D01*
X46016Y-36549D01*
X46028Y-36554D01*
X46057Y-36572D01*
X46095Y-36593D01*
X46136Y-36622D01*
X46177Y-36657D01*
X46216Y-36695D01*
X46248Y-36736D01*
X46251Y-36742D01*
X46259Y-36757D01*
X46274Y-36780D01*
X46289Y-36815D01*
X46303Y-36853D01*
X46318Y-36900D01*
X46327Y-36953D01*
X46330Y-37008D01*
Y-37011D01*
Y-37014D01*
Y-37023D01*
Y-37035D01*
X46324Y-37064D01*
X46318Y-37102D01*
X46309Y-37146D01*
X46292Y-37196D01*
X46271Y-37249D01*
X46242Y-37298D01*
X46239Y-37304D01*
X46224Y-37322D01*
X46207Y-37345D01*
X46177Y-37374D01*
X46142Y-37410D01*
X46098Y-37445D01*
X46046Y-37477D01*
X45987Y-37509D01*
X45984D01*
X45978Y-37512D01*
X45970Y-37515D01*
X45958Y-37521D01*
X45943Y-37527D01*
X45926Y-37533D01*
X45879Y-37544D01*
X45826Y-37559D01*
X45762Y-37571D01*
X45694Y-37579D01*
X45618Y-37582D01*
X45574D01*
X45554Y-37579D01*
X45527D01*
X45498Y-37577D01*
X45466Y-37574D01*
X45398Y-37565D01*
X45325Y-37550D01*
X45252Y-37533D01*
X45182Y-37509D01*
X45179D01*
X45173Y-37506D01*
X45164Y-37500D01*
X45152Y-37495D01*
X45120Y-37477D01*
X45082Y-37451D01*
X45035Y-37418D01*
X44991Y-37380D01*
X44944Y-37333D01*
X44903Y-37281D01*
Y-37278D01*
X44901Y-37275D01*
X44895Y-37266D01*
X44889Y-37254D01*
X44880Y-37240D01*
X44871Y-37222D01*
X44854Y-37178D01*
X44836Y-37128D01*
X44819Y-37067D01*
X44807Y-37003D01*
X44801Y-36932D01*
X45041Y-36912D01*
Y-36915D01*
Y-36918D01*
X45044Y-36935D01*
X45050Y-36962D01*
X45056Y-36997D01*
X45067Y-37035D01*
X45079Y-37076D01*
X45097Y-37114D01*
X45117Y-37152D01*
X45120Y-37155D01*
X45129Y-37167D01*
X45144Y-37184D01*
X45167Y-37205D01*
X45193Y-37228D01*
X45226Y-37254D01*
X45267Y-37278D01*
X45311Y-37301D01*
X45313D01*
X45316Y-37304D01*
X45334Y-37310D01*
X45360Y-37319D01*
X45398Y-37328D01*
X45439Y-37339D01*
X45492Y-37348D01*
X45548Y-37354D01*
X45606Y-37357D01*
X45630D01*
X45659Y-37354D01*
X45691Y-37351D01*
X45732Y-37348D01*
X45773Y-37339D01*
X45817Y-37331D01*
X45861Y-37316D01*
X45867Y-37313D01*
X45879Y-37307D01*
X45899Y-37298D01*
X45923Y-37284D01*
X45952Y-37266D01*
X45978Y-37246D01*
X46005Y-37222D01*
X46028Y-37196D01*
X46031Y-37193D01*
X46037Y-37181D01*
X46046Y-37167D01*
X46057Y-37146D01*
X46066Y-37123D01*
X46075Y-37093D01*
X46081Y-37064D01*
X46084Y-37032D01*
Y-37029D01*
Y-37017D01*
X46081Y-37000D01*
X46078Y-36979D01*
X46072Y-36953D01*
X46060Y-36926D01*
X46049Y-36900D01*
X46031Y-36874D01*
X46028Y-36871D01*
X46022Y-36862D01*
X46008Y-36850D01*
X45990Y-36833D01*
X45967Y-36815D01*
X45937Y-36798D01*
X45899Y-36777D01*
X45858Y-36759D01*
X45855Y-36757D01*
X45844Y-36754D01*
X45820Y-36748D01*
X45806Y-36742D01*
X45788Y-36736D01*
X45764Y-36730D01*
X45741Y-36724D01*
X45712Y-36716D01*
X45682Y-36707D01*
X45647Y-36698D01*
X45606Y-36689D01*
X45562Y-36677D01*
X45516Y-36666D01*
X45513D01*
X45504Y-36663D01*
X45489Y-36660D01*
X45472Y-36654D01*
X45451Y-36648D01*
X45428Y-36642D01*
X45372Y-36628D01*
X45311Y-36607D01*
X45249Y-36587D01*
X45193Y-36566D01*
X45167Y-36557D01*
X45147Y-36546D01*
X45144D01*
X45141Y-36543D01*
X45123Y-36531D01*
X45100Y-36516D01*
X45070Y-36496D01*
X45035Y-36470D01*
X45003Y-36440D01*
X44971Y-36405D01*
X44942Y-36367D01*
X44939Y-36361D01*
X44930Y-36347D01*
X44921Y-36326D01*
X44909Y-36297D01*
X44895Y-36262D01*
X44886Y-36221D01*
X44877Y-36174D01*
X44874Y-36127D01*
Y-36124D01*
Y-36121D01*
Y-36112D01*
Y-36101D01*
X44880Y-36074D01*
X44886Y-36039D01*
X44895Y-35995D01*
X44909Y-35951D01*
X44930Y-35901D01*
X44956Y-35855D01*
Y-35852D01*
X44959Y-35849D01*
X44971Y-35834D01*
X44991Y-35811D01*
X45018Y-35781D01*
X45050Y-35752D01*
X45091Y-35720D01*
X45141Y-35688D01*
X45196Y-35661D01*
X45199D01*
X45202Y-35658D01*
X45211Y-35655D01*
X45226Y-35650D01*
X45240Y-35647D01*
X45258Y-35641D01*
X45299Y-35626D01*
X45352Y-35614D01*
X45410Y-35606D01*
X45477Y-35597D01*
X45548Y-35594D01*
X45583D01*
X45603Y-35597D01*
D02*
G37*
G36*
X42107D02*
X42130D01*
X42180Y-35603D01*
X42236Y-35611D01*
X42300Y-35623D01*
X42364Y-35641D01*
X42429Y-35664D01*
X42432D01*
X42438Y-35667D01*
X42446Y-35670D01*
X42458Y-35676D01*
X42487Y-35691D01*
X42525Y-35714D01*
X42569Y-35740D01*
X42613Y-35773D01*
X42657Y-35808D01*
X42695Y-35852D01*
X42698Y-35857D01*
X42710Y-35872D01*
X42728Y-35898D01*
X42751Y-35937D01*
X42774Y-35980D01*
X42798Y-36033D01*
X42821Y-36095D01*
X42842Y-36165D01*
X42610Y-36229D01*
Y-36226D01*
X42607Y-36224D01*
X42605Y-36206D01*
X42593Y-36180D01*
X42581Y-36144D01*
X42566Y-36109D01*
X42549Y-36071D01*
X42528Y-36033D01*
X42505Y-35998D01*
X42502Y-35995D01*
X42493Y-35983D01*
X42479Y-35969D01*
X42458Y-35948D01*
X42432Y-35928D01*
X42400Y-35904D01*
X42364Y-35884D01*
X42320Y-35863D01*
X42315Y-35860D01*
X42300Y-35855D01*
X42274Y-35846D01*
X42241Y-35837D01*
X42203Y-35828D01*
X42159Y-35819D01*
X42110Y-35814D01*
X42057Y-35811D01*
X42028D01*
X41995Y-35814D01*
X41954Y-35816D01*
X41908Y-35825D01*
X41855Y-35834D01*
X41805Y-35849D01*
X41755Y-35866D01*
X41749Y-35869D01*
X41735Y-35875D01*
X41711Y-35887D01*
X41682Y-35904D01*
X41650Y-35925D01*
X41615Y-35948D01*
X41582Y-35975D01*
X41550Y-36007D01*
X41547Y-36010D01*
X41539Y-36021D01*
X41524Y-36039D01*
X41506Y-36062D01*
X41486Y-36092D01*
X41465Y-36124D01*
X41448Y-36159D01*
X41430Y-36197D01*
Y-36200D01*
X41427Y-36206D01*
X41424Y-36215D01*
X41418Y-36229D01*
X41413Y-36244D01*
X41407Y-36265D01*
X41395Y-36311D01*
X41380Y-36370D01*
X41369Y-36434D01*
X41360Y-36508D01*
X41357Y-36584D01*
Y-36587D01*
Y-36595D01*
Y-36607D01*
X41360Y-36628D01*
Y-36648D01*
X41363Y-36675D01*
X41366Y-36704D01*
X41369Y-36733D01*
X41377Y-36803D01*
X41395Y-36877D01*
X41416Y-36947D01*
X41445Y-37017D01*
Y-37020D01*
X41448Y-37026D01*
X41454Y-37035D01*
X41462Y-37046D01*
X41483Y-37076D01*
X41509Y-37114D01*
X41544Y-37155D01*
X41588Y-37199D01*
X41641Y-37240D01*
X41700Y-37275D01*
X41702D01*
X41708Y-37278D01*
X41717Y-37284D01*
X41729Y-37287D01*
X41743Y-37292D01*
X41764Y-37301D01*
X41808Y-37316D01*
X41864Y-37331D01*
X41922Y-37345D01*
X41990Y-37354D01*
X42060Y-37357D01*
X42089D01*
X42121Y-37354D01*
X42162Y-37348D01*
X42209Y-37342D01*
X42265Y-37331D01*
X42323Y-37316D01*
X42382Y-37295D01*
X42385D01*
X42388Y-37292D01*
X42397Y-37290D01*
X42408Y-37284D01*
X42438Y-37272D01*
X42473Y-37254D01*
X42511Y-37234D01*
X42549Y-37210D01*
X42587Y-37184D01*
X42622Y-37158D01*
Y-36795D01*
X42057D01*
Y-36569D01*
X42871D01*
Y-37284D01*
X42868Y-37287D01*
X42862Y-37290D01*
X42853Y-37298D01*
X42839Y-37307D01*
X42821Y-37322D01*
X42801Y-37333D01*
X42751Y-37369D01*
X42692Y-37404D01*
X42628Y-37442D01*
X42555Y-37477D01*
X42482Y-37509D01*
X42479D01*
X42473Y-37512D01*
X42461Y-37515D01*
X42446Y-37521D01*
X42429Y-37527D01*
X42408Y-37533D01*
X42382Y-37538D01*
X42356Y-37544D01*
X42294Y-37559D01*
X42227Y-37571D01*
X42151Y-37579D01*
X42074Y-37582D01*
X42048D01*
X42028Y-37579D01*
X42001D01*
X41972Y-37577D01*
X41940Y-37574D01*
X41905Y-37568D01*
X41823Y-37553D01*
X41738Y-37533D01*
X41647Y-37503D01*
X41559Y-37462D01*
X41556Y-37459D01*
X41550Y-37456D01*
X41536Y-37451D01*
X41521Y-37439D01*
X41500Y-37427D01*
X41480Y-37413D01*
X41430Y-37374D01*
X41372Y-37325D01*
X41316Y-37263D01*
X41260Y-37193D01*
X41210Y-37114D01*
Y-37111D01*
X41205Y-37102D01*
X41199Y-37090D01*
X41193Y-37073D01*
X41184Y-37052D01*
X41172Y-37026D01*
X41164Y-36997D01*
X41152Y-36962D01*
X41140Y-36926D01*
X41131Y-36885D01*
X41111Y-36798D01*
X41099Y-36701D01*
X41093Y-36598D01*
Y-36595D01*
Y-36587D01*
Y-36572D01*
X41096Y-36552D01*
Y-36525D01*
X41099Y-36496D01*
X41102Y-36464D01*
X41108Y-36429D01*
X41123Y-36347D01*
X41143Y-36259D01*
X41172Y-36165D01*
X41210Y-36074D01*
Y-36071D01*
X41216Y-36062D01*
X41222Y-36051D01*
X41231Y-36033D01*
X41246Y-36013D01*
X41260Y-35992D01*
X41295Y-35937D01*
X41345Y-35878D01*
X41401Y-35819D01*
X41471Y-35764D01*
X41506Y-35737D01*
X41547Y-35714D01*
X41550D01*
X41556Y-35708D01*
X41571Y-35702D01*
X41585Y-35696D01*
X41606Y-35685D01*
X41632Y-35676D01*
X41661Y-35664D01*
X41694Y-35652D01*
X41729Y-35644D01*
X41767Y-35632D01*
X41855Y-35611D01*
X41949Y-35600D01*
X42054Y-35594D01*
X42089D01*
X42107Y-35597D01*
D02*
G37*
G36*
X44622Y-35852D02*
X43990D01*
Y-37550D01*
X43735D01*
Y-35852D01*
X43102D01*
Y-35626D01*
X44622D01*
Y-35852D01*
D02*
G37*
G36*
X40716Y-37550D02*
X40446D01*
Y-37281D01*
X40716D01*
Y-37550D01*
D02*
G37*
G36*
X4986Y-35597D02*
X5007D01*
X5057Y-35603D01*
X5115Y-35611D01*
X5180Y-35623D01*
X5244Y-35641D01*
X5306Y-35664D01*
X5309D01*
X5311Y-35667D01*
X5320Y-35670D01*
X5332Y-35676D01*
X5361Y-35693D01*
X5399Y-35714D01*
X5440Y-35743D01*
X5481Y-35778D01*
X5522Y-35819D01*
X5557Y-35866D01*
X5560Y-35872D01*
X5572Y-35890D01*
X5587Y-35919D01*
X5601Y-35954D01*
X5619Y-35998D01*
X5637Y-36051D01*
X5648Y-36106D01*
X5654Y-36168D01*
X5411Y-36185D01*
Y-36183D01*
Y-36177D01*
X5408Y-36168D01*
X5405Y-36156D01*
X5399Y-36124D01*
X5388Y-36083D01*
X5370Y-36039D01*
X5347Y-35995D01*
X5314Y-35951D01*
X5276Y-35913D01*
X5270Y-35910D01*
X5256Y-35898D01*
X5229Y-35884D01*
X5194Y-35866D01*
X5147Y-35849D01*
X5089Y-35834D01*
X5022Y-35822D01*
X4942Y-35819D01*
X4904D01*
X4887Y-35822D01*
X4863D01*
X4814Y-35831D01*
X4758Y-35840D01*
X4702Y-35855D01*
X4650Y-35875D01*
X4626Y-35890D01*
X4606Y-35904D01*
X4603Y-35907D01*
X4591Y-35919D01*
X4573Y-35937D01*
X4556Y-35963D01*
X4535Y-35992D01*
X4521Y-36027D01*
X4509Y-36065D01*
X4503Y-36109D01*
Y-36115D01*
Y-36127D01*
X4506Y-36147D01*
X4512Y-36171D01*
X4521Y-36197D01*
X4535Y-36226D01*
X4553Y-36253D01*
X4576Y-36279D01*
X4579Y-36282D01*
X4594Y-36291D01*
X4603Y-36297D01*
X4614Y-36306D01*
X4632Y-36311D01*
X4653Y-36320D01*
X4676Y-36332D01*
X4702Y-36344D01*
X4732Y-36352D01*
X4767Y-36364D01*
X4808Y-36379D01*
X4852Y-36390D01*
X4901Y-36402D01*
X4957Y-36417D01*
X4960D01*
X4972Y-36420D01*
X4986Y-36423D01*
X5007Y-36429D01*
X5033Y-36434D01*
X5063Y-36443D01*
X5127Y-36458D01*
X5197Y-36478D01*
X5268Y-36499D01*
X5303Y-36508D01*
X5332Y-36519D01*
X5361Y-36531D01*
X5385Y-36540D01*
X5388D01*
X5393Y-36543D01*
X5399Y-36549D01*
X5411Y-36554D01*
X5440Y-36572D01*
X5478Y-36593D01*
X5519Y-36622D01*
X5560Y-36657D01*
X5598Y-36695D01*
X5631Y-36736D01*
X5634Y-36742D01*
X5642Y-36757D01*
X5657Y-36780D01*
X5672Y-36815D01*
X5686Y-36853D01*
X5701Y-36900D01*
X5710Y-36953D01*
X5713Y-37008D01*
Y-37011D01*
Y-37014D01*
Y-37023D01*
Y-37035D01*
X5707Y-37064D01*
X5701Y-37102D01*
X5692Y-37146D01*
X5675Y-37196D01*
X5654Y-37249D01*
X5625Y-37298D01*
X5622Y-37304D01*
X5607Y-37322D01*
X5590Y-37345D01*
X5560Y-37374D01*
X5525Y-37410D01*
X5481Y-37445D01*
X5429Y-37477D01*
X5370Y-37509D01*
X5367D01*
X5361Y-37512D01*
X5352Y-37515D01*
X5341Y-37521D01*
X5326Y-37527D01*
X5309Y-37533D01*
X5262Y-37544D01*
X5209Y-37559D01*
X5145Y-37571D01*
X5077Y-37579D01*
X5001Y-37582D01*
X4957D01*
X4937Y-37579D01*
X4910D01*
X4881Y-37577D01*
X4849Y-37574D01*
X4781Y-37565D01*
X4708Y-37550D01*
X4635Y-37533D01*
X4565Y-37509D01*
X4562D01*
X4556Y-37506D01*
X4547Y-37500D01*
X4535Y-37495D01*
X4503Y-37477D01*
X4465Y-37451D01*
X4418Y-37418D01*
X4374Y-37380D01*
X4327Y-37333D01*
X4286Y-37281D01*
Y-37278D01*
X4284Y-37275D01*
X4278Y-37266D01*
X4272Y-37254D01*
X4263Y-37240D01*
X4254Y-37222D01*
X4237Y-37178D01*
X4219Y-37128D01*
X4202Y-37067D01*
X4190Y-37003D01*
X4184Y-36932D01*
X4424Y-36912D01*
Y-36915D01*
Y-36918D01*
X4427Y-36935D01*
X4433Y-36962D01*
X4439Y-36997D01*
X4450Y-37035D01*
X4462Y-37076D01*
X4480Y-37114D01*
X4500Y-37152D01*
X4503Y-37155D01*
X4512Y-37167D01*
X4527Y-37184D01*
X4550Y-37205D01*
X4576Y-37228D01*
X4609Y-37254D01*
X4650Y-37278D01*
X4694Y-37301D01*
X4696D01*
X4699Y-37304D01*
X4717Y-37310D01*
X4743Y-37319D01*
X4781Y-37328D01*
X4822Y-37339D01*
X4875Y-37348D01*
X4931Y-37354D01*
X4989Y-37357D01*
X5013D01*
X5042Y-37354D01*
X5074Y-37351D01*
X5115Y-37348D01*
X5156Y-37339D01*
X5200Y-37331D01*
X5244Y-37316D01*
X5250Y-37313D01*
X5262Y-37307D01*
X5282Y-37298D01*
X5306Y-37284D01*
X5335Y-37266D01*
X5361Y-37246D01*
X5388Y-37222D01*
X5411Y-37196D01*
X5414Y-37193D01*
X5420Y-37181D01*
X5429Y-37167D01*
X5440Y-37146D01*
X5449Y-37123D01*
X5458Y-37093D01*
X5464Y-37064D01*
X5467Y-37032D01*
Y-37029D01*
Y-37017D01*
X5464Y-37000D01*
X5461Y-36979D01*
X5455Y-36953D01*
X5443Y-36926D01*
X5432Y-36900D01*
X5414Y-36874D01*
X5411Y-36871D01*
X5405Y-36862D01*
X5391Y-36850D01*
X5373Y-36833D01*
X5350Y-36815D01*
X5320Y-36798D01*
X5282Y-36777D01*
X5241Y-36759D01*
X5238Y-36757D01*
X5227Y-36754D01*
X5203Y-36748D01*
X5188Y-36742D01*
X5171Y-36736D01*
X5147Y-36730D01*
X5124Y-36724D01*
X5095Y-36716D01*
X5065Y-36707D01*
X5030Y-36698D01*
X4989Y-36689D01*
X4945Y-36677D01*
X4899Y-36666D01*
X4896D01*
X4887Y-36663D01*
X4872Y-36660D01*
X4855Y-36654D01*
X4834Y-36648D01*
X4811Y-36642D01*
X4755Y-36628D01*
X4694Y-36607D01*
X4632Y-36587D01*
X4576Y-36566D01*
X4550Y-36557D01*
X4530Y-36546D01*
X4527D01*
X4524Y-36543D01*
X4506Y-36531D01*
X4483Y-36516D01*
X4453Y-36496D01*
X4418Y-36470D01*
X4386Y-36440D01*
X4354Y-36405D01*
X4325Y-36367D01*
X4322Y-36361D01*
X4313Y-36347D01*
X4304Y-36326D01*
X4292Y-36297D01*
X4278Y-36262D01*
X4269Y-36221D01*
X4260Y-36174D01*
X4257Y-36127D01*
Y-36124D01*
Y-36121D01*
Y-36112D01*
Y-36101D01*
X4263Y-36074D01*
X4269Y-36039D01*
X4278Y-35995D01*
X4292Y-35951D01*
X4313Y-35901D01*
X4339Y-35855D01*
Y-35852D01*
X4342Y-35849D01*
X4354Y-35834D01*
X4374Y-35811D01*
X4401Y-35781D01*
X4433Y-35752D01*
X4474Y-35720D01*
X4524Y-35688D01*
X4579Y-35661D01*
X4582D01*
X4585Y-35658D01*
X4594Y-35655D01*
X4609Y-35650D01*
X4623Y-35647D01*
X4641Y-35641D01*
X4682Y-35626D01*
X4735Y-35614D01*
X4793Y-35606D01*
X4860Y-35597D01*
X4931Y-35594D01*
X4966D01*
X4986Y-35597D01*
D02*
G37*
G36*
X9242Y-37550D02*
X9022D01*
Y-37377D01*
X9019Y-37380D01*
X9016Y-37386D01*
X9007Y-37395D01*
X8996Y-37410D01*
X8984Y-37424D01*
X8966Y-37442D01*
X8946Y-37459D01*
X8922Y-37480D01*
X8896Y-37497D01*
X8867Y-37518D01*
X8835Y-37536D01*
X8802Y-37550D01*
X8764Y-37565D01*
X8723Y-37574D01*
X8679Y-37579D01*
X8633Y-37582D01*
X8615D01*
X8603Y-37579D01*
X8571Y-37577D01*
X8533Y-37571D01*
X8483Y-37559D01*
X8433Y-37544D01*
X8378Y-37521D01*
X8325Y-37492D01*
X8322D01*
X8319Y-37489D01*
X8302Y-37474D01*
X8278Y-37454D01*
X8246Y-37424D01*
X8214Y-37389D01*
X8176Y-37345D01*
X8143Y-37295D01*
X8111Y-37237D01*
Y-37234D01*
X8108Y-37228D01*
X8105Y-37219D01*
X8099Y-37208D01*
X8094Y-37193D01*
X8088Y-37172D01*
X8073Y-37126D01*
X8059Y-37070D01*
X8047Y-37005D01*
X8038Y-36935D01*
X8035Y-36856D01*
Y-36853D01*
Y-36847D01*
Y-36836D01*
Y-36821D01*
X8038Y-36803D01*
Y-36780D01*
X8044Y-36730D01*
X8053Y-36672D01*
X8064Y-36610D01*
X8079Y-36543D01*
X8102Y-36478D01*
Y-36475D01*
X8105Y-36470D01*
X8111Y-36461D01*
X8117Y-36449D01*
X8132Y-36420D01*
X8155Y-36382D01*
X8184Y-36338D01*
X8220Y-36294D01*
X8261Y-36253D01*
X8310Y-36215D01*
X8313D01*
X8316Y-36212D01*
X8334Y-36200D01*
X8363Y-36185D01*
X8401Y-36168D01*
X8448Y-36153D01*
X8501Y-36139D01*
X8559Y-36127D01*
X8621Y-36124D01*
X8641D01*
X8665Y-36127D01*
X8697Y-36130D01*
X8729Y-36139D01*
X8767Y-36147D01*
X8805Y-36162D01*
X8843Y-36180D01*
X8849Y-36183D01*
X8861Y-36188D01*
X8879Y-36200D01*
X8902Y-36218D01*
X8925Y-36235D01*
X8955Y-36259D01*
X8981Y-36288D01*
X9004Y-36317D01*
Y-35626D01*
X9242D01*
Y-37550D01*
D02*
G37*
G36*
X2679Y-36130D02*
X2720Y-36136D01*
X2769Y-36147D01*
X2822Y-36162D01*
X2875Y-36185D01*
X2928Y-36218D01*
X2930D01*
X2933Y-36221D01*
X2951Y-36235D01*
X2974Y-36256D01*
X3007Y-36285D01*
X3039Y-36320D01*
X3074Y-36367D01*
X3106Y-36417D01*
X3135Y-36478D01*
Y-36481D01*
X3138Y-36487D01*
X3141Y-36496D01*
X3147Y-36508D01*
X3153Y-36522D01*
X3159Y-36543D01*
X3171Y-36587D01*
X3182Y-36642D01*
X3194Y-36704D01*
X3203Y-36771D01*
X3206Y-36844D01*
Y-36847D01*
Y-36853D01*
Y-36865D01*
Y-36880D01*
X3203Y-36900D01*
Y-36921D01*
X3197Y-36973D01*
X3185Y-37032D01*
X3174Y-37096D01*
X3153Y-37164D01*
X3127Y-37231D01*
Y-37234D01*
X3124Y-37240D01*
X3118Y-37249D01*
X3112Y-37260D01*
X3094Y-37290D01*
X3071Y-37328D01*
X3039Y-37369D01*
X3001Y-37413D01*
X2957Y-37454D01*
X2904Y-37492D01*
X2901D01*
X2898Y-37495D01*
X2889Y-37500D01*
X2878Y-37506D01*
X2848Y-37521D01*
X2810Y-37536D01*
X2764Y-37553D01*
X2714Y-37568D01*
X2655Y-37579D01*
X2597Y-37582D01*
X2576D01*
X2556Y-37579D01*
X2526Y-37577D01*
X2494Y-37571D01*
X2459Y-37562D01*
X2421Y-37550D01*
X2386Y-37536D01*
X2383Y-37533D01*
X2371Y-37527D01*
X2354Y-37515D01*
X2333Y-37500D01*
X2307Y-37483D01*
X2283Y-37462D01*
X2257Y-37436D01*
X2233Y-37410D01*
Y-38083D01*
X1996D01*
Y-36156D01*
X2213D01*
Y-36338D01*
X2216Y-36332D01*
X2225Y-36320D01*
X2242Y-36303D01*
X2263Y-36279D01*
X2286Y-36253D01*
X2315Y-36226D01*
X2348Y-36200D01*
X2383Y-36180D01*
X2389Y-36177D01*
X2400Y-36171D01*
X2421Y-36162D01*
X2447Y-36150D01*
X2482Y-36142D01*
X2520Y-36133D01*
X2564Y-36127D01*
X2614Y-36124D01*
X2643D01*
X2679Y-36130D01*
D02*
G37*
G36*
X11664Y-36127D02*
X11696Y-36133D01*
X11731Y-36144D01*
X11772Y-36156D01*
X11816Y-36177D01*
X11863Y-36203D01*
X11778Y-36420D01*
X11775Y-36417D01*
X11763Y-36411D01*
X11746Y-36402D01*
X11725Y-36393D01*
X11699Y-36385D01*
X11669Y-36376D01*
X11637Y-36370D01*
X11605Y-36367D01*
X11593D01*
X11579Y-36370D01*
X11558Y-36373D01*
X11538Y-36379D01*
X11514Y-36388D01*
X11491Y-36399D01*
X11467Y-36414D01*
X11464Y-36417D01*
X11459Y-36423D01*
X11447Y-36434D01*
X11435Y-36449D01*
X11421Y-36467D01*
X11406Y-36490D01*
X11394Y-36516D01*
X11382Y-36546D01*
X11380Y-36552D01*
X11377Y-36566D01*
X11371Y-36593D01*
X11365Y-36628D01*
X11356Y-36669D01*
X11350Y-36716D01*
X11347Y-36765D01*
X11344Y-36821D01*
Y-37550D01*
X11107D01*
Y-36156D01*
X11321D01*
Y-36364D01*
X11324Y-36361D01*
X11336Y-36344D01*
X11350Y-36317D01*
X11368Y-36288D01*
X11391Y-36256D01*
X11418Y-36224D01*
X11441Y-36194D01*
X11467Y-36174D01*
X11470Y-36171D01*
X11479Y-36165D01*
X11494Y-36159D01*
X11514Y-36147D01*
X11535Y-36139D01*
X11561Y-36133D01*
X11590Y-36127D01*
X11620Y-36124D01*
X11640D01*
X11664Y-36127D01*
D02*
G37*
G36*
X7757Y-37550D02*
X7520D01*
Y-35626D01*
X7757D01*
Y-37550D01*
D02*
G37*
G36*
X271Y-35852D02*
X-361D01*
Y-37550D01*
X-616D01*
Y-35852D01*
X-1249D01*
Y-35626D01*
X271D01*
Y-35852D01*
D02*
G37*
G36*
X10232Y-36127D02*
X10255Y-36130D01*
X10284Y-36133D01*
X10314Y-36139D01*
X10349Y-36147D01*
X10419Y-36171D01*
X10457Y-36185D01*
X10495Y-36206D01*
X10533Y-36226D01*
X10571Y-36253D01*
X10606Y-36282D01*
X10642Y-36317D01*
X10644Y-36320D01*
X10650Y-36326D01*
X10659Y-36338D01*
X10671Y-36352D01*
X10683Y-36373D01*
X10697Y-36396D01*
X10715Y-36423D01*
X10732Y-36455D01*
X10747Y-36493D01*
X10765Y-36531D01*
X10779Y-36575D01*
X10794Y-36625D01*
X10803Y-36675D01*
X10811Y-36730D01*
X10817Y-36789D01*
X10820Y-36853D01*
Y-36856D01*
Y-36868D01*
Y-36888D01*
X10817Y-36915D01*
X9781D01*
Y-36918D01*
Y-36923D01*
X9783Y-36938D01*
Y-36953D01*
X9786Y-36973D01*
X9789Y-36994D01*
X9801Y-37046D01*
X9819Y-37102D01*
X9839Y-37161D01*
X9871Y-37219D01*
X9909Y-37269D01*
X9915Y-37275D01*
X9930Y-37287D01*
X9956Y-37307D01*
X9988Y-37328D01*
X10032Y-37351D01*
X10082Y-37372D01*
X10138Y-37383D01*
X10199Y-37389D01*
X10223D01*
X10246Y-37386D01*
X10275Y-37380D01*
X10311Y-37372D01*
X10349Y-37360D01*
X10387Y-37345D01*
X10422Y-37322D01*
X10425Y-37319D01*
X10437Y-37307D01*
X10454Y-37292D01*
X10475Y-37266D01*
X10498Y-37237D01*
X10521Y-37199D01*
X10545Y-37152D01*
X10568Y-37099D01*
X10811Y-37131D01*
Y-37134D01*
X10808Y-37140D01*
X10806Y-37152D01*
X10800Y-37167D01*
X10794Y-37184D01*
X10785Y-37205D01*
X10762Y-37254D01*
X10732Y-37307D01*
X10697Y-37363D01*
X10650Y-37418D01*
X10598Y-37465D01*
X10595D01*
X10592Y-37471D01*
X10583Y-37477D01*
X10568Y-37483D01*
X10554Y-37492D01*
X10536Y-37503D01*
X10516Y-37512D01*
X10489Y-37524D01*
X10434Y-37544D01*
X10363Y-37565D01*
X10287Y-37577D01*
X10199Y-37582D01*
X10170D01*
X10150Y-37579D01*
X10123Y-37577D01*
X10094Y-37574D01*
X10062Y-37568D01*
X10024Y-37559D01*
X9947Y-37536D01*
X9906Y-37521D01*
X9868Y-37503D01*
X9827Y-37483D01*
X9789Y-37456D01*
X9751Y-37427D01*
X9716Y-37395D01*
X9713Y-37392D01*
X9707Y-37386D01*
X9699Y-37374D01*
X9690Y-37360D01*
X9675Y-37342D01*
X9660Y-37319D01*
X9643Y-37290D01*
X9628Y-37257D01*
X9611Y-37222D01*
X9593Y-37184D01*
X9578Y-37140D01*
X9567Y-37093D01*
X9555Y-37044D01*
X9546Y-36988D01*
X9540Y-36929D01*
X9537Y-36868D01*
Y-36865D01*
Y-36853D01*
Y-36833D01*
X9540Y-36809D01*
X9543Y-36780D01*
X9546Y-36745D01*
X9552Y-36707D01*
X9561Y-36666D01*
X9581Y-36578D01*
X9596Y-36534D01*
X9614Y-36487D01*
X9634Y-36443D01*
X9658Y-36399D01*
X9684Y-36358D01*
X9716Y-36320D01*
X9719Y-36317D01*
X9725Y-36311D01*
X9734Y-36303D01*
X9748Y-36288D01*
X9766Y-36273D01*
X9789Y-36259D01*
X9813Y-36241D01*
X9842Y-36221D01*
X9874Y-36203D01*
X9909Y-36185D01*
X9947Y-36171D01*
X9991Y-36153D01*
X10035Y-36142D01*
X10082Y-36133D01*
X10132Y-36127D01*
X10185Y-36124D01*
X10211D01*
X10232Y-36127D01*
D02*
G37*
G36*
X6641D02*
X6667Y-36130D01*
X6694Y-36133D01*
X6726Y-36139D01*
X6761Y-36147D01*
X6834Y-36171D01*
X6872Y-36185D01*
X6913Y-36203D01*
X6951Y-36226D01*
X6990Y-36253D01*
X7028Y-36282D01*
X7063Y-36314D01*
X7066Y-36317D01*
X7072Y-36323D01*
X7080Y-36335D01*
X7092Y-36349D01*
X7107Y-36367D01*
X7121Y-36390D01*
X7139Y-36420D01*
X7156Y-36449D01*
X7171Y-36484D01*
X7189Y-36525D01*
X7203Y-36566D01*
X7218Y-36613D01*
X7230Y-36663D01*
X7238Y-36718D01*
X7244Y-36774D01*
X7247Y-36836D01*
Y-36839D01*
Y-36847D01*
Y-36862D01*
Y-36880D01*
X7244Y-36903D01*
Y-36929D01*
X7241Y-36959D01*
X7238Y-36991D01*
X7227Y-37058D01*
X7212Y-37128D01*
X7192Y-37199D01*
X7165Y-37260D01*
Y-37263D01*
X7162Y-37266D01*
X7151Y-37287D01*
X7130Y-37313D01*
X7104Y-37348D01*
X7072Y-37386D01*
X7031Y-37424D01*
X6984Y-37462D01*
X6928Y-37497D01*
X6925D01*
X6922Y-37500D01*
X6913Y-37506D01*
X6902Y-37509D01*
X6869Y-37524D01*
X6828Y-37538D01*
X6779Y-37556D01*
X6723Y-37568D01*
X6662Y-37579D01*
X6594Y-37582D01*
X6565D01*
X6544Y-37579D01*
X6521Y-37577D01*
X6492Y-37574D01*
X6459Y-37568D01*
X6424Y-37559D01*
X6351Y-37536D01*
X6310Y-37521D01*
X6272Y-37503D01*
X6231Y-37483D01*
X6193Y-37456D01*
X6155Y-37427D01*
X6120Y-37395D01*
X6117Y-37392D01*
X6111Y-37386D01*
X6102Y-37374D01*
X6093Y-37360D01*
X6079Y-37339D01*
X6064Y-37316D01*
X6047Y-37290D01*
X6032Y-37257D01*
X6014Y-37219D01*
X5997Y-37181D01*
X5982Y-37134D01*
X5970Y-37087D01*
X5959Y-37035D01*
X5950Y-36979D01*
X5944Y-36918D01*
X5941Y-36853D01*
Y-36847D01*
Y-36836D01*
X5944Y-36815D01*
Y-36789D01*
X5947Y-36757D01*
X5953Y-36721D01*
X5959Y-36680D01*
X5967Y-36636D01*
X5979Y-36590D01*
X5994Y-36543D01*
X6011Y-36496D01*
X6032Y-36449D01*
X6055Y-36402D01*
X6085Y-36358D01*
X6117Y-36317D01*
X6155Y-36279D01*
X6158Y-36276D01*
X6164Y-36273D01*
X6172Y-36265D01*
X6187Y-36256D01*
X6205Y-36244D01*
X6225Y-36229D01*
X6249Y-36215D01*
X6278Y-36200D01*
X6307Y-36188D01*
X6339Y-36174D01*
X6416Y-36147D01*
X6500Y-36130D01*
X6547Y-36127D01*
X6594Y-36124D01*
X6621D01*
X6641Y-36127D01*
D02*
G37*
G36*
X1115D02*
X1141Y-36130D01*
X1167Y-36133D01*
X1200Y-36139D01*
X1235Y-36147D01*
X1308Y-36171D01*
X1346Y-36185D01*
X1387Y-36203D01*
X1425Y-36226D01*
X1463Y-36253D01*
X1501Y-36282D01*
X1536Y-36314D01*
X1539Y-36317D01*
X1545Y-36323D01*
X1554Y-36335D01*
X1566Y-36349D01*
X1580Y-36367D01*
X1595Y-36390D01*
X1613Y-36420D01*
X1630Y-36449D01*
X1645Y-36484D01*
X1662Y-36525D01*
X1677Y-36566D01*
X1692Y-36613D01*
X1703Y-36663D01*
X1712Y-36718D01*
X1718Y-36774D01*
X1721Y-36836D01*
Y-36839D01*
Y-36847D01*
Y-36862D01*
Y-36880D01*
X1718Y-36903D01*
Y-36929D01*
X1715Y-36959D01*
X1712Y-36991D01*
X1700Y-37058D01*
X1686Y-37128D01*
X1665Y-37199D01*
X1639Y-37260D01*
Y-37263D01*
X1636Y-37266D01*
X1624Y-37287D01*
X1604Y-37313D01*
X1577Y-37348D01*
X1545Y-37386D01*
X1504Y-37424D01*
X1457Y-37462D01*
X1402Y-37497D01*
X1399D01*
X1396Y-37500D01*
X1387Y-37506D01*
X1375Y-37509D01*
X1343Y-37524D01*
X1302Y-37538D01*
X1252Y-37556D01*
X1197Y-37568D01*
X1135Y-37579D01*
X1068Y-37582D01*
X1039D01*
X1018Y-37579D01*
X995Y-37577D01*
X965Y-37574D01*
X933Y-37568D01*
X898Y-37559D01*
X825Y-37536D01*
X784Y-37521D01*
X746Y-37503D01*
X705Y-37483D01*
X667Y-37456D01*
X629Y-37427D01*
X593Y-37395D01*
X591Y-37392D01*
X585Y-37386D01*
X576Y-37374D01*
X567Y-37360D01*
X552Y-37339D01*
X538Y-37316D01*
X520Y-37290D01*
X506Y-37257D01*
X488Y-37219D01*
X470Y-37181D01*
X456Y-37134D01*
X444Y-37087D01*
X432Y-37035D01*
X424Y-36979D01*
X418Y-36918D01*
X415Y-36853D01*
Y-36847D01*
Y-36836D01*
X418Y-36815D01*
Y-36789D01*
X421Y-36757D01*
X427Y-36721D01*
X432Y-36680D01*
X441Y-36636D01*
X453Y-36590D01*
X468Y-36543D01*
X485Y-36496D01*
X506Y-36449D01*
X529Y-36402D01*
X558Y-36358D01*
X591Y-36317D01*
X629Y-36279D01*
X632Y-36276D01*
X637Y-36273D01*
X646Y-36265D01*
X661Y-36256D01*
X678Y-36244D01*
X699Y-36229D01*
X722Y-36215D01*
X752Y-36200D01*
X781Y-36188D01*
X813Y-36174D01*
X889Y-36147D01*
X974Y-36130D01*
X1021Y-36127D01*
X1068Y-36124D01*
X1094D01*
X1115Y-36127D01*
D02*
G37*
%LPC*%
G36*
X8674Y-36320D02*
X8630D01*
X8618Y-36323D01*
X8589Y-36326D01*
X8553Y-36335D01*
X8512Y-36352D01*
X8469Y-36376D01*
X8425Y-36405D01*
X8404Y-36426D01*
X8384Y-36449D01*
X8378Y-36455D01*
X8375Y-36464D01*
X8366Y-36472D01*
X8360Y-36487D01*
X8351Y-36505D01*
X8340Y-36525D01*
X8331Y-36549D01*
X8322Y-36575D01*
X8310Y-36604D01*
X8302Y-36639D01*
X8296Y-36675D01*
X8287Y-36716D01*
X8284Y-36759D01*
X8278Y-36806D01*
Y-36856D01*
Y-36859D01*
Y-36868D01*
Y-36882D01*
X8281Y-36900D01*
Y-36923D01*
X8284Y-36947D01*
X8293Y-37008D01*
X8304Y-37073D01*
X8325Y-37140D01*
X8351Y-37202D01*
X8369Y-37231D01*
X8389Y-37257D01*
X8395Y-37263D01*
X8410Y-37278D01*
X8433Y-37298D01*
X8466Y-37322D01*
X8504Y-37348D01*
X8548Y-37369D01*
X8600Y-37383D01*
X8627Y-37386D01*
X8656Y-37389D01*
X8671D01*
X8682Y-37386D01*
X8712Y-37383D01*
X8747Y-37374D01*
X8788Y-37357D01*
X8832Y-37336D01*
X8879Y-37304D01*
X8899Y-37287D01*
X8920Y-37263D01*
Y-37260D01*
X8925Y-37257D01*
X8928Y-37249D01*
X8937Y-37240D01*
X8946Y-37225D01*
X8955Y-37210D01*
X8963Y-37190D01*
X8975Y-37167D01*
X8984Y-37143D01*
X8993Y-37114D01*
X9002Y-37082D01*
X9010Y-37046D01*
X9019Y-37008D01*
X9022Y-36967D01*
X9028Y-36923D01*
Y-36877D01*
Y-36874D01*
Y-36865D01*
Y-36850D01*
X9025Y-36830D01*
Y-36806D01*
X9022Y-36780D01*
X9013Y-36716D01*
X9002Y-36648D01*
X8981Y-36578D01*
X8955Y-36511D01*
X8937Y-36481D01*
X8917Y-36455D01*
Y-36452D01*
X8911Y-36449D01*
X8896Y-36434D01*
X8873Y-36411D01*
X8840Y-36388D01*
X8802Y-36364D01*
X8756Y-36341D01*
X8703Y-36326D01*
X8674Y-36320D01*
D02*
G37*
G36*
X2620Y-36308D02*
X2579D01*
X2567Y-36311D01*
X2541Y-36317D01*
X2503Y-36326D01*
X2462Y-36344D01*
X2418Y-36370D01*
X2395Y-36385D01*
X2371Y-36405D01*
X2348Y-36426D01*
X2327Y-36452D01*
Y-36455D01*
X2321Y-36458D01*
X2315Y-36467D01*
X2310Y-36478D01*
X2301Y-36493D01*
X2292Y-36511D01*
X2280Y-36531D01*
X2272Y-36554D01*
X2260Y-36584D01*
X2248Y-36613D01*
X2239Y-36648D01*
X2231Y-36683D01*
X2225Y-36724D01*
X2219Y-36768D01*
X2213Y-36812D01*
Y-36862D01*
Y-36865D01*
Y-36874D01*
Y-36888D01*
X2216Y-36906D01*
Y-36929D01*
X2219Y-36953D01*
X2228Y-37011D01*
X2239Y-37079D01*
X2257Y-37143D01*
X2283Y-37205D01*
X2301Y-37234D01*
X2318Y-37260D01*
X2324Y-37266D01*
X2339Y-37281D01*
X2362Y-37301D01*
X2392Y-37325D01*
X2430Y-37348D01*
X2477Y-37369D01*
X2526Y-37383D01*
X2553Y-37386D01*
X2582Y-37389D01*
X2597D01*
X2608Y-37386D01*
X2638Y-37383D01*
X2673Y-37372D01*
X2717Y-37357D01*
X2761Y-37333D01*
X2805Y-37301D01*
X2828Y-37281D01*
X2848Y-37257D01*
Y-37254D01*
X2854Y-37251D01*
X2860Y-37243D01*
X2866Y-37231D01*
X2875Y-37216D01*
X2884Y-37199D01*
X2895Y-37178D01*
X2907Y-37155D01*
X2916Y-37128D01*
X2928Y-37096D01*
X2936Y-37064D01*
X2945Y-37026D01*
X2951Y-36985D01*
X2957Y-36941D01*
X2963Y-36894D01*
Y-36844D01*
Y-36841D01*
Y-36833D01*
Y-36818D01*
X2960Y-36800D01*
Y-36777D01*
X2957Y-36751D01*
X2948Y-36692D01*
X2936Y-36628D01*
X2916Y-36560D01*
X2889Y-36499D01*
X2872Y-36470D01*
X2851Y-36443D01*
Y-36440D01*
X2846Y-36437D01*
X2831Y-36423D01*
X2810Y-36399D01*
X2778Y-36376D01*
X2740Y-36352D01*
X2696Y-36329D01*
X2646Y-36314D01*
X2620Y-36308D01*
D02*
G37*
G36*
X10188Y-36317D02*
X10173D01*
X10161Y-36320D01*
X10129Y-36323D01*
X10091Y-36332D01*
X10047Y-36344D01*
X10003Y-36364D01*
X9956Y-36390D01*
X9912Y-36429D01*
X9906Y-36434D01*
X9895Y-36449D01*
X9877Y-36472D01*
X9857Y-36508D01*
X9836Y-36549D01*
X9816Y-36598D01*
X9801Y-36657D01*
X9792Y-36721D01*
X10571D01*
Y-36718D01*
Y-36713D01*
X10568Y-36704D01*
Y-36692D01*
X10562Y-36660D01*
X10554Y-36622D01*
X10542Y-36581D01*
X10524Y-36537D01*
X10507Y-36493D01*
X10480Y-36458D01*
Y-36455D01*
X10475Y-36452D01*
X10460Y-36434D01*
X10434Y-36414D01*
X10401Y-36388D01*
X10357Y-36361D01*
X10308Y-36338D01*
X10252Y-36323D01*
X10220Y-36320D01*
X10188Y-36317D01*
D02*
G37*
G36*
X6626Y-36320D02*
X6577D01*
X6565Y-36323D01*
X6533Y-36326D01*
X6492Y-36338D01*
X6445Y-36352D01*
X6395Y-36376D01*
X6345Y-36411D01*
X6322Y-36431D01*
X6298Y-36455D01*
X6293Y-36461D01*
X6287Y-36470D01*
X6281Y-36478D01*
X6272Y-36493D01*
X6263Y-36511D01*
X6252Y-36531D01*
X6243Y-36554D01*
X6231Y-36581D01*
X6219Y-36610D01*
X6211Y-36642D01*
X6202Y-36680D01*
X6196Y-36718D01*
X6190Y-36762D01*
X6184Y-36806D01*
Y-36856D01*
Y-36859D01*
Y-36868D01*
Y-36882D01*
X6187Y-36900D01*
Y-36921D01*
X6190Y-36947D01*
X6199Y-37005D01*
X6213Y-37070D01*
X6231Y-37137D01*
X6260Y-37202D01*
X6278Y-37231D01*
X6298Y-37257D01*
X6304Y-37263D01*
X6319Y-37278D01*
X6345Y-37298D01*
X6380Y-37322D01*
X6421Y-37348D01*
X6474Y-37369D01*
X6530Y-37383D01*
X6562Y-37386D01*
X6594Y-37389D01*
X6612D01*
X6623Y-37386D01*
X6656Y-37383D01*
X6697Y-37372D01*
X6744Y-37357D01*
X6793Y-37333D01*
X6840Y-37301D01*
X6864Y-37281D01*
X6887Y-37257D01*
Y-37254D01*
X6893Y-37251D01*
X6899Y-37243D01*
X6905Y-37231D01*
X6913Y-37216D01*
X6925Y-37199D01*
X6934Y-37178D01*
X6946Y-37155D01*
X6957Y-37128D01*
X6966Y-37099D01*
X6978Y-37064D01*
X6987Y-37026D01*
X6992Y-36988D01*
X6998Y-36944D01*
X7004Y-36897D01*
Y-36847D01*
Y-36844D01*
Y-36836D01*
Y-36824D01*
X7001Y-36803D01*
Y-36783D01*
X6998Y-36759D01*
X6990Y-36701D01*
X6975Y-36639D01*
X6954Y-36572D01*
X6925Y-36511D01*
X6884Y-36455D01*
Y-36452D01*
X6878Y-36449D01*
X6864Y-36434D01*
X6837Y-36411D01*
X6805Y-36388D01*
X6761Y-36364D01*
X6711Y-36341D01*
X6656Y-36326D01*
X6626Y-36320D01*
D02*
G37*
G36*
X1100D02*
X1050D01*
X1039Y-36323D01*
X1006Y-36326D01*
X965Y-36338D01*
X919Y-36352D01*
X869Y-36376D01*
X819Y-36411D01*
X796Y-36431D01*
X772Y-36455D01*
X766Y-36461D01*
X760Y-36470D01*
X755Y-36478D01*
X746Y-36493D01*
X737Y-36511D01*
X725Y-36531D01*
X716Y-36554D01*
X705Y-36581D01*
X693Y-36610D01*
X684Y-36642D01*
X675Y-36680D01*
X670Y-36718D01*
X664Y-36762D01*
X658Y-36806D01*
Y-36856D01*
Y-36859D01*
Y-36868D01*
Y-36882D01*
X661Y-36900D01*
Y-36921D01*
X664Y-36947D01*
X673Y-37005D01*
X687Y-37070D01*
X705Y-37137D01*
X734Y-37202D01*
X752Y-37231D01*
X772Y-37257D01*
X778Y-37263D01*
X793Y-37278D01*
X819Y-37298D01*
X854Y-37322D01*
X895Y-37348D01*
X948Y-37369D01*
X1003Y-37383D01*
X1036Y-37386D01*
X1068Y-37389D01*
X1085D01*
X1097Y-37386D01*
X1129Y-37383D01*
X1170Y-37372D01*
X1217Y-37357D01*
X1267Y-37333D01*
X1314Y-37301D01*
X1337Y-37281D01*
X1361Y-37257D01*
Y-37254D01*
X1367Y-37251D01*
X1372Y-37243D01*
X1378Y-37231D01*
X1387Y-37216D01*
X1399Y-37199D01*
X1408Y-37178D01*
X1419Y-37155D01*
X1431Y-37128D01*
X1440Y-37099D01*
X1452Y-37064D01*
X1460Y-37026D01*
X1466Y-36988D01*
X1472Y-36944D01*
X1478Y-36897D01*
Y-36847D01*
Y-36844D01*
Y-36836D01*
Y-36824D01*
X1475Y-36803D01*
Y-36783D01*
X1472Y-36759D01*
X1463Y-36701D01*
X1449Y-36639D01*
X1428Y-36572D01*
X1399Y-36511D01*
X1358Y-36455D01*
Y-36452D01*
X1352Y-36449D01*
X1337Y-36434D01*
X1311Y-36411D01*
X1279Y-36388D01*
X1235Y-36364D01*
X1185Y-36341D01*
X1129Y-36326D01*
X1100Y-36320D01*
D02*
G37*
%LPD*%
D15*
X50818Y17489D02*
X50818Y-17511D01*
X-10704Y17489D02*
X50818Y17489D01*
X-10704Y-17511D02*
X50818Y-17511D01*
X-10704Y17489D02*
X-10704Y-17511D01*
D16*
X-17322Y17399D02*
X-16814Y15875D01*
X-17830D02*
X-17322Y17399D01*
X-17830Y-16083D02*
X-17322Y-17607D01*
X-16814Y-16083D01*
X-17322Y4720D02*
Y17399D01*
Y-17607D02*
Y-5741D01*
X-17576Y17399D02*
X-10761D01*
X-17576Y-17607D02*
X-10706D01*
X-10736Y23308D02*
X-9212Y23816D01*
X-10736Y23308D02*
X-9212Y22800D01*
X49229D02*
X50753Y23308D01*
X49229Y23816D02*
X50753Y23308D01*
X-10736D02*
X14371D01*
X24833D02*
X50753D01*
X-10736Y17423D02*
Y23562D01*
X50753Y17423D02*
Y23562D01*
D17*
X-17678Y-5335D02*
X-17932Y-5081D01*
Y-4573D01*
X-17678Y-4319D01*
X-17424D01*
X-17170Y-4573D01*
Y-4827D01*
Y-4573D01*
X-16916Y-4319D01*
X-16662D01*
X-16408Y-4573D01*
Y-5081D01*
X-16662Y-5335D01*
X-17932Y-2796D02*
Y-3811D01*
X-17170D01*
X-17424Y-3304D01*
Y-3050D01*
X-17170Y-2796D01*
X-16662D01*
X-16408Y-3050D01*
Y-3557D01*
X-16662Y-3811D01*
X-16408Y-2288D02*
X-16662D01*
Y-2034D01*
X-16408D01*
Y-2288D01*
X-17678Y-1018D02*
X-17932Y-764D01*
Y-257D01*
X-17678Y-3D01*
X-16662D01*
X-16408Y-257D01*
Y-764D01*
X-16662Y-1018D01*
X-17678D01*
X-16408Y505D02*
Y1013D01*
Y759D01*
X-17932D01*
X-17678Y505D01*
X-16408Y1775D02*
X-17424D01*
Y2029D01*
X-17170Y2283D01*
X-16408D01*
X-17170D01*
X-17424Y2537D01*
X-17170Y2790D01*
X-16408D01*
Y3298D02*
X-17424D01*
Y3552D01*
X-17170Y3806D01*
X-16408D01*
X-17170D01*
X-17424Y4060D01*
X-17170Y4314D01*
X-16408D01*
X15793Y23917D02*
X15286Y23663D01*
X14778Y23155D01*
Y22647D01*
X15032Y22394D01*
X15539D01*
X15793Y22647D01*
Y22901D01*
X15539Y23155D01*
X14778D01*
X16301Y22394D02*
X16809D01*
X16555D01*
Y23917D01*
X16301Y23663D01*
X17571Y22394D02*
Y22647D01*
X17825D01*
Y22394D01*
X17571D01*
X19602D02*
Y23917D01*
X18840Y23155D01*
X19856D01*
X20364Y22647D02*
X20618Y22394D01*
X21126D01*
X21380Y22647D01*
Y23663D01*
X21126Y23917D01*
X20618D01*
X20364Y23663D01*
Y23409D01*
X20618Y23155D01*
X21380D01*
X21887Y22394D02*
Y23409D01*
X22141D01*
X22395Y23155D01*
Y22394D01*
Y23155D01*
X22649Y23409D01*
X22903Y23155D01*
Y22394D01*
X23411D02*
Y23409D01*
X23665D01*
X23919Y23155D01*
Y22394D01*
Y23155D01*
X24173Y23409D01*
X24427Y23155D01*
Y22394D01*
D18*
X9003Y-7775D02*
G03*
X10853Y-9625I1850J0D01*
G01*
X43228Y9725D02*
G03*
X41378Y11575I-1850J0D01*
G01*
Y-9625D02*
G03*
X43228Y-7775I0J1850D01*
G01*
X10853Y11575D02*
G03*
X9003Y9725I0J-1850D01*
G01*
X10853Y-9625D02*
X41378Y-9625D01*
X10853Y11575D02*
X41378Y11575D01*
X43203Y1185D02*
Y9519D01*
X43225Y-7823D02*
Y-1707D01*
X9003Y-7775D02*
Y9725D01*
D19*
X35567Y-712D02*
D03*
Y-2D02*
D03*
X36947Y-502D02*
D03*
Y-1342D02*
D03*
Y338D02*
D03*
X36257Y-502D02*
D03*
X35567Y-1342D02*
D03*
X36342Y338D02*
D03*
D20*
X34866Y4D02*
D03*
X34386D02*
D03*
X39771Y-4150D02*
D03*
X40251D02*
D03*
X32004Y3812D02*
D03*
X32484D02*
D03*
X28286Y4419D02*
D03*
X28766D02*
D03*
X40251Y-1413D02*
D03*
X39771D02*
D03*
X40251Y-2097D02*
D03*
X39771D02*
D03*
X39289Y1713D02*
D03*
X39769Y1713D02*
D03*
X40251Y-2781D02*
D03*
X39771D02*
D03*
X39289Y2397D02*
D03*
X39769Y2397D02*
D03*
X40251Y-3465D02*
D03*
X39771D02*
D03*
Y-4834D02*
D03*
X40251D02*
D03*
X39289Y3081D02*
D03*
X39769Y3081D02*
D03*
Y3765D02*
D03*
X39289D02*
D03*
X39769Y1027D02*
D03*
X39289Y1027D02*
D03*
D21*
X33380Y616D02*
D03*
X33380Y-444D02*
D03*
D22*
X39369Y109D02*
D03*
Y-291D02*
D03*
Y-691D02*
D03*
X39769D02*
D03*
Y-291D02*
D03*
Y109D02*
D03*
D23*
X47950Y-4542D02*
D03*
Y3958D02*
D03*
D24*
X49200Y-292D02*
D03*
D25*
X22481Y-2700D02*
D03*
X23381Y-2700D02*
D03*
X34000Y-6407D02*
D03*
X33100Y-6407D02*
D03*
X25104Y700D02*
D03*
X26004Y700D02*
D03*
X25500Y-550D02*
D03*
X26400Y-550D02*
D03*
X22481Y-1500D02*
D03*
X23381Y-1500D02*
D03*
X31901Y4810D02*
D03*
X32801Y4810D02*
D03*
X32789Y8726D02*
D03*
X33689Y8726D02*
D03*
D26*
X38028Y340D02*
D03*
X38628Y340D02*
D03*
X45496Y-292D02*
D03*
X46096D02*
D03*
X40692Y-291D02*
D03*
X41292D02*
D03*
D27*
X39437Y-6337D02*
D03*
X38012Y-6337D02*
D03*
X33258Y6174D02*
D03*
X31833D02*
D03*
D28*
X26866Y7754D02*
D03*
Y8654D02*
D03*
D29*
X19900Y-2850D02*
D03*
X19900Y-1350D02*
D03*
D30*
X29463Y6544D02*
D03*
Y7494D02*
D03*
D31*
X33144Y-7557D02*
D03*
X33769Y-7557D02*
D03*
D32*
X27729Y8560D02*
D03*
X27729Y9760D02*
D03*
X29529Y8560D02*
D03*
X29529Y9760D02*
D03*
D33*
X29885Y2280D02*
D03*
X29885Y3180D02*
D03*
X32741Y2005D02*
D03*
X32741Y2905D02*
D03*
X33869Y2005D02*
D03*
X33869Y2905D02*
D03*
X26104Y-4552D02*
D03*
X26104Y-5452D02*
D03*
X21550Y-3550D02*
D03*
X21550Y-2650D02*
D03*
X21550Y-1550D02*
D03*
X21550Y-650D02*
D03*
X28559Y2384D02*
D03*
X28559Y3284D02*
D03*
X36624Y-5451D02*
D03*
X36624Y-6351D02*
D03*
X28157Y5660D02*
D03*
X28157Y6560D02*
D03*
D34*
X30369Y8541D02*
D03*
Y9441D02*
D03*
X26751Y5949D02*
D03*
Y6849D02*
D03*
D35*
X28500Y-4000D02*
D03*
X28000D02*
D03*
X28500Y-3500D02*
D03*
X28000D02*
D03*
Y-2500D02*
D03*
X28500Y-3000D02*
D03*
X29000Y-4000D02*
D03*
Y-3500D02*
D03*
X29500D02*
D03*
X29000Y-2500D02*
D03*
X29500Y-3000D02*
D03*
X29000D02*
D03*
X29500Y-2500D02*
D03*
X28000Y-2000D02*
D03*
X28500Y-1000D02*
D03*
Y-2500D02*
D03*
Y-1500D02*
D03*
Y-2000D02*
D03*
X28000Y-1000D02*
D03*
Y0D02*
D03*
Y-500D02*
D03*
X29000D02*
D03*
X28500Y0D02*
D03*
Y-500D02*
D03*
X29000Y-2000D02*
D03*
Y-1500D02*
D03*
X29500Y-1000D02*
D03*
Y-2000D02*
D03*
Y-1500D02*
D03*
X29000Y-1000D02*
D03*
X29500Y0D02*
D03*
Y-500D02*
D03*
X30000Y-4000D02*
D03*
Y-3500D02*
D03*
X30500Y-4000D02*
D03*
Y-3500D02*
D03*
X31000Y-3000D02*
D03*
X30000D02*
D03*
Y-2500D02*
D03*
X30500Y-3000D02*
D03*
Y-2500D02*
D03*
X31000D02*
D03*
X31500Y-4000D02*
D03*
X31000Y-3500D02*
D03*
X31500D02*
D03*
X32000Y-4000D02*
D03*
Y-3000D02*
D03*
Y-3500D02*
D03*
X31500Y-3000D02*
D03*
Y-2500D02*
D03*
X30000Y-2000D02*
D03*
Y-1500D02*
D03*
X30500Y-2000D02*
D03*
Y-1000D02*
D03*
Y-1500D02*
D03*
X30000Y-1000D02*
D03*
Y0D02*
D03*
Y-500D02*
D03*
X31000D02*
D03*
X30500D02*
D03*
X31000Y0D02*
D03*
Y-2000D02*
D03*
Y-1500D02*
D03*
X31500D02*
D03*
X32000Y-2000D02*
D03*
X31500D02*
D03*
X32000Y-1500D02*
D03*
X31000Y-1000D02*
D03*
X31500Y0D02*
D03*
Y-500D02*
D03*
Y-1000D02*
D03*
X32000Y0D02*
D03*
Y-500D02*
D03*
D36*
X44844Y-291D02*
D03*
Y-891D02*
D03*
X46646Y-292D02*
D03*
Y-892D02*
D03*
X38224Y-1340D02*
D03*
Y-1940D02*
D03*
D37*
X24604Y-5967D02*
D03*
Y-4542D02*
D03*
D38*
X10110Y14000D02*
D03*
X12650D02*
D03*
X2490D02*
D03*
X5030D02*
D03*
X-5130D02*
D03*
X-50D02*
D03*
X-2590D02*
D03*
X7570D02*
D03*
X35510D02*
D03*
X38050D02*
D03*
X30430D02*
D03*
X32970D02*
D03*
X40590D02*
D03*
X15190D02*
D03*
X20270D02*
D03*
X17730D02*
D03*
X22810D02*
D03*
X27890D02*
D03*
X25350D02*
D03*
X10110Y-14000D02*
D03*
X12650D02*
D03*
X2490D02*
D03*
X5030D02*
D03*
X-5130D02*
D03*
X-50D02*
D03*
X-2590D02*
D03*
X7570D02*
D03*
X35510D02*
D03*
X38050D02*
D03*
X30430D02*
D03*
X32970D02*
D03*
X40590D02*
D03*
X15190D02*
D03*
X20270D02*
D03*
X17730D02*
D03*
X22810D02*
D03*
X27890D02*
D03*
X25350D02*
D03*
D39*
X43130Y14000D02*
D03*
X43130Y-14000D02*
D03*
D40*
X49958Y-1858D02*
D03*
X48558Y14942D02*
D03*
X47858Y13542D02*
D03*
X48558Y12142D02*
D03*
X47858Y10742D02*
D03*
X48558Y9342D02*
D03*
X47858Y7942D02*
D03*
X48558Y6542D02*
D03*
X47858Y5142D02*
D03*
X48558Y-1858D02*
D03*
X47858Y-6058D02*
D03*
X48558Y-7458D02*
D03*
X47858Y-8858D02*
D03*
X48558Y-10258D02*
D03*
X47858Y-11658D02*
D03*
X48558Y-13058D02*
D03*
X47858Y-14458D02*
D03*
X47158Y14942D02*
D03*
X46458Y13542D02*
D03*
X47158Y12142D02*
D03*
X46458Y10742D02*
D03*
X47158Y9342D02*
D03*
X46458Y7942D02*
D03*
X47158Y6542D02*
D03*
X46458Y5142D02*
D03*
Y2342D02*
D03*
Y-6058D02*
D03*
X47158Y-7458D02*
D03*
X46458Y-8858D02*
D03*
X47158Y-10258D02*
D03*
X46458Y-11658D02*
D03*
X47158Y-13058D02*
D03*
X46458Y-14458D02*
D03*
X45758Y14942D02*
D03*
X45058Y13542D02*
D03*
X45758Y12142D02*
D03*
X45058Y10742D02*
D03*
X45758Y9342D02*
D03*
X45058Y7942D02*
D03*
X45758Y6542D02*
D03*
X45058Y5142D02*
D03*
Y2342D02*
D03*
Y-3258D02*
D03*
Y-6058D02*
D03*
X45758Y-7458D02*
D03*
X45058Y-8858D02*
D03*
X45758Y-10258D02*
D03*
X45058Y-11658D02*
D03*
X45758Y-13058D02*
D03*
X45058Y-14458D02*
D03*
X44358Y12142D02*
D03*
X43658Y10742D02*
D03*
X44358Y9342D02*
D03*
X43658Y7942D02*
D03*
X44358Y6542D02*
D03*
X43658Y5142D02*
D03*
X44358Y3742D02*
D03*
X43658Y2342D02*
D03*
Y-3258D02*
D03*
X44358Y-4658D02*
D03*
X43658Y-6058D02*
D03*
X44358Y-7458D02*
D03*
X43658Y-8858D02*
D03*
X44358Y-10258D02*
D03*
X43658Y-11658D02*
D03*
X42258Y10742D02*
D03*
X42958Y9342D02*
D03*
X42258Y7942D02*
D03*
X42958Y6542D02*
D03*
X42258Y5142D02*
D03*
X42958Y3742D02*
D03*
X42258Y2342D02*
D03*
Y-3258D02*
D03*
X42958Y-4658D02*
D03*
X42258Y-6058D02*
D03*
X42958Y-7458D02*
D03*
X42258Y-8858D02*
D03*
X40858Y5142D02*
D03*
X41558Y3742D02*
D03*
Y-4658D02*
D03*
X40858Y-6058D02*
D03*
X41558Y-7458D02*
D03*
X40858Y-8858D02*
D03*
X40158Y9342D02*
D03*
X39458Y7942D02*
D03*
X40158Y6542D02*
D03*
Y-7458D02*
D03*
X39458Y-8858D02*
D03*
X38758Y12142D02*
D03*
Y9342D02*
D03*
X38058Y7942D02*
D03*
X38758Y6542D02*
D03*
X38058Y5142D02*
D03*
Y-458D02*
D03*
X37358Y9342D02*
D03*
X36658Y7942D02*
D03*
X37358Y6542D02*
D03*
X35958Y9342D02*
D03*
X33158Y12142D02*
D03*
Y-10258D02*
D03*
X31758Y14942D02*
D03*
X28958D02*
D03*
Y12142D02*
D03*
X25458Y10742D02*
D03*
X24758Y12142D02*
D03*
X22658Y5142D02*
D03*
X21258D02*
D03*
X19158Y14942D02*
D03*
X18458Y5142D02*
D03*
X16358Y14942D02*
D03*
Y-13058D02*
D03*
X14258Y7942D02*
D03*
X14958Y6542D02*
D03*
Y3742D02*
D03*
X14258Y2342D02*
D03*
X14958Y942D02*
D03*
X14258Y-458D02*
D03*
X14958Y-1858D02*
D03*
X14258Y-3258D02*
D03*
X12858Y7942D02*
D03*
X13558Y6542D02*
D03*
Y3742D02*
D03*
X12858Y2342D02*
D03*
X13558Y942D02*
D03*
X12858Y-458D02*
D03*
X13558Y-1858D02*
D03*
X12858Y-3258D02*
D03*
X13558Y-4658D02*
D03*
X12158Y12142D02*
D03*
X11458Y7942D02*
D03*
X12158Y6542D02*
D03*
Y3742D02*
D03*
X11458Y2342D02*
D03*
X12158Y942D02*
D03*
X11458Y-458D02*
D03*
X12158Y-1858D02*
D03*
X11458Y-3258D02*
D03*
X12158Y-4658D02*
D03*
X11458Y-11658D02*
D03*
X10058Y7942D02*
D03*
X10758Y6542D02*
D03*
Y3742D02*
D03*
X10058Y2342D02*
D03*
X10758Y942D02*
D03*
X10058Y-458D02*
D03*
X10758Y-1858D02*
D03*
X10058Y-3258D02*
D03*
X10758Y-4658D02*
D03*
X9358Y12142D02*
D03*
X8658Y7942D02*
D03*
X9358Y6542D02*
D03*
Y3742D02*
D03*
X8658Y2342D02*
D03*
X9358Y942D02*
D03*
X8658Y-458D02*
D03*
X9358Y-1858D02*
D03*
X8658Y-3258D02*
D03*
X9358Y-4658D02*
D03*
X8658Y-11658D02*
D03*
X7258Y10742D02*
D03*
Y7942D02*
D03*
X7958Y6542D02*
D03*
Y3742D02*
D03*
X7258Y2342D02*
D03*
X7958Y942D02*
D03*
X7258Y-458D02*
D03*
X7958Y-1858D02*
D03*
X7258Y-3258D02*
D03*
X7958Y-4658D02*
D03*
X6558Y12142D02*
D03*
X5858Y7942D02*
D03*
X6558Y6542D02*
D03*
Y3742D02*
D03*
X5858Y2342D02*
D03*
X6558Y942D02*
D03*
X5858Y-458D02*
D03*
X6558Y-1858D02*
D03*
X5858Y-3258D02*
D03*
X6558Y-4658D02*
D03*
Y-10258D02*
D03*
X5858Y-11658D02*
D03*
X4458Y10742D02*
D03*
Y7942D02*
D03*
X5158Y6542D02*
D03*
Y3742D02*
D03*
X4458Y2342D02*
D03*
X5158Y942D02*
D03*
X4458Y-458D02*
D03*
X5158Y-1858D02*
D03*
X4458Y-3258D02*
D03*
X5158Y-4658D02*
D03*
X4458Y-11658D02*
D03*
X3758Y14942D02*
D03*
Y12142D02*
D03*
X3058Y7942D02*
D03*
Y5142D02*
D03*
X3758Y3742D02*
D03*
X3058Y2342D02*
D03*
X3758Y942D02*
D03*
X3058Y-458D02*
D03*
X3758Y-1858D02*
D03*
X3058Y-3258D02*
D03*
X3758Y-4658D02*
D03*
X3058Y-11658D02*
D03*
X3758Y-13058D02*
D03*
X1658Y10742D02*
D03*
X2358Y9342D02*
D03*
X1658Y5142D02*
D03*
X2358Y3742D02*
D03*
X1658Y2342D02*
D03*
X2358Y942D02*
D03*
X1658Y-458D02*
D03*
X2358Y-1858D02*
D03*
X1658Y-3258D02*
D03*
X2358Y-4658D02*
D03*
X1658Y-8858D02*
D03*
X2358Y-10258D02*
D03*
X1658Y-11658D02*
D03*
X958Y12142D02*
D03*
X258Y7942D02*
D03*
X958Y6542D02*
D03*
X258Y5142D02*
D03*
X958Y3742D02*
D03*
X258Y2342D02*
D03*
X958Y942D02*
D03*
X258Y-458D02*
D03*
X958Y-1858D02*
D03*
X258Y-3258D02*
D03*
X958Y-4658D02*
D03*
Y-7458D02*
D03*
X-1142Y10742D02*
D03*
Y7942D02*
D03*
X-442Y6542D02*
D03*
X-1142Y5142D02*
D03*
X-442Y3742D02*
D03*
X-1142Y2342D02*
D03*
X-442Y942D02*
D03*
X-1142Y-458D02*
D03*
X-442Y-1858D02*
D03*
X-1142Y-3258D02*
D03*
X-442Y-4658D02*
D03*
X-1142Y-6058D02*
D03*
Y-11658D02*
D03*
X-1842Y12142D02*
D03*
X-2542Y10742D02*
D03*
X-1842Y9342D02*
D03*
X-2542Y7942D02*
D03*
X-1842Y6542D02*
D03*
X-2542Y5142D02*
D03*
X-1842Y3742D02*
D03*
X-2542Y2342D02*
D03*
X-1842Y942D02*
D03*
X-2542Y-458D02*
D03*
X-1842Y-1858D02*
D03*
X-2542Y-3258D02*
D03*
X-1842Y-4658D02*
D03*
X-2542Y-6058D02*
D03*
X-1842Y-10258D02*
D03*
X-3242Y12142D02*
D03*
X-3942Y10742D02*
D03*
X-3242Y9342D02*
D03*
X-3942Y7942D02*
D03*
X-3242Y6542D02*
D03*
X-3942Y5142D02*
D03*
X-3242Y3742D02*
D03*
X-3942Y2342D02*
D03*
X-3242Y942D02*
D03*
X-3942Y-458D02*
D03*
X-3242Y-1858D02*
D03*
X-3942Y-3258D02*
D03*
X-3242Y-4658D02*
D03*
X-3942Y-6058D02*
D03*
X-3242Y-7458D02*
D03*
X-3942Y-8858D02*
D03*
X-4642Y12142D02*
D03*
X-5342Y10742D02*
D03*
X-4642Y9342D02*
D03*
X-5342Y7942D02*
D03*
X-4642Y6542D02*
D03*
X-5342Y5142D02*
D03*
X-4642Y3742D02*
D03*
X-5342Y2342D02*
D03*
X-4642Y942D02*
D03*
X-5342Y-458D02*
D03*
X-4642Y-1858D02*
D03*
X-5342Y-3258D02*
D03*
X-4642Y-4658D02*
D03*
X-5342Y-6058D02*
D03*
X-4642Y-7458D02*
D03*
X-5342Y-8858D02*
D03*
X-6042Y14942D02*
D03*
X-6742Y13542D02*
D03*
X-6042Y12142D02*
D03*
X-6742Y10742D02*
D03*
X-6042Y9342D02*
D03*
X-6742Y7942D02*
D03*
X-6042Y6542D02*
D03*
X-6742Y5142D02*
D03*
X-6042Y3742D02*
D03*
X-6742Y2342D02*
D03*
X-6042Y942D02*
D03*
X-6742Y-458D02*
D03*
X-6042Y-1858D02*
D03*
X-6742Y-3258D02*
D03*
X-6042Y-4658D02*
D03*
X-6742Y-6058D02*
D03*
X-6042Y-7458D02*
D03*
X-6742Y-8858D02*
D03*
X-6042Y-10258D02*
D03*
X-6742Y-11658D02*
D03*
X-7442Y14942D02*
D03*
X-8142Y13542D02*
D03*
X-7442Y12142D02*
D03*
X-8142Y10742D02*
D03*
X-7442Y9342D02*
D03*
Y6542D02*
D03*
X-8142Y5142D02*
D03*
X-7442Y3742D02*
D03*
Y942D02*
D03*
X-8142Y-458D02*
D03*
X-7442Y-1858D02*
D03*
Y-4658D02*
D03*
X-8142Y-6058D02*
D03*
X-7442Y-7458D02*
D03*
X-8142Y-8858D02*
D03*
X-7442Y-10258D02*
D03*
X-8142Y-11658D02*
D03*
X-7442Y-13058D02*
D03*
X-8142Y-14458D02*
D03*
X46826Y-3530D02*
D03*
X46976Y3050D02*
D03*
X37099Y-2019D02*
D03*
X45051Y-1539D02*
D03*
X38724Y-3102D02*
D03*
X39095Y-2571D02*
D03*
X37981Y-3102D02*
D03*
X38352Y-2571D02*
D03*
X37609D02*
D03*
X38059Y2106D02*
D03*
X38430Y1574D02*
D03*
X37316Y2106D02*
D03*
X37687Y1574D02*
D03*
X36944D02*
D03*
X45794Y-1539D02*
D03*
X45423Y-2071D02*
D03*
X46166D02*
D03*
X44679D02*
D03*
X44308Y-1539D02*
D03*
X42821D02*
D03*
X40964Y-2071D02*
D03*
X41707D02*
D03*
X43193D02*
D03*
X42450D02*
D03*
X43936D02*
D03*
X41335Y-1539D02*
D03*
X42078D02*
D03*
X43564D02*
D03*
X40692D02*
D03*
X46681Y1488D02*
D03*
X45938D02*
D03*
X45566Y957D02*
D03*
X46309D02*
D03*
X44823D02*
D03*
X45195Y1488D02*
D03*
X41479D02*
D03*
X40736D02*
D03*
X42965D02*
D03*
X42222D02*
D03*
X42593Y957D02*
D03*
X41107D02*
D03*
X41850D02*
D03*
X40464D02*
D03*
X44080D02*
D03*
X43337D02*
D03*
X43708Y1488D02*
D03*
X44452D02*
D03*
X36588Y2731D02*
D03*
X36960Y3263D02*
D03*
X36589Y3794D02*
D03*
X36961Y4326D02*
D03*
X36218D02*
D03*
X19677Y-11718D02*
D03*
X19527Y-10930D02*
D03*
X18635Y-11095D02*
D03*
X18772Y-12608D02*
D03*
X25837Y-12483D02*
D03*
X25827Y-11227D02*
D03*
X49566Y-4035D02*
D03*
X48080D02*
D03*
X50310D02*
D03*
X48823D02*
D03*
X47556Y-4035D02*
D03*
Y3451D02*
D03*
X48823Y3451D02*
D03*
X50310D02*
D03*
X48080D02*
D03*
X49566D02*
D03*
X28132Y1544D02*
D03*
X27708Y4532D02*
D03*
Y3949D02*
D03*
X23706Y2287D02*
D03*
X24598Y-458D02*
D03*
Y-1104D02*
D03*
X28441Y7636D02*
D03*
X37231Y12029D02*
D03*
X36488D02*
D03*
X40220Y11926D02*
D03*
X39477D02*
D03*
X42825Y11793D02*
D03*
X42082D02*
D03*
X24503Y11554D02*
D03*
X25246D02*
D03*
X21776Y11558D02*
D03*
X22519D02*
D03*
X19467Y11550D02*
D03*
X20210D02*
D03*
X43235Y-9752D02*
D03*
X41849D02*
D03*
X38976D02*
D03*
X40363D02*
D03*
X35200Y-7900D02*
D03*
X36219Y5389D02*
D03*
X36591Y5920D02*
D03*
X36962Y5389D02*
D03*
X36590Y4857D02*
D03*
X46376Y-1564D02*
D03*
D41*
X31798Y7019D02*
D03*
X37488Y-4373D02*
D03*
X38793Y-4673D02*
D03*
X40536Y2881D02*
D03*
X33285Y-2916D02*
D03*
X18221Y2087D02*
D03*
X30409Y-5175D02*
D03*
X50199Y16250D02*
D03*
X49300Y14816D02*
D03*
X50253Y15366D02*
D03*
X48052Y15942D02*
D03*
X49152D02*
D03*
X47502Y16895D02*
D03*
X48602D02*
D03*
X49702D02*
D03*
X49300Y-15203D02*
D03*
X47415Y-16917D02*
D03*
X48515D02*
D03*
X49615D02*
D03*
X47965Y-15964D02*
D03*
X49065D02*
D03*
X50165D02*
D03*
X-9030Y16301D02*
D03*
X50253Y14266D02*
D03*
X49300Y13716D02*
D03*
X49300Y7116D02*
D03*
X49300Y4916D02*
D03*
Y6016D02*
D03*
X49300Y12616D02*
D03*
X49300Y8216D02*
D03*
X49300Y10416D02*
D03*
X49300Y9316D02*
D03*
X49300Y11516D02*
D03*
X50253Y6566D02*
D03*
Y13166D02*
D03*
Y12066D02*
D03*
X50253Y7666D02*
D03*
X50253Y8766D02*
D03*
Y9866D02*
D03*
X50253Y10966D02*
D03*
X50253Y5466D02*
D03*
X50253Y4366D02*
D03*
X50253Y-5034D02*
D03*
X50253Y-6134D02*
D03*
X50253Y-7234D02*
D03*
X50253Y-8334D02*
D03*
X50253Y-9434D02*
D03*
X50253Y-10534D02*
D03*
X50253Y-11634D02*
D03*
Y-12734D02*
D03*
X50253Y-13834D02*
D03*
X50253Y-14934D02*
D03*
X49300Y-5584D02*
D03*
X49300Y-6684D02*
D03*
X49300Y-7784D02*
D03*
Y-8884D02*
D03*
Y-9984D02*
D03*
X49300Y-11084D02*
D03*
X49300Y-12184D02*
D03*
Y-13284D02*
D03*
X49300Y-14384D02*
D03*
X-8995Y-16137D02*
D03*
X-9785Y16083D02*
D03*
X-9785Y14983D02*
D03*
X-9785Y13883D02*
D03*
X-9785Y12783D02*
D03*
Y11683D02*
D03*
X-9785Y10583D02*
D03*
X-9785Y9483D02*
D03*
X-9785Y8383D02*
D03*
X-9785Y7283D02*
D03*
X-9785Y6183D02*
D03*
X-9785Y5083D02*
D03*
X-9785Y3983D02*
D03*
X-9785Y2883D02*
D03*
X-9785Y1783D02*
D03*
X-9785Y683D02*
D03*
X-9785Y-417D02*
D03*
X-9785Y-1517D02*
D03*
X-9785Y-2617D02*
D03*
X-9785Y-3717D02*
D03*
X-9785Y-4817D02*
D03*
Y-5917D02*
D03*
Y-7017D02*
D03*
Y-8117D02*
D03*
X-9785Y-9217D02*
D03*
X-9785Y-10317D02*
D03*
X-9785Y-11417D02*
D03*
X-9785Y-12517D02*
D03*
X-9785Y-13617D02*
D03*
X-9785Y-14717D02*
D03*
X-9785Y-15817D02*
D03*
X-8832Y15533D02*
D03*
X-8832Y14433D02*
D03*
X-8832Y13333D02*
D03*
X-8832Y12233D02*
D03*
X-8832Y11133D02*
D03*
X-8832Y10033D02*
D03*
X-8832Y8933D02*
D03*
Y7833D02*
D03*
X-8832Y6733D02*
D03*
X-8832Y5633D02*
D03*
Y4533D02*
D03*
X-8832Y3433D02*
D03*
X-8832Y2333D02*
D03*
X-8832Y1233D02*
D03*
X-8832Y133D02*
D03*
X-8832Y-967D02*
D03*
X-8832Y-2067D02*
D03*
X-8832Y-3167D02*
D03*
X-8832Y-4267D02*
D03*
Y-5367D02*
D03*
X-8832Y-6467D02*
D03*
X-8832Y-7567D02*
D03*
X-8832Y-8667D02*
D03*
X-8832Y-9767D02*
D03*
X-8832Y-10867D02*
D03*
X-8832Y-11967D02*
D03*
Y-13067D02*
D03*
Y-14167D02*
D03*
X-8832Y-15267D02*
D03*
X46402Y16895D02*
D03*
X45302D02*
D03*
X44202D02*
D03*
X43102D02*
D03*
X42002D02*
D03*
X40902D02*
D03*
X39802D02*
D03*
X38702D02*
D03*
X37602D02*
D03*
X36502D02*
D03*
X35402D02*
D03*
X34302D02*
D03*
X33202D02*
D03*
X32102D02*
D03*
X31002D02*
D03*
X29902D02*
D03*
X28802D02*
D03*
X27702D02*
D03*
X26602D02*
D03*
X25502D02*
D03*
X24402D02*
D03*
X23302D02*
D03*
X22202D02*
D03*
X21102D02*
D03*
X20002D02*
D03*
X18902D02*
D03*
X17802D02*
D03*
X16702D02*
D03*
X15602D02*
D03*
X14502D02*
D03*
X13402D02*
D03*
X12302D02*
D03*
X11202D02*
D03*
X10102D02*
D03*
X9002D02*
D03*
X7902D02*
D03*
X6802D02*
D03*
X5702D02*
D03*
X4602D02*
D03*
X3502D02*
D03*
X2402D02*
D03*
X1302D02*
D03*
X202D02*
D03*
X-898D02*
D03*
X-1998D02*
D03*
X-3098D02*
D03*
X-4198D02*
D03*
X-5298D02*
D03*
X-6398D02*
D03*
X-7498D02*
D03*
X-8598D02*
D03*
X-9698D02*
D03*
X46952Y15942D02*
D03*
X45852D02*
D03*
X44752D02*
D03*
X43652D02*
D03*
X42552D02*
D03*
X41452D02*
D03*
X40352D02*
D03*
X39252D02*
D03*
X38152D02*
D03*
X37052D02*
D03*
X35952D02*
D03*
X34852D02*
D03*
X33752D02*
D03*
X32652D02*
D03*
X31552D02*
D03*
X30452D02*
D03*
X29352D02*
D03*
X28252D02*
D03*
X27152D02*
D03*
X26052D02*
D03*
X24952D02*
D03*
X23852D02*
D03*
X22752D02*
D03*
X21652D02*
D03*
X20552D02*
D03*
X19452D02*
D03*
X18352D02*
D03*
X17252D02*
D03*
X16152D02*
D03*
X15052D02*
D03*
X13952D02*
D03*
X12852D02*
D03*
X11752D02*
D03*
X10652D02*
D03*
X9552D02*
D03*
X8452D02*
D03*
X7352D02*
D03*
X6252D02*
D03*
X5152D02*
D03*
X4052D02*
D03*
X2952D02*
D03*
X1852D02*
D03*
X752D02*
D03*
X-348D02*
D03*
X-1448D02*
D03*
X-2548D02*
D03*
X-3648D02*
D03*
X-4748D02*
D03*
X-5848D02*
D03*
X-6948D02*
D03*
X-8048D02*
D03*
X46865Y-15964D02*
D03*
X45765D02*
D03*
X44665D02*
D03*
X43565D02*
D03*
X42465D02*
D03*
X41365D02*
D03*
X40265D02*
D03*
X39165D02*
D03*
X38065D02*
D03*
X36965D02*
D03*
X35865D02*
D03*
X34765D02*
D03*
X33665D02*
D03*
X32565D02*
D03*
X31465D02*
D03*
X30365D02*
D03*
X29265D02*
D03*
X28165D02*
D03*
X27065D02*
D03*
X25965D02*
D03*
X24865D02*
D03*
X23765D02*
D03*
X22665D02*
D03*
X21565D02*
D03*
X20465D02*
D03*
X19365D02*
D03*
X18265D02*
D03*
X17165D02*
D03*
X16065D02*
D03*
X14965D02*
D03*
X13865D02*
D03*
X12765D02*
D03*
X11665D02*
D03*
X10565D02*
D03*
X9465D02*
D03*
X8365D02*
D03*
X7265D02*
D03*
X6165D02*
D03*
X5065D02*
D03*
X3965D02*
D03*
X2865D02*
D03*
X665D02*
D03*
X-435D02*
D03*
X-1535D02*
D03*
X-2635D02*
D03*
X-3735D02*
D03*
X-4835D02*
D03*
X-5935D02*
D03*
X-7035D02*
D03*
X-8135D02*
D03*
X46315Y-16917D02*
D03*
X45215D02*
D03*
X44115D02*
D03*
X43015D02*
D03*
X41915D02*
D03*
X40815D02*
D03*
X39715D02*
D03*
X38615D02*
D03*
X37515D02*
D03*
X36415D02*
D03*
X35315D02*
D03*
X34215D02*
D03*
X33115D02*
D03*
X32015D02*
D03*
X30915D02*
D03*
X29815D02*
D03*
X28715D02*
D03*
X27615D02*
D03*
X26515D02*
D03*
X25415D02*
D03*
X24315D02*
D03*
X23215D02*
D03*
X22115D02*
D03*
X21015D02*
D03*
X19915D02*
D03*
X18815D02*
D03*
X17715D02*
D03*
X16615D02*
D03*
X15515D02*
D03*
X14415D02*
D03*
X13315D02*
D03*
X12215D02*
D03*
X11115D02*
D03*
X10015D02*
D03*
X8915D02*
D03*
X7815D02*
D03*
X6715D02*
D03*
X5615D02*
D03*
X4515D02*
D03*
X3415D02*
D03*
X2315D02*
D03*
X1215D02*
D03*
X115D02*
D03*
X-985D02*
D03*
X-2085D02*
D03*
X-3185D02*
D03*
X-4285D02*
D03*
X-5385D02*
D03*
X-6485D02*
D03*
X-7585D02*
D03*
X-9785D02*
D03*
X-8685D02*
D03*
X25328Y1874D02*
D03*
X29769Y4259D02*
D03*
X24579Y2628D02*
D03*
X34041Y9737D02*
D03*
X32670Y9531D02*
D03*
X22349Y-5934D02*
D03*
X25441Y-2788D02*
D03*
X17028Y10201D02*
D03*
X23312Y-5533D02*
D03*
X23744Y-4559D02*
D03*
X30515Y-8285D02*
D03*
X36227Y-8220D02*
D03*
X20578Y-4985D02*
D03*
X27593Y2397D02*
D03*
X25359Y3901D02*
D03*
X30008Y1405D02*
D03*
X27650Y-5210D02*
D03*
X28250Y-6406D02*
D03*
X23711Y100D02*
D03*
X30788Y-6550D02*
D03*
X18275Y-4925D02*
D03*
X18500Y-2250D02*
D03*
X19700Y-4300D02*
D03*
M02*
