M48
;Layer_Color=9474304
;FILE_FORMAT=4:3
METRIC,LZ
;TYPE=PLATED
T2F00S00C0.200
T3F00S00C1.000
%
T02
X-0009785Y-0016917
X-0009785Y-0015817
X-0009785Y-0014717
X-0009785Y-0013617
X-0009785Y-0012517
X-0009785Y-0011417
X-0008832Y-0011967
X-0008142Y-0011658
X-0006742
X-0007442Y-0013058
X-0008832Y-0013067
Y-0014167
X-0008142Y-0014458
X-0008832Y-0015267
X-0008995Y-0016137
X-0008135Y-0015964
X-0007035
X-0005935
X-0004835
X-0003735
X-0002635
X-0001535
X-0002085Y-0016917
X-0003185
X-0004285
X-0005385
X-0006485
X-0007585
X-0008685
X-0008832Y-0010867
X-0001142Y-0011658
X0001658
X0003058
X0004458
X0005858
X0008658
X0011458
X0011665Y-0015964
X0010565
X0009465
X0008365
X0007265
X0006165
X0005065
X0003965
X0002865
X0002315Y-0016917
X0003415
X0004515
X0005615
X0006715
X0007815
X0008915
X0010015
X0011115
X0012215
X0013315
X0014415
X0015515
X0016615
X0017715
X0018815
X0019915
X0021015
X0022115
X0023215
X0024315
X0025415
X0026515
X0027615
X0028715
X0029815
X0030915
X0032015
X0033115
X0034215
X0035315
X0036415
X0037515
X0038615
X0038065Y-0015964
X0036965
X0035865
X0034765
X0033665
X0032565
X0031465
X0030365
X0029265
X0028165
X0027065
X0025965
X0024865
X0023765
X0022665
X0021565
X0020465
X0019365
X0018265
X0017165
X0016065
X0014965
X0013865
X0012765
X0016358Y-0013058
X0018772Y-0012608
X0018635Y-0011095
X0019527Y-001093
X0019677Y-0011718
X0025827Y-0011227
X0025837Y-0012483
X0003758Y-0013058
X0000665Y-0015964
X-0000435
X-0000985Y-0016917
X0000115
X0001215
X0039715
X0040815
X0041915
X0043015
X0044115
X0045215
X0046315
X0047415
X0048515
X0049615
X0050165Y-0015964
X0049065
X00493Y-0015203
X00493Y-0014384
X00493Y-0013284
X0048558Y-0013058
X0047158
X0045758
X0045058Y-0011658
X0046458
X0047858
X00493Y-0012184
X00493Y-0011084
X0050253Y-0011634
Y-0012734
X0050253Y-0013834
X0050253Y-0014934
X0047858Y-0014458
X0046458
X0045058
X0044665Y-0015964
X0043565
X0042465
X0041365
X0040265
X0039165
X0045765
X0046865
X0047965
X0043658Y-0011658
X0044358Y-0010258
X0045758
X0047158
X0048558
X00493Y-0009984
Y-0008884
Y-0007784
X0048558Y-0007458
X0047158
X0045758
X0044358
X0042958
X0041558
X0040158
X0039458Y-0008858
X0038976Y-0009752
X0040363
X0040858Y-0008858
X0042258
X0041849Y-0009752
X0043235
X0043658Y-0008858
X0045058
X0046458
X0047858
Y-0006058
X0046458
X0045058
X0043658
X0042258
X0040858
X0041558Y-0004658
X0042958
X0044358
X0043658Y-0003258
X0045058
X0045423Y-0002071
X0046166
X0046376Y-0001564
X0045794Y-0001539
X0045051
X0044308
X0043564
X0042821
X0042078
X0041335
X0040692
X0040964Y-0002071
X0041707
X004245
X0043193
X0043936
X0044679
X0044823Y0000957
X0045566
X0046309
X0045938Y0001488
X0046681
X0046458Y0002342
X0046976Y000305
X0047556Y0003451
X004808Y0003451
X0048823
X0049566
X005031
X0050253Y0004366
X0050253Y0005466
X0050253Y0006566
X0050253Y0007666
X0050253Y0008766
Y0009866
X0050253Y0010966
X0050253Y0012066
Y0013166
Y0014266
X0050253Y0015366
X0050199Y001625
X0049702Y0016895
X0048602
X0047502
X0046402
X0045302
X0044202
X0043102
X0042002
X0040902
X0039802
X0038702
X0039252Y0015942
X0040352
X0041452
X0042552
X0043652
X0044752
X0045852
X0045758Y0014942
X0047158
X0046952Y0015942
X0048052
X0049152
X00493Y0014816
X0048558Y0014942
X00493Y0013716
X00493Y0012616
X00493Y0011516
X00493Y0010416
X00493Y0009316
X0048558Y0009342
X0047158
X0045758
X0044358
X0042958
X0042258Y0010742
X0042082Y0011793
X0042825
X0044358Y0012142
X0045758
X0047158
X0048558
X0047858Y0013542
X0046458
X0045058
Y0010742
X0046458
X0047858
Y0007942
X0046458
X0045058
X0043658
X0042258
X0042958Y0006542
X0044358
X0045758
X0047158
X0048558
X00493Y0006016
X00493Y0007116
X00493Y0008216
X00493Y0004916
X0047858Y0005142
X0046458
X0045058
X0043658
X0042258
X0040858
X0041558Y0003742
X0042958
X0044358
X0043658Y0002342
X0043708Y0001488
X0042965
X0042222
X0041479
X0040736
X0040464Y0000957
X0041107
X004185
X0042593
X0043337
X004408
X0044452Y0001488
X0045195
X0045058Y0002342
X0042258
X0040536Y0002881
X0040158Y0006542
X0038758
X0039458Y0007942
X0040158Y0009342
X0038758
Y0012142
X0039477Y0011926
X004022
X0043658Y0010742
X0042258Y-0003258
X0038724Y-0003102
X0039095Y-0002571
X0038793Y-0004673
X0046826Y-000353
X0047556Y-0004035
X004808Y-0004035
X0048823
X0049566
X005031
X0050253Y-0005034
X0050253Y-0006134
X0050253Y-0007234
X0050253Y-0008334
X0050253Y-0009434
X0050253Y-0010534
X00493Y-0006684
X00493Y-0005584
X0049958Y-0001858
X0048558
X0038352Y-0002571
X0037609
X0037981Y-0003102
X0037488Y-0004373
X0037099Y-0002019
X0038058Y-0000458
X0037687Y0001574
X003843
X0038059Y0002106
X0037316
X0036944Y0001574
X0036588Y0002731
X003696Y0003263
X0036589Y0003794
X0036218Y0004326
X0036961
X003659Y0004857
X0036219Y0005389
X0036962
X0036591Y000592
X0037358Y0006542
X0036658Y0007942
X0038058
X0037358Y0009342
X0035958
X0034041Y0009737
X003267Y0009531
X0033158Y0012142
X0036488Y0012029
X0037231
X0037052Y0015942
X0038152
X0037602Y0016895
X0036502
X0035402
X0034302
X0033202
X0032102
X0031002
X0029902
X0028802
X0027702
X0026602
X0025502
X0024402
X0023302
X0022202
X0021102
X0020002
X0018902
X0017802
X0016702
X0015602
X0014502
X0013402
X0012302
X0011202
X0010102
X0009002
X0007902
X0006802
X0005702
X0004602
X0003502
X0002402
X0001302
X0000202
X-0000898
X-0000348Y0015942
X0000752
X0001852
X0002952
X0004052
X0005152
X0006252
X0007352
X0008452
X0009552
X0010652
X0011752
X0012852
X0013952
X0015052
X0016152
X0017252
X0018352
X0019452
X0020552
X0021652
X0022752
X0023852
X0024952
X0026052
X0027152
X0028252
X0029352
X0030452
X0031552
X0032652
X0033752
X0034852
X0035952
X0031758Y0014942
X0028958
Y0012142
X0024758
X0024503Y0011554
X0025246
X0025458Y0010742
X0022519Y0011558
X0021776
X002021Y001155
X0019467
X0019158Y0014942
X0016358
X0017028Y0010201
X0014258Y0007942
X0012858
X0011458
X0010058
X0008658
X0007258
X0005858
X0004458
X0003058
X0002358Y0009342
X0001658Y0010742
X0000958Y0012142
X0003758
X0004458Y0010742
X0007258
X0006558Y0012142
X0009358
X0012158
Y0006542
X0013558
X0014958
Y0003742
X0013558
X0012158
X0010758
X0009358
X0007958
X0006558
X0005158
X0003758
X0002358
X0000958
X-0000442
X0000258Y0005142
X0001658
X0003058
Y0002342
X0004458
X0005858
X0007258
X0008658
X0010058
X0011458
X0012858
X0014258
X0014958Y0000942
X0013558
X0012158
X0010758
X0009358
X0007958
X0006558
X0005158
X0003758
X0002358
X0000958
X-0000442
X0000258Y0002342
X0001658
Y-0000458
X0003058
X0004458
X0005858
X0007258
X0008658
X0010058
X0011458
X0012858
X0014258
X0014958Y-0001858
X0013558
X0012158
X0010758
X0009358
X0007958
X0006558
X0005158
X0003758
X0002358
X0000958
X-0000442
X0000258Y-0000458
Y-0003258
X0001658
X0003058
X0004458
X0005858
X0007258
X0008658
X0010058
X0011458
X0012858
X0014258
X0013558Y-0004658
X0012158
X0010758
X0009358
X0007958
X0006558
X0005158
X0003758
X0002358
X0000958
X-0000442
X0000958Y-0007458
X0001658Y-0008858
X0002358Y-0010258
X0006558
Y0006542
X0007958
X0009358
X0010758
X0005158
X0000958
X-0000442
X0000258Y0007942
X0003758Y0014942
X0018458Y0005142
X0021258
X0022658
X0023706Y0002287
X0024579Y0002628
X0025328Y0001874
X0025359Y0003901
X0027708Y0003949
Y0004532
X0027593Y0002397
X0028132Y0001544
X0030008Y0001405
X0029769Y0004259
X0028441Y0007636
X0031798Y0007019
X0038058Y0005142
X0033285Y-0002916
X0030409Y-0005175
X0030788Y-000655
X0030515Y-0008285
X002825Y-0006406
X002765Y-000521
X0023744Y-0004559
X0023312Y-0005533
X0022349Y-0005934
X0020578Y-0004985
X00197Y-00043
X0018275Y-0004925
X00185Y-000225
X0018221Y0002087
X0023711Y00001
X0024598Y-0000458
Y-0001104
X0025441Y-0002788
X00352Y-00079
X0036227Y-000822
X0033158Y-0010258
X-0001842
X-0003942Y-0008858
X-0005342
X-0006742
X-0008142
X-0008832Y-0008667
X-0008832Y-0009767
X-0009785Y-0009217
X-0009785Y-0008117
Y-0007017
Y-0005917
Y-0004817
X-0009785Y-0003717
X-0009785Y-0002617
X-0009785Y-0001517
X-0009785Y-0000417
X-0009785Y0000683
X-0009785Y0001783
X-0009785Y0002883
X-0009785Y0003983
X-0009785Y0005083
X-0009785Y0006183
X-0009785Y0007283
X-0009785Y0008383
X-0009785Y0009483
X-0009785Y0010583
X-0009785Y0011683
Y0012783
X-0009785Y0013883
X-0009785Y0014983
X-0009785Y0016083
X-0009698Y0016895
X-0008598
X-000903Y0016301
X-0008832Y0015533
X-0008832Y0014433
X-0008832Y0013333
X-0008142Y0013542
X-0006742
X-0006042Y0014942
X-0005848Y0015942
X-0004748
X-0003648
X-0002548
X-0001448
X-0001998Y0016895
X-0003098
X-0004198
X-0005298
X-0006398
X-0007498
X-0008048Y0015942
X-0006948
X-0007442Y0014942
Y0012142
X-0006042
X-0004642
X-0003242
X-0001842
X-0002542Y0010742
X-0001142
X-0001842Y0009342
X-0003242
X-0004642
X-0006042
X-0007442
X-0008832Y0008933
X-0008832Y0010033
X-0008832Y0011133
X-0008142Y0010742
X-0006742
X-0005342
X-0003942
Y0007942
X-0002542
X-0001142
X-0001842Y0006542
X-0003242
X-0004642
X-0006042
X-0007442
X-0008832Y0006733
X-0008832Y0005633
Y0004533
X-0008832Y0003433
X-0008832Y0002333
X-0008832Y0001233
X-0008832Y0000133
X-0008832Y-0000967
X-0008832Y-0002067
X-0008832Y-0003167
X-0008832Y-0004267
Y-0005367
X-0008832Y-0006467
X-0008832Y-0007567
X-0007442Y-0007458
X-0006042
X-0004642
X-0003242
X-0003942Y-0006058
X-0002542
X-0001142
X-0001842Y-0004658
X-0003242
X-0004642
X-0006042
X-0007442
X-0008142Y-0006058
X-0006742
X-0005342
Y-0003258
X-0003942
X-0002542
X-0001142
X-0001842Y-0001858
X-0003242
X-0004642
X-0006042
X-0007442
X-0008142Y-0000458
X-0006742
X-0005342
X-0003942
X-0002542
X-0001142
X-0001842Y0000942
X-0003242
X-0004642
X-0006042
X-0007442
X-0006742Y0002342
X-0005342
X-0003942
X-0002542
X-0001142
X-0001842Y0003742
X-0003242
X-0004642
X-0006042
X-0007442
X-0008142Y0005142
X-0006742
X-0005342
X-0003942
X-0002542
X-0001142
X-0005342Y0007942
X-0006742
X-0008832Y0007833
X-0008832Y0012233
X-0006742Y-0003258
X-0006042Y-0010258
X-0007442
X-0009785Y-0010317
T03
X-000513Y-0014
X-000259
X-000005
X000249
X000503
X000757
X001011
X001265
X001519
X001773
X002027
X002281
X002535
X002789
X003043
X003297
X003551
X003805
X004059
X004313
X004313Y0014
X004059
X003805
X003551
X003297
X003043
X002789
X002535
X002281
X002027
X001773
X001519
X001265
X001011
X000757
X000503
X000249
X-000005
X-000259
X-000513
M30
