G04*
G04 #@! TF.GenerationSoftware,Altium Limited,Altium Designer,22.1.2 (22)*
G04*
G04 Layer_Color=32896*
%FSLAX43Y43*%
%MOMM*%
G71*
G04*
G04 #@! TF.SameCoordinates,549D327D-CD9E-48CF-806C-D238132880F2*
G04*
G04*
G04 #@! TF.FilePolarity,Positive*
G04*
G01*
G75*
%ADD12C,0.200*%
%ADD15C,0.300*%
%ADD16C,0.254*%
%ADD17C,0.152*%
%ADD66C,0.025*%
%ADD96C,0.013*%
G36*
X63719Y-36159D02*
X63768Y-36165D01*
X63809Y-36176D01*
X63847Y-36188D01*
X63877Y-36200D01*
X63900Y-36212D01*
X63915Y-36217D01*
X63921Y-36220D01*
X63959Y-36244D01*
X63994Y-36273D01*
X64023Y-36299D01*
X64047Y-36326D01*
X64067Y-36349D01*
X64082Y-36367D01*
X64091Y-36379D01*
X64093Y-36384D01*
Y-36188D01*
X64304D01*
Y-37582D01*
X64067D01*
Y-36859D01*
X64064Y-36791D01*
X64061Y-36733D01*
X64055Y-36683D01*
X64047Y-36642D01*
X64041Y-36610D01*
X64035Y-36586D01*
X64032Y-36575D01*
X64029Y-36569D01*
X64011Y-36534D01*
X63994Y-36502D01*
X63973Y-36475D01*
X63953Y-36452D01*
X63935Y-36437D01*
X63921Y-36422D01*
X63909Y-36417D01*
X63906Y-36414D01*
X63874Y-36396D01*
X63842Y-36384D01*
X63809Y-36373D01*
X63783Y-36367D01*
X63757Y-36364D01*
X63739Y-36361D01*
X63722D01*
X63675Y-36364D01*
X63637Y-36373D01*
X63604Y-36387D01*
X63578Y-36399D01*
X63557Y-36414D01*
X63546Y-36428D01*
X63537Y-36437D01*
X63534Y-36440D01*
X63514Y-36472D01*
X63499Y-36510D01*
X63490Y-36548D01*
X63481Y-36589D01*
X63478Y-36622D01*
X63475Y-36651D01*
Y-36663D01*
Y-36671D01*
Y-36674D01*
Y-36677D01*
Y-37582D01*
X63238Y-37582D01*
Y-36774D01*
X63235Y-36698D01*
X63224Y-36633D01*
X63209Y-36581D01*
X63188Y-36537D01*
X63171Y-36502D01*
X63156Y-36478D01*
X63145Y-36466D01*
X63142Y-36461D01*
X63104Y-36428D01*
X63060Y-36402D01*
X63019Y-36384D01*
X62981Y-36373D01*
X62948Y-36367D01*
X62919Y-36361D01*
X62896D01*
X62866Y-36364D01*
X62840Y-36367D01*
X62814Y-36373D01*
X62793Y-36379D01*
X62778Y-36387D01*
X62767Y-36393D01*
X62758Y-36396D01*
X62755Y-36399D01*
X62735Y-36414D01*
X62717Y-36431D01*
X62702Y-36449D01*
X62691Y-36463D01*
X62682Y-36478D01*
X62676Y-36490D01*
X62670Y-36499D01*
Y-36502D01*
X62661Y-36528D01*
X62655Y-36560D01*
X62650Y-36627D01*
X62647Y-36657D01*
Y-36683D01*
Y-36701D01*
Y-36704D01*
Y-36707D01*
Y-37582D01*
X62409D01*
Y-36627D01*
Y-36584D01*
X62415Y-36543D01*
X62427Y-36469D01*
X62445Y-36411D01*
X62465Y-36361D01*
X62489Y-36323D01*
X62506Y-36294D01*
X62518Y-36279D01*
X62524Y-36273D01*
X62571Y-36235D01*
X62620Y-36206D01*
X62673Y-36185D01*
X62726Y-36171D01*
X62770Y-36162D01*
X62790Y-36159D01*
X62808D01*
X62822Y-36156D01*
X62843D01*
X62893Y-36159D01*
X62937Y-36168D01*
X62981Y-36179D01*
X63022Y-36194D01*
X63098Y-36235D01*
X63130Y-36256D01*
X63159Y-36279D01*
X63186Y-36302D01*
X63209Y-36323D01*
X63229Y-36343D01*
X63247Y-36364D01*
X63259Y-36379D01*
X63268Y-36390D01*
X63273Y-36399D01*
X63276Y-36402D01*
X63294Y-36361D01*
X63314Y-36323D01*
X63338Y-36294D01*
X63361Y-36267D01*
X63382Y-36247D01*
X63399Y-36232D01*
X63411Y-36223D01*
X63417Y-36220D01*
X63455Y-36200D01*
X63496Y-36182D01*
X63540Y-36171D01*
X63578Y-36165D01*
X63613Y-36159D01*
X63642Y-36156D01*
X63669D01*
X63719Y-36159D01*
D02*
G37*
G36*
X54379Y-36159D02*
X54441Y-36165D01*
X54493Y-36171D01*
X54540Y-36179D01*
X54578Y-36191D01*
X54608Y-36197D01*
X54616Y-36200D01*
X54625Y-36203D01*
X54628Y-36206D01*
X54631D01*
X54678Y-36226D01*
X54719Y-36250D01*
X54757Y-36273D01*
X54786Y-36294D01*
X54810Y-36314D01*
X54824Y-36332D01*
X54836Y-36343D01*
X54839Y-36346D01*
X54865Y-36381D01*
X54886Y-36422D01*
X54903Y-36461D01*
X54918Y-36499D01*
X54927Y-36534D01*
X54936Y-36560D01*
X54939Y-36578D01*
X54942Y-36581D01*
Y-36584D01*
X54710Y-36616D01*
X54695Y-36566D01*
X54675Y-36522D01*
X54657Y-36487D01*
X54637Y-36458D01*
X54619Y-36437D01*
X54605Y-36422D01*
X54596Y-36414D01*
X54593Y-36411D01*
X54561Y-36390D01*
X54520Y-36376D01*
X54482Y-36367D01*
X54441Y-36358D01*
X54403Y-36355D01*
X54373Y-36352D01*
X54347D01*
X54285Y-36355D01*
X54230Y-36364D01*
X54183Y-36379D01*
X54145Y-36393D01*
X54116Y-36408D01*
X54095Y-36422D01*
X54080Y-36431D01*
X54078Y-36434D01*
X54054Y-36461D01*
X54039Y-36490D01*
X54028Y-36525D01*
X54019Y-36557D01*
X54013Y-36586D01*
X54010Y-36613D01*
Y-36630D01*
Y-36633D01*
Y-36636D01*
Y-36642D01*
Y-36651D01*
Y-36671D01*
X54013Y-36689D01*
Y-36695D01*
Y-36698D01*
X54039Y-36707D01*
X54069Y-36715D01*
X54136Y-36733D01*
X54206Y-36745D01*
X54274Y-36756D01*
X54338Y-36768D01*
X54365Y-36771D01*
X54388Y-36774D01*
X54408Y-36777D01*
X54423D01*
X54432Y-36780D01*
X54435D01*
X54485Y-36786D01*
X54526Y-36791D01*
X54564Y-36797D01*
X54593Y-36803D01*
X54616Y-36809D01*
X54631Y-36812D01*
X54643Y-36815D01*
X54646D01*
X54681Y-36827D01*
X54713Y-36838D01*
X54739Y-36850D01*
X54766Y-36865D01*
X54786Y-36876D01*
X54801Y-36885D01*
X54813Y-36891D01*
X54816Y-36894D01*
X54842Y-36914D01*
X54865Y-36935D01*
X54889Y-36958D01*
X54906Y-36979D01*
X54921Y-36999D01*
X54930Y-37014D01*
X54936Y-37026D01*
X54939Y-37029D01*
X54953Y-37061D01*
X54965Y-37093D01*
X54971Y-37125D01*
X54977Y-37155D01*
X54980Y-37178D01*
X54982Y-37199D01*
Y-37210D01*
Y-37216D01*
X54977Y-37278D01*
X54962Y-37336D01*
X54944Y-37383D01*
X54921Y-37424D01*
X54898Y-37459D01*
X54880Y-37483D01*
X54865Y-37497D01*
X54860Y-37503D01*
X54810Y-37541D01*
X54751Y-37568D01*
X54695Y-37588D01*
X54637Y-37600D01*
X54587Y-37609D01*
X54564Y-37611D01*
X54546D01*
X54529Y-37614D01*
X54508D01*
X54455Y-37611D01*
X54408Y-37606D01*
X54365Y-37600D01*
X54324Y-37591D01*
X54291Y-37582D01*
X54268Y-37573D01*
X54253Y-37570D01*
X54247Y-37568D01*
X54201Y-37547D01*
X54157Y-37524D01*
X54113Y-37497D01*
X54075Y-37468D01*
X54039Y-37445D01*
X54016Y-37424D01*
X53998Y-37412D01*
X53993Y-37406D01*
X53987Y-37445D01*
X53981Y-37477D01*
X53975Y-37506D01*
X53966Y-37532D01*
X53957Y-37553D01*
X53952Y-37570D01*
X53949Y-37579D01*
X53946Y-37582D01*
X53700D01*
X53726Y-37524D01*
X53738Y-37494D01*
X53747Y-37471D01*
X53752Y-37450D01*
X53755Y-37433D01*
X53758Y-37421D01*
Y-37418D01*
X53761Y-37398D01*
X53764Y-37374D01*
Y-37348D01*
X53767Y-37316D01*
X53770Y-37248D01*
Y-37175D01*
X53773Y-37108D01*
Y-37078D01*
Y-37052D01*
Y-37032D01*
Y-37014D01*
Y-37002D01*
Y-36999D01*
Y-36683D01*
Y-36627D01*
X53776Y-36584D01*
X53779Y-36545D01*
Y-36516D01*
X53782Y-36493D01*
X53785Y-36478D01*
X53788Y-36469D01*
Y-36466D01*
X53796Y-36431D01*
X53808Y-36399D01*
X53820Y-36373D01*
X53832Y-36349D01*
X53843Y-36329D01*
X53852Y-36317D01*
X53858Y-36308D01*
X53861Y-36305D01*
X53884Y-36282D01*
X53908Y-36261D01*
X53937Y-36244D01*
X53963Y-36229D01*
X53987Y-36217D01*
X54007Y-36206D01*
X54019Y-36203D01*
X54025Y-36200D01*
X54069Y-36185D01*
X54116Y-36174D01*
X54165Y-36168D01*
X54212Y-36162D01*
X54253Y-36159D01*
X54285Y-36156D01*
X54315D01*
X54379Y-36159D01*
D02*
G37*
G36*
X58845Y-37582D02*
X58623D01*
X58096Y-36188D01*
X58339D01*
X58649Y-37040D01*
X58670Y-37096D01*
X58687Y-37146D01*
X58702Y-37193D01*
X58714Y-37231D01*
X58722Y-37260D01*
X58731Y-37283D01*
X58734Y-37298D01*
X58737Y-37304D01*
X58752Y-37251D01*
X58769Y-37199D01*
X58784Y-37152D01*
X58799Y-37111D01*
X58810Y-37076D01*
X58819Y-37049D01*
X58825Y-37032D01*
X58828Y-37026D01*
X59126Y-36188D01*
X59375D01*
X58845Y-37582D01*
D02*
G37*
G36*
X53012Y-37585D02*
X53020Y-37611D01*
X53029Y-37629D01*
X53032Y-37641D01*
X53035Y-37644D01*
X53053Y-37691D01*
X53067Y-37732D01*
X53079Y-37761D01*
X53088Y-37784D01*
X53096Y-37802D01*
X53102Y-37811D01*
X53105Y-37816D01*
Y-37819D01*
X53132Y-37852D01*
X53158Y-37875D01*
X53167Y-37884D01*
X53176Y-37890D01*
X53181Y-37896D01*
X53184D01*
X53202Y-37904D01*
X53222Y-37910D01*
X53263Y-37919D01*
X53284D01*
X53296Y-37922D01*
X53310D01*
X53357Y-37919D01*
X53398Y-37910D01*
X53419Y-37904D01*
X53433Y-37901D01*
X53442Y-37898D01*
X53445D01*
X53419Y-38118D01*
X53360Y-38136D01*
X53334Y-38142D01*
X53310Y-38144D01*
X53293D01*
X53278Y-38147D01*
X53266D01*
X53225Y-38144D01*
X53190Y-38139D01*
X53155Y-38130D01*
X53129Y-38118D01*
X53105Y-38109D01*
X53088Y-38101D01*
X53076Y-38095D01*
X53073Y-38092D01*
X53044Y-38068D01*
X53014Y-38042D01*
X52991Y-38013D01*
X52968Y-37986D01*
X52950Y-37960D01*
X52938Y-37939D01*
X52930Y-37928D01*
X52927Y-37922D01*
X52918Y-37904D01*
X52906Y-37884D01*
X52886Y-37834D01*
X52865Y-37784D01*
X52842Y-37732D01*
X52824Y-37682D01*
X52815Y-37661D01*
X52809Y-37644D01*
X52804Y-37626D01*
X52798Y-37614D01*
X52795Y-37609D01*
Y-37606D01*
X52268Y-36188D01*
X52502D01*
X52801Y-37002D01*
X52821Y-37061D01*
X52839Y-37117D01*
X52856Y-37169D01*
X52871Y-37216D01*
X52883Y-37254D01*
X52889Y-37286D01*
X52894Y-37298D01*
Y-37307D01*
X52897Y-37310D01*
Y-37313D01*
X52915Y-37251D01*
X52932Y-37193D01*
X52950Y-37137D01*
X52965Y-37090D01*
X52979Y-37049D01*
X52991Y-37017D01*
X52994Y-37005D01*
X52997Y-36996D01*
X53000Y-36994D01*
Y-36991D01*
X53290Y-36188D01*
X53542D01*
X53012Y-37585D01*
D02*
G37*
G36*
X67250Y-35846D02*
Y-36188D01*
X67426D01*
Y-36373D01*
X67250D01*
Y-37175D01*
Y-37213D01*
Y-37248D01*
X67248Y-37281D01*
Y-37310D01*
X67245Y-37336D01*
X67242Y-37357D01*
X67236Y-37395D01*
X67233Y-37424D01*
X67227Y-37442D01*
X67224Y-37453D01*
Y-37456D01*
X67212Y-37480D01*
X67195Y-37500D01*
X67180Y-37518D01*
X67163Y-37532D01*
X67148Y-37544D01*
X67136Y-37553D01*
X67127Y-37559D01*
X67125Y-37562D01*
X67095Y-37573D01*
X67063Y-37582D01*
X67028Y-37591D01*
X66996Y-37594D01*
X66966Y-37597D01*
X66943Y-37600D01*
X66922D01*
X66861Y-37597D01*
X66832Y-37594D01*
X66805Y-37588D01*
X66779Y-37585D01*
X66761Y-37582D01*
X66750Y-37579D01*
X66744D01*
X66776Y-37371D01*
X66820Y-37377D01*
X66838D01*
X66852Y-37380D01*
X66881D01*
X66917Y-37377D01*
X66943Y-37371D01*
X66958Y-37368D01*
X66963Y-37365D01*
X66981Y-37351D01*
X66993Y-37336D01*
X66999Y-37324D01*
X67002Y-37319D01*
X67004Y-37304D01*
X67007Y-37286D01*
X67010Y-37242D01*
X67013Y-37222D01*
Y-37204D01*
Y-37193D01*
Y-37190D01*
Y-36373D01*
X66776D01*
Y-36188D01*
X67013D01*
Y-35702D01*
X67250Y-35846D01*
D02*
G37*
G36*
X66504D02*
Y-36188D01*
X66679D01*
Y-36373D01*
X66504D01*
Y-37175D01*
Y-37213D01*
Y-37248D01*
X66501Y-37281D01*
Y-37310D01*
X66498Y-37336D01*
X66495Y-37357D01*
X66489Y-37395D01*
X66486Y-37424D01*
X66480Y-37442D01*
X66477Y-37453D01*
Y-37456D01*
X66466Y-37480D01*
X66448Y-37500D01*
X66433Y-37518D01*
X66416Y-37532D01*
X66401Y-37544D01*
X66389Y-37553D01*
X66381Y-37559D01*
X66378Y-37562D01*
X66348Y-37573D01*
X66316Y-37582D01*
X66281Y-37591D01*
X66249Y-37594D01*
X66220Y-37597D01*
X66196Y-37600D01*
X66176D01*
X66114Y-37597D01*
X66085Y-37594D01*
X66059Y-37588D01*
X66032Y-37585D01*
X66015Y-37582D01*
X66003Y-37579D01*
X65997D01*
X66029Y-37371D01*
X66073Y-37377D01*
X66091D01*
X66105Y-37380D01*
X66135D01*
X66170Y-37377D01*
X66196Y-37371D01*
X66211Y-37368D01*
X66217Y-37365D01*
X66234Y-37351D01*
X66246Y-37336D01*
X66252Y-37324D01*
X66255Y-37319D01*
X66258Y-37304D01*
X66261Y-37286D01*
X66264Y-37242D01*
X66266Y-37222D01*
Y-37204D01*
Y-37193D01*
Y-37190D01*
Y-36373D01*
X66029D01*
Y-36188D01*
X66266D01*
Y-35702D01*
X66504Y-35846D01*
D02*
G37*
G36*
X57369Y-36159D02*
X57419Y-36165D01*
X57466Y-36174D01*
X57510Y-36185D01*
X57554Y-36203D01*
X57592Y-36217D01*
X57627Y-36235D01*
X57659Y-36253D01*
X57689Y-36273D01*
X57712Y-36291D01*
X57735Y-36305D01*
X57753Y-36320D01*
X57768Y-36335D01*
X57776Y-36343D01*
X57782Y-36349D01*
X57785Y-36352D01*
X57817Y-36390D01*
X57844Y-36431D01*
X57867Y-36475D01*
X57888Y-36519D01*
X57905Y-36566D01*
X57920Y-36610D01*
X57940Y-36698D01*
X57949Y-36739D01*
X57955Y-36777D01*
X57958Y-36812D01*
X57961Y-36841D01*
X57964Y-36865D01*
Y-36885D01*
Y-36897D01*
Y-36900D01*
X57961Y-36961D01*
X57955Y-37020D01*
X57946Y-37076D01*
X57935Y-37125D01*
X57923Y-37172D01*
X57908Y-37216D01*
X57891Y-37254D01*
X57873Y-37289D01*
X57858Y-37322D01*
X57841Y-37351D01*
X57826Y-37374D01*
X57812Y-37392D01*
X57803Y-37406D01*
X57794Y-37418D01*
X57788Y-37424D01*
X57785Y-37427D01*
X57750Y-37459D01*
X57712Y-37488D01*
X57674Y-37515D01*
X57633Y-37535D01*
X57595Y-37553D01*
X57554Y-37568D01*
X57478Y-37591D01*
X57440Y-37600D01*
X57407Y-37606D01*
X57378Y-37609D01*
X57352Y-37611D01*
X57331Y-37614D01*
X57302D01*
X57214Y-37609D01*
X57138Y-37597D01*
X57068Y-37576D01*
X57012Y-37556D01*
X56986Y-37544D01*
X56965Y-37535D01*
X56948Y-37524D01*
X56933Y-37515D01*
X56918Y-37509D01*
X56910Y-37503D01*
X56907Y-37497D01*
X56904D01*
X56851Y-37450D01*
X56804Y-37395D01*
X56769Y-37339D01*
X56740Y-37286D01*
X56716Y-37237D01*
X56707Y-37216D01*
X56702Y-37199D01*
X56696Y-37184D01*
X56693Y-37172D01*
X56690Y-37166D01*
Y-37163D01*
X56933Y-37131D01*
X56956Y-37184D01*
X56980Y-37231D01*
X57003Y-37269D01*
X57027Y-37298D01*
X57047Y-37324D01*
X57065Y-37339D01*
X57076Y-37351D01*
X57079Y-37354D01*
X57115Y-37377D01*
X57153Y-37392D01*
X57191Y-37404D01*
X57226Y-37412D01*
X57255Y-37418D01*
X57279Y-37421D01*
X57302D01*
X57363Y-37415D01*
X57419Y-37404D01*
X57469Y-37383D01*
X57513Y-37360D01*
X57545Y-37339D01*
X57571Y-37319D01*
X57586Y-37307D01*
X57592Y-37301D01*
X57630Y-37251D01*
X57662Y-37193D01*
X57683Y-37134D01*
X57700Y-37078D01*
X57712Y-37026D01*
X57715Y-37005D01*
X57718Y-36985D01*
Y-36970D01*
X57721Y-36955D01*
Y-36950D01*
Y-36947D01*
X56684D01*
X56681Y-36920D01*
Y-36900D01*
Y-36888D01*
Y-36885D01*
X56684Y-36821D01*
X56690Y-36762D01*
X56699Y-36707D01*
X56707Y-36657D01*
X56722Y-36607D01*
X56737Y-36563D01*
X56754Y-36525D01*
X56769Y-36487D01*
X56787Y-36455D01*
X56804Y-36428D01*
X56819Y-36405D01*
X56830Y-36384D01*
X56842Y-36370D01*
X56851Y-36358D01*
X56857Y-36352D01*
X56860Y-36349D01*
X56895Y-36314D01*
X56930Y-36285D01*
X56968Y-36258D01*
X57006Y-36238D01*
X57044Y-36217D01*
X57082Y-36203D01*
X57153Y-36179D01*
X57188Y-36171D01*
X57217Y-36165D01*
X57246Y-36162D01*
X57270Y-36159D01*
X57290Y-36156D01*
X57317D01*
X57369Y-36159D01*
D02*
G37*
G36*
X70557Y-37582D02*
X69757D01*
X69699Y-37576D01*
X69646Y-37573D01*
X69599Y-37568D01*
X69564Y-37562D01*
X69538Y-37559D01*
X69520Y-37553D01*
X69514D01*
X69470Y-37538D01*
X69429Y-37524D01*
X69391Y-37509D01*
X69362Y-37494D01*
X69336Y-37480D01*
X69318Y-37468D01*
X69306Y-37462D01*
X69303Y-37459D01*
X69274Y-37433D01*
X69245Y-37404D01*
X69221Y-37374D01*
X69201Y-37345D01*
X69186Y-37319D01*
X69172Y-37298D01*
X69166Y-37283D01*
X69163Y-37278D01*
X69142Y-37234D01*
X69128Y-37190D01*
X69119Y-37146D01*
X69110Y-37108D01*
X69107Y-37076D01*
X69104Y-37049D01*
Y-37032D01*
Y-37026D01*
X69107Y-36964D01*
X69119Y-36909D01*
X69134Y-36862D01*
X69151Y-36818D01*
X69172Y-36783D01*
X69186Y-36756D01*
X69198Y-36742D01*
X69201Y-36736D01*
X69239Y-36692D01*
X69283Y-36657D01*
X69327Y-36627D01*
X69371Y-36601D01*
X69409Y-36584D01*
X69441Y-36569D01*
X69453Y-36566D01*
X69462Y-36563D01*
X69467Y-36560D01*
X69470D01*
X69421Y-36534D01*
X69380Y-36504D01*
X69344Y-36478D01*
X69315Y-36449D01*
X69295Y-36425D01*
X69277Y-36405D01*
X69268Y-36393D01*
X69265Y-36387D01*
X69242Y-36346D01*
X69227Y-36302D01*
X69216Y-36264D01*
X69207Y-36229D01*
X69201Y-36197D01*
X69198Y-36174D01*
Y-36159D01*
Y-36153D01*
X69201Y-36103D01*
X69210Y-36056D01*
X69221Y-36015D01*
X69236Y-35977D01*
X69251Y-35945D01*
X69262Y-35919D01*
X69271Y-35904D01*
X69274Y-35898D01*
X69306Y-35854D01*
X69339Y-35819D01*
X69374Y-35787D01*
X69409Y-35761D01*
X69438Y-35743D01*
X69462Y-35728D01*
X69479Y-35720D01*
X69482Y-35717D01*
X69485D01*
X69538Y-35696D01*
X69596Y-35682D01*
X69655Y-35673D01*
X69711Y-35664D01*
X69760Y-35661D01*
X69781D01*
X69801Y-35658D01*
X70557D01*
Y-37582D01*
D02*
G37*
G36*
X55911Y-36159D02*
X55940Y-36165D01*
X55967Y-36171D01*
X55987Y-36179D01*
X56008Y-36191D01*
X56022Y-36197D01*
X56031Y-36203D01*
X56034Y-36206D01*
X56060Y-36226D01*
X56084Y-36256D01*
X56110Y-36288D01*
X56133Y-36320D01*
X56151Y-36349D01*
X56166Y-36376D01*
X56177Y-36393D01*
X56180Y-36396D01*
Y-36188D01*
X56394D01*
Y-37582D01*
X56157D01*
Y-36853D01*
X56154Y-36797D01*
X56151Y-36748D01*
X56145Y-36701D01*
X56136Y-36660D01*
X56131Y-36625D01*
X56125Y-36598D01*
X56122Y-36584D01*
X56119Y-36578D01*
X56107Y-36548D01*
X56095Y-36522D01*
X56081Y-36499D01*
X56066Y-36481D01*
X56054Y-36466D01*
X56043Y-36455D01*
X56037Y-36449D01*
X56034Y-36446D01*
X56010Y-36431D01*
X55987Y-36420D01*
X55964Y-36411D01*
X55943Y-36405D01*
X55923Y-36402D01*
X55908Y-36399D01*
X55896D01*
X55864Y-36402D01*
X55832Y-36408D01*
X55803Y-36417D01*
X55776Y-36425D01*
X55756Y-36434D01*
X55738Y-36443D01*
X55726Y-36449D01*
X55723Y-36452D01*
X55639Y-36235D01*
X55685Y-36209D01*
X55729Y-36188D01*
X55770Y-36176D01*
X55805Y-36165D01*
X55838Y-36159D01*
X55861Y-36156D01*
X55882D01*
X55911Y-36159D01*
D02*
G37*
G36*
X55504Y-37582D02*
X55267D01*
Y-35658D01*
X55504D01*
Y-37582D01*
D02*
G37*
G36*
X68267Y-36159D02*
X68314Y-36162D01*
X68399Y-36179D01*
X68475Y-36206D01*
X68507Y-36220D01*
X68536Y-36232D01*
X68565Y-36247D01*
X68589Y-36261D01*
X68609Y-36276D01*
X68627Y-36288D01*
X68642Y-36297D01*
X68650Y-36305D01*
X68656Y-36308D01*
X68659Y-36311D01*
X68697Y-36349D01*
X68729Y-36390D01*
X68759Y-36434D01*
X68782Y-36481D01*
X68803Y-36528D01*
X68820Y-36575D01*
X68835Y-36622D01*
X68847Y-36668D01*
X68855Y-36712D01*
X68861Y-36753D01*
X68867Y-36789D01*
X68870Y-36821D01*
Y-36847D01*
X68873Y-36868D01*
Y-36879D01*
Y-36885D01*
X68870Y-36950D01*
X68864Y-37011D01*
X68855Y-37067D01*
X68844Y-37119D01*
X68832Y-37166D01*
X68817Y-37213D01*
X68800Y-37251D01*
X68782Y-37289D01*
X68768Y-37322D01*
X68750Y-37348D01*
X68735Y-37371D01*
X68721Y-37392D01*
X68712Y-37406D01*
X68703Y-37418D01*
X68697Y-37424D01*
X68694Y-37427D01*
X68659Y-37459D01*
X68621Y-37488D01*
X68583Y-37515D01*
X68542Y-37535D01*
X68504Y-37553D01*
X68463Y-37568D01*
X68390Y-37591D01*
X68355Y-37600D01*
X68322Y-37606D01*
X68293Y-37609D01*
X68270Y-37611D01*
X68249Y-37614D01*
X68220D01*
X68153Y-37611D01*
X68091Y-37600D01*
X68035Y-37588D01*
X67986Y-37570D01*
X67945Y-37556D01*
X67912Y-37541D01*
X67901Y-37538D01*
X67892Y-37532D01*
X67889Y-37529D01*
X67886D01*
X67830Y-37494D01*
X67784Y-37456D01*
X67743Y-37418D01*
X67710Y-37380D01*
X67684Y-37345D01*
X67663Y-37319D01*
X67652Y-37298D01*
X67649Y-37295D01*
Y-37292D01*
X67622Y-37231D01*
X67602Y-37160D01*
X67587Y-37090D01*
X67576Y-37023D01*
X67573Y-36991D01*
X67570Y-36961D01*
Y-36935D01*
X67567Y-36912D01*
Y-36894D01*
Y-36879D01*
Y-36871D01*
Y-36868D01*
X67570Y-36806D01*
X67576Y-36750D01*
X67584Y-36695D01*
X67596Y-36645D01*
X67611Y-36598D01*
X67625Y-36557D01*
X67643Y-36516D01*
X67658Y-36481D01*
X67675Y-36452D01*
X67693Y-36422D01*
X67707Y-36399D01*
X67722Y-36381D01*
X67734Y-36367D01*
X67743Y-36355D01*
X67748Y-36349D01*
X67751Y-36346D01*
X67786Y-36314D01*
X67825Y-36285D01*
X67863Y-36258D01*
X67901Y-36235D01*
X67942Y-36217D01*
X67980Y-36203D01*
X68053Y-36179D01*
X68088Y-36171D01*
X68120Y-36165D01*
X68147Y-36162D01*
X68173Y-36159D01*
X68194Y-36156D01*
X68220D01*
X68267Y-36159D01*
D02*
G37*
G36*
X65280D02*
X65326Y-36162D01*
X65411Y-36179D01*
X65487Y-36206D01*
X65520Y-36220D01*
X65549Y-36232D01*
X65578Y-36247D01*
X65602Y-36261D01*
X65622Y-36276D01*
X65640Y-36288D01*
X65654Y-36297D01*
X65663Y-36305D01*
X65669Y-36308D01*
X65672Y-36311D01*
X65710Y-36349D01*
X65742Y-36390D01*
X65772Y-36434D01*
X65795Y-36481D01*
X65815Y-36528D01*
X65833Y-36575D01*
X65848Y-36622D01*
X65859Y-36668D01*
X65868Y-36712D01*
X65874Y-36753D01*
X65880Y-36789D01*
X65883Y-36821D01*
Y-36847D01*
X65886Y-36868D01*
Y-36879D01*
Y-36885D01*
X65883Y-36950D01*
X65877Y-37011D01*
X65868Y-37067D01*
X65856Y-37119D01*
X65845Y-37166D01*
X65830Y-37213D01*
X65813Y-37251D01*
X65795Y-37289D01*
X65780Y-37322D01*
X65763Y-37348D01*
X65748Y-37371D01*
X65733Y-37392D01*
X65725Y-37406D01*
X65716Y-37418D01*
X65710Y-37424D01*
X65707Y-37427D01*
X65672Y-37459D01*
X65634Y-37488D01*
X65596Y-37515D01*
X65555Y-37535D01*
X65517Y-37553D01*
X65476Y-37568D01*
X65403Y-37591D01*
X65367Y-37600D01*
X65335Y-37606D01*
X65306Y-37609D01*
X65282Y-37611D01*
X65262Y-37614D01*
X65233D01*
X65165Y-37611D01*
X65104Y-37600D01*
X65048Y-37588D01*
X64998Y-37570D01*
X64957Y-37556D01*
X64925Y-37541D01*
X64913Y-37538D01*
X64905Y-37532D01*
X64902Y-37529D01*
X64899D01*
X64843Y-37494D01*
X64796Y-37456D01*
X64755Y-37418D01*
X64723Y-37380D01*
X64697Y-37345D01*
X64676Y-37319D01*
X64665Y-37298D01*
X64662Y-37295D01*
Y-37292D01*
X64635Y-37231D01*
X64615Y-37160D01*
X64600Y-37090D01*
X64588Y-37023D01*
X64585Y-36991D01*
X64583Y-36961D01*
Y-36935D01*
X64580Y-36912D01*
Y-36894D01*
Y-36879D01*
Y-36871D01*
Y-36868D01*
X64583Y-36806D01*
X64588Y-36750D01*
X64597Y-36695D01*
X64609Y-36645D01*
X64624Y-36598D01*
X64638Y-36557D01*
X64656Y-36516D01*
X64670Y-36481D01*
X64688Y-36452D01*
X64706Y-36422D01*
X64720Y-36399D01*
X64735Y-36381D01*
X64747Y-36367D01*
X64755Y-36355D01*
X64761Y-36349D01*
X64764Y-36346D01*
X64799Y-36314D01*
X64837Y-36285D01*
X64875Y-36258D01*
X64913Y-36235D01*
X64954Y-36217D01*
X64993Y-36203D01*
X65066Y-36179D01*
X65101Y-36171D01*
X65133Y-36165D01*
X65159Y-36162D01*
X65186Y-36159D01*
X65206Y-36156D01*
X65233D01*
X65280Y-36159D01*
D02*
G37*
G36*
X60521Y-35629D02*
X60594Y-35638D01*
X60661Y-35652D01*
X60723Y-35667D01*
X60781Y-35690D01*
X60837Y-35711D01*
X60887Y-35737D01*
X60933Y-35761D01*
X60974Y-35787D01*
X61010Y-35813D01*
X61039Y-35834D01*
X61065Y-35854D01*
X61086Y-35872D01*
X61100Y-35887D01*
X61109Y-35895D01*
X61112Y-35898D01*
X61156Y-35951D01*
X61197Y-36007D01*
X61229Y-36068D01*
X61259Y-36130D01*
X61285Y-36191D01*
X61305Y-36253D01*
X61320Y-36314D01*
X61335Y-36373D01*
X61346Y-36431D01*
X61352Y-36481D01*
X61358Y-36528D01*
X61364Y-36569D01*
Y-36601D01*
X61367Y-36627D01*
Y-36642D01*
Y-36648D01*
X61361Y-36742D01*
X61349Y-36830D01*
X61332Y-36912D01*
X61323Y-36947D01*
X61311Y-36982D01*
X61302Y-37014D01*
X61294Y-37043D01*
X61285Y-37067D01*
X61276Y-37087D01*
X61267Y-37105D01*
X61264Y-37117D01*
X61259Y-37125D01*
Y-37128D01*
X61212Y-37207D01*
X61162Y-37281D01*
X61106Y-37339D01*
X61054Y-37392D01*
X61007Y-37433D01*
X60986Y-37447D01*
X60969Y-37462D01*
X60954Y-37471D01*
X60942Y-37480D01*
X60936Y-37483D01*
X60933Y-37486D01*
X60892Y-37509D01*
X60851Y-37527D01*
X60767Y-37559D01*
X60685Y-37582D01*
X60611Y-37597D01*
X60576Y-37603D01*
X60544Y-37609D01*
X60518Y-37611D01*
X60494D01*
X60474Y-37614D01*
X60447D01*
X60357Y-37609D01*
X60269Y-37597D01*
X60190Y-37576D01*
X60122Y-37556D01*
X60090Y-37544D01*
X60064Y-37535D01*
X60040Y-37524D01*
X60020Y-37515D01*
X60002Y-37509D01*
X59990Y-37503D01*
X59985Y-37497D01*
X59982D01*
X59906Y-37447D01*
X59838Y-37392D01*
X59780Y-37333D01*
X59733Y-37278D01*
X59698Y-37228D01*
X59683Y-37204D01*
X59668Y-37187D01*
X59660Y-37169D01*
X59654Y-37158D01*
X59648Y-37152D01*
Y-37149D01*
X59607Y-37061D01*
X59578Y-36970D01*
X59557Y-36882D01*
X59542Y-36800D01*
X59537Y-36762D01*
X59534Y-36730D01*
X59531Y-36701D01*
Y-36674D01*
X59528Y-36654D01*
Y-36636D01*
Y-36627D01*
Y-36625D01*
X59534Y-36519D01*
X59545Y-36422D01*
X59563Y-36335D01*
X59575Y-36297D01*
X59583Y-36258D01*
X59595Y-36226D01*
X59607Y-36197D01*
X59616Y-36171D01*
X59624Y-36150D01*
X59630Y-36133D01*
X59636Y-36121D01*
X59642Y-36112D01*
Y-36109D01*
X59689Y-36027D01*
X59739Y-35957D01*
X59794Y-35895D01*
X59847Y-35846D01*
X59894Y-35807D01*
X59914Y-35790D01*
X59932Y-35778D01*
X59947Y-35766D01*
X59958Y-35761D01*
X59964Y-35755D01*
X59967D01*
X60008Y-35731D01*
X60049Y-35711D01*
X60131Y-35682D01*
X60213Y-35658D01*
X60286Y-35641D01*
X60321Y-35638D01*
X60351Y-35632D01*
X60380Y-35629D01*
X60403D01*
X60421Y-35626D01*
X60447D01*
X60521Y-35629D01*
D02*
G37*
G36*
X27741Y-35632D02*
X27834Y-35643D01*
X27922Y-35664D01*
X27960Y-35676D01*
X27995Y-35684D01*
X28028Y-35696D01*
X28057Y-35708D01*
X28083Y-35717D01*
X28104Y-35728D01*
X28118Y-35734D01*
X28133Y-35740D01*
X28139Y-35746D01*
X28142D01*
X28183Y-35769D01*
X28218Y-35796D01*
X28288Y-35851D01*
X28344Y-35910D01*
X28394Y-35969D01*
X28429Y-36024D01*
X28443Y-36045D01*
X28458Y-36065D01*
X28467Y-36083D01*
X28473Y-36094D01*
X28479Y-36103D01*
Y-36106D01*
X28517Y-36197D01*
X28546Y-36291D01*
X28566Y-36379D01*
X28581Y-36461D01*
X28587Y-36496D01*
X28590Y-36528D01*
X28593Y-36557D01*
Y-36584D01*
X28596Y-36604D01*
Y-36619D01*
Y-36627D01*
Y-36630D01*
X28590Y-36733D01*
X28578Y-36830D01*
X28558Y-36917D01*
X28549Y-36958D01*
X28537Y-36994D01*
X28525Y-37029D01*
X28517Y-37058D01*
X28505Y-37084D01*
X28496Y-37105D01*
X28490Y-37122D01*
X28484Y-37134D01*
X28479Y-37143D01*
Y-37146D01*
X28429Y-37225D01*
X28373Y-37295D01*
X28317Y-37357D01*
X28259Y-37406D01*
X28209Y-37445D01*
X28189Y-37459D01*
X28168Y-37471D01*
X28153Y-37483D01*
X28139Y-37488D01*
X28133Y-37491D01*
X28130Y-37494D01*
X28042Y-37535D01*
X27951Y-37565D01*
X27866Y-37585D01*
X27784Y-37600D01*
X27749Y-37606D01*
X27717Y-37609D01*
X27688Y-37611D01*
X27661D01*
X27641Y-37614D01*
X27615D01*
X27538Y-37611D01*
X27462Y-37603D01*
X27395Y-37591D01*
X27333Y-37576D01*
X27307Y-37570D01*
X27281Y-37565D01*
X27260Y-37559D01*
X27243Y-37553D01*
X27228Y-37547D01*
X27216Y-37544D01*
X27210Y-37541D01*
X27208D01*
X27134Y-37509D01*
X27061Y-37474D01*
X26997Y-37436D01*
X26938Y-37401D01*
X26888Y-37365D01*
X26868Y-37354D01*
X26850Y-37339D01*
X26836Y-37330D01*
X26827Y-37322D01*
X26821Y-37319D01*
X26818Y-37316D01*
Y-36601D01*
X27632D01*
Y-36827D01*
X27067D01*
Y-37190D01*
X27102Y-37216D01*
X27140Y-37242D01*
X27178Y-37266D01*
X27216Y-37286D01*
X27251Y-37304D01*
X27281Y-37316D01*
X27292Y-37322D01*
X27301Y-37324D01*
X27304Y-37327D01*
X27307D01*
X27366Y-37348D01*
X27424Y-37363D01*
X27480Y-37374D01*
X27527Y-37380D01*
X27568Y-37386D01*
X27600Y-37389D01*
X27629D01*
X27700Y-37386D01*
X27767Y-37377D01*
X27825Y-37363D01*
X27881Y-37348D01*
X27925Y-37333D01*
X27946Y-37324D01*
X27960Y-37319D01*
X27972Y-37316D01*
X27981Y-37310D01*
X27987Y-37307D01*
X27989D01*
X28048Y-37272D01*
X28101Y-37231D01*
X28145Y-37187D01*
X28180Y-37146D01*
X28206Y-37108D01*
X28227Y-37078D01*
X28235Y-37067D01*
X28241Y-37058D01*
X28244Y-37052D01*
Y-37049D01*
X28274Y-36979D01*
X28294Y-36909D01*
X28312Y-36835D01*
X28320Y-36765D01*
X28323Y-36736D01*
X28326Y-36707D01*
X28329Y-36680D01*
Y-36660D01*
X28332Y-36639D01*
Y-36627D01*
Y-36619D01*
Y-36616D01*
X28329Y-36540D01*
X28320Y-36466D01*
X28309Y-36402D01*
X28294Y-36343D01*
X28282Y-36297D01*
X28276Y-36276D01*
X28271Y-36261D01*
X28265Y-36247D01*
X28262Y-36238D01*
X28259Y-36232D01*
Y-36229D01*
X28241Y-36191D01*
X28224Y-36156D01*
X28203Y-36124D01*
X28183Y-36094D01*
X28165Y-36071D01*
X28151Y-36053D01*
X28142Y-36042D01*
X28139Y-36039D01*
X28107Y-36007D01*
X28074Y-35980D01*
X28039Y-35957D01*
X28007Y-35936D01*
X27978Y-35919D01*
X27954Y-35907D01*
X27940Y-35901D01*
X27934Y-35898D01*
X27884Y-35881D01*
X27834Y-35866D01*
X27782Y-35857D01*
X27735Y-35848D01*
X27694Y-35846D01*
X27661Y-35843D01*
X27632D01*
X27579Y-35846D01*
X27530Y-35851D01*
X27486Y-35860D01*
X27448Y-35869D01*
X27415Y-35878D01*
X27389Y-35887D01*
X27374Y-35892D01*
X27369Y-35895D01*
X27325Y-35916D01*
X27290Y-35936D01*
X27257Y-35960D01*
X27231Y-35980D01*
X27210Y-36001D01*
X27196Y-36015D01*
X27187Y-36027D01*
X27184Y-36030D01*
X27161Y-36065D01*
X27140Y-36103D01*
X27123Y-36141D01*
X27108Y-36176D01*
X27096Y-36212D01*
X27085Y-36238D01*
X27082Y-36256D01*
X27079Y-36258D01*
Y-36261D01*
X26847Y-36197D01*
X26868Y-36127D01*
X26891Y-36065D01*
X26915Y-36012D01*
X26938Y-35969D01*
X26962Y-35930D01*
X26979Y-35904D01*
X26991Y-35889D01*
X26994Y-35884D01*
X27032Y-35840D01*
X27076Y-35805D01*
X27120Y-35772D01*
X27164Y-35746D01*
X27202Y-35723D01*
X27231Y-35708D01*
X27243Y-35702D01*
X27251Y-35699D01*
X27257Y-35696D01*
X27260D01*
X27325Y-35673D01*
X27389Y-35655D01*
X27454Y-35643D01*
X27509Y-35635D01*
X27559Y-35629D01*
X27582D01*
X27600Y-35626D01*
X27635D01*
X27741Y-35632D01*
D02*
G37*
G36*
X29243Y-37582D02*
X28973D01*
Y-37313D01*
X29243D01*
Y-37582D01*
D02*
G37*
G36*
X26455D02*
X25655D01*
X25597Y-37576D01*
X25544Y-37573D01*
X25497Y-37568D01*
X25462Y-37562D01*
X25436Y-37559D01*
X25418Y-37553D01*
X25412D01*
X25368Y-37538D01*
X25327Y-37524D01*
X25289Y-37509D01*
X25260Y-37494D01*
X25234Y-37480D01*
X25216Y-37468D01*
X25204Y-37462D01*
X25201Y-37459D01*
X25172Y-37433D01*
X25143Y-37404D01*
X25119Y-37374D01*
X25099Y-37345D01*
X25084Y-37319D01*
X25070Y-37298D01*
X25064Y-37283D01*
X25061Y-37278D01*
X25040Y-37234D01*
X25026Y-37190D01*
X25017Y-37146D01*
X25008Y-37108D01*
X25005Y-37076D01*
X25002Y-37049D01*
Y-37032D01*
Y-37026D01*
X25005Y-36964D01*
X25017Y-36909D01*
X25032Y-36862D01*
X25049Y-36818D01*
X25070Y-36783D01*
X25084Y-36756D01*
X25096Y-36742D01*
X25099Y-36736D01*
X25137Y-36692D01*
X25181Y-36657D01*
X25225Y-36627D01*
X25269Y-36601D01*
X25307Y-36584D01*
X25339Y-36569D01*
X25351Y-36566D01*
X25360Y-36563D01*
X25365Y-36560D01*
X25368D01*
X25319Y-36534D01*
X25278Y-36504D01*
X25242Y-36478D01*
X25213Y-36449D01*
X25193Y-36425D01*
X25175Y-36405D01*
X25166Y-36393D01*
X25163Y-36387D01*
X25140Y-36346D01*
X25125Y-36302D01*
X25114Y-36264D01*
X25105Y-36229D01*
X25099Y-36197D01*
X25096Y-36174D01*
Y-36159D01*
Y-36153D01*
X25099Y-36103D01*
X25108Y-36056D01*
X25119Y-36015D01*
X25134Y-35977D01*
X25149Y-35945D01*
X25160Y-35919D01*
X25169Y-35904D01*
X25172Y-35898D01*
X25204Y-35854D01*
X25237Y-35819D01*
X25272Y-35787D01*
X25307Y-35761D01*
X25336Y-35743D01*
X25360Y-35728D01*
X25377Y-35720D01*
X25380Y-35717D01*
X25383D01*
X25436Y-35696D01*
X25494Y-35682D01*
X25553Y-35673D01*
X25608Y-35664D01*
X25658Y-35661D01*
X25679D01*
X25699Y-35658D01*
X26455D01*
Y-37582D01*
D02*
G37*
G36*
X23884Y-35629D02*
X23957Y-35638D01*
X24024Y-35652D01*
X24086Y-35667D01*
X24144Y-35690D01*
X24200Y-35711D01*
X24250Y-35737D01*
X24296Y-35761D01*
X24337Y-35787D01*
X24373Y-35813D01*
X24402Y-35834D01*
X24428Y-35854D01*
X24449Y-35872D01*
X24463Y-35887D01*
X24472Y-35895D01*
X24475Y-35898D01*
X24519Y-35951D01*
X24560Y-36007D01*
X24592Y-36068D01*
X24622Y-36130D01*
X24648Y-36191D01*
X24668Y-36253D01*
X24683Y-36314D01*
X24698Y-36373D01*
X24709Y-36431D01*
X24715Y-36481D01*
X24721Y-36528D01*
X24727Y-36569D01*
Y-36601D01*
X24730Y-36627D01*
Y-36642D01*
Y-36648D01*
X24724Y-36742D01*
X24712Y-36830D01*
X24695Y-36912D01*
X24686Y-36947D01*
X24674Y-36982D01*
X24665Y-37014D01*
X24657Y-37043D01*
X24648Y-37067D01*
X24639Y-37087D01*
X24630Y-37105D01*
X24627Y-37117D01*
X24622Y-37125D01*
Y-37128D01*
X24575Y-37207D01*
X24525Y-37281D01*
X24469Y-37339D01*
X24417Y-37392D01*
X24370Y-37433D01*
X24349Y-37447D01*
X24332Y-37462D01*
X24317Y-37471D01*
X24305Y-37480D01*
X24299Y-37483D01*
X24296Y-37486D01*
X24255Y-37509D01*
X24214Y-37527D01*
X24130Y-37559D01*
X24048Y-37582D01*
X23974Y-37597D01*
X23939Y-37603D01*
X23907Y-37609D01*
X23881Y-37611D01*
X23857D01*
X23837Y-37614D01*
X23810D01*
X23720Y-37609D01*
X23632Y-37597D01*
X23553Y-37576D01*
X23485Y-37556D01*
X23453Y-37544D01*
X23427Y-37535D01*
X23403Y-37524D01*
X23383Y-37515D01*
X23365Y-37509D01*
X23353Y-37503D01*
X23348Y-37497D01*
X23345D01*
X23269Y-37447D01*
X23201Y-37392D01*
X23143Y-37333D01*
X23096Y-37278D01*
X23061Y-37228D01*
X23046Y-37204D01*
X23031Y-37187D01*
X23023Y-37169D01*
X23017Y-37158D01*
X23011Y-37152D01*
Y-37149D01*
X22970Y-37061D01*
X22941Y-36970D01*
X22920Y-36882D01*
X22905Y-36800D01*
X22900Y-36762D01*
X22897Y-36730D01*
X22894Y-36701D01*
Y-36674D01*
X22891Y-36654D01*
Y-36636D01*
Y-36627D01*
Y-36625D01*
X22897Y-36519D01*
X22908Y-36422D01*
X22926Y-36335D01*
X22938Y-36297D01*
X22946Y-36258D01*
X22958Y-36226D01*
X22970Y-36197D01*
X22979Y-36171D01*
X22987Y-36150D01*
X22993Y-36133D01*
X22999Y-36121D01*
X23005Y-36112D01*
Y-36109D01*
X23052Y-36027D01*
X23102Y-35957D01*
X23157Y-35895D01*
X23210Y-35846D01*
X23257Y-35807D01*
X23277Y-35790D01*
X23295Y-35778D01*
X23310Y-35766D01*
X23321Y-35761D01*
X23327Y-35755D01*
X23330D01*
X23371Y-35731D01*
X23412Y-35711D01*
X23494Y-35682D01*
X23576Y-35658D01*
X23649Y-35641D01*
X23684Y-35638D01*
X23714Y-35632D01*
X23743Y-35629D01*
X23766D01*
X23784Y-35626D01*
X23810D01*
X23884Y-35629D01*
D02*
G37*
G36*
X45153Y14561D02*
X45169Y14538D01*
X45186Y14516D01*
X45204Y14495D01*
X45220Y14479D01*
X45233Y14466D01*
X45242Y14457D01*
X45243Y14456D01*
X45245Y14454D01*
X45273Y14431D01*
X45302Y14409D01*
X45331Y14390D01*
X45357Y14374D01*
X45381Y14361D01*
X45391Y14356D01*
X45400Y14352D01*
X45406Y14348D01*
X45412Y14345D01*
X45415Y14343D01*
X45416D01*
Y14228D01*
X45396Y14236D01*
X45374Y14247D01*
X45353Y14255D01*
X45334Y14266D01*
X45318Y14274D01*
X45305Y14282D01*
X45296Y14288D01*
X45295Y14289D01*
X45293D01*
X45268Y14304D01*
X45246Y14320D01*
X45227Y14333D01*
X45211Y14346D01*
X45198Y14356D01*
X45188Y14364D01*
X45182Y14370D01*
X45180Y14371D01*
Y13619D01*
X45062D01*
Y14585D01*
X45139D01*
X45153Y14561D01*
D02*
G37*
G36*
Y-13439D02*
X45169Y-13462D01*
X45186Y-13484D01*
X45204Y-13505D01*
X45220Y-13521D01*
X45233Y-13534D01*
X45242Y-13543D01*
X45243Y-13544D01*
X45245Y-13546D01*
X45273Y-13569D01*
X45302Y-13591D01*
X45331Y-13610D01*
X45357Y-13626D01*
X45381Y-13639D01*
X45391Y-13644D01*
X45400Y-13648D01*
X45406Y-13652D01*
X45412Y-13655D01*
X45415Y-13657D01*
X45416D01*
Y-13772D01*
X45396Y-13764D01*
X45374Y-13753D01*
X45353Y-13745D01*
X45334Y-13734D01*
X45318Y-13726D01*
X45305Y-13718D01*
X45296Y-13712D01*
X45295Y-13711D01*
X45293D01*
X45268Y-13696D01*
X45246Y-13680D01*
X45227Y-13667D01*
X45211Y-13654D01*
X45198Y-13644D01*
X45188Y-13636D01*
X45182Y-13630D01*
X45180Y-13629D01*
Y-14381D01*
X45062D01*
Y-13415D01*
X45139D01*
X45153Y-13439D01*
D02*
G37*
G36*
X-2665Y-4720D02*
X-4905D01*
Y7933D01*
X-2665D01*
Y-4720D01*
D02*
G37*
G36*
X26813Y-10219D02*
X26823Y-10234D01*
X26835Y-10249D01*
X26847Y-10263D01*
X26858Y-10273D01*
X26866Y-10282D01*
X26872Y-10288D01*
X26873Y-10289D01*
X26874Y-10290D01*
X26893Y-10306D01*
X26912Y-10320D01*
X26932Y-10333D01*
X26949Y-10344D01*
X26965Y-10352D01*
X26972Y-10355D01*
X26978Y-10358D01*
X26981Y-10361D01*
X26985Y-10363D01*
X26987Y-10364D01*
X26988D01*
Y-10441D01*
X26975Y-10435D01*
X26960Y-10428D01*
X26946Y-10423D01*
X26934Y-10416D01*
X26923Y-10410D01*
X26914Y-10405D01*
X26908Y-10401D01*
X26907Y-10400D01*
X26906D01*
X26890Y-10390D01*
X26875Y-10380D01*
X26862Y-10371D01*
X26852Y-10362D01*
X26843Y-10355D01*
X26836Y-10350D01*
X26832Y-10347D01*
X26831Y-10346D01*
Y-10847D01*
X26752D01*
Y-10203D01*
X26804D01*
X26813Y-10219D01*
D02*
G37*
G36*
X26315D02*
X26326Y-10234D01*
X26338Y-10249D01*
X26349Y-10263D01*
X26360Y-10273D01*
X26369Y-10282D01*
X26375Y-10288D01*
X26376Y-10289D01*
X26377Y-10290D01*
X26395Y-10306D01*
X26415Y-10320D01*
X26434Y-10333D01*
X26452Y-10344D01*
X26467Y-10352D01*
X26474Y-10355D01*
X26480Y-10358D01*
X26484Y-10361D01*
X26488Y-10363D01*
X26490Y-10364D01*
X26491D01*
Y-10441D01*
X26477Y-10435D01*
X26463Y-10428D01*
X26449Y-10423D01*
X26436Y-10416D01*
X26425Y-10410D01*
X26417Y-10405D01*
X26411Y-10401D01*
X26410Y-10400D01*
X26409D01*
X26392Y-10390D01*
X26378Y-10380D01*
X26365Y-10371D01*
X26354Y-10362D01*
X26345Y-10355D01*
X26339Y-10350D01*
X26335Y-10347D01*
X26334Y-10346D01*
Y-10847D01*
X26255D01*
Y-10203D01*
X26306D01*
X26315Y-10219D01*
D02*
G37*
G36*
X27617Y-10847D02*
X27351D01*
X27332Y-10845D01*
X27314Y-10844D01*
X27298Y-10842D01*
X27287Y-10840D01*
X27278Y-10839D01*
X27272Y-10837D01*
X27270D01*
X27255Y-10832D01*
X27242Y-10827D01*
X27229Y-10822D01*
X27219Y-10818D01*
X27211Y-10813D01*
X27205Y-10809D01*
X27201Y-10807D01*
X27200Y-10806D01*
X27190Y-10797D01*
X27180Y-10787D01*
X27173Y-10778D01*
X27166Y-10768D01*
X27161Y-10759D01*
X27156Y-10752D01*
X27154Y-10747D01*
X27153Y-10745D01*
X27146Y-10731D01*
X27141Y-10716D01*
X27138Y-10702D01*
X27136Y-10689D01*
X27135Y-10678D01*
X27134Y-10669D01*
Y-10663D01*
Y-10662D01*
X27135Y-10641D01*
X27138Y-10623D01*
X27143Y-10607D01*
X27149Y-10592D01*
X27156Y-10581D01*
X27161Y-10572D01*
X27165Y-10567D01*
X27166Y-10565D01*
X27178Y-10550D01*
X27193Y-10539D01*
X27208Y-10529D01*
X27222Y-10520D01*
X27235Y-10514D01*
X27246Y-10509D01*
X27250Y-10508D01*
X27253Y-10507D01*
X27255Y-10506D01*
X27255D01*
X27239Y-10498D01*
X27225Y-10488D01*
X27214Y-10479D01*
X27204Y-10469D01*
X27197Y-10462D01*
X27191Y-10455D01*
X27188Y-10451D01*
X27187Y-10449D01*
X27179Y-10435D01*
X27175Y-10421D01*
X27171Y-10408D01*
X27168Y-10396D01*
X27166Y-10386D01*
X27165Y-10378D01*
Y-10373D01*
Y-10371D01*
X27166Y-10354D01*
X27169Y-10339D01*
X27173Y-10325D01*
X27177Y-10312D01*
X27182Y-10302D01*
X27186Y-10293D01*
X27189Y-10288D01*
X27190Y-10286D01*
X27201Y-10271D01*
X27212Y-10260D01*
X27223Y-10249D01*
X27235Y-10240D01*
X27245Y-10234D01*
X27253Y-10229D01*
X27258Y-10227D01*
X27259Y-10226D01*
X27260D01*
X27278Y-10219D01*
X27297Y-10214D01*
X27317Y-10211D01*
X27335Y-10208D01*
X27352Y-10207D01*
X27359D01*
X27366Y-10206D01*
X27617D01*
Y-10847D01*
D02*
G37*
G36*
X28013Y-10196D02*
X28036Y-10199D01*
X28055Y-10202D01*
X28073Y-10206D01*
X28087Y-10211D01*
X28092Y-10213D01*
X28097Y-10214D01*
X28102Y-10216D01*
X28105Y-10217D01*
X28106Y-10218D01*
X28107D01*
X28126Y-10227D01*
X28142Y-10237D01*
X28156Y-10248D01*
X28166Y-10258D01*
X28175Y-10267D01*
X28182Y-10275D01*
X28186Y-10280D01*
X28187Y-10281D01*
Y-10282D01*
X28196Y-10298D01*
X28203Y-10314D01*
X28207Y-10329D01*
X28210Y-10344D01*
X28212Y-10355D01*
X28214Y-10364D01*
Y-10368D01*
Y-10371D01*
Y-10372D01*
Y-10373D01*
X28213Y-10388D01*
X28210Y-10404D01*
X28207Y-10418D01*
X28203Y-10429D01*
X28199Y-10439D01*
X28196Y-10446D01*
X28193Y-10451D01*
X28192Y-10453D01*
X28182Y-10465D01*
X28171Y-10477D01*
X28161Y-10487D01*
X28149Y-10496D01*
X28139Y-10503D01*
X28131Y-10507D01*
X28126Y-10511D01*
X28125Y-10512D01*
X28124D01*
X28117Y-10516D01*
X28108Y-10519D01*
X28089Y-10526D01*
X28069Y-10533D01*
X28048Y-10540D01*
X28030Y-10545D01*
X28022Y-10546D01*
X28015Y-10548D01*
X28009Y-10550D01*
X28005Y-10551D01*
X28002Y-10552D01*
X28001D01*
X27985Y-10556D01*
X27970Y-10560D01*
X27957Y-10563D01*
X27945Y-10566D01*
X27935Y-10569D01*
X27926Y-10572D01*
X27918Y-10574D01*
X27910Y-10576D01*
X27904Y-10578D01*
X27899Y-10580D01*
X27891Y-10582D01*
X27888Y-10583D01*
X27887Y-10584D01*
X27873Y-10589D01*
X27860Y-10596D01*
X27850Y-10602D01*
X27843Y-10608D01*
X27837Y-10614D01*
X27832Y-10618D01*
X27830Y-10621D01*
X27829Y-10622D01*
X27823Y-10630D01*
X27819Y-10639D01*
X27815Y-10648D01*
X27813Y-10657D01*
X27812Y-10663D01*
X27811Y-10669D01*
Y-10673D01*
Y-10674D01*
X27812Y-10685D01*
X27814Y-10695D01*
X27817Y-10704D01*
X27820Y-10712D01*
X27824Y-10719D01*
X27827Y-10724D01*
X27829Y-10728D01*
X27830Y-10729D01*
X27838Y-10738D01*
X27847Y-10745D01*
X27855Y-10752D01*
X27865Y-10758D01*
X27873Y-10763D01*
X27880Y-10766D01*
X27884Y-10768D01*
X27886Y-10769D01*
X27900Y-10774D01*
X27915Y-10777D01*
X27928Y-10780D01*
X27942Y-10781D01*
X27953Y-10782D01*
X27963Y-10782D01*
X27970D01*
X27990Y-10782D01*
X28008Y-10780D01*
X28026Y-10777D01*
X28040Y-10773D01*
X28052Y-10770D01*
X28061Y-10767D01*
X28067Y-10765D01*
X28068Y-10764D01*
X28069D01*
X28084Y-10756D01*
X28097Y-10748D01*
X28108Y-10740D01*
X28117Y-10732D01*
X28125Y-10725D01*
X28129Y-10719D01*
X28132Y-10715D01*
X28133Y-10714D01*
X28140Y-10702D01*
X28146Y-10689D01*
X28150Y-10675D01*
X28154Y-10663D01*
X28156Y-10651D01*
X28158Y-10642D01*
X28159Y-10636D01*
Y-10635D01*
Y-10634D01*
X28239Y-10641D01*
X28237Y-10664D01*
X28233Y-10686D01*
X28227Y-10706D01*
X28221Y-10723D01*
X28215Y-10738D01*
X28212Y-10743D01*
X28209Y-10748D01*
X28207Y-10752D01*
X28205Y-10755D01*
X28205Y-10756D01*
Y-10757D01*
X28191Y-10775D01*
X28175Y-10790D01*
X28161Y-10803D01*
X28145Y-10814D01*
X28132Y-10822D01*
X28122Y-10828D01*
X28118Y-10830D01*
X28115Y-10832D01*
X28113Y-10833D01*
X28112D01*
X28088Y-10841D01*
X28064Y-10847D01*
X28040Y-10852D01*
X28017Y-10855D01*
X28007Y-10856D01*
X27997Y-10857D01*
X27988D01*
X27981Y-10858D01*
X27967D01*
X27941Y-10857D01*
X27919Y-10854D01*
X27897Y-10850D01*
X27880Y-10845D01*
X27864Y-10841D01*
X27858Y-10839D01*
X27853Y-10837D01*
X27849Y-10835D01*
X27847Y-10834D01*
X27845Y-10833D01*
X27844D01*
X27824Y-10822D01*
X27807Y-10812D01*
X27792Y-10800D01*
X27780Y-10788D01*
X27770Y-10779D01*
X27765Y-10771D01*
X27760Y-10765D01*
X27759Y-10763D01*
X27749Y-10746D01*
X27742Y-10729D01*
X27736Y-10712D01*
X27733Y-10698D01*
X27731Y-10685D01*
X27730Y-10675D01*
Y-10671D01*
Y-10668D01*
Y-10667D01*
Y-10666D01*
X27730Y-10648D01*
X27733Y-10630D01*
X27738Y-10615D01*
X27743Y-10602D01*
X27748Y-10590D01*
X27753Y-10583D01*
X27756Y-10578D01*
X27757Y-10576D01*
X27768Y-10562D01*
X27780Y-10549D01*
X27794Y-10538D01*
X27808Y-10528D01*
X27820Y-10521D01*
X27830Y-10515D01*
X27834Y-10513D01*
X27836Y-10511D01*
X27838Y-10510D01*
X27839D01*
X27847Y-10507D01*
X27856Y-10504D01*
X27866Y-10500D01*
X27878Y-10497D01*
X27901Y-10490D01*
X27925Y-10483D01*
X27946Y-10478D01*
X27956Y-10475D01*
X27965Y-10473D01*
X27971Y-10471D01*
X27976Y-10470D01*
X27980Y-10469D01*
X27981D01*
X28000Y-10465D01*
X28016Y-10461D01*
X28031Y-10457D01*
X28045Y-10452D01*
X28056Y-10448D01*
X28066Y-10445D01*
X28075Y-10441D01*
X28083Y-10437D01*
X28089Y-10434D01*
X28095Y-10432D01*
X28099Y-10429D01*
X28102Y-10427D01*
X28107Y-10425D01*
X28108Y-10424D01*
X28116Y-10415D01*
X28122Y-10406D01*
X28126Y-10396D01*
X28129Y-10387D01*
X28131Y-10380D01*
X28132Y-10373D01*
Y-10369D01*
Y-10367D01*
X28130Y-10352D01*
X28126Y-10340D01*
X28122Y-10328D01*
X28115Y-10318D01*
X28109Y-10309D01*
X28103Y-10304D01*
X28099Y-10300D01*
X28098Y-10299D01*
X28091Y-10294D01*
X28084Y-10289D01*
X28066Y-10282D01*
X28047Y-10277D01*
X28029Y-10274D01*
X28012Y-10271D01*
X28005D01*
X27999Y-10270D01*
X27986D01*
X27960Y-10271D01*
X27937Y-10275D01*
X27918Y-10280D01*
X27902Y-10286D01*
X27890Y-10292D01*
X27882Y-10297D01*
X27877Y-10301D01*
X27875Y-10302D01*
X27862Y-10314D01*
X27851Y-10329D01*
X27844Y-10344D01*
X27838Y-10358D01*
X27834Y-10372D01*
X27832Y-10383D01*
X27831Y-10386D01*
X27830Y-10389D01*
Y-10391D01*
Y-10392D01*
X27749Y-10386D01*
X27751Y-10366D01*
X27755Y-10347D01*
X27761Y-10330D01*
X27767Y-10315D01*
X27771Y-10304D01*
X27776Y-10294D01*
X27780Y-10288D01*
X27781Y-10286D01*
X27793Y-10270D01*
X27807Y-10257D01*
X27820Y-10245D01*
X27834Y-10235D01*
X27847Y-10228D01*
X27856Y-10223D01*
X27860Y-10221D01*
X27863Y-10220D01*
X27864Y-10219D01*
X27865D01*
X27886Y-10211D01*
X27907Y-10205D01*
X27928Y-10201D01*
X27948Y-10198D01*
X27965Y-10196D01*
X27971D01*
X27978Y-10195D01*
X27990D01*
X28013Y-10196D01*
D02*
G37*
G36*
X20566Y-11591D02*
X20591Y-11596D01*
X20613Y-11603D01*
X20632Y-11611D01*
X20646Y-11619D01*
X20652Y-11623D01*
X20657Y-11626D01*
X20662Y-11629D01*
X20665Y-11631D01*
X20666Y-11632D01*
X20667Y-11633D01*
X20684Y-11651D01*
X20698Y-11670D01*
X20710Y-11691D01*
X20718Y-11710D01*
X20724Y-11728D01*
X20726Y-11735D01*
X20728Y-11742D01*
X20729Y-11747D01*
X20730Y-11751D01*
X20731Y-11754D01*
Y-11755D01*
X20652Y-11769D01*
X20648Y-11748D01*
X20643Y-11731D01*
X20637Y-11716D01*
X20630Y-11704D01*
X20624Y-11694D01*
X20619Y-11688D01*
X20615Y-11684D01*
X20614Y-11683D01*
X20602Y-11673D01*
X20589Y-11666D01*
X20576Y-11660D01*
X20564Y-11657D01*
X20554Y-11655D01*
X20545Y-11653D01*
X20537D01*
X20521Y-11654D01*
X20506Y-11658D01*
X20493Y-11662D01*
X20483Y-11668D01*
X20474Y-11673D01*
X20467Y-11678D01*
X20463Y-11682D01*
X20462Y-11683D01*
X20452Y-11693D01*
X20446Y-11706D01*
X20440Y-11718D01*
X20437Y-11729D01*
X20435Y-11739D01*
X20433Y-11747D01*
Y-11752D01*
Y-11753D01*
Y-11754D01*
X20435Y-11773D01*
X20440Y-11790D01*
X20446Y-11804D01*
X20453Y-11814D01*
X20461Y-11823D01*
X20467Y-11830D01*
X20472Y-11834D01*
X20474Y-11835D01*
X20489Y-11844D01*
X20505Y-11849D01*
X20520Y-11854D01*
X20533Y-11857D01*
X20546Y-11859D01*
X20555Y-11860D01*
X20567D01*
X20571Y-11859D01*
X20576D01*
X20585Y-11929D01*
X20573Y-11926D01*
X20563Y-11924D01*
X20553Y-11923D01*
X20545Y-11922D01*
X20538Y-11921D01*
X20529D01*
X20510Y-11923D01*
X20493Y-11927D01*
X20478Y-11931D01*
X20465Y-11938D01*
X20454Y-11945D01*
X20447Y-11950D01*
X20443Y-11954D01*
X20441Y-11956D01*
X20429Y-11969D01*
X20420Y-11984D01*
X20413Y-12000D01*
X20409Y-12013D01*
X20407Y-12026D01*
X20406Y-12036D01*
X20405Y-12040D01*
Y-12043D01*
Y-12044D01*
Y-12045D01*
X20407Y-12065D01*
X20410Y-12084D01*
X20416Y-12100D01*
X20423Y-12114D01*
X20431Y-12126D01*
X20437Y-12133D01*
X20441Y-12138D01*
X20443Y-12140D01*
X20457Y-12153D01*
X20473Y-12163D01*
X20488Y-12168D01*
X20504Y-12173D01*
X20517Y-12176D01*
X20526Y-12177D01*
X20530Y-12178D01*
X20536D01*
X20553Y-12177D01*
X20568Y-12173D01*
X20582Y-12168D01*
X20593Y-12164D01*
X20603Y-12158D01*
X20609Y-12154D01*
X20613Y-12150D01*
X20615Y-12149D01*
X20626Y-12136D01*
X20636Y-12122D01*
X20644Y-12105D01*
X20649Y-12089D01*
X20654Y-12075D01*
X20657Y-12063D01*
X20659Y-12059D01*
Y-12055D01*
X20660Y-12053D01*
Y-12052D01*
X20739Y-12063D01*
X20737Y-12078D01*
X20734Y-12091D01*
X20725Y-12117D01*
X20716Y-12139D01*
X20704Y-12159D01*
X20699Y-12166D01*
X20693Y-12173D01*
X20688Y-12179D01*
X20684Y-12185D01*
X20681Y-12189D01*
X20678Y-12192D01*
X20677Y-12193D01*
X20676Y-12194D01*
X20665Y-12203D01*
X20653Y-12210D01*
X20643Y-12217D01*
X20631Y-12222D01*
X20607Y-12232D01*
X20585Y-12238D01*
X20575Y-12240D01*
X20565Y-12241D01*
X20558Y-12242D01*
X20550Y-12243D01*
X20544Y-12244D01*
X20536D01*
X20520Y-12243D01*
X20503Y-12241D01*
X20487Y-12239D01*
X20473Y-12235D01*
X20459Y-12230D01*
X20447Y-12225D01*
X20435Y-12220D01*
X20424Y-12214D01*
X20415Y-12209D01*
X20407Y-12205D01*
X20399Y-12200D01*
X20393Y-12195D01*
X20388Y-12191D01*
X20385Y-12189D01*
X20383Y-12187D01*
X20382Y-12186D01*
X20371Y-12174D01*
X20362Y-12163D01*
X20354Y-12151D01*
X20347Y-12139D01*
X20340Y-12127D01*
X20335Y-12115D01*
X20328Y-12092D01*
X20326Y-12083D01*
X20324Y-12073D01*
X20323Y-12065D01*
X20322Y-12057D01*
X20321Y-12051D01*
Y-12047D01*
Y-12045D01*
Y-12044D01*
X20322Y-12021D01*
X20326Y-12001D01*
X20330Y-11983D01*
X20336Y-11968D01*
X20343Y-11957D01*
X20348Y-11948D01*
X20352Y-11942D01*
X20353Y-11940D01*
X20366Y-11926D01*
X20380Y-11914D01*
X20395Y-11904D01*
X20408Y-11897D01*
X20421Y-11891D01*
X20431Y-11889D01*
X20435Y-11887D01*
X20438D01*
X20440Y-11886D01*
X20441D01*
X20425Y-11878D01*
X20411Y-11868D01*
X20401Y-11859D01*
X20391Y-11850D01*
X20384Y-11843D01*
X20378Y-11837D01*
X20375Y-11833D01*
X20374Y-11831D01*
X20367Y-11818D01*
X20362Y-11805D01*
X20358Y-11792D01*
X20355Y-11780D01*
X20353Y-11770D01*
X20352Y-11763D01*
Y-11758D01*
Y-11756D01*
X20353Y-11739D01*
X20356Y-11725D01*
X20360Y-11711D01*
X20364Y-11698D01*
X20368Y-11689D01*
X20371Y-11681D01*
X20374Y-11676D01*
X20375Y-11674D01*
X20385Y-11660D01*
X20396Y-11648D01*
X20407Y-11637D01*
X20418Y-11628D01*
X20428Y-11621D01*
X20436Y-11616D01*
X20442Y-11613D01*
X20443Y-11612D01*
X20444D01*
X20460Y-11605D01*
X20477Y-11599D01*
X20493Y-11595D01*
X20508Y-11592D01*
X20521Y-11590D01*
X20530Y-11589D01*
X20553D01*
X20566Y-11591D01*
D02*
G37*
G36*
X21108Y-11583D02*
X21137Y-11587D01*
X21163Y-11594D01*
X21175Y-11597D01*
X21186Y-11601D01*
X21196Y-11605D01*
X21205Y-11608D01*
X21213Y-11611D01*
X21219Y-11614D01*
X21225Y-11616D01*
X21229Y-11618D01*
X21231Y-11620D01*
X21232D01*
X21256Y-11636D01*
X21278Y-11654D01*
X21297Y-11673D01*
X21312Y-11691D01*
X21324Y-11708D01*
X21329Y-11715D01*
X21333Y-11721D01*
X21336Y-11727D01*
X21338Y-11731D01*
X21340Y-11732D01*
Y-11733D01*
X21353Y-11762D01*
X21362Y-11792D01*
X21368Y-11821D01*
X21373Y-11849D01*
X21375Y-11861D01*
X21376Y-11872D01*
X21377Y-11883D01*
Y-11891D01*
X21378Y-11898D01*
Y-11903D01*
Y-11907D01*
Y-11908D01*
X21377Y-11942D01*
X21373Y-11973D01*
X21367Y-12003D01*
X21364Y-12016D01*
X21361Y-12028D01*
X21358Y-12040D01*
X21356Y-12049D01*
X21353Y-12058D01*
X21350Y-12066D01*
X21348Y-12072D01*
X21346Y-12076D01*
X21345Y-12079D01*
Y-12080D01*
X21331Y-12108D01*
X21315Y-12132D01*
X21299Y-12154D01*
X21282Y-12170D01*
X21269Y-12184D01*
X21257Y-12194D01*
X21252Y-12197D01*
X21249Y-12200D01*
X21247Y-12201D01*
X21246Y-12202D01*
X21234Y-12209D01*
X21220Y-12215D01*
X21193Y-12226D01*
X21164Y-12233D01*
X21137Y-12239D01*
X21125Y-12240D01*
X21114Y-12242D01*
X21104Y-12243D01*
X21095D01*
X21087Y-12244D01*
X21078D01*
X21059Y-12243D01*
X21041Y-12242D01*
X21009Y-12235D01*
X20995Y-12231D01*
X20980Y-12226D01*
X20967Y-12221D01*
X20956Y-12216D01*
X20945Y-12211D01*
X20936Y-12206D01*
X20928Y-12202D01*
X20921Y-12198D01*
X20916Y-12194D01*
X20912Y-12191D01*
X20910Y-12190D01*
X20909Y-12189D01*
X20896Y-12178D01*
X20884Y-12166D01*
X20865Y-12141D01*
X20847Y-12115D01*
X20835Y-12088D01*
X20829Y-12077D01*
X20825Y-12066D01*
X20821Y-12055D01*
X20817Y-12047D01*
X20815Y-12040D01*
X20813Y-12035D01*
X20812Y-12031D01*
Y-12030D01*
X20897Y-12008D01*
X20905Y-12037D01*
X20915Y-12062D01*
X20926Y-12083D01*
X20937Y-12100D01*
X20948Y-12113D01*
X20957Y-12123D01*
X20962Y-12128D01*
X20963Y-12129D01*
X20964Y-12130D01*
X20984Y-12144D01*
X21003Y-12154D01*
X21024Y-12162D01*
X21042Y-12166D01*
X21059Y-12169D01*
X21067Y-12170D01*
X21073D01*
X21078Y-12171D01*
X21084D01*
X21106Y-12170D01*
X21126Y-12166D01*
X21145Y-12162D01*
X21160Y-12157D01*
X21174Y-12151D01*
X21185Y-12147D01*
X21189Y-12145D01*
X21192Y-12143D01*
X21193Y-12142D01*
X21194D01*
X21211Y-12129D01*
X21226Y-12115D01*
X21238Y-12100D01*
X21249Y-12085D01*
X21257Y-12072D01*
X21262Y-12060D01*
X21264Y-12056D01*
X21266Y-12053D01*
X21267Y-12051D01*
Y-12050D01*
X21275Y-12027D01*
X21280Y-12003D01*
X21284Y-11978D01*
X21287Y-11956D01*
X21288Y-11946D01*
X21289Y-11937D01*
Y-11929D01*
X21290Y-11922D01*
Y-11916D01*
Y-11912D01*
Y-11909D01*
Y-11908D01*
X21289Y-11885D01*
X21287Y-11862D01*
X21284Y-11842D01*
X21280Y-11823D01*
X21277Y-11808D01*
X21276Y-11801D01*
X21274Y-11796D01*
X21273Y-11791D01*
X21272Y-11788D01*
X21271Y-11786D01*
Y-11785D01*
X21262Y-11764D01*
X21251Y-11744D01*
X21239Y-11729D01*
X21229Y-11715D01*
X21218Y-11704D01*
X21209Y-11696D01*
X21203Y-11691D01*
X21202Y-11690D01*
X21201D01*
X21182Y-11678D01*
X21161Y-11669D01*
X21141Y-11662D01*
X21121Y-11658D01*
X21104Y-11655D01*
X21097Y-11654D01*
X21090D01*
X21085Y-11653D01*
X21079D01*
X21055Y-11654D01*
X21035Y-11658D01*
X21016Y-11663D01*
X21001Y-11669D01*
X20989Y-11676D01*
X20980Y-11681D01*
X20974Y-11685D01*
X20972Y-11686D01*
X20957Y-11699D01*
X20944Y-11715D01*
X20932Y-11732D01*
X20923Y-11749D01*
X20917Y-11764D01*
X20914Y-11770D01*
X20911Y-11776D01*
X20909Y-11781D01*
X20908Y-11785D01*
X20907Y-11787D01*
Y-11788D01*
X20823Y-11769D01*
X20835Y-11737D01*
X20842Y-11723D01*
X20848Y-11710D01*
X20856Y-11697D01*
X20864Y-11686D01*
X20871Y-11676D01*
X20879Y-11666D01*
X20885Y-11658D01*
X20892Y-11651D01*
X20899Y-11645D01*
X20904Y-11640D01*
X20909Y-11636D01*
X20912Y-11633D01*
X20914Y-11632D01*
X20915Y-11631D01*
X20927Y-11622D01*
X20940Y-11614D01*
X20954Y-11608D01*
X20967Y-11602D01*
X20995Y-11593D01*
X21020Y-11587D01*
X21032Y-11585D01*
X21042Y-11584D01*
X21052Y-11583D01*
X21060Y-11582D01*
X21067Y-11581D01*
X21077D01*
X21108Y-11583D01*
D02*
G37*
G36*
X20238Y-11675D02*
X19924D01*
X19946Y-11702D01*
X19967Y-11731D01*
X19986Y-11759D01*
X20004Y-11785D01*
X20011Y-11798D01*
X20017Y-11809D01*
X20023Y-11818D01*
X20028Y-11827D01*
X20032Y-11834D01*
X20035Y-11839D01*
X20037Y-11843D01*
X20038Y-11844D01*
X20056Y-11881D01*
X20073Y-11918D01*
X20087Y-11953D01*
X20092Y-11969D01*
X20098Y-11984D01*
X20103Y-11999D01*
X20107Y-12011D01*
X20111Y-12022D01*
X20114Y-12032D01*
X20116Y-12040D01*
X20118Y-12046D01*
X20119Y-12049D01*
Y-12050D01*
X20129Y-12089D01*
X20132Y-12107D01*
X20135Y-12125D01*
X20138Y-12140D01*
X20140Y-12155D01*
X20142Y-12169D01*
X20144Y-12182D01*
X20145Y-12193D01*
X20146Y-12204D01*
X20147Y-12212D01*
Y-12219D01*
X20148Y-12225D01*
Y-12229D01*
Y-12232D01*
Y-12233D01*
X20067D01*
X20064Y-12198D01*
X20060Y-12165D01*
X20055Y-12135D01*
X20052Y-12122D01*
X20051Y-12109D01*
X20048Y-12098D01*
X20046Y-12087D01*
X20044Y-12079D01*
X20042Y-12071D01*
X20040Y-12065D01*
X20039Y-12061D01*
X20038Y-12058D01*
Y-12057D01*
X20024Y-12014D01*
X20010Y-11974D01*
X20002Y-11955D01*
X19994Y-11936D01*
X19986Y-11919D01*
X19979Y-11903D01*
X19972Y-11889D01*
X19966Y-11875D01*
X19960Y-11863D01*
X19955Y-11853D01*
X19951Y-11846D01*
X19948Y-11840D01*
X19946Y-11836D01*
X19945Y-11835D01*
X19933Y-11815D01*
X19923Y-11796D01*
X19911Y-11778D01*
X19900Y-11762D01*
X19891Y-11746D01*
X19880Y-11732D01*
X19870Y-11719D01*
X19861Y-11707D01*
X19853Y-11697D01*
X19846Y-11688D01*
X19839Y-11680D01*
X19834Y-11673D01*
X19829Y-11668D01*
X19826Y-11664D01*
X19824Y-11662D01*
X19823Y-11661D01*
Y-11600D01*
X20238D01*
Y-11675D01*
D02*
G37*
G36*
X20232Y-9930D02*
X20257Y-9934D01*
X20279Y-9941D01*
X20298Y-9949D01*
X20312Y-9958D01*
X20318Y-9962D01*
X20323Y-9965D01*
X20328Y-9968D01*
X20331Y-9970D01*
X20332Y-9971D01*
X20333Y-9972D01*
X20350Y-9989D01*
X20364Y-10009D01*
X20376Y-10029D01*
X20384Y-10049D01*
X20390Y-10066D01*
X20392Y-10074D01*
X20394Y-10081D01*
X20395Y-10086D01*
X20396Y-10090D01*
X20397Y-10092D01*
Y-10093D01*
X20318Y-10107D01*
X20314Y-10087D01*
X20309Y-10069D01*
X20303Y-10054D01*
X20296Y-10043D01*
X20290Y-10033D01*
X20285Y-10026D01*
X20281Y-10022D01*
X20280Y-10021D01*
X20268Y-10011D01*
X20255Y-10005D01*
X20242Y-9999D01*
X20230Y-9996D01*
X20220Y-9994D01*
X20211Y-9992D01*
X20203D01*
X20187Y-9993D01*
X20172Y-9997D01*
X20159Y-10001D01*
X20149Y-10007D01*
X20140Y-10011D01*
X20133Y-10016D01*
X20129Y-10020D01*
X20128Y-10021D01*
X20118Y-10032D01*
X20112Y-10045D01*
X20106Y-10056D01*
X20103Y-10067D01*
X20101Y-10078D01*
X20099Y-10086D01*
Y-10090D01*
Y-10091D01*
Y-10092D01*
X20101Y-10112D01*
X20106Y-10129D01*
X20112Y-10142D01*
X20119Y-10153D01*
X20127Y-10162D01*
X20133Y-10169D01*
X20138Y-10172D01*
X20140Y-10173D01*
X20155Y-10182D01*
X20171Y-10188D01*
X20186Y-10193D01*
X20199Y-10196D01*
X20212Y-10198D01*
X20221Y-10199D01*
X20233D01*
X20237Y-10198D01*
X20242D01*
X20251Y-10267D01*
X20239Y-10264D01*
X20229Y-10262D01*
X20219Y-10261D01*
X20211Y-10260D01*
X20204Y-10259D01*
X20195D01*
X20176Y-10261D01*
X20159Y-10265D01*
X20144Y-10270D01*
X20131Y-10277D01*
X20120Y-10284D01*
X20112Y-10288D01*
X20109Y-10292D01*
X20107Y-10294D01*
X20095Y-10308D01*
X20086Y-10323D01*
X20079Y-10338D01*
X20075Y-10352D01*
X20073Y-10365D01*
X20072Y-10374D01*
X20071Y-10378D01*
Y-10381D01*
Y-10382D01*
Y-10383D01*
X20073Y-10404D01*
X20076Y-10422D01*
X20082Y-10439D01*
X20089Y-10452D01*
X20097Y-10464D01*
X20103Y-10472D01*
X20107Y-10477D01*
X20109Y-10479D01*
X20123Y-10491D01*
X20139Y-10501D01*
X20154Y-10507D01*
X20170Y-10512D01*
X20183Y-10515D01*
X20192Y-10516D01*
X20196Y-10517D01*
X20202D01*
X20219Y-10516D01*
X20234Y-10512D01*
X20248Y-10507D01*
X20259Y-10502D01*
X20269Y-10496D01*
X20275Y-10492D01*
X20279Y-10488D01*
X20281Y-10487D01*
X20292Y-10475D01*
X20302Y-10460D01*
X20310Y-10444D01*
X20315Y-10428D01*
X20320Y-10413D01*
X20323Y-10402D01*
X20325Y-10398D01*
Y-10394D01*
X20326Y-10392D01*
Y-10391D01*
X20405Y-10402D01*
X20403Y-10416D01*
X20400Y-10430D01*
X20391Y-10455D01*
X20382Y-10478D01*
X20370Y-10497D01*
X20365Y-10505D01*
X20359Y-10512D01*
X20354Y-10518D01*
X20350Y-10524D01*
X20347Y-10527D01*
X20344Y-10530D01*
X20343Y-10531D01*
X20342Y-10532D01*
X20331Y-10541D01*
X20319Y-10549D01*
X20309Y-10556D01*
X20297Y-10561D01*
X20273Y-10570D01*
X20251Y-10576D01*
X20241Y-10578D01*
X20231Y-10579D01*
X20224Y-10580D01*
X20216Y-10581D01*
X20210Y-10582D01*
X20202D01*
X20186Y-10581D01*
X20169Y-10579D01*
X20153Y-10577D01*
X20139Y-10573D01*
X20125Y-10568D01*
X20112Y-10564D01*
X20101Y-10559D01*
X20090Y-10553D01*
X20081Y-10548D01*
X20073Y-10543D01*
X20065Y-10538D01*
X20059Y-10533D01*
X20054Y-10529D01*
X20051Y-10527D01*
X20049Y-10526D01*
X20048Y-10525D01*
X20037Y-10513D01*
X20028Y-10501D01*
X20020Y-10489D01*
X20013Y-10478D01*
X20006Y-10466D01*
X20001Y-10453D01*
X19994Y-10431D01*
X19992Y-10421D01*
X19990Y-10411D01*
X19989Y-10404D01*
X19988Y-10396D01*
X19987Y-10390D01*
Y-10386D01*
Y-10383D01*
Y-10382D01*
X19988Y-10360D01*
X19992Y-10339D01*
X19996Y-10322D01*
X20002Y-10307D01*
X20009Y-10295D01*
X20014Y-10287D01*
X20018Y-10281D01*
X20019Y-10279D01*
X20032Y-10264D01*
X20046Y-10252D01*
X20061Y-10243D01*
X20074Y-10236D01*
X20087Y-10230D01*
X20097Y-10227D01*
X20101Y-10225D01*
X20104D01*
X20106Y-10224D01*
X20107D01*
X20091Y-10216D01*
X20077Y-10207D01*
X20067Y-10198D01*
X20057Y-10189D01*
X20050Y-10181D01*
X20044Y-10175D01*
X20041Y-10171D01*
X20040Y-10169D01*
X20033Y-10157D01*
X20028Y-10143D01*
X20024Y-10130D01*
X20021Y-10119D01*
X20019Y-10109D01*
X20018Y-10101D01*
Y-10096D01*
Y-10094D01*
X20019Y-10078D01*
X20022Y-10063D01*
X20026Y-10050D01*
X20030Y-10037D01*
X20034Y-10027D01*
X20037Y-10019D01*
X20040Y-10014D01*
X20041Y-10012D01*
X20051Y-9999D01*
X20062Y-9986D01*
X20073Y-9975D01*
X20084Y-9967D01*
X20094Y-9960D01*
X20102Y-9955D01*
X20108Y-9952D01*
X20109Y-9951D01*
X20110D01*
X20126Y-9943D01*
X20143Y-9937D01*
X20159Y-9933D01*
X20174Y-9931D01*
X20187Y-9929D01*
X20196Y-9928D01*
X20219D01*
X20232Y-9930D01*
D02*
G37*
G36*
X19895Y-10269D02*
X19821Y-10280D01*
X19814Y-10270D01*
X19806Y-10261D01*
X19798Y-10253D01*
X19792Y-10247D01*
X19785Y-10242D01*
X19779Y-10238D01*
X19775Y-10236D01*
X19774Y-10235D01*
X19762Y-10229D01*
X19751Y-10224D01*
X19739Y-10221D01*
X19728Y-10218D01*
X19718Y-10217D01*
X19712Y-10216D01*
X19705D01*
X19683Y-10218D01*
X19664Y-10222D01*
X19646Y-10229D01*
X19633Y-10236D01*
X19621Y-10243D01*
X19613Y-10249D01*
X19608Y-10253D01*
X19606Y-10255D01*
X19594Y-10271D01*
X19584Y-10288D01*
X19577Y-10306D01*
X19573Y-10323D01*
X19570Y-10338D01*
X19569Y-10345D01*
Y-10351D01*
X19568Y-10355D01*
Y-10359D01*
Y-10361D01*
Y-10362D01*
X19570Y-10387D01*
X19574Y-10409D01*
X19581Y-10429D01*
X19588Y-10446D01*
X19595Y-10458D01*
X19601Y-10468D01*
X19605Y-10474D01*
X19607Y-10475D01*
Y-10476D01*
X19615Y-10484D01*
X19623Y-10489D01*
X19638Y-10500D01*
X19655Y-10507D01*
X19670Y-10513D01*
X19683Y-10516D01*
X19694Y-10517D01*
X19698Y-10518D01*
X19704D01*
X19720Y-10517D01*
X19736Y-10513D01*
X19750Y-10508D01*
X19761Y-10503D01*
X19771Y-10497D01*
X19778Y-10493D01*
X19782Y-10489D01*
X19784Y-10488D01*
X19796Y-10476D01*
X19804Y-10461D01*
X19812Y-10446D01*
X19817Y-10432D01*
X19821Y-10418D01*
X19824Y-10407D01*
X19825Y-10404D01*
X19826Y-10401D01*
Y-10399D01*
Y-10398D01*
X19909Y-10404D01*
X19907Y-10418D01*
X19904Y-10433D01*
X19896Y-10458D01*
X19885Y-10481D01*
X19875Y-10499D01*
X19869Y-10507D01*
X19864Y-10514D01*
X19859Y-10520D01*
X19855Y-10525D01*
X19851Y-10528D01*
X19848Y-10531D01*
X19847Y-10532D01*
X19846Y-10533D01*
X19836Y-10542D01*
X19824Y-10549D01*
X19812Y-10556D01*
X19800Y-10562D01*
X19777Y-10570D01*
X19755Y-10576D01*
X19744Y-10578D01*
X19734Y-10579D01*
X19725Y-10580D01*
X19718Y-10581D01*
X19713Y-10582D01*
X19704D01*
X19684Y-10581D01*
X19666Y-10579D01*
X19649Y-10575D01*
X19633Y-10570D01*
X19618Y-10565D01*
X19603Y-10558D01*
X19591Y-10551D01*
X19580Y-10543D01*
X19569Y-10536D01*
X19560Y-10529D01*
X19553Y-10523D01*
X19547Y-10517D01*
X19542Y-10512D01*
X19538Y-10508D01*
X19536Y-10506D01*
X19535Y-10505D01*
X19526Y-10493D01*
X19519Y-10481D01*
X19512Y-10468D01*
X19506Y-10454D01*
X19497Y-10430D01*
X19490Y-10407D01*
X19488Y-10396D01*
X19487Y-10386D01*
X19486Y-10377D01*
X19485Y-10369D01*
X19484Y-10364D01*
Y-10359D01*
Y-10356D01*
Y-10355D01*
X19485Y-10338D01*
X19487Y-10322D01*
X19490Y-10307D01*
X19493Y-10292D01*
X19498Y-10280D01*
X19503Y-10267D01*
X19508Y-10256D01*
X19514Y-10246D01*
X19519Y-10237D01*
X19524Y-10229D01*
X19529Y-10222D01*
X19534Y-10216D01*
X19537Y-10211D01*
X19540Y-10209D01*
X19542Y-10207D01*
X19543Y-10206D01*
X19554Y-10195D01*
X19565Y-10186D01*
X19577Y-10178D01*
X19590Y-10171D01*
X19601Y-10166D01*
X19613Y-10162D01*
X19636Y-10154D01*
X19645Y-10152D01*
X19655Y-10150D01*
X19663Y-10149D01*
X19671Y-10148D01*
X19677Y-10147D01*
X19684D01*
X19708Y-10149D01*
X19730Y-10154D01*
X19751Y-10160D01*
X19768Y-10168D01*
X19784Y-10175D01*
X19790Y-10178D01*
X19796Y-10181D01*
X19799Y-10184D01*
X19802Y-10186D01*
X19804Y-10187D01*
X19805Y-10188D01*
X19770Y-10015D01*
X19515D01*
Y-9940D01*
X19833D01*
X19895Y-10269D01*
D02*
G37*
G36*
X20774Y-9922D02*
X20803Y-9926D01*
X20829Y-9932D01*
X20841Y-9935D01*
X20852Y-9939D01*
X20862Y-9943D01*
X20871Y-9946D01*
X20879Y-9950D01*
X20885Y-9953D01*
X20891Y-9955D01*
X20895Y-9957D01*
X20897Y-9959D01*
X20898D01*
X20922Y-9974D01*
X20944Y-9993D01*
X20963Y-10011D01*
X20978Y-10030D01*
X20990Y-10047D01*
X20995Y-10053D01*
X20999Y-10059D01*
X21002Y-10065D01*
X21004Y-10069D01*
X21006Y-10071D01*
Y-10072D01*
X21019Y-10100D01*
X21028Y-10130D01*
X21034Y-10160D01*
X21039Y-10187D01*
X21041Y-10200D01*
X21042Y-10210D01*
X21043Y-10221D01*
Y-10230D01*
X21044Y-10237D01*
Y-10242D01*
Y-10246D01*
Y-10247D01*
X21043Y-10281D01*
X21039Y-10312D01*
X21033Y-10341D01*
X21030Y-10355D01*
X21027Y-10367D01*
X21024Y-10378D01*
X21022Y-10388D01*
X21019Y-10397D01*
X21016Y-10405D01*
X21014Y-10410D01*
X21012Y-10414D01*
X21011Y-10417D01*
Y-10418D01*
X20997Y-10446D01*
X20981Y-10471D01*
X20965Y-10492D01*
X20948Y-10509D01*
X20935Y-10523D01*
X20923Y-10532D01*
X20918Y-10535D01*
X20915Y-10538D01*
X20913Y-10539D01*
X20912Y-10540D01*
X20900Y-10548D01*
X20886Y-10554D01*
X20859Y-10565D01*
X20830Y-10571D01*
X20803Y-10577D01*
X20791Y-10578D01*
X20780Y-10580D01*
X20770Y-10581D01*
X20761D01*
X20753Y-10582D01*
X20744D01*
X20725Y-10581D01*
X20707Y-10580D01*
X20675Y-10573D01*
X20661Y-10569D01*
X20646Y-10565D01*
X20633Y-10560D01*
X20622Y-10555D01*
X20611Y-10550D01*
X20602Y-10545D01*
X20594Y-10540D01*
X20587Y-10536D01*
X20582Y-10532D01*
X20578Y-10529D01*
X20576Y-10528D01*
X20575Y-10527D01*
X20562Y-10517D01*
X20550Y-10505D01*
X20531Y-10480D01*
X20513Y-10453D01*
X20501Y-10427D01*
X20495Y-10415D01*
X20491Y-10405D01*
X20487Y-10394D01*
X20483Y-10386D01*
X20481Y-10378D01*
X20479Y-10373D01*
X20478Y-10369D01*
Y-10368D01*
X20563Y-10347D01*
X20571Y-10375D01*
X20581Y-10401D01*
X20592Y-10421D01*
X20603Y-10439D01*
X20614Y-10451D01*
X20623Y-10461D01*
X20628Y-10467D01*
X20629Y-10468D01*
X20630Y-10469D01*
X20650Y-10483D01*
X20669Y-10492D01*
X20690Y-10500D01*
X20708Y-10505D01*
X20725Y-10508D01*
X20733Y-10509D01*
X20739D01*
X20744Y-10510D01*
X20750D01*
X20772Y-10509D01*
X20792Y-10505D01*
X20811Y-10500D01*
X20826Y-10495D01*
X20840Y-10489D01*
X20851Y-10486D01*
X20855Y-10484D01*
X20858Y-10482D01*
X20859Y-10481D01*
X20860D01*
X20877Y-10468D01*
X20892Y-10453D01*
X20904Y-10439D01*
X20915Y-10423D01*
X20923Y-10410D01*
X20928Y-10399D01*
X20930Y-10395D01*
X20932Y-10392D01*
X20933Y-10390D01*
Y-10389D01*
X20941Y-10366D01*
X20946Y-10341D01*
X20950Y-10317D01*
X20953Y-10294D01*
X20954Y-10285D01*
X20955Y-10276D01*
Y-10267D01*
X20956Y-10260D01*
Y-10254D01*
Y-10250D01*
Y-10248D01*
Y-10247D01*
X20955Y-10223D01*
X20953Y-10201D01*
X20950Y-10180D01*
X20946Y-10162D01*
X20943Y-10146D01*
X20942Y-10139D01*
X20940Y-10134D01*
X20939Y-10130D01*
X20938Y-10127D01*
X20937Y-10125D01*
Y-10124D01*
X20928Y-10102D01*
X20917Y-10083D01*
X20905Y-10067D01*
X20895Y-10053D01*
X20884Y-10043D01*
X20875Y-10035D01*
X20869Y-10030D01*
X20868Y-10028D01*
X20867D01*
X20848Y-10016D01*
X20827Y-10008D01*
X20807Y-10001D01*
X20787Y-9997D01*
X20770Y-9994D01*
X20763Y-9993D01*
X20756D01*
X20751Y-9992D01*
X20745D01*
X20721Y-9993D01*
X20701Y-9997D01*
X20682Y-10002D01*
X20667Y-10008D01*
X20655Y-10014D01*
X20646Y-10019D01*
X20640Y-10023D01*
X20638Y-10024D01*
X20623Y-10038D01*
X20610Y-10053D01*
X20598Y-10071D01*
X20589Y-10088D01*
X20583Y-10102D01*
X20580Y-10109D01*
X20577Y-10115D01*
X20575Y-10120D01*
X20574Y-10124D01*
X20573Y-10126D01*
Y-10127D01*
X20489Y-10107D01*
X20501Y-10076D01*
X20508Y-10061D01*
X20514Y-10049D01*
X20522Y-10036D01*
X20530Y-10024D01*
X20537Y-10014D01*
X20545Y-10005D01*
X20551Y-9997D01*
X20558Y-9990D01*
X20565Y-9983D01*
X20570Y-9978D01*
X20575Y-9974D01*
X20578Y-9972D01*
X20580Y-9971D01*
X20581Y-9970D01*
X20593Y-9961D01*
X20606Y-9953D01*
X20620Y-9946D01*
X20633Y-9940D01*
X20661Y-9932D01*
X20686Y-9926D01*
X20698Y-9924D01*
X20708Y-9923D01*
X20718Y-9922D01*
X20726Y-9921D01*
X20733Y-9920D01*
X20743D01*
X20774Y-9922D01*
D02*
G37*
G36*
X26985Y-11517D02*
X27000Y-11518D01*
X27029Y-11523D01*
X27042Y-11526D01*
X27055Y-11530D01*
X27066Y-11535D01*
X27075Y-11539D01*
X27084Y-11544D01*
X27092Y-11548D01*
X27099Y-11553D01*
X27105Y-11556D01*
X27108Y-11559D01*
X27111Y-11561D01*
X27113Y-11562D01*
X27114Y-11563D01*
X27124Y-11573D01*
X27132Y-11583D01*
X27146Y-11605D01*
X27157Y-11628D01*
X27165Y-11650D01*
X27171Y-11670D01*
X27172Y-11678D01*
X27174Y-11686D01*
X27175Y-11692D01*
X27176Y-11697D01*
Y-11700D01*
Y-11701D01*
X27095Y-11710D01*
X27093Y-11688D01*
X27089Y-11670D01*
X27084Y-11654D01*
X27077Y-11640D01*
X27071Y-11630D01*
X27066Y-11622D01*
X27062Y-11618D01*
X27061Y-11616D01*
X27047Y-11604D01*
X27032Y-11596D01*
X27017Y-11590D01*
X27002Y-11585D01*
X26989Y-11583D01*
X26980Y-11582D01*
X26976Y-11581D01*
X26970D01*
X26950Y-11582D01*
X26933Y-11586D01*
X26918Y-11591D01*
X26906Y-11597D01*
X26896Y-11603D01*
X26888Y-11608D01*
X26884Y-11612D01*
X26882Y-11613D01*
X26870Y-11626D01*
X26863Y-11639D01*
X26857Y-11652D01*
X26852Y-11665D01*
X26850Y-11676D01*
X26849Y-11684D01*
X26848Y-11690D01*
Y-11691D01*
Y-11692D01*
X26850Y-11709D01*
X26854Y-11726D01*
X26860Y-11742D01*
X26867Y-11757D01*
X26873Y-11769D01*
X26879Y-11779D01*
X26881Y-11783D01*
X26883Y-11786D01*
X26885Y-11787D01*
Y-11788D01*
X26893Y-11797D01*
X26902Y-11808D01*
X26911Y-11819D01*
X26923Y-11830D01*
X26947Y-11852D01*
X26970Y-11875D01*
X26991Y-11893D01*
X27001Y-11902D01*
X27010Y-11909D01*
X27017Y-11915D01*
X27022Y-11919D01*
X27026Y-11922D01*
X27027Y-11923D01*
X27050Y-11944D01*
X27071Y-11962D01*
X27089Y-11979D01*
X27104Y-11993D01*
X27115Y-12004D01*
X27123Y-12013D01*
X27128Y-12019D01*
X27130Y-12020D01*
Y-12021D01*
X27143Y-12036D01*
X27152Y-12051D01*
X27162Y-12066D01*
X27169Y-12078D01*
X27175Y-12090D01*
X27179Y-12098D01*
X27181Y-12104D01*
X27182Y-12105D01*
Y-12106D01*
X27185Y-12115D01*
X27187Y-12125D01*
X27188Y-12134D01*
X27189Y-12142D01*
X27190Y-12149D01*
Y-12154D01*
Y-12158D01*
Y-12159D01*
X26766D01*
Y-12084D01*
X27081D01*
X27070Y-12069D01*
X27060Y-12056D01*
X27055Y-12050D01*
X27051Y-12046D01*
X27049Y-12043D01*
X27048Y-12042D01*
X27043Y-12037D01*
X27038Y-12033D01*
X27026Y-12021D01*
X27010Y-12007D01*
X26995Y-11994D01*
X26981Y-11981D01*
X26969Y-11971D01*
X26964Y-11967D01*
X26960Y-11964D01*
X26958Y-11962D01*
X26957Y-11961D01*
X26942Y-11948D01*
X26928Y-11936D01*
X26914Y-11924D01*
X26903Y-11914D01*
X26892Y-11903D01*
X26882Y-11894D01*
X26872Y-11885D01*
X26865Y-11877D01*
X26858Y-11871D01*
X26852Y-11865D01*
X26843Y-11856D01*
X26838Y-11850D01*
X26836Y-11848D01*
X26824Y-11833D01*
X26812Y-11819D01*
X26803Y-11805D01*
X26796Y-11794D01*
X26790Y-11784D01*
X26787Y-11777D01*
X26785Y-11772D01*
X26784Y-11770D01*
X26778Y-11757D01*
X26774Y-11743D01*
X26771Y-11730D01*
X26769Y-11718D01*
X26768Y-11709D01*
X26767Y-11701D01*
Y-11696D01*
Y-11694D01*
X26768Y-11680D01*
X26769Y-11667D01*
X26776Y-11642D01*
X26785Y-11621D01*
X26794Y-11602D01*
X26804Y-11588D01*
X26809Y-11582D01*
X26813Y-11576D01*
X26817Y-11572D01*
X26820Y-11569D01*
X26821Y-11568D01*
X26822Y-11567D01*
X26832Y-11559D01*
X26843Y-11550D01*
X26855Y-11543D01*
X26868Y-11537D01*
X26892Y-11528D01*
X26915Y-11522D01*
X26926Y-11519D01*
X26936Y-11519D01*
X26945Y-11518D01*
X26952Y-11517D01*
X26959Y-11516D01*
X26968D01*
X26985Y-11517D01*
D02*
G37*
G36*
X27547Y-11510D02*
X27577Y-11514D01*
X27603Y-11520D01*
X27615Y-11523D01*
X27625Y-11527D01*
X27635Y-11531D01*
X27645Y-11534D01*
X27653Y-11538D01*
X27659Y-11541D01*
X27664Y-11543D01*
X27668Y-11545D01*
X27670Y-11547D01*
X27671D01*
X27696Y-11562D01*
X27718Y-11581D01*
X27737Y-11599D01*
X27751Y-11618D01*
X27764Y-11635D01*
X27769Y-11641D01*
X27773Y-11647D01*
X27776Y-11653D01*
X27778Y-11657D01*
X27779Y-11659D01*
Y-11660D01*
X27792Y-11688D01*
X27802Y-11718D01*
X27808Y-11748D01*
X27813Y-11775D01*
X27815Y-11788D01*
X27816Y-11798D01*
X27817Y-11809D01*
Y-11818D01*
X27818Y-11825D01*
Y-11830D01*
Y-11834D01*
Y-11835D01*
X27817Y-11869D01*
X27813Y-11900D01*
X27807Y-11929D01*
X27804Y-11943D01*
X27801Y-11955D01*
X27798Y-11966D01*
X27795Y-11976D01*
X27792Y-11985D01*
X27789Y-11993D01*
X27787Y-11998D01*
X27785Y-12002D01*
X27784Y-12005D01*
Y-12006D01*
X27771Y-12034D01*
X27754Y-12059D01*
X27739Y-12080D01*
X27722Y-12097D01*
X27708Y-12111D01*
X27697Y-12120D01*
X27692Y-12123D01*
X27689Y-12126D01*
X27687Y-12127D01*
X27686Y-12128D01*
X27673Y-12136D01*
X27660Y-12142D01*
X27632Y-12153D01*
X27604Y-12159D01*
X27577Y-12165D01*
X27565Y-12166D01*
X27553Y-12168D01*
X27543Y-12169D01*
X27535D01*
X27527Y-12170D01*
X27517D01*
X27499Y-12169D01*
X27481Y-12168D01*
X27449Y-12161D01*
X27434Y-12157D01*
X27420Y-12153D01*
X27407Y-12148D01*
X27395Y-12143D01*
X27384Y-12138D01*
X27376Y-12133D01*
X27368Y-12128D01*
X27361Y-12124D01*
X27355Y-12120D01*
X27351Y-12117D01*
X27349Y-12116D01*
X27348Y-12115D01*
X27336Y-12105D01*
X27324Y-12093D01*
X27304Y-12068D01*
X27287Y-12041D01*
X27274Y-12015D01*
X27268Y-12003D01*
X27264Y-11993D01*
X27261Y-11982D01*
X27257Y-11974D01*
X27255Y-11966D01*
X27253Y-11961D01*
X27252Y-11957D01*
Y-11956D01*
X27337Y-11935D01*
X27344Y-11963D01*
X27354Y-11989D01*
X27366Y-12009D01*
X27377Y-12027D01*
X27387Y-12039D01*
X27396Y-12049D01*
X27402Y-12055D01*
X27403Y-12056D01*
X27404Y-12057D01*
X27423Y-12071D01*
X27443Y-12080D01*
X27463Y-12088D01*
X27482Y-12093D01*
X27499Y-12096D01*
X27506Y-12097D01*
X27512D01*
X27517Y-12098D01*
X27524D01*
X27545Y-12097D01*
X27566Y-12093D01*
X27584Y-12088D01*
X27600Y-12083D01*
X27614Y-12077D01*
X27624Y-12073D01*
X27628Y-12072D01*
X27631Y-12070D01*
X27632Y-12069D01*
X27633D01*
X27651Y-12056D01*
X27665Y-12041D01*
X27678Y-12027D01*
X27689Y-12011D01*
X27697Y-11998D01*
X27701Y-11987D01*
X27703Y-11983D01*
X27705Y-11980D01*
X27706Y-11978D01*
Y-11977D01*
X27714Y-11954D01*
X27720Y-11929D01*
X27724Y-11905D01*
X27727Y-11882D01*
X27728Y-11873D01*
X27729Y-11864D01*
Y-11855D01*
X27730Y-11848D01*
Y-11842D01*
Y-11838D01*
Y-11836D01*
Y-11835D01*
X27729Y-11811D01*
X27727Y-11789D01*
X27724Y-11768D01*
X27720Y-11750D01*
X27716Y-11734D01*
X27715Y-11727D01*
X27713Y-11722D01*
X27712Y-11717D01*
X27711Y-11715D01*
X27710Y-11713D01*
Y-11712D01*
X27701Y-11690D01*
X27691Y-11671D01*
X27679Y-11655D01*
X27668Y-11641D01*
X27658Y-11631D01*
X27649Y-11623D01*
X27643Y-11618D01*
X27642Y-11616D01*
X27641D01*
X27621Y-11604D01*
X27601Y-11596D01*
X27581Y-11589D01*
X27561Y-11585D01*
X27543Y-11582D01*
X27537Y-11581D01*
X27530D01*
X27525Y-11580D01*
X27518D01*
X27495Y-11581D01*
X27474Y-11585D01*
X27456Y-11590D01*
X27441Y-11596D01*
X27428Y-11602D01*
X27420Y-11607D01*
X27414Y-11611D01*
X27412Y-11612D01*
X27396Y-11626D01*
X27383Y-11641D01*
X27372Y-11659D01*
X27363Y-11676D01*
X27356Y-11690D01*
X27353Y-11697D01*
X27350Y-11703D01*
X27348Y-11708D01*
X27347Y-11712D01*
X27346Y-11714D01*
Y-11715D01*
X27263Y-11695D01*
X27274Y-11664D01*
X27281Y-11649D01*
X27288Y-11637D01*
X27296Y-11624D01*
X27304Y-11612D01*
X27310Y-11602D01*
X27318Y-11593D01*
X27325Y-11585D01*
X27332Y-11578D01*
X27339Y-11571D01*
X27344Y-11566D01*
X27348Y-11562D01*
X27351Y-11559D01*
X27353Y-11559D01*
X27354Y-11558D01*
X27367Y-11549D01*
X27380Y-11541D01*
X27393Y-11534D01*
X27407Y-11528D01*
X27434Y-11519D01*
X27460Y-11514D01*
X27471Y-11512D01*
X27482Y-11511D01*
X27492Y-11510D01*
X27500Y-11509D01*
X27506Y-11508D01*
X27516D01*
X27547Y-11510D01*
D02*
G37*
G36*
X26709Y-11934D02*
Y-12006D01*
X26431D01*
Y-12159D01*
X26352D01*
Y-12006D01*
X26265D01*
Y-11934D01*
X26352D01*
Y-11519D01*
X26416D01*
X26709Y-11934D01*
D02*
G37*
G36*
X24440Y-7248D02*
X24459Y-7250D01*
X24496Y-7257D01*
X24512Y-7261D01*
X24528Y-7266D01*
X24541Y-7272D01*
X24553Y-7277D01*
X24564Y-7283D01*
X24574Y-7288D01*
X24582Y-7294D01*
X24590Y-7297D01*
X24595Y-7301D01*
X24598Y-7305D01*
X24601Y-7306D01*
X24602Y-7307D01*
X24614Y-7319D01*
X24624Y-7331D01*
X24642Y-7359D01*
X24656Y-7387D01*
X24665Y-7416D01*
X24673Y-7440D01*
X24674Y-7451D01*
X24676Y-7461D01*
X24678Y-7468D01*
X24679Y-7474D01*
Y-7478D01*
Y-7479D01*
X24578Y-7490D01*
X24575Y-7463D01*
X24570Y-7440D01*
X24564Y-7420D01*
X24556Y-7403D01*
X24548Y-7390D01*
X24541Y-7380D01*
X24536Y-7375D01*
X24535Y-7373D01*
X24518Y-7358D01*
X24500Y-7347D01*
X24480Y-7340D01*
X24462Y-7334D01*
X24446Y-7331D01*
X24434Y-7330D01*
X24429Y-7329D01*
X24422D01*
X24397Y-7330D01*
X24375Y-7335D01*
X24357Y-7341D01*
X24341Y-7348D01*
X24329Y-7357D01*
X24319Y-7363D01*
X24314Y-7368D01*
X24312Y-7369D01*
X24297Y-7385D01*
X24287Y-7402D01*
X24280Y-7418D01*
X24274Y-7434D01*
X24272Y-7447D01*
X24270Y-7458D01*
X24269Y-7466D01*
Y-7467D01*
Y-7468D01*
X24272Y-7489D01*
X24276Y-7511D01*
X24284Y-7530D01*
X24292Y-7548D01*
X24301Y-7564D01*
X24308Y-7576D01*
X24311Y-7581D01*
X24313Y-7585D01*
X24315Y-7586D01*
Y-7587D01*
X24325Y-7600D01*
X24336Y-7613D01*
X24348Y-7626D01*
X24363Y-7640D01*
X24392Y-7668D01*
X24422Y-7696D01*
X24448Y-7719D01*
X24461Y-7730D01*
X24472Y-7739D01*
X24480Y-7747D01*
X24486Y-7752D01*
X24491Y-7756D01*
X24492Y-7757D01*
X24522Y-7783D01*
X24548Y-7806D01*
X24570Y-7826D01*
X24589Y-7843D01*
X24603Y-7858D01*
X24613Y-7869D01*
X24619Y-7876D01*
X24621Y-7878D01*
Y-7879D01*
X24637Y-7898D01*
X24650Y-7917D01*
X24662Y-7935D01*
X24670Y-7951D01*
X24678Y-7965D01*
X24682Y-7975D01*
X24685Y-7982D01*
X24686Y-7984D01*
Y-7985D01*
X24690Y-7997D01*
X24693Y-8009D01*
X24695Y-8020D01*
X24696Y-8030D01*
X24697Y-8039D01*
Y-8046D01*
Y-8051D01*
Y-8052D01*
X24167D01*
Y-7958D01*
X24561D01*
X24547Y-7939D01*
X24534Y-7923D01*
X24528Y-7915D01*
X24523Y-7911D01*
X24520Y-7907D01*
X24519Y-7906D01*
X24513Y-7900D01*
X24507Y-7893D01*
X24491Y-7879D01*
X24472Y-7862D01*
X24453Y-7845D01*
X24435Y-7829D01*
X24420Y-7817D01*
X24414Y-7812D01*
X24409Y-7808D01*
X24407Y-7806D01*
X24406Y-7804D01*
X24386Y-7787D01*
X24369Y-7773D01*
X24352Y-7758D01*
X24337Y-7745D01*
X24324Y-7731D01*
X24312Y-7720D01*
X24300Y-7709D01*
X24290Y-7700D01*
X24281Y-7691D01*
X24274Y-7684D01*
X24263Y-7673D01*
X24257Y-7665D01*
X24255Y-7663D01*
X24239Y-7644D01*
X24224Y-7626D01*
X24213Y-7609D01*
X24205Y-7595D01*
X24197Y-7583D01*
X24192Y-7574D01*
X24190Y-7568D01*
X24189Y-7565D01*
X24181Y-7548D01*
X24176Y-7531D01*
X24173Y-7516D01*
X24170Y-7501D01*
X24169Y-7489D01*
X24168Y-7479D01*
Y-7473D01*
Y-7470D01*
X24169Y-7453D01*
X24170Y-7436D01*
X24179Y-7406D01*
X24190Y-7379D01*
X24202Y-7356D01*
X24214Y-7338D01*
X24220Y-7330D01*
X24225Y-7323D01*
X24230Y-7318D01*
X24234Y-7314D01*
X24235Y-7313D01*
X24236Y-7312D01*
X24250Y-7301D01*
X24263Y-7290D01*
X24278Y-7281D01*
X24294Y-7274D01*
X24324Y-7263D01*
X24353Y-7256D01*
X24367Y-7252D01*
X24379Y-7251D01*
X24390Y-7250D01*
X24400Y-7248D01*
X24408Y-7247D01*
X24419D01*
X24440Y-7248D01*
D02*
G37*
G36*
X25270Y-8052D02*
X24770D01*
Y-7958D01*
X25164D01*
Y-7251D01*
X25270D01*
Y-8052D01*
D02*
G37*
G36*
X26748Y5833D02*
X26779Y5829D01*
X26808Y5824D01*
X26822Y5821D01*
X26834Y5818D01*
X26845Y5815D01*
X26855Y5812D01*
X26864Y5809D01*
X26872Y5806D01*
X26878Y5804D01*
X26882Y5802D01*
X26885Y5801D01*
X26885D01*
X26914Y5787D01*
X26938Y5771D01*
X26960Y5755D01*
X26976Y5739D01*
X26990Y5725D01*
X27000Y5713D01*
X27003Y5708D01*
X27005Y5706D01*
X27006Y5704D01*
X27007Y5703D01*
X27015Y5690D01*
X27021Y5676D01*
X27032Y5649D01*
X27039Y5621D01*
X27044Y5593D01*
X27045Y5582D01*
X27047Y5570D01*
X27048Y5560D01*
Y5551D01*
X27049Y5544D01*
Y5534D01*
X27048Y5515D01*
X27047Y5498D01*
X27041Y5466D01*
X27037Y5451D01*
X27032Y5436D01*
X27027Y5424D01*
X27022Y5412D01*
X27017Y5401D01*
X27012Y5392D01*
X27007Y5385D01*
X27003Y5378D01*
X27000Y5372D01*
X26997Y5368D01*
X26996Y5366D01*
X26995Y5365D01*
X26984Y5352D01*
X26972Y5341D01*
X26947Y5321D01*
X26921Y5304D01*
X26894Y5291D01*
X26883Y5285D01*
X26872Y5281D01*
X26861Y5277D01*
X26853Y5273D01*
X26845Y5271D01*
X26841Y5270D01*
X26837Y5269D01*
X26836D01*
X26814Y5353D01*
X26843Y5361D01*
X26868Y5371D01*
X26888Y5383D01*
X26906Y5393D01*
X26919Y5404D01*
X26928Y5413D01*
X26934Y5419D01*
X26935Y5420D01*
X26936Y5421D01*
X26950Y5440D01*
X26960Y5460D01*
X26967Y5480D01*
X26972Y5499D01*
X26975Y5515D01*
X26976Y5523D01*
Y5529D01*
X26977Y5534D01*
Y5541D01*
X26976Y5562D01*
X26972Y5583D01*
X26967Y5601D01*
X26963Y5617D01*
X26957Y5630D01*
X26953Y5641D01*
X26951Y5645D01*
X26949Y5648D01*
X26948Y5649D01*
Y5650D01*
X26935Y5667D01*
X26921Y5682D01*
X26906Y5695D01*
X26890Y5706D01*
X26878Y5713D01*
X26866Y5718D01*
X26862Y5720D01*
X26859Y5722D01*
X26857Y5723D01*
X26856D01*
X26833Y5731D01*
X26808Y5737D01*
X26784Y5741D01*
X26762Y5744D01*
X26752Y5745D01*
X26743Y5746D01*
X26734D01*
X26727Y5746D01*
X26722D01*
X26718D01*
X26715D01*
X26714D01*
X26690Y5746D01*
X26668Y5744D01*
X26647Y5741D01*
X26629Y5737D01*
X26613Y5733D01*
X26607Y5732D01*
X26602Y5730D01*
X26597Y5729D01*
X26594Y5728D01*
X26592Y5727D01*
X26591D01*
X26569Y5718D01*
X26550Y5707D01*
X26534Y5696D01*
X26521Y5685D01*
X26510Y5674D01*
X26502Y5666D01*
X26497Y5660D01*
X26495Y5659D01*
Y5658D01*
X26484Y5638D01*
X26475Y5618D01*
X26468Y5597D01*
X26464Y5578D01*
X26461Y5560D01*
X26460Y5553D01*
Y5547D01*
X26459Y5542D01*
Y5535D01*
X26460Y5511D01*
X26464Y5491D01*
X26469Y5472D01*
X26475Y5458D01*
X26482Y5445D01*
X26487Y5436D01*
X26490Y5430D01*
X26491Y5429D01*
X26505Y5413D01*
X26521Y5400D01*
X26538Y5389D01*
X26555Y5380D01*
X26569Y5373D01*
X26576Y5370D01*
X26582Y5367D01*
X26587Y5365D01*
X26591Y5364D01*
X26593Y5363D01*
X26594D01*
X26574Y5279D01*
X26543Y5291D01*
X26528Y5298D01*
X26516Y5305D01*
X26503Y5312D01*
X26491Y5320D01*
X26482Y5327D01*
X26472Y5335D01*
X26464Y5342D01*
X26457Y5349D01*
X26450Y5355D01*
X26446Y5360D01*
X26442Y5365D01*
X26439Y5368D01*
X26438Y5370D01*
X26437Y5371D01*
X26428Y5384D01*
X26420Y5396D01*
X26413Y5410D01*
X26408Y5424D01*
X26399Y5451D01*
X26393Y5476D01*
X26391Y5488D01*
X26390Y5499D01*
X26389Y5508D01*
X26388Y5516D01*
X26387Y5523D01*
Y5533D01*
X26389Y5564D01*
X26393Y5593D01*
X26400Y5620D01*
X26403Y5631D01*
X26407Y5642D01*
X26410Y5652D01*
X26413Y5662D01*
X26417Y5669D01*
X26420Y5675D01*
X26422Y5681D01*
X26424Y5685D01*
X26426Y5687D01*
Y5688D01*
X26442Y5712D01*
X26460Y5735D01*
X26479Y5753D01*
X26497Y5768D01*
X26514Y5781D01*
X26521Y5785D01*
X26527Y5789D01*
X26532Y5792D01*
X26536Y5794D01*
X26538Y5796D01*
X26539D01*
X26568Y5809D01*
X26598Y5819D01*
X26627Y5825D01*
X26654Y5829D01*
X26667Y5831D01*
X26678Y5832D01*
X26688Y5833D01*
X26697D01*
X26704Y5834D01*
X26709D01*
X26713D01*
X26714D01*
X26748Y5833D01*
D02*
G37*
G36*
X26627Y5122D02*
X26620Y5108D01*
X26614Y5094D01*
X26608Y5081D01*
X26602Y5071D01*
X26597Y5062D01*
X26593Y5056D01*
X26592Y5055D01*
Y5054D01*
X26582Y5037D01*
X26571Y5023D01*
X26563Y5010D01*
X26554Y4999D01*
X26547Y4991D01*
X26542Y4984D01*
X26538Y4980D01*
X26537Y4979D01*
X27039D01*
Y4900D01*
X26395D01*
Y4952D01*
X26410Y4960D01*
X26426Y4971D01*
X26441Y4983D01*
X26454Y4994D01*
X26465Y5005D01*
X26474Y5014D01*
X26480Y5020D01*
X26481Y5021D01*
X26482Y5022D01*
X26497Y5040D01*
X26512Y5060D01*
X26525Y5079D01*
X26535Y5097D01*
X26544Y5112D01*
X26547Y5119D01*
X26550Y5125D01*
X26553Y5129D01*
X26555Y5133D01*
X26556Y5135D01*
Y5136D01*
X26633D01*
X26627Y5122D01*
D02*
G37*
G36*
X29586Y-4042D02*
X29601Y-4031D01*
X29614Y-4020D01*
X29620Y-4015D01*
X29624Y-4012D01*
X29627Y-4010D01*
X29628Y-4009D01*
X29633Y-4004D01*
X29637Y-3999D01*
X29649Y-3986D01*
X29663Y-3971D01*
X29676Y-3956D01*
X29689Y-3941D01*
X29699Y-3930D01*
X29703Y-3925D01*
X29706Y-3921D01*
X29708Y-3919D01*
X29709Y-3918D01*
X29722Y-3902D01*
X29734Y-3889D01*
X29746Y-3875D01*
X29756Y-3863D01*
X29767Y-3853D01*
X29776Y-3843D01*
X29785Y-3833D01*
X29792Y-3825D01*
X29799Y-3818D01*
X29805Y-3813D01*
X29814Y-3804D01*
X29820Y-3799D01*
X29822Y-3797D01*
X29837Y-3784D01*
X29851Y-3773D01*
X29865Y-3764D01*
X29876Y-3757D01*
X29886Y-3751D01*
X29893Y-3747D01*
X29898Y-3745D01*
X29900Y-3744D01*
X29913Y-3738D01*
X29927Y-3735D01*
X29940Y-3732D01*
X29951Y-3730D01*
X29961Y-3729D01*
X29969Y-3728D01*
X29974D01*
X29976D01*
X29990Y-3729D01*
X30003Y-3730D01*
X30028Y-3737D01*
X30049Y-3745D01*
X30068Y-3755D01*
X30082Y-3765D01*
X30088Y-3770D01*
X30094Y-3774D01*
X30098Y-3777D01*
X30101Y-3780D01*
X30102Y-3781D01*
X30103Y-3782D01*
X30111Y-3793D01*
X30120Y-3804D01*
X30127Y-3816D01*
X30133Y-3828D01*
X30142Y-3853D01*
X30148Y-3876D01*
X30150Y-3887D01*
X30151Y-3896D01*
X30152Y-3905D01*
X30153Y-3913D01*
X30154Y-3920D01*
Y-3929D01*
X30153Y-3945D01*
X30152Y-3961D01*
X30147Y-3990D01*
X30144Y-4003D01*
X30140Y-4015D01*
X30135Y-4026D01*
X30131Y-4036D01*
X30126Y-4045D01*
X30122Y-4053D01*
X30117Y-4059D01*
X30114Y-4065D01*
X30111Y-4069D01*
X30108Y-4072D01*
X30108Y-4074D01*
X30107Y-4075D01*
X30097Y-4085D01*
X30087Y-4093D01*
X30065Y-4107D01*
X30042Y-4118D01*
X30020Y-4126D01*
X30000Y-4132D01*
X29991Y-4133D01*
X29984Y-4134D01*
X29978Y-4135D01*
X29973Y-4136D01*
X29970D01*
X29969D01*
X29960Y-4055D01*
X29982Y-4054D01*
X30000Y-4050D01*
X30016Y-4045D01*
X30029Y-4038D01*
X30040Y-4032D01*
X30048Y-4026D01*
X30052Y-4022D01*
X30054Y-4021D01*
X30066Y-4008D01*
X30074Y-3993D01*
X30080Y-3977D01*
X30085Y-3963D01*
X30087Y-3950D01*
X30088Y-3940D01*
X30089Y-3936D01*
Y-3931D01*
X30088Y-3911D01*
X30084Y-3894D01*
X30079Y-3879D01*
X30073Y-3866D01*
X30067Y-3856D01*
X30062Y-3849D01*
X30058Y-3845D01*
X30057Y-3843D01*
X30044Y-3831D01*
X30030Y-3823D01*
X30018Y-3817D01*
X30005Y-3813D01*
X29994Y-3811D01*
X29986Y-3810D01*
X29980Y-3809D01*
X29979D01*
X29978D01*
X29961Y-3811D01*
X29944Y-3815D01*
X29928Y-3820D01*
X29913Y-3827D01*
X29901Y-3834D01*
X29891Y-3840D01*
X29887Y-3842D01*
X29884Y-3844D01*
X29883Y-3846D01*
X29882D01*
X29872Y-3854D01*
X29862Y-3862D01*
X29851Y-3872D01*
X29840Y-3884D01*
X29818Y-3907D01*
X29795Y-3931D01*
X29777Y-3952D01*
X29768Y-3962D01*
X29761Y-3971D01*
X29754Y-3977D01*
X29751Y-3982D01*
X29748Y-3986D01*
X29747Y-3987D01*
X29726Y-4011D01*
X29708Y-4032D01*
X29691Y-4050D01*
X29677Y-4064D01*
X29666Y-4076D01*
X29657Y-4084D01*
X29651Y-4089D01*
X29650Y-4091D01*
X29649D01*
X29633Y-4103D01*
X29619Y-4113D01*
X29604Y-4123D01*
X29592Y-4130D01*
X29580Y-4135D01*
X29572Y-4139D01*
X29566Y-4141D01*
X29565Y-4142D01*
X29564D01*
X29555Y-4145D01*
X29545Y-4148D01*
X29536Y-4149D01*
X29528Y-4150D01*
X29521Y-4151D01*
X29515D01*
X29512D01*
X29511D01*
Y-3727D01*
X29586D01*
Y-4042D01*
D02*
G37*
G36*
X29735Y-4297D02*
X29707Y-4305D01*
X29681Y-4315D01*
X29661Y-4327D01*
X29643Y-4337D01*
X29631Y-4348D01*
X29621Y-4357D01*
X29615Y-4363D01*
X29614Y-4364D01*
X29613Y-4365D01*
X29599Y-4384D01*
X29590Y-4404D01*
X29582Y-4424D01*
X29577Y-4443D01*
X29574Y-4459D01*
X29573Y-4467D01*
Y-4473D01*
X29572Y-4478D01*
Y-4485D01*
X29573Y-4506D01*
X29577Y-4527D01*
X29582Y-4545D01*
X29587Y-4561D01*
X29593Y-4574D01*
X29596Y-4585D01*
X29598Y-4589D01*
X29600Y-4592D01*
X29601Y-4593D01*
Y-4594D01*
X29614Y-4611D01*
X29629Y-4626D01*
X29643Y-4639D01*
X29659Y-4649D01*
X29672Y-4657D01*
X29683Y-4662D01*
X29687Y-4664D01*
X29690Y-4666D01*
X29692Y-4667D01*
X29693D01*
X29716Y-4675D01*
X29741Y-4681D01*
X29765Y-4685D01*
X29788Y-4687D01*
X29797Y-4688D01*
X29806Y-4689D01*
X29815D01*
X29822Y-4690D01*
X29828D01*
X29831D01*
X29834D01*
X29835D01*
X29859Y-4689D01*
X29881Y-4687D01*
X29902Y-4685D01*
X29920Y-4681D01*
X29936Y-4677D01*
X29943Y-4676D01*
X29948Y-4674D01*
X29952Y-4673D01*
X29955Y-4672D01*
X29957Y-4671D01*
X29958D01*
X29980Y-4662D01*
X29999Y-4651D01*
X30015Y-4640D01*
X30029Y-4629D01*
X30039Y-4618D01*
X30047Y-4609D01*
X30052Y-4604D01*
X30054Y-4603D01*
Y-4602D01*
X30066Y-4582D01*
X30074Y-4562D01*
X30081Y-4541D01*
X30085Y-4522D01*
X30088Y-4504D01*
X30089Y-4497D01*
Y-4490D01*
X30090Y-4486D01*
Y-4479D01*
X30089Y-4455D01*
X30085Y-4435D01*
X30080Y-4416D01*
X30074Y-4402D01*
X30068Y-4389D01*
X30063Y-4380D01*
X30059Y-4374D01*
X30058Y-4372D01*
X30044Y-4357D01*
X30029Y-4344D01*
X30011Y-4332D01*
X29994Y-4324D01*
X29980Y-4317D01*
X29973Y-4314D01*
X29967Y-4311D01*
X29962Y-4309D01*
X29958Y-4308D01*
X29956Y-4307D01*
X29955D01*
X29975Y-4223D01*
X30006Y-4235D01*
X30021Y-4242D01*
X30033Y-4249D01*
X30046Y-4256D01*
X30058Y-4264D01*
X30068Y-4271D01*
X30077Y-4279D01*
X30085Y-4286D01*
X30092Y-4292D01*
X30099Y-4299D01*
X30104Y-4304D01*
X30108Y-4309D01*
X30110Y-4312D01*
X30111Y-4314D01*
X30112Y-4315D01*
X30121Y-4328D01*
X30129Y-4340D01*
X30136Y-4354D01*
X30142Y-4368D01*
X30150Y-4395D01*
X30156Y-4420D01*
X30158Y-4432D01*
X30159Y-4443D01*
X30160Y-4452D01*
X30161Y-4460D01*
X30162Y-4467D01*
Y-4477D01*
X30160Y-4508D01*
X30156Y-4537D01*
X30149Y-4564D01*
X30147Y-4575D01*
X30143Y-4586D01*
X30139Y-4596D01*
X30136Y-4606D01*
X30132Y-4613D01*
X30129Y-4619D01*
X30127Y-4625D01*
X30125Y-4629D01*
X30123Y-4631D01*
Y-4632D01*
X30108Y-4656D01*
X30089Y-4679D01*
X30070Y-4697D01*
X30052Y-4712D01*
X30035Y-4725D01*
X30029Y-4729D01*
X30023Y-4733D01*
X30017Y-4736D01*
X30013Y-4738D01*
X30011Y-4740D01*
X30010D01*
X29982Y-4753D01*
X29951Y-4763D01*
X29922Y-4768D01*
X29895Y-4773D01*
X29882Y-4775D01*
X29871Y-4776D01*
X29861Y-4777D01*
X29852D01*
X29845Y-4778D01*
X29840D01*
X29836D01*
X29835D01*
X29801Y-4777D01*
X29770Y-4773D01*
X29741Y-4767D01*
X29727Y-4765D01*
X29715Y-4762D01*
X29704Y-4759D01*
X29694Y-4756D01*
X29685Y-4753D01*
X29677Y-4750D01*
X29672Y-4748D01*
X29668Y-4746D01*
X29665Y-4745D01*
X29664D01*
X29635Y-4731D01*
X29611Y-4715D01*
X29590Y-4699D01*
X29573Y-4683D01*
X29559Y-4669D01*
X29550Y-4657D01*
X29547Y-4652D01*
X29544Y-4649D01*
X29543Y-4648D01*
X29542Y-4647D01*
X29534Y-4634D01*
X29528Y-4620D01*
X29517Y-4593D01*
X29511Y-4565D01*
X29505Y-4537D01*
X29504Y-4526D01*
X29502Y-4514D01*
X29501Y-4504D01*
Y-4495D01*
X29500Y-4488D01*
Y-4478D01*
X29501Y-4459D01*
X29502Y-4442D01*
X29509Y-4410D01*
X29513Y-4395D01*
X29517Y-4380D01*
X29522Y-4368D01*
X29527Y-4356D01*
X29532Y-4345D01*
X29537Y-4336D01*
X29542Y-4329D01*
X29546Y-4322D01*
X29550Y-4316D01*
X29553Y-4312D01*
X29554Y-4310D01*
X29555Y-4309D01*
X29565Y-4296D01*
X29577Y-4285D01*
X29602Y-4265D01*
X29629Y-4248D01*
X29655Y-4235D01*
X29667Y-4229D01*
X29677Y-4225D01*
X29688Y-4221D01*
X29696Y-4217D01*
X29704Y-4215D01*
X29709Y-4213D01*
X29713Y-4212D01*
X29713D01*
X29735Y-4297D01*
D02*
G37*
G36*
X23254Y-3164D02*
X23286Y-3168D01*
X23315Y-3174D01*
X23329Y-3177D01*
X23340Y-3180D01*
X23352Y-3183D01*
X23362Y-3186D01*
X23371Y-3189D01*
X23378Y-3192D01*
X23384Y-3194D01*
X23388Y-3196D01*
X23391Y-3197D01*
X23392D01*
X23420Y-3210D01*
X23445Y-3227D01*
X23466Y-3243D01*
X23483Y-3259D01*
X23496Y-3273D01*
X23506Y-3284D01*
X23509Y-3289D01*
X23512Y-3292D01*
X23513Y-3294D01*
X23514Y-3295D01*
X23522Y-3308D01*
X23528Y-3322D01*
X23538Y-3349D01*
X23545Y-3377D01*
X23551Y-3404D01*
X23552Y-3416D01*
X23554Y-3428D01*
X23555Y-3438D01*
Y-3446D01*
X23556Y-3454D01*
Y-3464D01*
X23555Y-3482D01*
X23554Y-3500D01*
X23547Y-3532D01*
X23543Y-3547D01*
X23538Y-3561D01*
X23533Y-3574D01*
X23529Y-3586D01*
X23524Y-3597D01*
X23519Y-3605D01*
X23514Y-3613D01*
X23510Y-3620D01*
X23506Y-3626D01*
X23503Y-3630D01*
X23502Y-3632D01*
X23501Y-3633D01*
X23490Y-3645D01*
X23479Y-3657D01*
X23453Y-3677D01*
X23427Y-3694D01*
X23401Y-3707D01*
X23389Y-3713D01*
X23378Y-3717D01*
X23368Y-3720D01*
X23360Y-3724D01*
X23352Y-3726D01*
X23347Y-3728D01*
X23343Y-3729D01*
X23342D01*
X23321Y-3644D01*
X23349Y-3637D01*
X23374Y-3627D01*
X23395Y-3615D01*
X23412Y-3604D01*
X23425Y-3594D01*
X23435Y-3585D01*
X23441Y-3579D01*
X23442Y-3578D01*
X23443Y-3577D01*
X23456Y-3558D01*
X23466Y-3538D01*
X23474Y-3518D01*
X23479Y-3499D01*
X23482Y-3482D01*
X23483Y-3475D01*
Y-3469D01*
X23484Y-3464D01*
Y-3457D01*
X23483Y-3436D01*
X23479Y-3415D01*
X23474Y-3397D01*
X23469Y-3381D01*
X23463Y-3367D01*
X23459Y-3357D01*
X23457Y-3353D01*
X23455Y-3350D01*
X23454Y-3349D01*
Y-3348D01*
X23442Y-3330D01*
X23427Y-3316D01*
X23412Y-3303D01*
X23397Y-3292D01*
X23384Y-3284D01*
X23372Y-3280D01*
X23369Y-3278D01*
X23366Y-3276D01*
X23364Y-3275D01*
X23363D01*
X23339Y-3267D01*
X23315Y-3261D01*
X23291Y-3257D01*
X23268Y-3254D01*
X23258Y-3253D01*
X23250Y-3252D01*
X23241D01*
X23234Y-3251D01*
X23228D01*
X23224D01*
X23221D01*
X23220D01*
X23197Y-3252D01*
X23174Y-3254D01*
X23154Y-3257D01*
X23135Y-3261D01*
X23120Y-3265D01*
X23113Y-3266D01*
X23108Y-3268D01*
X23103Y-3269D01*
X23100Y-3270D01*
X23098Y-3271D01*
X23097D01*
X23076Y-3280D01*
X23056Y-3290D01*
X23041Y-3302D01*
X23027Y-3313D01*
X23016Y-3323D01*
X23009Y-3332D01*
X23004Y-3338D01*
X23002Y-3339D01*
Y-3340D01*
X22990Y-3360D01*
X22981Y-3380D01*
X22975Y-3401D01*
X22971Y-3420D01*
X22968Y-3438D01*
X22967Y-3444D01*
Y-3451D01*
X22966Y-3456D01*
Y-3463D01*
X22967Y-3486D01*
X22971Y-3507D01*
X22975Y-3525D01*
X22981Y-3540D01*
X22988Y-3553D01*
X22993Y-3561D01*
X22997Y-3567D01*
X22998Y-3569D01*
X23012Y-3585D01*
X23027Y-3598D01*
X23045Y-3609D01*
X23061Y-3618D01*
X23076Y-3625D01*
X23083Y-3628D01*
X23089Y-3631D01*
X23094Y-3633D01*
X23097Y-3634D01*
X23099Y-3635D01*
X23100D01*
X23081Y-3718D01*
X23050Y-3707D01*
X23035Y-3700D01*
X23022Y-3693D01*
X23010Y-3685D01*
X22998Y-3678D01*
X22988Y-3671D01*
X22978Y-3663D01*
X22971Y-3656D01*
X22964Y-3649D01*
X22957Y-3642D01*
X22952Y-3638D01*
X22948Y-3633D01*
X22945Y-3630D01*
X22944Y-3628D01*
X22943Y-3627D01*
X22935Y-3614D01*
X22927Y-3601D01*
X22920Y-3588D01*
X22914Y-3574D01*
X22905Y-3547D01*
X22899Y-3521D01*
X22897Y-3510D01*
X22896Y-3499D01*
X22896Y-3489D01*
X22895Y-3481D01*
X22894Y-3475D01*
Y-3465D01*
X22896Y-3434D01*
X22899Y-3404D01*
X22906Y-3378D01*
X22909Y-3366D01*
X22913Y-3356D01*
X22917Y-3346D01*
X22920Y-3336D01*
X22924Y-3328D01*
X22927Y-3322D01*
X22929Y-3317D01*
X22931Y-3313D01*
X22933Y-3311D01*
Y-3310D01*
X22948Y-3285D01*
X22967Y-3263D01*
X22985Y-3244D01*
X23004Y-3230D01*
X23020Y-3217D01*
X23027Y-3212D01*
X23033Y-3208D01*
X23039Y-3205D01*
X23043Y-3204D01*
X23045Y-3202D01*
X23046D01*
X23074Y-3189D01*
X23104Y-3179D01*
X23133Y-3173D01*
X23161Y-3168D01*
X23173Y-3166D01*
X23184Y-3165D01*
X23195Y-3164D01*
X23204D01*
X23211Y-3164D01*
X23215D01*
X23219D01*
X23220D01*
X23254Y-3164D01*
D02*
G37*
G36*
X23276Y-3798D02*
X23303Y-3800D01*
X23330Y-3803D01*
X23353Y-3807D01*
X23374Y-3812D01*
X23394Y-3817D01*
X23411Y-3823D01*
X23427Y-3829D01*
X23441Y-3834D01*
X23452Y-3839D01*
X23462Y-3844D01*
X23470Y-3849D01*
X23476Y-3853D01*
X23480Y-3856D01*
X23483Y-3858D01*
X23484Y-3859D01*
X23496Y-3871D01*
X23507Y-3883D01*
X23517Y-3897D01*
X23526Y-3911D01*
X23532Y-3924D01*
X23538Y-3937D01*
X23543Y-3951D01*
X23547Y-3963D01*
X23550Y-3975D01*
X23552Y-3986D01*
X23554Y-3996D01*
X23555Y-4003D01*
Y-4010D01*
X23556Y-4016D01*
Y-4020D01*
X23555Y-4040D01*
X23552Y-4060D01*
X23547Y-4077D01*
X23542Y-4093D01*
X23537Y-4105D01*
X23532Y-4115D01*
X23529Y-4120D01*
X23529Y-4122D01*
X23517Y-4139D01*
X23504Y-4153D01*
X23491Y-4165D01*
X23479Y-4176D01*
X23467Y-4184D01*
X23458Y-4190D01*
X23454Y-4192D01*
X23451Y-4194D01*
X23450Y-4194D01*
X23449D01*
X23430Y-4203D01*
X23410Y-4210D01*
X23391Y-4214D01*
X23374Y-4218D01*
X23359Y-4220D01*
X23353D01*
X23347Y-4221D01*
X23343D01*
X23340D01*
X23338D01*
X23337D01*
X23321Y-4220D01*
X23304Y-4219D01*
X23290Y-4216D01*
X23275Y-4212D01*
X23262Y-4208D01*
X23250Y-4203D01*
X23239Y-4198D01*
X23228Y-4194D01*
X23219Y-4188D01*
X23212Y-4183D01*
X23205Y-4178D01*
X23199Y-4174D01*
X23194Y-4170D01*
X23191Y-4167D01*
X23189Y-4166D01*
X23188Y-4165D01*
X23177Y-4154D01*
X23169Y-4144D01*
X23161Y-4132D01*
X23154Y-4120D01*
X23148Y-4110D01*
X23144Y-4098D01*
X23136Y-4077D01*
X23133Y-4059D01*
X23132Y-4051D01*
X23131Y-4044D01*
X23130Y-4038D01*
Y-4031D01*
X23131Y-4014D01*
X23133Y-3998D01*
X23136Y-3984D01*
X23140Y-3971D01*
X23144Y-3960D01*
X23148Y-3952D01*
X23150Y-3947D01*
X23151Y-3945D01*
X23160Y-3930D01*
X23170Y-3917D01*
X23180Y-3905D01*
X23191Y-3895D01*
X23201Y-3886D01*
X23209Y-3880D01*
X23213Y-3877D01*
X23214Y-3876D01*
X23198D01*
X23181Y-3877D01*
X23166Y-3877D01*
X23151Y-3878D01*
X23138Y-3880D01*
X23126Y-3882D01*
X23115Y-3884D01*
X23105Y-3886D01*
X23096Y-3888D01*
X23089Y-3890D01*
X23082Y-3892D01*
X23077Y-3894D01*
X23073Y-3895D01*
X23069Y-3896D01*
X23068Y-3897D01*
X23067D01*
X23049Y-3906D01*
X23032Y-3916D01*
X23018Y-3925D01*
X23008Y-3935D01*
X22999Y-3943D01*
X22992Y-3950D01*
X22988Y-3954D01*
X22987Y-3956D01*
X22980Y-3967D01*
X22975Y-3978D01*
X22971Y-3990D01*
X22969Y-4000D01*
X22967Y-4009D01*
X22966Y-4016D01*
Y-4023D01*
X22967Y-4039D01*
X22971Y-4055D01*
X22976Y-4069D01*
X22982Y-4080D01*
X22989Y-4089D01*
X22994Y-4096D01*
X22998Y-4101D01*
X23000Y-4102D01*
X23009Y-4109D01*
X23018Y-4115D01*
X23041Y-4124D01*
X23051Y-4127D01*
X23058Y-4130D01*
X23064Y-4132D01*
X23065D01*
X23066D01*
X23060Y-4210D01*
X23034Y-4205D01*
X23011Y-4196D01*
X22991Y-4188D01*
X22975Y-4177D01*
X22962Y-4167D01*
X22952Y-4159D01*
X22946Y-4154D01*
X22944Y-4153D01*
Y-4152D01*
X22936Y-4142D01*
X22930Y-4132D01*
X22920Y-4112D01*
X22912Y-4091D01*
X22906Y-4072D01*
X22903Y-4054D01*
X22902Y-4046D01*
Y-4040D01*
X22901Y-4035D01*
Y-4028D01*
X22902Y-4009D01*
X22904Y-3992D01*
X22908Y-3975D01*
X22913Y-3959D01*
X22919Y-3945D01*
X22925Y-3932D01*
X22932Y-3919D01*
X22938Y-3909D01*
X22945Y-3899D01*
X22952Y-3890D01*
X22958Y-3883D01*
X22964Y-3877D01*
X22969Y-3872D01*
X22973Y-3869D01*
X22975Y-3867D01*
X22975Y-3866D01*
X22992Y-3854D01*
X23012Y-3843D01*
X23031Y-3835D01*
X23054Y-3827D01*
X23075Y-3820D01*
X23097Y-3814D01*
X23120Y-3809D01*
X23142Y-3806D01*
X23163Y-3803D01*
X23182Y-3801D01*
X23200Y-3799D01*
X23215Y-3798D01*
X23228Y-3797D01*
X23238D01*
X23241D01*
X23244D01*
X23245D01*
X23246D01*
X23276Y-3798D01*
D02*
G37*
G36*
X26089Y-3142D02*
X26120Y-3146D01*
X26149Y-3152D01*
X26163Y-3155D01*
X26175Y-3158D01*
X26186Y-3161D01*
X26196Y-3164D01*
X26205Y-3166D01*
X26213Y-3169D01*
X26218Y-3171D01*
X26222Y-3173D01*
X26225Y-3174D01*
X26226D01*
X26255Y-3188D01*
X26279Y-3204D01*
X26300Y-3220D01*
X26317Y-3237D01*
X26331Y-3250D01*
X26340Y-3262D01*
X26343Y-3267D01*
X26346Y-3270D01*
X26347Y-3272D01*
X26348Y-3273D01*
X26356Y-3285D01*
X26362Y-3299D01*
X26373Y-3326D01*
X26379Y-3355D01*
X26385Y-3382D01*
X26386Y-3394D01*
X26388Y-3405D01*
X26389Y-3415D01*
Y-3424D01*
X26390Y-3432D01*
Y-3441D01*
X26389Y-3460D01*
X26388Y-3478D01*
X26381Y-3510D01*
X26377Y-3524D01*
X26373Y-3539D01*
X26368Y-3552D01*
X26363Y-3563D01*
X26358Y-3574D01*
X26353Y-3583D01*
X26348Y-3591D01*
X26344Y-3598D01*
X26340Y-3603D01*
X26337Y-3607D01*
X26337Y-3609D01*
X26336Y-3610D01*
X26325Y-3623D01*
X26313Y-3635D01*
X26288Y-3654D01*
X26261Y-3672D01*
X26235Y-3684D01*
X26223Y-3690D01*
X26213Y-3694D01*
X26202Y-3698D01*
X26194Y-3702D01*
X26186Y-3704D01*
X26181Y-3706D01*
X26178Y-3707D01*
X26177D01*
X26155Y-3622D01*
X26183Y-3614D01*
X26209Y-3604D01*
X26229Y-3593D01*
X26247Y-3582D01*
X26259Y-3571D01*
X26269Y-3562D01*
X26275Y-3557D01*
X26276Y-3556D01*
X26277Y-3555D01*
X26291Y-3535D01*
X26300Y-3516D01*
X26308Y-3495D01*
X26313Y-3477D01*
X26316Y-3460D01*
X26317Y-3452D01*
Y-3446D01*
X26318Y-3441D01*
Y-3435D01*
X26317Y-3413D01*
X26313Y-3393D01*
X26308Y-3374D01*
X26303Y-3359D01*
X26297Y-3345D01*
X26294Y-3334D01*
X26292Y-3330D01*
X26290Y-3327D01*
X26289Y-3326D01*
Y-3325D01*
X26276Y-3308D01*
X26261Y-3293D01*
X26247Y-3281D01*
X26231Y-3270D01*
X26218Y-3262D01*
X26207Y-3257D01*
X26203Y-3255D01*
X26200Y-3253D01*
X26198Y-3252D01*
X26197D01*
X26174Y-3244D01*
X26149Y-3239D01*
X26125Y-3235D01*
X26102Y-3232D01*
X26093Y-3231D01*
X26084Y-3230D01*
X26075D01*
X26068Y-3229D01*
X26062D01*
X26059D01*
X26056D01*
X26055D01*
X26031Y-3230D01*
X26009Y-3232D01*
X25988Y-3235D01*
X25970Y-3239D01*
X25954Y-3243D01*
X25947Y-3243D01*
X25942Y-3245D01*
X25938Y-3246D01*
X25935Y-3247D01*
X25933Y-3248D01*
X25932D01*
X25910Y-3257D01*
X25891Y-3268D01*
X25875Y-3280D01*
X25862Y-3290D01*
X25851Y-3301D01*
X25843Y-3310D01*
X25838Y-3316D01*
X25836Y-3317D01*
Y-3318D01*
X25824Y-3337D01*
X25816Y-3358D01*
X25809Y-3378D01*
X25805Y-3398D01*
X25802Y-3415D01*
X25801Y-3422D01*
Y-3429D01*
X25800Y-3434D01*
Y-3441D01*
X25801Y-3464D01*
X25805Y-3484D01*
X25810Y-3503D01*
X25816Y-3518D01*
X25822Y-3530D01*
X25827Y-3539D01*
X25831Y-3545D01*
X25832Y-3547D01*
X25846Y-3562D01*
X25862Y-3575D01*
X25879Y-3587D01*
X25896Y-3596D01*
X25910Y-3602D01*
X25917Y-3605D01*
X25923Y-3608D01*
X25928Y-3610D01*
X25932Y-3611D01*
X25934Y-3612D01*
X25935D01*
X25915Y-3696D01*
X25884Y-3684D01*
X25869Y-3678D01*
X25857Y-3671D01*
X25844Y-3663D01*
X25832Y-3655D01*
X25822Y-3648D01*
X25813Y-3640D01*
X25805Y-3634D01*
X25798Y-3627D01*
X25791Y-3620D01*
X25786Y-3615D01*
X25782Y-3610D01*
X25780Y-3607D01*
X25779Y-3605D01*
X25778Y-3604D01*
X25769Y-3592D01*
X25761Y-3579D01*
X25754Y-3565D01*
X25748Y-3552D01*
X25740Y-3524D01*
X25734Y-3499D01*
X25732Y-3487D01*
X25731Y-3477D01*
X25730Y-3467D01*
X25729Y-3459D01*
X25728Y-3452D01*
Y-3442D01*
X25730Y-3411D01*
X25734Y-3382D01*
X25741Y-3356D01*
X25743Y-3344D01*
X25747Y-3333D01*
X25751Y-3323D01*
X25754Y-3314D01*
X25758Y-3306D01*
X25761Y-3300D01*
X25763Y-3294D01*
X25765Y-3290D01*
X25767Y-3288D01*
Y-3287D01*
X25782Y-3263D01*
X25801Y-3241D01*
X25820Y-3222D01*
X25838Y-3207D01*
X25855Y-3195D01*
X25862Y-3190D01*
X25867Y-3186D01*
X25873Y-3183D01*
X25877Y-3181D01*
X25879Y-3179D01*
X25880D01*
X25908Y-3166D01*
X25939Y-3157D01*
X25968Y-3151D01*
X25995Y-3146D01*
X26008Y-3144D01*
X26019Y-3143D01*
X26029Y-3142D01*
X26038D01*
X26045Y-3141D01*
X26050D01*
X26054D01*
X26055D01*
X26089Y-3142D01*
D02*
G37*
G36*
X25822Y-4098D02*
X25849Y-4075D01*
X25877Y-4055D01*
X25905Y-4036D01*
X25932Y-4018D01*
X25944Y-4011D01*
X25955Y-4004D01*
X25965Y-3998D01*
X25974Y-3994D01*
X25980Y-3990D01*
X25985Y-3987D01*
X25989Y-3985D01*
X25990Y-3984D01*
X26027Y-3965D01*
X26064Y-3949D01*
X26100Y-3935D01*
X26116Y-3929D01*
X26131Y-3923D01*
X26145Y-3918D01*
X26158Y-3915D01*
X26169Y-3911D01*
X26178Y-3908D01*
X26186Y-3906D01*
X26192Y-3904D01*
X26196Y-3903D01*
X26197D01*
X26236Y-3893D01*
X26254Y-3889D01*
X26271Y-3886D01*
X26287Y-3883D01*
X26301Y-3881D01*
X26316Y-3879D01*
X26329Y-3877D01*
X26339Y-3877D01*
X26350Y-3876D01*
X26359Y-3875D01*
X26366D01*
X26372Y-3874D01*
X26376D01*
X26378D01*
X26379D01*
Y-3955D01*
X26344Y-3957D01*
X26311Y-3961D01*
X26282Y-3966D01*
X26268Y-3969D01*
X26256Y-3971D01*
X26245Y-3974D01*
X26234Y-3976D01*
X26225Y-3978D01*
X26218Y-3980D01*
X26212Y-3982D01*
X26208Y-3983D01*
X26205Y-3984D01*
X26204D01*
X26161Y-3997D01*
X26121Y-4012D01*
X26101Y-4020D01*
X26083Y-4028D01*
X26065Y-4036D01*
X26050Y-4042D01*
X26035Y-4049D01*
X26021Y-4056D01*
X26010Y-4062D01*
X26000Y-4067D01*
X25992Y-4071D01*
X25986Y-4074D01*
X25982Y-4075D01*
X25981Y-4076D01*
X25962Y-4088D01*
X25942Y-4099D01*
X25925Y-4111D01*
X25908Y-4121D01*
X25893Y-4131D01*
X25879Y-4142D01*
X25865Y-4152D01*
X25854Y-4160D01*
X25844Y-4168D01*
X25834Y-4176D01*
X25826Y-4183D01*
X25820Y-4188D01*
X25815Y-4193D01*
X25811Y-4195D01*
X25809Y-4197D01*
X25808Y-4198D01*
X25746D01*
Y-3784D01*
X25822D01*
Y-4098D01*
D02*
G37*
G36*
X23814Y-5974D02*
X23825Y-5989D01*
X23836Y-6004D01*
X23848Y-6018D01*
X23859Y-6028D01*
X23868Y-6037D01*
X23873Y-6043D01*
X23874Y-6044D01*
X23875Y-6045D01*
X23894Y-6060D01*
X23913Y-6075D01*
X23933Y-6088D01*
X23950Y-6099D01*
X23966Y-6107D01*
X23973Y-6110D01*
X23979Y-6113D01*
X23983Y-6116D01*
X23987Y-6118D01*
X23989Y-6119D01*
X23990D01*
Y-6196D01*
X23976Y-6190D01*
X23961Y-6183D01*
X23948Y-6178D01*
X23935Y-6171D01*
X23924Y-6165D01*
X23915Y-6160D01*
X23910Y-6156D01*
X23909Y-6155D01*
X23908D01*
X23891Y-6145D01*
X23876Y-6135D01*
X23864Y-6126D01*
X23853Y-6117D01*
X23844Y-6110D01*
X23837Y-6105D01*
X23833Y-6101D01*
X23832Y-6100D01*
Y-6602D01*
X23753D01*
Y-5958D01*
X23805D01*
X23814Y-5974D01*
D02*
G37*
G36*
X24418Y-5952D02*
X24447Y-5956D01*
X24473Y-5963D01*
X24485Y-5966D01*
X24496Y-5970D01*
X24505Y-5974D01*
X24515Y-5977D01*
X24523Y-5981D01*
X24529Y-5983D01*
X24535Y-5985D01*
X24539Y-5987D01*
X24541Y-5989D01*
X24542D01*
X24566Y-6005D01*
X24588Y-6023D01*
X24607Y-6042D01*
X24622Y-6060D01*
X24634Y-6077D01*
X24639Y-6084D01*
X24643Y-6090D01*
X24646Y-6096D01*
X24648Y-6100D01*
X24650Y-6101D01*
Y-6102D01*
X24663Y-6131D01*
X24672Y-6161D01*
X24678Y-6190D01*
X24683Y-6218D01*
X24685Y-6230D01*
X24686Y-6241D01*
X24687Y-6252D01*
Y-6260D01*
X24688Y-6267D01*
Y-6272D01*
Y-6276D01*
Y-6277D01*
X24687Y-6311D01*
X24683Y-6342D01*
X24677Y-6372D01*
X24674Y-6385D01*
X24671Y-6397D01*
X24668Y-6409D01*
X24665Y-6418D01*
X24663Y-6427D01*
X24660Y-6435D01*
X24658Y-6441D01*
X24656Y-6445D01*
X24655Y-6448D01*
Y-6449D01*
X24641Y-6477D01*
X24624Y-6501D01*
X24609Y-6523D01*
X24592Y-6539D01*
X24579Y-6553D01*
X24567Y-6563D01*
X24562Y-6566D01*
X24559Y-6569D01*
X24557Y-6570D01*
X24556Y-6571D01*
X24544Y-6578D01*
X24530Y-6584D01*
X24503Y-6595D01*
X24474Y-6602D01*
X24447Y-6608D01*
X24435Y-6609D01*
X24424Y-6611D01*
X24414Y-6612D01*
X24405D01*
X24397Y-6613D01*
X24387D01*
X24369Y-6612D01*
X24351Y-6611D01*
X24319Y-6604D01*
X24305Y-6600D01*
X24290Y-6595D01*
X24277Y-6590D01*
X24266Y-6585D01*
X24255Y-6580D01*
X24246Y-6575D01*
X24238Y-6571D01*
X24231Y-6567D01*
X24226Y-6563D01*
X24222Y-6560D01*
X24220Y-6559D01*
X24219Y-6558D01*
X24206Y-6547D01*
X24194Y-6535D01*
X24175Y-6510D01*
X24157Y-6484D01*
X24145Y-6457D01*
X24139Y-6446D01*
X24135Y-6435D01*
X24131Y-6424D01*
X24127Y-6417D01*
X24125Y-6409D01*
X24123Y-6404D01*
X24122Y-6400D01*
Y-6399D01*
X24207Y-6377D01*
X24215Y-6406D01*
X24225Y-6431D01*
X24236Y-6452D01*
X24247Y-6469D01*
X24258Y-6482D01*
X24267Y-6492D01*
X24272Y-6497D01*
X24273Y-6498D01*
X24274Y-6499D01*
X24294Y-6513D01*
X24313Y-6523D01*
X24334Y-6531D01*
X24352Y-6535D01*
X24369Y-6538D01*
X24377Y-6539D01*
X24383D01*
X24387Y-6540D01*
X24394D01*
X24416Y-6539D01*
X24436Y-6535D01*
X24455Y-6531D01*
X24470Y-6526D01*
X24484Y-6520D01*
X24495Y-6516D01*
X24499Y-6514D01*
X24502Y-6512D01*
X24503Y-6511D01*
X24504D01*
X24521Y-6498D01*
X24536Y-6484D01*
X24548Y-6469D01*
X24559Y-6454D01*
X24567Y-6441D01*
X24572Y-6429D01*
X24574Y-6425D01*
X24576Y-6422D01*
X24577Y-6420D01*
Y-6419D01*
X24584Y-6396D01*
X24590Y-6372D01*
X24594Y-6347D01*
X24597Y-6325D01*
X24598Y-6315D01*
X24599Y-6306D01*
Y-6298D01*
X24600Y-6291D01*
Y-6285D01*
Y-6281D01*
Y-6278D01*
Y-6277D01*
X24599Y-6254D01*
X24597Y-6231D01*
X24594Y-6211D01*
X24590Y-6192D01*
X24586Y-6177D01*
X24585Y-6170D01*
X24583Y-6165D01*
X24583Y-6160D01*
X24582Y-6157D01*
X24581Y-6155D01*
Y-6154D01*
X24572Y-6133D01*
X24561Y-6113D01*
X24549Y-6098D01*
X24539Y-6084D01*
X24528Y-6073D01*
X24519Y-6065D01*
X24513Y-6060D01*
X24512Y-6059D01*
X24511D01*
X24492Y-6047D01*
X24471Y-6038D01*
X24451Y-6031D01*
X24431Y-6027D01*
X24414Y-6024D01*
X24407Y-6023D01*
X24400D01*
X24395Y-6022D01*
X24388D01*
X24365Y-6023D01*
X24345Y-6027D01*
X24326Y-6032D01*
X24311Y-6038D01*
X24299Y-6045D01*
X24290Y-6050D01*
X24284Y-6054D01*
X24282Y-6055D01*
X24267Y-6068D01*
X24254Y-6084D01*
X24242Y-6101D01*
X24233Y-6118D01*
X24227Y-6133D01*
X24224Y-6139D01*
X24221Y-6145D01*
X24219Y-6150D01*
X24218Y-6154D01*
X24217Y-6156D01*
Y-6157D01*
X24133Y-6138D01*
X24145Y-6106D01*
X24151Y-6092D01*
X24158Y-6079D01*
X24166Y-6066D01*
X24174Y-6055D01*
X24181Y-6045D01*
X24188Y-6035D01*
X24195Y-6027D01*
X24202Y-6021D01*
X24209Y-6014D01*
X24214Y-6009D01*
X24219Y-6005D01*
X24222Y-6002D01*
X24224Y-6001D01*
X24225Y-6000D01*
X24237Y-5991D01*
X24250Y-5983D01*
X24264Y-5977D01*
X24277Y-5971D01*
X24305Y-5962D01*
X24330Y-5956D01*
X24342Y-5954D01*
X24352Y-5953D01*
X24362Y-5952D01*
X24370Y-5951D01*
X24377Y-5950D01*
X24386D01*
X24418Y-5952D01*
D02*
G37*
G36*
X23579Y-6377D02*
Y-6449D01*
X23301D01*
Y-6602D01*
X23222D01*
Y-6449D01*
X23135D01*
Y-6377D01*
X23222D01*
Y-5962D01*
X23286D01*
X23579Y-6377D01*
D02*
G37*
G36*
X-8253Y14502D02*
X-8242Y14486D01*
X-8231Y14471D01*
X-8219Y14458D01*
X-8208Y14447D01*
X-8199Y14438D01*
X-8194Y14432D01*
X-8193Y14431D01*
X-8192Y14430D01*
X-8173Y14415D01*
X-8154Y14400D01*
X-8134Y14387D01*
X-8117Y14377D01*
X-8101Y14368D01*
X-8094Y14365D01*
X-8088Y14362D01*
X-8084Y14359D01*
X-8080Y14357D01*
X-8078Y14356D01*
X-8078D01*
Y14279D01*
X-8091Y14285D01*
X-8106Y14292D01*
X-8119Y14298D01*
X-8132Y14304D01*
X-8143Y14310D01*
X-8152Y14315D01*
X-8157Y14319D01*
X-8158Y14320D01*
X-8159D01*
X-8176Y14330D01*
X-8191Y14341D01*
X-8203Y14349D01*
X-8214Y14358D01*
X-8223Y14365D01*
X-8230Y14370D01*
X-8234Y14374D01*
X-8235Y14375D01*
Y13873D01*
X-8314D01*
Y14517D01*
X-8262D01*
X-8253Y14502D01*
D02*
G37*
G36*
X-7403Y13873D02*
X-7484D01*
Y14377D01*
X-7820Y13873D01*
X-7907D01*
Y14514D01*
X-7826D01*
Y14011D01*
X-7488Y14514D01*
X-7403D01*
Y13873D01*
D02*
G37*
G36*
X-7004Y14523D02*
X-6974Y14519D01*
X-6948Y14512D01*
X-6936Y14509D01*
X-6926Y14505D01*
X-6916Y14502D01*
X-6906Y14499D01*
X-6898Y14495D01*
X-6892Y14492D01*
X-6887Y14490D01*
X-6883Y14488D01*
X-6881Y14486D01*
X-6880D01*
X-6855Y14470D01*
X-6833Y14452D01*
X-6814Y14433D01*
X-6800Y14415D01*
X-6787Y14398D01*
X-6782Y14391D01*
X-6778Y14385D01*
X-6775Y14380D01*
X-6773Y14376D01*
X-6772Y14374D01*
Y14373D01*
X-6759Y14344D01*
X-6749Y14314D01*
X-6743Y14285D01*
X-6738Y14258D01*
X-6736Y14245D01*
X-6735Y14234D01*
X-6734Y14224D01*
Y14215D01*
X-6733Y14208D01*
Y14203D01*
Y14199D01*
Y14198D01*
X-6734Y14164D01*
X-6738Y14133D01*
X-6744Y14104D01*
X-6747Y14090D01*
X-6750Y14078D01*
X-6753Y14066D01*
X-6756Y14057D01*
X-6759Y14048D01*
X-6762Y14040D01*
X-6764Y14034D01*
X-6766Y14030D01*
X-6767Y14027D01*
Y14027D01*
X-6780Y13998D01*
X-6797Y13974D01*
X-6812Y13952D01*
X-6829Y13936D01*
X-6843Y13922D01*
X-6854Y13912D01*
X-6859Y13909D01*
X-6862Y13907D01*
X-6864Y13906D01*
X-6865Y13905D01*
X-6878Y13897D01*
X-6891Y13891D01*
X-6919Y13880D01*
X-6947Y13873D01*
X-6974Y13868D01*
X-6986Y13867D01*
X-6998Y13865D01*
X-7008Y13864D01*
X-7016D01*
X-7024Y13863D01*
X-7034D01*
X-7052Y13864D01*
X-7070Y13865D01*
X-7102Y13871D01*
X-7117Y13875D01*
X-7131Y13880D01*
X-7144Y13885D01*
X-7156Y13890D01*
X-7167Y13895D01*
X-7175Y13900D01*
X-7183Y13905D01*
X-7190Y13908D01*
X-7196Y13912D01*
X-7200Y13915D01*
X-7202Y13916D01*
X-7203Y13917D01*
X-7215Y13928D01*
X-7227Y13940D01*
X-7247Y13965D01*
X-7264Y13991D01*
X-7277Y14018D01*
X-7283Y14029D01*
X-7286Y14040D01*
X-7290Y14051D01*
X-7294Y14059D01*
X-7296Y14066D01*
X-7298Y14071D01*
X-7299Y14075D01*
Y14076D01*
X-7214Y14098D01*
X-7207Y14069D01*
X-7197Y14044D01*
X-7185Y14024D01*
X-7174Y14006D01*
X-7164Y13993D01*
X-7155Y13984D01*
X-7149Y13978D01*
X-7148Y13977D01*
X-7147Y13976D01*
X-7128Y13962D01*
X-7108Y13952D01*
X-7088Y13945D01*
X-7069Y13940D01*
X-7052Y13937D01*
X-7045Y13936D01*
X-7039D01*
X-7034Y13935D01*
X-7027D01*
X-7006Y13936D01*
X-6985Y13940D01*
X-6967Y13945D01*
X-6951Y13949D01*
X-6937Y13955D01*
X-6927Y13959D01*
X-6923Y13961D01*
X-6920Y13963D01*
X-6919Y13964D01*
X-6918D01*
X-6900Y13977D01*
X-6886Y13991D01*
X-6873Y14006D01*
X-6862Y14022D01*
X-6854Y14034D01*
X-6850Y14046D01*
X-6848Y14050D01*
X-6846Y14053D01*
X-6845Y14055D01*
Y14056D01*
X-6837Y14079D01*
X-6831Y14104D01*
X-6827Y14128D01*
X-6824Y14150D01*
X-6823Y14160D01*
X-6822Y14169D01*
Y14178D01*
X-6821Y14185D01*
Y14190D01*
Y14194D01*
Y14197D01*
Y14198D01*
X-6822Y14222D01*
X-6824Y14244D01*
X-6827Y14264D01*
X-6831Y14283D01*
X-6835Y14299D01*
X-6836Y14305D01*
X-6838Y14310D01*
X-6839Y14315D01*
X-6840Y14318D01*
X-6841Y14320D01*
Y14321D01*
X-6850Y14343D01*
X-6860Y14362D01*
X-6872Y14378D01*
X-6883Y14391D01*
X-6893Y14402D01*
X-6902Y14410D01*
X-6908Y14415D01*
X-6909Y14417D01*
X-6910D01*
X-6930Y14428D01*
X-6950Y14437D01*
X-6970Y14444D01*
X-6990Y14448D01*
X-7008Y14451D01*
X-7014Y14452D01*
X-7021D01*
X-7026Y14453D01*
X-7033D01*
X-7056Y14452D01*
X-7077Y14448D01*
X-7095Y14443D01*
X-7110Y14437D01*
X-7123Y14430D01*
X-7131Y14425D01*
X-7137Y14422D01*
X-7139Y14421D01*
X-7155Y14407D01*
X-7168Y14391D01*
X-7179Y14374D01*
X-7188Y14357D01*
X-7195Y14343D01*
X-7198Y14336D01*
X-7201Y14330D01*
X-7203Y14325D01*
X-7204Y14321D01*
X-7205Y14319D01*
Y14318D01*
X-7288Y14338D01*
X-7277Y14369D01*
X-7270Y14383D01*
X-7263Y14396D01*
X-7255Y14409D01*
X-7247Y14421D01*
X-7241Y14430D01*
X-7233Y14440D01*
X-7226Y14448D01*
X-7219Y14455D01*
X-7212Y14462D01*
X-7207Y14466D01*
X-7203Y14470D01*
X-7200Y14473D01*
X-7198Y14474D01*
X-7197Y14475D01*
X-7184Y14484D01*
X-7171Y14492D01*
X-7158Y14499D01*
X-7144Y14504D01*
X-7117Y14513D01*
X-7091Y14519D01*
X-7080Y14521D01*
X-7069Y14522D01*
X-7059Y14523D01*
X-7051Y14524D01*
X-7045Y14525D01*
X-7035D01*
X-7004Y14523D01*
D02*
G37*
G36*
X-8018Y-13848D02*
X-8003Y-13849D01*
X-7973Y-13855D01*
X-7961Y-13858D01*
X-7948Y-13862D01*
X-7937Y-13867D01*
X-7928Y-13871D01*
X-7919Y-13876D01*
X-7911Y-13879D01*
X-7904Y-13884D01*
X-7898Y-13887D01*
X-7894Y-13890D01*
X-7892Y-13893D01*
X-7890Y-13894D01*
X-7889Y-13895D01*
X-7879Y-13905D01*
X-7871Y-13915D01*
X-7856Y-13937D01*
X-7846Y-13959D01*
X-7838Y-13982D01*
X-7832Y-14001D01*
X-7831Y-14010D01*
X-7829Y-14018D01*
X-7828Y-14024D01*
X-7827Y-14029D01*
Y-14032D01*
Y-14033D01*
X-7908Y-14041D01*
X-7910Y-14020D01*
X-7914Y-14001D01*
X-7919Y-13986D01*
X-7926Y-13972D01*
X-7932Y-13961D01*
X-7937Y-13954D01*
X-7941Y-13950D01*
X-7942Y-13948D01*
X-7956Y-13936D01*
X-7971Y-13927D01*
X-7986Y-13921D01*
X-8001Y-13917D01*
X-8013Y-13915D01*
X-8023Y-13914D01*
X-8027Y-13913D01*
X-8033D01*
X-8052Y-13914D01*
X-8070Y-13917D01*
X-8085Y-13922D01*
X-8097Y-13928D01*
X-8107Y-13935D01*
X-8115Y-13940D01*
X-8119Y-13944D01*
X-8121Y-13945D01*
X-8132Y-13957D01*
X-8140Y-13971D01*
X-8146Y-13984D01*
X-8151Y-13997D01*
X-8153Y-14007D01*
X-8154Y-14016D01*
X-8155Y-14022D01*
Y-14023D01*
Y-14024D01*
X-8153Y-14040D01*
X-8149Y-14058D01*
X-8143Y-14074D01*
X-8136Y-14088D01*
X-8130Y-14101D01*
X-8124Y-14111D01*
X-8122Y-14115D01*
X-8120Y-14117D01*
X-8118Y-14118D01*
Y-14119D01*
X-8110Y-14129D01*
X-8101Y-14140D01*
X-8091Y-14151D01*
X-8080Y-14161D01*
X-8056Y-14184D01*
X-8033Y-14206D01*
X-8012Y-14225D01*
X-8002Y-14234D01*
X-7993Y-14240D01*
X-7986Y-14247D01*
X-7981Y-14251D01*
X-7977Y-14254D01*
X-7976Y-14255D01*
X-7953Y-14275D01*
X-7932Y-14294D01*
X-7914Y-14311D01*
X-7899Y-14324D01*
X-7888Y-14336D01*
X-7880Y-14345D01*
X-7875Y-14351D01*
X-7873Y-14352D01*
Y-14352D01*
X-7860Y-14368D01*
X-7851Y-14383D01*
X-7841Y-14397D01*
X-7834Y-14410D01*
X-7828Y-14422D01*
X-7824Y-14430D01*
X-7822Y-14435D01*
X-7821Y-14436D01*
Y-14437D01*
X-7818Y-14447D01*
X-7815Y-14457D01*
X-7814Y-14466D01*
X-7813Y-14473D01*
X-7813Y-14480D01*
Y-14486D01*
Y-14490D01*
Y-14491D01*
X-8237D01*
Y-14416D01*
X-7922D01*
X-7932Y-14400D01*
X-7943Y-14388D01*
X-7948Y-14382D01*
X-7952Y-14378D01*
X-7954Y-14375D01*
X-7955Y-14374D01*
X-7960Y-14369D01*
X-7965Y-14364D01*
X-7977Y-14352D01*
X-7993Y-14339D01*
X-8008Y-14325D01*
X-8022Y-14313D01*
X-8034Y-14303D01*
X-8039Y-14299D01*
X-8043Y-14296D01*
X-8045Y-14294D01*
X-8046Y-14293D01*
X-8061Y-14279D01*
X-8075Y-14268D01*
X-8089Y-14256D01*
X-8100Y-14245D01*
X-8111Y-14234D01*
X-8121Y-14226D01*
X-8130Y-14217D01*
X-8138Y-14209D01*
X-8145Y-14202D01*
X-8151Y-14196D01*
X-8160Y-14188D01*
X-8165Y-14182D01*
X-8167Y-14180D01*
X-8179Y-14164D01*
X-8191Y-14151D01*
X-8200Y-14137D01*
X-8207Y-14125D01*
X-8212Y-14115D01*
X-8216Y-14109D01*
X-8218Y-14104D01*
X-8219Y-14102D01*
X-8225Y-14088D01*
X-8229Y-14075D01*
X-8232Y-14062D01*
X-8234Y-14050D01*
X-8235Y-14040D01*
X-8236Y-14033D01*
Y-14028D01*
Y-14026D01*
X-8235Y-14012D01*
X-8234Y-13998D01*
X-8227Y-13974D01*
X-8218Y-13953D01*
X-8209Y-13934D01*
X-8199Y-13919D01*
X-8194Y-13914D01*
X-8190Y-13908D01*
X-8186Y-13904D01*
X-8183Y-13901D01*
X-8182Y-13900D01*
X-8181Y-13899D01*
X-8170Y-13890D01*
X-8160Y-13881D01*
X-8148Y-13875D01*
X-8135Y-13869D01*
X-8111Y-13860D01*
X-8088Y-13854D01*
X-8077Y-13851D01*
X-8067Y-13850D01*
X-8058Y-13849D01*
X-8051Y-13848D01*
X-8044Y-13847D01*
X-8035D01*
X-8018Y-13848D01*
D02*
G37*
G36*
X-7209Y-14491D02*
X-7290D01*
Y-13988D01*
X-7626Y-14491D01*
X-7713D01*
Y-13850D01*
X-7632D01*
Y-14353D01*
X-7295Y-13850D01*
X-7209D01*
Y-14491D01*
D02*
G37*
G36*
X-6810Y-13841D02*
X-6781Y-13845D01*
X-6754Y-13852D01*
X-6743Y-13855D01*
X-6732Y-13859D01*
X-6722Y-13863D01*
X-6712Y-13866D01*
X-6705Y-13870D01*
X-6699Y-13873D01*
X-6693Y-13875D01*
X-6689Y-13877D01*
X-6687Y-13878D01*
X-6686D01*
X-6662Y-13894D01*
X-6639Y-13913D01*
X-6621Y-13931D01*
X-6606Y-13950D01*
X-6593Y-13966D01*
X-6588Y-13973D01*
X-6585Y-13979D01*
X-6582Y-13985D01*
X-6580Y-13989D01*
X-6578Y-13991D01*
Y-13992D01*
X-6565Y-14020D01*
X-6555Y-14050D01*
X-6549Y-14079D01*
X-6545Y-14107D01*
X-6543Y-14119D01*
X-6542Y-14130D01*
X-6541Y-14141D01*
Y-14150D01*
X-6540Y-14156D01*
Y-14161D01*
Y-14165D01*
Y-14166D01*
X-6541Y-14200D01*
X-6545Y-14232D01*
X-6550Y-14261D01*
X-6553Y-14274D01*
X-6556Y-14286D01*
X-6559Y-14298D01*
X-6562Y-14308D01*
X-6565Y-14316D01*
X-6568Y-14324D01*
X-6570Y-14330D01*
X-6572Y-14334D01*
X-6573Y-14337D01*
Y-14338D01*
X-6587Y-14366D01*
X-6603Y-14391D01*
X-6619Y-14412D01*
X-6635Y-14429D01*
X-6649Y-14442D01*
X-6661Y-14452D01*
X-6666Y-14455D01*
X-6668Y-14458D01*
X-6670Y-14459D01*
X-6671Y-14460D01*
X-6684Y-14468D01*
X-6698Y-14473D01*
X-6725Y-14484D01*
X-6753Y-14491D01*
X-6781Y-14497D01*
X-6792Y-14498D01*
X-6804Y-14500D01*
X-6814Y-14501D01*
X-6823D01*
X-6830Y-14502D01*
X-6840D01*
X-6859Y-14501D01*
X-6876Y-14500D01*
X-6908Y-14493D01*
X-6923Y-14489D01*
X-6938Y-14484D01*
X-6950Y-14479D01*
X-6962Y-14474D01*
X-6973Y-14470D01*
X-6982Y-14465D01*
X-6989Y-14460D01*
X-6996Y-14456D01*
X-7002Y-14452D01*
X-7006Y-14449D01*
X-7008Y-14448D01*
X-7009Y-14447D01*
X-7022Y-14436D01*
X-7033Y-14425D01*
X-7053Y-14399D01*
X-7070Y-14373D01*
X-7083Y-14347D01*
X-7089Y-14335D01*
X-7093Y-14324D01*
X-7097Y-14313D01*
X-7101Y-14306D01*
X-7102Y-14298D01*
X-7104Y-14293D01*
X-7105Y-14289D01*
Y-14288D01*
X-7021Y-14267D01*
X-7013Y-14295D01*
X-7003Y-14320D01*
X-6991Y-14341D01*
X-6981Y-14358D01*
X-6970Y-14371D01*
X-6961Y-14381D01*
X-6955Y-14387D01*
X-6954Y-14388D01*
X-6953Y-14389D01*
X-6934Y-14402D01*
X-6914Y-14412D01*
X-6894Y-14420D01*
X-6875Y-14425D01*
X-6859Y-14428D01*
X-6851Y-14429D01*
X-6845D01*
X-6840Y-14430D01*
X-6833D01*
X-6812Y-14429D01*
X-6791Y-14425D01*
X-6773Y-14420D01*
X-6757Y-14415D01*
X-6744Y-14409D01*
X-6733Y-14405D01*
X-6729Y-14403D01*
X-6726Y-14401D01*
X-6725Y-14400D01*
X-6724D01*
X-6706Y-14388D01*
X-6692Y-14373D01*
X-6679Y-14358D01*
X-6668Y-14343D01*
X-6661Y-14330D01*
X-6656Y-14318D01*
X-6654Y-14314D01*
X-6652Y-14312D01*
X-6651Y-14310D01*
Y-14309D01*
X-6643Y-14285D01*
X-6637Y-14261D01*
X-6633Y-14236D01*
X-6630Y-14214D01*
X-6629Y-14204D01*
X-6628Y-14195D01*
Y-14187D01*
X-6627Y-14180D01*
Y-14174D01*
Y-14170D01*
Y-14167D01*
Y-14166D01*
X-6628Y-14143D01*
X-6630Y-14120D01*
X-6633Y-14100D01*
X-6637Y-14081D01*
X-6641Y-14066D01*
X-6642Y-14059D01*
X-6644Y-14054D01*
X-6645Y-14049D01*
X-6646Y-14046D01*
X-6647Y-14044D01*
Y-14043D01*
X-6656Y-14022D01*
X-6666Y-14002D01*
X-6678Y-13987D01*
X-6689Y-13973D01*
X-6700Y-13962D01*
X-6708Y-13955D01*
X-6714Y-13950D01*
X-6715Y-13948D01*
X-6716D01*
X-6736Y-13936D01*
X-6756Y-13927D01*
X-6777Y-13920D01*
X-6796Y-13917D01*
X-6814Y-13914D01*
X-6821Y-13913D01*
X-6827D01*
X-6832Y-13912D01*
X-6839D01*
X-6863Y-13913D01*
X-6883Y-13917D01*
X-6902Y-13921D01*
X-6916Y-13927D01*
X-6929Y-13934D01*
X-6938Y-13939D01*
X-6943Y-13943D01*
X-6945Y-13944D01*
X-6961Y-13957D01*
X-6974Y-13973D01*
X-6985Y-13991D01*
X-6994Y-14007D01*
X-7001Y-14022D01*
X-7004Y-14029D01*
X-7007Y-14035D01*
X-7009Y-14039D01*
X-7010Y-14043D01*
X-7011Y-14045D01*
Y-14046D01*
X-7095Y-14027D01*
X-7083Y-13996D01*
X-7076Y-13981D01*
X-7069Y-13968D01*
X-7062Y-13956D01*
X-7054Y-13944D01*
X-7047Y-13934D01*
X-7039Y-13924D01*
X-7032Y-13917D01*
X-7025Y-13910D01*
X-7019Y-13903D01*
X-7014Y-13898D01*
X-7009Y-13894D01*
X-7006Y-13891D01*
X-7004Y-13890D01*
X-7003Y-13889D01*
X-6990Y-13880D01*
X-6978Y-13873D01*
X-6964Y-13866D01*
X-6950Y-13860D01*
X-6923Y-13851D01*
X-6898Y-13845D01*
X-6886Y-13843D01*
X-6875Y-13842D01*
X-6865Y-13841D01*
X-6858Y-13840D01*
X-6851Y-13839D01*
X-6841D01*
X-6810Y-13841D01*
D02*
G37*
G36*
X19929Y-580D02*
X19940Y-595D01*
X19951Y-610D01*
X19963Y-624D01*
X19974Y-634D01*
X19983Y-643D01*
X19988Y-649D01*
X19989Y-650D01*
X19990Y-651D01*
X20009Y-667D01*
X20028Y-681D01*
X20048Y-694D01*
X20065Y-705D01*
X20081Y-713D01*
X20088Y-716D01*
X20094Y-719D01*
X20098Y-722D01*
X20102Y-724D01*
X20104Y-725D01*
X20104D01*
Y-802D01*
X20091Y-796D01*
X20076Y-789D01*
X20063Y-784D01*
X20050Y-777D01*
X20039Y-771D01*
X20030Y-766D01*
X20024Y-762D01*
X20024Y-761D01*
X20023D01*
X20006Y-751D01*
X19991Y-741D01*
X19979Y-732D01*
X19968Y-723D01*
X19959Y-716D01*
X19952Y-711D01*
X19948Y-707D01*
X19947Y-707D01*
Y-1208D01*
X19868D01*
Y-564D01*
X19920D01*
X19929Y-580D01*
D02*
G37*
G36*
X20634Y-1208D02*
X20234D01*
Y-1133D01*
X20549D01*
Y-567D01*
X20634D01*
Y-1208D01*
D02*
G37*
%LPC*%
G36*
X54013Y-36882D02*
Y-36970D01*
X54016Y-37026D01*
X54019Y-37073D01*
X54025Y-37114D01*
X54031Y-37149D01*
X54039Y-37175D01*
X54045Y-37193D01*
X54048Y-37204D01*
X54051Y-37207D01*
X54072Y-37245D01*
X54098Y-37278D01*
X54124Y-37307D01*
X54148Y-37327D01*
X54171Y-37348D01*
X54192Y-37360D01*
X54203Y-37368D01*
X54209Y-37371D01*
X54250Y-37392D01*
X54291Y-37406D01*
X54332Y-37415D01*
X54367Y-37421D01*
X54403Y-37427D01*
X54426Y-37430D01*
X54449D01*
X54499Y-37427D01*
X54540Y-37421D01*
X54578Y-37409D01*
X54608Y-37398D01*
X54631Y-37389D01*
X54646Y-37377D01*
X54657Y-37371D01*
X54660Y-37368D01*
X54684Y-37342D01*
X54701Y-37316D01*
X54713Y-37289D01*
X54722Y-37266D01*
X54728Y-37242D01*
X54731Y-37225D01*
Y-37213D01*
Y-37210D01*
X54728Y-37187D01*
X54725Y-37166D01*
X54713Y-37131D01*
X54707Y-37117D01*
X54704Y-37108D01*
X54698Y-37102D01*
Y-37099D01*
X54669Y-37064D01*
X54640Y-37040D01*
X54628Y-37032D01*
X54616Y-37026D01*
X54611Y-37020D01*
X54608D01*
X54581Y-37011D01*
X54549Y-37002D01*
X54482Y-36988D01*
X54449Y-36982D01*
X54423Y-36976D01*
X54406Y-36973D01*
X54400D01*
X54353Y-36964D01*
X54309Y-36958D01*
X54268Y-36950D01*
X54230Y-36944D01*
X54195Y-36935D01*
X54165Y-36926D01*
X54136Y-36920D01*
X54110Y-36914D01*
X54086Y-36906D01*
X54069Y-36900D01*
X54051Y-36897D01*
X54037Y-36891D01*
X54028Y-36888D01*
X54019Y-36885D01*
X54013Y-36882D01*
D02*
G37*
G36*
X57328Y-36349D02*
X57314D01*
X57281Y-36352D01*
X57249Y-36355D01*
X57194Y-36370D01*
X57144Y-36393D01*
X57100Y-36420D01*
X57068Y-36446D01*
X57041Y-36466D01*
X57027Y-36484D01*
X57021Y-36487D01*
Y-36490D01*
X56994Y-36525D01*
X56977Y-36569D01*
X56959Y-36613D01*
X56948Y-36654D01*
X56939Y-36692D01*
X56933Y-36724D01*
Y-36736D01*
X56930Y-36745D01*
Y-36750D01*
Y-36753D01*
X57709D01*
X57700Y-36689D01*
X57686Y-36630D01*
X57665Y-36581D01*
X57645Y-36540D01*
X57624Y-36504D01*
X57607Y-36481D01*
X57595Y-36466D01*
X57589Y-36461D01*
X57545Y-36422D01*
X57498Y-36396D01*
X57454Y-36376D01*
X57410Y-36364D01*
X57372Y-36355D01*
X57340Y-36352D01*
X57328Y-36349D01*
D02*
G37*
G36*
X70302Y-35884D02*
X69848D01*
X69787Y-35889D01*
X69737Y-35892D01*
X69696Y-35898D01*
X69667Y-35904D01*
X69646Y-35907D01*
X69631Y-35913D01*
X69629D01*
X69599Y-35925D01*
X69573Y-35939D01*
X69549Y-35957D01*
X69532Y-35971D01*
X69517Y-35989D01*
X69506Y-36001D01*
X69500Y-36010D01*
X69497Y-36012D01*
X69482Y-36042D01*
X69470Y-36071D01*
X69462Y-36097D01*
X69456Y-36124D01*
X69453Y-36147D01*
X69450Y-36165D01*
Y-36179D01*
Y-36182D01*
X69453Y-36220D01*
X69459Y-36253D01*
X69465Y-36282D01*
X69473Y-36305D01*
X69485Y-36326D01*
X69491Y-36340D01*
X69497Y-36349D01*
X69500Y-36352D01*
X69520Y-36376D01*
X69544Y-36396D01*
X69567Y-36414D01*
X69590Y-36425D01*
X69614Y-36437D01*
X69631Y-36443D01*
X69643Y-36446D01*
X69646Y-36449D01*
X69678Y-36455D01*
X69713Y-36461D01*
X69754Y-36463D01*
X69795Y-36466D01*
X69831Y-36469D01*
X70302D01*
Y-35884D01*
D02*
G37*
G36*
Y-36695D02*
X69795D01*
X69737Y-36701D01*
X69690Y-36704D01*
X69649Y-36709D01*
X69620Y-36715D01*
X69596Y-36721D01*
X69585Y-36724D01*
X69579Y-36727D01*
X69544Y-36742D01*
X69514Y-36759D01*
X69488Y-36777D01*
X69467Y-36797D01*
X69450Y-36815D01*
X69435Y-36827D01*
X69429Y-36838D01*
X69426Y-36841D01*
X69406Y-36871D01*
X69391Y-36903D01*
X69383Y-36935D01*
X69374Y-36964D01*
X69371Y-36988D01*
X69368Y-37008D01*
Y-37020D01*
Y-37026D01*
X69371Y-37061D01*
X69374Y-37090D01*
X69380Y-37119D01*
X69385Y-37143D01*
X69394Y-37163D01*
X69400Y-37178D01*
X69403Y-37187D01*
X69406Y-37190D01*
X69421Y-37213D01*
X69438Y-37237D01*
X69453Y-37254D01*
X69470Y-37269D01*
X69485Y-37283D01*
X69494Y-37292D01*
X69503Y-37295D01*
X69506Y-37298D01*
X69552Y-37322D01*
X69599Y-37336D01*
X69620Y-37342D01*
X69637Y-37345D01*
X69649Y-37348D01*
X69652D01*
X69672Y-37351D01*
X69699Y-37354D01*
X69757Y-37357D01*
X70302D01*
Y-36695D01*
D02*
G37*
G36*
X68237Y-36352D02*
X68188D01*
X68158Y-36358D01*
X68103Y-36373D01*
X68053Y-36396D01*
X68009Y-36420D01*
X67977Y-36443D01*
X67950Y-36466D01*
X67936Y-36481D01*
X67930Y-36484D01*
Y-36487D01*
X67889Y-36543D01*
X67860Y-36604D01*
X67839Y-36671D01*
X67825Y-36733D01*
X67816Y-36791D01*
X67813Y-36815D01*
Y-36835D01*
X67810Y-36856D01*
Y-36868D01*
Y-36876D01*
Y-36879D01*
Y-36929D01*
X67816Y-36976D01*
X67822Y-37020D01*
X67827Y-37058D01*
X67836Y-37096D01*
X67848Y-37131D01*
X67857Y-37160D01*
X67868Y-37187D01*
X67880Y-37210D01*
X67889Y-37231D01*
X67901Y-37248D01*
X67909Y-37263D01*
X67915Y-37275D01*
X67921Y-37283D01*
X67927Y-37286D01*
Y-37289D01*
X67950Y-37313D01*
X67974Y-37333D01*
X68021Y-37365D01*
X68071Y-37389D01*
X68117Y-37404D01*
X68158Y-37415D01*
X68191Y-37418D01*
X68202Y-37421D01*
X68220D01*
X68252Y-37418D01*
X68284Y-37415D01*
X68340Y-37401D01*
X68393Y-37380D01*
X68434Y-37354D01*
X68469Y-37330D01*
X68495Y-37310D01*
X68510Y-37295D01*
X68516Y-37289D01*
X68536Y-37263D01*
X68554Y-37234D01*
X68583Y-37169D01*
X68601Y-37102D01*
X68615Y-37037D01*
X68624Y-36979D01*
X68627Y-36953D01*
Y-36932D01*
X68630Y-36914D01*
Y-36900D01*
Y-36891D01*
Y-36888D01*
Y-36838D01*
X68624Y-36794D01*
X68618Y-36750D01*
X68612Y-36712D01*
X68604Y-36674D01*
X68595Y-36642D01*
X68583Y-36613D01*
X68571Y-36586D01*
X68563Y-36563D01*
X68551Y-36543D01*
X68542Y-36525D01*
X68533Y-36510D01*
X68527Y-36502D01*
X68522Y-36493D01*
X68516Y-36487D01*
X68492Y-36463D01*
X68469Y-36443D01*
X68419Y-36408D01*
X68369Y-36384D01*
X68322Y-36370D01*
X68281Y-36358D01*
X68249Y-36355D01*
X68237Y-36352D01*
D02*
G37*
G36*
X65250D02*
X65200D01*
X65171Y-36358D01*
X65116Y-36373D01*
X65066Y-36396D01*
X65022Y-36420D01*
X64990Y-36443D01*
X64963Y-36466D01*
X64949Y-36481D01*
X64943Y-36484D01*
Y-36487D01*
X64902Y-36543D01*
X64872Y-36604D01*
X64852Y-36671D01*
X64837Y-36733D01*
X64829Y-36791D01*
X64826Y-36815D01*
Y-36835D01*
X64823Y-36856D01*
Y-36868D01*
Y-36876D01*
Y-36879D01*
Y-36929D01*
X64829Y-36976D01*
X64834Y-37020D01*
X64840Y-37058D01*
X64849Y-37096D01*
X64861Y-37131D01*
X64870Y-37160D01*
X64881Y-37187D01*
X64893Y-37210D01*
X64902Y-37231D01*
X64913Y-37248D01*
X64922Y-37263D01*
X64928Y-37275D01*
X64934Y-37283D01*
X64940Y-37286D01*
Y-37289D01*
X64963Y-37313D01*
X64987Y-37333D01*
X65034Y-37365D01*
X65083Y-37389D01*
X65130Y-37404D01*
X65171Y-37415D01*
X65203Y-37418D01*
X65215Y-37421D01*
X65233D01*
X65265Y-37418D01*
X65297Y-37415D01*
X65353Y-37401D01*
X65405Y-37380D01*
X65446Y-37354D01*
X65482Y-37330D01*
X65508Y-37310D01*
X65523Y-37295D01*
X65528Y-37289D01*
X65549Y-37263D01*
X65567Y-37234D01*
X65596Y-37169D01*
X65613Y-37102D01*
X65628Y-37037D01*
X65637Y-36979D01*
X65640Y-36953D01*
Y-36932D01*
X65643Y-36914D01*
Y-36900D01*
Y-36891D01*
Y-36888D01*
Y-36838D01*
X65637Y-36794D01*
X65631Y-36750D01*
X65625Y-36712D01*
X65616Y-36674D01*
X65608Y-36642D01*
X65596Y-36613D01*
X65584Y-36586D01*
X65575Y-36563D01*
X65564Y-36543D01*
X65555Y-36525D01*
X65546Y-36510D01*
X65540Y-36502D01*
X65534Y-36493D01*
X65528Y-36487D01*
X65505Y-36463D01*
X65482Y-36443D01*
X65432Y-36408D01*
X65382Y-36384D01*
X65335Y-36370D01*
X65294Y-36358D01*
X65262Y-36355D01*
X65250Y-36352D01*
D02*
G37*
G36*
X60474Y-35846D02*
X60447D01*
X60377Y-35848D01*
X60313Y-35860D01*
X60254Y-35875D01*
X60204Y-35892D01*
X60163Y-35913D01*
X60131Y-35928D01*
X60119Y-35933D01*
X60111Y-35939D01*
X60108Y-35942D01*
X60105D01*
X60052Y-35980D01*
X60005Y-36024D01*
X59964Y-36071D01*
X59932Y-36115D01*
X59906Y-36153D01*
X59888Y-36185D01*
X59882Y-36197D01*
X59876Y-36206D01*
X59873Y-36212D01*
Y-36215D01*
X59847Y-36282D01*
X59826Y-36352D01*
X59812Y-36422D01*
X59800Y-36484D01*
X59794Y-36540D01*
Y-36566D01*
X59791Y-36586D01*
Y-36601D01*
Y-36613D01*
Y-36622D01*
Y-36625D01*
X59794Y-36692D01*
X59800Y-36756D01*
X59809Y-36815D01*
X59821Y-36871D01*
X59835Y-36923D01*
X59850Y-36970D01*
X59867Y-37011D01*
X59885Y-37052D01*
X59903Y-37084D01*
X59920Y-37114D01*
X59935Y-37140D01*
X59949Y-37160D01*
X59961Y-37178D01*
X59970Y-37190D01*
X59976Y-37196D01*
X59979Y-37199D01*
X60014Y-37234D01*
X60052Y-37263D01*
X60090Y-37289D01*
X60131Y-37313D01*
X60169Y-37333D01*
X60210Y-37348D01*
X60283Y-37371D01*
X60318Y-37380D01*
X60351Y-37386D01*
X60377Y-37392D01*
X60403Y-37395D01*
X60424Y-37398D01*
X60450D01*
X60503Y-37395D01*
X60550Y-37389D01*
X60597Y-37380D01*
X60641Y-37365D01*
X60685Y-37351D01*
X60723Y-37333D01*
X60758Y-37316D01*
X60790Y-37298D01*
X60819Y-37281D01*
X60846Y-37260D01*
X60866Y-37245D01*
X60884Y-37231D01*
X60898Y-37216D01*
X60910Y-37207D01*
X60916Y-37201D01*
X60919Y-37199D01*
X60951Y-37160D01*
X60980Y-37117D01*
X61004Y-37073D01*
X61024Y-37029D01*
X61042Y-36982D01*
X61059Y-36938D01*
X61080Y-36850D01*
X61089Y-36809D01*
X61095Y-36771D01*
X61097Y-36739D01*
X61100Y-36709D01*
X61103Y-36683D01*
Y-36666D01*
Y-36654D01*
Y-36651D01*
X61100Y-36572D01*
X61095Y-36499D01*
X61086Y-36434D01*
X61074Y-36373D01*
X61059Y-36314D01*
X61042Y-36264D01*
X61024Y-36220D01*
X61007Y-36179D01*
X60989Y-36144D01*
X60972Y-36115D01*
X60954Y-36089D01*
X60939Y-36068D01*
X60928Y-36053D01*
X60919Y-36042D01*
X60913Y-36036D01*
X60910Y-36033D01*
X60872Y-36001D01*
X60834Y-35971D01*
X60796Y-35945D01*
X60755Y-35925D01*
X60717Y-35907D01*
X60679Y-35892D01*
X60605Y-35869D01*
X60573Y-35860D01*
X60544Y-35854D01*
X60515Y-35851D01*
X60491Y-35848D01*
X60474Y-35846D01*
D02*
G37*
G36*
X26200Y-35884D02*
X25746D01*
X25685Y-35889D01*
X25635Y-35892D01*
X25594Y-35898D01*
X25565Y-35904D01*
X25544Y-35907D01*
X25529Y-35913D01*
X25526D01*
X25497Y-35925D01*
X25471Y-35939D01*
X25447Y-35957D01*
X25430Y-35971D01*
X25415Y-35989D01*
X25403Y-36001D01*
X25398Y-36010D01*
X25395Y-36012D01*
X25380Y-36042D01*
X25368Y-36071D01*
X25360Y-36097D01*
X25354Y-36124D01*
X25351Y-36147D01*
X25348Y-36165D01*
Y-36179D01*
Y-36182D01*
X25351Y-36220D01*
X25357Y-36253D01*
X25362Y-36282D01*
X25371Y-36305D01*
X25383Y-36326D01*
X25389Y-36340D01*
X25395Y-36349D01*
X25398Y-36352D01*
X25418Y-36376D01*
X25442Y-36396D01*
X25465Y-36414D01*
X25488Y-36425D01*
X25512Y-36437D01*
X25529Y-36443D01*
X25541Y-36446D01*
X25544Y-36449D01*
X25576Y-36455D01*
X25611Y-36461D01*
X25652Y-36463D01*
X25693Y-36466D01*
X25729Y-36469D01*
X26200D01*
Y-35884D01*
D02*
G37*
G36*
Y-36695D02*
X25693D01*
X25635Y-36701D01*
X25588Y-36704D01*
X25547Y-36709D01*
X25518Y-36715D01*
X25494Y-36721D01*
X25483Y-36724D01*
X25477Y-36727D01*
X25442Y-36742D01*
X25412Y-36759D01*
X25386Y-36777D01*
X25365Y-36797D01*
X25348Y-36815D01*
X25333Y-36827D01*
X25327Y-36838D01*
X25324Y-36841D01*
X25304Y-36871D01*
X25289Y-36903D01*
X25280Y-36935D01*
X25272Y-36964D01*
X25269Y-36988D01*
X25266Y-37008D01*
Y-37020D01*
Y-37026D01*
X25269Y-37061D01*
X25272Y-37090D01*
X25278Y-37119D01*
X25283Y-37143D01*
X25292Y-37163D01*
X25298Y-37178D01*
X25301Y-37187D01*
X25304Y-37190D01*
X25319Y-37213D01*
X25336Y-37237D01*
X25351Y-37254D01*
X25368Y-37269D01*
X25383Y-37283D01*
X25392Y-37292D01*
X25401Y-37295D01*
X25403Y-37298D01*
X25450Y-37322D01*
X25497Y-37336D01*
X25518Y-37342D01*
X25535Y-37345D01*
X25547Y-37348D01*
X25550D01*
X25570Y-37351D01*
X25597Y-37354D01*
X25655Y-37357D01*
X26200D01*
Y-36695D01*
D02*
G37*
G36*
X23837Y-35846D02*
X23810D01*
X23740Y-35848D01*
X23676Y-35860D01*
X23617Y-35875D01*
X23567Y-35892D01*
X23526Y-35913D01*
X23494Y-35928D01*
X23482Y-35933D01*
X23474Y-35939D01*
X23471Y-35942D01*
X23468D01*
X23415Y-35980D01*
X23368Y-36024D01*
X23327Y-36071D01*
X23295Y-36115D01*
X23269Y-36153D01*
X23251Y-36185D01*
X23245Y-36197D01*
X23239Y-36206D01*
X23236Y-36212D01*
Y-36215D01*
X23210Y-36282D01*
X23189Y-36352D01*
X23175Y-36422D01*
X23163Y-36484D01*
X23157Y-36540D01*
Y-36566D01*
X23154Y-36586D01*
Y-36601D01*
Y-36613D01*
Y-36622D01*
Y-36625D01*
X23157Y-36692D01*
X23163Y-36756D01*
X23172Y-36815D01*
X23184Y-36871D01*
X23198Y-36923D01*
X23213Y-36970D01*
X23230Y-37011D01*
X23248Y-37052D01*
X23266Y-37084D01*
X23283Y-37114D01*
X23298Y-37140D01*
X23312Y-37160D01*
X23324Y-37178D01*
X23333Y-37190D01*
X23339Y-37196D01*
X23342Y-37199D01*
X23377Y-37234D01*
X23415Y-37263D01*
X23453Y-37289D01*
X23494Y-37313D01*
X23532Y-37333D01*
X23573Y-37348D01*
X23646Y-37371D01*
X23681Y-37380D01*
X23714Y-37386D01*
X23740Y-37392D01*
X23766Y-37395D01*
X23787Y-37398D01*
X23813D01*
X23866Y-37395D01*
X23913Y-37389D01*
X23960Y-37380D01*
X24004Y-37365D01*
X24048Y-37351D01*
X24086Y-37333D01*
X24121Y-37316D01*
X24153Y-37298D01*
X24182Y-37281D01*
X24209Y-37260D01*
X24229Y-37245D01*
X24247Y-37231D01*
X24261Y-37216D01*
X24273Y-37207D01*
X24279Y-37201D01*
X24282Y-37199D01*
X24314Y-37160D01*
X24343Y-37117D01*
X24367Y-37073D01*
X24387Y-37029D01*
X24405Y-36982D01*
X24422Y-36938D01*
X24443Y-36850D01*
X24452Y-36809D01*
X24458Y-36771D01*
X24460Y-36739D01*
X24463Y-36709D01*
X24466Y-36683D01*
Y-36666D01*
Y-36654D01*
Y-36651D01*
X24463Y-36572D01*
X24458Y-36499D01*
X24449Y-36434D01*
X24437Y-36373D01*
X24422Y-36314D01*
X24405Y-36264D01*
X24387Y-36220D01*
X24370Y-36179D01*
X24352Y-36144D01*
X24335Y-36115D01*
X24317Y-36089D01*
X24302Y-36068D01*
X24291Y-36053D01*
X24282Y-36042D01*
X24276Y-36036D01*
X24273Y-36033D01*
X24235Y-36001D01*
X24197Y-35971D01*
X24159Y-35945D01*
X24118Y-35925D01*
X24080Y-35907D01*
X24042Y-35892D01*
X23968Y-35869D01*
X23936Y-35860D01*
X23907Y-35854D01*
X23878Y-35851D01*
X23854Y-35848D01*
X23837Y-35846D01*
D02*
G37*
G36*
X-3375Y7633D02*
X-4576D01*
Y6152D01*
D01*
X-2972Y6484D01*
Y7182D01*
X-2975Y7199D01*
X-2977Y7238D01*
X-2982Y7282D01*
X-2989Y7326D01*
X-2999Y7370D01*
X-3014Y7411D01*
X-3016Y7416D01*
X-3021Y7428D01*
X-3031Y7448D01*
X-3045Y7470D01*
X-3065Y7497D01*
X-3089Y7524D01*
X-3116Y7548D01*
X-3150Y7572D01*
X-3155Y7575D01*
X-3167Y7582D01*
X-3187Y7592D01*
X-3214Y7604D01*
X-3248Y7614D01*
X-3285Y7624D01*
X-3328Y7631D01*
X-3375Y7633D01*
D02*
G37*
G36*
X-2972Y5995D02*
X-4576D01*
Y4795D01*
D01*
X-2972Y5127D01*
Y5456D01*
X-4307Y5178D01*
Y5995D01*
X-4576Y5939D01*
Y5995D01*
X-2972D01*
D02*
G37*
G36*
X-3846Y4704D02*
X-4149Y4643D01*
Y4704D01*
Y4038D01*
X-3846Y4099D01*
Y4704D01*
D02*
G37*
G36*
X-2965Y3955D02*
X-3575D01*
D01*
X-2965D01*
D02*
G37*
G36*
X-3575D02*
X-3616D01*
X-3648Y3952D01*
X-3685Y3950D01*
X-3726Y3945D01*
X-3775Y3938D01*
X-3829Y3930D01*
X-3885Y3921D01*
X-3944Y3908D01*
X-4005Y3891D01*
X-4066Y3874D01*
X-4129Y3852D01*
X-4190Y3825D01*
X-4249Y3796D01*
X-4307Y3762D01*
X-4310Y3760D01*
X-4319Y3752D01*
X-4334Y3743D01*
X-4354Y3728D01*
X-4376Y3708D01*
X-4402Y3686D01*
X-4429Y3659D01*
X-4456Y3628D01*
X-4483Y3594D01*
X-4510Y3555D01*
X-4537Y3515D01*
X-4559Y3469D01*
X-4578Y3423D01*
X-4593Y3371D01*
X-4603Y3315D01*
X-4605Y3259D01*
Y3242D01*
X-4603Y3230D01*
Y3213D01*
X-4600Y3196D01*
X-4593Y3154D01*
X-4581Y3108D01*
X-4561Y3061D01*
X-4537Y3013D01*
X-4503Y2969D01*
X-4500D01*
X-4498Y2964D01*
X-4483Y2952D01*
X-4459Y2935D01*
X-4427Y2913D01*
X-4385Y2891D01*
X-4334Y2871D01*
X-4276Y2856D01*
X-4207Y2847D01*
X-4183Y3140D01*
X-4188D01*
X-4197Y3142D01*
X-4215Y3144D01*
X-4234Y3147D01*
X-4280Y3162D01*
X-4300Y3171D01*
X-4317Y3184D01*
X-4319Y3186D01*
X-4322Y3191D01*
X-4329Y3198D01*
X-4334Y3210D01*
X-4341Y3225D01*
X-4349Y3242D01*
X-4351Y3262D01*
X-4354Y3284D01*
Y3298D01*
X-4351Y3313D01*
X-4346Y3332D01*
X-4339Y3354D01*
X-4327Y3376D01*
X-4312Y3401D01*
X-4293Y3425D01*
X-4288Y3430D01*
X-4276Y3440D01*
X-4254Y3457D01*
X-4222Y3476D01*
X-4183Y3498D01*
X-4158Y3511D01*
X-4132Y3523D01*
X-4102Y3535D01*
X-4073Y3547D01*
X-4039Y3557D01*
X-4002Y3567D01*
X-4005Y3562D01*
X-4012Y3550D01*
X-4022Y3528D01*
X-4034Y3501D01*
X-4046Y3469D01*
X-4056Y3432D01*
X-4063Y3393D01*
X-4066Y3352D01*
Y3335D01*
X-4063Y3320D01*
X-4061Y3306D01*
X-4058Y3286D01*
X-4051Y3245D01*
X-4036Y3196D01*
X-4012Y3144D01*
X-4000Y3120D01*
X-3983Y3093D01*
X-3963Y3071D01*
X-3941Y3047D01*
X-3939Y3044D01*
X-3936Y3042D01*
X-3929Y3037D01*
X-3917Y3027D01*
X-3905Y3020D01*
X-3890Y3010D01*
X-3870Y2998D01*
X-3851Y2988D01*
X-3826Y2976D01*
X-3800Y2966D01*
X-3773Y2954D01*
X-3741Y2947D01*
X-3673Y2932D01*
X-3634Y2930D01*
X-3595Y2927D01*
X-3592D01*
X-3582D01*
X-3570D01*
X-3553Y2930D01*
X-3531Y2932D01*
X-3507Y2935D01*
X-3477Y2939D01*
X-3448Y2947D01*
X-3380Y2964D01*
X-3343Y2978D01*
X-3306Y2993D01*
X-3267Y3010D01*
X-3231Y3030D01*
X-3194Y3054D01*
X-3158Y3081D01*
X-3155Y3083D01*
X-3150Y3088D01*
X-3141Y3098D01*
X-3128Y3110D01*
X-3114Y3125D01*
X-3097Y3142D01*
X-3079Y3164D01*
X-3060Y3191D01*
X-3043Y3218D01*
X-3026Y3247D01*
X-3009Y3281D01*
X-2994Y3318D01*
X-2982Y3357D01*
X-2972Y3398D01*
X-2967Y3442D01*
X-2965Y3489D01*
Y2891D01*
Y3511D01*
X-2967Y3525D01*
X-2970Y3545D01*
X-2975Y3567D01*
X-2984Y3618D01*
X-3006Y3674D01*
X-3018Y3701D01*
X-3036Y3730D01*
X-3053Y3760D01*
X-3077Y3786D01*
X-3101Y3811D01*
X-3131Y3835D01*
X-3133Y3838D01*
X-3138Y3840D01*
X-3148Y3847D01*
X-3160Y3855D01*
X-3177Y3862D01*
X-3197Y3874D01*
X-3221Y3884D01*
X-3248Y3896D01*
X-3277Y3906D01*
X-3311Y3918D01*
X-3348Y3928D01*
X-3387Y3935D01*
X-3429Y3945D01*
X-3475Y3950D01*
X-3524Y3952D01*
X-3575Y3955D01*
D02*
G37*
G36*
X-2975Y2712D02*
X-3985Y2503D01*
Y2698D01*
X-4249Y2642D01*
Y2446D01*
X-4576Y2378D01*
Y2446D01*
Y1524D01*
D01*
Y2085D01*
X-4249Y2151D01*
Y1524D01*
D01*
X-3990Y1577D01*
X-2975Y2444D01*
Y2712D01*
D02*
G37*
G36*
X-2965Y1485D02*
X-3382D01*
X-3404Y1482D01*
X-3433Y1477D01*
X-3465Y1468D01*
X-3502Y1455D01*
X-3538Y1438D01*
X-3573Y1416D01*
X-3577Y1414D01*
X-3587Y1404D01*
X-3604Y1387D01*
X-3624Y1365D01*
X-3648Y1336D01*
X-3673Y1302D01*
X-3697Y1260D01*
X-3721Y1211D01*
X-3724Y1216D01*
X-3731Y1228D01*
X-3743Y1245D01*
X-3761Y1267D01*
X-3782Y1292D01*
X-3807Y1316D01*
X-3836Y1341D01*
X-3868Y1360D01*
X-3873Y1363D01*
X-3883Y1367D01*
X-3900Y1375D01*
X-3924Y1385D01*
X-3953Y1394D01*
X-3985Y1402D01*
X-4024Y1407D01*
X-4063Y1409D01*
X-4066D01*
X-4071D01*
X-4080D01*
X-4092Y1407D01*
X-4110D01*
X-4129Y1404D01*
X-4173Y1394D01*
X-4222Y1380D01*
X-4278Y1360D01*
X-4337Y1331D01*
X-4363Y1311D01*
X-4393Y1292D01*
X-4395Y1289D01*
X-4402Y1284D01*
X-4412Y1275D01*
X-4427Y1260D01*
X-4442Y1243D01*
X-4459Y1223D01*
X-4478Y1199D01*
X-4498Y1172D01*
X-4520Y1140D01*
X-4537Y1106D01*
X-4556Y1067D01*
X-4571Y1026D01*
X-4586Y982D01*
X-4595Y935D01*
X-4603Y884D01*
X-4605Y830D01*
Y850D01*
Y362D01*
Y811D01*
X-4603Y796D01*
X-4600Y777D01*
X-4598Y757D01*
X-4590Y708D01*
X-4576Y655D01*
X-4551Y596D01*
X-4539Y569D01*
X-4522Y540D01*
X-4503Y513D01*
X-4481Y489D01*
X-4478Y486D01*
X-4476Y484D01*
X-4468Y477D01*
X-4459Y469D01*
X-4446Y459D01*
X-4432Y450D01*
X-4395Y425D01*
X-4349Y401D01*
X-4295Y381D01*
X-4232Y367D01*
X-4197Y364D01*
X-4163Y362D01*
X-4605D01*
X-2965D01*
X-4149D01*
X-4136Y364D01*
X-4122D01*
X-4105Y367D01*
X-4066Y374D01*
X-4022Y384D01*
X-3973Y398D01*
X-3924Y420D01*
X-3875Y450D01*
X-3873D01*
X-3870Y455D01*
X-3856Y467D01*
X-3831Y486D01*
X-3804Y516D01*
X-3775Y550D01*
X-3746Y591D01*
X-3719Y640D01*
X-3697Y696D01*
X-3695Y691D01*
X-3687Y682D01*
X-3675Y667D01*
X-3660Y647D01*
X-3641Y628D01*
X-3619Y606D01*
X-3595Y586D01*
X-3568Y569D01*
X-3565Y567D01*
X-3555Y562D01*
X-3541Y557D01*
X-3519Y550D01*
X-3497Y540D01*
X-3468Y535D01*
X-3438Y530D01*
X-3407Y528D01*
X-3404D01*
X-3402D01*
X-3389D01*
X-3368Y530D01*
X-3341Y535D01*
X-3309Y542D01*
X-3275Y552D01*
X-3236Y567D01*
X-3197Y586D01*
X-3194D01*
X-3192Y589D01*
X-3180Y599D01*
X-3160Y611D01*
X-3136Y630D01*
X-3109Y655D01*
X-3079Y686D01*
X-3053Y721D01*
X-3028Y762D01*
Y765D01*
X-3026Y767D01*
X-3023Y774D01*
X-3018Y782D01*
X-3009Y806D01*
X-2997Y840D01*
X-2984Y879D01*
X-2975Y923D01*
X-2967Y974D01*
X-2965Y1028D01*
Y1048D01*
X-2967Y1065D01*
Y1082D01*
X-2970Y1101D01*
X-2979Y1150D01*
X-2992Y1204D01*
X-3011Y1260D01*
X-3040Y1314D01*
X-3058Y1338D01*
X-3077Y1363D01*
X-3079Y1365D01*
X-3082Y1367D01*
X-3089Y1375D01*
X-3097Y1382D01*
X-3121Y1402D01*
X-3155Y1424D01*
X-3197Y1446D01*
X-3245Y1465D01*
X-3302Y1480D01*
X-3331Y1482D01*
X-3363Y1485D01*
X-2965D01*
D02*
G37*
G36*
Y110D02*
X-4576Y-226D01*
Y-544D01*
X-3468Y-314D01*
X-3470Y-319D01*
X-3477Y-331D01*
X-3490Y-351D01*
X-3507Y-378D01*
X-3524Y-412D01*
X-3543Y-451D01*
X-3565Y-493D01*
X-3585Y-539D01*
Y-541D01*
X-3587Y-544D01*
X-3590Y-551D01*
X-3595Y-561D01*
X-3602Y-585D01*
X-3614Y-615D01*
X-3626Y-651D01*
X-3638Y-688D01*
X-3648Y-727D01*
X-3658Y-766D01*
X-3377Y-707D01*
X-3375Y-702D01*
X-3370Y-690D01*
X-3360Y-668D01*
X-3346Y-641D01*
X-3328Y-607D01*
X-3309Y-568D01*
X-3287Y-524D01*
X-3260Y-478D01*
X-3231Y-429D01*
X-3199Y-378D01*
X-3128Y-273D01*
X-3092Y-222D01*
X-3050Y-173D01*
X-3009Y-126D01*
X-2965Y-82D01*
Y110D01*
D02*
G37*
G36*
X-2972Y-1056D02*
X-3385D01*
X-3409Y-1061D01*
X-3441Y-1066D01*
X-3477Y-1076D01*
X-3516Y-1088D01*
X-3555Y-1108D01*
X-3595Y-1132D01*
X-3599Y-1135D01*
X-3612Y-1147D01*
X-3629Y-1164D01*
X-3651Y-1188D01*
X-3673Y-1220D01*
X-3699Y-1259D01*
X-3721Y-1305D01*
X-3743Y-1359D01*
Y-1357D01*
X-3746Y-1354D01*
X-3751Y-1340D01*
X-3758Y-1318D01*
X-3770Y-1288D01*
X-3787Y-1259D01*
X-3809Y-1227D01*
X-3834Y-1196D01*
X-3865Y-1169D01*
X-3870Y-1166D01*
X-3880Y-1156D01*
X-3897Y-1147D01*
X-3922Y-1132D01*
X-3951Y-1120D01*
X-3983Y-1108D01*
X-4022Y-1100D01*
X-4061Y-1098D01*
X-4063D01*
X-4068D01*
X-4075D01*
X-4085D01*
X-4097Y-1100D01*
X-4112Y-1103D01*
X-4149Y-1108D01*
X-4190Y-1117D01*
X-4236Y-1132D01*
X-4285Y-1154D01*
X-4334Y-1181D01*
X-4337D01*
X-4339Y-1186D01*
X-4356Y-1196D01*
X-4378Y-1215D01*
X-4405Y-1239D01*
X-4437Y-1274D01*
X-4466Y-1313D01*
X-4495Y-1357D01*
X-4520Y-1408D01*
Y-1410D01*
X-4522Y-1415D01*
X-4525Y-1423D01*
X-4529Y-1435D01*
X-4532Y-1449D01*
X-4537Y-1466D01*
X-4542Y-1488D01*
X-4546Y-1510D01*
X-4554Y-1537D01*
X-4559Y-1567D01*
X-4564Y-1598D01*
X-4566Y-1635D01*
X-4571Y-1672D01*
X-4573Y-1713D01*
X-4576Y-1755D01*
Y-2555D01*
X-2972Y-2223D01*
Y-1613D01*
X-2975Y-1576D01*
Y-1535D01*
X-2977Y-1493D01*
X-2979Y-1457D01*
X-2982Y-1440D01*
X-2984Y-1425D01*
Y-1420D01*
X-2987Y-1405D01*
X-2992Y-1383D01*
X-2999Y-1357D01*
X-3009Y-1325D01*
X-3018Y-1291D01*
X-3033Y-1257D01*
X-3050Y-1225D01*
X-3053Y-1220D01*
X-3060Y-1210D01*
X-3070Y-1196D01*
X-3084Y-1178D01*
X-3104Y-1159D01*
X-3126Y-1137D01*
X-3153Y-1117D01*
X-3182Y-1100D01*
X-3184Y-1098D01*
X-3197Y-1093D01*
X-3214Y-1086D01*
X-3236Y-1078D01*
X-3263Y-1071D01*
X-3292Y-1064D01*
X-3326Y-1059D01*
X-3363Y-1056D01*
X-2972D01*
D02*
G37*
G36*
Y-2592D02*
X-4576Y-2882D01*
Y-3180D01*
X-3248Y-2904D01*
X-4576Y-3497D01*
Y-3810D01*
X-3238Y-3868D01*
X-4576Y-4122D01*
Y-4420D01*
X-2972Y-4086D01*
Y-4420D01*
Y-3617D01*
X-4073Y-3566D01*
X-2972Y-3065D01*
Y-2592D01*
D02*
G37*
%LPD*%
G36*
X-3382Y7301D02*
X-3368D01*
X-3336Y7292D01*
X-3321Y7287D01*
X-3306Y7277D01*
X-3304D01*
X-3302Y7272D01*
X-3287Y7257D01*
X-3267Y7235D01*
X-3253Y7204D01*
Y7201D01*
X-3250Y7194D01*
X-3248Y7182D01*
X-3243Y7160D01*
X-3241Y7133D01*
X-3238Y7096D01*
Y7074D01*
X-3236Y7052D01*
Y6760D01*
X-3695Y6664D01*
Y6828D01*
X-3692Y6852D01*
X-3690Y6906D01*
X-3687Y6965D01*
X-3680Y7023D01*
X-3678Y7048D01*
X-3673Y7074D01*
X-3668Y7094D01*
X-3663Y7113D01*
X-3660Y7118D01*
X-3656Y7128D01*
X-3648Y7145D01*
X-3638Y7165D01*
X-3624Y7187D01*
X-3607Y7209D01*
X-3585Y7233D01*
X-3560Y7253D01*
X-3558Y7255D01*
X-3548Y7260D01*
X-3533Y7270D01*
X-3514Y7279D01*
X-3490Y7287D01*
X-3463Y7297D01*
X-3433Y7301D01*
X-3402Y7304D01*
X-3399D01*
X-3392D01*
X-3382Y7301D01*
D02*
G37*
G36*
X-3419Y7631D02*
X-3451Y7628D01*
X-3487Y7621D01*
X-3526Y7614D01*
X-3568Y7602D01*
X-3612Y7585D01*
X-3614D01*
X-3616Y7582D01*
X-3631Y7577D01*
X-3651Y7567D01*
X-3678Y7553D01*
X-3707Y7536D01*
X-3736Y7516D01*
X-3768Y7494D01*
X-3795Y7470D01*
X-3797Y7467D01*
X-3807Y7458D01*
X-3819Y7443D01*
X-3834Y7426D01*
X-3851Y7404D01*
X-3868Y7377D01*
X-3885Y7350D01*
X-3900Y7321D01*
X-3902Y7318D01*
X-3905Y7306D01*
X-3912Y7289D01*
X-3919Y7265D01*
X-3926Y7235D01*
X-3936Y7199D01*
X-3946Y7157D01*
X-3953Y7111D01*
Y7106D01*
X-3956Y7096D01*
Y7074D01*
X-3958Y7062D01*
Y7026D01*
X-3961Y7006D01*
Y6955D01*
X-3963Y6925D01*
Y6608D01*
X-4576Y6479D01*
Y7633D01*
X-3397D01*
X-3419Y7631D01*
D02*
G37*
G36*
X-3421Y3650D02*
X-3394Y3645D01*
X-3363Y3640D01*
X-3333Y3630D01*
X-3302Y3618D01*
X-3277Y3601D01*
X-3275Y3598D01*
X-3267Y3591D01*
X-3258Y3581D01*
X-3245Y3567D01*
X-3236Y3547D01*
X-3226Y3528D01*
X-3219Y3503D01*
X-3216Y3476D01*
Y3472D01*
X-3219Y3462D01*
X-3221Y3445D01*
X-3226Y3423D01*
X-3238Y3398D01*
X-3253Y3371D01*
X-3275Y3347D01*
X-3304Y3320D01*
X-3306D01*
X-3309Y3315D01*
X-3316Y3313D01*
X-3326Y3306D01*
X-3336Y3301D01*
X-3350Y3293D01*
X-3385Y3276D01*
X-3431Y3259D01*
X-3482Y3247D01*
X-3546Y3237D01*
X-3614Y3232D01*
X-3616D01*
X-3619D01*
X-3634D01*
X-3656Y3235D01*
X-3685Y3240D01*
X-3714Y3245D01*
X-3746Y3252D01*
X-3775Y3264D01*
X-3800Y3281D01*
X-3802Y3284D01*
X-3809Y3291D01*
X-3819Y3301D01*
X-3829Y3315D01*
X-3839Y3332D01*
X-3848Y3352D01*
X-3856Y3376D01*
X-3858Y3401D01*
Y3411D01*
X-3856Y3423D01*
X-3853Y3437D01*
X-3848Y3457D01*
X-3839Y3476D01*
X-3829Y3498D01*
X-3814Y3520D01*
X-3812Y3523D01*
X-3804Y3530D01*
X-3795Y3542D01*
X-3778Y3555D01*
X-3758Y3572D01*
X-3734Y3586D01*
X-3702Y3601D01*
X-3668Y3616D01*
X-3663Y3618D01*
X-3651Y3620D01*
X-3631Y3628D01*
X-3604Y3635D01*
X-3575Y3640D01*
X-3541Y3647D01*
X-3504Y3650D01*
X-3465Y3652D01*
X-3463D01*
X-3460D01*
X-3443D01*
X-3421Y3650D01*
D02*
G37*
G36*
X-3985Y1890D02*
Y2207D01*
X-3485Y2312D01*
X-3985Y1890D01*
D02*
G37*
G36*
X-3355Y1189D02*
X-3336Y1187D01*
X-3316Y1180D01*
X-3297Y1172D01*
X-3275Y1160D01*
X-3255Y1143D01*
X-3253Y1140D01*
X-3248Y1136D01*
X-3241Y1123D01*
X-3231Y1111D01*
X-3221Y1094D01*
X-3214Y1072D01*
X-3209Y1050D01*
X-3206Y1023D01*
Y1009D01*
X-3209Y994D01*
X-3214Y972D01*
X-3224Y950D01*
X-3233Y926D01*
X-3250Y901D01*
X-3272Y877D01*
X-3275Y874D01*
X-3285Y867D01*
X-3297Y857D01*
X-3316Y848D01*
X-3338Y835D01*
X-3365Y826D01*
X-3394Y818D01*
X-3426Y816D01*
X-3429D01*
X-3438D01*
X-3453Y818D01*
X-3470Y821D01*
X-3490Y826D01*
X-3509Y835D01*
X-3529Y845D01*
X-3548Y860D01*
X-3551Y862D01*
X-3555Y867D01*
X-3563Y879D01*
X-3570Y891D01*
X-3580Y909D01*
X-3587Y931D01*
X-3592Y952D01*
X-3595Y979D01*
Y994D01*
X-3592Y1009D01*
X-3587Y1028D01*
X-3580Y1053D01*
X-3568Y1077D01*
X-3553Y1101D01*
X-3531Y1126D01*
X-3529Y1128D01*
X-3519Y1136D01*
X-3507Y1148D01*
X-3490Y1160D01*
X-3468Y1170D01*
X-3441Y1182D01*
X-3414Y1189D01*
X-3382Y1192D01*
X-3380D01*
X-3370D01*
X-3355Y1189D01*
D02*
G37*
G36*
X-3992Y1104D02*
X-3975Y1099D01*
X-3953Y1094D01*
X-3931Y1084D01*
X-3909Y1072D01*
X-3890Y1055D01*
X-3887Y1053D01*
X-3883Y1045D01*
X-3873Y1035D01*
X-3863Y1018D01*
X-3853Y1001D01*
X-3843Y977D01*
X-3839Y952D01*
X-3836Y923D01*
Y918D01*
X-3839Y906D01*
X-3841Y889D01*
X-3848Y865D01*
X-3858Y838D01*
X-3875Y808D01*
X-3897Y779D01*
X-3929Y750D01*
X-3934Y747D01*
X-3946Y738D01*
X-3966Y725D01*
X-3992Y713D01*
X-4027Y699D01*
X-4068Y686D01*
X-4114Y677D01*
X-4168Y674D01*
X-4173D01*
X-4183D01*
X-4200Y677D01*
X-4219Y682D01*
X-4241Y686D01*
X-4266Y694D01*
X-4288Y706D01*
X-4310Y723D01*
X-4312Y725D01*
X-4317Y733D01*
X-4324Y743D01*
X-4334Y757D01*
X-4344Y777D01*
X-4351Y796D01*
X-4356Y823D01*
X-4359Y850D01*
Y855D01*
X-4356Y870D01*
X-4354Y891D01*
X-4346Y918D01*
X-4332Y950D01*
X-4315Y982D01*
X-4288Y1011D01*
X-4273Y1026D01*
X-4254Y1038D01*
X-4251D01*
X-4249Y1040D01*
X-4234Y1048D01*
X-4212Y1060D01*
X-4185Y1072D01*
X-4149Y1084D01*
X-4110Y1097D01*
X-4068Y1104D01*
X-4022Y1106D01*
X-4019D01*
X-4007D01*
X-3992Y1104D01*
D02*
G37*
G36*
X-3380Y-1383D02*
X-3365Y-1386D01*
X-3350Y-1391D01*
X-3333Y-1396D01*
X-3316Y-1405D01*
X-3302Y-1418D01*
X-3299Y-1420D01*
X-3294Y-1425D01*
X-3289Y-1432D01*
X-3280Y-1442D01*
X-3272Y-1457D01*
X-3263Y-1474D01*
X-3255Y-1493D01*
X-3248Y-1518D01*
Y-1520D01*
X-3245Y-1525D01*
Y-1537D01*
X-3243Y-1552D01*
Y-1576D01*
X-3241Y-1606D01*
Y-1950D01*
X-3621Y-2028D01*
Y-1750D01*
X-3619Y-1718D01*
Y-1681D01*
X-3616Y-1642D01*
X-3612Y-1601D01*
X-3607Y-1564D01*
X-3599Y-1532D01*
X-3597Y-1530D01*
X-3595Y-1520D01*
X-3590Y-1506D01*
X-3580Y-1491D01*
X-3570Y-1471D01*
X-3555Y-1452D01*
X-3541Y-1435D01*
X-3521Y-1420D01*
X-3519Y-1418D01*
X-3512Y-1413D01*
X-3499Y-1408D01*
X-3485Y-1401D01*
X-3468Y-1393D01*
X-3448Y-1386D01*
X-3426Y-1383D01*
X-3402Y-1381D01*
X-3399D01*
X-3392D01*
X-3380Y-1383D01*
D02*
G37*
G36*
X-4056Y-1437D02*
X-4039Y-1442D01*
X-4017Y-1449D01*
X-3995Y-1462D01*
X-3973Y-1476D01*
X-3953Y-1496D01*
X-3951Y-1498D01*
X-3946Y-1508D01*
X-3936Y-1523D01*
X-3926Y-1542D01*
X-3917Y-1569D01*
X-3907Y-1603D01*
X-3902Y-1642D01*
X-3900Y-1691D01*
Y-2086D01*
X-4317Y-2174D01*
Y-1806D01*
X-4315Y-1789D01*
Y-1745D01*
X-4312Y-1701D01*
X-4307Y-1657D01*
X-4300Y-1618D01*
X-4298Y-1601D01*
X-4293Y-1586D01*
X-4290Y-1584D01*
X-4288Y-1574D01*
X-4283Y-1562D01*
X-4273Y-1547D01*
X-4261Y-1530D01*
X-4246Y-1510D01*
X-4229Y-1493D01*
X-4210Y-1476D01*
X-4207Y-1474D01*
X-4200Y-1469D01*
X-4188Y-1464D01*
X-4171Y-1454D01*
X-4154Y-1447D01*
X-4132Y-1442D01*
X-4110Y-1437D01*
X-4085Y-1435D01*
X-4083D01*
X-4071D01*
X-4056Y-1437D01*
D02*
G37*
%LPC*%
G36*
X27532Y-10281D02*
X27381D01*
X27361Y-10283D01*
X27344Y-10284D01*
X27331Y-10286D01*
X27321Y-10288D01*
X27314Y-10289D01*
X27309Y-10291D01*
X27308D01*
X27298Y-10295D01*
X27290Y-10300D01*
X27282Y-10306D01*
X27276Y-10310D01*
X27271Y-10316D01*
X27267Y-10320D01*
X27265Y-10323D01*
X27264Y-10324D01*
X27259Y-10334D01*
X27255Y-10344D01*
X27253Y-10352D01*
X27251Y-10361D01*
X27250Y-10369D01*
X27249Y-10375D01*
Y-10380D01*
Y-10381D01*
X27250Y-10393D01*
X27252Y-10404D01*
X27254Y-10414D01*
X27256Y-10422D01*
X27260Y-10428D01*
X27262Y-10433D01*
X27264Y-10436D01*
X27265Y-10437D01*
X27272Y-10445D01*
X27280Y-10452D01*
X27288Y-10458D01*
X27295Y-10462D01*
X27303Y-10465D01*
X27309Y-10467D01*
X27313Y-10468D01*
X27314Y-10469D01*
X27325Y-10471D01*
X27336Y-10473D01*
X27350Y-10474D01*
X27364Y-10475D01*
X27375Y-10476D01*
X27532D01*
Y-10281D01*
D02*
G37*
G36*
Y-10551D02*
X27364D01*
X27344Y-10553D01*
X27329Y-10554D01*
X27315Y-10556D01*
X27305Y-10558D01*
X27297Y-10560D01*
X27294Y-10561D01*
X27292Y-10562D01*
X27280Y-10567D01*
X27270Y-10573D01*
X27261Y-10579D01*
X27255Y-10585D01*
X27249Y-10591D01*
X27244Y-10595D01*
X27242Y-10599D01*
X27241Y-10600D01*
X27234Y-10610D01*
X27229Y-10621D01*
X27226Y-10631D01*
X27223Y-10641D01*
X27222Y-10649D01*
X27221Y-10656D01*
Y-10660D01*
Y-10662D01*
X27222Y-10673D01*
X27223Y-10683D01*
X27225Y-10693D01*
X27227Y-10701D01*
X27230Y-10707D01*
X27232Y-10712D01*
X27233Y-10715D01*
X27234Y-10716D01*
X27239Y-10724D01*
X27245Y-10732D01*
X27250Y-10738D01*
X27255Y-10742D01*
X27260Y-10747D01*
X27263Y-10750D01*
X27266Y-10751D01*
X27267Y-10752D01*
X27283Y-10760D01*
X27298Y-10765D01*
X27305Y-10767D01*
X27311Y-10768D01*
X27315Y-10769D01*
X27316D01*
X27323Y-10770D01*
X27332Y-10771D01*
X27351Y-10772D01*
X27532D01*
Y-10551D01*
D02*
G37*
G36*
X26431Y-11647D02*
Y-11934D01*
X26631D01*
X26431Y-11647D01*
D02*
G37*
G36*
X23345Y-3888D02*
X23340D01*
X23338D01*
X23316Y-3890D01*
X23296Y-3894D01*
X23279Y-3900D01*
X23264Y-3907D01*
X23253Y-3914D01*
X23245Y-3919D01*
X23240Y-3923D01*
X23238Y-3925D01*
X23225Y-3940D01*
X23215Y-3955D01*
X23209Y-3970D01*
X23204Y-3984D01*
X23201Y-3996D01*
X23200Y-4006D01*
X23199Y-4010D01*
Y-4015D01*
X23201Y-4035D01*
X23205Y-4052D01*
X23212Y-4068D01*
X23218Y-4080D01*
X23225Y-4091D01*
X23232Y-4099D01*
X23236Y-4103D01*
X23238Y-4105D01*
X23253Y-4116D01*
X23270Y-4125D01*
X23288Y-4131D01*
X23304Y-4136D01*
X23319Y-4138D01*
X23326Y-4139D01*
X23331D01*
X23335Y-4140D01*
X23339D01*
X23341D01*
X23342D01*
X23367Y-4138D01*
X23388Y-4134D01*
X23408Y-4128D01*
X23423Y-4122D01*
X23435Y-4115D01*
X23444Y-4110D01*
X23449Y-4106D01*
X23451Y-4104D01*
X23465Y-4090D01*
X23475Y-4075D01*
X23482Y-4061D01*
X23487Y-4048D01*
X23489Y-4035D01*
X23490Y-4027D01*
X23491Y-4023D01*
Y-4018D01*
X23490Y-4005D01*
X23489Y-3994D01*
X23486Y-3982D01*
X23482Y-3972D01*
X23479Y-3964D01*
X23476Y-3958D01*
X23474Y-3954D01*
X23473Y-3953D01*
X23465Y-3942D01*
X23455Y-3932D01*
X23447Y-3924D01*
X23437Y-3917D01*
X23429Y-3912D01*
X23422Y-3908D01*
X23418Y-3906D01*
X23416Y-3905D01*
X23402Y-3899D01*
X23388Y-3895D01*
X23375Y-3892D01*
X23363Y-3890D01*
X23353Y-3889D01*
X23345Y-3888D01*
D02*
G37*
G36*
X23301Y-6090D02*
Y-6377D01*
X23502D01*
X23301Y-6090D01*
D02*
G37*
%LPD*%
D12*
X25751Y-8568D02*
X29051Y-8568D01*
X25751Y-6768D02*
X25751Y-8568D01*
X25751Y-6768D02*
X29051Y-6768D01*
X29051Y-8568D01*
X19102Y-2975D02*
X22198D01*
X19102D02*
Y-1525D01*
X22198Y-2975D02*
Y-1525D01*
X19102D02*
X22198D01*
X-6400Y12730D02*
Y15270D01*
Y12730D02*
X44400Y12730D01*
X-6400Y15270D02*
X44400Y15270D01*
Y12730D02*
Y15270D01*
X16699Y-10904D02*
X19299D01*
X16699Y-9505D02*
X16699Y-10904D01*
X19299Y-9505D02*
X19299Y-10904D01*
X16699Y-9505D02*
X19299D01*
X-6400Y-15270D02*
Y-12730D01*
Y-15270D02*
X44400Y-15270D01*
X-6400Y-12730D02*
X44400Y-12730D01*
Y-15270D02*
Y-12730D01*
X24937Y-6825D02*
X27537D01*
X24937Y-5425D02*
X24937Y-6825D01*
X27537Y-5425D02*
X27537Y-6825D01*
X24937Y-5425D02*
X27537D01*
X25375Y-2700D02*
Y-900D01*
X26425Y-900D02*
X26425Y-2700D01*
X25375Y-900D02*
X26425Y-900D01*
X25375Y-2700D02*
X26425Y-2700D01*
X22850Y-2850D02*
Y-250D01*
X24250Y-250D01*
X22850Y-2850D02*
X24250Y-2850D01*
Y-250D01*
X29475Y-7250D02*
Y-5450D01*
X30525Y-5450D02*
X30525Y-7250D01*
X29475Y-5450D02*
X30525Y-5450D01*
X29475Y-7250D02*
X30525Y-7250D01*
X27252Y1881D02*
Y4481D01*
X25852Y1881D02*
X27252Y1881D01*
X25852Y4481D02*
X27252Y4481D01*
X25852Y1881D02*
Y4481D01*
X23889Y-12355D02*
X25689D01*
X23889Y-11305D02*
X25689Y-11305D01*
X23889Y-11305D02*
X23889Y-12355D01*
X25689D02*
X25689Y-11305D01*
X17246Y-12355D02*
X19046D01*
X17246Y-11305D02*
X19046Y-11305D01*
X17246Y-11305D02*
X17246Y-12355D01*
X19046D02*
X19046Y-11305D01*
X23989Y-9905D02*
X25789Y-9904D01*
X25789Y-11104D01*
X23989Y-9905D02*
X23989Y-11104D01*
X25789Y-11104D01*
D15*
X50818Y17489D02*
X50818Y-17511D01*
X-10704Y17489D02*
X50818Y17489D01*
X-10704Y-17511D02*
X50818Y-17511D01*
X-10704Y17489D02*
X-10704Y-17511D01*
D16*
X-17322Y17399D02*
X-16814Y15875D01*
X-17830D02*
X-17322Y17399D01*
X-17830Y-16083D02*
X-17322Y-17607D01*
X-16814Y-16083D01*
X-17322Y4720D02*
Y17399D01*
Y-17607D02*
Y-5741D01*
X-17576Y17399D02*
X-10761D01*
X-17576Y-17607D02*
X-10706D01*
X-10736Y23308D02*
X-9212Y23816D01*
X-10736Y23308D02*
X-9212Y22800D01*
X49229D02*
X50753Y23308D01*
X49229Y23816D02*
X50753Y23308D01*
X-10736D02*
X14371D01*
X24833D02*
X50753D01*
X-10736Y17423D02*
Y23562D01*
X50753Y17423D02*
Y23562D01*
D17*
X-17678Y-5335D02*
X-17932Y-5081D01*
Y-4573D01*
X-17678Y-4319D01*
X-17424D01*
X-17170Y-4573D01*
Y-4827D01*
Y-4573D01*
X-16916Y-4319D01*
X-16662D01*
X-16408Y-4573D01*
Y-5081D01*
X-16662Y-5335D01*
X-17932Y-2796D02*
Y-3811D01*
X-17170D01*
X-17424Y-3304D01*
Y-3050D01*
X-17170Y-2796D01*
X-16662D01*
X-16408Y-3050D01*
Y-3557D01*
X-16662Y-3811D01*
X-16408Y-2288D02*
X-16662D01*
Y-2034D01*
X-16408D01*
Y-2288D01*
X-17678Y-1018D02*
X-17932Y-764D01*
Y-257D01*
X-17678Y-3D01*
X-16662D01*
X-16408Y-257D01*
Y-764D01*
X-16662Y-1018D01*
X-17678D01*
X-16408Y505D02*
Y1013D01*
Y759D01*
X-17932D01*
X-17678Y505D01*
X-16408Y1775D02*
X-17424D01*
Y2029D01*
X-17170Y2283D01*
X-16408D01*
X-17170D01*
X-17424Y2537D01*
X-17170Y2790D01*
X-16408D01*
Y3298D02*
X-17424D01*
Y3552D01*
X-17170Y3806D01*
X-16408D01*
X-17170D01*
X-17424Y4060D01*
X-17170Y4314D01*
X-16408D01*
X15793Y23917D02*
X15286Y23663D01*
X14778Y23155D01*
Y22647D01*
X15032Y22394D01*
X15539D01*
X15793Y22647D01*
Y22901D01*
X15539Y23155D01*
X14778D01*
X16301Y22394D02*
X16809D01*
X16555D01*
Y23917D01*
X16301Y23663D01*
X17571Y22394D02*
Y22647D01*
X17825D01*
Y22394D01*
X17571D01*
X19602D02*
Y23917D01*
X18840Y23155D01*
X19856D01*
X20364Y22647D02*
X20618Y22394D01*
X21126D01*
X21380Y22647D01*
Y23663D01*
X21126Y23917D01*
X20618D01*
X20364Y23663D01*
Y23409D01*
X20618Y23155D01*
X21380D01*
X21887Y22394D02*
Y23409D01*
X22141D01*
X22395Y23155D01*
Y22394D01*
Y23155D01*
X22649Y23409D01*
X22903Y23155D01*
Y22394D01*
X23411D02*
Y23409D01*
X23665D01*
X23919Y23155D01*
Y22394D01*
Y23155D01*
X24173Y23409D01*
X24427Y23155D01*
Y22394D01*
D66*
X44618Y-7970D02*
X45989D01*
X44491Y-7944D02*
X45989D01*
X44287Y-7919D02*
X45964D01*
X44059Y-7894D02*
X45964D01*
X43957Y-7868D02*
X45938D01*
X43881Y-7843D02*
X45938D01*
X43525Y-7741D02*
X45862D01*
X43424Y-7716D02*
X45862D01*
X43373Y-7690D02*
X45837D01*
X43602Y-7767D02*
X45862D01*
X43652Y-7792D02*
X45888D01*
X43729Y-7817D02*
X45913D01*
X44821Y-7995D02*
X46015D01*
X41265Y-11831D02*
X47386D01*
X41265Y-11805D02*
X47462D01*
X41468Y-11653D02*
X47742D01*
X41493Y-11627D02*
X47742D01*
X41544Y-11602D02*
X47767D01*
X41595Y-11577D02*
X47767D01*
X41620Y-11551D02*
X47793D01*
X41671Y-11526D02*
X47793D01*
X41697Y-11500D02*
X47793D01*
X41773Y-11475D02*
X47793D01*
X41798Y-11450D02*
X47793D01*
X41824Y-11424D02*
X47793D01*
X41874Y-11399D02*
X47793D01*
X41925Y-11373D02*
X47793D01*
X45126Y-11323D02*
X47793D01*
X41290Y-11780D02*
X47539D01*
X45049Y-11348D02*
X47793D01*
X41443Y-11678D02*
X47716D01*
X41366Y-11704D02*
X47691D01*
X41341Y-11729D02*
X47615D01*
X41316Y-11754D02*
X47589D01*
X41265Y-11856D02*
X47335D01*
X46269Y-10180D02*
X47208D01*
X43754Y-6116D02*
X44922D01*
X41468Y-10180D02*
X42814D01*
X46269Y-10154D02*
X47208D01*
X46294Y-10103D02*
X47183D01*
X46294Y-10078D02*
X47183D01*
X46319Y-10053D02*
X47158D01*
X46319Y-10027D02*
X47132D01*
X46319Y-10002D02*
X47132D01*
X46319Y-9976D02*
X47107D01*
X46345Y-9951D02*
X47107D01*
X46294Y-10129D02*
X47208D01*
X46345Y-9926D02*
X47081D01*
X46345Y-9900D02*
X47081D01*
X46345Y-9875D02*
X47056D01*
X46345Y-9849D02*
X47031D01*
X46370Y-9824D02*
X47031D01*
X46370Y-9799D02*
X47005D01*
X46370Y-9773D02*
X47005D01*
X46370Y-9748D02*
X47005D01*
X46370Y-9722D02*
X46980D01*
X46370Y-9697D02*
X46954D01*
X46370Y-9672D02*
X46929D01*
X46345Y-9646D02*
X46929D01*
X46345Y-9621D02*
X46929D01*
X46345Y-9595D02*
X46904D01*
X46345Y-9570D02*
X46904D01*
X46319Y-9545D02*
X46878D01*
X46319Y-9519D02*
X46853D01*
Y-9494D01*
X46319D02*
X46853D01*
X45938Y-11297D02*
X47793D01*
X45964Y-11272D02*
X47793D01*
X45989Y-11246D02*
X47793D01*
X45989Y-11221D02*
X47793D01*
X45989Y-11196D02*
X47767D01*
X45989Y-11170D02*
X47767D01*
X46015Y-11145D02*
X47742D01*
X46015Y-11119D02*
X47742D01*
X46015Y-11094D02*
X47742D01*
X46015Y-11069D02*
X47716D01*
X46040Y-11043D02*
X47691D01*
X46040Y-11018D02*
X47691D01*
X46065Y-10992D02*
X47666D01*
X46065Y-10967D02*
X47666D01*
X46065Y-10942D02*
X47640D01*
X46091Y-10916D02*
X47640D01*
X46091Y-10891D02*
X47615D01*
X46091Y-10865D02*
X47589D01*
X46091Y-10840D02*
X47589D01*
X46116Y-10815D02*
X47564D01*
X46116Y-10789D02*
X47564D01*
X46116Y-10764D02*
X47564D01*
X46142Y-10713D02*
X47513D01*
X46142Y-10688D02*
X47488D01*
X46167Y-10662D02*
X47488D01*
X46167Y-10637D02*
X47462D01*
X46167Y-10611D02*
X47462D01*
X46167Y-10586D02*
X47462D01*
X46167Y-10561D02*
X47437D01*
X46192Y-10535D02*
X47412D01*
X46192Y-10510D02*
X47412D01*
X46192Y-10484D02*
X47386D01*
X46192Y-10459D02*
X47386D01*
X46218Y-10434D02*
X47361D01*
X46218Y-10408D02*
X47361D01*
X46243Y-10357D02*
X47310D01*
X46243Y-10332D02*
X47310D01*
X46243Y-10307D02*
X47285D01*
X46269Y-10281D02*
X47285D01*
X46269Y-10256D02*
X47259D01*
X46269Y-10230D02*
X47259D01*
X46269Y-10205D02*
X47234D01*
X46243Y-10383D02*
X47335D01*
X46142Y-10738D02*
X47539D01*
X43779Y-6090D02*
X44897D01*
X43779Y-6065D02*
X44897D01*
X43805Y-6039D02*
X44872D01*
X43805Y-6014D02*
X44872D01*
X43830Y-5989D02*
X44846D01*
X43856Y-5963D02*
X44846D01*
X43856Y-5938D02*
X44821D01*
X43297Y-7030D02*
X45456D01*
X43297Y-7005D02*
X45430D01*
X43322Y-6979D02*
X45430D01*
X43322Y-6954D02*
X45405D01*
X43348Y-6928D02*
X45405D01*
X43348Y-6903D02*
X45380D01*
X43373Y-6878D02*
X45354D01*
X43398Y-6852D02*
X45354D01*
X43398Y-6827D02*
X45329D01*
X43398Y-6801D02*
X45329D01*
X43424Y-6776D02*
X45303D01*
X43424Y-6751D02*
X45303D01*
X43449Y-6725D02*
X45278D01*
X43449Y-6700D02*
X45253D01*
X43475Y-6674D02*
X45253D01*
X43500Y-6649D02*
X45227D01*
X43500Y-6624D02*
X45227D01*
X43525Y-6598D02*
X45202D01*
X43525Y-6573D02*
X45176D01*
X43551Y-6547D02*
X45176D01*
X43551Y-6522D02*
X45151D01*
X43576Y-6497D02*
X45151D01*
X43576Y-6471D02*
X45126D01*
X43602Y-6446D02*
X45126D01*
X43602Y-6420D02*
X45100D01*
X43627Y-6395D02*
X45075D01*
X43627Y-6370D02*
X45075D01*
X43652Y-6344D02*
X45049D01*
X43652Y-6319D02*
X45049D01*
X43678Y-6293D02*
X45024D01*
X43678Y-6268D02*
X45024D01*
X43703Y-6243D02*
X44999D01*
X43703Y-6217D02*
X44973D01*
X43729Y-6192D02*
X44973D01*
X43729Y-6166D02*
X44948D01*
X43754Y-6141D02*
X44948D01*
X43322Y-7665D02*
X45811D01*
X43246Y-7640D02*
X45811D01*
X43221Y-7614D02*
X45786D01*
X43170Y-7589D02*
X45786D01*
X43144Y-7563D02*
X45761D01*
X43094Y-7538D02*
X45761D01*
X43068Y-7513D02*
X45735D01*
X43068Y-7487D02*
X45710D01*
X43068Y-7462D02*
X45710D01*
X43068Y-7436D02*
X45684D01*
X43094Y-7411D02*
X45684D01*
X43094Y-7386D02*
X45659D01*
X43119Y-7360D02*
X45634D01*
X43144Y-7335D02*
X45634D01*
X43144Y-7309D02*
X45608D01*
X43170Y-7284D02*
X45608D01*
X43170Y-7259D02*
X45583D01*
X43195Y-7233D02*
X45583D01*
X43195Y-7208D02*
X45557D01*
X43221Y-7182D02*
X45532D01*
X43221Y-7157D02*
X45532D01*
X43246Y-7132D02*
X45507D01*
X43246Y-7106D02*
X45481D01*
X43271Y-7081D02*
X45481D01*
X43271Y-7055D02*
X45481D01*
X41519Y-10129D02*
X42890D01*
X41519Y-10103D02*
X42941D01*
X41544Y-10078D02*
X42992D01*
X41544Y-10053D02*
X43043D01*
X41620Y-9951D02*
X43170D01*
X41595Y-9976D02*
X43144D01*
X41570Y-10002D02*
X43119D01*
X41544Y-10027D02*
X43068D01*
X41493Y-10154D02*
X42865D01*
X44821Y-10027D02*
X45761D01*
X44795Y-10002D02*
X45761D01*
X44770Y-9976D02*
X45761D01*
X44745Y-9951D02*
X45761D01*
X41620Y-9926D02*
X43221D01*
X41620Y-9900D02*
X43271D01*
X41646Y-9875D02*
X43322D01*
X41646Y-9849D02*
X43348D01*
X41697Y-9799D02*
X43398D01*
X41697Y-9773D02*
X43424D01*
X41722Y-9748D02*
X43424D01*
X41722Y-9722D02*
X43398D01*
X41747Y-9697D02*
X43373D01*
X41747Y-9672D02*
X43322D01*
X41798Y-9621D02*
X43271D01*
X41798Y-9595D02*
X43221D01*
X41824Y-9545D02*
X43144D01*
X41824Y-9519D02*
X43119D01*
X41874Y-9468D02*
X43043D01*
X41874Y-9443D02*
X43017D01*
X41900Y-9418D02*
X43017D01*
X41900Y-9392D02*
X42967D01*
X41925Y-9367D02*
X42967D01*
X41925Y-9341D02*
X42941D01*
X41951Y-9316D02*
X42916D01*
X41976Y-9291D02*
X42916D01*
X41976Y-9265D02*
X42890D01*
X42001Y-9240D02*
X42865D01*
X42001Y-9214D02*
X42865D01*
X42027Y-9189D02*
X42840D01*
X42027Y-9164D02*
X42840D01*
X42078Y-9113D02*
X42789D01*
Y-9087D01*
X42078D02*
X42789D01*
X42052Y-9138D02*
X42814D01*
X41849Y-9494D02*
X43068D01*
X41824Y-9570D02*
X43170D01*
X41773Y-9646D02*
X43297D01*
X41671Y-9824D02*
X43373D01*
X44719Y-9926D02*
X45761D01*
X44668Y-9900D02*
X45761D01*
X44643Y-9875D02*
X45761D01*
X44618Y-9849D02*
X45761D01*
X44618Y-9824D02*
X45786D01*
X44618Y-9799D02*
X45786D01*
X44618Y-9773D02*
X45811D01*
X44618Y-9748D02*
X45811D01*
X44694Y-9697D02*
X45786D01*
X44745Y-9672D02*
X45786D01*
X44770Y-9646D02*
X45761D01*
X44821Y-9621D02*
X45761D01*
X44643Y-9722D02*
X45786D01*
X42078Y-11272D02*
X44872D01*
X42128Y-11246D02*
X44872D01*
X42154Y-11221D02*
X44846D01*
X42205Y-11196D02*
X44846D01*
X42281Y-11145D02*
X44795D01*
X42332Y-11119D02*
X44795D01*
X42382Y-11094D02*
X44770D01*
X42408Y-11069D02*
X44770D01*
X42509Y-11018D02*
X44745D01*
X42535Y-10992D02*
X44745D01*
X42586Y-10967D02*
X44719D01*
X42636Y-10942D02*
X44719D01*
X42662Y-10916D02*
X44694D01*
X42687Y-10891D02*
X44694D01*
X42738Y-10865D02*
X44668D01*
X42789Y-10840D02*
X44668D01*
X42433Y-11043D02*
X44745D01*
X42230Y-11170D02*
X44821D01*
X42052Y-11297D02*
X44897D01*
X42001Y-11323D02*
X44922D01*
X41951Y-11348D02*
X44948D01*
X47208Y-10180D02*
Y-10154D01*
X46116Y-8173D02*
Y-8148D01*
X45557D02*
X46116D01*
X45786Y-10205D02*
Y-10180D01*
X44999D02*
X45786D01*
X46269Y-10205D02*
Y-10180D01*
X43754Y-6141D02*
Y-6116D01*
X41468Y-10205D02*
Y-10180D01*
X47132Y-10027D02*
Y-10002D01*
X47107Y-9976D02*
Y-9951D01*
X47081Y-9926D02*
Y-9900D01*
X47031Y-9849D02*
Y-9824D01*
X47005Y-9773D02*
Y-9748D01*
X46929Y-9646D02*
Y-9621D01*
X46904Y-9595D02*
Y-9570D01*
X47742Y-11145D02*
Y-11119D01*
X44897Y-6090D02*
Y-6065D01*
X44846Y-5989D02*
Y-5963D01*
X45430Y-7005D02*
Y-6979D01*
X45405Y-6954D02*
Y-6928D01*
X45354Y-6878D02*
Y-6852D01*
X45253Y-6700D02*
Y-6674D01*
X45227Y-6649D02*
Y-6624D01*
X45176Y-6573D02*
Y-6547D01*
X45151Y-6522D02*
Y-6497D01*
X45126Y-6471D02*
Y-6446D01*
X45075Y-6395D02*
Y-6370D01*
X45049Y-6344D02*
Y-6319D01*
X44973Y-6217D02*
Y-6192D01*
X44948Y-6166D02*
Y-6141D01*
X45507Y-8097D02*
X46065D01*
Y-8071D01*
X45456D02*
X46065D01*
X45430Y-8046D02*
X46040D01*
Y-8021D01*
X45405D02*
X46040D01*
X45989Y-7970D02*
Y-7944D01*
X45964Y-7919D02*
Y-7894D01*
X45938Y-7868D02*
Y-7843D01*
X45862Y-7741D02*
Y-7716D01*
X45811Y-7665D02*
Y-7640D01*
X45786Y-7614D02*
Y-7589D01*
X45761Y-7563D02*
Y-7538D01*
X45710Y-7487D02*
Y-7462D01*
X45684Y-7436D02*
Y-7411D01*
X45634Y-7360D02*
Y-7335D01*
X45608Y-7309D02*
Y-7284D01*
X45583Y-7259D02*
Y-7233D01*
X45532Y-7182D02*
Y-7157D01*
Y-8122D02*
X46091D01*
X45481Y-7106D02*
Y-7081D01*
X44948Y-10129D02*
X45786D01*
Y-10103D01*
X44922D02*
X45786D01*
X46294D02*
Y-10078D01*
X44872D02*
X45761D01*
Y-10053D01*
X44846D02*
X45761D01*
Y-10027D02*
Y-10002D01*
Y-9976D02*
Y-9951D01*
X46319Y-10053D02*
Y-10027D01*
Y-10002D02*
Y-9976D01*
X44973Y-10154D02*
X45786D01*
X45761Y-9926D02*
Y-9900D01*
X46345Y-9951D02*
Y-9926D01*
Y-9900D02*
Y-9875D01*
X45761D02*
Y-9849D01*
X45786Y-9824D02*
Y-9799D01*
X46370D02*
Y-9773D01*
Y-9748D02*
Y-9722D01*
Y-9697D02*
Y-9672D01*
X45786Y-9697D02*
Y-9672D01*
X45761Y-9646D02*
Y-9621D01*
X46345D02*
Y-9595D01*
X46319Y-9545D02*
Y-9519D01*
X46294Y-9468D02*
X46827D01*
Y-9443D01*
X46294D02*
X46827D01*
X46294D02*
Y-9418D01*
X46802D01*
X45100Y-9443D02*
X45583D01*
Y-9418D01*
X45151D02*
X45583D01*
X46294Y-9392D02*
X46777D01*
Y-9367D01*
X46294D02*
X46777D01*
X46294D02*
Y-9341D01*
X46751D01*
Y-9316D01*
X46269D02*
X46751D01*
X46269D02*
Y-9291D01*
X46726D01*
Y-9265D01*
X46269D02*
X46726D01*
X46269D02*
Y-9240D01*
X46700D01*
X46269Y-9214D02*
X46675D01*
X46269D02*
Y-9189D01*
X46675D01*
Y-9164D01*
X46243D02*
X46675D01*
X46243D02*
Y-9138D01*
X46650D01*
Y-9113D01*
X46243D02*
X46650D01*
X46218Y-9087D02*
X46624D01*
X46218D02*
Y-9062D01*
X46599D01*
Y-9037D01*
X46218D02*
X46599D01*
X46192Y-9011D02*
X46573D01*
Y-8986D01*
X46192D02*
X46573D01*
X46192D02*
Y-8960D01*
X46548D01*
Y-8935D01*
X46192D02*
X46548D01*
X46167Y-8884D02*
X46497D01*
X46167D02*
Y-8859D01*
X46497D01*
X46167Y-8833D02*
X46472D01*
Y-8808D01*
X46167D02*
X46472D01*
X46167D02*
Y-8783D01*
X46472D01*
X46192Y-8757D02*
X46446D01*
X46192D02*
Y-8732D01*
X46421D01*
X45634Y-8224D02*
X46116D01*
Y-8198D01*
X45608D02*
X46116D01*
X45583Y-8173D02*
X46116D01*
X45659Y-8249D02*
X46116D01*
X45684Y-8275D02*
X46065D01*
X45710Y-8300D02*
X45989D01*
X45735Y-8325D02*
X45938D01*
X45786Y-8351D02*
X45862D01*
X46243Y-8681D02*
X46370D01*
X46218Y-8706D02*
X46396D01*
X46167Y-8910D02*
X46523D01*
X45253Y-9341D02*
X45507D01*
X45227Y-9367D02*
X45532D01*
X45176Y-9392D02*
X45557D01*
X45075Y-9468D02*
X45608D01*
X45049Y-9494D02*
X45634D01*
X44973Y-9519D02*
X45659D01*
X44922Y-9545D02*
X45684D01*
X44897Y-9570D02*
X45710D01*
X44872Y-9595D02*
X45735D01*
X45303Y-9316D02*
X45481D01*
X44872Y-11272D02*
Y-11246D01*
X44846Y-11221D02*
Y-11196D01*
X45176Y-11272D02*
Y-11246D01*
X45202Y-11221D02*
Y-11196D01*
X45227Y-11119D02*
Y-11094D01*
X45253Y-11069D02*
Y-11043D01*
Y-10992D02*
Y-10967D01*
Y-10942D02*
Y-10916D01*
X45278Y-10891D02*
Y-10865D01*
Y-10840D02*
Y-10815D01*
Y-10789D02*
Y-10764D01*
Y-10713D02*
Y-10688D01*
Y-10662D02*
Y-10637D01*
X45253Y-10561D02*
Y-10535D01*
X45227Y-10510D02*
Y-10484D01*
X45176Y-10434D02*
Y-10408D01*
X45151Y-10383D02*
Y-10357D01*
X45989Y-11246D02*
Y-11221D01*
Y-11196D02*
Y-11170D01*
X45151Y-11297D02*
X45786D01*
Y-11272D01*
X45176D02*
X45786D01*
X45176Y-11246D02*
X45761D01*
Y-11221D01*
X45202D02*
X45761D01*
X45202Y-11196D02*
X45761D01*
Y-11170D01*
X45202D02*
X45761D01*
X46015Y-11145D02*
Y-11119D01*
Y-11094D02*
Y-11069D01*
X45227Y-11145D02*
X45735D01*
Y-11119D01*
X45227D02*
X45735D01*
X45227Y-11094D02*
X45735D01*
Y-11069D01*
X45253D02*
X45735D01*
X45253Y-11043D02*
X45735D01*
X46040D02*
Y-11018D01*
X46065Y-10967D02*
Y-10942D01*
X46091Y-10916D02*
Y-10891D01*
Y-10865D02*
Y-10840D01*
X46116Y-10789D02*
Y-10764D01*
X45253Y-11018D02*
X45735D01*
Y-10992D01*
X45253D02*
X45735D01*
X45253Y-10967D02*
X45735D01*
Y-10942D01*
X45253D02*
X45735D01*
X45253Y-10916D02*
X45735D01*
Y-10891D01*
X45278D02*
X45735D01*
X45278Y-10865D02*
X45710D01*
Y-10840D01*
X45278D02*
X45710D01*
X45278Y-10815D02*
X45710D01*
Y-10789D01*
X45278D02*
X45710D01*
X45278Y-10764D02*
X45710D01*
X46142Y-10713D02*
Y-10688D01*
X46167Y-10662D02*
Y-10637D01*
X45278Y-10738D02*
X45710D01*
Y-10713D01*
X45278D02*
X45710D01*
X45278Y-10688D02*
X45735D01*
Y-10662D01*
X45278D02*
X45735D01*
X45278Y-10637D02*
X45735D01*
Y-10611D01*
X45278D02*
X45735D01*
X46167Y-10586D02*
Y-10561D01*
X46192Y-10510D02*
Y-10484D01*
X45253Y-10561D02*
X45761D01*
X45253Y-10535D02*
X45761D01*
Y-10510D01*
X45227D02*
X45761D01*
X45227Y-10484D02*
X45761D01*
Y-10459D01*
X45202D02*
X45761D01*
X46243Y-10357D02*
Y-10332D01*
X45176Y-10434D02*
X45761D01*
X45176Y-10408D02*
X45761D01*
Y-10383D01*
X45151D02*
X45761D01*
X45151Y-10357D02*
X45786D01*
Y-10332D01*
X45126D02*
X45786D01*
X45100Y-10307D02*
X45786D01*
Y-10281D01*
X45075D02*
X45786D01*
X46269Y-10256D02*
Y-10230D01*
X45049Y-10256D02*
X45786D01*
Y-10230D01*
X45024D02*
X45786D01*
X44999Y-10205D02*
X45786D01*
X45253Y-10586D02*
X45735D01*
X43805Y-6039D02*
Y-6014D01*
X43856Y-5963D02*
Y-5938D01*
X43881Y-5912D02*
X44795D01*
X43881D02*
Y-5887D01*
X44795D01*
X43932Y-5836D02*
X44745D01*
Y-5811D01*
X43957D02*
X44745D01*
X43957D02*
Y-5785D01*
X44694D01*
X44135Y-5608D02*
X44389D01*
X44110Y-5633D02*
X44440D01*
X44084Y-5658D02*
X44491D01*
X44059Y-5684D02*
X44541D01*
X44033Y-5709D02*
X44592D01*
X44008Y-5735D02*
X44643D01*
X43983Y-5760D02*
X44668D01*
X43906Y-5862D02*
X44770D01*
X43068Y-7513D02*
Y-7487D01*
Y-7462D02*
Y-7436D01*
X43094Y-7411D02*
Y-7386D01*
X43144Y-7335D02*
Y-7309D01*
X43170Y-7284D02*
Y-7259D01*
X43195Y-7233D02*
Y-7208D01*
X43246Y-7132D02*
Y-7106D01*
X43271Y-7081D02*
Y-7055D01*
X43297Y-7030D02*
Y-7005D01*
X43322Y-6979D02*
Y-6954D01*
X43348Y-6928D02*
Y-6903D01*
X43398Y-6827D02*
Y-6801D01*
X43424Y-6776D02*
Y-6751D01*
X43449Y-6725D02*
Y-6700D01*
X43525Y-6598D02*
Y-6573D01*
X43551Y-6547D02*
Y-6522D01*
X43576Y-6497D02*
Y-6471D01*
X43602Y-6446D02*
Y-6420D01*
X43678Y-6293D02*
Y-6268D01*
X43703Y-6243D02*
Y-6217D01*
X43729Y-6192D02*
Y-6166D01*
X44618Y-9849D02*
Y-9824D01*
Y-9773D02*
Y-9748D01*
X43424Y-9773D02*
Y-9748D01*
X43017Y-9443D02*
Y-9418D01*
X42967Y-9392D02*
Y-9367D01*
X42916Y-9316D02*
Y-9291D01*
X42865Y-9240D02*
Y-9214D01*
X42840Y-9189D02*
Y-9164D01*
X44795Y-11145D02*
Y-11119D01*
X44770Y-11094D02*
Y-11069D01*
X44745Y-11018D02*
Y-10992D01*
X44719Y-10967D02*
Y-10942D01*
X44694Y-10916D02*
Y-10891D01*
X44668Y-10865D02*
Y-10840D01*
X42865Y-10789D02*
X44618D01*
Y-10764D01*
X42916D02*
X44618D01*
X42941Y-10738D02*
X44592D01*
Y-10713D01*
X42967D02*
X44592D01*
X43043Y-10688D02*
X44567D01*
Y-10662D01*
X43068D02*
X44567D01*
X43779Y-10256D02*
X44059D01*
X43729Y-10281D02*
X44110D01*
X43703Y-10307D02*
X44135D01*
X43627Y-10332D02*
X44211D01*
X43576Y-10357D02*
X44237D01*
X43551Y-10383D02*
X44262D01*
X43500Y-10408D02*
X44313D01*
X43424Y-10434D02*
X44338D01*
X43398Y-10459D02*
X44364D01*
X43348Y-10484D02*
X44389D01*
X43322Y-10510D02*
X44414D01*
X43271Y-10535D02*
X44440D01*
X43246Y-10561D02*
X44465D01*
X43195Y-10586D02*
X44491D01*
X43144Y-10611D02*
X44516D01*
X43094Y-10637D02*
X44541D01*
X42814Y-10815D02*
X44643D01*
X41519Y-10129D02*
Y-10103D01*
X41544Y-10078D02*
Y-10053D01*
X41620Y-9926D02*
Y-9900D01*
X41646Y-9875D02*
Y-9849D01*
X41697Y-9799D02*
Y-9773D01*
X41722Y-9748D02*
Y-9722D01*
X41747Y-9697D02*
Y-9672D01*
X41798Y-9621D02*
Y-9595D01*
X41824Y-9545D02*
Y-9519D01*
X41874Y-9468D02*
Y-9443D01*
X41900Y-9418D02*
Y-9392D01*
X41925Y-9367D02*
Y-9341D01*
X41976Y-9291D02*
Y-9265D01*
X42078Y-9087D02*
Y-9062D01*
X42763D01*
Y-9037D01*
X42103D02*
X42763D01*
X42128Y-9011D02*
X42738D01*
X42128D02*
Y-8986D01*
X42713D01*
X42154Y-8960D02*
X42687D01*
X42154D02*
Y-8935D01*
X42662D01*
Y-8910D01*
X42179D02*
X42662D01*
X42179D02*
Y-8884D01*
X42636D01*
X42281Y-8808D02*
X42509D01*
X42230Y-8833D02*
X42586D01*
X42205Y-8859D02*
X42611D01*
X41265Y-11831D02*
Y-11805D01*
X40909Y-11246D02*
X41062D01*
X40909D02*
Y-11221D01*
X41087D01*
X40909Y-11196D02*
X41112D01*
X40909D02*
Y-11170D01*
X41163D01*
X40985Y-11094D02*
X41290D01*
X40985D02*
Y-11069D01*
X41341D01*
X41011Y-11018D02*
X41417D01*
X41011D02*
Y-10992D01*
X41468D01*
X41062Y-10942D02*
X41544D01*
X41062D02*
Y-10916D01*
X41595D01*
X41087Y-10891D02*
X41620D01*
X41087D02*
Y-10865D01*
X41671D01*
X41112Y-10840D02*
X41697D01*
X41112D02*
Y-10815D01*
X41773D01*
X41163Y-10764D02*
X41849D01*
X41163D02*
Y-10738D01*
X41874D01*
X41189Y-10713D02*
X41925D01*
X41189D02*
Y-10688D01*
X41976D01*
X41214Y-10662D02*
X42001D01*
X41214D02*
Y-10637D01*
X42052D01*
X41265Y-10561D02*
X42179D01*
X41265D02*
Y-10535D01*
X42230D01*
X41290Y-10510D02*
X42255D01*
X41290D02*
Y-10484D01*
X42281D01*
X41341Y-10434D02*
X42408D01*
X41341D02*
Y-10408D01*
X42433D01*
X41366Y-10383D02*
X42484D01*
X41366D02*
Y-10357D01*
X42509D01*
X41417Y-10307D02*
X42586D01*
X41417D02*
Y-10281D01*
X42636D01*
X41443Y-10256D02*
X42687D01*
X41443D02*
Y-10230D01*
X42738D01*
X41468Y-10205D02*
X42763D01*
X41392Y-10332D02*
X42560D01*
X41316Y-10459D02*
X42332D01*
X41265Y-10586D02*
X42128D01*
X41239Y-10611D02*
X42103D01*
X41138Y-10789D02*
X41798D01*
X41036Y-10967D02*
X41519D01*
X40985Y-11043D02*
X41366D01*
X40960Y-11119D02*
X41239D01*
X40935Y-11145D02*
X41214D01*
X40960Y-11272D02*
X40985D01*
D96*
X9909Y-3050D02*
X10519D01*
X11916Y-3050D02*
X13490Y-3050D01*
X9757Y-3037D02*
X10557D01*
X11865D02*
X13503Y-3037D01*
X9680Y-3024D02*
X10569D01*
X11827Y-3024D02*
X13516Y-3024D01*
X9617Y-3012D02*
X10582Y-3012D01*
X11814Y-3012D02*
X13516Y-3012D01*
X9566Y-2999D02*
X10582Y-2999D01*
X11801Y-2999D02*
X13503Y-2999D01*
X9528Y-2986D02*
X10595Y-2986D01*
X11776Y-2986D02*
X13478Y-2986D01*
X9477Y-2974D02*
X10595Y-2974D01*
X11763Y-2974D02*
X13452Y-2974D01*
X9452Y-2961D02*
X10595Y-2961D01*
X11763Y-2961D02*
X13427Y-2961D01*
X9414Y-2948D02*
X10595D01*
X11751Y-2948D02*
X13402Y-2948D01*
X9376Y-2936D02*
X10595D01*
X11738D02*
X13389Y-2936D01*
X9350Y-2923D02*
X10582Y-2923D01*
X11738Y-2923D02*
X13363Y-2923D01*
X9325Y-2910D02*
X10582Y-2910D01*
X11725Y-2910D02*
X13338Y-2910D01*
X9300Y-2897D02*
X10582Y-2897D01*
X11725Y-2897D02*
X13325D01*
X9274Y-2885D02*
X10569Y-2885D01*
X11725Y-2885D02*
X13300Y-2885D01*
X9249Y-2872D02*
X10569Y-2872D01*
X11712Y-2872D02*
X13287Y-2872D01*
X9223Y-2859D02*
X10557Y-2859D01*
X11712D02*
X13275Y-2859D01*
X9198Y-2847D02*
X10557Y-2847D01*
X11700D02*
X13249Y-2847D01*
X9172Y-2834D02*
X10544Y-2834D01*
X11700Y-2834D02*
X13236Y-2834D01*
X9160Y-2821D02*
X10544Y-2821D01*
X11700D02*
X13224D01*
X9134Y-2809D02*
X10544D01*
X11687Y-2809D02*
X13211Y-2809D01*
X9122Y-2796D02*
X10531D01*
X11687D02*
X13186Y-2796D01*
X9096Y-2783D02*
X10531Y-2783D01*
X11674Y-2783D02*
X13173Y-2783D01*
X9084Y-2770D02*
X10519Y-2770D01*
X11674Y-2770D02*
X13160Y-2770D01*
X9058Y-2758D02*
X10519Y-2758D01*
X11662Y-2758D02*
X13148Y-2758D01*
X9045Y-2745D02*
X10519Y-2745D01*
X11662D02*
X13135Y-2745D01*
X9033Y-2732D02*
X10506D01*
X11662D02*
X13122D01*
X9007Y-2720D02*
X10506D01*
X11649D02*
X13109Y-2720D01*
X8995Y-2707D02*
X10493D01*
X11649D02*
X13097Y-2707D01*
X8982Y-2694D02*
X10493Y-2694D01*
X11636Y-2694D02*
X13084Y-2694D01*
X8969Y-2682D02*
X10493D01*
X11636Y-2682D02*
X13071Y-2682D01*
X8944Y-2669D02*
X10481Y-2669D01*
X11636D02*
X13059Y-2669D01*
X8931Y-2656D02*
X10481Y-2656D01*
X11624Y-2656D02*
X13046D01*
X8918Y-2643D02*
X10468D01*
X11624Y-2643D02*
X13033Y-2643D01*
X8906Y-2631D02*
X10468Y-2631D01*
X11611Y-2631D02*
X13021Y-2631D01*
X8893Y-2618D02*
X10455Y-2618D01*
X11611Y-2618D02*
X13021D01*
X8880Y-2605D02*
X10455Y-2605D01*
X11598Y-2605D02*
X13008Y-2605D01*
X8868Y-2593D02*
X10455Y-2593D01*
X11598Y-2593D02*
X12995Y-2593D01*
X8855Y-2580D02*
X10443D01*
X11598D02*
X12982Y-2580D01*
X8842Y-2567D02*
X10442Y-2567D01*
X11585Y-2567D02*
X12970Y-2567D01*
X8830Y-2555D02*
X10430Y-2555D01*
X11585Y-2555D02*
X12970Y-2555D01*
X8817Y-2542D02*
X10430D01*
X11573D02*
X12957Y-2542D01*
X8804Y-2529D02*
X10430Y-2529D01*
X11573Y-2529D02*
X12944Y-2529D01*
X8804Y-2516D02*
X10417Y-2516D01*
X11573Y-2516D02*
X12932D01*
X8791Y-2504D02*
X10417Y-2504D01*
X11560Y-2504D02*
X12932Y-2504D01*
X8779Y-2491D02*
X10404Y-2491D01*
X11560Y-2491D02*
X12919D01*
X8766Y-2478D02*
X10404Y-2478D01*
X11547Y-2478D02*
X12906D01*
X8753Y-2466D02*
X10392Y-2466D01*
X11547Y-2466D02*
X12906Y-2466D01*
X8741Y-2453D02*
X10392Y-2453D01*
X11535Y-2453D02*
X12894Y-2453D01*
X8741Y-2440D02*
X10392Y-2440D01*
X11535Y-2440D02*
X12881Y-2440D01*
X8728Y-2428D02*
X10379Y-2428D01*
X11535Y-2428D02*
X12881Y-2428D01*
X8715Y-2415D02*
X10379D01*
X11522Y-2415D02*
X12868Y-2415D01*
X8703Y-2402D02*
X10366Y-2402D01*
X11522D02*
X12868Y-2402D01*
X8703Y-2389D02*
X10366Y-2389D01*
X11509D02*
X12856Y-2389D01*
X8690Y-2377D02*
X10366Y-2377D01*
X11509Y-2377D02*
X12855Y-2377D01*
X8677Y-2364D02*
X10354Y-2364D01*
X11509D02*
X12843Y-2364D01*
X8677Y-2351D02*
X10354Y-2351D01*
X11497Y-2351D02*
X12830Y-2351D01*
X8665Y-2339D02*
X10341Y-2339D01*
X11497D02*
X12830Y-2339D01*
X8664Y-2326D02*
X10341Y-2326D01*
X11484Y-2326D02*
X12817D01*
X8652Y-2313D02*
X10341Y-2313D01*
X11484Y-2313D02*
X12817Y-2313D01*
X8639Y-2301D02*
X10328Y-2301D01*
X11484Y-2301D02*
X12805Y-2301D01*
X8639Y-2288D02*
X10328D01*
X11471Y-2288D02*
X12805Y-2288D01*
X8626Y-2275D02*
X10316Y-2275D01*
X11471D02*
X12792Y-2275D01*
X8626Y-2262D02*
X10315Y-2262D01*
X11458D02*
X12792D01*
X8614Y-2250D02*
X10303D01*
X11458Y-2250D02*
X12792D01*
X8601Y-2237D02*
X10303Y-2237D01*
X11446D02*
X12779D01*
X8601Y-2224D02*
X10303D01*
X11446Y-2224D02*
X12779D01*
X8588Y-2212D02*
X10290Y-2212D01*
X11446D02*
X12767Y-2212D01*
X8588Y-2199D02*
X10290Y-2199D01*
X11433Y-2199D02*
X12767Y-2199D01*
X8576Y-2186D02*
X10277Y-2186D01*
X11433Y-2186D02*
X12754Y-2186D01*
X8576Y-2174D02*
X10277D01*
X11420Y-2174D02*
X12754Y-2174D01*
X8576Y-2161D02*
X10277Y-2161D01*
X11420D02*
X12754Y-2161D01*
X8563Y-2148D02*
X10265Y-2148D01*
X11420Y-2148D02*
X12741Y-2148D01*
X8563Y-2135D02*
X10265Y-2135D01*
X11408D02*
X12741Y-2135D01*
X8550Y-2123D02*
X10252Y-2123D01*
X11408Y-2123D02*
X12741Y-2123D01*
X8550Y-2110D02*
X10252D01*
X11395Y-2110D02*
X12728D01*
X8537Y-2097D02*
X10239Y-2097D01*
X11395Y-2097D02*
X12728D01*
X8537Y-2085D02*
X10239Y-2085D01*
X11382D02*
X12728Y-2085D01*
X8525Y-2072D02*
X10239Y-2072D01*
X11382D02*
X12716Y-2072D01*
X8525Y-2059D02*
X10227Y-2059D01*
X11382D02*
X12716Y-2059D01*
X8525Y-2047D02*
X10227D01*
X11370Y-2047D02*
X12716Y-2047D01*
X8512Y-2034D02*
X10214Y-2034D01*
X11370Y-2034D02*
X12716Y-2034D01*
X8512Y-2021D02*
X10214Y-2021D01*
X11357Y-2021D02*
X12703Y-2021D01*
X8499Y-2008D02*
X10214Y-2008D01*
X11357D02*
X12703Y-2008D01*
X8499Y-1996D02*
X10201Y-1996D01*
X11357Y-1996D02*
X12703Y-1996D01*
X8487Y-1983D02*
X10201D01*
X11344Y-1983D02*
X12690Y-1983D01*
X8487Y-1970D02*
X10188Y-1970D01*
X11344Y-1970D02*
X12690Y-1970D01*
X8487Y-1958D02*
X10188Y-1958D01*
X11331Y-1958D02*
X12690D01*
X8474Y-1945D02*
X10188D01*
X11331Y-1945D02*
X12690Y-1945D01*
X8474Y-1932D02*
X10176Y-1932D01*
X11331Y-1932D02*
X12690Y-1932D01*
X13973Y-1932D02*
X17859D01*
X8461Y-1920D02*
X10176D01*
X11319Y-1920D02*
X12678Y-1920D01*
X13935Y-1920D02*
X17872D01*
X8461Y-1907D02*
X10163D01*
X11319Y-1907D02*
X12678Y-1907D01*
X13910Y-1907D02*
X17885Y-1907D01*
X8461Y-1894D02*
X10163Y-1894D01*
X11306Y-1894D02*
X12678Y-1894D01*
X13884Y-1894D02*
X17897Y-1894D01*
X8449Y-1881D02*
X10150Y-1881D01*
X11306Y-1881D02*
X12678Y-1881D01*
X13859Y-1881D02*
X17897Y-1881D01*
X8449Y-1869D02*
X10150Y-1869D01*
X11293Y-1869D02*
X12678D01*
X13846Y-1869D02*
X17897Y-1869D01*
X8436Y-1856D02*
X10150Y-1856D01*
X11293D02*
X12665Y-1856D01*
X13833Y-1856D02*
X17897Y-1856D01*
X8436Y-1843D02*
X10138Y-1843D01*
X11293Y-1843D02*
X12665Y-1843D01*
X13821D02*
X17897Y-1843D01*
X8423Y-1831D02*
X10138Y-1831D01*
X11281Y-1831D02*
X12665Y-1831D01*
X13821D02*
X17897D01*
X8423Y-1818D02*
X10125Y-1818D01*
X11281D02*
X12665Y-1818D01*
X13808Y-1818D02*
X17897Y-1818D01*
X8423Y-1805D02*
X10125D01*
X11268Y-1805D02*
X12665Y-1805D01*
X13795Y-1805D02*
X17897Y-1805D01*
X8410Y-1793D02*
X10125D01*
X11268D02*
X12665Y-1793D01*
X13795Y-1793D02*
X17885Y-1793D01*
X8410Y-1780D02*
X10112Y-1780D01*
X11268Y-1780D02*
X12665Y-1780D01*
X13795Y-1780D02*
X17885Y-1780D01*
X8398Y-1767D02*
X10112Y-1767D01*
X11255Y-1767D02*
X12665D01*
X13783Y-1767D02*
X17872D01*
X8398Y-1754D02*
X10100Y-1754D01*
X11255Y-1754D02*
X12665D01*
X13783Y-1754D02*
X17872Y-1754D01*
X8398Y-1742D02*
X10100Y-1742D01*
X11243Y-1742D02*
X12652Y-1742D01*
X13783Y-1742D02*
X17872Y-1742D01*
X8385Y-1729D02*
X10087D01*
X11243Y-1729D02*
X12652Y-1729D01*
X13783Y-1729D02*
X17859Y-1729D01*
X8385Y-1716D02*
X10087Y-1716D01*
X11230Y-1716D02*
X12652D01*
X13783Y-1716D02*
X17859Y-1716D01*
X8372Y-1704D02*
X10087D01*
X11230Y-1704D02*
X12652Y-1704D01*
X13783Y-1704D02*
X17847Y-1704D01*
X8372Y-1691D02*
X10074D01*
X11230D02*
X12652Y-1691D01*
X13783Y-1691D02*
X17847D01*
X8372Y-1678D02*
X10074Y-1678D01*
X11217Y-1678D02*
X12652D01*
X13783Y-1678D02*
X17847Y-1678D01*
X8360Y-1666D02*
X10061Y-1666D01*
X11217Y-1666D02*
X12652Y-1666D01*
X13783D02*
X17834Y-1666D01*
X8360Y-1653D02*
X10061Y-1653D01*
X11204Y-1653D02*
X12652Y-1653D01*
X13783Y-1653D02*
X17834Y-1653D01*
X8347Y-1640D02*
X10061Y-1640D01*
X11204Y-1640D02*
X12652Y-1640D01*
X13783Y-1640D02*
X17821Y-1640D01*
X8347Y-1627D02*
X10049Y-1627D01*
X11204Y-1627D02*
X12652Y-1627D01*
X13783Y-1627D02*
X17821Y-1627D01*
X8334Y-1615D02*
X10049Y-1615D01*
X11192D02*
X12652Y-1615D01*
X13795Y-1615D02*
X17821D01*
X8334Y-1602D02*
X10036Y-1602D01*
X11192Y-1602D02*
X12652D01*
X13795Y-1602D02*
X17808Y-1602D01*
X8334Y-1589D02*
X10036D01*
X11179Y-1589D02*
X12665Y-1589D01*
X13795Y-1589D02*
X17808Y-1589D01*
X8322Y-1577D02*
X10036Y-1577D01*
X11179Y-1577D02*
X12665Y-1577D01*
X13808Y-1577D02*
X17796Y-1577D01*
X8322Y-1564D02*
X10023D01*
X11179Y-1564D02*
X12665Y-1564D01*
X13808Y-1564D02*
X17796Y-1564D01*
X8309Y-1551D02*
X10023D01*
X11166Y-1551D02*
X12665Y-1551D01*
X13821Y-1551D02*
X17783Y-1551D01*
X8309Y-1539D02*
X10011D01*
X11166Y-1539D02*
X12665Y-1539D01*
X13833Y-1539D02*
X17783Y-1539D01*
X8309Y-1526D02*
X10011Y-1526D01*
X11154Y-1526D02*
X12665D01*
X13833Y-1526D02*
X17783Y-1526D01*
X8296Y-1513D02*
X9998Y-1513D01*
X11154Y-1513D02*
X12665Y-1513D01*
X13846Y-1513D02*
X17770Y-1513D01*
X8296Y-1500D02*
X9998Y-1500D01*
X11141Y-1500D02*
X12665Y-1500D01*
X13859Y-1500D02*
X17770D01*
X8283Y-1488D02*
X9998D01*
X11141D02*
X12665Y-1488D01*
X13871Y-1488D02*
X17758D01*
X8283Y-1475D02*
X9985Y-1475D01*
X11141Y-1475D02*
X12678Y-1475D01*
X13884Y-1475D02*
X17758Y-1475D01*
X8271Y-1462D02*
X9985Y-1462D01*
X11128Y-1462D02*
X12678Y-1462D01*
X13897Y-1462D02*
X17758Y-1462D01*
X8271Y-1450D02*
X9973Y-1450D01*
X11128D02*
X12678Y-1450D01*
X13910Y-1450D02*
X17745Y-1450D01*
X8271Y-1437D02*
X9973Y-1437D01*
X11116Y-1437D02*
X12678Y-1437D01*
X13922Y-1437D02*
X17745Y-1437D01*
X8258Y-1424D02*
X9973Y-1424D01*
X11116Y-1424D02*
X12678Y-1424D01*
X13935Y-1424D02*
X17732Y-1424D01*
X8258Y-1412D02*
X9960Y-1412D01*
X11116Y-1412D02*
X12690D01*
X13948Y-1412D02*
X17732Y-1412D01*
X8245Y-1399D02*
X9960Y-1399D01*
X11103Y-1399D02*
X12690Y-1399D01*
X13960Y-1399D02*
X17720Y-1399D01*
X8245Y-1386D02*
X9947Y-1386D01*
X11103D02*
X12690Y-1386D01*
X13973Y-1386D02*
X17720D01*
X8245Y-1373D02*
X9947Y-1373D01*
X11090Y-1373D02*
X12690Y-1373D01*
X13986Y-1373D02*
X17720Y-1373D01*
X8233Y-1361D02*
X9934Y-1361D01*
X11090Y-1361D02*
X12690Y-1361D01*
X13998Y-1361D02*
X17707Y-1361D01*
X8233Y-1348D02*
X9934Y-1348D01*
X11077Y-1348D02*
X12703D01*
X14011D02*
X17707Y-1348D01*
X8220Y-1335D02*
X9934D01*
X11077D02*
X12703Y-1335D01*
X14024Y-1335D02*
X17694Y-1335D01*
X8220Y-1323D02*
X9922Y-1323D01*
X11077Y-1323D02*
X12703Y-1323D01*
X14037Y-1323D02*
X17694Y-1323D01*
X8207Y-1310D02*
X9922D01*
X11065Y-1310D02*
X12716Y-1310D01*
X14049D02*
X17694Y-1310D01*
X8207Y-1297D02*
X9909Y-1297D01*
X11065Y-1297D02*
X12716Y-1297D01*
X14075Y-1297D02*
X17681Y-1297D01*
X8207Y-1285D02*
X9909Y-1285D01*
X11052Y-1285D02*
X12716Y-1285D01*
X14087Y-1285D02*
X17681D01*
X8195Y-1272D02*
X9909Y-1272D01*
X11052Y-1272D02*
X12728Y-1272D01*
X14100Y-1272D02*
X17669Y-1272D01*
X8195Y-1259D02*
X9896Y-1259D01*
X11052Y-1259D02*
X12728Y-1259D01*
X14113D02*
X17669D01*
X8182Y-1246D02*
X9896D01*
X11039D02*
X12728D01*
X14125Y-1246D02*
X17656Y-1246D01*
X8182Y-1234D02*
X9884Y-1234D01*
X11039Y-1234D02*
X12741Y-1234D01*
X14138Y-1234D02*
X17656D01*
X8182Y-1221D02*
X9884Y-1221D01*
X11027Y-1221D02*
X12741Y-1221D01*
X14151Y-1221D02*
X17656Y-1221D01*
X8169Y-1208D02*
X9884Y-1208D01*
X11027Y-1208D02*
X12741D01*
X14164Y-1208D02*
X17643D01*
X8169Y-1196D02*
X9871Y-1196D01*
X11014Y-1196D02*
X12754D01*
X14176Y-1196D02*
X17643Y-1196D01*
X8156Y-1183D02*
X9871Y-1183D01*
X11014Y-1183D02*
X12754Y-1183D01*
X14189D02*
X17631Y-1183D01*
X8156Y-1170D02*
X9858D01*
X11014Y-1170D02*
X12767Y-1170D01*
X14202D02*
X17631Y-1170D01*
X8156Y-1158D02*
X9858Y-1158D01*
X11001Y-1158D02*
X12767Y-1158D01*
X14214Y-1158D02*
X17631Y-1158D01*
X8144Y-1145D02*
X9846Y-1145D01*
X11001Y-1145D02*
X12767Y-1145D01*
X14227Y-1145D02*
X17618Y-1145D01*
X8144Y-1132D02*
X9846D01*
X10989Y-1132D02*
X12779Y-1132D01*
X14240D02*
X17618Y-1132D01*
X8131Y-1119D02*
X9846Y-1119D01*
X10989D02*
X12779Y-1119D01*
X14252Y-1119D02*
X17605Y-1119D01*
X8131Y-1107D02*
X9833Y-1107D01*
X10989Y-1107D02*
X12792Y-1107D01*
X14278Y-1107D02*
X17605Y-1107D01*
X8118Y-1094D02*
X9833Y-1094D01*
X10976Y-1094D02*
X12792Y-1094D01*
X14291D02*
X17593D01*
X8118Y-1081D02*
X9820Y-1081D01*
X10976Y-1081D02*
X12805Y-1081D01*
X14303D02*
X17593Y-1081D01*
X8118Y-1069D02*
X9820Y-1069D01*
X10963D02*
X12805Y-1069D01*
X14316D02*
X17593Y-1069D01*
X8106Y-1056D02*
X9820D01*
X10963Y-1056D02*
X12817Y-1056D01*
X14329D02*
X17580D01*
X8106Y-1043D02*
X9807Y-1043D01*
X10963Y-1043D02*
X12817Y-1043D01*
X14341Y-1043D02*
X17580Y-1043D01*
X8093Y-1031D02*
X9807Y-1031D01*
X10950Y-1031D02*
X12830Y-1031D01*
X14354Y-1031D02*
X17567Y-1031D01*
X8093Y-1018D02*
X9795Y-1018D01*
X10950Y-1018D02*
X12830Y-1018D01*
X14367Y-1018D02*
X17567Y-1018D01*
X8093Y-1005D02*
X9795Y-1005D01*
X10938D02*
X12843Y-1005D01*
X14379Y-1005D02*
X17567Y-1005D01*
X8080Y-992D02*
X9782D01*
X10938Y-992D02*
X12855D01*
X14392Y-992D02*
X17554Y-992D01*
X8080Y-980D02*
X9782Y-980D01*
X10925Y-980D02*
X12855Y-980D01*
X14405Y-980D02*
X17554D01*
X8068Y-967D02*
X9782D01*
X10925Y-967D02*
X12868Y-967D01*
X14418Y-967D02*
X17542Y-967D01*
X8068Y-954D02*
X9769Y-954D01*
X10925Y-954D02*
X12868Y-954D01*
X14430Y-954D02*
X17542Y-954D01*
X8055Y-942D02*
X9769Y-942D01*
X10912Y-942D02*
X12881Y-942D01*
X14443Y-942D02*
X17542Y-942D01*
X8055Y-929D02*
X9757Y-929D01*
X10912Y-929D02*
X12894Y-929D01*
X14468Y-929D02*
X17529Y-929D01*
X8055Y-916D02*
X9757D01*
X10900D02*
X12894Y-916D01*
X14481Y-916D02*
X17529Y-916D01*
X8042Y-904D02*
X9757D01*
X10900D02*
X12906Y-904D01*
X14494Y-904D02*
X17516D01*
X8042Y-891D02*
X9744Y-891D01*
X10900Y-891D02*
X12919Y-891D01*
X14506Y-891D02*
X17516Y-891D01*
X8029Y-878D02*
X9744D01*
X10887Y-878D02*
X12919Y-878D01*
X14519Y-878D02*
X17504Y-878D01*
X8029Y-865D02*
X9731Y-865D01*
X10887Y-865D02*
X12932D01*
X14532Y-865D02*
X17504Y-865D01*
X8029Y-853D02*
X9731Y-853D01*
X10874Y-853D02*
X12944D01*
X14545Y-853D02*
X17504Y-853D01*
X8017Y-840D02*
X9731D01*
X10874Y-840D02*
X12957Y-840D01*
X14557Y-840D02*
X17491Y-840D01*
X8017Y-827D02*
X9719D01*
X10862Y-827D02*
X12957Y-827D01*
X14570Y-827D02*
X17491Y-827D01*
X8004Y-815D02*
X9719D01*
X10862Y-815D02*
X12970D01*
X14583Y-815D02*
X17478Y-815D01*
X8004Y-802D02*
X9706D01*
X10862Y-802D02*
X12983D01*
X14595Y-802D02*
X17478D01*
X8004Y-789D02*
X9706Y-789D01*
X10849Y-789D02*
X12995Y-789D01*
X14608Y-789D02*
X17478Y-789D01*
X7991Y-777D02*
X9693Y-777D01*
X10849Y-777D02*
X12995Y-777D01*
X14621Y-777D02*
X17466Y-777D01*
X7991Y-764D02*
X9693Y-764D01*
X10836Y-764D02*
X13008Y-764D01*
X14633Y-764D02*
X17466D01*
X7979Y-751D02*
X9693Y-751D01*
X10836Y-751D02*
X13021D01*
X14646Y-751D02*
X17453Y-751D01*
X7979Y-738D02*
X9680Y-738D01*
X10836D02*
X13033Y-738D01*
X14672Y-738D02*
X17453Y-738D01*
X7966Y-726D02*
X9680Y-726D01*
X10823Y-726D02*
X13046D01*
X14684D02*
X17440Y-726D01*
X7966Y-713D02*
X9668D01*
X10823Y-713D02*
X13059Y-713D01*
X14697Y-713D02*
X17440Y-713D01*
X7966Y-700D02*
X9668Y-700D01*
X10811Y-700D02*
X13071Y-700D01*
X14710Y-700D02*
X17440Y-700D01*
X7953Y-688D02*
X9668Y-688D01*
X10811D02*
X13084Y-688D01*
X14722D02*
X17427Y-688D01*
X7953Y-675D02*
X9655Y-675D01*
X10811Y-675D02*
X13097Y-675D01*
X14735Y-675D02*
X17427Y-675D01*
X7941Y-662D02*
X9655D01*
X10798Y-662D02*
X13109Y-662D01*
X14748D02*
X17415Y-662D01*
X7941Y-650D02*
X9642Y-650D01*
X10798Y-650D02*
X13122Y-650D01*
X14760D02*
X17415Y-650D01*
X7941Y-637D02*
X9642Y-637D01*
X10785Y-637D02*
X13135Y-637D01*
X14773Y-637D02*
X17415Y-637D01*
X7928Y-624D02*
X9630Y-624D01*
X10785Y-624D02*
X13148Y-624D01*
X14786Y-624D02*
X17402D01*
X7928Y-611D02*
X9630D01*
X10773D02*
X13160Y-611D01*
X14799Y-611D02*
X17402D01*
X7915Y-599D02*
X9630D01*
X10773D02*
X13173Y-599D01*
X14811Y-599D02*
X17389D01*
X7915Y-586D02*
X9617Y-586D01*
X10773Y-586D02*
X13186Y-586D01*
X14824Y-586D02*
X17389Y-586D01*
X7902Y-573D02*
X9617Y-573D01*
X10760Y-573D02*
X13198Y-573D01*
X14837Y-573D02*
X17377Y-573D01*
X7902Y-561D02*
X9604Y-561D01*
X10760Y-561D02*
X13224Y-561D01*
X14862Y-561D02*
X17377Y-561D01*
X7902Y-548D02*
X9604Y-548D01*
X10747Y-548D02*
X13236Y-548D01*
X14875D02*
X17377Y-548D01*
X7890Y-535D02*
X9604Y-535D01*
X10747Y-535D02*
X13249Y-535D01*
X14887Y-535D02*
X17364Y-535D01*
X7890Y-523D02*
X9592Y-523D01*
X10747Y-523D02*
X13262Y-523D01*
X14900Y-523D02*
X17364Y-523D01*
X7877Y-510D02*
X9592Y-510D01*
X10735Y-510D02*
X13275D01*
X14913Y-510D02*
X17351Y-510D01*
X7877Y-497D02*
X9579Y-497D01*
X10735Y-497D02*
X13287Y-497D01*
X14926Y-497D02*
X17351Y-497D01*
X7877Y-484D02*
X9579Y-484D01*
X10722Y-484D02*
X13300Y-484D01*
X14938Y-484D02*
X17351Y-484D01*
X7864Y-472D02*
X9579Y-472D01*
X10722Y-472D02*
X13313Y-472D01*
X14951Y-472D02*
X17339Y-472D01*
X7864Y-459D02*
X9566Y-459D01*
X10709Y-459D02*
X13325Y-459D01*
X14964D02*
X17339D01*
X7852Y-446D02*
X9566Y-446D01*
X10709Y-446D02*
X13338Y-446D01*
X14976D02*
X17326Y-446D01*
X7852Y-434D02*
X9553Y-434D01*
X10709Y-434D02*
X13351D01*
X14989Y-434D02*
X17326Y-434D01*
X7839Y-421D02*
X9553Y-421D01*
X10696Y-421D02*
X13363Y-421D01*
X15002D02*
X17313Y-421D01*
X7839Y-408D02*
X9541D01*
X10696Y-408D02*
X13376D01*
X15014Y-408D02*
X17313D01*
X7839Y-396D02*
X9541Y-396D01*
X10684D02*
X13402D01*
X15027D02*
X17313D01*
X7826Y-383D02*
X9541Y-383D01*
X10684Y-383D02*
X13414Y-383D01*
X15040Y-383D02*
X17300D01*
X7826Y-370D02*
X9528D01*
X10684Y-370D02*
X13427Y-370D01*
X15065Y-370D02*
X17300Y-370D01*
X7814Y-357D02*
X9528Y-357D01*
X10671Y-357D02*
X13440Y-357D01*
X15078Y-357D02*
X17288Y-357D01*
X7814Y-345D02*
X9515Y-345D01*
X10671Y-345D02*
X13452Y-345D01*
X15091D02*
X17288D01*
X7814Y-332D02*
X9515D01*
X10658D02*
X13465Y-332D01*
X15103Y-332D02*
X17288Y-332D01*
X7801Y-319D02*
X9515Y-319D01*
X10658D02*
X13478Y-319D01*
X15116Y-319D02*
X17275Y-319D01*
X7801Y-307D02*
X9503D01*
X10646Y-307D02*
X13490Y-307D01*
X15129D02*
X17275Y-307D01*
X7788Y-294D02*
X9503Y-294D01*
X10646D02*
X13503D01*
X15141Y-294D02*
X17262Y-294D01*
X7788Y-281D02*
X9490D01*
X10646D02*
X13516D01*
X15154Y-281D02*
X17262Y-281D01*
X7788Y-269D02*
X9490Y-269D01*
X10633Y-269D02*
X13529D01*
X15167Y-269D02*
X17262Y-269D01*
X7775Y-256D02*
X9477Y-256D01*
X10633D02*
X13541Y-256D01*
X15180Y-256D02*
X17250Y-256D01*
X7775Y-243D02*
X9477Y-243D01*
X10620Y-243D02*
X13554Y-243D01*
X15192Y-243D02*
X17250D01*
X7763Y-230D02*
X9477Y-230D01*
X10620Y-230D02*
X13567Y-230D01*
X15205D02*
X17237Y-230D01*
X7763Y-218D02*
X9465Y-218D01*
X10620D02*
X13592Y-218D01*
X15218Y-218D02*
X17237Y-218D01*
X7750Y-205D02*
X9465Y-205D01*
X10608Y-205D02*
X13605D01*
X15230D02*
X17224D01*
X7750Y-192D02*
X9452Y-192D01*
X10608Y-192D02*
X13617Y-192D01*
X15243Y-192D02*
X17224D01*
X7750Y-180D02*
X9452Y-180D01*
X10595Y-180D02*
X13630Y-180D01*
X15268Y-180D02*
X17224Y-180D01*
X7737Y-167D02*
X9452Y-167D01*
X10595Y-167D02*
X13643Y-167D01*
X15281Y-167D02*
X17212Y-167D01*
X7737Y-154D02*
X9439Y-154D01*
X10595D02*
X13656Y-154D01*
X15294D02*
X17212Y-154D01*
X7725Y-142D02*
X9439Y-142D01*
X10582Y-142D02*
X13668Y-142D01*
X15294Y-142D02*
X17199Y-142D01*
X7725Y-129D02*
X9426Y-129D01*
X10582D02*
X13681Y-129D01*
X15307Y-129D02*
X17199Y-129D01*
X7725Y-116D02*
X9426Y-116D01*
X10569Y-116D02*
X13694Y-116D01*
X15319Y-116D02*
X17199Y-116D01*
X7712Y-103D02*
X9426Y-103D01*
X10569Y-103D02*
X13706Y-103D01*
X15332D02*
X17186Y-103D01*
X7712Y-91D02*
X9414D01*
X10557Y-91D02*
X13719Y-91D01*
X15345Y-91D02*
X17186Y-91D01*
X7699Y-78D02*
X9414Y-78D01*
X10557Y-78D02*
X13732Y-78D01*
X15357Y-78D02*
X17173Y-78D01*
X7699Y-65D02*
X9401Y-65D01*
X10557Y-65D02*
X13744Y-65D01*
X15370Y-65D02*
X17174D01*
X7687Y-53D02*
X9401Y-53D01*
X10544Y-53D02*
X13770Y-53D01*
X15370Y-53D02*
X17161Y-53D01*
X7687Y-40D02*
X9388Y-40D01*
X10544Y-40D02*
X13783Y-40D01*
X15383D02*
X17161Y-40D01*
X7687Y-27D02*
X9388Y-27D01*
X10531Y-27D02*
X13795Y-27D01*
X15395Y-27D02*
X17161Y-27D01*
X7674Y-15D02*
X9388D01*
X10531Y-15D02*
X13808Y-15D01*
X15395Y-15D02*
X17148Y-15D01*
X7674Y-2D02*
X9376Y-2D01*
X10531Y-2D02*
X13821D01*
X15408D02*
X17148D01*
X7661Y11D02*
X9376Y11D01*
X10519Y11D02*
X13833D01*
X15421D02*
X17135Y11D01*
X7661Y24D02*
X9363Y24D01*
X10519Y24D02*
X13846D01*
X15421Y24D02*
X17135Y24D01*
X7661Y36D02*
X9363Y36D01*
X10506Y36D02*
X13859Y36D01*
X15434Y36D02*
X17135D01*
X7648Y49D02*
X9363Y49D01*
X10506Y49D02*
X13871Y49D01*
X15446Y49D02*
X17123D01*
X7648Y62D02*
X9350Y62D01*
X10493Y62D02*
X13884Y62D01*
X15446Y62D02*
X17123D01*
X7636Y74D02*
X9350Y74D01*
X10493D02*
X13897D01*
X15459Y74D02*
X17110Y74D01*
X7636Y87D02*
X9338Y87D01*
X10493Y87D02*
X13910D01*
X15459Y87D02*
X17110D01*
X7636Y100D02*
X9338Y100D01*
X10481Y100D02*
X13922Y100D01*
X15472D02*
X17097D01*
X7623Y112D02*
X9325Y112D01*
X10481D02*
X13935Y112D01*
X15472Y112D02*
X17097Y112D01*
X7623Y125D02*
X9325D01*
X10468Y125D02*
X13960Y125D01*
X15484Y125D02*
X17097Y125D01*
X7610Y138D02*
X9325Y138D01*
X10468D02*
X13973D01*
X15484Y138D02*
X17085Y138D01*
X7610Y151D02*
X9312D01*
X10468D02*
X13986Y151D01*
X15497Y151D02*
X17085Y151D01*
X7598Y163D02*
X9312Y163D01*
X10455Y163D02*
X13998D01*
X15497D02*
X17072Y163D01*
X7598Y176D02*
X9299Y176D01*
X10455Y176D02*
X14011Y176D01*
X15510Y176D02*
X17072Y176D01*
X7598Y189D02*
X9299Y189D01*
X10442Y189D02*
X14024Y189D01*
X15510Y189D02*
X17072Y189D01*
X7585Y201D02*
X9299Y201D01*
X10442Y201D02*
X14037Y201D01*
X15522Y201D02*
X17059D01*
X7585Y214D02*
X9287Y214D01*
X10442Y214D02*
X14049Y214D01*
X15522Y214D02*
X17059Y214D01*
X7572Y227D02*
X9287Y227D01*
X10430Y227D02*
X14062Y227D01*
X15535Y227D02*
X17046Y227D01*
X7572Y239D02*
X9274Y239D01*
X10430D02*
X14075D01*
X15535D02*
X17046Y239D01*
X7572Y252D02*
X9274Y252D01*
X10417Y252D02*
X14087Y252D01*
X15535Y252D02*
X17034D01*
X7560Y265D02*
X9274Y265D01*
X10417Y265D02*
X14100Y265D01*
X15548Y265D02*
X17034Y265D01*
X7560Y278D02*
X9261Y278D01*
X10404Y278D02*
X14113D01*
X15548Y278D02*
X17034Y278D01*
X7547Y290D02*
X9261Y290D01*
X10404Y290D02*
X14138Y290D01*
X15548D02*
X17021D01*
X7547Y303D02*
X9249Y303D01*
X10404Y303D02*
X14151Y303D01*
X15561Y303D02*
X17021Y303D01*
X7534Y316D02*
X9249Y316D01*
X10392Y316D02*
X14164D01*
X15561Y316D02*
X17008Y316D01*
X7534Y328D02*
X9236Y328D01*
X10392Y328D02*
X14176Y328D01*
X15561Y328D02*
X17008Y328D01*
X7534Y341D02*
X9236Y341D01*
X10379Y341D02*
X14189Y341D01*
X15573Y341D02*
X17008D01*
X7521Y354D02*
X9236Y354D01*
X10379Y354D02*
X14202Y354D01*
X15573Y354D02*
X16996D01*
X7521Y366D02*
X9223Y366D01*
X10379Y366D02*
X14214Y366D01*
X15573Y366D02*
X16996Y366D01*
X7509Y379D02*
X9223Y379D01*
X10366Y379D02*
X14227Y379D01*
X15586D02*
X16983Y379D01*
X7509Y392D02*
X9211Y392D01*
X10366D02*
X14240D01*
X15586Y392D02*
X16983Y392D01*
X7509Y405D02*
X9211Y405D01*
X10354Y405D02*
X14252D01*
X15586D02*
X16983D01*
X7496Y417D02*
X9211Y417D01*
X10354Y417D02*
X14265Y417D01*
X15586D02*
X16970Y417D01*
X7496Y430D02*
X9198Y430D01*
X10341Y430D02*
X14278D01*
X15599Y430D02*
X16970Y430D01*
X7483Y443D02*
X9198Y443D01*
X10341Y443D02*
X14291Y443D01*
X15599D02*
X16958Y443D01*
X7483Y455D02*
X9185Y455D01*
X10341Y455D02*
X14316Y455D01*
X15599Y455D02*
X16958D01*
X7471Y468D02*
X9185Y468D01*
X10328D02*
X14329Y468D01*
X15599Y468D02*
X16945Y468D01*
X7471Y481D02*
X9172Y481D01*
X10328Y481D02*
X14341Y481D01*
X15611Y481D02*
X16945Y481D01*
X7471Y493D02*
X9172Y493D01*
X10315Y493D02*
X14354Y493D01*
X15611Y493D02*
X16945Y493D01*
X7458Y506D02*
X9172Y506D01*
X10315Y506D02*
X14367Y506D01*
X15611Y506D02*
X16932D01*
X7458Y519D02*
X9160D01*
X10315Y519D02*
X14379Y519D01*
X15611D02*
X16932D01*
X7445Y532D02*
X9160Y532D01*
X10303Y532D02*
X14392Y532D01*
X15611Y532D02*
X16919D01*
X7445Y544D02*
X9147D01*
X10303Y544D02*
X14405Y544D01*
X15611D02*
X16920Y544D01*
X7445Y557D02*
X9147Y557D01*
X10290D02*
X14418Y557D01*
X15624Y557D02*
X16919Y557D01*
X7433Y570D02*
X9147D01*
X10290Y570D02*
X14430Y570D01*
X15624Y570D02*
X16907Y570D01*
X7433Y582D02*
X9134D01*
X10290Y582D02*
X14443Y582D01*
X15624Y582D02*
X16907Y582D01*
X7420Y595D02*
X9134Y595D01*
X10277Y595D02*
X14456Y595D01*
X15624Y595D02*
X16894Y595D01*
X7420Y608D02*
X9122D01*
X10277Y608D02*
X14468Y608D01*
X15624Y608D02*
X16894Y608D01*
X7420Y620D02*
X9122Y620D01*
X10265Y620D02*
X14468Y620D01*
X15624D02*
X16881Y620D01*
X7407Y633D02*
X9122D01*
X10265D02*
X14481Y633D01*
X15624Y633D02*
X16881Y633D01*
X7407Y646D02*
X9109Y646D01*
X10252Y646D02*
X14481Y646D01*
X15624Y646D02*
X16881Y646D01*
X7394Y659D02*
X9109D01*
X10252Y659D02*
X14494Y659D01*
X15624Y659D02*
X16869D01*
X7394Y671D02*
X9096Y671D01*
X10252D02*
X14494Y671D01*
X15624Y671D02*
X16869Y671D01*
X7382Y684D02*
X9096Y684D01*
X10239Y684D02*
X14506Y684D01*
X15637Y684D02*
X16856Y684D01*
X7382Y697D02*
X9084Y697D01*
X10239D02*
X14506D01*
X15637Y697D02*
X16856Y697D01*
X7382Y709D02*
X9084Y709D01*
X10227Y709D02*
X14506Y709D01*
X15637Y709D02*
X16856Y709D01*
X7369Y722D02*
X9084D01*
X10227Y722D02*
X14506Y722D01*
X15637Y722D02*
X16843D01*
X7369Y735D02*
X9071D01*
X10227Y735D02*
X14519Y735D01*
X15637Y735D02*
X16843D01*
X7356Y747D02*
X9071D01*
X10214Y747D02*
X14519Y747D01*
X15637D02*
X16831Y747D01*
X7356Y760D02*
X9058Y760D01*
X10214Y760D02*
X14519D01*
X15637Y760D02*
X16831Y760D01*
X7356Y773D02*
X9058Y773D01*
X10201Y773D02*
X14519Y773D01*
X15637Y773D02*
X16818Y773D01*
X7344Y786D02*
X9058D01*
X10201Y786D02*
X14519Y786D01*
X15637Y786D02*
X16818Y786D01*
X7344Y798D02*
X9045Y798D01*
X10188Y798D02*
X14519Y798D01*
X15637Y798D02*
X16818Y798D01*
X7331Y811D02*
X9045Y811D01*
X10188Y811D02*
X14507Y811D01*
X15637Y811D02*
X16805D01*
X7331Y824D02*
X9033Y824D01*
X10188Y824D02*
X14506Y824D01*
X15637Y824D02*
X16805Y824D01*
X7318Y836D02*
X9033Y836D01*
X10176D02*
X14506Y836D01*
X15637Y836D02*
X16792D01*
X7318Y849D02*
X9020Y849D01*
X10176Y849D02*
X14506Y849D01*
X15624Y849D02*
X16792Y849D01*
X7318Y862D02*
X9020Y862D01*
X10163Y862D02*
X14494Y862D01*
X15624Y862D02*
X16792Y862D01*
X7306Y874D02*
X9020D01*
X10163Y874D02*
X14494Y874D01*
X15624Y874D02*
X16780Y874D01*
X7306Y887D02*
X9007Y887D01*
X10163Y887D02*
X14481D01*
X15624Y887D02*
X16780Y887D01*
X7293Y900D02*
X9007D01*
X10150Y900D02*
X14481Y900D01*
X15624Y900D02*
X16767Y900D01*
X7293Y913D02*
X8995Y913D01*
X10150D02*
X14468D01*
X15624Y913D02*
X16767Y913D01*
X7293Y925D02*
X8995Y925D01*
X10150Y925D02*
X14456Y925D01*
X15624D02*
X16754Y925D01*
X7293Y938D02*
X8982Y938D01*
X10138Y938D02*
X14456Y938D01*
X15624D02*
X16754Y938D01*
X7293Y951D02*
X8969D01*
X10138D02*
X14443Y951D01*
X15624Y951D02*
X16754Y951D01*
X7293Y963D02*
X8969Y963D01*
X10138Y963D02*
X14430Y963D01*
X15624Y963D02*
X16742Y963D01*
X7293Y976D02*
X8957D01*
X10150D02*
X14405Y976D01*
X15611Y976D02*
X16742Y976D01*
X7293Y989D02*
X8931Y989D01*
X10150Y989D02*
X14392Y989D01*
X15611D02*
X16729D01*
X7306Y1001D02*
X8918Y1001D01*
X10163Y1001D02*
X14367Y1001D01*
X15611Y1001D02*
X16729D01*
X7318Y1014D02*
X8893Y1014D01*
X10163Y1014D02*
X14341Y1014D01*
X15611Y1014D02*
X16729Y1014D01*
X7331Y1027D02*
X8868Y1027D01*
X10188D02*
X14316Y1027D01*
X15611D02*
X16716Y1027D01*
X15611Y1040D02*
X16716D01*
X15599Y1052D02*
X16704Y1052D01*
X15599Y1065D02*
X16704Y1065D01*
X15599Y1078D02*
X16704Y1078D01*
X15599Y1090D02*
X16691D01*
X15586Y1103D02*
X16691D01*
X15586Y1116D02*
X16678Y1116D01*
X15586Y1128D02*
X16678Y1128D01*
X15586Y1141D02*
X16665Y1141D01*
X15573Y1154D02*
X16665D01*
X15573Y1167D02*
X16666Y1167D01*
X15573Y1179D02*
X16653Y1179D01*
X15573Y1192D02*
X16653Y1192D01*
X15561Y1205D02*
X16640Y1205D01*
X15561Y1217D02*
X16640Y1217D01*
X15561Y1230D02*
X16640Y1230D01*
X15548Y1243D02*
X16627Y1243D01*
X15548Y1255D02*
X16627Y1255D01*
X15548Y1268D02*
X16615Y1268D01*
X15535Y1281D02*
X16615D01*
X15535Y1294D02*
X16602Y1294D01*
X15522Y1306D02*
X16602Y1306D01*
X15522Y1319D02*
X16602D01*
X15522Y1332D02*
X16589Y1332D01*
X15510Y1344D02*
X16589Y1344D01*
X15510Y1357D02*
X16577Y1357D01*
X15497Y1370D02*
X16577Y1370D01*
X15497Y1382D02*
X16577D01*
X15484Y1395D02*
X16564Y1395D01*
X15484Y1408D02*
X16564Y1408D01*
X15472Y1421D02*
X16551Y1421D01*
X15472Y1433D02*
X16551Y1433D01*
X15459Y1446D02*
X16538Y1446D01*
X15459Y1459D02*
X16538Y1459D01*
X15446Y1471D02*
X16538Y1471D01*
X15446Y1484D02*
X16526Y1484D01*
X15434Y1497D02*
X16526Y1497D01*
X15421Y1509D02*
X16513D01*
X15421Y1522D02*
X16513D01*
X15408Y1535D02*
X16513Y1535D01*
X15408Y1548D02*
X16500D01*
X15395Y1560D02*
X16500D01*
X15383Y1573D02*
X16488Y1573D01*
X15370Y1586D02*
X16488Y1586D01*
X15370Y1598D02*
X16475Y1598D01*
X15357Y1611D02*
X16475Y1611D01*
X15345Y1624D02*
X16475Y1624D01*
X15345Y1636D02*
X16462Y1636D01*
X15332Y1649D02*
X16462Y1649D01*
X15319Y1662D02*
X16450Y1662D01*
X15307Y1675D02*
X16450Y1675D01*
X15294Y1687D02*
X16450Y1687D01*
X15281Y1700D02*
X16437Y1700D01*
X15268Y1713D02*
X16437Y1713D01*
X15268Y1725D02*
X16424Y1725D01*
X15256Y1738D02*
X16424Y1738D01*
X15243Y1751D02*
X16424D01*
X15230Y1763D02*
X16412Y1763D01*
X15218Y1776D02*
X16411D01*
X15205Y1789D02*
X16399Y1789D01*
X15180Y1802D02*
X16399Y1802D01*
X15167Y1814D02*
X16386Y1814D01*
X15154Y1827D02*
X16386Y1827D01*
X15141Y1840D02*
X16386Y1840D01*
X15129Y1852D02*
X16373D01*
X15103Y1865D02*
X16373Y1865D01*
X15091Y1878D02*
X16361Y1878D01*
X15078Y1890D02*
X16361Y1890D01*
X15053Y1903D02*
X16361Y1903D01*
X15040Y1916D02*
X16348Y1916D01*
X15014Y1929D02*
X16348D01*
X15002Y1941D02*
X16335Y1941D01*
X14976Y1954D02*
X16335D01*
X14951Y1967D02*
X16323Y1967D01*
X14938Y1979D02*
X16323Y1979D01*
X14913Y1992D02*
X16323D01*
X14887Y2005D02*
X16310Y2005D01*
X14862Y2017D02*
X16310Y2017D01*
X14824Y2030D02*
X16297Y2030D01*
X14799Y2043D02*
X16297D01*
X14760Y2056D02*
X16297Y2056D01*
X14735Y2068D02*
X16284Y2068D01*
X14697Y2081D02*
X16284Y2081D01*
X14646Y2094D02*
X16272Y2094D01*
X14595Y2106D02*
X16272D01*
X14545Y2119D02*
X16259Y2119D01*
X14481Y2132D02*
X16259Y2132D01*
X14392Y2144D02*
X16259Y2144D01*
X6836Y2157D02*
X16246D01*
X6798Y2170D02*
X16246D01*
X6772Y2183D02*
X16234Y2183D01*
X6772Y2195D02*
X16234Y2195D01*
X6759Y2208D02*
X16221D01*
X6759Y2221D02*
X16221Y2221D01*
X6747Y2233D02*
X16208Y2233D01*
X6747Y2246D02*
X16208Y2246D01*
X6734Y2259D02*
X16196Y2259D01*
X6734Y2271D02*
X16196Y2271D01*
X6734Y2284D02*
X16183Y2284D01*
X6721Y2297D02*
X16170D01*
X6721Y2310D02*
X16170Y2310D01*
X6709Y2322D02*
X16157Y2322D01*
X6709Y2335D02*
X16157Y2335D01*
X6709Y2348D02*
X16145Y2348D01*
X6696Y2360D02*
X16132Y2360D01*
X6696Y2373D02*
X16132Y2373D01*
X6683Y2386D02*
X16119Y2386D01*
X6683Y2398D02*
X16107Y2398D01*
X6671Y2411D02*
X16094D01*
X6671Y2424D02*
X16094Y2424D01*
X6671Y2437D02*
X16081Y2437D01*
X6658Y2449D02*
X16069Y2449D01*
X6658Y2462D02*
X16056D01*
X6645Y2475D02*
X16056D01*
X6645Y2487D02*
X16043D01*
X6645Y2500D02*
X16030Y2500D01*
X6632Y2513D02*
X16018D01*
X6632Y2525D02*
X16005Y2525D01*
X6620Y2538D02*
X15992Y2538D01*
X6620Y2551D02*
X15980Y2551D01*
X6620Y2564D02*
X15980Y2564D01*
X6607Y2576D02*
X15967Y2576D01*
X6607Y2589D02*
X15954D01*
X6594Y2602D02*
X15942Y2602D01*
X6594Y2614D02*
X15929Y2614D01*
X6582Y2627D02*
X15916Y2627D01*
X6582Y2640D02*
X15891Y2640D01*
X6582Y2652D02*
X15878D01*
X6569Y2665D02*
X15865D01*
X6569Y2678D02*
X15853Y2678D01*
X6556Y2691D02*
X15840Y2691D01*
X6556Y2703D02*
X15827Y2703D01*
X6556Y2716D02*
X15802Y2716D01*
X6544Y2729D02*
X15789Y2729D01*
X6544Y2741D02*
X15776Y2741D01*
X6531Y2754D02*
X15751Y2754D01*
X6531Y2767D02*
X15738D01*
X6518Y2779D02*
X15726D01*
X6518Y2792D02*
X15700Y2792D01*
X6518Y2805D02*
X15688Y2805D01*
X6505Y2818D02*
X15662Y2818D01*
X6505Y2830D02*
X15637D01*
X6493Y2843D02*
X15624Y2843D01*
X6493Y2856D02*
X15599Y2856D01*
X6493Y2868D02*
X15573Y2868D01*
X6480Y2881D02*
X15548Y2881D01*
X6480Y2894D02*
X15523Y2894D01*
X6467Y2906D02*
X15497Y2906D01*
X6467Y2919D02*
X15472Y2919D01*
X6467Y2932D02*
X15434Y2932D01*
X6467Y2945D02*
X15408Y2945D01*
X6467Y2957D02*
X15370Y2957D01*
X6467Y2970D02*
X15332Y2970D01*
X6467Y2983D02*
X15294Y2983D01*
X6467Y2995D02*
X15243D01*
X6480Y3008D02*
X15192Y3008D01*
X6493Y3021D02*
X15129D01*
X6505Y3033D02*
X15040Y3033D01*
M02*
