G04*
G04 #@! TF.GenerationSoftware,Altium Limited,Altium Designer,22.1.2 (22)*
G04*
G04 Layer_Color=8421504*
%FSLAX43Y43*%
%MOMM*%
G71*
G04*
G04 #@! TF.SameCoordinates,73E82848-2D7E-44F4-B539-ED54A23ADB27*
G04*
G04*
G04 #@! TF.FilePolarity,Positive*
G04*
G01*
G75*
%ADD10C,0.300*%
%ADD11R,0.600X0.225*%
%ADD12R,4.900X1.600*%
%ADD13R,3.000X1.500*%
%ADD14R,0.582X0.550*%
%ADD15R,0.582X0.582*%
%ADD16R,0.550X0.582*%
%ADD17R,0.700X0.700*%
%ADD18R,0.700X0.700*%
%ADD19R,0.550X0.700*%
%ADD20R,0.725X1.000*%
%ADD21R,0.700X0.550*%
%ADD22R,0.700X0.510*%
%ADD23R,1.250X1.000*%
%ADD24R,0.700X0.582*%
%ADD25R,0.900X0.650*%
%ADD26R,0.425X0.300*%
%ADD27R,0.600X0.800*%
%ADD28R,0.582X0.582*%
%ADD29R,0.560X0.510*%
%ADD30C,0.250*%
%ADD31R,0.280X0.350*%
%ADD32R,1.000X0.725*%
G36*
X12739Y-39091D02*
X12780Y-39096D01*
X12830Y-39108D01*
X12882Y-39123D01*
X12935Y-39146D01*
X12988Y-39178D01*
X12991D01*
X12994Y-39181D01*
X13011Y-39196D01*
X13035Y-39217D01*
X13067Y-39246D01*
X13099Y-39281D01*
X13134Y-39328D01*
X13166Y-39378D01*
X13196Y-39439D01*
Y-39442D01*
X13199Y-39448D01*
X13202Y-39457D01*
X13207Y-39468D01*
X13213Y-39483D01*
X13219Y-39504D01*
X13231Y-39547D01*
X13243Y-39603D01*
X13254Y-39665D01*
X13263Y-39732D01*
X13266Y-39805D01*
Y-39808D01*
Y-39814D01*
Y-39826D01*
Y-39840D01*
X13263Y-39861D01*
Y-39881D01*
X13257Y-39934D01*
X13245Y-39993D01*
X13234Y-40057D01*
X13213Y-40124D01*
X13187Y-40192D01*
Y-40195D01*
X13184Y-40201D01*
X13178Y-40209D01*
X13172Y-40221D01*
X13155Y-40250D01*
X13131Y-40288D01*
X13099Y-40329D01*
X13061Y-40373D01*
X13017Y-40414D01*
X12964Y-40452D01*
X12961D01*
X12958Y-40455D01*
X12950Y-40461D01*
X12938Y-40467D01*
X12909Y-40482D01*
X12871Y-40496D01*
X12824Y-40514D01*
X12774Y-40529D01*
X12715Y-40540D01*
X12657Y-40543D01*
X12636D01*
X12616Y-40540D01*
X12587Y-40537D01*
X12554Y-40531D01*
X12519Y-40523D01*
X12481Y-40511D01*
X12446Y-40496D01*
X12443Y-40493D01*
X12431Y-40488D01*
X12414Y-40476D01*
X12393Y-40461D01*
X12367Y-40444D01*
X12343Y-40423D01*
X12317Y-40397D01*
X12294Y-40370D01*
Y-41044D01*
X12056D01*
Y-39117D01*
X12273D01*
Y-39299D01*
X12276Y-39293D01*
X12285Y-39281D01*
X12302Y-39263D01*
X12323Y-39240D01*
X12346Y-39214D01*
X12376Y-39187D01*
X12408Y-39161D01*
X12443Y-39140D01*
X12449Y-39137D01*
X12461Y-39132D01*
X12481Y-39123D01*
X12507Y-39111D01*
X12543Y-39102D01*
X12581Y-39094D01*
X12625Y-39088D01*
X12674Y-39085D01*
X12704D01*
X12739Y-39091D01*
D02*
G37*
G36*
X18098Y-39088D02*
X18136Y-39091D01*
X18183Y-39096D01*
X18230Y-39105D01*
X18280Y-39117D01*
X18327Y-39135D01*
X18330D01*
X18332Y-39137D01*
X18347Y-39143D01*
X18371Y-39155D01*
X18397Y-39167D01*
X18426Y-39187D01*
X18458Y-39208D01*
X18488Y-39234D01*
X18511Y-39263D01*
X18514Y-39266D01*
X18520Y-39278D01*
X18532Y-39296D01*
X18546Y-39319D01*
X18558Y-39348D01*
X18573Y-39386D01*
X18584Y-39427D01*
X18596Y-39474D01*
X18365Y-39506D01*
Y-39501D01*
X18362Y-39489D01*
X18356Y-39468D01*
X18347Y-39445D01*
X18335Y-39419D01*
X18318Y-39392D01*
X18297Y-39363D01*
X18271Y-39340D01*
X18268Y-39337D01*
X18256Y-39331D01*
X18239Y-39319D01*
X18215Y-39307D01*
X18186Y-39299D01*
X18148Y-39287D01*
X18107Y-39281D01*
X18057Y-39278D01*
X18031D01*
X18002Y-39281D01*
X17966Y-39284D01*
X17928Y-39293D01*
X17890Y-39301D01*
X17852Y-39316D01*
X17823Y-39334D01*
X17820Y-39337D01*
X17811Y-39342D01*
X17802Y-39354D01*
X17791Y-39369D01*
X17776Y-39386D01*
X17767Y-39410D01*
X17758Y-39433D01*
X17756Y-39460D01*
Y-39463D01*
Y-39468D01*
X17758Y-39477D01*
Y-39489D01*
X17767Y-39515D01*
X17782Y-39545D01*
X17785Y-39547D01*
X17788Y-39550D01*
X17805Y-39565D01*
X17817Y-39577D01*
X17832Y-39586D01*
X17852Y-39597D01*
X17873Y-39606D01*
X17876D01*
X17881Y-39609D01*
X17893Y-39612D01*
X17914Y-39618D01*
X17940Y-39627D01*
X17978Y-39638D01*
X18025Y-39650D01*
X18051Y-39659D01*
X18084Y-39668D01*
X18086D01*
X18095Y-39670D01*
X18107Y-39673D01*
X18125Y-39679D01*
X18145Y-39685D01*
X18168Y-39691D01*
X18221Y-39706D01*
X18280Y-39723D01*
X18338Y-39744D01*
X18391Y-39761D01*
X18414Y-39770D01*
X18435Y-39779D01*
X18441Y-39782D01*
X18453Y-39788D01*
X18470Y-39796D01*
X18491Y-39808D01*
X18517Y-39826D01*
X18543Y-39849D01*
X18567Y-39873D01*
X18590Y-39902D01*
X18593Y-39905D01*
X18599Y-39916D01*
X18608Y-39934D01*
X18619Y-39957D01*
X18631Y-39987D01*
X18640Y-40022D01*
X18646Y-40060D01*
X18649Y-40104D01*
Y-40110D01*
Y-40124D01*
X18646Y-40148D01*
X18640Y-40174D01*
X18631Y-40209D01*
X18619Y-40247D01*
X18602Y-40285D01*
X18578Y-40326D01*
X18576Y-40332D01*
X18567Y-40344D01*
X18549Y-40362D01*
X18526Y-40385D01*
X18499Y-40411D01*
X18464Y-40438D01*
X18423Y-40464D01*
X18376Y-40488D01*
X18371Y-40490D01*
X18353Y-40496D01*
X18327Y-40505D01*
X18291Y-40514D01*
X18248Y-40526D01*
X18198Y-40534D01*
X18142Y-40540D01*
X18084Y-40543D01*
X18057D01*
X18040Y-40540D01*
X18016D01*
X17990Y-40537D01*
X17928Y-40529D01*
X17861Y-40517D01*
X17794Y-40496D01*
X17726Y-40470D01*
X17697Y-40452D01*
X17668Y-40432D01*
X17665D01*
X17662Y-40426D01*
X17644Y-40411D01*
X17621Y-40385D01*
X17592Y-40347D01*
X17562Y-40300D01*
X17533Y-40242D01*
X17507Y-40174D01*
X17489Y-40095D01*
X17723Y-40057D01*
Y-40060D01*
Y-40063D01*
X17726Y-40080D01*
X17735Y-40107D01*
X17744Y-40139D01*
X17758Y-40174D01*
X17776Y-40209D01*
X17802Y-40244D01*
X17832Y-40277D01*
X17835Y-40280D01*
X17849Y-40288D01*
X17870Y-40300D01*
X17896Y-40312D01*
X17934Y-40326D01*
X17975Y-40338D01*
X18028Y-40347D01*
X18084Y-40350D01*
X18110D01*
X18139Y-40347D01*
X18174Y-40341D01*
X18215Y-40335D01*
X18256Y-40324D01*
X18294Y-40306D01*
X18327Y-40285D01*
X18330Y-40283D01*
X18338Y-40274D01*
X18353Y-40259D01*
X18368Y-40242D01*
X18379Y-40218D01*
X18394Y-40189D01*
X18403Y-40160D01*
X18406Y-40127D01*
Y-40124D01*
Y-40113D01*
X18403Y-40101D01*
X18397Y-40080D01*
X18388Y-40063D01*
X18376Y-40039D01*
X18359Y-40019D01*
X18335Y-40001D01*
X18332Y-39998D01*
X18324Y-39996D01*
X18309Y-39990D01*
X18286Y-39978D01*
X18253Y-39969D01*
X18212Y-39955D01*
X18186Y-39946D01*
X18160Y-39940D01*
X18127Y-39931D01*
X18092Y-39922D01*
X18089D01*
X18081Y-39919D01*
X18069Y-39916D01*
X18051Y-39911D01*
X18028Y-39905D01*
X18004Y-39899D01*
X17949Y-39881D01*
X17890Y-39864D01*
X17829Y-39846D01*
X17773Y-39826D01*
X17750Y-39817D01*
X17729Y-39808D01*
X17726Y-39805D01*
X17712Y-39799D01*
X17694Y-39788D01*
X17674Y-39773D01*
X17647Y-39755D01*
X17624Y-39732D01*
X17597Y-39706D01*
X17577Y-39676D01*
X17574Y-39673D01*
X17568Y-39662D01*
X17562Y-39644D01*
X17553Y-39621D01*
X17542Y-39594D01*
X17536Y-39562D01*
X17530Y-39527D01*
X17527Y-39489D01*
Y-39486D01*
Y-39474D01*
X17530Y-39454D01*
X17533Y-39433D01*
X17536Y-39407D01*
X17545Y-39378D01*
X17553Y-39345D01*
X17568Y-39316D01*
X17571Y-39313D01*
X17577Y-39301D01*
X17586Y-39287D01*
X17600Y-39269D01*
X17615Y-39249D01*
X17635Y-39228D01*
X17659Y-39205D01*
X17685Y-39184D01*
X17688Y-39181D01*
X17697Y-39178D01*
X17709Y-39170D01*
X17726Y-39161D01*
X17747Y-39149D01*
X17773Y-39137D01*
X17802Y-39126D01*
X17835Y-39114D01*
X17840D01*
X17852Y-39108D01*
X17870Y-39105D01*
X17896Y-39099D01*
X17928Y-39094D01*
X17961Y-39091D01*
X17999Y-39085D01*
X18066D01*
X18098Y-39088D01*
D02*
G37*
G36*
X16739D02*
X16780Y-39091D01*
X16827Y-39096D01*
X16877Y-39102D01*
X16924Y-39114D01*
X16968Y-39129D01*
X16974Y-39132D01*
X16985Y-39135D01*
X17006Y-39146D01*
X17029Y-39158D01*
X17056Y-39173D01*
X17085Y-39190D01*
X17108Y-39211D01*
X17132Y-39234D01*
X17135Y-39237D01*
X17141Y-39246D01*
X17149Y-39258D01*
X17161Y-39278D01*
X17173Y-39301D01*
X17184Y-39328D01*
X17196Y-39360D01*
X17205Y-39395D01*
Y-39398D01*
X17208Y-39407D01*
X17211Y-39422D01*
X17214Y-39445D01*
Y-39474D01*
X17217Y-39512D01*
X17220Y-39556D01*
Y-39612D01*
Y-39928D01*
Y-39931D01*
Y-39943D01*
Y-39960D01*
Y-39981D01*
Y-40007D01*
Y-40037D01*
X17223Y-40104D01*
Y-40177D01*
X17225Y-40244D01*
X17228Y-40277D01*
Y-40303D01*
X17231Y-40326D01*
X17234Y-40347D01*
Y-40350D01*
X17237Y-40362D01*
X17240Y-40379D01*
X17246Y-40400D01*
X17255Y-40423D01*
X17266Y-40452D01*
X17293Y-40511D01*
X17047D01*
X17044Y-40508D01*
X17041Y-40499D01*
X17035Y-40482D01*
X17026Y-40461D01*
X17018Y-40435D01*
X17012Y-40406D01*
X17006Y-40373D01*
X17000Y-40335D01*
X16994Y-40341D01*
X16977Y-40353D01*
X16953Y-40373D01*
X16918Y-40397D01*
X16880Y-40426D01*
X16836Y-40452D01*
X16792Y-40476D01*
X16745Y-40496D01*
X16739Y-40499D01*
X16725Y-40502D01*
X16701Y-40511D01*
X16669Y-40520D01*
X16628Y-40529D01*
X16584Y-40534D01*
X16537Y-40540D01*
X16485Y-40543D01*
X16464D01*
X16446Y-40540D01*
X16429D01*
X16405Y-40537D01*
X16356Y-40529D01*
X16297Y-40517D01*
X16241Y-40496D01*
X16183Y-40470D01*
X16133Y-40432D01*
X16127Y-40426D01*
X16113Y-40411D01*
X16095Y-40388D01*
X16072Y-40353D01*
X16048Y-40312D01*
X16031Y-40265D01*
X16016Y-40206D01*
X16010Y-40145D01*
Y-40139D01*
Y-40127D01*
X16013Y-40107D01*
X16016Y-40083D01*
X16022Y-40054D01*
X16028Y-40022D01*
X16039Y-39990D01*
X16054Y-39957D01*
X16057Y-39955D01*
X16063Y-39943D01*
X16072Y-39928D01*
X16086Y-39908D01*
X16104Y-39887D01*
X16127Y-39864D01*
X16151Y-39843D01*
X16177Y-39823D01*
X16180Y-39820D01*
X16192Y-39814D01*
X16206Y-39805D01*
X16227Y-39793D01*
X16253Y-39779D01*
X16280Y-39767D01*
X16312Y-39755D01*
X16347Y-39744D01*
X16350D01*
X16362Y-39741D01*
X16376Y-39738D01*
X16400Y-39732D01*
X16429Y-39726D01*
X16467Y-39720D01*
X16508Y-39714D01*
X16558Y-39709D01*
X16561D01*
X16569Y-39706D01*
X16584D01*
X16605Y-39703D01*
X16628Y-39700D01*
X16654Y-39697D01*
X16719Y-39685D01*
X16786Y-39673D01*
X16856Y-39662D01*
X16924Y-39644D01*
X16953Y-39635D01*
X16979Y-39627D01*
Y-39624D01*
Y-39618D01*
X16982Y-39600D01*
Y-39580D01*
Y-39571D01*
Y-39565D01*
Y-39562D01*
Y-39559D01*
Y-39542D01*
X16979Y-39515D01*
X16974Y-39486D01*
X16965Y-39454D01*
X16953Y-39419D01*
X16938Y-39389D01*
X16915Y-39363D01*
X16912Y-39360D01*
X16897Y-39351D01*
X16877Y-39337D01*
X16848Y-39322D01*
X16810Y-39307D01*
X16763Y-39293D01*
X16707Y-39284D01*
X16646Y-39281D01*
X16619D01*
X16590Y-39284D01*
X16552Y-39287D01*
X16511Y-39296D01*
X16473Y-39304D01*
X16432Y-39319D01*
X16400Y-39340D01*
X16397Y-39342D01*
X16388Y-39351D01*
X16373Y-39366D01*
X16356Y-39386D01*
X16335Y-39416D01*
X16318Y-39451D01*
X16297Y-39495D01*
X16282Y-39545D01*
X16051Y-39512D01*
Y-39509D01*
X16054Y-39506D01*
X16057Y-39489D01*
X16066Y-39463D01*
X16075Y-39427D01*
X16089Y-39389D01*
X16107Y-39351D01*
X16127Y-39310D01*
X16154Y-39275D01*
X16157Y-39272D01*
X16168Y-39260D01*
X16183Y-39243D01*
X16206Y-39222D01*
X16236Y-39202D01*
X16274Y-39178D01*
X16315Y-39155D01*
X16362Y-39135D01*
X16364D01*
X16367Y-39132D01*
X16376Y-39129D01*
X16385Y-39126D01*
X16414Y-39120D01*
X16452Y-39108D01*
X16499Y-39099D01*
X16552Y-39094D01*
X16613Y-39088D01*
X16678Y-39085D01*
X16707D01*
X16739Y-39088D01*
D02*
G37*
G36*
X15161Y-38590D02*
X15208Y-38593D01*
X15257Y-38596D01*
X15304Y-38602D01*
X15345Y-38607D01*
X15351D01*
X15369Y-38613D01*
X15395Y-38619D01*
X15427Y-38628D01*
X15465Y-38640D01*
X15503Y-38654D01*
X15544Y-38675D01*
X15583Y-38698D01*
X15585Y-38701D01*
X15600Y-38710D01*
X15618Y-38725D01*
X15638Y-38745D01*
X15662Y-38771D01*
X15688Y-38804D01*
X15714Y-38839D01*
X15738Y-38883D01*
X15741Y-38889D01*
X15747Y-38903D01*
X15755Y-38927D01*
X15767Y-38959D01*
X15779Y-38997D01*
X15788Y-39041D01*
X15793Y-39091D01*
X15796Y-39143D01*
Y-39146D01*
Y-39155D01*
Y-39167D01*
X15793Y-39184D01*
X15790Y-39205D01*
X15788Y-39231D01*
X15785Y-39258D01*
X15776Y-39287D01*
X15758Y-39354D01*
X15729Y-39422D01*
X15711Y-39457D01*
X15691Y-39492D01*
X15667Y-39527D01*
X15638Y-39559D01*
X15635Y-39562D01*
X15629Y-39565D01*
X15621Y-39574D01*
X15609Y-39586D01*
X15588Y-39597D01*
X15568Y-39612D01*
X15542Y-39627D01*
X15509Y-39641D01*
X15474Y-39659D01*
X15433Y-39673D01*
X15386Y-39688D01*
X15337Y-39700D01*
X15278Y-39711D01*
X15216Y-39720D01*
X15149Y-39723D01*
X15076Y-39726D01*
X14584D01*
Y-40511D01*
X14329D01*
Y-38587D01*
X15117D01*
X15161Y-38590D01*
D02*
G37*
G36*
X10331Y-38812D02*
X9699D01*
Y-40511D01*
X9444D01*
Y-38812D01*
X8812D01*
Y-38587D01*
X10331D01*
Y-38812D01*
D02*
G37*
G36*
X19205Y-39117D02*
X19442D01*
Y-39301D01*
X19205D01*
Y-40119D01*
Y-40121D01*
Y-40133D01*
Y-40151D01*
X19208Y-40171D01*
X19211Y-40215D01*
X19214Y-40233D01*
X19217Y-40247D01*
X19220Y-40253D01*
X19226Y-40265D01*
X19237Y-40280D01*
X19255Y-40294D01*
X19261Y-40297D01*
X19275Y-40300D01*
X19302Y-40306D01*
X19337Y-40309D01*
X19366D01*
X19381Y-40306D01*
X19399D01*
X19442Y-40300D01*
X19475Y-40508D01*
X19469D01*
X19457Y-40511D01*
X19440Y-40514D01*
X19413Y-40517D01*
X19387Y-40523D01*
X19358Y-40526D01*
X19296Y-40529D01*
X19275D01*
X19252Y-40526D01*
X19223Y-40523D01*
X19191Y-40520D01*
X19155Y-40511D01*
X19123Y-40502D01*
X19094Y-40490D01*
X19091Y-40488D01*
X19082Y-40482D01*
X19070Y-40473D01*
X19056Y-40461D01*
X19038Y-40447D01*
X19024Y-40429D01*
X19006Y-40408D01*
X18994Y-40385D01*
Y-40382D01*
X18991Y-40370D01*
X18986Y-40353D01*
X18983Y-40324D01*
X18977Y-40285D01*
X18974Y-40265D01*
X18971Y-40239D01*
Y-40209D01*
X18968Y-40177D01*
Y-40142D01*
Y-40104D01*
Y-39301D01*
X18792D01*
Y-39117D01*
X18968D01*
Y-38774D01*
X19205Y-38631D01*
Y-39117D01*
D02*
G37*
G36*
X20292Y-39088D02*
X20315Y-39091D01*
X20344Y-39094D01*
X20374Y-39099D01*
X20409Y-39108D01*
X20479Y-39132D01*
X20517Y-39146D01*
X20555Y-39167D01*
X20593Y-39187D01*
X20631Y-39214D01*
X20667Y-39243D01*
X20702Y-39278D01*
X20705Y-39281D01*
X20711Y-39287D01*
X20719Y-39299D01*
X20731Y-39313D01*
X20743Y-39334D01*
X20757Y-39357D01*
X20775Y-39383D01*
X20793Y-39416D01*
X20807Y-39454D01*
X20825Y-39492D01*
X20839Y-39536D01*
X20854Y-39586D01*
X20863Y-39635D01*
X20872Y-39691D01*
X20877Y-39750D01*
X20880Y-39814D01*
Y-39817D01*
Y-39829D01*
Y-39849D01*
X20877Y-39875D01*
X19841D01*
Y-39878D01*
Y-39884D01*
X19844Y-39899D01*
Y-39914D01*
X19847Y-39934D01*
X19850Y-39955D01*
X19861Y-40007D01*
X19879Y-40063D01*
X19899Y-40121D01*
X19932Y-40180D01*
X19970Y-40230D01*
X19975Y-40236D01*
X19990Y-40247D01*
X20016Y-40268D01*
X20049Y-40288D01*
X20093Y-40312D01*
X20142Y-40332D01*
X20198Y-40344D01*
X20260Y-40350D01*
X20283D01*
X20306Y-40347D01*
X20336Y-40341D01*
X20371Y-40332D01*
X20409Y-40321D01*
X20447Y-40306D01*
X20482Y-40283D01*
X20485Y-40280D01*
X20497Y-40268D01*
X20514Y-40253D01*
X20535Y-40227D01*
X20558Y-40198D01*
X20582Y-40160D01*
X20605Y-40113D01*
X20629Y-40060D01*
X20872Y-40092D01*
Y-40095D01*
X20869Y-40101D01*
X20866Y-40113D01*
X20860Y-40127D01*
X20854Y-40145D01*
X20845Y-40165D01*
X20822Y-40215D01*
X20793Y-40268D01*
X20757Y-40324D01*
X20711Y-40379D01*
X20658Y-40426D01*
X20655D01*
X20652Y-40432D01*
X20643Y-40438D01*
X20629Y-40444D01*
X20614Y-40452D01*
X20596Y-40464D01*
X20576Y-40473D01*
X20549Y-40485D01*
X20494Y-40505D01*
X20424Y-40526D01*
X20347Y-40537D01*
X20260Y-40543D01*
X20230D01*
X20210Y-40540D01*
X20183Y-40537D01*
X20154Y-40534D01*
X20122Y-40529D01*
X20084Y-40520D01*
X20008Y-40496D01*
X19967Y-40482D01*
X19929Y-40464D01*
X19888Y-40444D01*
X19850Y-40417D01*
X19811Y-40388D01*
X19776Y-40356D01*
X19773Y-40353D01*
X19768Y-40347D01*
X19759Y-40335D01*
X19750Y-40321D01*
X19735Y-40303D01*
X19721Y-40280D01*
X19703Y-40250D01*
X19688Y-40218D01*
X19671Y-40183D01*
X19653Y-40145D01*
X19639Y-40101D01*
X19627Y-40054D01*
X19615Y-40004D01*
X19606Y-39949D01*
X19601Y-39890D01*
X19598Y-39829D01*
Y-39826D01*
Y-39814D01*
Y-39793D01*
X19601Y-39770D01*
X19604Y-39741D01*
X19606Y-39706D01*
X19612Y-39668D01*
X19621Y-39627D01*
X19642Y-39539D01*
X19656Y-39495D01*
X19674Y-39448D01*
X19694Y-39404D01*
X19718Y-39360D01*
X19744Y-39319D01*
X19776Y-39281D01*
X19779Y-39278D01*
X19785Y-39272D01*
X19794Y-39263D01*
X19809Y-39249D01*
X19826Y-39234D01*
X19850Y-39219D01*
X19873Y-39202D01*
X19902Y-39181D01*
X19934Y-39164D01*
X19970Y-39146D01*
X20008Y-39132D01*
X20052Y-39114D01*
X20096Y-39102D01*
X20142Y-39094D01*
X20192Y-39088D01*
X20245Y-39085D01*
X20271D01*
X20292Y-39088D01*
D02*
G37*
G36*
X11175D02*
X11201Y-39091D01*
X11228Y-39094D01*
X11260Y-39099D01*
X11295Y-39108D01*
X11368Y-39132D01*
X11406Y-39146D01*
X11447Y-39164D01*
X11485Y-39187D01*
X11523Y-39214D01*
X11562Y-39243D01*
X11597Y-39275D01*
X11600Y-39278D01*
X11605Y-39284D01*
X11614Y-39296D01*
X11626Y-39310D01*
X11641Y-39328D01*
X11655Y-39351D01*
X11673Y-39381D01*
X11690Y-39410D01*
X11705Y-39445D01*
X11723Y-39486D01*
X11737Y-39527D01*
X11752Y-39574D01*
X11764Y-39624D01*
X11772Y-39679D01*
X11778Y-39735D01*
X11781Y-39796D01*
Y-39799D01*
Y-39808D01*
Y-39823D01*
Y-39840D01*
X11778Y-39864D01*
Y-39890D01*
X11775Y-39919D01*
X11772Y-39952D01*
X11761Y-40019D01*
X11746Y-40089D01*
X11726Y-40160D01*
X11699Y-40221D01*
Y-40224D01*
X11696Y-40227D01*
X11685Y-40247D01*
X11664Y-40274D01*
X11638Y-40309D01*
X11605Y-40347D01*
X11564Y-40385D01*
X11518Y-40423D01*
X11462Y-40458D01*
X11459D01*
X11456Y-40461D01*
X11447Y-40467D01*
X11436Y-40470D01*
X11403Y-40485D01*
X11362Y-40499D01*
X11313Y-40517D01*
X11257Y-40529D01*
X11195Y-40540D01*
X11128Y-40543D01*
X11099D01*
X11078Y-40540D01*
X11055Y-40537D01*
X11026Y-40534D01*
X10993Y-40529D01*
X10958Y-40520D01*
X10885Y-40496D01*
X10844Y-40482D01*
X10806Y-40464D01*
X10765Y-40444D01*
X10727Y-40417D01*
X10689Y-40388D01*
X10654Y-40356D01*
X10651Y-40353D01*
X10645Y-40347D01*
X10636Y-40335D01*
X10627Y-40321D01*
X10613Y-40300D01*
X10598Y-40277D01*
X10580Y-40250D01*
X10566Y-40218D01*
X10548Y-40180D01*
X10531Y-40142D01*
X10516Y-40095D01*
X10504Y-40048D01*
X10493Y-39996D01*
X10484Y-39940D01*
X10478Y-39878D01*
X10475Y-39814D01*
Y-39808D01*
Y-39796D01*
X10478Y-39776D01*
Y-39750D01*
X10481Y-39717D01*
X10487Y-39682D01*
X10493Y-39641D01*
X10501Y-39597D01*
X10513Y-39550D01*
X10528Y-39504D01*
X10545Y-39457D01*
X10566Y-39410D01*
X10589Y-39363D01*
X10618Y-39319D01*
X10651Y-39278D01*
X10689Y-39240D01*
X10692Y-39237D01*
X10698Y-39234D01*
X10706Y-39225D01*
X10721Y-39217D01*
X10739Y-39205D01*
X10759Y-39190D01*
X10783Y-39176D01*
X10812Y-39161D01*
X10841Y-39149D01*
X10873Y-39135D01*
X10949Y-39108D01*
X11034Y-39091D01*
X11081Y-39088D01*
X11128Y-39085D01*
X11154D01*
X11175Y-39088D01*
D02*
G37*
G36*
X52167Y-38558D02*
X52190D01*
X52240Y-38563D01*
X52296Y-38572D01*
X52360Y-38584D01*
X52425Y-38602D01*
X52489Y-38625D01*
X52492D01*
X52498Y-38628D01*
X52507Y-38631D01*
X52518Y-38637D01*
X52548Y-38651D01*
X52586Y-38675D01*
X52630Y-38701D01*
X52674Y-38733D01*
X52717Y-38768D01*
X52756Y-38812D01*
X52758Y-38818D01*
X52770Y-38833D01*
X52788Y-38859D01*
X52811Y-38897D01*
X52835Y-38941D01*
X52858Y-38994D01*
X52881Y-39055D01*
X52902Y-39126D01*
X52671Y-39190D01*
Y-39187D01*
X52668Y-39184D01*
X52665Y-39167D01*
X52653Y-39140D01*
X52641Y-39105D01*
X52627Y-39070D01*
X52609Y-39032D01*
X52589Y-38994D01*
X52565Y-38959D01*
X52562Y-38956D01*
X52553Y-38944D01*
X52539Y-38930D01*
X52518Y-38909D01*
X52492Y-38889D01*
X52460Y-38865D01*
X52425Y-38845D01*
X52381Y-38824D01*
X52375Y-38821D01*
X52360Y-38815D01*
X52334Y-38807D01*
X52302Y-38798D01*
X52263Y-38789D01*
X52220Y-38780D01*
X52170Y-38774D01*
X52117Y-38771D01*
X52088D01*
X52056Y-38774D01*
X52015Y-38777D01*
X51968Y-38786D01*
X51915Y-38795D01*
X51865Y-38809D01*
X51815Y-38827D01*
X51810Y-38830D01*
X51795Y-38836D01*
X51771Y-38848D01*
X51742Y-38865D01*
X51710Y-38886D01*
X51675Y-38909D01*
X51643Y-38935D01*
X51610Y-38968D01*
X51607Y-38971D01*
X51599Y-38982D01*
X51584Y-39000D01*
X51566Y-39023D01*
X51546Y-39053D01*
X51525Y-39085D01*
X51508Y-39120D01*
X51490Y-39158D01*
Y-39161D01*
X51487Y-39167D01*
X51484Y-39176D01*
X51479Y-39190D01*
X51473Y-39205D01*
X51467Y-39225D01*
X51455Y-39272D01*
X51441Y-39331D01*
X51429Y-39395D01*
X51420Y-39468D01*
X51417Y-39545D01*
Y-39547D01*
Y-39556D01*
Y-39568D01*
X51420Y-39588D01*
Y-39609D01*
X51423Y-39635D01*
X51426Y-39665D01*
X51429Y-39694D01*
X51438Y-39764D01*
X51455Y-39837D01*
X51476Y-39908D01*
X51505Y-39978D01*
Y-39981D01*
X51508Y-39987D01*
X51514Y-39996D01*
X51523Y-40007D01*
X51543Y-40037D01*
X51569Y-40075D01*
X51605Y-40116D01*
X51648Y-40160D01*
X51701Y-40201D01*
X51760Y-40236D01*
X51763D01*
X51769Y-40239D01*
X51777Y-40244D01*
X51789Y-40247D01*
X51804Y-40253D01*
X51824Y-40262D01*
X51868Y-40277D01*
X51924Y-40291D01*
X51982Y-40306D01*
X52050Y-40315D01*
X52120Y-40318D01*
X52149D01*
X52181Y-40315D01*
X52222Y-40309D01*
X52269Y-40303D01*
X52325Y-40291D01*
X52384Y-40277D01*
X52442Y-40256D01*
X52445D01*
X52448Y-40253D01*
X52457Y-40250D01*
X52468Y-40244D01*
X52498Y-40233D01*
X52533Y-40215D01*
X52571Y-40195D01*
X52609Y-40171D01*
X52647Y-40145D01*
X52682Y-40119D01*
Y-39755D01*
X52117D01*
Y-39530D01*
X52931D01*
Y-40244D01*
X52928Y-40247D01*
X52922Y-40250D01*
X52914Y-40259D01*
X52899Y-40268D01*
X52881Y-40283D01*
X52861Y-40294D01*
X52811Y-40329D01*
X52753Y-40365D01*
X52688Y-40403D01*
X52615Y-40438D01*
X52542Y-40470D01*
X52539D01*
X52533Y-40473D01*
X52521Y-40476D01*
X52507Y-40482D01*
X52489Y-40488D01*
X52468Y-40493D01*
X52442Y-40499D01*
X52416Y-40505D01*
X52354Y-40520D01*
X52287Y-40531D01*
X52211Y-40540D01*
X52135Y-40543D01*
X52108D01*
X52088Y-40540D01*
X52061D01*
X52032Y-40537D01*
X52000Y-40534D01*
X51965Y-40529D01*
X51883Y-40514D01*
X51798Y-40493D01*
X51707Y-40464D01*
X51619Y-40423D01*
X51616Y-40420D01*
X51610Y-40417D01*
X51596Y-40411D01*
X51581Y-40400D01*
X51561Y-40388D01*
X51540Y-40373D01*
X51490Y-40335D01*
X51432Y-40285D01*
X51376Y-40224D01*
X51320Y-40154D01*
X51271Y-40075D01*
Y-40072D01*
X51265Y-40063D01*
X51259Y-40051D01*
X51253Y-40034D01*
X51244Y-40013D01*
X51233Y-39987D01*
X51224Y-39957D01*
X51212Y-39922D01*
X51200Y-39887D01*
X51192Y-39846D01*
X51171Y-39758D01*
X51159Y-39662D01*
X51154Y-39559D01*
Y-39556D01*
Y-39547D01*
Y-39533D01*
X51156Y-39512D01*
Y-39486D01*
X51159Y-39457D01*
X51162Y-39424D01*
X51168Y-39389D01*
X51183Y-39307D01*
X51203Y-39219D01*
X51233Y-39126D01*
X51271Y-39035D01*
Y-39032D01*
X51277Y-39023D01*
X51282Y-39012D01*
X51291Y-38994D01*
X51306Y-38973D01*
X51320Y-38953D01*
X51356Y-38897D01*
X51405Y-38839D01*
X51461Y-38780D01*
X51531Y-38725D01*
X51566Y-38698D01*
X51607Y-38675D01*
X51610D01*
X51616Y-38669D01*
X51631Y-38663D01*
X51646Y-38657D01*
X51666Y-38645D01*
X51692Y-38637D01*
X51722Y-38625D01*
X51754Y-38613D01*
X51789Y-38604D01*
X51827Y-38593D01*
X51915Y-38572D01*
X52009Y-38561D01*
X52114Y-38555D01*
X52149D01*
X52167Y-38558D01*
D02*
G37*
G36*
X55778Y-38590D02*
X55825Y-38593D01*
X55874Y-38596D01*
X55921Y-38602D01*
X55962Y-38607D01*
X55968D01*
X55986Y-38613D01*
X56012Y-38619D01*
X56044Y-38628D01*
X56082Y-38640D01*
X56120Y-38654D01*
X56161Y-38675D01*
X56200Y-38698D01*
X56202Y-38701D01*
X56217Y-38710D01*
X56235Y-38725D01*
X56255Y-38745D01*
X56279Y-38771D01*
X56305Y-38804D01*
X56331Y-38839D01*
X56355Y-38883D01*
X56358Y-38889D01*
X56364Y-38903D01*
X56372Y-38927D01*
X56384Y-38959D01*
X56396Y-38997D01*
X56405Y-39041D01*
X56410Y-39091D01*
X56413Y-39143D01*
Y-39146D01*
Y-39155D01*
Y-39167D01*
X56410Y-39184D01*
X56407Y-39205D01*
X56405Y-39231D01*
X56402Y-39258D01*
X56393Y-39287D01*
X56375Y-39354D01*
X56346Y-39422D01*
X56328Y-39457D01*
X56308Y-39492D01*
X56284Y-39527D01*
X56255Y-39559D01*
X56252Y-39562D01*
X56246Y-39565D01*
X56238Y-39574D01*
X56226Y-39586D01*
X56205Y-39597D01*
X56185Y-39612D01*
X56159Y-39627D01*
X56126Y-39641D01*
X56091Y-39659D01*
X56050Y-39673D01*
X56003Y-39688D01*
X55954Y-39700D01*
X55895Y-39711D01*
X55833Y-39720D01*
X55766Y-39723D01*
X55693Y-39726D01*
X55201D01*
Y-40511D01*
X54946D01*
Y-38587D01*
X55734D01*
X55778Y-38590D01*
D02*
G37*
G36*
X54683Y-38812D02*
X54050D01*
Y-40511D01*
X53795D01*
Y-38812D01*
X53163D01*
Y-38587D01*
X54683D01*
Y-38812D01*
D02*
G37*
G36*
X50776Y-40511D02*
X50506D01*
Y-40242D01*
X50776D01*
Y-40511D01*
D02*
G37*
%LPC*%
G36*
X12680Y-39269D02*
X12639D01*
X12628Y-39272D01*
X12601Y-39278D01*
X12563Y-39287D01*
X12522Y-39304D01*
X12478Y-39331D01*
X12455Y-39345D01*
X12431Y-39366D01*
X12408Y-39386D01*
X12387Y-39413D01*
Y-39416D01*
X12382Y-39419D01*
X12376Y-39427D01*
X12370Y-39439D01*
X12361Y-39454D01*
X12352Y-39471D01*
X12341Y-39492D01*
X12332Y-39515D01*
X12320Y-39545D01*
X12308Y-39574D01*
X12300Y-39609D01*
X12291Y-39644D01*
X12285Y-39685D01*
X12279Y-39729D01*
X12273Y-39773D01*
Y-39823D01*
Y-39826D01*
Y-39834D01*
Y-39849D01*
X12276Y-39867D01*
Y-39890D01*
X12279Y-39914D01*
X12288Y-39972D01*
X12300Y-40039D01*
X12317Y-40104D01*
X12343Y-40165D01*
X12361Y-40195D01*
X12379Y-40221D01*
X12384Y-40227D01*
X12399Y-40242D01*
X12423Y-40262D01*
X12452Y-40285D01*
X12490Y-40309D01*
X12537Y-40329D01*
X12587Y-40344D01*
X12613Y-40347D01*
X12642Y-40350D01*
X12657D01*
X12669Y-40347D01*
X12698Y-40344D01*
X12733Y-40332D01*
X12777Y-40318D01*
X12821Y-40294D01*
X12865Y-40262D01*
X12888Y-40242D01*
X12909Y-40218D01*
Y-40215D01*
X12915Y-40212D01*
X12920Y-40203D01*
X12926Y-40192D01*
X12935Y-40177D01*
X12944Y-40160D01*
X12956Y-40139D01*
X12967Y-40116D01*
X12976Y-40089D01*
X12988Y-40057D01*
X12997Y-40025D01*
X13005Y-39987D01*
X13011Y-39946D01*
X13017Y-39902D01*
X13023Y-39855D01*
Y-39805D01*
Y-39802D01*
Y-39793D01*
Y-39779D01*
X13020Y-39761D01*
Y-39738D01*
X13017Y-39711D01*
X13008Y-39653D01*
X12997Y-39588D01*
X12976Y-39521D01*
X12950Y-39460D01*
X12932Y-39430D01*
X12912Y-39404D01*
Y-39401D01*
X12906Y-39398D01*
X12891Y-39383D01*
X12871Y-39360D01*
X12838Y-39337D01*
X12800Y-39313D01*
X12756Y-39290D01*
X12707Y-39275D01*
X12680Y-39269D01*
D02*
G37*
G36*
X16979Y-39811D02*
X16974Y-39814D01*
X16965Y-39817D01*
X16956Y-39820D01*
X16941Y-39826D01*
X16924Y-39829D01*
X16906Y-39834D01*
X16883Y-39843D01*
X16856Y-39849D01*
X16827Y-39855D01*
X16798Y-39864D01*
X16763Y-39873D01*
X16725Y-39878D01*
X16684Y-39887D01*
X16640Y-39893D01*
X16593Y-39902D01*
X16587D01*
X16569Y-39905D01*
X16543Y-39911D01*
X16511Y-39916D01*
X16444Y-39931D01*
X16411Y-39940D01*
X16385Y-39949D01*
X16382D01*
X16376Y-39955D01*
X16364Y-39960D01*
X16353Y-39969D01*
X16323Y-39993D01*
X16294Y-40028D01*
Y-40031D01*
X16288Y-40037D01*
X16285Y-40045D01*
X16280Y-40060D01*
X16268Y-40095D01*
X16265Y-40116D01*
X16262Y-40139D01*
Y-40142D01*
Y-40154D01*
X16265Y-40171D01*
X16271Y-40195D01*
X16280Y-40218D01*
X16291Y-40244D01*
X16309Y-40271D01*
X16332Y-40297D01*
X16335Y-40300D01*
X16347Y-40306D01*
X16362Y-40318D01*
X16385Y-40326D01*
X16414Y-40338D01*
X16452Y-40350D01*
X16493Y-40356D01*
X16543Y-40359D01*
X16567D01*
X16590Y-40356D01*
X16625Y-40350D01*
X16660Y-40344D01*
X16701Y-40335D01*
X16742Y-40321D01*
X16783Y-40300D01*
X16789Y-40297D01*
X16801Y-40288D01*
X16821Y-40277D01*
X16845Y-40256D01*
X16868Y-40236D01*
X16895Y-40206D01*
X16921Y-40174D01*
X16941Y-40136D01*
X16944Y-40133D01*
X16947Y-40121D01*
X16953Y-40104D01*
X16962Y-40078D01*
X16968Y-40042D01*
X16974Y-40001D01*
X16977Y-39955D01*
X16979Y-39899D01*
Y-39811D01*
D02*
G37*
G36*
X15132Y-38812D02*
X14584D01*
Y-39501D01*
X15102D01*
X15120Y-39498D01*
X15140D01*
X15161Y-39495D01*
X15214Y-39489D01*
X15272Y-39477D01*
X15331Y-39463D01*
X15383Y-39439D01*
X15407Y-39424D01*
X15427Y-39410D01*
X15433Y-39407D01*
X15445Y-39392D01*
X15460Y-39372D01*
X15480Y-39342D01*
X15501Y-39307D01*
X15515Y-39263D01*
X15527Y-39211D01*
X15533Y-39152D01*
Y-39146D01*
Y-39132D01*
X15530Y-39108D01*
X15524Y-39079D01*
X15518Y-39047D01*
X15506Y-39012D01*
X15492Y-38976D01*
X15471Y-38944D01*
X15468Y-38941D01*
X15460Y-38930D01*
X15448Y-38915D01*
X15427Y-38897D01*
X15404Y-38880D01*
X15378Y-38859D01*
X15345Y-38845D01*
X15310Y-38830D01*
X15307D01*
X15298Y-38827D01*
X15281Y-38824D01*
X15257Y-38821D01*
X15225Y-38818D01*
X15184Y-38815D01*
X15132Y-38812D01*
D02*
G37*
G36*
X20248Y-39278D02*
X20233D01*
X20221Y-39281D01*
X20189Y-39284D01*
X20151Y-39293D01*
X20107Y-39304D01*
X20063Y-39325D01*
X20016Y-39351D01*
X19973Y-39389D01*
X19967Y-39395D01*
X19955Y-39410D01*
X19937Y-39433D01*
X19917Y-39468D01*
X19896Y-39509D01*
X19876Y-39559D01*
X19861Y-39618D01*
X19852Y-39682D01*
X20631D01*
Y-39679D01*
Y-39673D01*
X20629Y-39665D01*
Y-39653D01*
X20623Y-39621D01*
X20614Y-39583D01*
X20602Y-39542D01*
X20585Y-39498D01*
X20567Y-39454D01*
X20541Y-39419D01*
Y-39416D01*
X20535Y-39413D01*
X20520Y-39395D01*
X20494Y-39375D01*
X20462Y-39348D01*
X20418Y-39322D01*
X20368Y-39299D01*
X20312Y-39284D01*
X20280Y-39281D01*
X20248Y-39278D01*
D02*
G37*
G36*
X11160Y-39281D02*
X11111D01*
X11099Y-39284D01*
X11067Y-39287D01*
X11026Y-39299D01*
X10979Y-39313D01*
X10929Y-39337D01*
X10879Y-39372D01*
X10856Y-39392D01*
X10832Y-39416D01*
X10826Y-39422D01*
X10821Y-39430D01*
X10815Y-39439D01*
X10806Y-39454D01*
X10797Y-39471D01*
X10785Y-39492D01*
X10777Y-39515D01*
X10765Y-39542D01*
X10753Y-39571D01*
X10744Y-39603D01*
X10736Y-39641D01*
X10730Y-39679D01*
X10724Y-39723D01*
X10718Y-39767D01*
Y-39817D01*
Y-39820D01*
Y-39829D01*
Y-39843D01*
X10721Y-39861D01*
Y-39881D01*
X10724Y-39908D01*
X10733Y-39966D01*
X10747Y-40031D01*
X10765Y-40098D01*
X10794Y-40162D01*
X10812Y-40192D01*
X10832Y-40218D01*
X10838Y-40224D01*
X10853Y-40239D01*
X10879Y-40259D01*
X10914Y-40283D01*
X10955Y-40309D01*
X11008Y-40329D01*
X11064Y-40344D01*
X11096Y-40347D01*
X11128Y-40350D01*
X11146D01*
X11157Y-40347D01*
X11190Y-40344D01*
X11231Y-40332D01*
X11277Y-40318D01*
X11327Y-40294D01*
X11374Y-40262D01*
X11398Y-40242D01*
X11421Y-40218D01*
Y-40215D01*
X11427Y-40212D01*
X11433Y-40203D01*
X11439Y-40192D01*
X11447Y-40177D01*
X11459Y-40160D01*
X11468Y-40139D01*
X11480Y-40116D01*
X11491Y-40089D01*
X11500Y-40060D01*
X11512Y-40025D01*
X11521Y-39987D01*
X11526Y-39949D01*
X11532Y-39905D01*
X11538Y-39858D01*
Y-39808D01*
Y-39805D01*
Y-39796D01*
Y-39785D01*
X11535Y-39764D01*
Y-39744D01*
X11532Y-39720D01*
X11523Y-39662D01*
X11509Y-39600D01*
X11488Y-39533D01*
X11459Y-39471D01*
X11418Y-39416D01*
Y-39413D01*
X11412Y-39410D01*
X11398Y-39395D01*
X11371Y-39372D01*
X11339Y-39348D01*
X11295Y-39325D01*
X11245Y-39301D01*
X11190Y-39287D01*
X11160Y-39281D01*
D02*
G37*
G36*
X55749Y-38812D02*
X55201D01*
Y-39501D01*
X55719D01*
X55737Y-39498D01*
X55757D01*
X55778Y-39495D01*
X55831Y-39489D01*
X55889Y-39477D01*
X55948Y-39463D01*
X56000Y-39439D01*
X56024Y-39424D01*
X56044Y-39410D01*
X56050Y-39407D01*
X56062Y-39392D01*
X56077Y-39372D01*
X56097Y-39342D01*
X56118Y-39307D01*
X56132Y-39263D01*
X56144Y-39211D01*
X56150Y-39152D01*
Y-39146D01*
Y-39132D01*
X56147Y-39108D01*
X56141Y-39079D01*
X56135Y-39047D01*
X56123Y-39012D01*
X56109Y-38976D01*
X56088Y-38944D01*
X56085Y-38941D01*
X56077Y-38930D01*
X56065Y-38915D01*
X56044Y-38897D01*
X56021Y-38880D01*
X55995Y-38859D01*
X55962Y-38845D01*
X55927Y-38830D01*
X55924D01*
X55915Y-38827D01*
X55898Y-38824D01*
X55874Y-38821D01*
X55842Y-38818D01*
X55801Y-38815D01*
X55749Y-38812D01*
D02*
G37*
%LPD*%
D10*
X296Y-17511D02*
X64868D01*
X64868Y17489D02*
X64868Y-17511D01*
X296Y17489D02*
X64868D01*
X61632D02*
X61645Y17477D01*
X296Y17489D02*
X296Y-17511D01*
D11*
X50248Y20D02*
D03*
Y-380D02*
D03*
Y-780D02*
D03*
X49448Y20D02*
D03*
Y-780D02*
D03*
Y-380D02*
D03*
D12*
X61750Y3989D02*
D03*
Y-4511D02*
D03*
D13*
X63000Y-261D02*
D03*
D14*
X34405Y-907D02*
D03*
D15*
X34405Y76D02*
D03*
X40880Y-164D02*
D03*
X39720D02*
D03*
X58937Y-283D02*
D03*
X57777D02*
D03*
X36645Y-163D02*
D03*
X35485D02*
D03*
X46611Y-164D02*
D03*
X45451D02*
D03*
X36931Y-2040D02*
D03*
X35771D02*
D03*
X53586Y-283D02*
D03*
X52426D02*
D03*
X44287Y-164D02*
D03*
X43127D02*
D03*
X40880Y801D02*
D03*
X39720D02*
D03*
X36830Y-3200D02*
D03*
X35670D02*
D03*
D16*
X33422Y76D02*
D03*
D17*
X31762Y6528D02*
D03*
X32746D02*
D03*
D18*
X31762Y7511D02*
D03*
D19*
X23381Y-2700D02*
D03*
X22481Y-2700D02*
D03*
X49297Y1044D02*
D03*
X50198Y1044D02*
D03*
X51125Y-2576D02*
D03*
X50225Y-2576D02*
D03*
X33100Y-6407D02*
D03*
X34000Y-6407D02*
D03*
X26100Y650D02*
D03*
X25200Y650D02*
D03*
X26400Y-550D02*
D03*
X25500Y-550D02*
D03*
X23381Y-1500D02*
D03*
X22481Y-1500D02*
D03*
X51367Y-6551D02*
D03*
X50467Y-6551D02*
D03*
X51367Y-5152D02*
D03*
X50467Y-5152D02*
D03*
X32900Y4061D02*
D03*
X32000Y4061D02*
D03*
X38272Y-7578D02*
D03*
X37372Y-7578D02*
D03*
X33689Y8726D02*
D03*
X32789Y8726D02*
D03*
X51124Y-3826D02*
D03*
X50224Y-3826D02*
D03*
X49097Y2369D02*
D03*
X49998Y2369D02*
D03*
X50050Y5794D02*
D03*
X49150Y5794D02*
D03*
X51367Y-7952D02*
D03*
X50467Y-7952D02*
D03*
X50050Y7195D02*
D03*
X49150Y7195D02*
D03*
D20*
X39637Y-7609D02*
D03*
X41062D02*
D03*
X31884Y5327D02*
D03*
X33309D02*
D03*
D21*
X50056Y4494D02*
D03*
Y3594D02*
D03*
X29885Y3180D02*
D03*
X29885Y2280D02*
D03*
X52618Y-4178D02*
D03*
Y-5078D02*
D03*
X34204Y3172D02*
D03*
X34204Y2272D02*
D03*
X35581Y3172D02*
D03*
X35581Y2272D02*
D03*
X26104Y-5452D02*
D03*
X26104Y-4552D02*
D03*
X21550Y-2650D02*
D03*
X21550Y-3550D02*
D03*
X21550Y-650D02*
D03*
X21550Y-1550D02*
D03*
X28559Y3284D02*
D03*
X28559Y2384D02*
D03*
X28157Y6560D02*
D03*
X28157Y5660D02*
D03*
D22*
X26866Y8654D02*
D03*
Y7754D02*
D03*
D23*
X19900Y-1350D02*
D03*
X19900Y-2850D02*
D03*
D24*
X37660Y897D02*
D03*
Y-163D02*
D03*
D25*
X29463Y7494D02*
D03*
Y6544D02*
D03*
D26*
X33769Y-7557D02*
D03*
X33144Y-7557D02*
D03*
D27*
X29449Y9760D02*
D03*
X29449Y8560D02*
D03*
X27649Y9760D02*
D03*
X27649Y8560D02*
D03*
D28*
X39849Y-2042D02*
D03*
Y-3202D02*
D03*
X34586Y-2040D02*
D03*
Y-3200D02*
D03*
X56644Y-283D02*
D03*
Y-1443D02*
D03*
X60069Y-1443D02*
D03*
Y-283D02*
D03*
X47800Y-168D02*
D03*
Y-1327D02*
D03*
X41951Y-167D02*
D03*
Y-1327D02*
D03*
X38659Y-163D02*
D03*
Y-1323D02*
D03*
D29*
X30369Y9441D02*
D03*
Y8541D02*
D03*
X26751Y6849D02*
D03*
Y5949D02*
D03*
D30*
X32000Y-500D02*
D03*
Y0D02*
D03*
X31500Y-1000D02*
D03*
Y-500D02*
D03*
Y0D02*
D03*
X31000Y-1000D02*
D03*
X32000Y-1500D02*
D03*
X31500Y-2000D02*
D03*
X32000D02*
D03*
X31500Y-1500D02*
D03*
X31000D02*
D03*
Y-2000D02*
D03*
Y0D02*
D03*
X30500Y-500D02*
D03*
X31000D02*
D03*
X30000D02*
D03*
Y0D02*
D03*
Y-1000D02*
D03*
X30500Y-1500D02*
D03*
Y-1000D02*
D03*
Y-2000D02*
D03*
X30000Y-1500D02*
D03*
Y-2000D02*
D03*
X31500Y-2500D02*
D03*
Y-3000D02*
D03*
X32000Y-3500D02*
D03*
Y-3000D02*
D03*
Y-4000D02*
D03*
X31500Y-3500D02*
D03*
X31000D02*
D03*
X31500Y-4000D02*
D03*
X31000Y-2500D02*
D03*
X30500D02*
D03*
Y-3000D02*
D03*
X30000Y-2500D02*
D03*
Y-3000D02*
D03*
X31000D02*
D03*
X30500Y-3500D02*
D03*
Y-4000D02*
D03*
X30000Y-3500D02*
D03*
Y-4000D02*
D03*
X29500Y-500D02*
D03*
Y0D02*
D03*
X29000Y-1000D02*
D03*
X29500Y-1500D02*
D03*
Y-2000D02*
D03*
Y-1000D02*
D03*
X29000Y-1500D02*
D03*
Y-2000D02*
D03*
X28500Y-500D02*
D03*
Y0D02*
D03*
X29000Y-500D02*
D03*
X28000D02*
D03*
Y0D02*
D03*
Y-1000D02*
D03*
X28500Y-2000D02*
D03*
Y-1500D02*
D03*
Y-2500D02*
D03*
Y-1000D02*
D03*
X28000Y-2000D02*
D03*
X29500Y-2500D02*
D03*
X29000Y-3000D02*
D03*
X29500D02*
D03*
X29000Y-2500D02*
D03*
X29500Y-3500D02*
D03*
X29000D02*
D03*
Y-4000D02*
D03*
X28500Y-3000D02*
D03*
X28000Y-2500D02*
D03*
Y-3500D02*
D03*
X28500D02*
D03*
X28000Y-4000D02*
D03*
X28500D02*
D03*
D31*
X28766Y4419D02*
D03*
X28286D02*
D03*
X32578Y3095D02*
D03*
X32098D02*
D03*
D32*
X24604Y-4542D02*
D03*
Y-5967D02*
D03*
M02*
