G04*
G04 #@! TF.GenerationSoftware,Altium Limited,Altium Designer,22.1.2 (22)*
G04*
G04 Layer_Physical_Order=4*
G04 Layer_Color=16711680*
%FSLAX43Y43*%
%MOMM*%
G71*
G04*
G04 #@! TF.SameCoordinates,532FF45F-5525-43CF-9912-DA75C4080CC9*
G04*
G04*
G04 #@! TF.FilePolarity,Positive*
G04*
G01*
G75*
%ADD11C,0.200*%
%ADD12C,0.300*%
%ADD44C,0.150*%
%ADD57R,0.700X0.550*%
%ADD58R,0.550X0.700*%
%ADD63R,0.725X1.000*%
%ADD65R,1.000X0.725*%
%ADD66R,4.900X1.600*%
%ADD73C,0.600*%
%ADD75C,0.700*%
%ADD78C,0.250*%
%ADD79C,0.500*%
%ADD83C,1.800*%
G04:AMPARAMS|DCode=84|XSize=1.8mm|YSize=1.8mm|CornerRadius=0.45mm|HoleSize=0mm|Usage=FLASHONLY|Rotation=180.000|XOffset=0mm|YOffset=0mm|HoleType=Round|Shape=RoundedRectangle|*
%AMROUNDEDRECTD84*
21,1,1.800,0.900,0,0,180.0*
21,1,0.900,1.800,0,0,180.0*
1,1,0.900,-0.450,0.450*
1,1,0.900,0.450,0.450*
1,1,0.900,0.450,-0.450*
1,1,0.900,-0.450,-0.450*
%
%ADD84ROUNDEDRECTD84*%
G04:AMPARAMS|DCode=85|XSize=1.8mm|YSize=1.8mm|CornerRadius=0.45mm|HoleSize=0mm|Usage=FLASHONLY|Rotation=270.000|XOffset=0mm|YOffset=0mm|HoleType=Round|Shape=RoundedRectangle|*
%AMROUNDEDRECTD85*
21,1,1.800,0.900,0,0,270.0*
21,1,0.900,1.800,0,0,270.0*
1,1,0.900,-0.450,-0.450*
1,1,0.900,-0.450,0.450*
1,1,0.900,0.450,0.450*
1,1,0.900,0.450,-0.450*
%
%ADD85ROUNDEDRECTD85*%
%ADD87C,0.500*%
%ADD88C,0.650*%
%ADD94C,0.800*%
%ADD95R,0.960X1.400*%
%ADD96R,1.100X0.950*%
G36*
X64615Y5303D02*
X64600Y5189D01*
X64495Y5189D01*
X62100D01*
Y3989D01*
Y2789D01*
X64495D01*
X64600Y2789D01*
X64615Y2675D01*
Y-3197D01*
X64600Y-3311D01*
X64495Y-3311D01*
X62100D01*
Y-4511D01*
Y-5711D01*
X64495D01*
X64600Y-5711D01*
X64615Y-5825D01*
Y-17251D01*
X542D01*
Y17238D01*
X64615D01*
Y5303D01*
D02*
G37*
G36*
X37801Y-38593D02*
X37894Y-38604D01*
X37982Y-38625D01*
X38020Y-38636D01*
X38056Y-38645D01*
X38088Y-38657D01*
X38117Y-38669D01*
X38143Y-38677D01*
X38164Y-38689D01*
X38179Y-38695D01*
X38193Y-38701D01*
X38199Y-38707D01*
X38202D01*
X38243Y-38730D01*
X38278Y-38757D01*
X38348Y-38812D01*
X38404Y-38871D01*
X38454Y-38929D01*
X38489Y-38985D01*
X38504Y-39005D01*
X38518Y-39026D01*
X38527Y-39044D01*
X38533Y-39055D01*
X38539Y-39064D01*
Y-39067D01*
X38577Y-39158D01*
X38606Y-39251D01*
X38627Y-39339D01*
X38641Y-39421D01*
X38647Y-39456D01*
X38650Y-39489D01*
X38653Y-39518D01*
Y-39544D01*
X38656Y-39565D01*
Y-39579D01*
Y-39588D01*
Y-39591D01*
X38650Y-39694D01*
X38638Y-39790D01*
X38618Y-39878D01*
X38609Y-39919D01*
X38597Y-39954D01*
X38586Y-39989D01*
X38577Y-40019D01*
X38565Y-40045D01*
X38556Y-40066D01*
X38550Y-40083D01*
X38545Y-40095D01*
X38539Y-40104D01*
Y-40107D01*
X38489Y-40186D01*
X38433Y-40256D01*
X38378Y-40317D01*
X38319Y-40367D01*
X38269Y-40405D01*
X38249Y-40420D01*
X38228Y-40432D01*
X38214Y-40443D01*
X38199Y-40449D01*
X38193Y-40452D01*
X38190Y-40455D01*
X38102Y-40496D01*
X38012Y-40525D01*
X37927Y-40546D01*
X37845Y-40561D01*
X37810Y-40566D01*
X37777Y-40569D01*
X37748Y-40572D01*
X37722D01*
X37701Y-40575D01*
X37675D01*
X37599Y-40572D01*
X37522Y-40563D01*
X37455Y-40552D01*
X37394Y-40537D01*
X37367Y-40531D01*
X37341Y-40525D01*
X37320Y-40520D01*
X37303Y-40514D01*
X37288Y-40508D01*
X37276Y-40505D01*
X37271Y-40502D01*
X37268D01*
X37194Y-40470D01*
X37121Y-40435D01*
X37057Y-40397D01*
X36998Y-40361D01*
X36948Y-40326D01*
X36928Y-40315D01*
X36910Y-40300D01*
X36896Y-40291D01*
X36887Y-40282D01*
X36881Y-40279D01*
X36878Y-40276D01*
Y-39562D01*
X37692D01*
Y-39787D01*
X37127D01*
Y-40151D01*
X37162Y-40177D01*
X37200Y-40203D01*
X37238Y-40227D01*
X37276Y-40247D01*
X37312Y-40265D01*
X37341Y-40276D01*
X37353Y-40282D01*
X37361Y-40285D01*
X37364Y-40288D01*
X37367D01*
X37426Y-40309D01*
X37484Y-40323D01*
X37540Y-40335D01*
X37587Y-40341D01*
X37628Y-40347D01*
X37660Y-40350D01*
X37689D01*
X37760Y-40347D01*
X37827Y-40338D01*
X37886Y-40323D01*
X37941Y-40309D01*
X37985Y-40294D01*
X38006Y-40285D01*
X38020Y-40279D01*
X38032Y-40276D01*
X38041Y-40271D01*
X38047Y-40268D01*
X38050D01*
X38108Y-40233D01*
X38161Y-40192D01*
X38205Y-40148D01*
X38240Y-40107D01*
X38266Y-40069D01*
X38287Y-40039D01*
X38296Y-40028D01*
X38302Y-40019D01*
X38304Y-40013D01*
Y-40010D01*
X38334Y-39940D01*
X38354Y-39869D01*
X38372Y-39796D01*
X38381Y-39726D01*
X38384Y-39697D01*
X38386Y-39667D01*
X38389Y-39641D01*
Y-39620D01*
X38392Y-39600D01*
Y-39588D01*
Y-39579D01*
Y-39577D01*
X38389Y-39500D01*
X38381Y-39427D01*
X38369Y-39363D01*
X38354Y-39304D01*
X38343Y-39257D01*
X38337Y-39237D01*
X38331Y-39222D01*
X38325Y-39208D01*
X38322Y-39199D01*
X38319Y-39193D01*
Y-39190D01*
X38302Y-39152D01*
X38284Y-39117D01*
X38263Y-39085D01*
X38243Y-39055D01*
X38225Y-39032D01*
X38211Y-39014D01*
X38202Y-39003D01*
X38199Y-39000D01*
X38167Y-38967D01*
X38135Y-38941D01*
X38099Y-38918D01*
X38067Y-38897D01*
X38038Y-38880D01*
X38015Y-38868D01*
X38000Y-38862D01*
X37994Y-38859D01*
X37944Y-38841D01*
X37894Y-38827D01*
X37842Y-38818D01*
X37795Y-38809D01*
X37754Y-38806D01*
X37722Y-38803D01*
X37692D01*
X37640Y-38806D01*
X37590Y-38812D01*
X37546Y-38821D01*
X37508Y-38830D01*
X37476Y-38839D01*
X37449Y-38847D01*
X37435Y-38853D01*
X37429Y-38856D01*
X37385Y-38877D01*
X37350Y-38897D01*
X37317Y-38921D01*
X37291Y-38941D01*
X37271Y-38962D01*
X37256Y-38976D01*
X37247Y-38988D01*
X37244Y-38991D01*
X37221Y-39026D01*
X37200Y-39064D01*
X37183Y-39102D01*
X37168Y-39137D01*
X37156Y-39172D01*
X37145Y-39199D01*
X37142Y-39216D01*
X37139Y-39219D01*
Y-39222D01*
X36907Y-39158D01*
X36928Y-39087D01*
X36951Y-39026D01*
X36975Y-38973D01*
X36998Y-38929D01*
X37022Y-38891D01*
X37039Y-38865D01*
X37051Y-38850D01*
X37054Y-38844D01*
X37092Y-38800D01*
X37136Y-38765D01*
X37180Y-38733D01*
X37224Y-38707D01*
X37262Y-38683D01*
X37291Y-38669D01*
X37303Y-38663D01*
X37312Y-38660D01*
X37317Y-38657D01*
X37320D01*
X37385Y-38634D01*
X37449Y-38616D01*
X37514Y-38604D01*
X37569Y-38595D01*
X37619Y-38590D01*
X37643D01*
X37660Y-38587D01*
X37695D01*
X37801Y-38593D01*
D02*
G37*
G36*
X39303Y-40543D02*
X39034D01*
Y-40274D01*
X39303D01*
Y-40543D01*
D02*
G37*
G36*
X36515D02*
X35716D01*
X35657Y-40537D01*
X35604Y-40534D01*
X35557Y-40528D01*
X35522Y-40522D01*
X35496Y-40520D01*
X35478Y-40514D01*
X35472D01*
X35429Y-40499D01*
X35388Y-40484D01*
X35349Y-40470D01*
X35320Y-40455D01*
X35294Y-40440D01*
X35276Y-40429D01*
X35265Y-40423D01*
X35262Y-40420D01*
X35232Y-40394D01*
X35203Y-40364D01*
X35180Y-40335D01*
X35159Y-40306D01*
X35144Y-40279D01*
X35130Y-40259D01*
X35124Y-40244D01*
X35121Y-40238D01*
X35101Y-40194D01*
X35086Y-40151D01*
X35077Y-40107D01*
X35068Y-40069D01*
X35065Y-40036D01*
X35062Y-40010D01*
Y-39992D01*
Y-39987D01*
X35065Y-39925D01*
X35077Y-39869D01*
X35092Y-39823D01*
X35109Y-39779D01*
X35130Y-39743D01*
X35144Y-39717D01*
X35156Y-39702D01*
X35159Y-39697D01*
X35197Y-39653D01*
X35241Y-39618D01*
X35285Y-39588D01*
X35329Y-39562D01*
X35367Y-39544D01*
X35399Y-39530D01*
X35411Y-39527D01*
X35420Y-39524D01*
X35426Y-39521D01*
X35429D01*
X35379Y-39495D01*
X35338Y-39465D01*
X35303Y-39439D01*
X35273Y-39410D01*
X35253Y-39386D01*
X35235Y-39366D01*
X35226Y-39354D01*
X35224Y-39348D01*
X35200Y-39307D01*
X35185Y-39263D01*
X35174Y-39225D01*
X35165Y-39190D01*
X35159Y-39158D01*
X35156Y-39134D01*
Y-39120D01*
Y-39114D01*
X35159Y-39064D01*
X35168Y-39017D01*
X35180Y-38976D01*
X35194Y-38938D01*
X35209Y-38906D01*
X35221Y-38880D01*
X35229Y-38865D01*
X35232Y-38859D01*
X35265Y-38815D01*
X35297Y-38780D01*
X35332Y-38748D01*
X35367Y-38721D01*
X35396Y-38704D01*
X35420Y-38689D01*
X35437Y-38680D01*
X35440Y-38677D01*
X35443D01*
X35496Y-38657D01*
X35554Y-38642D01*
X35613Y-38634D01*
X35669Y-38625D01*
X35718Y-38622D01*
X35739D01*
X35759Y-38619D01*
X36515D01*
Y-40543D01*
D02*
G37*
G36*
X34723D02*
X33522D01*
Y-40317D01*
X34468D01*
Y-38619D01*
X34723D01*
Y-40543D01*
D02*
G37*
G36*
X73779Y-39120D02*
X73829Y-39126D01*
X73870Y-39137D01*
X73908Y-39149D01*
X73937Y-39161D01*
X73960Y-39172D01*
X73975Y-39178D01*
X73981Y-39181D01*
X74019Y-39205D01*
X74054Y-39234D01*
X74083Y-39260D01*
X74107Y-39287D01*
X74127Y-39310D01*
X74142Y-39328D01*
X74151Y-39339D01*
X74154Y-39345D01*
Y-39149D01*
X74365D01*
Y-40543D01*
X74127D01*
Y-39820D01*
X74124Y-39752D01*
X74121Y-39694D01*
X74116Y-39644D01*
X74107Y-39603D01*
X74101Y-39571D01*
X74095Y-39547D01*
X74092Y-39536D01*
X74089Y-39530D01*
X74072Y-39495D01*
X74054Y-39462D01*
X74034Y-39436D01*
X74013Y-39413D01*
X73995Y-39398D01*
X73981Y-39383D01*
X73969Y-39377D01*
X73966Y-39374D01*
X73934Y-39357D01*
X73902Y-39345D01*
X73870Y-39333D01*
X73843Y-39328D01*
X73817Y-39325D01*
X73799Y-39322D01*
X73782D01*
X73735Y-39325D01*
X73697Y-39333D01*
X73665Y-39348D01*
X73638Y-39360D01*
X73618Y-39374D01*
X73606Y-39389D01*
X73597Y-39398D01*
X73594Y-39401D01*
X73574Y-39433D01*
X73559Y-39471D01*
X73550Y-39509D01*
X73542Y-39550D01*
X73539Y-39582D01*
X73536Y-39612D01*
Y-39623D01*
Y-39632D01*
Y-39635D01*
Y-39638D01*
Y-40543D01*
X73298Y-40543D01*
Y-39735D01*
X73296Y-39659D01*
X73284Y-39594D01*
X73269Y-39541D01*
X73249Y-39497D01*
X73231Y-39462D01*
X73216Y-39439D01*
X73205Y-39427D01*
X73202Y-39421D01*
X73164Y-39389D01*
X73120Y-39363D01*
X73079Y-39345D01*
X73041Y-39333D01*
X73009Y-39328D01*
X72979Y-39322D01*
X72956D01*
X72927Y-39325D01*
X72900Y-39328D01*
X72874Y-39333D01*
X72853Y-39339D01*
X72839Y-39348D01*
X72827Y-39354D01*
X72818Y-39357D01*
X72815Y-39360D01*
X72795Y-39374D01*
X72777Y-39392D01*
X72763Y-39410D01*
X72751Y-39424D01*
X72742Y-39439D01*
X72736Y-39451D01*
X72730Y-39459D01*
Y-39462D01*
X72722Y-39489D01*
X72716Y-39521D01*
X72710Y-39588D01*
X72707Y-39618D01*
Y-39644D01*
Y-39661D01*
Y-39664D01*
Y-39667D01*
Y-40543D01*
X72470D01*
Y-39588D01*
Y-39544D01*
X72476Y-39503D01*
X72487Y-39430D01*
X72505Y-39372D01*
X72525Y-39322D01*
X72549Y-39284D01*
X72566Y-39254D01*
X72578Y-39240D01*
X72584Y-39234D01*
X72631Y-39196D01*
X72681Y-39167D01*
X72733Y-39146D01*
X72786Y-39131D01*
X72830Y-39123D01*
X72850Y-39120D01*
X72868D01*
X72883Y-39117D01*
X72903D01*
X72953Y-39120D01*
X72997Y-39128D01*
X73041Y-39140D01*
X73082Y-39155D01*
X73158Y-39196D01*
X73190Y-39216D01*
X73219Y-39240D01*
X73246Y-39263D01*
X73269Y-39284D01*
X73290Y-39304D01*
X73307Y-39325D01*
X73319Y-39339D01*
X73328Y-39351D01*
X73334Y-39360D01*
X73337Y-39363D01*
X73354Y-39322D01*
X73375Y-39284D01*
X73398Y-39254D01*
X73421Y-39228D01*
X73442Y-39208D01*
X73460Y-39193D01*
X73471Y-39184D01*
X73477Y-39181D01*
X73515Y-39161D01*
X73556Y-39143D01*
X73600Y-39131D01*
X73638Y-39126D01*
X73673Y-39120D01*
X73703Y-39117D01*
X73729D01*
X73779Y-39120D01*
D02*
G37*
G36*
X69362Y-39120D02*
X69424Y-39126D01*
X69477Y-39131D01*
X69523Y-39140D01*
X69562Y-39152D01*
X69591Y-39158D01*
X69600Y-39161D01*
X69608Y-39164D01*
X69611Y-39167D01*
X69614D01*
X69661Y-39187D01*
X69702Y-39210D01*
X69740Y-39234D01*
X69769Y-39254D01*
X69793Y-39275D01*
X69808Y-39292D01*
X69819Y-39304D01*
X69822Y-39307D01*
X69849Y-39342D01*
X69869Y-39383D01*
X69887Y-39421D01*
X69901Y-39459D01*
X69910Y-39495D01*
X69919Y-39521D01*
X69922Y-39538D01*
X69925Y-39541D01*
Y-39544D01*
X69693Y-39577D01*
X69679Y-39527D01*
X69658Y-39483D01*
X69641Y-39448D01*
X69620Y-39418D01*
X69603Y-39398D01*
X69588Y-39383D01*
X69579Y-39374D01*
X69576Y-39372D01*
X69544Y-39351D01*
X69503Y-39336D01*
X69465Y-39328D01*
X69424Y-39319D01*
X69386Y-39316D01*
X69357Y-39313D01*
X69330D01*
X69269Y-39316D01*
X69213Y-39325D01*
X69166Y-39339D01*
X69128Y-39354D01*
X69099Y-39369D01*
X69078Y-39383D01*
X69064Y-39392D01*
X69061Y-39395D01*
X69037Y-39421D01*
X69023Y-39451D01*
X69011Y-39486D01*
X69002Y-39518D01*
X68996Y-39547D01*
X68993Y-39574D01*
Y-39591D01*
Y-39594D01*
Y-39597D01*
Y-39603D01*
Y-39612D01*
Y-39632D01*
X68996Y-39650D01*
Y-39656D01*
Y-39659D01*
X69023Y-39667D01*
X69052Y-39676D01*
X69119Y-39694D01*
X69190Y-39705D01*
X69257Y-39717D01*
X69321Y-39729D01*
X69348Y-39732D01*
X69371Y-39735D01*
X69392Y-39738D01*
X69406D01*
X69415Y-39741D01*
X69418D01*
X69468Y-39746D01*
X69509Y-39752D01*
X69547Y-39758D01*
X69576Y-39764D01*
X69600Y-39770D01*
X69614Y-39773D01*
X69626Y-39776D01*
X69629D01*
X69664Y-39787D01*
X69696Y-39799D01*
X69723Y-39811D01*
X69749Y-39825D01*
X69769Y-39837D01*
X69784Y-39846D01*
X69796Y-39852D01*
X69799Y-39855D01*
X69825Y-39875D01*
X69849Y-39896D01*
X69872Y-39919D01*
X69890Y-39940D01*
X69904Y-39960D01*
X69913Y-39975D01*
X69919Y-39987D01*
X69922Y-39989D01*
X69936Y-40022D01*
X69948Y-40054D01*
X69954Y-40086D01*
X69960Y-40115D01*
X69963Y-40139D01*
X69966Y-40159D01*
Y-40171D01*
Y-40177D01*
X69960Y-40238D01*
X69945Y-40297D01*
X69928Y-40344D01*
X69904Y-40385D01*
X69881Y-40420D01*
X69863Y-40443D01*
X69849Y-40458D01*
X69843Y-40464D01*
X69793Y-40502D01*
X69734Y-40528D01*
X69679Y-40549D01*
X69620Y-40561D01*
X69570Y-40569D01*
X69547Y-40572D01*
X69529D01*
X69512Y-40575D01*
X69491D01*
X69439Y-40572D01*
X69392Y-40566D01*
X69348Y-40561D01*
X69307Y-40552D01*
X69275Y-40543D01*
X69251Y-40534D01*
X69236Y-40531D01*
X69231Y-40528D01*
X69184Y-40508D01*
X69140Y-40484D01*
X69096Y-40458D01*
X69058Y-40429D01*
X69023Y-40405D01*
X68999Y-40385D01*
X68982Y-40373D01*
X68976Y-40367D01*
X68970Y-40405D01*
X68964Y-40438D01*
X68958Y-40467D01*
X68949Y-40493D01*
X68941Y-40514D01*
X68935Y-40531D01*
X68932Y-40540D01*
X68929Y-40543D01*
X68683D01*
X68709Y-40484D01*
X68721Y-40455D01*
X68730Y-40432D01*
X68736Y-40411D01*
X68739Y-40394D01*
X68742Y-40382D01*
Y-40379D01*
X68744Y-40358D01*
X68747Y-40335D01*
Y-40309D01*
X68750Y-40276D01*
X68753Y-40209D01*
Y-40136D01*
X68756Y-40069D01*
Y-40039D01*
Y-40013D01*
Y-39992D01*
Y-39975D01*
Y-39963D01*
Y-39960D01*
Y-39644D01*
Y-39588D01*
X68759Y-39544D01*
X68762Y-39506D01*
Y-39477D01*
X68765Y-39454D01*
X68768Y-39439D01*
X68771Y-39430D01*
Y-39427D01*
X68780Y-39392D01*
X68791Y-39360D01*
X68803Y-39333D01*
X68815Y-39310D01*
X68826Y-39290D01*
X68835Y-39278D01*
X68841Y-39269D01*
X68844Y-39266D01*
X68867Y-39243D01*
X68891Y-39222D01*
X68920Y-39205D01*
X68947Y-39190D01*
X68970Y-39178D01*
X68990Y-39167D01*
X69002Y-39164D01*
X69008Y-39161D01*
X69052Y-39146D01*
X69099Y-39134D01*
X69149Y-39128D01*
X69195Y-39123D01*
X69236Y-39120D01*
X69269Y-39117D01*
X69298D01*
X69362Y-39120D01*
D02*
G37*
G36*
X67995Y-40546D02*
X68004Y-40572D01*
X68012Y-40590D01*
X68015Y-40602D01*
X68018Y-40604D01*
X68036Y-40651D01*
X68050Y-40692D01*
X68062Y-40722D01*
X68071Y-40745D01*
X68080Y-40763D01*
X68086Y-40771D01*
X68088Y-40777D01*
Y-40780D01*
X68115Y-40812D01*
X68141Y-40836D01*
X68150Y-40845D01*
X68159Y-40850D01*
X68165Y-40856D01*
X68168D01*
X68185Y-40865D01*
X68206Y-40871D01*
X68247Y-40880D01*
X68267D01*
X68279Y-40883D01*
X68293D01*
X68340Y-40880D01*
X68381Y-40871D01*
X68402Y-40865D01*
X68416Y-40862D01*
X68425Y-40859D01*
X68428D01*
X68402Y-41079D01*
X68343Y-41096D01*
X68317Y-41102D01*
X68293Y-41105D01*
X68276D01*
X68261Y-41108D01*
X68250D01*
X68209Y-41105D01*
X68173Y-41099D01*
X68138Y-41091D01*
X68112Y-41079D01*
X68088Y-41070D01*
X68071Y-41061D01*
X68059Y-41055D01*
X68056Y-41053D01*
X68027Y-41029D01*
X67998Y-41003D01*
X67974Y-40973D01*
X67951Y-40947D01*
X67933Y-40921D01*
X67922Y-40900D01*
X67913Y-40889D01*
X67910Y-40883D01*
X67901Y-40865D01*
X67889Y-40845D01*
X67869Y-40795D01*
X67848Y-40745D01*
X67825Y-40692D01*
X67807Y-40643D01*
X67799Y-40622D01*
X67793Y-40604D01*
X67787Y-40587D01*
X67781Y-40575D01*
X67778Y-40569D01*
Y-40566D01*
X67251Y-39149D01*
X67485D01*
X67784Y-39963D01*
X67804Y-40022D01*
X67822Y-40077D01*
X67840Y-40130D01*
X67854Y-40177D01*
X67866Y-40215D01*
X67872Y-40247D01*
X67878Y-40259D01*
Y-40268D01*
X67881Y-40271D01*
Y-40274D01*
X67898Y-40212D01*
X67916Y-40153D01*
X67933Y-40098D01*
X67948Y-40051D01*
X67963Y-40010D01*
X67974Y-39978D01*
X67977Y-39966D01*
X67980Y-39957D01*
X67983Y-39954D01*
Y-39951D01*
X68273Y-39149D01*
X68525D01*
X67995Y-40546D01*
D02*
G37*
G36*
X77311Y-38806D02*
Y-39149D01*
X77486D01*
Y-39333D01*
X77311D01*
Y-40136D01*
Y-40174D01*
Y-40209D01*
X77308Y-40241D01*
Y-40271D01*
X77305Y-40297D01*
X77302Y-40317D01*
X77296Y-40356D01*
X77293Y-40385D01*
X77287Y-40402D01*
X77284Y-40414D01*
Y-40417D01*
X77273Y-40440D01*
X77255Y-40461D01*
X77240Y-40479D01*
X77223Y-40493D01*
X77208Y-40505D01*
X77196Y-40514D01*
X77188Y-40520D01*
X77185Y-40522D01*
X77155Y-40534D01*
X77123Y-40543D01*
X77088Y-40552D01*
X77056Y-40555D01*
X77027Y-40558D01*
X77003Y-40561D01*
X76983D01*
X76921Y-40558D01*
X76892Y-40555D01*
X76866Y-40549D01*
X76839Y-40546D01*
X76822Y-40543D01*
X76810Y-40540D01*
X76804D01*
X76836Y-40332D01*
X76880Y-40338D01*
X76898D01*
X76912Y-40341D01*
X76942D01*
X76977Y-40338D01*
X77003Y-40332D01*
X77018Y-40329D01*
X77024Y-40326D01*
X77041Y-40312D01*
X77053Y-40297D01*
X77059Y-40285D01*
X77062Y-40279D01*
X77065Y-40265D01*
X77068Y-40247D01*
X77071Y-40203D01*
X77073Y-40183D01*
Y-40165D01*
Y-40153D01*
Y-40151D01*
Y-39333D01*
X76836D01*
Y-39149D01*
X77073D01*
Y-38663D01*
X77311Y-38806D01*
D02*
G37*
G36*
X76564D02*
Y-39149D01*
X76740D01*
Y-39333D01*
X76564D01*
Y-40136D01*
Y-40174D01*
Y-40209D01*
X76561Y-40241D01*
Y-40271D01*
X76558Y-40297D01*
X76555Y-40317D01*
X76549Y-40356D01*
X76546Y-40385D01*
X76540Y-40402D01*
X76538Y-40414D01*
Y-40417D01*
X76526Y-40440D01*
X76508Y-40461D01*
X76494Y-40479D01*
X76476Y-40493D01*
X76461Y-40505D01*
X76450Y-40514D01*
X76441Y-40520D01*
X76438Y-40522D01*
X76409Y-40534D01*
X76376Y-40543D01*
X76341Y-40552D01*
X76309Y-40555D01*
X76280Y-40558D01*
X76256Y-40561D01*
X76236D01*
X76174Y-40558D01*
X76145Y-40555D01*
X76119Y-40549D01*
X76092Y-40546D01*
X76075Y-40543D01*
X76063Y-40540D01*
X76057D01*
X76089Y-40332D01*
X76133Y-40338D01*
X76151D01*
X76166Y-40341D01*
X76195D01*
X76230Y-40338D01*
X76256Y-40332D01*
X76271Y-40329D01*
X76277Y-40326D01*
X76294Y-40312D01*
X76306Y-40297D01*
X76312Y-40285D01*
X76315Y-40279D01*
X76318Y-40265D01*
X76321Y-40247D01*
X76324Y-40203D01*
X76327Y-40183D01*
Y-40165D01*
Y-40153D01*
Y-40151D01*
Y-39333D01*
X76089D01*
Y-39149D01*
X76327D01*
Y-38663D01*
X76564Y-38806D01*
D02*
G37*
G36*
X66530Y-39120D02*
X66580Y-39126D01*
X66627Y-39134D01*
X66671Y-39146D01*
X66715Y-39164D01*
X66753Y-39178D01*
X66788Y-39196D01*
X66820Y-39213D01*
X66850Y-39234D01*
X66873Y-39251D01*
X66897Y-39266D01*
X66914Y-39281D01*
X66929Y-39295D01*
X66938Y-39304D01*
X66943Y-39310D01*
X66946Y-39313D01*
X66979Y-39351D01*
X67005Y-39392D01*
X67028Y-39436D01*
X67049Y-39480D01*
X67066Y-39527D01*
X67081Y-39571D01*
X67102Y-39659D01*
X67110Y-39700D01*
X67116Y-39738D01*
X67119Y-39773D01*
X67122Y-39802D01*
X67125Y-39825D01*
Y-39846D01*
Y-39858D01*
Y-39861D01*
X67122Y-39922D01*
X67116Y-39981D01*
X67107Y-40036D01*
X67096Y-40086D01*
X67084Y-40133D01*
X67069Y-40177D01*
X67052Y-40215D01*
X67034Y-40250D01*
X67020Y-40282D01*
X67002Y-40312D01*
X66987Y-40335D01*
X66973Y-40353D01*
X66964Y-40367D01*
X66955Y-40379D01*
X66949Y-40385D01*
X66946Y-40388D01*
X66911Y-40420D01*
X66873Y-40449D01*
X66835Y-40476D01*
X66794Y-40496D01*
X66756Y-40514D01*
X66715Y-40528D01*
X66639Y-40552D01*
X66601Y-40561D01*
X66569Y-40566D01*
X66539Y-40569D01*
X66513Y-40572D01*
X66492Y-40575D01*
X66463D01*
X66375Y-40569D01*
X66299Y-40558D01*
X66229Y-40537D01*
X66173Y-40517D01*
X66147Y-40505D01*
X66126Y-40496D01*
X66109Y-40484D01*
X66094Y-40476D01*
X66079Y-40470D01*
X66071Y-40464D01*
X66068Y-40458D01*
X66065D01*
X66012Y-40411D01*
X65965Y-40356D01*
X65930Y-40300D01*
X65901Y-40247D01*
X65877Y-40197D01*
X65869Y-40177D01*
X65863Y-40159D01*
X65857Y-40145D01*
X65854Y-40133D01*
X65851Y-40127D01*
Y-40124D01*
X66094Y-40092D01*
X66118Y-40145D01*
X66141Y-40192D01*
X66164Y-40230D01*
X66188Y-40259D01*
X66208Y-40285D01*
X66226Y-40300D01*
X66238Y-40312D01*
X66241Y-40315D01*
X66276Y-40338D01*
X66314Y-40353D01*
X66352Y-40364D01*
X66387Y-40373D01*
X66416Y-40379D01*
X66440Y-40382D01*
X66463D01*
X66525Y-40376D01*
X66580Y-40364D01*
X66630Y-40344D01*
X66674Y-40320D01*
X66706Y-40300D01*
X66733Y-40279D01*
X66747Y-40268D01*
X66753Y-40262D01*
X66791Y-40212D01*
X66823Y-40153D01*
X66844Y-40095D01*
X66861Y-40039D01*
X66873Y-39987D01*
X66876Y-39966D01*
X66879Y-39946D01*
Y-39931D01*
X66882Y-39916D01*
Y-39910D01*
Y-39907D01*
X65845D01*
X65842Y-39881D01*
Y-39861D01*
Y-39849D01*
Y-39846D01*
X65845Y-39782D01*
X65851Y-39723D01*
X65860Y-39667D01*
X65869Y-39618D01*
X65883Y-39568D01*
X65898Y-39524D01*
X65915Y-39486D01*
X65930Y-39448D01*
X65948Y-39415D01*
X65965Y-39389D01*
X65980Y-39366D01*
X65992Y-39345D01*
X66003Y-39331D01*
X66012Y-39319D01*
X66018Y-39313D01*
X66021Y-39310D01*
X66056Y-39275D01*
X66091Y-39246D01*
X66129Y-39219D01*
X66167Y-39199D01*
X66205Y-39178D01*
X66243Y-39164D01*
X66314Y-39140D01*
X66349Y-39131D01*
X66378Y-39126D01*
X66407Y-39123D01*
X66431Y-39120D01*
X66451Y-39117D01*
X66478D01*
X66530Y-39120D01*
D02*
G37*
G36*
X80617Y-40543D02*
X79818D01*
X79759Y-40537D01*
X79706Y-40534D01*
X79659Y-40528D01*
X79624Y-40522D01*
X79598Y-40520D01*
X79580Y-40514D01*
X79575D01*
X79531Y-40499D01*
X79490Y-40484D01*
X79452Y-40470D01*
X79422Y-40455D01*
X79396Y-40440D01*
X79378Y-40429D01*
X79367Y-40423D01*
X79364Y-40420D01*
X79334Y-40394D01*
X79305Y-40364D01*
X79282Y-40335D01*
X79261Y-40306D01*
X79247Y-40279D01*
X79232Y-40259D01*
X79226Y-40244D01*
X79223Y-40238D01*
X79203Y-40194D01*
X79188Y-40151D01*
X79179Y-40107D01*
X79170Y-40069D01*
X79167Y-40036D01*
X79165Y-40010D01*
Y-39992D01*
Y-39987D01*
X79167Y-39925D01*
X79179Y-39869D01*
X79194Y-39823D01*
X79211Y-39779D01*
X79232Y-39743D01*
X79247Y-39717D01*
X79258Y-39702D01*
X79261Y-39697D01*
X79299Y-39653D01*
X79343Y-39618D01*
X79387Y-39588D01*
X79431Y-39562D01*
X79469Y-39544D01*
X79501Y-39530D01*
X79513Y-39527D01*
X79522Y-39524D01*
X79528Y-39521D01*
X79531D01*
X79481Y-39495D01*
X79440Y-39465D01*
X79405Y-39439D01*
X79375Y-39410D01*
X79355Y-39386D01*
X79337Y-39366D01*
X79329Y-39354D01*
X79326Y-39348D01*
X79302Y-39307D01*
X79288Y-39263D01*
X79276Y-39225D01*
X79267Y-39190D01*
X79261Y-39158D01*
X79258Y-39134D01*
Y-39120D01*
Y-39114D01*
X79261Y-39064D01*
X79270Y-39017D01*
X79282Y-38976D01*
X79296Y-38938D01*
X79311Y-38906D01*
X79323Y-38880D01*
X79331Y-38865D01*
X79334Y-38859D01*
X79367Y-38815D01*
X79399Y-38780D01*
X79434Y-38748D01*
X79469Y-38721D01*
X79498Y-38704D01*
X79522Y-38689D01*
X79539Y-38680D01*
X79542Y-38677D01*
X79545D01*
X79598Y-38657D01*
X79657Y-38642D01*
X79715Y-38634D01*
X79771Y-38625D01*
X79821Y-38622D01*
X79841D01*
X79862Y-38619D01*
X80617D01*
Y-40543D01*
D02*
G37*
G36*
X71360Y-40543D02*
X70159D01*
Y-40317D01*
X71105D01*
Y-38619D01*
X71360D01*
Y-40543D01*
D02*
G37*
G36*
X65072Y-39120D02*
X65101Y-39126D01*
X65128Y-39131D01*
X65148Y-39140D01*
X65169Y-39152D01*
X65183Y-39158D01*
X65192Y-39164D01*
X65195Y-39167D01*
X65221Y-39187D01*
X65245Y-39216D01*
X65271Y-39249D01*
X65295Y-39281D01*
X65312Y-39310D01*
X65327Y-39336D01*
X65338Y-39354D01*
X65341Y-39357D01*
Y-39149D01*
X65555D01*
Y-40543D01*
X65318D01*
Y-39814D01*
X65315Y-39758D01*
X65312Y-39708D01*
X65306Y-39661D01*
X65297Y-39620D01*
X65292Y-39585D01*
X65286Y-39559D01*
X65283Y-39544D01*
X65280Y-39538D01*
X65268Y-39509D01*
X65256Y-39483D01*
X65242Y-39459D01*
X65227Y-39442D01*
X65215Y-39427D01*
X65204Y-39415D01*
X65198Y-39410D01*
X65195Y-39407D01*
X65172Y-39392D01*
X65148Y-39380D01*
X65125Y-39372D01*
X65104Y-39366D01*
X65084Y-39363D01*
X65069Y-39360D01*
X65057D01*
X65025Y-39363D01*
X64993Y-39369D01*
X64964Y-39377D01*
X64937Y-39386D01*
X64917Y-39395D01*
X64899Y-39404D01*
X64887Y-39410D01*
X64885Y-39413D01*
X64800Y-39196D01*
X64846Y-39169D01*
X64890Y-39149D01*
X64931Y-39137D01*
X64967Y-39126D01*
X64999Y-39120D01*
X65022Y-39117D01*
X65043D01*
X65072Y-39120D01*
D02*
G37*
G36*
X78327Y-39120D02*
X78374Y-39123D01*
X78459Y-39140D01*
X78535Y-39167D01*
X78567Y-39181D01*
X78596Y-39193D01*
X78626Y-39208D01*
X78649Y-39222D01*
X78670Y-39237D01*
X78687Y-39249D01*
X78702Y-39257D01*
X78711Y-39266D01*
X78716Y-39269D01*
X78719Y-39272D01*
X78757Y-39310D01*
X78790Y-39351D01*
X78819Y-39395D01*
X78842Y-39442D01*
X78863Y-39489D01*
X78880Y-39536D01*
X78895Y-39582D01*
X78907Y-39629D01*
X78916Y-39673D01*
X78921Y-39714D01*
X78927Y-39749D01*
X78930Y-39782D01*
Y-39808D01*
X78933Y-39828D01*
Y-39840D01*
Y-39846D01*
X78930Y-39910D01*
X78924Y-39972D01*
X78916Y-40028D01*
X78904Y-40080D01*
X78892Y-40127D01*
X78878Y-40174D01*
X78860Y-40212D01*
X78842Y-40250D01*
X78828Y-40282D01*
X78810Y-40309D01*
X78796Y-40332D01*
X78781Y-40353D01*
X78772Y-40367D01*
X78763Y-40379D01*
X78757Y-40385D01*
X78755Y-40388D01*
X78719Y-40420D01*
X78681Y-40449D01*
X78643Y-40476D01*
X78602Y-40496D01*
X78564Y-40514D01*
X78523Y-40528D01*
X78450Y-40552D01*
X78415Y-40561D01*
X78383Y-40566D01*
X78353Y-40569D01*
X78330Y-40572D01*
X78309Y-40575D01*
X78280D01*
X78213Y-40572D01*
X78151Y-40561D01*
X78096Y-40549D01*
X78046Y-40531D01*
X78005Y-40517D01*
X77973Y-40502D01*
X77961Y-40499D01*
X77952Y-40493D01*
X77949Y-40490D01*
X77946D01*
X77891Y-40455D01*
X77844Y-40417D01*
X77803Y-40379D01*
X77770Y-40341D01*
X77744Y-40306D01*
X77724Y-40279D01*
X77712Y-40259D01*
X77709Y-40256D01*
Y-40253D01*
X77683Y-40192D01*
X77662Y-40121D01*
X77647Y-40051D01*
X77636Y-39984D01*
X77633Y-39951D01*
X77630Y-39922D01*
Y-39896D01*
X77627Y-39872D01*
Y-39855D01*
Y-39840D01*
Y-39831D01*
Y-39828D01*
X77630Y-39767D01*
X77636Y-39711D01*
X77645Y-39656D01*
X77656Y-39606D01*
X77671Y-39559D01*
X77686Y-39518D01*
X77703Y-39477D01*
X77718Y-39442D01*
X77735Y-39413D01*
X77753Y-39383D01*
X77768Y-39360D01*
X77782Y-39342D01*
X77794Y-39328D01*
X77803Y-39316D01*
X77809Y-39310D01*
X77811Y-39307D01*
X77847Y-39275D01*
X77885Y-39246D01*
X77923Y-39219D01*
X77961Y-39196D01*
X78002Y-39178D01*
X78040Y-39164D01*
X78113Y-39140D01*
X78148Y-39131D01*
X78180Y-39126D01*
X78207Y-39123D01*
X78233Y-39120D01*
X78254Y-39117D01*
X78280D01*
X78327Y-39120D01*
D02*
G37*
G36*
X75340D02*
X75387Y-39123D01*
X75472Y-39140D01*
X75548Y-39167D01*
X75580Y-39181D01*
X75609Y-39193D01*
X75638Y-39208D01*
X75662Y-39222D01*
X75682Y-39237D01*
X75700Y-39249D01*
X75715Y-39257D01*
X75723Y-39266D01*
X75729Y-39269D01*
X75732Y-39272D01*
X75770Y-39310D01*
X75802Y-39351D01*
X75832Y-39395D01*
X75855Y-39442D01*
X75876Y-39489D01*
X75893Y-39536D01*
X75908Y-39582D01*
X75920Y-39629D01*
X75928Y-39673D01*
X75934Y-39714D01*
X75940Y-39749D01*
X75943Y-39782D01*
Y-39808D01*
X75946Y-39828D01*
Y-39840D01*
Y-39846D01*
X75943Y-39910D01*
X75937Y-39972D01*
X75928Y-40028D01*
X75917Y-40080D01*
X75905Y-40127D01*
X75890Y-40174D01*
X75873Y-40212D01*
X75855Y-40250D01*
X75841Y-40282D01*
X75823Y-40309D01*
X75808Y-40332D01*
X75794Y-40353D01*
X75785Y-40367D01*
X75776Y-40379D01*
X75770Y-40385D01*
X75767Y-40388D01*
X75732Y-40420D01*
X75694Y-40449D01*
X75656Y-40476D01*
X75615Y-40496D01*
X75577Y-40514D01*
X75536Y-40528D01*
X75463Y-40552D01*
X75428Y-40561D01*
X75395Y-40566D01*
X75366Y-40569D01*
X75343Y-40572D01*
X75322Y-40575D01*
X75293D01*
X75226Y-40572D01*
X75164Y-40561D01*
X75108Y-40549D01*
X75059Y-40531D01*
X75018Y-40517D01*
X74985Y-40502D01*
X74974Y-40499D01*
X74965Y-40493D01*
X74962Y-40490D01*
X74959D01*
X74903Y-40455D01*
X74857Y-40417D01*
X74815Y-40379D01*
X74783Y-40341D01*
X74757Y-40306D01*
X74736Y-40279D01*
X74725Y-40259D01*
X74722Y-40256D01*
Y-40253D01*
X74695Y-40192D01*
X74675Y-40121D01*
X74660Y-40051D01*
X74649Y-39984D01*
X74646Y-39951D01*
X74643Y-39922D01*
Y-39896D01*
X74640Y-39872D01*
Y-39855D01*
Y-39840D01*
Y-39831D01*
Y-39828D01*
X74643Y-39767D01*
X74649Y-39711D01*
X74657Y-39656D01*
X74669Y-39606D01*
X74684Y-39559D01*
X74698Y-39518D01*
X74716Y-39477D01*
X74731Y-39442D01*
X74748Y-39413D01*
X74766Y-39383D01*
X74780Y-39360D01*
X74795Y-39342D01*
X74807Y-39328D01*
X74815Y-39316D01*
X74821Y-39310D01*
X74824Y-39307D01*
X74859Y-39275D01*
X74898Y-39246D01*
X74936Y-39219D01*
X74974Y-39196D01*
X75015Y-39178D01*
X75053Y-39164D01*
X75126Y-39140D01*
X75161Y-39131D01*
X75193Y-39126D01*
X75220Y-39123D01*
X75246Y-39120D01*
X75267Y-39117D01*
X75293D01*
X75340Y-39120D01*
D02*
G37*
%LPC*%
G36*
X26315Y15143D02*
Y14125D01*
X27333D01*
X27310Y14300D01*
X27195Y14580D01*
X27010Y14820D01*
X26770Y15005D01*
X26490Y15120D01*
X26315Y15143D01*
D02*
G37*
G36*
X26065Y15143D02*
X25890Y15120D01*
X25610Y15005D01*
X25370Y14820D01*
X25185Y14580D01*
X25070Y14300D01*
X25047Y14125D01*
X26065D01*
Y15143D01*
D02*
G37*
G36*
X27333Y13875D02*
X26315D01*
Y12857D01*
X26490Y12880D01*
X26770Y12995D01*
X27010Y13180D01*
X27195Y13420D01*
X27310Y13700D01*
X27333Y13875D01*
D02*
G37*
G36*
X26065D02*
X25047D01*
X25070Y13700D01*
X25185Y13420D01*
X25370Y13180D01*
X25610Y12995D01*
X25890Y12880D01*
X26065Y12857D01*
Y13875D01*
D02*
G37*
G36*
X49050Y15160D02*
X48750Y15120D01*
X48470Y15005D01*
X48230Y14820D01*
X48045Y14580D01*
X47930Y14300D01*
X47890Y14000D01*
X47930Y13700D01*
X48045Y13420D01*
X48230Y13180D01*
X48470Y12995D01*
X48750Y12880D01*
X49050Y12840D01*
X49350Y12880D01*
X49630Y12995D01*
X49870Y13180D01*
X50055Y13420D01*
X50170Y13700D01*
X50210Y14000D01*
X50170Y14300D01*
X50055Y14580D01*
X49870Y14820D01*
X49630Y15005D01*
X49350Y15120D01*
X49050Y15160D01*
D02*
G37*
G36*
X46510D02*
X46210Y15120D01*
X45930Y15005D01*
X45690Y14820D01*
X45505Y14580D01*
X45390Y14300D01*
X45350Y14000D01*
X45390Y13700D01*
X45505Y13420D01*
X45690Y13180D01*
X45930Y12995D01*
X46210Y12880D01*
X46510Y12840D01*
X46810Y12880D01*
X47090Y12995D01*
X47330Y13180D01*
X47515Y13420D01*
X47630Y13700D01*
X47670Y14000D01*
X47630Y14300D01*
X47515Y14580D01*
X47330Y14820D01*
X47090Y15005D01*
X46810Y15120D01*
X46510Y15160D01*
D02*
G37*
G36*
X43970D02*
X43670Y15120D01*
X43390Y15005D01*
X43150Y14820D01*
X42965Y14580D01*
X42850Y14300D01*
X42810Y14000D01*
X42850Y13700D01*
X42965Y13420D01*
X43150Y13180D01*
X43390Y12995D01*
X43670Y12880D01*
X43970Y12840D01*
X44270Y12880D01*
X44550Y12995D01*
X44790Y13180D01*
X44975Y13420D01*
X45090Y13700D01*
X45130Y14000D01*
X45090Y14300D01*
X44975Y14580D01*
X44790Y14820D01*
X44550Y15005D01*
X44270Y15120D01*
X43970Y15160D01*
D02*
G37*
G36*
X41430D02*
X41130Y15120D01*
X40850Y15005D01*
X40610Y14820D01*
X40425Y14580D01*
X40310Y14300D01*
X40270Y14000D01*
X40310Y13700D01*
X40425Y13420D01*
X40610Y13180D01*
X40850Y12995D01*
X41130Y12880D01*
X41430Y12840D01*
X41730Y12880D01*
X42010Y12995D01*
X42250Y13180D01*
X42435Y13420D01*
X42550Y13700D01*
X42590Y14000D01*
X42550Y14300D01*
X42435Y14580D01*
X42250Y14820D01*
X42010Y15005D01*
X41730Y15120D01*
X41430Y15160D01*
D02*
G37*
G36*
X38890D02*
X38590Y15120D01*
X38310Y15005D01*
X38070Y14820D01*
X37885Y14580D01*
X37770Y14300D01*
X37730Y14000D01*
X37770Y13700D01*
X37885Y13420D01*
X38070Y13180D01*
X38310Y12995D01*
X38590Y12880D01*
X38890Y12840D01*
X39190Y12880D01*
X39470Y12995D01*
X39710Y13180D01*
X39895Y13420D01*
X40010Y13700D01*
X40050Y14000D01*
X40010Y14300D01*
X39895Y14580D01*
X39710Y14820D01*
X39470Y15005D01*
X39190Y15120D01*
X38890Y15160D01*
D02*
G37*
G36*
X36350D02*
X36050Y15120D01*
X35770Y15005D01*
X35530Y14820D01*
X35345Y14580D01*
X35230Y14300D01*
X35190Y14000D01*
X35230Y13700D01*
X35345Y13420D01*
X35530Y13180D01*
X35770Y12995D01*
X36050Y12880D01*
X36350Y12840D01*
X36650Y12880D01*
X36930Y12995D01*
X37170Y13180D01*
X37355Y13420D01*
X37470Y13700D01*
X37510Y14000D01*
X37470Y14300D01*
X37355Y14580D01*
X37170Y14820D01*
X36930Y15005D01*
X36650Y15120D01*
X36350Y15160D01*
D02*
G37*
G36*
X33810D02*
X33510Y15120D01*
X33230Y15005D01*
X32990Y14820D01*
X32805Y14580D01*
X32690Y14300D01*
X32650Y14000D01*
X32690Y13700D01*
X32805Y13420D01*
X32990Y13180D01*
X33230Y12995D01*
X33510Y12880D01*
X33810Y12840D01*
X34110Y12880D01*
X34390Y12995D01*
X34630Y13180D01*
X34815Y13420D01*
X34930Y13700D01*
X34970Y14000D01*
X34930Y14300D01*
X34815Y14580D01*
X34630Y14820D01*
X34390Y15005D01*
X34110Y15120D01*
X33810Y15160D01*
D02*
G37*
G36*
X31270D02*
X30970Y15120D01*
X30690Y15005D01*
X30450Y14820D01*
X30265Y14580D01*
X30150Y14300D01*
X30110Y14000D01*
X30150Y13700D01*
X30265Y13420D01*
X30450Y13180D01*
X30690Y12995D01*
X30970Y12880D01*
X31270Y12840D01*
X31570Y12880D01*
X31850Y12995D01*
X32090Y13180D01*
X32275Y13420D01*
X32390Y13700D01*
X32430Y14000D01*
X32390Y14300D01*
X32275Y14580D01*
X32090Y14820D01*
X31850Y15005D01*
X31570Y15120D01*
X31270Y15160D01*
D02*
G37*
G36*
X28730D02*
X28430Y15120D01*
X28150Y15005D01*
X27910Y14820D01*
X27725Y14580D01*
X27610Y14300D01*
X27570Y14000D01*
X27610Y13700D01*
X27725Y13420D01*
X27910Y13180D01*
X28150Y12995D01*
X28430Y12880D01*
X28730Y12840D01*
X29030Y12880D01*
X29310Y12995D01*
X29550Y13180D01*
X29735Y13420D01*
X29850Y13700D01*
X29890Y14000D01*
X29850Y14300D01*
X29735Y14580D01*
X29550Y14820D01*
X29310Y15005D01*
X29030Y15120D01*
X28730Y15160D01*
D02*
G37*
G36*
X23650D02*
X23350Y15120D01*
X23070Y15005D01*
X22830Y14820D01*
X22645Y14580D01*
X22530Y14300D01*
X22490Y14000D01*
X22530Y13700D01*
X22645Y13420D01*
X22830Y13180D01*
X23070Y12995D01*
X23350Y12880D01*
X23650Y12840D01*
X23950Y12880D01*
X24230Y12995D01*
X24470Y13180D01*
X24655Y13420D01*
X24770Y13700D01*
X24810Y14000D01*
X24770Y14300D01*
X24655Y14580D01*
X24470Y14820D01*
X24230Y15005D01*
X23950Y15120D01*
X23650Y15160D01*
D02*
G37*
G36*
X21110D02*
X20810Y15120D01*
X20530Y15005D01*
X20290Y14820D01*
X20105Y14580D01*
X19990Y14300D01*
X19950Y14000D01*
X19990Y13700D01*
X20105Y13420D01*
X20290Y13180D01*
X20530Y12995D01*
X20810Y12880D01*
X21110Y12840D01*
X21410Y12880D01*
X21690Y12995D01*
X21930Y13180D01*
X22115Y13420D01*
X22230Y13700D01*
X22270Y14000D01*
X22230Y14300D01*
X22115Y14580D01*
X21930Y14820D01*
X21690Y15005D01*
X21410Y15120D01*
X21110Y15160D01*
D02*
G37*
G36*
X18570D02*
X18270Y15120D01*
X17990Y15005D01*
X17750Y14820D01*
X17565Y14580D01*
X17450Y14300D01*
X17410Y14000D01*
X17450Y13700D01*
X17565Y13420D01*
X17750Y13180D01*
X17990Y12995D01*
X18270Y12880D01*
X18570Y12840D01*
X18870Y12880D01*
X19150Y12995D01*
X19390Y13180D01*
X19575Y13420D01*
X19690Y13700D01*
X19730Y14000D01*
X19690Y14300D01*
X19575Y14580D01*
X19390Y14820D01*
X19150Y15005D01*
X18870Y15120D01*
X18570Y15160D01*
D02*
G37*
G36*
X16030D02*
X15730Y15120D01*
X15450Y15005D01*
X15210Y14820D01*
X15025Y14580D01*
X14910Y14300D01*
X14870Y14000D01*
X14878Y13939D01*
X14878Y13938D01*
X14875Y13820D01*
X14850Y13704D01*
X14800Y13565D01*
X14722Y13404D01*
X14615Y13224D01*
X14481Y13030D01*
X13886Y12330D01*
X13709Y12147D01*
X9123Y7561D01*
X7952D01*
X7694Y7565D01*
X7054Y7605D01*
X6787Y7639D01*
X6550Y7682D01*
X6346Y7733D01*
X6177Y7792D01*
X6043Y7855D01*
X5944Y7920D01*
X5858Y8001D01*
X5857Y8002D01*
X5820Y8050D01*
X5580Y8235D01*
X5300Y8350D01*
X5000Y8390D01*
X4700Y8350D01*
X4420Y8235D01*
X4180Y8050D01*
X3995Y7810D01*
X3880Y7530D01*
X3840Y7230D01*
X3880Y6930D01*
X3995Y6650D01*
X4180Y6410D01*
X4420Y6225D01*
X4700Y6110D01*
X5000Y6070D01*
X5300Y6110D01*
X5580Y6225D01*
X5820Y6410D01*
X5857Y6458D01*
X5858Y6459D01*
X5944Y6540D01*
X6043Y6605D01*
X6177Y6668D01*
X6346Y6727D01*
X6550Y6778D01*
X6781Y6820D01*
X7697Y6895D01*
X7952Y6899D01*
X9260D01*
X9387Y6924D01*
X9494Y6996D01*
X14177Y11678D01*
X14362Y11858D01*
X14842Y12282D01*
X15056Y12447D01*
X15254Y12585D01*
X15434Y12692D01*
X15595Y12770D01*
X15734Y12820D01*
X15850Y12845D01*
X15968Y12848D01*
X15969Y12848D01*
X16030Y12840D01*
X16330Y12880D01*
X16610Y12995D01*
X16850Y13180D01*
X17035Y13420D01*
X17150Y13700D01*
X17190Y14000D01*
X17150Y14300D01*
X17035Y14580D01*
X16850Y14820D01*
X16610Y15005D01*
X16330Y15120D01*
X16030Y15160D01*
D02*
G37*
G36*
X13490D02*
X13190Y15120D01*
X12910Y15005D01*
X12670Y14820D01*
X12485Y14580D01*
X12370Y14300D01*
X12330Y14000D01*
X12370Y13700D01*
X12485Y13420D01*
X12670Y13180D01*
X12910Y12995D01*
X13190Y12880D01*
X13490Y12840D01*
X13790Y12880D01*
X14070Y12995D01*
X14310Y13180D01*
X14495Y13420D01*
X14610Y13700D01*
X14650Y14000D01*
X14610Y14300D01*
X14495Y14580D01*
X14310Y14820D01*
X14070Y15005D01*
X13790Y15120D01*
X13490Y15160D01*
D02*
G37*
G36*
X10950D02*
X10650Y15120D01*
X10370Y15005D01*
X10130Y14820D01*
X9945Y14580D01*
X9830Y14300D01*
X9790Y14000D01*
X9830Y13700D01*
X9945Y13420D01*
X10130Y13180D01*
X10370Y12995D01*
X10650Y12880D01*
X10950Y12840D01*
X11250Y12880D01*
X11530Y12995D01*
X11770Y13180D01*
X11955Y13420D01*
X12070Y13700D01*
X12110Y14000D01*
X12070Y14300D01*
X11955Y14580D01*
X11770Y14820D01*
X11530Y15005D01*
X11250Y15120D01*
X10950Y15160D01*
D02*
G37*
G36*
X8410D02*
X8110Y15120D01*
X7830Y15005D01*
X7590Y14820D01*
X7405Y14580D01*
X7290Y14300D01*
X7250Y14000D01*
X7290Y13700D01*
X7405Y13420D01*
X7590Y13180D01*
X7830Y12995D01*
X8110Y12880D01*
X8410Y12840D01*
X8710Y12880D01*
X8990Y12995D01*
X9230Y13180D01*
X9415Y13420D01*
X9530Y13700D01*
X9570Y14000D01*
X9530Y14300D01*
X9415Y14580D01*
X9230Y14820D01*
X8990Y15005D01*
X8710Y15120D01*
X8410Y15160D01*
D02*
G37*
G36*
X5870D02*
X5570Y15120D01*
X5290Y15005D01*
X5050Y14820D01*
X4865Y14580D01*
X4750Y14300D01*
X4710Y14000D01*
X4750Y13700D01*
X4865Y13420D01*
X5050Y13180D01*
X5290Y12995D01*
X5570Y12880D01*
X5870Y12840D01*
X6170Y12880D01*
X6450Y12995D01*
X6690Y13180D01*
X6875Y13420D01*
X6990Y13700D01*
X7030Y14000D01*
X6990Y14300D01*
X6875Y14580D01*
X6690Y14820D01*
X6450Y15005D01*
X6170Y15120D01*
X5870Y15160D01*
D02*
G37*
G36*
X51590D02*
X51290Y15120D01*
X51010Y15005D01*
X50770Y14820D01*
X50585Y14580D01*
X50470Y14300D01*
X50430Y14000D01*
X50432Y13986D01*
X50425Y13905D01*
X50398Y13783D01*
X50353Y13649D01*
X50287Y13504D01*
X50246Y13430D01*
X50185Y13326D01*
X50066Y13153D01*
X49556Y12548D01*
X44128D01*
X43972Y12517D01*
X43839Y12429D01*
X43839Y12429D01*
X42482Y11072D01*
X26840D01*
X26840Y11072D01*
X26684Y11041D01*
X26552Y10953D01*
X25531Y9932D01*
X17874D01*
X17767Y10045D01*
X17666Y10162D01*
X17633Y10205D01*
X17611Y10238D01*
X17604Y10250D01*
X17569Y10425D01*
X17442Y10616D01*
X17252Y10743D01*
X17028Y10787D01*
X16803Y10743D01*
X16613Y10616D01*
X16486Y10425D01*
X16441Y10201D01*
X16486Y9977D01*
X16613Y9786D01*
X16803Y9659D01*
X16979Y9625D01*
X16990Y9618D01*
X17016Y9600D01*
X17311Y9341D01*
X17416Y9236D01*
X17416Y9236D01*
X17548Y9148D01*
X17704Y9116D01*
X17704Y9116D01*
X25700D01*
X25700Y9116D01*
X25856Y9148D01*
X25989Y9236D01*
X27009Y10256D01*
X33584D01*
X33616Y10136D01*
X33499Y9961D01*
X33454Y9737D01*
X33499Y9512D01*
X33626Y9322D01*
X33816Y9195D01*
X34041Y9151D01*
X34265Y9195D01*
X34455Y9322D01*
X34582Y9512D01*
X34627Y9737D01*
X34582Y9961D01*
X34465Y10136D01*
X34498Y10256D01*
X42651D01*
X42651Y10256D01*
X42807Y10287D01*
X42940Y10376D01*
X44297Y11733D01*
X48833D01*
X48879Y11622D01*
X46598Y9341D01*
X46510Y9208D01*
X46479Y9052D01*
X46479Y9052D01*
Y7697D01*
X46479Y7697D01*
X46510Y7541D01*
X46598Y7409D01*
X47101Y6906D01*
X47101Y6906D01*
X47233Y6818D01*
X47389Y6787D01*
X47596D01*
X47854Y6779D01*
X47998Y6766D01*
X48041Y6759D01*
X48046Y6758D01*
X48203Y6653D01*
X48427Y6608D01*
X48651Y6653D01*
X48842Y6780D01*
X48969Y6970D01*
X49013Y7195D01*
X48969Y7419D01*
X48842Y7609D01*
X48651Y7736D01*
X48427Y7781D01*
X48203Y7736D01*
X48048Y7633D01*
X47558Y7603D01*
X47294Y7866D01*
Y8883D01*
X49538Y11127D01*
X50770D01*
X50770Y11127D01*
X50927Y11158D01*
X51059Y11247D01*
X51636Y11824D01*
X53722D01*
X53722Y11824D01*
X53878Y11855D01*
X54011Y11944D01*
X54418Y12351D01*
X54418Y12351D01*
X54507Y12484D01*
X54538Y12640D01*
Y12826D01*
X54540Y12836D01*
X54542Y12840D01*
X54542Y12840D01*
X54545Y12843D01*
X54547Y12844D01*
X54580D01*
X54763Y12868D01*
X54933Y12939D01*
X55079Y13051D01*
X55191Y13197D01*
X55262Y13367D01*
X55286Y13550D01*
Y14450D01*
X55262Y14633D01*
X55191Y14803D01*
X55079Y14949D01*
X54933Y15061D01*
X54763Y15132D01*
X54580Y15156D01*
X53680D01*
X53497Y15132D01*
X53327Y15061D01*
X53181Y14949D01*
X53069Y14803D01*
X52998Y14633D01*
X52974Y14450D01*
Y13550D01*
X52998Y13367D01*
X53069Y13197D01*
X53181Y13051D01*
X53327Y12939D01*
X53497Y12868D01*
X53598Y12855D01*
X53641Y12728D01*
X53553Y12640D01*
X51467D01*
X51311Y12609D01*
X51179Y12520D01*
X51179Y12520D01*
X50602Y11943D01*
X50293D01*
X50248Y12063D01*
X50548Y12327D01*
X50738Y12472D01*
X50916Y12595D01*
X51020Y12656D01*
X51094Y12697D01*
X51239Y12763D01*
X51373Y12808D01*
X51495Y12835D01*
X51576Y12842D01*
X51590Y12840D01*
X51890Y12880D01*
X52170Y12995D01*
X52410Y13180D01*
X52595Y13420D01*
X52710Y13700D01*
X52750Y14000D01*
X52710Y14300D01*
X52595Y14580D01*
X52410Y14820D01*
X52170Y15005D01*
X51890Y15120D01*
X51590Y15160D01*
D02*
G37*
G36*
X32670Y10118D02*
X32445Y10073D01*
X32255Y9946D01*
X32128Y9756D01*
X32084Y9531D01*
X32128Y9307D01*
X32255Y9117D01*
X32445Y8990D01*
X32670Y8945D01*
X32894Y8990D01*
X33084Y9117D01*
X33211Y9307D01*
X33256Y9531D01*
X33211Y9756D01*
X33084Y9946D01*
X32894Y10073D01*
X32670Y10118D01*
D02*
G37*
G36*
X5450Y10926D02*
X4550D01*
X4367Y10902D01*
X4197Y10831D01*
X4051Y10719D01*
X3939Y10573D01*
X3868Y10403D01*
X3844Y10220D01*
Y9320D01*
X3868Y9137D01*
X3939Y8967D01*
X4051Y8821D01*
X4197Y8709D01*
X4367Y8638D01*
X4550Y8614D01*
X5450D01*
X5633Y8638D01*
X5803Y8709D01*
X5949Y8821D01*
X6061Y8967D01*
X6132Y9137D01*
X6156Y9320D01*
Y10220D01*
X6132Y10403D01*
X6061Y10573D01*
X5949Y10719D01*
X5803Y10831D01*
X5633Y10902D01*
X5450Y10926D01*
D02*
G37*
G36*
X33223Y7108D02*
X32998Y7063D01*
X32808Y6936D01*
X32681Y6746D01*
X32636Y6521D01*
X32681Y6297D01*
X32808Y6107D01*
X32998Y5980D01*
X33223Y5935D01*
X33447Y5980D01*
X33637Y6107D01*
X33764Y6297D01*
X33809Y6521D01*
X33764Y6746D01*
X33637Y6936D01*
X33447Y7063D01*
X33223Y7108D01*
D02*
G37*
G36*
X61400Y5189D02*
X58900D01*
Y4339D01*
X61400D01*
Y5189D01*
D02*
G37*
G36*
X27402Y4606D02*
X26902D01*
Y4244D01*
X27402D01*
Y4606D01*
D02*
G37*
G36*
X29769Y4845D02*
X29544Y4800D01*
X29354Y4673D01*
X29227Y4483D01*
X29182Y4259D01*
X29227Y4034D01*
X29354Y3844D01*
X29544Y3717D01*
X29769Y3672D01*
X29993Y3717D01*
X30183Y3844D01*
X30310Y4034D01*
X30355Y4259D01*
X30310Y4483D01*
X30183Y4673D01*
X29993Y4800D01*
X29769Y4845D01*
D02*
G37*
G36*
X48427Y6381D02*
X48203Y6336D01*
X48013Y6209D01*
X47886Y6019D01*
X47841Y5794D01*
X47886Y5570D01*
X48013Y5380D01*
X48066Y5344D01*
X48070Y5269D01*
Y5188D01*
X48097Y5052D01*
X48175Y4936D01*
X50136Y2975D01*
Y643D01*
X50163Y506D01*
X50240Y390D01*
X50450Y181D01*
Y-6217D01*
X50369Y-6285D01*
X50245Y-6263D01*
X50153Y-6126D01*
X49963Y-5999D01*
X49738Y-5954D01*
X49675Y-5967D01*
X49622Y-5855D01*
X49632Y-5846D01*
X49683Y-5810D01*
X49722Y-5785D01*
X49729Y-5781D01*
X49742Y-5784D01*
X49967Y-5739D01*
X50157Y-5612D01*
X50284Y-5422D01*
X50329Y-5197D01*
X50284Y-4973D01*
X50157Y-4783D01*
X49967Y-4656D01*
X49742Y-4611D01*
X49518Y-4656D01*
X49328Y-4783D01*
X49201Y-4973D01*
X49156Y-5197D01*
X49159Y-5211D01*
X49155Y-5218D01*
X49130Y-5257D01*
X49096Y-5304D01*
X48825Y-5610D01*
X48538Y-5898D01*
X34402D01*
X32500Y-3995D01*
X28152Y352D01*
X28037Y430D01*
X27900Y457D01*
X26244D01*
X26132Y569D01*
X26017Y646D01*
X25880Y673D01*
X23927D01*
X23851Y658D01*
X23711Y686D01*
X23486Y642D01*
X23296Y515D01*
X23169Y324D01*
X23124Y100D01*
X23165Y-105D01*
X23107Y-225D01*
X22800D01*
Y-712D01*
X23550D01*
X24300D01*
Y-225D01*
X24300D01*
X24318Y-112D01*
X24360Y-95D01*
X24423Y-76D01*
X24494Y-61D01*
X24688Y-41D01*
X24712Y-40D01*
X25732D01*
X25844Y-152D01*
X25960Y-230D01*
X26097Y-257D01*
X27752D01*
X31995Y-4499D01*
X34002Y-6507D01*
X34118Y-6584D01*
X34254Y-6611D01*
X48685D01*
X48822Y-6584D01*
X48938Y-6507D01*
X49061Y-6384D01*
X49171Y-6443D01*
X49152Y-6540D01*
X49197Y-6765D01*
X49226Y-6809D01*
X49170Y-6915D01*
X31528D01*
X31392Y-6942D01*
X31276Y-7019D01*
X30918Y-7377D01*
X30763Y-7521D01*
X30625Y-7637D01*
X30574Y-7673D01*
X30535Y-7698D01*
X30528Y-7702D01*
X30515Y-7699D01*
X30290Y-7744D01*
X30100Y-7871D01*
X29973Y-8061D01*
X29928Y-8285D01*
X29935Y-8318D01*
X29859Y-8411D01*
X29084D01*
Y-6718D01*
X28930D01*
Y-6430D01*
X28907Y-6260D01*
X28869Y-6167D01*
X28842Y-6102D01*
X28737Y-5966D01*
X28714Y-5942D01*
X28578Y-5838D01*
X28420Y-5772D01*
X28250Y-5750D01*
X28128Y-5766D01*
X28063Y-5654D01*
X28159Y-5512D01*
X28166Y-5472D01*
X28192Y-5434D01*
X28236Y-5210D01*
X28192Y-4986D01*
X28065Y-4795D01*
X27874Y-4668D01*
X27650Y-4624D01*
X27426Y-4668D01*
X27235Y-4795D01*
X27108Y-4986D01*
X27096Y-5049D01*
X26769Y-5375D01*
X26337D01*
X26237Y-5327D01*
Y-5275D01*
X25700D01*
Y-6125D01*
Y-6984D01*
X25717Y-6985D01*
X25719Y-6991D01*
Y-8411D01*
X23986D01*
X20991Y-5415D01*
X20992Y-5400D01*
X21119Y-5210D01*
X21164Y-4985D01*
X21119Y-4761D01*
X20992Y-4571D01*
X20802Y-4444D01*
X20578Y-4399D01*
X20353Y-4444D01*
X20163Y-4571D01*
X20036Y-4761D01*
X19992Y-4985D01*
X20036Y-5210D01*
X20163Y-5400D01*
X20221Y-5438D01*
Y-5507D01*
X20248Y-5644D01*
X20325Y-5759D01*
X23586Y-9020D01*
X23702Y-9097D01*
X23838Y-9125D01*
X29894D01*
X29983Y-9213D01*
X30098Y-9290D01*
X30235Y-9317D01*
X35863D01*
X36339Y-9794D01*
X36293Y-9904D01*
X35814D01*
Y-9905D01*
X35177D01*
X35167Y-9903D01*
X35158Y-9905D01*
X34914D01*
Y-9934D01*
X34758Y-9944D01*
X32611D01*
X32397Y-9986D01*
X32215Y-10108D01*
X31954Y-10369D01*
X31318Y-10571D01*
X30473Y-9727D01*
X30390Y-9671D01*
X30324Y-9658D01*
Y-9654D01*
X30305D01*
X30293Y-9652D01*
X29351D01*
X29338Y-9654D01*
X29099D01*
Y-9654D01*
X29049Y-9704D01*
X28699Y-9704D01*
Y-9704D01*
X28436D01*
Y-10404D01*
Y-11104D01*
X28699D01*
Y-11104D01*
X28982Y-11104D01*
X29037Y-11190D01*
X28988Y-11280D01*
X28846D01*
Y-11830D01*
Y-12380D01*
X29071D01*
Y-12430D01*
X29156D01*
X29170Y-12450D01*
X29170Y-12450D01*
X29170Y-12450D01*
X29617Y-12897D01*
Y-13080D01*
X29497Y-13139D01*
X29310Y-12995D01*
X29030Y-12880D01*
X29030Y-12880D01*
Y-14000D01*
X28730D01*
Y-14300D01*
X27610D01*
X27610Y-14300D01*
X27725Y-14580D01*
X27889Y-14793D01*
X27849Y-14913D01*
X27071D01*
X27031Y-14793D01*
X27195Y-14580D01*
X27310Y-14300D01*
X27350Y-14000D01*
X27310Y-13700D01*
X27195Y-13420D01*
X27010Y-13180D01*
X26770Y-12995D01*
X26490Y-12880D01*
X26190Y-12840D01*
X25890Y-12880D01*
X25610Y-12995D01*
X25370Y-13180D01*
X25185Y-13420D01*
X25070Y-13700D01*
X25030Y-14000D01*
X25070Y-14300D01*
X25185Y-14580D01*
X25349Y-14793D01*
X25309Y-14913D01*
X24531D01*
X24491Y-14793D01*
X24655Y-14580D01*
X24770Y-14300D01*
X24810Y-14000D01*
X24770Y-13700D01*
X24655Y-13420D01*
X24470Y-13180D01*
X24230Y-12995D01*
X23950Y-12880D01*
X23650Y-12840D01*
X23350Y-12880D01*
X23070Y-12995D01*
X22932Y-13101D01*
X22812Y-13042D01*
Y-8801D01*
X22785Y-8664D01*
X22708Y-8549D01*
X19382Y-5223D01*
Y-4387D01*
X19355Y-4250D01*
X19277Y-4135D01*
X16825Y-1682D01*
Y-578D01*
X20946Y3544D01*
X23241D01*
X23241Y3544D01*
X24431D01*
X24643Y3536D01*
X24789Y3523D01*
X24806Y3511D01*
X24824Y3493D01*
X24916Y3432D01*
X24939Y3423D01*
X24960Y3409D01*
X25061Y3367D01*
X25086Y3362D01*
X25110Y3353D01*
X25217Y3332D01*
X25243Y3332D01*
X25268Y3327D01*
X25294Y3327D01*
X25359Y3314D01*
X25583Y3359D01*
X25597Y3368D01*
X25702Y3312D01*
Y3181D01*
X25615Y3101D01*
X25328D01*
X25159Y3079D01*
X25086Y3049D01*
X25042Y3092D01*
X24907Y3196D01*
X24749Y3262D01*
X24579Y3284D01*
X24409Y3262D01*
X24251Y3196D01*
X24115Y3092D01*
X24011Y2956D01*
X23946Y2798D01*
X23923Y2628D01*
X23946Y2459D01*
X24011Y2301D01*
X24115Y2165D01*
X24893Y1387D01*
X25029Y1283D01*
X25187Y1217D01*
X25357Y1195D01*
X25526Y1217D01*
X25684Y1283D01*
X25820Y1387D01*
X25924Y1523D01*
X25990Y1681D01*
X26004Y1790D01*
X27361D01*
X27423Y1764D01*
X27593Y1742D01*
X27763Y1764D01*
X27921Y1830D01*
X28057Y1934D01*
X28161Y2070D01*
X28226Y2228D01*
X28249Y2397D01*
X28226Y2567D01*
X28161Y2725D01*
X28057Y2861D01*
X28008Y2909D01*
X27872Y3014D01*
X27714Y3079D01*
X27545Y3101D01*
X27489D01*
X27402Y3181D01*
Y3544D01*
X26552D01*
Y3894D01*
X26202D01*
Y4606D01*
X25702D01*
Y4490D01*
X25597Y4433D01*
X25583Y4442D01*
X25359Y4487D01*
X25314Y4478D01*
X25301D01*
X25301Y4478D01*
X25250Y4478D01*
X25226Y4473D01*
X25201D01*
X25100Y4453D01*
X25077Y4444D01*
X25053Y4439D01*
X24958Y4400D01*
X24937Y4386D01*
X24914Y4376D01*
X24829Y4319D01*
X24811Y4302D01*
X24790Y4288D01*
X24782Y4280D01*
X24418Y4258D01*
X23241D01*
X23241Y4258D01*
X20799D01*
X20662Y4230D01*
X20546Y4153D01*
X16215Y-178D01*
X16138Y-293D01*
X16111Y-430D01*
Y-1830D01*
X16138Y-1966D01*
X16215Y-2082D01*
X18369Y-4235D01*
X18310Y-4346D01*
X18275Y-4339D01*
X18050Y-4384D01*
X17860Y-4511D01*
X17733Y-4701D01*
X17688Y-4925D01*
X17693Y-4951D01*
X17684Y-4972D01*
X17661Y-5012D01*
X17629Y-5059D01*
X17359Y-5373D01*
X13293Y-9439D01*
X7952D01*
X7694Y-9435D01*
X7054Y-9395D01*
X6787Y-9361D01*
X6550Y-9318D01*
X6346Y-9267D01*
X6177Y-9208D01*
X6043Y-9145D01*
X5944Y-9080D01*
X5858Y-8999D01*
X5857Y-8998D01*
X5820Y-8950D01*
X5580Y-8765D01*
X5300Y-8650D01*
X5000Y-8610D01*
X4700Y-8650D01*
X4420Y-8765D01*
X4180Y-8950D01*
X3995Y-9190D01*
X3880Y-9470D01*
X3840Y-9770D01*
X3880Y-10070D01*
X3995Y-10350D01*
X4180Y-10590D01*
X4420Y-10775D01*
X4700Y-10890D01*
X5000Y-10930D01*
X5300Y-10890D01*
X5580Y-10775D01*
X5820Y-10590D01*
X5857Y-10542D01*
X5858Y-10541D01*
X5944Y-10460D01*
X6043Y-10395D01*
X6177Y-10332D01*
X6346Y-10273D01*
X6550Y-10222D01*
X6781Y-10180D01*
X7697Y-10105D01*
X7952Y-10101D01*
X13430D01*
X13557Y-10076D01*
X13664Y-10004D01*
X17783Y-5886D01*
X17918Y-5756D01*
X18073Y-5622D01*
X18135Y-5575D01*
X18188Y-5539D01*
X18228Y-5516D01*
X18249Y-5507D01*
X18275Y-5512D01*
X18499Y-5467D01*
X18557Y-5428D01*
X18691Y-5483D01*
X18695Y-5507D01*
X18773Y-5623D01*
X22099Y-8949D01*
Y-13213D01*
X21985Y-13251D01*
X21930Y-13180D01*
X21690Y-12995D01*
X21410Y-12880D01*
X21110Y-12840D01*
X20810Y-12880D01*
X20530Y-12995D01*
X20290Y-13180D01*
X20105Y-13420D01*
X19990Y-13700D01*
X19950Y-14000D01*
X19990Y-14300D01*
X20105Y-14580D01*
X20290Y-14820D01*
X20530Y-15005D01*
X20810Y-15120D01*
X21110Y-15160D01*
X21410Y-15120D01*
X21690Y-15005D01*
X21930Y-14820D01*
X21985Y-14749D01*
X22099Y-14787D01*
Y-14823D01*
X22126Y-14960D01*
X22203Y-15076D01*
X22650Y-15522D01*
X22765Y-15600D01*
X22902Y-15627D01*
X38137D01*
X38274Y-15600D01*
X38390Y-15522D01*
X38768Y-15144D01*
X38890Y-15160D01*
X39190Y-15120D01*
X39470Y-15005D01*
X39710Y-14820D01*
X39895Y-14580D01*
X40010Y-14300D01*
X40050Y-14000D01*
X40010Y-13700D01*
X39895Y-13420D01*
X39710Y-13180D01*
X39470Y-12995D01*
X39190Y-12880D01*
X38890Y-12840D01*
X38590Y-12880D01*
X38310Y-12995D01*
X38070Y-13180D01*
X37885Y-13420D01*
X37770Y-13700D01*
X37730Y-14000D01*
X37770Y-14300D01*
X37885Y-14580D01*
X38070Y-14820D01*
X38070Y-14827D01*
X37987Y-14913D01*
X37231D01*
X37191Y-14793D01*
X37355Y-14580D01*
X37470Y-14300D01*
X37510Y-14000D01*
X37470Y-13700D01*
X37355Y-13420D01*
X37170Y-13180D01*
X37056Y-13092D01*
X37052Y-13087D01*
X37033Y-13068D01*
X37022Y-13049D01*
X37001Y-12994D01*
X36979Y-12908D01*
X36959Y-12801D01*
X36924Y-12322D01*
X36925Y-12315D01*
X36926Y-12314D01*
X36928Y-12310D01*
X36952Y-12274D01*
X36953Y-12268D01*
X36956Y-12262D01*
X36963Y-12219D01*
X36971Y-12177D01*
X36970Y-12170D01*
X36971Y-12163D01*
X36960Y-12122D01*
X36952Y-12079D01*
X36948Y-12074D01*
X36946Y-12067D01*
X36920Y-12032D01*
X36911Y-12018D01*
Y-11926D01*
X36930Y-11830D01*
X36900Y-11679D01*
Y-10524D01*
X36947Y-10490D01*
X37015Y-10470D01*
X37784Y-11238D01*
X37900Y-11316D01*
X38036Y-11343D01*
X50311D01*
X50462Y-11494D01*
X50533Y-11592D01*
X50534Y-11593D01*
X50535Y-11593D01*
X50633Y-11664D01*
X51003Y-12034D01*
Y-12089D01*
X51001Y-12163D01*
X50976Y-12516D01*
X50955Y-12663D01*
X50928Y-12797D01*
X50897Y-12914D01*
X50861Y-13015D01*
X50822Y-13098D01*
X50782Y-13165D01*
X50770Y-13180D01*
X50770Y-13180D01*
X50769Y-13181D01*
X50729Y-13231D01*
X50726Y-13237D01*
X50585Y-13420D01*
X50470Y-13700D01*
X50430Y-14000D01*
X50470Y-14300D01*
X50585Y-14580D01*
X50770Y-14820D01*
X51010Y-15005D01*
X51290Y-15120D01*
X51590Y-15160D01*
X51890Y-15120D01*
X52170Y-15005D01*
X52410Y-14820D01*
X52595Y-14580D01*
X52710Y-14300D01*
X52750Y-14000D01*
X52710Y-13700D01*
X52595Y-13420D01*
X52410Y-13180D01*
X52170Y-12995D01*
X51974Y-12914D01*
X51969Y-12910D01*
X51919Y-12888D01*
X51895Y-12869D01*
X51866Y-12835D01*
X51834Y-12780D01*
X51802Y-12701D01*
X51772Y-12599D01*
X51748Y-12477D01*
X51718Y-12155D01*
X51717Y-12089D01*
X51720Y-11969D01*
X51720D01*
X51678Y-11755D01*
X51556Y-11573D01*
X51555Y-11572D01*
X51468Y-11491D01*
X51120Y-11143D01*
X51170Y-11023D01*
X52555D01*
X53773Y-12241D01*
Y-12844D01*
X53680D01*
X53497Y-12868D01*
X53327Y-12939D01*
X53181Y-13051D01*
X53069Y-13197D01*
X52998Y-13367D01*
X52974Y-13550D01*
Y-14450D01*
X52998Y-14633D01*
X53069Y-14803D01*
X53181Y-14949D01*
X53327Y-15061D01*
X53497Y-15132D01*
X53680Y-15156D01*
X54580D01*
X54763Y-15132D01*
X54933Y-15061D01*
X55079Y-14949D01*
X55191Y-14803D01*
X55262Y-14633D01*
X55286Y-14450D01*
Y-13550D01*
X55262Y-13367D01*
X55191Y-13197D01*
X55079Y-13051D01*
X54933Y-12939D01*
X54763Y-12868D01*
X54580Y-12844D01*
X54487D01*
Y-12176D01*
X54491D01*
X54448Y-11962D01*
X54327Y-11780D01*
X54324Y-11778D01*
X54238Y-11696D01*
X53099Y-10557D01*
X53017Y-10471D01*
X53016Y-10469D01*
X52834Y-10348D01*
X52620Y-10305D01*
Y-10309D01*
X52620Y-10309D01*
X38821D01*
X37136Y-8623D01*
X36991Y-8468D01*
X36876Y-8330D01*
X36840Y-8280D01*
X36815Y-8241D01*
X36811Y-8233D01*
X36814Y-8220D01*
X36769Y-7996D01*
X36642Y-7805D01*
X36557Y-7749D01*
X36593Y-7629D01*
X49937D01*
X50074Y-7602D01*
X50189Y-7524D01*
X50197Y-7517D01*
X50270Y-7468D01*
X50666Y-7072D01*
X50714Y-6999D01*
X51059Y-6655D01*
X51136Y-6539D01*
X51164Y-6402D01*
Y328D01*
X51136Y465D01*
X51059Y581D01*
X50849Y790D01*
Y3123D01*
X50822Y3259D01*
X50745Y3375D01*
X48867Y5253D01*
X48842Y5380D01*
X48969Y5570D01*
X49013Y5794D01*
X48969Y6019D01*
X48842Y6209D01*
X48651Y6336D01*
X48427Y6381D01*
D02*
G37*
G36*
X61400Y3639D02*
X58900D01*
Y2789D01*
X61400D01*
Y3639D01*
D02*
G37*
G36*
X30008Y1991D02*
X29784Y1946D01*
X29594Y1819D01*
X29467Y1629D01*
X29422Y1405D01*
X29467Y1180D01*
X29594Y990D01*
X29784Y863D01*
X30008Y818D01*
X30233Y863D01*
X30423Y990D01*
X30550Y1180D01*
X30594Y1405D01*
X30550Y1629D01*
X30423Y1819D01*
X30233Y1946D01*
X30008Y1991D01*
D02*
G37*
G36*
X26500Y-825D02*
X26025D01*
Y-1225D01*
X26500D01*
Y-825D01*
D02*
G37*
G36*
X25775D02*
X25300D01*
Y-1225D01*
X25775D01*
Y-825D01*
D02*
G37*
G36*
X24300Y-962D02*
X23550D01*
X22800D01*
Y-1450D01*
X22850D01*
Y-1650D01*
X22800D01*
Y-1855D01*
X22217D01*
X22212Y-1854D01*
X22208Y-1842D01*
X22204Y-1816D01*
X22202Y-1766D01*
X22200Y-1760D01*
Y-1525D01*
X21956D01*
X21947Y-1523D01*
X21941Y-1524D01*
X21935Y-1523D01*
X21929Y-1525D01*
X19372D01*
X19366Y-1523D01*
X19359Y-1524D01*
X19353Y-1523D01*
X19344Y-1525D01*
X19100D01*
Y-1718D01*
X19099Y-1722D01*
X19033Y-1801D01*
X18984Y-1828D01*
X18930Y-1824D01*
X18890Y-1819D01*
X18724Y-1708D01*
X18500Y-1664D01*
X18276Y-1708D01*
X18085Y-1835D01*
X17958Y-2026D01*
X17914Y-2250D01*
X17958Y-2474D01*
X18085Y-2665D01*
X18276Y-2792D01*
X18500Y-2836D01*
X18724Y-2792D01*
X18877Y-2690D01*
X18980Y-2683D01*
X19020Y-2701D01*
X19100Y-2796D01*
Y-2975D01*
X19344D01*
X19353Y-2977D01*
X19359Y-2976D01*
X19366Y-2977D01*
X19372Y-2975D01*
X21928D01*
X21934Y-2977D01*
X21940Y-2976D01*
X21947Y-2977D01*
X21956Y-2975D01*
X22200D01*
Y-2741D01*
X22202Y-2735D01*
X22204Y-2691D01*
X22207Y-2672D01*
X22214Y-2670D01*
X22800D01*
Y-2875D01*
X23044D01*
X23053Y-2877D01*
X23062Y-2875D01*
X23063D01*
X23072Y-2876D01*
X23076Y-2875D01*
X24024D01*
X24028Y-2876D01*
X24038Y-2875D01*
X24047Y-2877D01*
X24056Y-2875D01*
X24300D01*
Y-2664D01*
X24760D01*
X24836Y-2757D01*
X24830Y-2788D01*
X24876Y-3022D01*
X25009Y-3221D01*
X25207Y-3353D01*
X25441Y-3400D01*
X25676Y-3353D01*
X25874Y-3221D01*
X26320Y-2775D01*
X26500D01*
Y-2389D01*
X26512Y-2330D01*
X26500Y-2271D01*
Y-1875D01*
X26500D01*
Y-1475D01*
X25900D01*
X25300D01*
Y-1725D01*
X25300D01*
Y-1848D01*
X24300D01*
Y-1650D01*
X24250D01*
Y-1450D01*
X24300D01*
Y-962D01*
D02*
G37*
G36*
X33359Y-1891D02*
X33135Y-1936D01*
X32944Y-2063D01*
X32817Y-2253D01*
X32773Y-2477D01*
X32817Y-2702D01*
X32944Y-2892D01*
X33135Y-3019D01*
X33359Y-3063D01*
X33583Y-3019D01*
X33774Y-2892D01*
X33901Y-2702D01*
X33945Y-2477D01*
X33901Y-2253D01*
X33774Y-2063D01*
X33583Y-1936D01*
X33359Y-1891D01*
D02*
G37*
G36*
X61400Y-3311D02*
X58900D01*
Y-4161D01*
X61400D01*
Y-3311D01*
D02*
G37*
G36*
Y-4861D02*
X58900D01*
Y-5711D01*
X61400D01*
Y-4861D01*
D02*
G37*
G36*
X25350Y-5275D02*
X24812D01*
Y-5950D01*
X25350D01*
Y-5275D01*
D02*
G37*
G36*
X23744Y-3973D02*
X23520Y-4017D01*
X23330Y-4145D01*
X23202Y-4335D01*
X23158Y-4559D01*
X23202Y-4783D01*
X23252Y-4857D01*
X23206Y-4968D01*
X23088Y-4991D01*
X22897Y-5119D01*
X22770Y-5309D01*
X22726Y-5533D01*
X22770Y-5757D01*
X22897Y-5948D01*
X23088Y-6075D01*
X23312Y-6119D01*
X23536Y-6075D01*
X23727Y-5948D01*
X23854Y-5757D01*
X23898Y-5533D01*
X23854Y-5309D01*
X23804Y-5235D01*
X23850Y-5124D01*
X23968Y-5101D01*
X24159Y-4974D01*
X24286Y-4783D01*
X24330Y-4559D01*
X24286Y-4335D01*
X24159Y-4145D01*
X23968Y-4017D01*
X23744Y-3973D01*
D02*
G37*
G36*
X30409Y-4588D02*
X30184Y-4633D01*
X29994Y-4760D01*
X29867Y-4950D01*
X29856Y-5006D01*
X29694Y-5168D01*
X29583Y-5334D01*
X29575Y-5375D01*
X29400D01*
Y-6275D01*
X29400D01*
Y-6675D01*
X30000D01*
X30600D01*
Y-6425D01*
X30600D01*
Y-5723D01*
X30633Y-5716D01*
X30823Y-5589D01*
X30950Y-5399D01*
X30995Y-5175D01*
X30950Y-4950D01*
X30823Y-4760D01*
X30633Y-4633D01*
X30409Y-4588D01*
D02*
G37*
G36*
X25350Y-6300D02*
X24812D01*
Y-6975D01*
X25350D01*
Y-6300D01*
D02*
G37*
G36*
X30600Y-6925D02*
X30125D01*
Y-7325D01*
X30600D01*
Y-6925D01*
D02*
G37*
G36*
X29875D02*
X29400D01*
Y-7325D01*
X29875D01*
Y-6925D01*
D02*
G37*
G36*
X5450Y-6074D02*
X4550D01*
X4367Y-6098D01*
X4197Y-6169D01*
X4051Y-6281D01*
X3939Y-6427D01*
X3868Y-6597D01*
X3844Y-6780D01*
Y-7680D01*
X3868Y-7863D01*
X3939Y-8033D01*
X4051Y-8179D01*
X4197Y-8291D01*
X4367Y-8362D01*
X4550Y-8386D01*
X5450D01*
X5633Y-8362D01*
X5803Y-8291D01*
X5949Y-8179D01*
X6061Y-8033D01*
X6132Y-7863D01*
X6156Y-7680D01*
Y-6780D01*
X6132Y-6597D01*
X6061Y-6427D01*
X5949Y-6281D01*
X5803Y-6169D01*
X5633Y-6098D01*
X5450Y-6074D01*
D02*
G37*
G36*
X28136Y-9704D02*
X27724D01*
Y-10254D01*
X28136D01*
Y-9704D01*
D02*
G37*
G36*
Y-10554D02*
X27724D01*
Y-11104D01*
X28136D01*
Y-10554D01*
D02*
G37*
G36*
X28546Y-11280D02*
X28221D01*
Y-11680D01*
X28546D01*
Y-11280D01*
D02*
G37*
G36*
Y-11980D02*
X28221D01*
Y-12380D01*
X28546D01*
Y-11980D01*
D02*
G37*
G36*
X28430Y-12880D02*
X28430Y-12880D01*
X28150Y-12995D01*
X27910Y-13180D01*
X27725Y-13420D01*
X27610Y-13700D01*
X27610Y-13700D01*
X28430D01*
Y-12880D01*
D02*
G37*
G36*
X41555Y-12857D02*
Y-13875D01*
X42573D01*
X42550Y-13700D01*
X42435Y-13420D01*
X42250Y-13180D01*
X42010Y-12995D01*
X41730Y-12880D01*
X41555Y-12857D01*
D02*
G37*
G36*
X41305Y-12857D02*
X41130Y-12880D01*
X40850Y-12995D01*
X40610Y-13180D01*
X40425Y-13420D01*
X40310Y-13700D01*
X40287Y-13875D01*
X41305D01*
Y-12857D01*
D02*
G37*
G36*
X42573Y-14125D02*
X41555D01*
Y-15143D01*
X41730Y-15120D01*
X42010Y-15005D01*
X42250Y-14820D01*
X42435Y-14580D01*
X42550Y-14300D01*
X42573Y-14125D01*
D02*
G37*
G36*
X41305D02*
X40287D01*
X40310Y-14300D01*
X40425Y-14580D01*
X40610Y-14820D01*
X40850Y-15005D01*
X41130Y-15120D01*
X41305Y-15143D01*
Y-14125D01*
D02*
G37*
G36*
X49050Y-12840D02*
X48750Y-12880D01*
X48470Y-12995D01*
X48230Y-13180D01*
X48045Y-13420D01*
X47930Y-13700D01*
X47890Y-14000D01*
X47930Y-14300D01*
X48045Y-14580D01*
X48230Y-14820D01*
X48470Y-15005D01*
X48750Y-15120D01*
X49050Y-15160D01*
X49350Y-15120D01*
X49630Y-15005D01*
X49870Y-14820D01*
X50055Y-14580D01*
X50170Y-14300D01*
X50210Y-14000D01*
X50170Y-13700D01*
X50055Y-13420D01*
X49870Y-13180D01*
X49630Y-12995D01*
X49350Y-12880D01*
X49050Y-12840D01*
D02*
G37*
G36*
X46510D02*
X46210Y-12880D01*
X45930Y-12995D01*
X45690Y-13180D01*
X45505Y-13420D01*
X45390Y-13700D01*
X45350Y-14000D01*
X45390Y-14300D01*
X45505Y-14580D01*
X45690Y-14820D01*
X45930Y-15005D01*
X46210Y-15120D01*
X46510Y-15160D01*
X46810Y-15120D01*
X47090Y-15005D01*
X47330Y-14820D01*
X47515Y-14580D01*
X47630Y-14300D01*
X47670Y-14000D01*
X47630Y-13700D01*
X47515Y-13420D01*
X47330Y-13180D01*
X47090Y-12995D01*
X46810Y-12880D01*
X46510Y-12840D01*
D02*
G37*
G36*
X43970D02*
X43670Y-12880D01*
X43390Y-12995D01*
X43150Y-13180D01*
X42965Y-13420D01*
X42850Y-13700D01*
X42810Y-14000D01*
X42850Y-14300D01*
X42965Y-14580D01*
X43150Y-14820D01*
X43390Y-15005D01*
X43670Y-15120D01*
X43970Y-15160D01*
X44270Y-15120D01*
X44550Y-15005D01*
X44790Y-14820D01*
X44975Y-14580D01*
X45090Y-14300D01*
X45130Y-14000D01*
X45090Y-13700D01*
X44975Y-13420D01*
X44790Y-13180D01*
X44550Y-12995D01*
X44270Y-12880D01*
X43970Y-12840D01*
D02*
G37*
G36*
X18570D02*
X18270Y-12880D01*
X17990Y-12995D01*
X17750Y-13180D01*
X17565Y-13420D01*
X17450Y-13700D01*
X17410Y-14000D01*
X17450Y-14300D01*
X17565Y-14580D01*
X17750Y-14820D01*
X17990Y-15005D01*
X18270Y-15120D01*
X18570Y-15160D01*
X18870Y-15120D01*
X19150Y-15005D01*
X19390Y-14820D01*
X19575Y-14580D01*
X19690Y-14300D01*
X19730Y-14000D01*
X19690Y-13700D01*
X19575Y-13420D01*
X19390Y-13180D01*
X19150Y-12995D01*
X18870Y-12880D01*
X18570Y-12840D01*
D02*
G37*
G36*
X16030D02*
X15730Y-12880D01*
X15450Y-12995D01*
X15210Y-13180D01*
X15025Y-13420D01*
X14910Y-13700D01*
X14870Y-14000D01*
X14910Y-14300D01*
X15025Y-14580D01*
X15210Y-14820D01*
X15450Y-15005D01*
X15730Y-15120D01*
X16030Y-15160D01*
X16330Y-15120D01*
X16610Y-15005D01*
X16850Y-14820D01*
X17035Y-14580D01*
X17150Y-14300D01*
X17190Y-14000D01*
X17150Y-13700D01*
X17035Y-13420D01*
X16850Y-13180D01*
X16610Y-12995D01*
X16330Y-12880D01*
X16030Y-12840D01*
D02*
G37*
G36*
X13490D02*
X13190Y-12880D01*
X12910Y-12995D01*
X12670Y-13180D01*
X12485Y-13420D01*
X12370Y-13700D01*
X12330Y-14000D01*
X12370Y-14300D01*
X12485Y-14580D01*
X12670Y-14820D01*
X12910Y-15005D01*
X13190Y-15120D01*
X13490Y-15160D01*
X13790Y-15120D01*
X14070Y-15005D01*
X14310Y-14820D01*
X14495Y-14580D01*
X14610Y-14300D01*
X14650Y-14000D01*
X14610Y-13700D01*
X14495Y-13420D01*
X14310Y-13180D01*
X14070Y-12995D01*
X13790Y-12880D01*
X13490Y-12840D01*
D02*
G37*
G36*
X10950D02*
X10650Y-12880D01*
X10370Y-12995D01*
X10130Y-13180D01*
X9945Y-13420D01*
X9830Y-13700D01*
X9790Y-14000D01*
X9830Y-14300D01*
X9945Y-14580D01*
X10130Y-14820D01*
X10370Y-15005D01*
X10650Y-15120D01*
X10950Y-15160D01*
X11250Y-15120D01*
X11530Y-15005D01*
X11770Y-14820D01*
X11955Y-14580D01*
X12070Y-14300D01*
X12110Y-14000D01*
X12070Y-13700D01*
X11955Y-13420D01*
X11770Y-13180D01*
X11530Y-12995D01*
X11250Y-12880D01*
X10950Y-12840D01*
D02*
G37*
G36*
X8410D02*
X8110Y-12880D01*
X7830Y-12995D01*
X7590Y-13180D01*
X7405Y-13420D01*
X7290Y-13700D01*
X7250Y-14000D01*
X7290Y-14300D01*
X7405Y-14580D01*
X7590Y-14820D01*
X7830Y-15005D01*
X8110Y-15120D01*
X8410Y-15160D01*
X8710Y-15120D01*
X8990Y-15005D01*
X9230Y-14820D01*
X9415Y-14580D01*
X9530Y-14300D01*
X9570Y-14000D01*
X9530Y-13700D01*
X9415Y-13420D01*
X9230Y-13180D01*
X8990Y-12995D01*
X8710Y-12880D01*
X8410Y-12840D01*
D02*
G37*
G36*
X5870D02*
X5570Y-12880D01*
X5290Y-12995D01*
X5050Y-13180D01*
X4865Y-13420D01*
X4750Y-13700D01*
X4710Y-14000D01*
X4750Y-14300D01*
X4865Y-14580D01*
X5050Y-14820D01*
X5290Y-15005D01*
X5570Y-15120D01*
X5870Y-15160D01*
X6170Y-15120D01*
X6450Y-15005D01*
X6690Y-14820D01*
X6875Y-14580D01*
X6990Y-14300D01*
X7030Y-14000D01*
X6990Y-13700D01*
X6875Y-13420D01*
X6690Y-13180D01*
X6450Y-12995D01*
X6170Y-12880D01*
X5870Y-12840D01*
D02*
G37*
%LPD*%
G36*
X15961Y13103D02*
X15820Y13099D01*
X15665Y13066D01*
X15496Y13006D01*
X15313Y12917D01*
X15116Y12799D01*
X14905Y12653D01*
X14680Y12479D01*
X14188Y12045D01*
X13922Y11785D01*
X13815Y11892D01*
X14075Y12158D01*
X14683Y12875D01*
X14829Y13086D01*
X14947Y13283D01*
X15036Y13466D01*
X15096Y13635D01*
X15129Y13790D01*
X15133Y13931D01*
X15961Y13103D01*
D02*
G37*
G36*
X5786Y7719D02*
X5918Y7632D01*
X6081Y7555D01*
X6273Y7489D01*
X6496Y7433D01*
X6748Y7387D01*
X7030Y7351D01*
X7685Y7310D01*
X8057Y7305D01*
Y7155D01*
X7685Y7150D01*
X6748Y7073D01*
X6496Y7027D01*
X6273Y6971D01*
X6081Y6905D01*
X5918Y6828D01*
X5786Y6741D01*
X5683Y6644D01*
Y7816D01*
X5786Y7719D01*
D02*
G37*
G36*
X54644Y13128D02*
X54567Y13118D01*
X54500Y13101D01*
X54442Y13078D01*
X54392Y13048D01*
X54352Y13012D01*
X54320Y12969D01*
X54298Y12919D01*
X54284Y12862D01*
X54280Y12799D01*
X53980D01*
X53976Y12862D01*
X53962Y12919D01*
X53940Y12969D01*
X53908Y13012D01*
X53868Y13048D01*
X53818Y13078D01*
X53760Y13101D01*
X53693Y13118D01*
X53616Y13128D01*
X53531Y13131D01*
X54729D01*
X54644Y13128D01*
D02*
G37*
G36*
X51603Y13100D02*
X51457Y13088D01*
X51305Y13054D01*
X51145Y13000D01*
X50979Y12925D01*
X50893Y12877D01*
X50779Y12810D01*
X50588Y12679D01*
X50386Y12524D01*
X49949Y12140D01*
X49946D01*
X49836Y12034D01*
X49730Y12140D01*
X49730D01*
X49502Y12124D01*
X49730Y12359D01*
X50269Y12998D01*
X50400Y13189D01*
X50467Y13303D01*
X50515Y13389D01*
X50590Y13555D01*
X50644Y13715D01*
X50678Y13867D01*
X50690Y14013D01*
X51603Y13100D01*
D02*
G37*
G36*
X17357Y10177D02*
X17371Y10144D01*
X17394Y10103D01*
X17426Y10056D01*
X17468Y10002D01*
X17577Y9874D01*
X17810Y9630D01*
X17598Y9418D01*
X17510Y9505D01*
X17172Y9802D01*
X17125Y9834D01*
X17085Y9857D01*
X17051Y9871D01*
X17024Y9876D01*
X17353Y10204D01*
X17357Y10177D01*
D02*
G37*
G36*
X48189Y6973D02*
X48169Y6987D01*
X48136Y6999D01*
X48089Y7010D01*
X48029Y7019D01*
X47869Y7033D01*
X47529Y7044D01*
X47389Y7045D01*
Y7345D01*
X47529Y7345D01*
X48089Y7380D01*
X48136Y7391D01*
X48169Y7403D01*
X48189Y7416D01*
Y6973D01*
D02*
G37*
G36*
X48541Y5487D02*
X48538Y5477D01*
X48536Y5461D01*
X48533Y5440D01*
X48529Y5340D01*
X48527Y5188D01*
X48327D01*
X48327Y5245D01*
X48313Y5487D01*
X48310Y5491D01*
X48544D01*
X48541Y5487D01*
D02*
G37*
G36*
X25383Y3583D02*
X25321Y3582D01*
X25266Y3582D01*
X25158Y3603D01*
X25057Y3645D01*
X24966Y3705D01*
X24927Y3744D01*
X24927Y3744D01*
X24906Y3764D01*
X24853Y3773D01*
X24659Y3791D01*
X24412Y3800D01*
X24269Y3801D01*
Y4001D01*
X24412Y4002D01*
X24853Y4029D01*
X24899Y4036D01*
X24935Y4071D01*
X24971Y4107D01*
X25056Y4164D01*
X25150Y4203D01*
X25250Y4223D01*
X25301Y4223D01*
X25301Y4223D01*
X25341D01*
X25383Y3583D01*
D02*
G37*
G36*
X24794Y217D02*
X24672Y214D01*
X24455Y191D01*
X24360Y171D01*
X24275Y146D01*
X24200Y115D01*
X24133Y78D01*
X24076Y35D01*
X24028Y-13D01*
X23990Y-66D01*
X23898Y365D01*
X24733Y417D01*
X24794Y217D01*
D02*
G37*
G36*
X18250Y-5249D02*
X18211Y-5252D01*
X18165Y-5265D01*
X18112Y-5289D01*
X18052Y-5323D01*
X17986Y-5369D01*
X17913Y-5424D01*
X17746Y-5568D01*
X17553Y-5753D01*
X17447Y-5647D01*
X17545Y-5547D01*
X17831Y-5214D01*
X17877Y-5148D01*
X17911Y-5088D01*
X17935Y-5035D01*
X17948Y-4989D01*
X17951Y-4950D01*
X18250Y-5249D01*
D02*
G37*
G36*
X49718Y-5521D02*
X49684Y-5525D01*
X49644Y-5539D01*
X49595Y-5563D01*
X49539Y-5599D01*
X49476Y-5645D01*
X49325Y-5770D01*
X49145Y-5938D01*
X49043Y-6038D01*
X48901Y-5897D01*
X49002Y-5795D01*
X49295Y-5464D01*
X49341Y-5401D01*
X49377Y-5345D01*
X49401Y-5296D01*
X49415Y-5255D01*
X49418Y-5222D01*
X49718Y-5521D01*
D02*
G37*
G36*
X26929Y-6622D02*
X27309D01*
X27237Y-6628D01*
X27172Y-6646D01*
X27115Y-6676D01*
X27066Y-6718D01*
X27024Y-6772D01*
X26990Y-6838D01*
X26963Y-6916D01*
X26944Y-7006D01*
X26933Y-7108D01*
X26929Y-7222D01*
X26329D01*
X26438Y-6971D01*
X25972D01*
X26040Y-6967D01*
X26100Y-6955D01*
X26154Y-6936D01*
X26200Y-6909D01*
X26240Y-6874D01*
X26272Y-6831D01*
X26297Y-6781D01*
X26315Y-6723D01*
X26325Y-6657D01*
X26329Y-6584D01*
X26929D01*
X26929Y-6622D01*
D02*
G37*
G36*
X31355Y-7586D02*
X31255Y-7688D01*
X30962Y-8019D01*
X30916Y-8082D01*
X30880Y-8138D01*
X30856Y-8187D01*
X30842Y-8227D01*
X30839Y-8261D01*
X30539Y-7961D01*
X30573Y-7958D01*
X30613Y-7944D01*
X30662Y-7920D01*
X30718Y-7884D01*
X30781Y-7838D01*
X30932Y-7713D01*
X31112Y-7545D01*
X31214Y-7445D01*
X31355Y-7586D01*
D02*
G37*
G36*
X35898Y-7749D02*
X35813Y-7805D01*
X35686Y-7996D01*
X35641Y-8220D01*
X35686Y-8444D01*
X35721Y-8498D01*
X35665Y-8604D01*
X31127D01*
X31061Y-8484D01*
X31101Y-8285D01*
X31098Y-8272D01*
X31102Y-8265D01*
X31127Y-8226D01*
X31161Y-8179D01*
X31432Y-7873D01*
X31676Y-7629D01*
X35861D01*
X35898Y-7749D01*
D02*
G37*
G36*
X36555Y-8278D02*
X36569Y-8319D01*
X36593Y-8367D01*
X36629Y-8423D01*
X36675Y-8487D01*
X36800Y-8637D01*
X36968Y-8818D01*
X37068Y-8919D01*
X36927Y-9061D01*
X36825Y-8961D01*
X36494Y-8668D01*
X36431Y-8621D01*
X36375Y-8586D01*
X36326Y-8561D01*
X36285Y-8547D01*
X36252Y-8544D01*
X36551Y-8245D01*
X36555Y-8278D01*
D02*
G37*
G36*
X5786Y-9281D02*
X5918Y-9368D01*
X6081Y-9445D01*
X6273Y-9511D01*
X6496Y-9567D01*
X6748Y-9613D01*
X7030Y-9649D01*
X7685Y-9690D01*
X8057Y-9695D01*
Y-9845D01*
X7685Y-9850D01*
X6748Y-9927D01*
X6496Y-9973D01*
X6273Y-10029D01*
X6081Y-10095D01*
X5918Y-10172D01*
X5786Y-10259D01*
X5683Y-10356D01*
Y-9184D01*
X5786Y-9281D01*
D02*
G37*
G36*
X35167Y-10851D02*
X35161Y-10843D01*
X35143Y-10835D01*
X35113Y-10828D01*
X35071Y-10821D01*
X34951Y-10812D01*
X34567Y-10804D01*
Y-10205D01*
X34681Y-10204D01*
X35143Y-10174D01*
X35161Y-10166D01*
X35167Y-10158D01*
Y-10851D01*
D02*
G37*
G36*
X54233Y-12938D02*
X54242Y-12972D01*
X54257Y-13003D01*
X54278Y-13029D01*
X54305Y-13051D01*
X54338Y-13070D01*
X54377Y-13084D01*
X54422Y-13094D01*
X54473Y-13100D01*
X54530Y-13102D01*
X53730D01*
X53787Y-13100D01*
X53838Y-13094D01*
X53883Y-13084D01*
X53922Y-13070D01*
X53955Y-13051D01*
X53982Y-13029D01*
X54003Y-13003D01*
X54018Y-12972D01*
X54027Y-12938D01*
X54030Y-12899D01*
X54230D01*
X54233Y-12938D01*
D02*
G37*
G36*
X36652Y-12090D02*
X36658Y-12177D01*
X36716D01*
X36704Y-12183D01*
X36692Y-12201D01*
X36682Y-12231D01*
X36674Y-12273D01*
X36668Y-12314D01*
X36705Y-12833D01*
X36730Y-12964D01*
X36758Y-13073D01*
X36792Y-13159D01*
X36829Y-13224D01*
X36871Y-13266D01*
X35829D01*
X35871Y-13224D01*
X35908Y-13159D01*
X35942Y-13073D01*
X35970Y-12964D01*
X35995Y-12833D01*
X36015Y-12681D01*
X36033Y-12417D01*
X36022Y-12177D01*
X36044D01*
X36050Y-11849D01*
X36650D01*
X36652Y-12090D01*
D02*
G37*
G36*
X51464Y-12169D02*
X51496Y-12514D01*
X51524Y-12658D01*
X51560Y-12785D01*
X51605Y-12893D01*
X51657Y-12983D01*
X51718Y-13054D01*
X51786Y-13108D01*
X51863Y-13142D01*
X50928Y-13390D01*
X50991Y-13311D01*
X51047Y-13218D01*
X51097Y-13111D01*
X51140Y-12990D01*
X51177Y-12855D01*
X51207Y-12706D01*
X51230Y-12543D01*
X51256Y-12175D01*
X51260Y-11969D01*
X51460D01*
X51464Y-12169D01*
D02*
G37*
G36*
X34914Y-11066D02*
Y-11104D01*
X35158D01*
X35167Y-11106D01*
X35177Y-11104D01*
X35778D01*
Y-11230D01*
X35714D01*
Y-11330D01*
X35589D01*
Y-11830D01*
Y-12330D01*
X35666D01*
X35714Y-12430D01*
D01*
X35770Y-12526D01*
X35761Y-12655D01*
X35743Y-12794D01*
X35722Y-12908D01*
X35699Y-12994D01*
X35678Y-13049D01*
X35667Y-13068D01*
X35648Y-13087D01*
X35644Y-13092D01*
X35530Y-13180D01*
X35345Y-13420D01*
X35230Y-13700D01*
X35190Y-14000D01*
X35230Y-14300D01*
X35345Y-14580D01*
X35509Y-14793D01*
X35469Y-14913D01*
X34691D01*
X34651Y-14793D01*
X34815Y-14580D01*
X34930Y-14300D01*
X34930Y-14300D01*
X33810D01*
Y-14000D01*
X33510D01*
Y-12880D01*
X33510Y-12880D01*
X33230Y-12995D01*
X33041Y-13140D01*
X32921Y-13081D01*
X32921Y-12281D01*
X32902Y-12183D01*
X32847Y-12100D01*
X32439Y-11693D01*
X32685Y-11224D01*
X32844Y-11065D01*
X34865D01*
X34914Y-11066D01*
D02*
G37*
G36*
X31247Y-10861D02*
X32855Y-10349D01*
X32126Y-11740D01*
X32667Y-12281D01*
X32667Y-13385D01*
X32667Y-13824D01*
X32660Y-13849D01*
Y-14151D01*
X32667Y-14176D01*
X32667Y-14913D01*
X32149D01*
X32101Y-14796D01*
X32190Y-14706D01*
X32342Y-14444D01*
X32353Y-14400D01*
X31270D01*
X30187D01*
X30198Y-14444D01*
X30350Y-14706D01*
X30439Y-14796D01*
X30391Y-14913D01*
X29872D01*
X29872Y-14180D01*
X29880Y-14151D01*
Y-13849D01*
X29872Y-13820D01*
X29872Y-12792D01*
X29350Y-12269D01*
X29351Y-9907D01*
X30293D01*
X31247Y-10861D01*
D02*
G37*
%LPC*%
G36*
X35089Y-11330D02*
X34914D01*
Y-11580D01*
X35089D01*
Y-11330D01*
D02*
G37*
G36*
Y-12080D02*
X34914D01*
Y-12330D01*
X35089D01*
Y-12080D01*
D02*
G37*
G36*
X34110Y-12880D02*
Y-13700D01*
X34930D01*
X34930Y-13700D01*
X34815Y-13420D01*
X34630Y-13180D01*
X34390Y-12995D01*
X34110Y-12880D01*
X34110Y-12880D01*
D02*
G37*
G36*
X31670Y-12917D02*
Y-13600D01*
X32353D01*
X32342Y-13556D01*
X32190Y-13294D01*
X31976Y-13080D01*
X31714Y-12928D01*
X31670Y-12917D01*
D02*
G37*
G36*
X30870Y-12917D02*
X30826Y-12928D01*
X30564Y-13080D01*
X30350Y-13294D01*
X30198Y-13556D01*
X30187Y-13600D01*
X30870D01*
Y-12917D01*
D02*
G37*
%LPD*%
G36*
X19353Y-2096D02*
X19568Y-2100D01*
Y-2400D01*
X19422Y-2401D01*
X19353Y-2405D01*
Y-2722D01*
X19350Y-2661D01*
X19341Y-2606D01*
X19326Y-2558D01*
X19305Y-2516D01*
X19278Y-2480D01*
X19245Y-2452D01*
X19206Y-2429D01*
X19170Y-2416D01*
X18796Y-2439D01*
X18764Y-2450D01*
X18747Y-2462D01*
Y-2038D01*
X18764Y-2050D01*
X18796Y-2061D01*
X18843Y-2070D01*
X18904Y-2078D01*
X19068Y-2090D01*
X19138Y-2092D01*
X19161Y-2087D01*
X19206Y-2071D01*
X19245Y-2048D01*
X19278Y-2020D01*
X19305Y-1984D01*
X19326Y-1942D01*
X19341Y-1894D01*
X19350Y-1839D01*
X19353Y-1778D01*
Y-2096D01*
D02*
G37*
G36*
X24050Y-1942D02*
X24059Y-1976D01*
X24074Y-2007D01*
X24095Y-2033D01*
X24122Y-2055D01*
X24155Y-2074D01*
X24194Y-2088D01*
X24239Y-2098D01*
X24290Y-2104D01*
X24347Y-2106D01*
Y-2406D01*
X24290Y-2408D01*
X24239Y-2415D01*
X24194Y-2426D01*
X24155Y-2441D01*
X24122Y-2460D01*
X24095Y-2484D01*
X24074Y-2512D01*
X24059Y-2544D01*
X24050Y-2581D01*
X24047Y-2622D01*
Y-1903D01*
X24050Y-1942D01*
D02*
G37*
G36*
X23053Y-2622D02*
X23050Y-2582D01*
X23041Y-2547D01*
X23026Y-2515D01*
X23005Y-2488D01*
X22978Y-2465D01*
X22945Y-2446D01*
X22906Y-2431D01*
X22861Y-2421D01*
X22810Y-2415D01*
X22753Y-2412D01*
Y-2112D01*
X22810Y-2110D01*
X22861Y-2104D01*
X22906Y-2094D01*
X22945Y-2079D01*
X22978Y-2060D01*
X23005Y-2037D01*
X23026Y-2010D01*
X23041Y-1978D01*
X23050Y-1943D01*
X23053Y-1903D01*
Y-2622D01*
D02*
G37*
G36*
X21950Y-1842D02*
X21959Y-1898D01*
X21974Y-1949D01*
X21995Y-1992D01*
X22022Y-2029D01*
X22055Y-2059D01*
X22094Y-2082D01*
X22139Y-2099D01*
X22190Y-2109D01*
X22247Y-2112D01*
Y-2412D01*
X22190Y-2416D01*
X22139Y-2425D01*
X22094Y-2440D01*
X22055Y-2462D01*
X22022Y-2490D01*
X21995Y-2524D01*
X21974Y-2564D01*
X21959Y-2611D01*
X21950Y-2663D01*
X21947Y-2722D01*
Y-1778D01*
X21950Y-1842D01*
D02*
G37*
%LPC*%
G36*
X36260Y-38844D02*
X35806D01*
X35745Y-38850D01*
X35695Y-38853D01*
X35654Y-38859D01*
X35625Y-38865D01*
X35604Y-38868D01*
X35590Y-38874D01*
X35587D01*
X35557Y-38885D01*
X35531Y-38900D01*
X35508Y-38918D01*
X35490Y-38932D01*
X35475Y-38950D01*
X35464Y-38962D01*
X35458Y-38970D01*
X35455Y-38973D01*
X35440Y-39003D01*
X35429Y-39032D01*
X35420Y-39058D01*
X35414Y-39085D01*
X35411Y-39108D01*
X35408Y-39126D01*
Y-39140D01*
Y-39143D01*
X35411Y-39181D01*
X35417Y-39213D01*
X35423Y-39243D01*
X35431Y-39266D01*
X35443Y-39287D01*
X35449Y-39301D01*
X35455Y-39310D01*
X35458Y-39313D01*
X35478Y-39336D01*
X35502Y-39357D01*
X35525Y-39374D01*
X35549Y-39386D01*
X35572Y-39398D01*
X35590Y-39404D01*
X35601Y-39407D01*
X35604Y-39410D01*
X35636Y-39415D01*
X35672Y-39421D01*
X35713Y-39424D01*
X35754Y-39427D01*
X35789Y-39430D01*
X36260D01*
Y-38844D01*
D02*
G37*
G36*
Y-39656D02*
X35754D01*
X35695Y-39661D01*
X35648Y-39664D01*
X35607Y-39670D01*
X35578Y-39676D01*
X35554Y-39682D01*
X35543Y-39685D01*
X35537Y-39688D01*
X35502Y-39702D01*
X35472Y-39720D01*
X35446Y-39738D01*
X35426Y-39758D01*
X35408Y-39776D01*
X35393Y-39787D01*
X35388Y-39799D01*
X35385Y-39802D01*
X35364Y-39831D01*
X35349Y-39864D01*
X35341Y-39896D01*
X35332Y-39925D01*
X35329Y-39948D01*
X35326Y-39969D01*
Y-39981D01*
Y-39987D01*
X35329Y-40022D01*
X35332Y-40051D01*
X35338Y-40080D01*
X35344Y-40104D01*
X35352Y-40124D01*
X35358Y-40139D01*
X35361Y-40148D01*
X35364Y-40151D01*
X35379Y-40174D01*
X35396Y-40197D01*
X35411Y-40215D01*
X35429Y-40230D01*
X35443Y-40244D01*
X35452Y-40253D01*
X35461Y-40256D01*
X35464Y-40259D01*
X35511Y-40282D01*
X35557Y-40297D01*
X35578Y-40303D01*
X35595Y-40306D01*
X35607Y-40309D01*
X35610D01*
X35631Y-40312D01*
X35657Y-40315D01*
X35716Y-40317D01*
X36260D01*
Y-39656D01*
D02*
G37*
G36*
X68996Y-39843D02*
Y-39931D01*
X68999Y-39987D01*
X69002Y-40033D01*
X69008Y-40074D01*
X69014Y-40110D01*
X69023Y-40136D01*
X69029Y-40153D01*
X69031Y-40165D01*
X69034Y-40168D01*
X69055Y-40206D01*
X69081Y-40238D01*
X69108Y-40268D01*
X69131Y-40288D01*
X69154Y-40309D01*
X69175Y-40320D01*
X69187Y-40329D01*
X69193Y-40332D01*
X69234Y-40353D01*
X69275Y-40367D01*
X69316Y-40376D01*
X69351Y-40382D01*
X69386Y-40388D01*
X69409Y-40391D01*
X69433D01*
X69482Y-40388D01*
X69523Y-40382D01*
X69562Y-40370D01*
X69591Y-40358D01*
X69614Y-40350D01*
X69629Y-40338D01*
X69641Y-40332D01*
X69644Y-40329D01*
X69667Y-40303D01*
X69685Y-40276D01*
X69696Y-40250D01*
X69705Y-40227D01*
X69711Y-40203D01*
X69714Y-40186D01*
Y-40174D01*
Y-40171D01*
X69711Y-40148D01*
X69708Y-40127D01*
X69696Y-40092D01*
X69690Y-40077D01*
X69687Y-40069D01*
X69682Y-40063D01*
Y-40060D01*
X69652Y-40025D01*
X69623Y-40001D01*
X69611Y-39992D01*
X69600Y-39987D01*
X69594Y-39981D01*
X69591D01*
X69564Y-39972D01*
X69532Y-39963D01*
X69465Y-39948D01*
X69433Y-39943D01*
X69406Y-39937D01*
X69389Y-39934D01*
X69383D01*
X69336Y-39925D01*
X69292Y-39919D01*
X69251Y-39910D01*
X69213Y-39905D01*
X69178Y-39896D01*
X69149Y-39887D01*
X69119Y-39881D01*
X69093Y-39875D01*
X69070Y-39866D01*
X69052Y-39861D01*
X69034Y-39858D01*
X69020Y-39852D01*
X69011Y-39849D01*
X69002Y-39846D01*
X68996Y-39843D01*
D02*
G37*
G36*
X66489Y-39310D02*
X66475D01*
X66443Y-39313D01*
X66410Y-39316D01*
X66355Y-39331D01*
X66305Y-39354D01*
X66261Y-39380D01*
X66229Y-39407D01*
X66202Y-39427D01*
X66188Y-39445D01*
X66182Y-39448D01*
Y-39451D01*
X66156Y-39486D01*
X66138Y-39530D01*
X66120Y-39574D01*
X66109Y-39615D01*
X66100Y-39653D01*
X66094Y-39685D01*
Y-39697D01*
X66091Y-39705D01*
Y-39711D01*
Y-39714D01*
X66870D01*
X66861Y-39650D01*
X66847Y-39591D01*
X66826Y-39541D01*
X66806Y-39500D01*
X66785Y-39465D01*
X66768Y-39442D01*
X66756Y-39427D01*
X66750Y-39421D01*
X66706Y-39383D01*
X66659Y-39357D01*
X66615Y-39336D01*
X66571Y-39325D01*
X66533Y-39316D01*
X66501Y-39313D01*
X66489Y-39310D01*
D02*
G37*
G36*
X80362Y-38844D02*
X79908D01*
X79847Y-38850D01*
X79797Y-38853D01*
X79756Y-38859D01*
X79727Y-38865D01*
X79706Y-38868D01*
X79692Y-38874D01*
X79689D01*
X79659Y-38885D01*
X79633Y-38900D01*
X79610Y-38918D01*
X79592Y-38932D01*
X79577Y-38950D01*
X79566Y-38962D01*
X79560Y-38970D01*
X79557Y-38973D01*
X79542Y-39003D01*
X79531Y-39032D01*
X79522Y-39058D01*
X79516Y-39085D01*
X79513Y-39108D01*
X79510Y-39126D01*
Y-39140D01*
Y-39143D01*
X79513Y-39181D01*
X79519Y-39213D01*
X79525Y-39243D01*
X79534Y-39266D01*
X79545Y-39287D01*
X79551Y-39301D01*
X79557Y-39310D01*
X79560Y-39313D01*
X79580Y-39336D01*
X79604Y-39357D01*
X79627Y-39374D01*
X79651Y-39386D01*
X79674Y-39398D01*
X79692Y-39404D01*
X79703Y-39407D01*
X79706Y-39410D01*
X79739Y-39415D01*
X79774Y-39421D01*
X79815Y-39424D01*
X79856Y-39427D01*
X79891Y-39430D01*
X80362D01*
Y-38844D01*
D02*
G37*
G36*
Y-39656D02*
X79856D01*
X79797Y-39661D01*
X79750Y-39664D01*
X79709Y-39670D01*
X79680Y-39676D01*
X79657Y-39682D01*
X79645Y-39685D01*
X79639Y-39688D01*
X79604Y-39702D01*
X79575Y-39720D01*
X79548Y-39738D01*
X79528Y-39758D01*
X79510Y-39776D01*
X79495Y-39787D01*
X79490Y-39799D01*
X79487Y-39802D01*
X79466Y-39831D01*
X79452Y-39864D01*
X79443Y-39896D01*
X79434Y-39925D01*
X79431Y-39948D01*
X79428Y-39969D01*
Y-39981D01*
Y-39987D01*
X79431Y-40022D01*
X79434Y-40051D01*
X79440Y-40080D01*
X79446Y-40104D01*
X79454Y-40124D01*
X79460Y-40139D01*
X79463Y-40148D01*
X79466Y-40151D01*
X79481Y-40174D01*
X79498Y-40197D01*
X79513Y-40215D01*
X79531Y-40230D01*
X79545Y-40244D01*
X79554Y-40253D01*
X79563Y-40256D01*
X79566Y-40259D01*
X79613Y-40282D01*
X79659Y-40297D01*
X79680Y-40303D01*
X79698Y-40306D01*
X79709Y-40309D01*
X79712D01*
X79733Y-40312D01*
X79759Y-40315D01*
X79818Y-40317D01*
X80362D01*
Y-39656D01*
D02*
G37*
G36*
X78298Y-39313D02*
X78248D01*
X78219Y-39319D01*
X78163Y-39333D01*
X78113Y-39357D01*
X78069Y-39380D01*
X78037Y-39404D01*
X78011Y-39427D01*
X77996Y-39442D01*
X77990Y-39445D01*
Y-39448D01*
X77949Y-39503D01*
X77920Y-39565D01*
X77899Y-39632D01*
X77885Y-39694D01*
X77876Y-39752D01*
X77873Y-39776D01*
Y-39796D01*
X77870Y-39817D01*
Y-39828D01*
Y-39837D01*
Y-39840D01*
Y-39890D01*
X77876Y-39937D01*
X77882Y-39981D01*
X77888Y-40019D01*
X77896Y-40057D01*
X77908Y-40092D01*
X77917Y-40121D01*
X77929Y-40148D01*
X77940Y-40171D01*
X77949Y-40192D01*
X77961Y-40209D01*
X77970Y-40224D01*
X77975Y-40235D01*
X77981Y-40244D01*
X77987Y-40247D01*
Y-40250D01*
X78011Y-40274D01*
X78034Y-40294D01*
X78081Y-40326D01*
X78131Y-40350D01*
X78178Y-40364D01*
X78219Y-40376D01*
X78251Y-40379D01*
X78262Y-40382D01*
X78280D01*
X78312Y-40379D01*
X78344Y-40376D01*
X78400Y-40361D01*
X78453Y-40341D01*
X78494Y-40315D01*
X78529Y-40291D01*
X78555Y-40271D01*
X78570Y-40256D01*
X78576Y-40250D01*
X78596Y-40224D01*
X78614Y-40194D01*
X78643Y-40130D01*
X78661Y-40063D01*
X78675Y-39998D01*
X78684Y-39940D01*
X78687Y-39913D01*
Y-39893D01*
X78690Y-39875D01*
Y-39861D01*
Y-39852D01*
Y-39849D01*
Y-39799D01*
X78684Y-39755D01*
X78678Y-39711D01*
X78673Y-39673D01*
X78664Y-39635D01*
X78655Y-39603D01*
X78643Y-39574D01*
X78632Y-39547D01*
X78623Y-39524D01*
X78611Y-39503D01*
X78602Y-39486D01*
X78593Y-39471D01*
X78588Y-39462D01*
X78582Y-39454D01*
X78576Y-39448D01*
X78552Y-39424D01*
X78529Y-39404D01*
X78479Y-39369D01*
X78429Y-39345D01*
X78383Y-39331D01*
X78342Y-39319D01*
X78309Y-39316D01*
X78298Y-39313D01*
D02*
G37*
G36*
X75310D02*
X75261D01*
X75231Y-39319D01*
X75176Y-39333D01*
X75126Y-39357D01*
X75082Y-39380D01*
X75050Y-39404D01*
X75023Y-39427D01*
X75009Y-39442D01*
X75003Y-39445D01*
Y-39448D01*
X74962Y-39503D01*
X74933Y-39565D01*
X74912Y-39632D01*
X74898Y-39694D01*
X74889Y-39752D01*
X74886Y-39776D01*
Y-39796D01*
X74883Y-39817D01*
Y-39828D01*
Y-39837D01*
Y-39840D01*
Y-39890D01*
X74889Y-39937D01*
X74895Y-39981D01*
X74900Y-40019D01*
X74909Y-40057D01*
X74921Y-40092D01*
X74930Y-40121D01*
X74941Y-40148D01*
X74953Y-40171D01*
X74962Y-40192D01*
X74974Y-40209D01*
X74982Y-40224D01*
X74988Y-40235D01*
X74994Y-40244D01*
X75000Y-40247D01*
Y-40250D01*
X75023Y-40274D01*
X75047Y-40294D01*
X75094Y-40326D01*
X75144Y-40350D01*
X75190Y-40364D01*
X75231Y-40376D01*
X75264Y-40379D01*
X75275Y-40382D01*
X75293D01*
X75325Y-40379D01*
X75357Y-40376D01*
X75413Y-40361D01*
X75466Y-40341D01*
X75507Y-40315D01*
X75542Y-40291D01*
X75568Y-40271D01*
X75583Y-40256D01*
X75589Y-40250D01*
X75609Y-40224D01*
X75627Y-40194D01*
X75656Y-40130D01*
X75674Y-40063D01*
X75688Y-39998D01*
X75697Y-39940D01*
X75700Y-39913D01*
Y-39893D01*
X75703Y-39875D01*
Y-39861D01*
Y-39852D01*
Y-39849D01*
Y-39799D01*
X75697Y-39755D01*
X75691Y-39711D01*
X75685Y-39673D01*
X75677Y-39635D01*
X75668Y-39603D01*
X75656Y-39574D01*
X75644Y-39547D01*
X75636Y-39524D01*
X75624Y-39503D01*
X75615Y-39486D01*
X75606Y-39471D01*
X75600Y-39462D01*
X75595Y-39454D01*
X75589Y-39448D01*
X75565Y-39424D01*
X75542Y-39404D01*
X75492Y-39369D01*
X75442Y-39345D01*
X75395Y-39331D01*
X75354Y-39319D01*
X75322Y-39316D01*
X75310Y-39313D01*
D02*
G37*
%LPD*%
D11*
X50800Y-11327D02*
G03*
X50799Y-11326I-142J-141D01*
G01*
X51360Y-11969D02*
G03*
X51301Y-11828I-200J0D01*
G01*
X54130Y-12176D02*
G03*
X54071Y-12034I-200J0D01*
G01*
X52762Y-10725D02*
G03*
X52620Y-10666I-142J-141D01*
G01*
X22455Y-14823D02*
X22902Y-15270D01*
X38137D02*
X38904Y-14503D01*
X22902Y-15270D02*
X38137D01*
X22455Y-14823D02*
Y-8801D01*
X31528Y-7272D02*
X49937D01*
X32247Y-4247D02*
X34254Y-6254D01*
X27900Y100D02*
X32247Y-4247D01*
X48685Y-6254D02*
X49742Y-5197D01*
X34254Y-6254D02*
X48685D01*
X23711Y100D02*
X23927Y317D01*
X25880D01*
X26097Y100D01*
X20799Y3901D02*
X23241D01*
X16468Y-430D02*
X20799Y3901D01*
X23241D02*
X23241Y3901D01*
X30235Y-8960D02*
X36011D01*
X38036Y-10986D01*
X50459D01*
X49937Y-7272D02*
X49994Y-7215D01*
X50018D02*
X50413Y-6820D01*
Y-6796D01*
X31528Y-7272D02*
X49937D01*
X50807Y-6402D02*
Y328D01*
X50413Y-6796D02*
X50807Y-6402D01*
X49994Y-7215D02*
X50018D01*
X26097Y100D02*
X27900D01*
X38880Y-14480D02*
X38904Y-14503D01*
X38880Y-14480D02*
Y-14090D01*
X38890Y-14080D01*
Y-14000D01*
X19025Y-5370D02*
X22455Y-8801D01*
X23838Y-8768D02*
X30042D01*
X30235Y-8960D01*
X20578Y-5507D02*
X23838Y-8768D01*
X50459Y-10986D02*
X50799Y-11326D01*
X51360Y-13770D02*
Y-11969D01*
X48427Y5188D02*
Y5794D01*
X30515Y-8285D02*
X31528Y-7272D01*
X20578Y-5507D02*
Y-4985D01*
X36227Y-8220D02*
X38673Y-10666D01*
X52620D01*
X54130Y-14000D02*
Y-12176D01*
X16468Y-1830D02*
Y-430D01*
X50493Y643D02*
X50807Y328D01*
X50493Y643D02*
Y3123D01*
X48427Y5188D02*
X50493Y3123D01*
X52762Y-10725D02*
X54071Y-12034D01*
X50800Y-11327D02*
X51301Y-11828D01*
X16468Y-1830D02*
X19025Y-4387D01*
Y-5370D02*
Y-4387D01*
X23241Y3901D02*
X25359D01*
X51360Y-13770D02*
X51590Y-14000D01*
D12*
X54130Y12640D02*
Y14000D01*
X53722Y12232D02*
X54130Y12640D01*
X51467Y12232D02*
X53722D01*
X50770Y11535D02*
X51467Y12232D01*
X49370Y11535D02*
X50770D01*
X46887Y9052D02*
X49370Y11535D01*
X44128Y12140D02*
X49730D01*
X42651Y10664D02*
X44128Y12140D01*
X46887Y7697D02*
X47389Y7195D01*
X46887Y7697D02*
Y9052D01*
X49730Y12140D02*
X51590Y14000D01*
X17028Y10201D02*
X17704Y9524D01*
X25700D01*
X26840Y10664D01*
X42651D01*
X21400Y-2263D02*
X23550D01*
X47389Y7195D02*
X48427D01*
X23688Y-2256D02*
X25890D01*
X23678Y-2266D02*
X23688Y-2256D01*
X18500Y-2250D02*
X19900D01*
X296Y-17511D02*
X64868D01*
X64868Y17489D02*
X64868Y-17511D01*
X296Y17489D02*
X64868D01*
X61632D02*
X61645Y17477D01*
X296Y17489D02*
X296Y-17511D01*
D44*
X5000Y-9770D02*
X13430D01*
X18275Y-4925D02*
X18275D01*
X13430Y-9770D02*
X18275Y-4925D01*
X5000Y7230D02*
X9260D01*
X16030Y14000D01*
D57*
X30000Y-5900D02*
D03*
X30000Y-6800D02*
D03*
X25900Y-1350D02*
D03*
X25900Y-2250D02*
D03*
D58*
X28696Y-11830D02*
D03*
X29596Y-11830D02*
D03*
X35339Y-11830D02*
D03*
X36239Y-11830D02*
D03*
X35439Y-10505D02*
D03*
X36339Y-10504D02*
D03*
D63*
X25525Y-6125D02*
D03*
X26950D02*
D03*
X28286Y-10404D02*
D03*
X29711D02*
D03*
D65*
X26552Y2469D02*
D03*
X26552Y3894D02*
D03*
X23550Y-2263D02*
D03*
Y-837D02*
D03*
D66*
X61750Y-4511D02*
D03*
Y3989D02*
D03*
D73*
X26950Y-6262D02*
Y-6125D01*
X26629Y-6584D02*
X26950Y-6262D01*
X26629Y-7488D02*
Y-6584D01*
X26950Y-6125D02*
Y-5988D01*
X31600Y-12309D02*
Y-11516D01*
X32611Y-10505D02*
X35170D01*
X31600Y-11516D02*
X32611Y-10505D01*
X36339Y-11800D02*
X36369Y-11830D01*
X36339Y-11800D02*
Y-10504D01*
X36350Y-11849D02*
X36369Y-11830D01*
X29905Y-11651D02*
X30609D01*
X29726Y-11830D02*
X29905Y-11651D01*
X30609D02*
X30713Y-11755D01*
X36350Y-14000D02*
Y-11849D01*
X27640Y-5220D02*
X27650Y-5210D01*
X27640Y-5297D02*
Y-5220D01*
X26950Y-5988D02*
X27640Y-5297D01*
X26449Y-7668D02*
X26629Y-7488D01*
D75*
X25441Y-2788D02*
X25900Y-2330D01*
D78*
X27650Y-5210D02*
X27656Y-5216D01*
X30000Y-5900D02*
X30054Y-5846D01*
X23450Y-2463D02*
X23462Y-2450D01*
D79*
X30054Y-5529D02*
X30409Y-5175D01*
X30054Y-5846D02*
Y-5529D01*
D83*
X21110Y14000D02*
D03*
X23650D02*
D03*
X13490D02*
D03*
X16030D02*
D03*
X5870D02*
D03*
X10950D02*
D03*
X8410D02*
D03*
X18570D02*
D03*
X46510D02*
D03*
X49050D02*
D03*
X41430D02*
D03*
X43970D02*
D03*
X51590D02*
D03*
X26190D02*
D03*
X31270D02*
D03*
X28730D02*
D03*
X33810D02*
D03*
X38890D02*
D03*
X36350D02*
D03*
X21110Y-14000D02*
D03*
X23650D02*
D03*
X13490D02*
D03*
X16030D02*
D03*
X5870D02*
D03*
X10950D02*
D03*
X8410D02*
D03*
X18570D02*
D03*
X46510D02*
D03*
X49050D02*
D03*
X41430D02*
D03*
X43970D02*
D03*
X51590D02*
D03*
X26190D02*
D03*
X31270D02*
D03*
X28730D02*
D03*
X33810D02*
D03*
X38890D02*
D03*
X36350D02*
D03*
X5000Y-9770D02*
D03*
Y7230D02*
D03*
D84*
X54130Y14000D02*
D03*
X54130Y-14000D02*
D03*
D85*
X5000Y-7230D02*
D03*
Y9770D02*
D03*
D87*
X36219Y6452D02*
D03*
X63170Y-1640D02*
D03*
X62541Y1430D02*
D03*
X28132Y1544D02*
D03*
X27708Y4532D02*
D03*
Y3949D02*
D03*
X23706Y2287D02*
D03*
X24598Y-458D02*
D03*
Y-1104D02*
D03*
X28441Y7636D02*
D03*
X52785Y12942D02*
D03*
X52655Y11286D02*
D03*
X51912D02*
D03*
X53399D02*
D03*
X51747Y-8977D02*
D03*
X51037Y-8977D02*
D03*
X50327Y-8977D02*
D03*
X52265Y-7774D02*
D03*
X52265Y-8484D02*
D03*
X37231Y12029D02*
D03*
X36488D02*
D03*
X40220Y11926D02*
D03*
X39477D02*
D03*
X42825Y11793D02*
D03*
X42082D02*
D03*
X46575Y11465D02*
D03*
X45088D02*
D03*
X45832D02*
D03*
X24503Y11554D02*
D03*
X25246D02*
D03*
X21776Y11558D02*
D03*
X22519D02*
D03*
X19467Y11550D02*
D03*
X20210D02*
D03*
X53239Y-9752D02*
D03*
X51753D02*
D03*
X50366D02*
D03*
X47494D02*
D03*
X43235D02*
D03*
X41849D02*
D03*
X38976D02*
D03*
X40363D02*
D03*
X32938Y-9592D02*
D03*
X18609Y-9554D02*
D03*
X21482D02*
D03*
X19996D02*
D03*
X48160Y8150D02*
D03*
X49646D02*
D03*
X48903Y8150D02*
D03*
X51132D02*
D03*
X50389D02*
D03*
X35200Y-7900D02*
D03*
X31600Y-12309D02*
D03*
X30609D02*
D03*
Y-11651D02*
D03*
X59197Y-1429D02*
D03*
X58453D02*
D03*
X57710D02*
D03*
X60313Y-3058D02*
D03*
X59570D02*
D03*
X58827D02*
D03*
X57340D02*
D03*
X58083D02*
D03*
X55854D02*
D03*
X56597D02*
D03*
X55211D02*
D03*
X54468D02*
D03*
X52982D02*
D03*
X53725D02*
D03*
X61799D02*
D03*
X61056D02*
D03*
X62542D02*
D03*
X61090Y-1411D02*
D03*
X36219Y5389D02*
D03*
X37334Y5920D02*
D03*
X36591Y5920D02*
D03*
X36962Y5389D02*
D03*
X36590Y4857D02*
D03*
X37333Y4857D02*
D03*
X36961Y4326D02*
D03*
X36683Y3794D02*
D03*
X37332Y3794D02*
D03*
X37758Y3186D02*
D03*
X37109Y3185D02*
D03*
X38555Y2046D02*
D03*
X38927Y2577D02*
D03*
X38184D02*
D03*
X37441D02*
D03*
X37812Y2046D02*
D03*
X52265Y-7064D02*
D03*
X51132Y5921D02*
D03*
Y6664D02*
D03*
Y7407D02*
D03*
X62541Y-1995D02*
D03*
X62170Y-2527D02*
D03*
X60684D02*
D03*
X61427D02*
D03*
X61055Y-1995D02*
D03*
X61798D02*
D03*
X62170Y1961D02*
D03*
X61798Y1430D02*
D03*
X55853D02*
D03*
X61055D02*
D03*
X60683Y898D02*
D03*
X60312Y1430D02*
D03*
X61427Y1961D02*
D03*
X59569Y1430D02*
D03*
X59197Y898D02*
D03*
X59940D02*
D03*
X58454D02*
D03*
X58826Y1430D02*
D03*
X51132Y5178D02*
D03*
Y4435D02*
D03*
Y2205D02*
D03*
Y2948D02*
D03*
Y3692D02*
D03*
X37505Y-967D02*
D03*
X36762D02*
D03*
X36019D02*
D03*
X37140Y-1356D02*
D03*
X44844Y-1988D02*
D03*
X46330D02*
D03*
X45587D02*
D03*
X44100D02*
D03*
X43357D02*
D03*
X42614D02*
D03*
X40013Y-1356D02*
D03*
X42985D02*
D03*
X43729D02*
D03*
X46701D02*
D03*
X45215D02*
D03*
X45958D02*
D03*
X44472D02*
D03*
X54838Y-1464D02*
D03*
X54095D02*
D03*
X55481D02*
D03*
X51866D02*
D03*
X52609D02*
D03*
X53352D02*
D03*
X53353Y-2527D02*
D03*
X52610D02*
D03*
X54096D02*
D03*
X54839D02*
D03*
X56225D02*
D03*
X55482D02*
D03*
X57712D02*
D03*
X56968D02*
D03*
X58455D02*
D03*
X59198D02*
D03*
X59941D02*
D03*
X51123Y898D02*
D03*
X51495Y1430D02*
D03*
X53352Y898D02*
D03*
X52981Y1430D02*
D03*
X52238D02*
D03*
X53724D02*
D03*
X52609Y898D02*
D03*
X51866D02*
D03*
X54467Y1430D02*
D03*
X55110D02*
D03*
X57340D02*
D03*
X56596D02*
D03*
X56968Y898D02*
D03*
X55481D02*
D03*
X56225D02*
D03*
X54095D02*
D03*
X54838D02*
D03*
X57711D02*
D03*
X58083Y1430D02*
D03*
X48758Y1469D02*
D03*
X48014D02*
D03*
X47643Y938D02*
D03*
X48386D02*
D03*
X44770D02*
D03*
X44027D02*
D03*
X46156D02*
D03*
X45413D02*
D03*
X46899D02*
D03*
X46528Y1469D02*
D03*
X47271D02*
D03*
X45042D02*
D03*
X45785D02*
D03*
X44399D02*
D03*
X41798Y938D02*
D03*
X42541D02*
D03*
X43656Y1469D02*
D03*
X42169D02*
D03*
X42913D02*
D03*
X43284Y938D02*
D03*
X36792Y-4654D02*
D03*
X36420Y-4122D02*
D03*
X37907D02*
D03*
X38550D02*
D03*
X38178Y-4654D02*
D03*
X38922D02*
D03*
X37535D02*
D03*
X40779Y-4122D02*
D03*
X40036D02*
D03*
X39665Y-4654D02*
D03*
X40408D02*
D03*
X41894D02*
D03*
X42637D02*
D03*
X43008Y-4122D02*
D03*
X42265D02*
D03*
X44767Y-4654D02*
D03*
X44123D02*
D03*
X44495Y-4122D02*
D03*
X43752D02*
D03*
X45881D02*
D03*
X46253Y-4654D02*
D03*
X46973Y-4469D02*
D03*
X47705Y-4340D02*
D03*
X46613Y-3993D02*
D03*
X48352Y-3976D02*
D03*
X37163Y-4122D02*
D03*
X39293D02*
D03*
X41522D02*
D03*
X41151Y-4654D02*
D03*
X45510D02*
D03*
X43380D02*
D03*
X45138Y-4122D02*
D03*
X47246Y-3882D02*
D03*
X47896Y-3671D02*
D03*
X48464Y-3337D02*
D03*
X49026Y-3662D02*
D03*
X49510Y-3098D02*
D03*
X48942Y-2914D02*
D03*
X49397Y-2460D02*
D03*
X36110Y1096D02*
D03*
X35367D02*
D03*
X34624D02*
D03*
X33881D02*
D03*
X52265Y-6354D02*
D03*
X39297Y2046D02*
D03*
X43013D02*
D03*
X42641Y2577D02*
D03*
X41898D02*
D03*
X42270Y2046D02*
D03*
X40040D02*
D03*
X39669Y2577D02*
D03*
X40412D02*
D03*
X41155D02*
D03*
X40784Y2046D02*
D03*
X41527D02*
D03*
D88*
X42958Y-8858D02*
D03*
X61858Y12142D02*
D03*
X62558Y10742D02*
D03*
X61858Y9342D02*
D03*
X62558Y7942D02*
D03*
X61858Y6542D02*
D03*
X62558Y-6058D02*
D03*
X61858Y-7458D02*
D03*
Y-10258D02*
D03*
X62558Y-11658D02*
D03*
X61858Y-13058D02*
D03*
X60458Y14942D02*
D03*
X61158Y13542D02*
D03*
X60458Y12142D02*
D03*
X61158Y10742D02*
D03*
X60458Y9342D02*
D03*
X61158Y7942D02*
D03*
X60458Y6542D02*
D03*
X61158Y-6058D02*
D03*
X60458Y-7458D02*
D03*
X61158Y-8858D02*
D03*
X60458Y-10258D02*
D03*
X61158Y-11658D02*
D03*
X60458Y-13058D02*
D03*
X61158Y-14458D02*
D03*
X59058Y14942D02*
D03*
X59758Y13542D02*
D03*
X59058Y12142D02*
D03*
X59758Y10742D02*
D03*
X59058Y9342D02*
D03*
X59758Y7942D02*
D03*
X59058Y6542D02*
D03*
X59758Y2342D02*
D03*
Y-6058D02*
D03*
X59058Y-7458D02*
D03*
X59758Y-8858D02*
D03*
X59058Y-10258D02*
D03*
X59758Y-11658D02*
D03*
X59058Y-13058D02*
D03*
X59758Y-14458D02*
D03*
X57658Y14942D02*
D03*
X58358Y13542D02*
D03*
X57658Y12142D02*
D03*
X58358Y10742D02*
D03*
X57658Y9342D02*
D03*
X58358Y7942D02*
D03*
X57658Y6542D02*
D03*
X58358Y5142D02*
D03*
X57658Y3742D02*
D03*
X58358Y2342D02*
D03*
X57658Y-4658D02*
D03*
X58358Y-6058D02*
D03*
X57658Y-7458D02*
D03*
X58358Y-8858D02*
D03*
X57658Y-10258D02*
D03*
X58358Y-11658D02*
D03*
X57658Y-13058D02*
D03*
X58358Y-14458D02*
D03*
X56258Y14942D02*
D03*
X56958Y13542D02*
D03*
X56258Y12142D02*
D03*
X56958Y10742D02*
D03*
X56258Y9342D02*
D03*
X56958Y7942D02*
D03*
X56258Y6542D02*
D03*
X56958Y5142D02*
D03*
X56258Y3742D02*
D03*
X56958Y2342D02*
D03*
X56258Y-4658D02*
D03*
X56958Y-6058D02*
D03*
X56258Y-7458D02*
D03*
X56958Y-8858D02*
D03*
X56258Y-10258D02*
D03*
X56958Y-11658D02*
D03*
X56258Y-13058D02*
D03*
X56958Y-14458D02*
D03*
X54858Y12142D02*
D03*
X55558Y10742D02*
D03*
X54858Y9342D02*
D03*
X55558Y7942D02*
D03*
X54858Y6542D02*
D03*
X55558Y5142D02*
D03*
X54858Y3742D02*
D03*
X55558Y2342D02*
D03*
X54858Y-4658D02*
D03*
X55558Y-6058D02*
D03*
X54858Y-7458D02*
D03*
X55558Y-8858D02*
D03*
X54858Y-10258D02*
D03*
X55558Y-11658D02*
D03*
X54158Y10742D02*
D03*
X53458Y9342D02*
D03*
X54158Y7942D02*
D03*
X53458Y6542D02*
D03*
X54158Y5142D02*
D03*
X53458Y3742D02*
D03*
X54158Y2342D02*
D03*
Y-6058D02*
D03*
X53458Y-7458D02*
D03*
X54158Y-8858D02*
D03*
X52058Y9342D02*
D03*
X52758Y7942D02*
D03*
X52058Y6542D02*
D03*
X52758Y5142D02*
D03*
X52058Y3742D02*
D03*
X52758Y2342D02*
D03*
X51358Y10742D02*
D03*
X50658Y9342D02*
D03*
X49958Y10742D02*
D03*
X49258Y9342D02*
D03*
X47858Y14942D02*
D03*
Y3742D02*
D03*
Y-13058D02*
D03*
X46458Y6542D02*
D03*
X47158Y5142D02*
D03*
X46458Y3742D02*
D03*
X47158Y2342D02*
D03*
X45058Y9342D02*
D03*
X45758Y7942D02*
D03*
X45058Y6542D02*
D03*
X45758Y5142D02*
D03*
X45058Y3742D02*
D03*
X45758Y2342D02*
D03*
X43658Y9342D02*
D03*
X44358Y7942D02*
D03*
X43658Y6542D02*
D03*
X44358Y5142D02*
D03*
X43658Y3742D02*
D03*
X44358Y2342D02*
D03*
Y-8858D02*
D03*
X42258Y9342D02*
D03*
X42958Y7942D02*
D03*
X42258Y6542D02*
D03*
X42958Y5142D02*
D03*
X42258Y3742D02*
D03*
X40858Y9342D02*
D03*
X41558Y7942D02*
D03*
X40858Y6542D02*
D03*
X41558Y5142D02*
D03*
X40858Y3742D02*
D03*
X41558Y-8858D02*
D03*
X39458Y9342D02*
D03*
X40158Y7942D02*
D03*
X39458Y6542D02*
D03*
X40158Y5142D02*
D03*
X39458Y3742D02*
D03*
X40158Y-8858D02*
D03*
X38058Y9342D02*
D03*
X38758Y7942D02*
D03*
X38058Y6542D02*
D03*
X38758Y5142D02*
D03*
Y-8858D02*
D03*
X36658Y9342D02*
D03*
X37358Y7942D02*
D03*
X35958D02*
D03*
X32458Y14942D02*
D03*
X24758Y10742D02*
D03*
Y5142D02*
D03*
X22658Y6542D02*
D03*
X21258D02*
D03*
X21958Y5142D02*
D03*
X19858Y14942D02*
D03*
X18458Y6542D02*
D03*
Y3742D02*
D03*
X15658Y12142D02*
D03*
X14258Y9342D02*
D03*
X14958Y7942D02*
D03*
X14258Y6542D02*
D03*
X14958Y5142D02*
D03*
X14258Y3742D02*
D03*
X14958Y2342D02*
D03*
X14258Y942D02*
D03*
X14958Y-458D02*
D03*
X14258Y-1858D02*
D03*
X14958Y-3258D02*
D03*
X14258Y-4658D02*
D03*
X14958Y-6058D02*
D03*
X14258Y-7458D02*
D03*
X12858Y12142D02*
D03*
Y9342D02*
D03*
X13558Y7942D02*
D03*
X12858Y6542D02*
D03*
X13558Y5142D02*
D03*
X12858Y3742D02*
D03*
X13558Y2342D02*
D03*
X12858Y942D02*
D03*
X13558Y-458D02*
D03*
X12858Y-1858D02*
D03*
X13558Y-6058D02*
D03*
X12858Y-7458D02*
D03*
X12158Y7942D02*
D03*
X11458Y6542D02*
D03*
X12158Y5142D02*
D03*
X11458Y3742D02*
D03*
X12158Y2342D02*
D03*
X11458Y942D02*
D03*
X12158Y-458D02*
D03*
X11458Y-1858D02*
D03*
X12158Y-3258D02*
D03*
X11458Y-4658D02*
D03*
X12158Y-6058D02*
D03*
X11458Y-7458D02*
D03*
X12158Y-11658D02*
D03*
X10058Y12142D02*
D03*
X10758Y10742D02*
D03*
X10058Y9342D02*
D03*
Y6542D02*
D03*
X10758Y5142D02*
D03*
X10058Y3742D02*
D03*
X10758Y2342D02*
D03*
X10058Y942D02*
D03*
X10758Y-458D02*
D03*
X10058Y-1858D02*
D03*
X10758Y-3258D02*
D03*
X10058Y-4658D02*
D03*
X9358Y10742D02*
D03*
Y5142D02*
D03*
Y2342D02*
D03*
Y-458D02*
D03*
Y-3258D02*
D03*
Y-6058D02*
D03*
X8658Y-7458D02*
D03*
X9358Y-8858D02*
D03*
Y-11658D02*
D03*
X7258Y14942D02*
D03*
Y12142D02*
D03*
Y9342D02*
D03*
Y3742D02*
D03*
Y942D02*
D03*
Y-1858D02*
D03*
Y-4658D02*
D03*
X5858Y12142D02*
D03*
X6558Y10742D02*
D03*
Y5142D02*
D03*
X5858Y3742D02*
D03*
X6558Y2342D02*
D03*
X5858Y942D02*
D03*
X6558Y-458D02*
D03*
X5858Y-1858D02*
D03*
X6558Y-3258D02*
D03*
X5858Y-4658D02*
D03*
X6558Y-6058D02*
D03*
Y-8858D02*
D03*
Y-11658D02*
D03*
X4458Y14942D02*
D03*
X5158Y5142D02*
D03*
X4458Y3742D02*
D03*
X5158Y2342D02*
D03*
X4458Y942D02*
D03*
X5158Y-458D02*
D03*
X4458Y-1858D02*
D03*
X5158Y-3258D02*
D03*
X4458Y-4658D02*
D03*
X3058Y14942D02*
D03*
X3758Y13542D02*
D03*
X3058Y12142D02*
D03*
Y9342D02*
D03*
Y6542D02*
D03*
X3758Y5142D02*
D03*
X3058Y3742D02*
D03*
X3758Y2342D02*
D03*
X3058Y942D02*
D03*
X3758Y-458D02*
D03*
X3058Y-1858D02*
D03*
X3758Y-3258D02*
D03*
X3058Y-4658D02*
D03*
X3758Y-6058D02*
D03*
X3058Y-7458D02*
D03*
X3758Y-8858D02*
D03*
X3058Y-10258D02*
D03*
X3758Y-11658D02*
D03*
X3058Y-13058D02*
D03*
X1970Y16301D02*
D03*
X62526Y15112D02*
D03*
X62908Y-15185D02*
D03*
X64253Y14266D02*
D03*
Y15366D02*
D03*
X63300Y13716D02*
D03*
X63300Y14816D02*
D03*
Y7116D02*
D03*
Y1616D02*
D03*
X63300Y2716D02*
D03*
X63300Y3816D02*
D03*
X63300Y4916D02*
D03*
Y6016D02*
D03*
X63300Y12616D02*
D03*
X63300Y8216D02*
D03*
X63300Y10416D02*
D03*
X63300Y9316D02*
D03*
X63300Y11516D02*
D03*
X64253Y2166D02*
D03*
X64253Y6566D02*
D03*
Y13166D02*
D03*
Y12066D02*
D03*
X64253Y7666D02*
D03*
X64253Y8766D02*
D03*
Y9866D02*
D03*
X64253Y10966D02*
D03*
X64253Y5466D02*
D03*
Y1066D02*
D03*
X64253Y3266D02*
D03*
X64253Y4366D02*
D03*
X64253Y-1734D02*
D03*
X64253Y-2834D02*
D03*
X64253Y-3934D02*
D03*
X64253Y-5034D02*
D03*
X64253Y-6134D02*
D03*
X64253Y-7234D02*
D03*
X64253Y-8334D02*
D03*
X64253Y-9434D02*
D03*
X64253Y-10534D02*
D03*
X64253Y-11634D02*
D03*
Y-12734D02*
D03*
X64253Y-13834D02*
D03*
X64253Y-14934D02*
D03*
X64253Y-16034D02*
D03*
X63300Y-2284D02*
D03*
Y-3384D02*
D03*
X63300Y-4484D02*
D03*
X63300Y-5584D02*
D03*
X63300Y-6684D02*
D03*
X63300Y-7784D02*
D03*
Y-8884D02*
D03*
Y-9984D02*
D03*
X63300Y-11084D02*
D03*
X63300Y-12184D02*
D03*
Y-13284D02*
D03*
X63300Y-14384D02*
D03*
X2005Y-16137D02*
D03*
X1215Y16083D02*
D03*
X1215Y14983D02*
D03*
X1215Y13883D02*
D03*
X1215Y12783D02*
D03*
Y11683D02*
D03*
X1215Y10583D02*
D03*
X1215Y9483D02*
D03*
X1215Y8383D02*
D03*
X1215Y7283D02*
D03*
X1215Y6183D02*
D03*
X1215Y5083D02*
D03*
X1215Y3983D02*
D03*
X1215Y2883D02*
D03*
X1215Y1783D02*
D03*
X1215Y683D02*
D03*
X1215Y-417D02*
D03*
X1215Y-1517D02*
D03*
X1215Y-2617D02*
D03*
X1215Y-3717D02*
D03*
X1215Y-4817D02*
D03*
Y-5917D02*
D03*
Y-7017D02*
D03*
Y-8117D02*
D03*
X1215Y-9217D02*
D03*
X1215Y-10317D02*
D03*
X1215Y-11417D02*
D03*
X1215Y-12517D02*
D03*
X1215Y-13617D02*
D03*
X1215Y-14717D02*
D03*
X1215Y-15817D02*
D03*
X2168Y15533D02*
D03*
X2168Y14433D02*
D03*
X2168Y13333D02*
D03*
X2168Y12233D02*
D03*
X2168Y11133D02*
D03*
X2168Y10033D02*
D03*
X2168Y8933D02*
D03*
Y7833D02*
D03*
X2168Y6733D02*
D03*
X2168Y5633D02*
D03*
Y4533D02*
D03*
X2168Y3433D02*
D03*
X2168Y2333D02*
D03*
X2168Y1233D02*
D03*
X2168Y133D02*
D03*
X2168Y-967D02*
D03*
X2168Y-2067D02*
D03*
X2168Y-3167D02*
D03*
X2168Y-4267D02*
D03*
Y-5367D02*
D03*
X2168Y-6467D02*
D03*
X2168Y-7567D02*
D03*
X2168Y-8667D02*
D03*
X2168Y-9767D02*
D03*
X2168Y-10867D02*
D03*
X2168Y-11967D02*
D03*
Y-13067D02*
D03*
Y-14167D02*
D03*
X2168Y-15267D02*
D03*
X62902Y16895D02*
D03*
X64002D02*
D03*
X61802D02*
D03*
X60702D02*
D03*
X59602D02*
D03*
X58502D02*
D03*
X57402D02*
D03*
X56302D02*
D03*
X55202D02*
D03*
X54102D02*
D03*
X53002D02*
D03*
X51902D02*
D03*
X50802D02*
D03*
X49702D02*
D03*
X48602D02*
D03*
X47502D02*
D03*
X46402D02*
D03*
X45302D02*
D03*
X44202D02*
D03*
X43102D02*
D03*
X42002D02*
D03*
X40902D02*
D03*
X39802D02*
D03*
X38702D02*
D03*
X37602D02*
D03*
X36502D02*
D03*
X35402D02*
D03*
X34302D02*
D03*
X33202D02*
D03*
X32102D02*
D03*
X31002D02*
D03*
X29902D02*
D03*
X28802D02*
D03*
X27702D02*
D03*
X26602D02*
D03*
X25502D02*
D03*
X24402D02*
D03*
X23302D02*
D03*
X22202D02*
D03*
X21102D02*
D03*
X20002D02*
D03*
X18902D02*
D03*
X17802D02*
D03*
X16702D02*
D03*
X15602D02*
D03*
X14502D02*
D03*
X13402D02*
D03*
X12302D02*
D03*
X11202D02*
D03*
X10102D02*
D03*
X9002D02*
D03*
X7902D02*
D03*
X6802D02*
D03*
X5702D02*
D03*
X4602D02*
D03*
X3502D02*
D03*
X2402D02*
D03*
X1302D02*
D03*
X63513Y16099D02*
D03*
X62352Y15942D02*
D03*
X61252D02*
D03*
X60152D02*
D03*
X59052D02*
D03*
X57952D02*
D03*
X56852D02*
D03*
X55752D02*
D03*
X54652D02*
D03*
X53552D02*
D03*
X52452D02*
D03*
X51352D02*
D03*
X50252D02*
D03*
X49152D02*
D03*
X48052D02*
D03*
X46952D02*
D03*
X45852D02*
D03*
X44752D02*
D03*
X43652D02*
D03*
X42552D02*
D03*
X41452D02*
D03*
X40352D02*
D03*
X39252D02*
D03*
X38152D02*
D03*
X37052D02*
D03*
X35952D02*
D03*
X34852D02*
D03*
X33752D02*
D03*
X32652D02*
D03*
X31552D02*
D03*
X30452D02*
D03*
X29352D02*
D03*
X28252D02*
D03*
X27152D02*
D03*
X26052D02*
D03*
X24952D02*
D03*
X23852D02*
D03*
X22752D02*
D03*
X21652D02*
D03*
X20552D02*
D03*
X19452D02*
D03*
X18352D02*
D03*
X17252D02*
D03*
X16152D02*
D03*
X15052D02*
D03*
X13952D02*
D03*
X12852D02*
D03*
X11752D02*
D03*
X10652D02*
D03*
X9552D02*
D03*
X8452D02*
D03*
X7352D02*
D03*
X6252D02*
D03*
X5152D02*
D03*
X4052D02*
D03*
X2952D02*
D03*
X63365Y-15964D02*
D03*
X62265D02*
D03*
X61165D02*
D03*
X60065D02*
D03*
X58965D02*
D03*
X57865D02*
D03*
X56765D02*
D03*
X55665D02*
D03*
X54565D02*
D03*
X53465D02*
D03*
X52365D02*
D03*
X51265D02*
D03*
X50165D02*
D03*
X49065D02*
D03*
X47965D02*
D03*
X46865D02*
D03*
X45765D02*
D03*
X44665D02*
D03*
X43565D02*
D03*
X42465D02*
D03*
X41365D02*
D03*
X40265D02*
D03*
X39165D02*
D03*
X38065D02*
D03*
X36965D02*
D03*
X35865D02*
D03*
X34765D02*
D03*
X33665D02*
D03*
X32565D02*
D03*
X31465D02*
D03*
X30365D02*
D03*
X29265D02*
D03*
X28165D02*
D03*
X27065D02*
D03*
X25965D02*
D03*
X24865D02*
D03*
X23765D02*
D03*
X22665D02*
D03*
X21565D02*
D03*
X20465D02*
D03*
X19365D02*
D03*
X18265D02*
D03*
X17165D02*
D03*
X16065D02*
D03*
X14965D02*
D03*
X13865D02*
D03*
X12765D02*
D03*
X11665D02*
D03*
X10565D02*
D03*
X9465D02*
D03*
X8365D02*
D03*
X7265D02*
D03*
X6165D02*
D03*
X5065D02*
D03*
X3965D02*
D03*
X2865D02*
D03*
X63915Y-16917D02*
D03*
X62815D02*
D03*
X61715D02*
D03*
X60615D02*
D03*
X59515D02*
D03*
X58415D02*
D03*
X57315D02*
D03*
X56215D02*
D03*
X55115D02*
D03*
X54015D02*
D03*
X52915D02*
D03*
X51815D02*
D03*
X50715D02*
D03*
X49615D02*
D03*
X48515D02*
D03*
X47415D02*
D03*
X46315D02*
D03*
X45215D02*
D03*
X44115D02*
D03*
X43015D02*
D03*
X41915D02*
D03*
X40815D02*
D03*
X39715D02*
D03*
X38615D02*
D03*
X37515D02*
D03*
X36415D02*
D03*
X35315D02*
D03*
X34215D02*
D03*
X33115D02*
D03*
X32015D02*
D03*
X30915D02*
D03*
X29815D02*
D03*
X28715D02*
D03*
X27615D02*
D03*
X26515D02*
D03*
X25415D02*
D03*
X24315D02*
D03*
X23215D02*
D03*
X22115D02*
D03*
X21015D02*
D03*
X19915D02*
D03*
X18815D02*
D03*
X17715D02*
D03*
X16615D02*
D03*
X15515D02*
D03*
X14415D02*
D03*
X13315D02*
D03*
X12215D02*
D03*
X11115D02*
D03*
X10015D02*
D03*
X8915D02*
D03*
X7815D02*
D03*
X6715D02*
D03*
X5615D02*
D03*
X4515D02*
D03*
X3415D02*
D03*
X1215D02*
D03*
X2315D02*
D03*
X25328Y1874D02*
D03*
X29769Y4259D02*
D03*
X48427Y5794D02*
D03*
X48427Y7195D02*
D03*
X49742Y-5197D02*
D03*
X49738Y-6540D02*
D03*
X24579Y2628D02*
D03*
X34041Y9737D02*
D03*
X32670Y9531D02*
D03*
X22349Y-5934D02*
D03*
X25441Y-2788D02*
D03*
X17028Y10201D02*
D03*
X23312Y-5533D02*
D03*
X23744Y-4559D02*
D03*
X30515Y-8285D02*
D03*
X36227Y-8220D02*
D03*
X33359Y-2477D02*
D03*
X20578Y-4985D02*
D03*
X27593Y2397D02*
D03*
X25359Y3901D02*
D03*
X30008Y1405D02*
D03*
X27650Y-5210D02*
D03*
X28250Y-6406D02*
D03*
X23711Y100D02*
D03*
X30788Y-6550D02*
D03*
X30409Y-5175D02*
D03*
X33223Y6521D02*
D03*
X18275Y-4925D02*
D03*
X18500Y-2250D02*
D03*
X19700Y-4300D02*
D03*
D94*
X25328Y2446D02*
X27545D01*
X24579Y2628D02*
X25357Y1851D01*
X27545Y2446D02*
X27593Y2397D01*
X28250Y-6406D02*
X28274Y-6430D01*
Y-7588D02*
Y-6430D01*
Y-7588D02*
X28354Y-7668D01*
D95*
X26449Y-7668D02*
D03*
X28354Y-7668D02*
D03*
D96*
X19900Y-2250D02*
D03*
X21400D02*
D03*
M02*
