G04*
G04 #@! TF.GenerationSoftware,Altium Limited,Altium Designer,22.1.2 (22)*
G04*
G04 Layer_Color=32896*
%FSLAX43Y43*%
%MOMM*%
G71*
G04*
G04 #@! TF.SameCoordinates,532FF45F-5525-43CF-9912-DA75C4080CC9*
G04*
G04*
G04 #@! TF.FilePolarity,Positive*
G04*
G01*
G75*
%ADD11C,0.200*%
%ADD12C,0.300*%
%ADD99C,0.025*%
G36*
X73779Y-39120D02*
X73829Y-39126D01*
X73870Y-39137D01*
X73908Y-39149D01*
X73937Y-39161D01*
X73960Y-39172D01*
X73975Y-39178D01*
X73981Y-39181D01*
X74019Y-39205D01*
X74054Y-39234D01*
X74083Y-39260D01*
X74107Y-39287D01*
X74127Y-39310D01*
X74142Y-39328D01*
X74151Y-39339D01*
X74154Y-39345D01*
Y-39149D01*
X74365D01*
Y-40543D01*
X74127D01*
Y-39820D01*
X74124Y-39752D01*
X74121Y-39694D01*
X74116Y-39644D01*
X74107Y-39603D01*
X74101Y-39571D01*
X74095Y-39547D01*
X74092Y-39536D01*
X74089Y-39530D01*
X74072Y-39495D01*
X74054Y-39462D01*
X74034Y-39436D01*
X74013Y-39413D01*
X73995Y-39398D01*
X73981Y-39383D01*
X73969Y-39377D01*
X73966Y-39374D01*
X73934Y-39357D01*
X73902Y-39345D01*
X73870Y-39333D01*
X73843Y-39328D01*
X73817Y-39325D01*
X73799Y-39322D01*
X73782D01*
X73735Y-39325D01*
X73697Y-39333D01*
X73665Y-39348D01*
X73638Y-39360D01*
X73618Y-39374D01*
X73606Y-39389D01*
X73597Y-39398D01*
X73594Y-39401D01*
X73574Y-39433D01*
X73559Y-39471D01*
X73550Y-39509D01*
X73542Y-39550D01*
X73539Y-39582D01*
X73536Y-39612D01*
Y-39623D01*
Y-39632D01*
Y-39635D01*
Y-39638D01*
Y-40543D01*
X73298Y-40543D01*
Y-39735D01*
X73296Y-39659D01*
X73284Y-39594D01*
X73269Y-39541D01*
X73249Y-39497D01*
X73231Y-39462D01*
X73216Y-39439D01*
X73205Y-39427D01*
X73202Y-39421D01*
X73164Y-39389D01*
X73120Y-39363D01*
X73079Y-39345D01*
X73041Y-39333D01*
X73009Y-39328D01*
X72979Y-39322D01*
X72956D01*
X72927Y-39325D01*
X72900Y-39328D01*
X72874Y-39333D01*
X72853Y-39339D01*
X72839Y-39348D01*
X72827Y-39354D01*
X72818Y-39357D01*
X72815Y-39360D01*
X72795Y-39374D01*
X72777Y-39392D01*
X72763Y-39410D01*
X72751Y-39424D01*
X72742Y-39439D01*
X72736Y-39451D01*
X72730Y-39459D01*
Y-39462D01*
X72722Y-39489D01*
X72716Y-39521D01*
X72710Y-39588D01*
X72707Y-39618D01*
Y-39644D01*
Y-39661D01*
Y-39664D01*
Y-39667D01*
Y-40543D01*
X72470D01*
Y-39588D01*
Y-39544D01*
X72476Y-39503D01*
X72487Y-39430D01*
X72505Y-39372D01*
X72525Y-39322D01*
X72549Y-39284D01*
X72566Y-39254D01*
X72578Y-39240D01*
X72584Y-39234D01*
X72631Y-39196D01*
X72681Y-39167D01*
X72733Y-39146D01*
X72786Y-39131D01*
X72830Y-39123D01*
X72850Y-39120D01*
X72868D01*
X72883Y-39117D01*
X72903D01*
X72953Y-39120D01*
X72997Y-39128D01*
X73041Y-39140D01*
X73082Y-39155D01*
X73158Y-39196D01*
X73190Y-39216D01*
X73219Y-39240D01*
X73246Y-39263D01*
X73269Y-39284D01*
X73290Y-39304D01*
X73307Y-39325D01*
X73319Y-39339D01*
X73328Y-39351D01*
X73334Y-39360D01*
X73337Y-39363D01*
X73354Y-39322D01*
X73375Y-39284D01*
X73398Y-39254D01*
X73421Y-39228D01*
X73442Y-39208D01*
X73460Y-39193D01*
X73471Y-39184D01*
X73477Y-39181D01*
X73515Y-39161D01*
X73556Y-39143D01*
X73600Y-39131D01*
X73638Y-39126D01*
X73673Y-39120D01*
X73703Y-39117D01*
X73729D01*
X73779Y-39120D01*
D02*
G37*
G36*
X64439Y-39120D02*
X64501Y-39126D01*
X64554Y-39131D01*
X64600Y-39140D01*
X64639Y-39152D01*
X64668Y-39158D01*
X64677Y-39161D01*
X64685Y-39164D01*
X64688Y-39167D01*
X64691D01*
X64738Y-39187D01*
X64779Y-39210D01*
X64817Y-39234D01*
X64846Y-39254D01*
X64870Y-39275D01*
X64885Y-39292D01*
X64896Y-39304D01*
X64899Y-39307D01*
X64926Y-39342D01*
X64946Y-39383D01*
X64964Y-39421D01*
X64978Y-39459D01*
X64987Y-39495D01*
X64996Y-39521D01*
X64999Y-39538D01*
X65002Y-39541D01*
Y-39544D01*
X64770Y-39577D01*
X64756Y-39527D01*
X64735Y-39483D01*
X64718Y-39448D01*
X64697Y-39418D01*
X64680Y-39398D01*
X64665Y-39383D01*
X64656Y-39374D01*
X64653Y-39372D01*
X64621Y-39351D01*
X64580Y-39336D01*
X64542Y-39328D01*
X64501Y-39319D01*
X64463Y-39316D01*
X64434Y-39313D01*
X64407D01*
X64346Y-39316D01*
X64290Y-39325D01*
X64243Y-39339D01*
X64205Y-39354D01*
X64176Y-39369D01*
X64155Y-39383D01*
X64141Y-39392D01*
X64138Y-39395D01*
X64114Y-39421D01*
X64100Y-39451D01*
X64088Y-39486D01*
X64079Y-39518D01*
X64073Y-39547D01*
X64070Y-39574D01*
Y-39591D01*
Y-39594D01*
Y-39597D01*
Y-39603D01*
Y-39612D01*
Y-39632D01*
X64073Y-39650D01*
Y-39656D01*
Y-39659D01*
X64100Y-39667D01*
X64129Y-39676D01*
X64196Y-39694D01*
X64267Y-39705D01*
X64334Y-39717D01*
X64398Y-39729D01*
X64425Y-39732D01*
X64448Y-39735D01*
X64469Y-39738D01*
X64483D01*
X64492Y-39741D01*
X64495D01*
X64545Y-39746D01*
X64586Y-39752D01*
X64624Y-39758D01*
X64653Y-39764D01*
X64677Y-39770D01*
X64691Y-39773D01*
X64703Y-39776D01*
X64706D01*
X64741Y-39787D01*
X64773Y-39799D01*
X64800Y-39811D01*
X64826Y-39825D01*
X64846Y-39837D01*
X64861Y-39846D01*
X64873Y-39852D01*
X64876Y-39855D01*
X64902Y-39875D01*
X64926Y-39896D01*
X64949Y-39919D01*
X64967Y-39940D01*
X64981Y-39960D01*
X64990Y-39975D01*
X64996Y-39987D01*
X64999Y-39989D01*
X65013Y-40022D01*
X65025Y-40054D01*
X65031Y-40086D01*
X65037Y-40115D01*
X65040Y-40139D01*
X65043Y-40159D01*
Y-40171D01*
Y-40177D01*
X65037Y-40238D01*
X65022Y-40297D01*
X65005Y-40344D01*
X64981Y-40385D01*
X64958Y-40420D01*
X64940Y-40443D01*
X64926Y-40458D01*
X64920Y-40464D01*
X64870Y-40502D01*
X64811Y-40528D01*
X64756Y-40549D01*
X64697Y-40561D01*
X64647Y-40569D01*
X64624Y-40572D01*
X64606D01*
X64589Y-40575D01*
X64568D01*
X64516Y-40572D01*
X64469Y-40566D01*
X64425Y-40561D01*
X64384Y-40552D01*
X64352Y-40543D01*
X64328Y-40534D01*
X64313Y-40531D01*
X64308Y-40528D01*
X64261Y-40508D01*
X64217Y-40484D01*
X64173Y-40458D01*
X64135Y-40429D01*
X64100Y-40405D01*
X64076Y-40385D01*
X64059Y-40373D01*
X64053Y-40367D01*
X64047Y-40405D01*
X64041Y-40438D01*
X64035Y-40467D01*
X64026Y-40493D01*
X64018Y-40514D01*
X64012Y-40531D01*
X64009Y-40540D01*
X64006Y-40543D01*
X63760D01*
X63786Y-40484D01*
X63798Y-40455D01*
X63807Y-40432D01*
X63813Y-40411D01*
X63816Y-40394D01*
X63819Y-40382D01*
Y-40379D01*
X63821Y-40358D01*
X63824Y-40335D01*
Y-40309D01*
X63827Y-40276D01*
X63830Y-40209D01*
Y-40136D01*
X63833Y-40069D01*
Y-40039D01*
Y-40013D01*
Y-39992D01*
Y-39975D01*
Y-39963D01*
Y-39960D01*
Y-39644D01*
Y-39588D01*
X63836Y-39544D01*
X63839Y-39506D01*
Y-39477D01*
X63842Y-39454D01*
X63845Y-39439D01*
X63848Y-39430D01*
Y-39427D01*
X63857Y-39392D01*
X63868Y-39360D01*
X63880Y-39333D01*
X63892Y-39310D01*
X63903Y-39290D01*
X63912Y-39278D01*
X63918Y-39269D01*
X63921Y-39266D01*
X63944Y-39243D01*
X63968Y-39222D01*
X63997Y-39205D01*
X64024Y-39190D01*
X64047Y-39178D01*
X64067Y-39167D01*
X64079Y-39164D01*
X64085Y-39161D01*
X64129Y-39146D01*
X64176Y-39134D01*
X64226Y-39128D01*
X64272Y-39123D01*
X64313Y-39120D01*
X64346Y-39117D01*
X64375D01*
X64439Y-39120D01*
D02*
G37*
G36*
X68906Y-40543D02*
X68683D01*
X68156Y-39149D01*
X68399D01*
X68709Y-40001D01*
X68730Y-40057D01*
X68747Y-40107D01*
X68762Y-40153D01*
X68774Y-40192D01*
X68783Y-40221D01*
X68791Y-40244D01*
X68794Y-40259D01*
X68797Y-40265D01*
X68812Y-40212D01*
X68829Y-40159D01*
X68844Y-40112D01*
X68859Y-40071D01*
X68870Y-40036D01*
X68879Y-40010D01*
X68885Y-39992D01*
X68888Y-39987D01*
X69187Y-39149D01*
X69436D01*
X68906Y-40543D01*
D02*
G37*
G36*
X63072Y-40546D02*
X63081Y-40572D01*
X63089Y-40590D01*
X63092Y-40602D01*
X63095Y-40604D01*
X63113Y-40651D01*
X63127Y-40692D01*
X63139Y-40722D01*
X63148Y-40745D01*
X63157Y-40763D01*
X63163Y-40771D01*
X63165Y-40777D01*
Y-40780D01*
X63192Y-40812D01*
X63218Y-40836D01*
X63227Y-40845D01*
X63236Y-40850D01*
X63242Y-40856D01*
X63245D01*
X63262Y-40865D01*
X63283Y-40871D01*
X63324Y-40880D01*
X63344D01*
X63356Y-40883D01*
X63370D01*
X63417Y-40880D01*
X63458Y-40871D01*
X63479Y-40865D01*
X63493Y-40862D01*
X63502Y-40859D01*
X63505D01*
X63479Y-41079D01*
X63420Y-41096D01*
X63394Y-41102D01*
X63370Y-41105D01*
X63353D01*
X63338Y-41108D01*
X63327D01*
X63286Y-41105D01*
X63250Y-41099D01*
X63215Y-41091D01*
X63189Y-41079D01*
X63165Y-41070D01*
X63148Y-41061D01*
X63136Y-41055D01*
X63133Y-41053D01*
X63104Y-41029D01*
X63075Y-41003D01*
X63051Y-40973D01*
X63028Y-40947D01*
X63010Y-40921D01*
X62999Y-40900D01*
X62990Y-40889D01*
X62987Y-40883D01*
X62978Y-40865D01*
X62966Y-40845D01*
X62946Y-40795D01*
X62925Y-40745D01*
X62902Y-40692D01*
X62884Y-40643D01*
X62876Y-40622D01*
X62870Y-40604D01*
X62864Y-40587D01*
X62858Y-40575D01*
X62855Y-40569D01*
Y-40566D01*
X62328Y-39149D01*
X62562D01*
X62861Y-39963D01*
X62881Y-40022D01*
X62899Y-40077D01*
X62917Y-40130D01*
X62931Y-40177D01*
X62943Y-40215D01*
X62949Y-40247D01*
X62955Y-40259D01*
Y-40268D01*
X62958Y-40271D01*
Y-40274D01*
X62975Y-40212D01*
X62993Y-40153D01*
X63010Y-40098D01*
X63025Y-40051D01*
X63040Y-40010D01*
X63051Y-39978D01*
X63054Y-39966D01*
X63057Y-39957D01*
X63060Y-39954D01*
Y-39951D01*
X63350Y-39149D01*
X63602D01*
X63072Y-40546D01*
D02*
G37*
G36*
X77311Y-38806D02*
Y-39149D01*
X77486D01*
Y-39333D01*
X77311D01*
Y-40136D01*
Y-40174D01*
Y-40209D01*
X77308Y-40241D01*
Y-40271D01*
X77305Y-40297D01*
X77302Y-40317D01*
X77296Y-40356D01*
X77293Y-40385D01*
X77287Y-40402D01*
X77284Y-40414D01*
Y-40417D01*
X77273Y-40440D01*
X77255Y-40461D01*
X77240Y-40479D01*
X77223Y-40493D01*
X77208Y-40505D01*
X77196Y-40514D01*
X77188Y-40520D01*
X77185Y-40522D01*
X77155Y-40534D01*
X77123Y-40543D01*
X77088Y-40552D01*
X77056Y-40555D01*
X77027Y-40558D01*
X77003Y-40561D01*
X76983D01*
X76921Y-40558D01*
X76892Y-40555D01*
X76866Y-40549D01*
X76839Y-40546D01*
X76822Y-40543D01*
X76810Y-40540D01*
X76804D01*
X76836Y-40332D01*
X76880Y-40338D01*
X76898D01*
X76912Y-40341D01*
X76942D01*
X76977Y-40338D01*
X77003Y-40332D01*
X77018Y-40329D01*
X77024Y-40326D01*
X77041Y-40312D01*
X77053Y-40297D01*
X77059Y-40285D01*
X77062Y-40279D01*
X77065Y-40265D01*
X77068Y-40247D01*
X77071Y-40203D01*
X77073Y-40183D01*
Y-40165D01*
Y-40153D01*
Y-40151D01*
Y-39333D01*
X76836D01*
Y-39149D01*
X77073D01*
Y-38663D01*
X77311Y-38806D01*
D02*
G37*
G36*
X76564D02*
Y-39149D01*
X76740D01*
Y-39333D01*
X76564D01*
Y-40136D01*
Y-40174D01*
Y-40209D01*
X76561Y-40241D01*
Y-40271D01*
X76558Y-40297D01*
X76555Y-40317D01*
X76549Y-40356D01*
X76546Y-40385D01*
X76540Y-40402D01*
X76538Y-40414D01*
Y-40417D01*
X76526Y-40440D01*
X76508Y-40461D01*
X76494Y-40479D01*
X76476Y-40493D01*
X76461Y-40505D01*
X76450Y-40514D01*
X76441Y-40520D01*
X76438Y-40522D01*
X76409Y-40534D01*
X76376Y-40543D01*
X76341Y-40552D01*
X76309Y-40555D01*
X76280Y-40558D01*
X76256Y-40561D01*
X76236D01*
X76174Y-40558D01*
X76145Y-40555D01*
X76119Y-40549D01*
X76092Y-40546D01*
X76075Y-40543D01*
X76063Y-40540D01*
X76057D01*
X76089Y-40332D01*
X76133Y-40338D01*
X76151D01*
X76166Y-40341D01*
X76195D01*
X76230Y-40338D01*
X76256Y-40332D01*
X76271Y-40329D01*
X76277Y-40326D01*
X76294Y-40312D01*
X76306Y-40297D01*
X76312Y-40285D01*
X76315Y-40279D01*
X76318Y-40265D01*
X76321Y-40247D01*
X76324Y-40203D01*
X76327Y-40183D01*
Y-40165D01*
Y-40153D01*
Y-40151D01*
Y-39333D01*
X76089D01*
Y-39149D01*
X76327D01*
Y-38663D01*
X76564Y-38806D01*
D02*
G37*
G36*
X67430Y-39120D02*
X67479Y-39126D01*
X67526Y-39134D01*
X67570Y-39146D01*
X67614Y-39164D01*
X67652Y-39178D01*
X67687Y-39196D01*
X67719Y-39213D01*
X67749Y-39234D01*
X67772Y-39251D01*
X67796Y-39266D01*
X67813Y-39281D01*
X67828Y-39295D01*
X67837Y-39304D01*
X67842Y-39310D01*
X67845Y-39313D01*
X67878Y-39351D01*
X67904Y-39392D01*
X67927Y-39436D01*
X67948Y-39480D01*
X67965Y-39527D01*
X67980Y-39571D01*
X68001Y-39659D01*
X68009Y-39700D01*
X68015Y-39738D01*
X68018Y-39773D01*
X68021Y-39802D01*
X68024Y-39825D01*
Y-39846D01*
Y-39858D01*
Y-39861D01*
X68021Y-39922D01*
X68015Y-39981D01*
X68006Y-40036D01*
X67995Y-40086D01*
X67983Y-40133D01*
X67968Y-40177D01*
X67951Y-40215D01*
X67933Y-40250D01*
X67919Y-40282D01*
X67901Y-40312D01*
X67886Y-40335D01*
X67872Y-40353D01*
X67863Y-40367D01*
X67854Y-40379D01*
X67848Y-40385D01*
X67845Y-40388D01*
X67810Y-40420D01*
X67772Y-40449D01*
X67734Y-40476D01*
X67693Y-40496D01*
X67655Y-40514D01*
X67614Y-40528D01*
X67538Y-40552D01*
X67500Y-40561D01*
X67468Y-40566D01*
X67438Y-40569D01*
X67412Y-40572D01*
X67391Y-40575D01*
X67362D01*
X67274Y-40569D01*
X67198Y-40558D01*
X67128Y-40537D01*
X67072Y-40517D01*
X67046Y-40505D01*
X67025Y-40496D01*
X67008Y-40484D01*
X66993Y-40476D01*
X66979Y-40470D01*
X66970Y-40464D01*
X66967Y-40458D01*
X66964D01*
X66911Y-40411D01*
X66864Y-40356D01*
X66829Y-40300D01*
X66800Y-40247D01*
X66776Y-40197D01*
X66768Y-40177D01*
X66762Y-40159D01*
X66756Y-40145D01*
X66753Y-40133D01*
X66750Y-40127D01*
Y-40124D01*
X66993Y-40092D01*
X67017Y-40145D01*
X67040Y-40192D01*
X67063Y-40230D01*
X67087Y-40259D01*
X67107Y-40285D01*
X67125Y-40300D01*
X67137Y-40312D01*
X67140Y-40315D01*
X67175Y-40338D01*
X67213Y-40353D01*
X67251Y-40364D01*
X67286Y-40373D01*
X67315Y-40379D01*
X67339Y-40382D01*
X67362D01*
X67424Y-40376D01*
X67479Y-40364D01*
X67529Y-40344D01*
X67573Y-40320D01*
X67605Y-40300D01*
X67632Y-40279D01*
X67646Y-40268D01*
X67652Y-40262D01*
X67690Y-40212D01*
X67722Y-40153D01*
X67743Y-40095D01*
X67760Y-40039D01*
X67772Y-39987D01*
X67775Y-39966D01*
X67778Y-39946D01*
Y-39931D01*
X67781Y-39916D01*
Y-39910D01*
Y-39907D01*
X66744D01*
X66741Y-39881D01*
Y-39861D01*
Y-39849D01*
Y-39846D01*
X66744Y-39782D01*
X66750Y-39723D01*
X66759Y-39667D01*
X66768Y-39618D01*
X66782Y-39568D01*
X66797Y-39524D01*
X66815Y-39486D01*
X66829Y-39448D01*
X66847Y-39415D01*
X66864Y-39389D01*
X66879Y-39366D01*
X66891Y-39345D01*
X66902Y-39331D01*
X66911Y-39319D01*
X66917Y-39313D01*
X66920Y-39310D01*
X66955Y-39275D01*
X66990Y-39246D01*
X67028Y-39219D01*
X67066Y-39199D01*
X67104Y-39178D01*
X67143Y-39164D01*
X67213Y-39140D01*
X67248Y-39131D01*
X67277Y-39126D01*
X67307Y-39123D01*
X67330Y-39120D01*
X67350Y-39117D01*
X67377D01*
X67430Y-39120D01*
D02*
G37*
G36*
X80617Y-40543D02*
X79818D01*
X79759Y-40537D01*
X79706Y-40534D01*
X79659Y-40528D01*
X79624Y-40522D01*
X79598Y-40520D01*
X79580Y-40514D01*
X79575D01*
X79531Y-40499D01*
X79490Y-40484D01*
X79452Y-40470D01*
X79422Y-40455D01*
X79396Y-40440D01*
X79378Y-40429D01*
X79367Y-40423D01*
X79364Y-40420D01*
X79334Y-40394D01*
X79305Y-40364D01*
X79282Y-40335D01*
X79261Y-40306D01*
X79247Y-40279D01*
X79232Y-40259D01*
X79226Y-40244D01*
X79223Y-40238D01*
X79203Y-40194D01*
X79188Y-40151D01*
X79179Y-40107D01*
X79170Y-40069D01*
X79167Y-40036D01*
X79165Y-40010D01*
Y-39992D01*
Y-39987D01*
X79167Y-39925D01*
X79179Y-39869D01*
X79194Y-39823D01*
X79211Y-39779D01*
X79232Y-39743D01*
X79247Y-39717D01*
X79258Y-39702D01*
X79261Y-39697D01*
X79299Y-39653D01*
X79343Y-39618D01*
X79387Y-39588D01*
X79431Y-39562D01*
X79469Y-39544D01*
X79501Y-39530D01*
X79513Y-39527D01*
X79522Y-39524D01*
X79528Y-39521D01*
X79531D01*
X79481Y-39495D01*
X79440Y-39465D01*
X79405Y-39439D01*
X79375Y-39410D01*
X79355Y-39386D01*
X79337Y-39366D01*
X79329Y-39354D01*
X79326Y-39348D01*
X79302Y-39307D01*
X79288Y-39263D01*
X79276Y-39225D01*
X79267Y-39190D01*
X79261Y-39158D01*
X79258Y-39134D01*
Y-39120D01*
Y-39114D01*
X79261Y-39064D01*
X79270Y-39017D01*
X79282Y-38976D01*
X79296Y-38938D01*
X79311Y-38906D01*
X79323Y-38880D01*
X79331Y-38865D01*
X79334Y-38859D01*
X79367Y-38815D01*
X79399Y-38780D01*
X79434Y-38748D01*
X79469Y-38721D01*
X79498Y-38704D01*
X79522Y-38689D01*
X79539Y-38680D01*
X79542Y-38677D01*
X79545D01*
X79598Y-38657D01*
X79657Y-38642D01*
X79715Y-38634D01*
X79771Y-38625D01*
X79821Y-38622D01*
X79841D01*
X79862Y-38619D01*
X80617D01*
Y-40543D01*
D02*
G37*
G36*
X65971Y-39120D02*
X66000Y-39126D01*
X66027Y-39131D01*
X66047Y-39140D01*
X66068Y-39152D01*
X66082Y-39158D01*
X66091Y-39164D01*
X66094Y-39167D01*
X66120Y-39187D01*
X66144Y-39216D01*
X66170Y-39249D01*
X66194Y-39281D01*
X66211Y-39310D01*
X66226Y-39336D01*
X66238Y-39354D01*
X66241Y-39357D01*
Y-39149D01*
X66454D01*
Y-40543D01*
X66217D01*
Y-39814D01*
X66214Y-39758D01*
X66211Y-39708D01*
X66205Y-39661D01*
X66197Y-39620D01*
X66191Y-39585D01*
X66185Y-39559D01*
X66182Y-39544D01*
X66179Y-39538D01*
X66167Y-39509D01*
X66156Y-39483D01*
X66141Y-39459D01*
X66126Y-39442D01*
X66115Y-39427D01*
X66103Y-39415D01*
X66097Y-39410D01*
X66094Y-39407D01*
X66071Y-39392D01*
X66047Y-39380D01*
X66024Y-39372D01*
X66003Y-39366D01*
X65983Y-39363D01*
X65968Y-39360D01*
X65956D01*
X65924Y-39363D01*
X65892Y-39369D01*
X65863Y-39377D01*
X65836Y-39386D01*
X65816Y-39395D01*
X65798Y-39404D01*
X65787Y-39410D01*
X65784Y-39413D01*
X65699Y-39196D01*
X65746Y-39169D01*
X65789Y-39149D01*
X65830Y-39137D01*
X65866Y-39126D01*
X65898Y-39120D01*
X65921Y-39117D01*
X65942D01*
X65971Y-39120D01*
D02*
G37*
G36*
X65564Y-40543D02*
X65327D01*
Y-38619D01*
X65564D01*
Y-40543D01*
D02*
G37*
G36*
X78327Y-39120D02*
X78374Y-39123D01*
X78459Y-39140D01*
X78535Y-39167D01*
X78567Y-39181D01*
X78596Y-39193D01*
X78626Y-39208D01*
X78649Y-39222D01*
X78670Y-39237D01*
X78687Y-39249D01*
X78702Y-39257D01*
X78711Y-39266D01*
X78716Y-39269D01*
X78719Y-39272D01*
X78757Y-39310D01*
X78790Y-39351D01*
X78819Y-39395D01*
X78842Y-39442D01*
X78863Y-39489D01*
X78880Y-39536D01*
X78895Y-39582D01*
X78907Y-39629D01*
X78916Y-39673D01*
X78921Y-39714D01*
X78927Y-39749D01*
X78930Y-39782D01*
Y-39808D01*
X78933Y-39828D01*
Y-39840D01*
Y-39846D01*
X78930Y-39910D01*
X78924Y-39972D01*
X78916Y-40028D01*
X78904Y-40080D01*
X78892Y-40127D01*
X78878Y-40174D01*
X78860Y-40212D01*
X78842Y-40250D01*
X78828Y-40282D01*
X78810Y-40309D01*
X78796Y-40332D01*
X78781Y-40353D01*
X78772Y-40367D01*
X78763Y-40379D01*
X78757Y-40385D01*
X78755Y-40388D01*
X78719Y-40420D01*
X78681Y-40449D01*
X78643Y-40476D01*
X78602Y-40496D01*
X78564Y-40514D01*
X78523Y-40528D01*
X78450Y-40552D01*
X78415Y-40561D01*
X78383Y-40566D01*
X78353Y-40569D01*
X78330Y-40572D01*
X78309Y-40575D01*
X78280D01*
X78213Y-40572D01*
X78151Y-40561D01*
X78096Y-40549D01*
X78046Y-40531D01*
X78005Y-40517D01*
X77973Y-40502D01*
X77961Y-40499D01*
X77952Y-40493D01*
X77949Y-40490D01*
X77946D01*
X77891Y-40455D01*
X77844Y-40417D01*
X77803Y-40379D01*
X77770Y-40341D01*
X77744Y-40306D01*
X77724Y-40279D01*
X77712Y-40259D01*
X77709Y-40256D01*
Y-40253D01*
X77683Y-40192D01*
X77662Y-40121D01*
X77647Y-40051D01*
X77636Y-39984D01*
X77633Y-39951D01*
X77630Y-39922D01*
Y-39896D01*
X77627Y-39872D01*
Y-39855D01*
Y-39840D01*
Y-39831D01*
Y-39828D01*
X77630Y-39767D01*
X77636Y-39711D01*
X77645Y-39656D01*
X77656Y-39606D01*
X77671Y-39559D01*
X77686Y-39518D01*
X77703Y-39477D01*
X77718Y-39442D01*
X77735Y-39413D01*
X77753Y-39383D01*
X77768Y-39360D01*
X77782Y-39342D01*
X77794Y-39328D01*
X77803Y-39316D01*
X77809Y-39310D01*
X77811Y-39307D01*
X77847Y-39275D01*
X77885Y-39246D01*
X77923Y-39219D01*
X77961Y-39196D01*
X78002Y-39178D01*
X78040Y-39164D01*
X78113Y-39140D01*
X78148Y-39131D01*
X78180Y-39126D01*
X78207Y-39123D01*
X78233Y-39120D01*
X78254Y-39117D01*
X78280D01*
X78327Y-39120D01*
D02*
G37*
G36*
X75340D02*
X75387Y-39123D01*
X75472Y-39140D01*
X75548Y-39167D01*
X75580Y-39181D01*
X75609Y-39193D01*
X75638Y-39208D01*
X75662Y-39222D01*
X75682Y-39237D01*
X75700Y-39249D01*
X75715Y-39257D01*
X75723Y-39266D01*
X75729Y-39269D01*
X75732Y-39272D01*
X75770Y-39310D01*
X75802Y-39351D01*
X75832Y-39395D01*
X75855Y-39442D01*
X75876Y-39489D01*
X75893Y-39536D01*
X75908Y-39582D01*
X75920Y-39629D01*
X75928Y-39673D01*
X75934Y-39714D01*
X75940Y-39749D01*
X75943Y-39782D01*
Y-39808D01*
X75946Y-39828D01*
Y-39840D01*
Y-39846D01*
X75943Y-39910D01*
X75937Y-39972D01*
X75928Y-40028D01*
X75917Y-40080D01*
X75905Y-40127D01*
X75890Y-40174D01*
X75873Y-40212D01*
X75855Y-40250D01*
X75841Y-40282D01*
X75823Y-40309D01*
X75808Y-40332D01*
X75794Y-40353D01*
X75785Y-40367D01*
X75776Y-40379D01*
X75770Y-40385D01*
X75767Y-40388D01*
X75732Y-40420D01*
X75694Y-40449D01*
X75656Y-40476D01*
X75615Y-40496D01*
X75577Y-40514D01*
X75536Y-40528D01*
X75463Y-40552D01*
X75428Y-40561D01*
X75395Y-40566D01*
X75366Y-40569D01*
X75343Y-40572D01*
X75322Y-40575D01*
X75293D01*
X75226Y-40572D01*
X75164Y-40561D01*
X75108Y-40549D01*
X75059Y-40531D01*
X75018Y-40517D01*
X74985Y-40502D01*
X74974Y-40499D01*
X74965Y-40493D01*
X74962Y-40490D01*
X74959D01*
X74903Y-40455D01*
X74857Y-40417D01*
X74815Y-40379D01*
X74783Y-40341D01*
X74757Y-40306D01*
X74736Y-40279D01*
X74725Y-40259D01*
X74722Y-40256D01*
Y-40253D01*
X74695Y-40192D01*
X74675Y-40121D01*
X74660Y-40051D01*
X74649Y-39984D01*
X74646Y-39951D01*
X74643Y-39922D01*
Y-39896D01*
X74640Y-39872D01*
Y-39855D01*
Y-39840D01*
Y-39831D01*
Y-39828D01*
X74643Y-39767D01*
X74649Y-39711D01*
X74657Y-39656D01*
X74669Y-39606D01*
X74684Y-39559D01*
X74698Y-39518D01*
X74716Y-39477D01*
X74731Y-39442D01*
X74748Y-39413D01*
X74766Y-39383D01*
X74780Y-39360D01*
X74795Y-39342D01*
X74807Y-39328D01*
X74815Y-39316D01*
X74821Y-39310D01*
X74824Y-39307D01*
X74859Y-39275D01*
X74898Y-39246D01*
X74936Y-39219D01*
X74974Y-39196D01*
X75015Y-39178D01*
X75053Y-39164D01*
X75126Y-39140D01*
X75161Y-39131D01*
X75193Y-39126D01*
X75220Y-39123D01*
X75246Y-39120D01*
X75267Y-39117D01*
X75293D01*
X75340Y-39120D01*
D02*
G37*
G36*
X70581Y-38590D02*
X70654Y-38598D01*
X70721Y-38613D01*
X70783Y-38628D01*
X70841Y-38651D01*
X70897Y-38672D01*
X70947Y-38698D01*
X70994Y-38721D01*
X71035Y-38748D01*
X71070Y-38774D01*
X71099Y-38795D01*
X71125Y-38815D01*
X71146Y-38833D01*
X71161Y-38847D01*
X71169Y-38856D01*
X71172Y-38859D01*
X71216Y-38912D01*
X71257Y-38967D01*
X71289Y-39029D01*
X71319Y-39090D01*
X71345Y-39152D01*
X71366Y-39213D01*
X71380Y-39275D01*
X71395Y-39333D01*
X71407Y-39392D01*
X71412Y-39442D01*
X71418Y-39489D01*
X71424Y-39530D01*
Y-39562D01*
X71427Y-39588D01*
Y-39603D01*
Y-39609D01*
X71421Y-39702D01*
X71410Y-39790D01*
X71392Y-39872D01*
X71383Y-39907D01*
X71371Y-39943D01*
X71363Y-39975D01*
X71354Y-40004D01*
X71345Y-40028D01*
X71336Y-40048D01*
X71328Y-40066D01*
X71325Y-40077D01*
X71319Y-40086D01*
Y-40089D01*
X71272Y-40168D01*
X71222Y-40241D01*
X71166Y-40300D01*
X71114Y-40353D01*
X71067Y-40394D01*
X71046Y-40408D01*
X71029Y-40423D01*
X71014Y-40432D01*
X71002Y-40440D01*
X70997Y-40443D01*
X70994Y-40446D01*
X70953Y-40470D01*
X70912Y-40487D01*
X70827Y-40520D01*
X70745Y-40543D01*
X70672Y-40558D01*
X70636Y-40563D01*
X70604Y-40569D01*
X70578Y-40572D01*
X70554D01*
X70534Y-40575D01*
X70507D01*
X70417Y-40569D01*
X70329Y-40558D01*
X70250Y-40537D01*
X70182Y-40517D01*
X70150Y-40505D01*
X70124Y-40496D01*
X70100Y-40484D01*
X70080Y-40476D01*
X70062Y-40470D01*
X70051Y-40464D01*
X70045Y-40458D01*
X70042D01*
X69966Y-40408D01*
X69898Y-40353D01*
X69840Y-40294D01*
X69793Y-40238D01*
X69758Y-40189D01*
X69743Y-40165D01*
X69728Y-40148D01*
X69720Y-40130D01*
X69714Y-40118D01*
X69708Y-40112D01*
Y-40110D01*
X69667Y-40022D01*
X69638Y-39931D01*
X69617Y-39843D01*
X69603Y-39761D01*
X69597Y-39723D01*
X69594Y-39691D01*
X69591Y-39661D01*
Y-39635D01*
X69588Y-39615D01*
Y-39597D01*
Y-39588D01*
Y-39585D01*
X69594Y-39480D01*
X69605Y-39383D01*
X69623Y-39295D01*
X69635Y-39257D01*
X69644Y-39219D01*
X69655Y-39187D01*
X69667Y-39158D01*
X69676Y-39131D01*
X69685Y-39111D01*
X69690Y-39093D01*
X69696Y-39082D01*
X69702Y-39073D01*
Y-39070D01*
X69749Y-38988D01*
X69799Y-38918D01*
X69854Y-38856D01*
X69907Y-38806D01*
X69954Y-38768D01*
X69975Y-38751D01*
X69992Y-38739D01*
X70007Y-38727D01*
X70018Y-38721D01*
X70024Y-38716D01*
X70027D01*
X70068Y-38692D01*
X70109Y-38672D01*
X70191Y-38642D01*
X70273Y-38619D01*
X70346Y-38601D01*
X70382Y-38598D01*
X70411Y-38593D01*
X70440Y-38590D01*
X70464D01*
X70481Y-38587D01*
X70507D01*
X70581Y-38590D01*
D02*
G37*
G36*
X37801Y-38593D02*
X37894Y-38604D01*
X37982Y-38625D01*
X38020Y-38636D01*
X38056Y-38645D01*
X38088Y-38657D01*
X38117Y-38669D01*
X38143Y-38677D01*
X38164Y-38689D01*
X38179Y-38695D01*
X38193Y-38701D01*
X38199Y-38707D01*
X38202D01*
X38243Y-38730D01*
X38278Y-38757D01*
X38348Y-38812D01*
X38404Y-38871D01*
X38454Y-38929D01*
X38489Y-38985D01*
X38504Y-39005D01*
X38518Y-39026D01*
X38527Y-39044D01*
X38533Y-39055D01*
X38539Y-39064D01*
Y-39067D01*
X38577Y-39158D01*
X38606Y-39251D01*
X38627Y-39339D01*
X38641Y-39421D01*
X38647Y-39456D01*
X38650Y-39489D01*
X38653Y-39518D01*
Y-39544D01*
X38656Y-39565D01*
Y-39579D01*
Y-39588D01*
Y-39591D01*
X38650Y-39694D01*
X38638Y-39790D01*
X38618Y-39878D01*
X38609Y-39919D01*
X38597Y-39954D01*
X38586Y-39989D01*
X38577Y-40019D01*
X38565Y-40045D01*
X38556Y-40066D01*
X38550Y-40083D01*
X38545Y-40095D01*
X38539Y-40104D01*
Y-40107D01*
X38489Y-40186D01*
X38433Y-40256D01*
X38378Y-40317D01*
X38319Y-40367D01*
X38269Y-40405D01*
X38249Y-40420D01*
X38228Y-40432D01*
X38214Y-40443D01*
X38199Y-40449D01*
X38193Y-40452D01*
X38190Y-40455D01*
X38102Y-40496D01*
X38012Y-40525D01*
X37927Y-40546D01*
X37845Y-40561D01*
X37810Y-40566D01*
X37777Y-40569D01*
X37748Y-40572D01*
X37722D01*
X37701Y-40575D01*
X37675D01*
X37599Y-40572D01*
X37522Y-40563D01*
X37455Y-40552D01*
X37394Y-40537D01*
X37367Y-40531D01*
X37341Y-40525D01*
X37320Y-40520D01*
X37303Y-40514D01*
X37288Y-40508D01*
X37276Y-40505D01*
X37271Y-40502D01*
X37268D01*
X37194Y-40470D01*
X37121Y-40435D01*
X37057Y-40397D01*
X36998Y-40361D01*
X36948Y-40326D01*
X36928Y-40315D01*
X36910Y-40300D01*
X36896Y-40291D01*
X36887Y-40282D01*
X36881Y-40279D01*
X36878Y-40276D01*
Y-39562D01*
X37692D01*
Y-39787D01*
X37127D01*
Y-40151D01*
X37162Y-40177D01*
X37200Y-40203D01*
X37238Y-40227D01*
X37276Y-40247D01*
X37312Y-40265D01*
X37341Y-40276D01*
X37353Y-40282D01*
X37361Y-40285D01*
X37364Y-40288D01*
X37367D01*
X37426Y-40309D01*
X37484Y-40323D01*
X37540Y-40335D01*
X37587Y-40341D01*
X37628Y-40347D01*
X37660Y-40350D01*
X37689D01*
X37760Y-40347D01*
X37827Y-40338D01*
X37886Y-40323D01*
X37941Y-40309D01*
X37985Y-40294D01*
X38006Y-40285D01*
X38020Y-40279D01*
X38032Y-40276D01*
X38041Y-40271D01*
X38047Y-40268D01*
X38050D01*
X38108Y-40233D01*
X38161Y-40192D01*
X38205Y-40148D01*
X38240Y-40107D01*
X38266Y-40069D01*
X38287Y-40039D01*
X38296Y-40028D01*
X38302Y-40019D01*
X38304Y-40013D01*
Y-40010D01*
X38334Y-39940D01*
X38354Y-39869D01*
X38372Y-39796D01*
X38381Y-39726D01*
X38384Y-39697D01*
X38386Y-39667D01*
X38389Y-39641D01*
Y-39620D01*
X38392Y-39600D01*
Y-39588D01*
Y-39579D01*
Y-39577D01*
X38389Y-39500D01*
X38381Y-39427D01*
X38369Y-39363D01*
X38354Y-39304D01*
X38343Y-39257D01*
X38337Y-39237D01*
X38331Y-39222D01*
X38325Y-39208D01*
X38322Y-39199D01*
X38319Y-39193D01*
Y-39190D01*
X38302Y-39152D01*
X38284Y-39117D01*
X38263Y-39085D01*
X38243Y-39055D01*
X38225Y-39032D01*
X38211Y-39014D01*
X38202Y-39003D01*
X38199Y-39000D01*
X38167Y-38967D01*
X38135Y-38941D01*
X38099Y-38918D01*
X38067Y-38897D01*
X38038Y-38880D01*
X38015Y-38868D01*
X38000Y-38862D01*
X37994Y-38859D01*
X37944Y-38841D01*
X37894Y-38827D01*
X37842Y-38818D01*
X37795Y-38809D01*
X37754Y-38806D01*
X37722Y-38803D01*
X37692D01*
X37640Y-38806D01*
X37590Y-38812D01*
X37546Y-38821D01*
X37508Y-38830D01*
X37476Y-38839D01*
X37449Y-38847D01*
X37435Y-38853D01*
X37429Y-38856D01*
X37385Y-38877D01*
X37350Y-38897D01*
X37317Y-38921D01*
X37291Y-38941D01*
X37271Y-38962D01*
X37256Y-38976D01*
X37247Y-38988D01*
X37244Y-38991D01*
X37221Y-39026D01*
X37200Y-39064D01*
X37183Y-39102D01*
X37168Y-39137D01*
X37156Y-39172D01*
X37145Y-39199D01*
X37142Y-39216D01*
X37139Y-39219D01*
Y-39222D01*
X36907Y-39158D01*
X36928Y-39087D01*
X36951Y-39026D01*
X36975Y-38973D01*
X36998Y-38929D01*
X37022Y-38891D01*
X37039Y-38865D01*
X37051Y-38850D01*
X37054Y-38844D01*
X37092Y-38800D01*
X37136Y-38765D01*
X37180Y-38733D01*
X37224Y-38707D01*
X37262Y-38683D01*
X37291Y-38669D01*
X37303Y-38663D01*
X37312Y-38660D01*
X37317Y-38657D01*
X37320D01*
X37385Y-38634D01*
X37449Y-38616D01*
X37514Y-38604D01*
X37569Y-38595D01*
X37619Y-38590D01*
X37643D01*
X37660Y-38587D01*
X37695D01*
X37801Y-38593D01*
D02*
G37*
G36*
X39303Y-40543D02*
X39034D01*
Y-40274D01*
X39303D01*
Y-40543D01*
D02*
G37*
G36*
X36515D02*
X35716D01*
X35657Y-40537D01*
X35604Y-40534D01*
X35557Y-40528D01*
X35522Y-40522D01*
X35496Y-40520D01*
X35478Y-40514D01*
X35472D01*
X35429Y-40499D01*
X35388Y-40484D01*
X35349Y-40470D01*
X35320Y-40455D01*
X35294Y-40440D01*
X35276Y-40429D01*
X35265Y-40423D01*
X35262Y-40420D01*
X35232Y-40394D01*
X35203Y-40364D01*
X35180Y-40335D01*
X35159Y-40306D01*
X35144Y-40279D01*
X35130Y-40259D01*
X35124Y-40244D01*
X35121Y-40238D01*
X35101Y-40194D01*
X35086Y-40151D01*
X35077Y-40107D01*
X35068Y-40069D01*
X35065Y-40036D01*
X35062Y-40010D01*
Y-39992D01*
Y-39987D01*
X35065Y-39925D01*
X35077Y-39869D01*
X35092Y-39823D01*
X35109Y-39779D01*
X35130Y-39743D01*
X35144Y-39717D01*
X35156Y-39702D01*
X35159Y-39697D01*
X35197Y-39653D01*
X35241Y-39618D01*
X35285Y-39588D01*
X35329Y-39562D01*
X35367Y-39544D01*
X35399Y-39530D01*
X35411Y-39527D01*
X35420Y-39524D01*
X35426Y-39521D01*
X35429D01*
X35379Y-39495D01*
X35338Y-39465D01*
X35303Y-39439D01*
X35273Y-39410D01*
X35253Y-39386D01*
X35235Y-39366D01*
X35226Y-39354D01*
X35224Y-39348D01*
X35200Y-39307D01*
X35185Y-39263D01*
X35174Y-39225D01*
X35165Y-39190D01*
X35159Y-39158D01*
X35156Y-39134D01*
Y-39120D01*
Y-39114D01*
X35159Y-39064D01*
X35168Y-39017D01*
X35180Y-38976D01*
X35194Y-38938D01*
X35209Y-38906D01*
X35221Y-38880D01*
X35229Y-38865D01*
X35232Y-38859D01*
X35265Y-38815D01*
X35297Y-38780D01*
X35332Y-38748D01*
X35367Y-38721D01*
X35396Y-38704D01*
X35420Y-38689D01*
X35437Y-38680D01*
X35440Y-38677D01*
X35443D01*
X35496Y-38657D01*
X35554Y-38642D01*
X35613Y-38634D01*
X35669Y-38625D01*
X35718Y-38622D01*
X35739D01*
X35759Y-38619D01*
X36515D01*
Y-40543D01*
D02*
G37*
G36*
X33944Y-38590D02*
X34017Y-38598D01*
X34084Y-38613D01*
X34146Y-38628D01*
X34204Y-38651D01*
X34260Y-38672D01*
X34310Y-38698D01*
X34357Y-38721D01*
X34398Y-38748D01*
X34433Y-38774D01*
X34462Y-38795D01*
X34488Y-38815D01*
X34509Y-38833D01*
X34524Y-38847D01*
X34532Y-38856D01*
X34535Y-38859D01*
X34579Y-38912D01*
X34620Y-38967D01*
X34652Y-39029D01*
X34682Y-39090D01*
X34708Y-39152D01*
X34729Y-39213D01*
X34743Y-39275D01*
X34758Y-39333D01*
X34770Y-39392D01*
X34775Y-39442D01*
X34781Y-39489D01*
X34787Y-39530D01*
Y-39562D01*
X34790Y-39588D01*
Y-39603D01*
Y-39609D01*
X34784Y-39702D01*
X34773Y-39790D01*
X34755Y-39872D01*
X34746Y-39907D01*
X34734Y-39943D01*
X34726Y-39975D01*
X34717Y-40004D01*
X34708Y-40028D01*
X34699Y-40048D01*
X34691Y-40066D01*
X34688Y-40077D01*
X34682Y-40086D01*
Y-40089D01*
X34635Y-40168D01*
X34585Y-40241D01*
X34529Y-40300D01*
X34477Y-40353D01*
X34430Y-40394D01*
X34409Y-40408D01*
X34392Y-40423D01*
X34377Y-40432D01*
X34365Y-40440D01*
X34360Y-40443D01*
X34357Y-40446D01*
X34316Y-40470D01*
X34275Y-40487D01*
X34190Y-40520D01*
X34108Y-40543D01*
X34035Y-40558D01*
X33999Y-40563D01*
X33967Y-40569D01*
X33941Y-40572D01*
X33917D01*
X33897Y-40575D01*
X33871D01*
X33780Y-40569D01*
X33692Y-40558D01*
X33613Y-40537D01*
X33545Y-40517D01*
X33513Y-40505D01*
X33487Y-40496D01*
X33463Y-40484D01*
X33443Y-40476D01*
X33425Y-40470D01*
X33414Y-40464D01*
X33408Y-40458D01*
X33405D01*
X33329Y-40408D01*
X33261Y-40353D01*
X33203Y-40294D01*
X33156Y-40238D01*
X33121Y-40189D01*
X33106Y-40165D01*
X33091Y-40148D01*
X33083Y-40130D01*
X33077Y-40118D01*
X33071Y-40112D01*
Y-40110D01*
X33030Y-40022D01*
X33001Y-39931D01*
X32980Y-39843D01*
X32966Y-39761D01*
X32960Y-39723D01*
X32957Y-39691D01*
X32954Y-39661D01*
Y-39635D01*
X32951Y-39615D01*
Y-39597D01*
Y-39588D01*
Y-39585D01*
X32957Y-39480D01*
X32968Y-39383D01*
X32986Y-39295D01*
X32998Y-39257D01*
X33007Y-39219D01*
X33018Y-39187D01*
X33030Y-39158D01*
X33039Y-39131D01*
X33048Y-39111D01*
X33053Y-39093D01*
X33059Y-39082D01*
X33065Y-39073D01*
Y-39070D01*
X33112Y-38988D01*
X33162Y-38918D01*
X33217Y-38856D01*
X33270Y-38806D01*
X33317Y-38768D01*
X33338Y-38751D01*
X33355Y-38739D01*
X33370Y-38727D01*
X33381Y-38721D01*
X33387Y-38716D01*
X33390D01*
X33431Y-38692D01*
X33472Y-38672D01*
X33554Y-38642D01*
X33636Y-38619D01*
X33709Y-38601D01*
X33745Y-38598D01*
X33774Y-38593D01*
X33803Y-38590D01*
X33827D01*
X33844Y-38587D01*
X33871D01*
X33944Y-38590D01*
D02*
G37*
G36*
X56153Y-13439D02*
X56169Y-13462D01*
X56186Y-13484D01*
X56204Y-13505D01*
X56220Y-13521D01*
X56233Y-13534D01*
X56242Y-13543D01*
X56243Y-13544D01*
X56245Y-13546D01*
X56273Y-13569D01*
X56302Y-13591D01*
X56331Y-13610D01*
X56357Y-13626D01*
X56381Y-13639D01*
X56391Y-13644D01*
X56400Y-13648D01*
X56406Y-13652D01*
X56412Y-13655D01*
X56415Y-13657D01*
X56416D01*
Y-13772D01*
X56396Y-13764D01*
X56374Y-13753D01*
X56353Y-13745D01*
X56334Y-13734D01*
X56318Y-13726D01*
X56305Y-13718D01*
X56296Y-13712D01*
X56295Y-13711D01*
X56293D01*
X56268Y-13696D01*
X56246Y-13680D01*
X56227Y-13667D01*
X56211Y-13654D01*
X56198Y-13644D01*
X56188Y-13636D01*
X56182Y-13630D01*
X56180Y-13629D01*
Y-14381D01*
X56062D01*
Y-13415D01*
X56139D01*
X56153Y-13439D01*
D02*
G37*
G36*
Y14561D02*
X56169Y14538D01*
X56186Y14516D01*
X56204Y14495D01*
X56220Y14479D01*
X56233Y14466D01*
X56242Y14457D01*
X56243Y14456D01*
X56245Y14454D01*
X56273Y14431D01*
X56302Y14409D01*
X56331Y14390D01*
X56357Y14374D01*
X56381Y14361D01*
X56391Y14356D01*
X56400Y14352D01*
X56406Y14348D01*
X56412Y14345D01*
X56415Y14343D01*
X56416D01*
Y14228D01*
X56396Y14236D01*
X56374Y14247D01*
X56353Y14255D01*
X56334Y14266D01*
X56318Y14274D01*
X56305Y14282D01*
X56296Y14288D01*
X56295Y14289D01*
X56293D01*
X56268Y14304D01*
X56246Y14320D01*
X56227Y14333D01*
X56211Y14346D01*
X56198Y14356D01*
X56188Y14364D01*
X56182Y14370D01*
X56180Y14371D01*
Y13619D01*
X56062D01*
Y14585D01*
X56139D01*
X56153Y14561D01*
D02*
G37*
G36*
X16804Y-11264D02*
X7803D01*
Y-9023D01*
X16804D01*
Y-11264D01*
D02*
G37*
G36*
X37813Y-10219D02*
X37824Y-10234D01*
X37836Y-10249D01*
X37847Y-10263D01*
X37858Y-10273D01*
X37867Y-10282D01*
X37873Y-10288D01*
X37874Y-10289D01*
X37875Y-10290D01*
X37893Y-10306D01*
X37913Y-10320D01*
X37932Y-10333D01*
X37950Y-10344D01*
X37965Y-10352D01*
X37972Y-10355D01*
X37978Y-10358D01*
X37982Y-10361D01*
X37986Y-10363D01*
X37988Y-10364D01*
X37989D01*
Y-10441D01*
X37975Y-10435D01*
X37960Y-10429D01*
X37947Y-10423D01*
X37934Y-10416D01*
X37923Y-10410D01*
X37915Y-10405D01*
X37909Y-10401D01*
X37908Y-10400D01*
X37907D01*
X37890Y-10390D01*
X37876Y-10380D01*
X37863Y-10371D01*
X37852Y-10362D01*
X37843Y-10355D01*
X37837Y-10350D01*
X37833Y-10347D01*
X37832Y-10346D01*
Y-10847D01*
X37753D01*
Y-10203D01*
X37804D01*
X37813Y-10219D01*
D02*
G37*
G36*
X37316D02*
X37326Y-10234D01*
X37338Y-10249D01*
X37350Y-10263D01*
X37361Y-10273D01*
X37369Y-10282D01*
X37375Y-10288D01*
X37376Y-10289D01*
X37377Y-10290D01*
X37396Y-10306D01*
X37415Y-10320D01*
X37435Y-10333D01*
X37452Y-10344D01*
X37468Y-10352D01*
X37475Y-10355D01*
X37481Y-10358D01*
X37485Y-10361D01*
X37488Y-10363D01*
X37490Y-10364D01*
X37491D01*
Y-10441D01*
X37478Y-10435D01*
X37463Y-10429D01*
X37449Y-10423D01*
X37437Y-10416D01*
X37426Y-10410D01*
X37417Y-10405D01*
X37411Y-10401D01*
X37410Y-10400D01*
X37409D01*
X37393Y-10390D01*
X37378Y-10380D01*
X37366Y-10371D01*
X37355Y-10362D01*
X37346Y-10355D01*
X37339Y-10350D01*
X37335Y-10347D01*
X37334Y-10346D01*
Y-10847D01*
X37255D01*
Y-10203D01*
X37307D01*
X37316Y-10219D01*
D02*
G37*
G36*
X38618Y-10847D02*
X38352D01*
X38332Y-10845D01*
X38315Y-10844D01*
X38299Y-10842D01*
X38287Y-10840D01*
X38278Y-10839D01*
X38273Y-10837D01*
X38271D01*
X38256Y-10832D01*
X38242Y-10827D01*
X38230Y-10823D01*
X38220Y-10818D01*
X38211Y-10813D01*
X38205Y-10809D01*
X38201Y-10807D01*
X38200Y-10806D01*
X38191Y-10797D01*
X38181Y-10787D01*
X38173Y-10778D01*
X38166Y-10768D01*
X38161Y-10759D01*
X38157Y-10752D01*
X38155Y-10747D01*
X38154Y-10745D01*
X38147Y-10731D01*
X38142Y-10716D01*
X38139Y-10702D01*
X38136Y-10689D01*
X38135Y-10678D01*
X38134Y-10669D01*
Y-10664D01*
Y-10662D01*
X38135Y-10641D01*
X38139Y-10623D01*
X38144Y-10607D01*
X38150Y-10592D01*
X38157Y-10581D01*
X38161Y-10572D01*
X38165Y-10567D01*
X38166Y-10565D01*
X38179Y-10550D01*
X38194Y-10539D01*
X38208Y-10529D01*
X38223Y-10520D01*
X38236Y-10514D01*
X38246Y-10509D01*
X38250Y-10508D01*
X38253Y-10507D01*
X38255Y-10507D01*
X38256D01*
X38239Y-10498D01*
X38226Y-10488D01*
X38214Y-10479D01*
X38204Y-10469D01*
X38197Y-10462D01*
X38192Y-10455D01*
X38189Y-10451D01*
X38188Y-10449D01*
X38180Y-10435D01*
X38175Y-10421D01*
X38171Y-10408D01*
X38168Y-10396D01*
X38166Y-10386D01*
X38165Y-10378D01*
Y-10373D01*
Y-10371D01*
X38166Y-10354D01*
X38169Y-10339D01*
X38173Y-10325D01*
X38178Y-10312D01*
X38183Y-10302D01*
X38187Y-10293D01*
X38190Y-10288D01*
X38191Y-10286D01*
X38201Y-10271D01*
X38212Y-10260D01*
X38224Y-10249D01*
X38236Y-10240D01*
X38245Y-10234D01*
X38253Y-10230D01*
X38259Y-10227D01*
X38260Y-10226D01*
X38261D01*
X38278Y-10219D01*
X38298Y-10214D01*
X38317Y-10211D01*
X38336Y-10208D01*
X38353Y-10207D01*
X38359D01*
X38366Y-10206D01*
X38618D01*
Y-10847D01*
D02*
G37*
G36*
X39014Y-10196D02*
X39036Y-10199D01*
X39056Y-10202D01*
X39073Y-10206D01*
X39087Y-10211D01*
X39093Y-10213D01*
X39098Y-10214D01*
X39103Y-10216D01*
X39106Y-10217D01*
X39107Y-10218D01*
X39108D01*
X39126Y-10227D01*
X39143Y-10237D01*
X39156Y-10248D01*
X39167Y-10258D01*
X39176Y-10268D01*
X39183Y-10275D01*
X39187Y-10280D01*
X39187Y-10281D01*
Y-10282D01*
X39196Y-10298D01*
X39203Y-10314D01*
X39208Y-10329D01*
X39211Y-10344D01*
X39213Y-10355D01*
X39215Y-10364D01*
Y-10368D01*
Y-10371D01*
Y-10372D01*
Y-10373D01*
X39214Y-10389D01*
X39211Y-10404D01*
X39208Y-10418D01*
X39203Y-10429D01*
X39199Y-10439D01*
X39196Y-10446D01*
X39193Y-10451D01*
X39192Y-10453D01*
X39183Y-10466D01*
X39172Y-10477D01*
X39161Y-10487D01*
X39149Y-10496D01*
X39140Y-10503D01*
X39132Y-10507D01*
X39126Y-10511D01*
X39125Y-10512D01*
X39124D01*
X39117Y-10516D01*
X39108Y-10519D01*
X39090Y-10526D01*
X39069Y-10533D01*
X39049Y-10540D01*
X39030Y-10545D01*
X39023Y-10547D01*
X39016Y-10548D01*
X39010Y-10550D01*
X39005Y-10551D01*
X39002Y-10552D01*
X39001D01*
X38986Y-10556D01*
X38971Y-10560D01*
X38957Y-10563D01*
X38946Y-10566D01*
X38936Y-10569D01*
X38926Y-10572D01*
X38918Y-10574D01*
X38910Y-10576D01*
X38905Y-10578D01*
X38900Y-10580D01*
X38892Y-10582D01*
X38888Y-10583D01*
X38887Y-10584D01*
X38873Y-10589D01*
X38861Y-10596D01*
X38851Y-10602D01*
X38843Y-10608D01*
X38837Y-10614D01*
X38832Y-10618D01*
X38831Y-10621D01*
X38830Y-10622D01*
X38824Y-10630D01*
X38820Y-10639D01*
X38816Y-10648D01*
X38814Y-10657D01*
X38813Y-10664D01*
X38812Y-10669D01*
Y-10673D01*
Y-10674D01*
X38813Y-10685D01*
X38815Y-10695D01*
X38818Y-10705D01*
X38821Y-10712D01*
X38825Y-10719D01*
X38828Y-10724D01*
X38830Y-10728D01*
X38831Y-10729D01*
X38838Y-10738D01*
X38847Y-10745D01*
X38856Y-10752D01*
X38866Y-10758D01*
X38873Y-10763D01*
X38880Y-10766D01*
X38884Y-10768D01*
X38886Y-10769D01*
X38901Y-10774D01*
X38915Y-10777D01*
X38929Y-10780D01*
X38943Y-10781D01*
X38953Y-10782D01*
X38963Y-10783D01*
X38971D01*
X38990Y-10782D01*
X39009Y-10780D01*
X39027Y-10777D01*
X39040Y-10773D01*
X39053Y-10770D01*
X39062Y-10767D01*
X39068Y-10765D01*
X39069Y-10764D01*
X39069D01*
X39084Y-10756D01*
X39098Y-10748D01*
X39108Y-10740D01*
X39117Y-10732D01*
X39125Y-10725D01*
X39130Y-10719D01*
X39133Y-10715D01*
X39134Y-10714D01*
X39141Y-10702D01*
X39147Y-10689D01*
X39150Y-10675D01*
X39154Y-10663D01*
X39156Y-10651D01*
X39158Y-10642D01*
X39159Y-10636D01*
Y-10635D01*
Y-10634D01*
X39239Y-10641D01*
X39237Y-10665D01*
X39233Y-10686D01*
X39227Y-10706D01*
X39222Y-10723D01*
X39216Y-10738D01*
X39213Y-10744D01*
X39210Y-10748D01*
X39208Y-10752D01*
X39206Y-10755D01*
X39205Y-10756D01*
Y-10757D01*
X39191Y-10775D01*
X39176Y-10790D01*
X39161Y-10803D01*
X39146Y-10814D01*
X39133Y-10823D01*
X39122Y-10828D01*
X39118Y-10830D01*
X39115Y-10832D01*
X39113Y-10833D01*
X39112D01*
X39089Y-10841D01*
X39065Y-10847D01*
X39040Y-10852D01*
X39018Y-10855D01*
X39007Y-10856D01*
X38997Y-10857D01*
X38989D01*
X38982Y-10858D01*
X38967D01*
X38942Y-10857D01*
X38919Y-10854D01*
X38898Y-10850D01*
X38880Y-10845D01*
X38865Y-10841D01*
X38859Y-10839D01*
X38854Y-10837D01*
X38850Y-10835D01*
X38847Y-10834D01*
X38845Y-10833D01*
X38844D01*
X38825Y-10823D01*
X38807Y-10812D01*
X38792Y-10800D01*
X38781Y-10788D01*
X38771Y-10779D01*
X38765Y-10771D01*
X38760Y-10765D01*
X38759Y-10763D01*
X38750Y-10746D01*
X38743Y-10729D01*
X38737Y-10712D01*
X38734Y-10698D01*
X38732Y-10685D01*
X38730Y-10675D01*
Y-10671D01*
Y-10668D01*
Y-10667D01*
Y-10666D01*
X38731Y-10648D01*
X38734Y-10630D01*
X38739Y-10615D01*
X38744Y-10602D01*
X38749Y-10590D01*
X38753Y-10583D01*
X38756Y-10578D01*
X38757Y-10576D01*
X38768Y-10562D01*
X38781Y-10549D01*
X38794Y-10538D01*
X38808Y-10528D01*
X38821Y-10521D01*
X38831Y-10515D01*
X38834Y-10513D01*
X38836Y-10511D01*
X38838Y-10510D01*
X38839D01*
X38847Y-10507D01*
X38857Y-10504D01*
X38867Y-10500D01*
X38878Y-10497D01*
X38902Y-10490D01*
X38925Y-10483D01*
X38947Y-10478D01*
X38956Y-10475D01*
X38965Y-10473D01*
X38972Y-10471D01*
X38977Y-10470D01*
X38981Y-10469D01*
X38982D01*
X39000Y-10465D01*
X39017Y-10461D01*
X39031Y-10457D01*
X39045Y-10452D01*
X39057Y-10448D01*
X39067Y-10445D01*
X39075Y-10441D01*
X39083Y-10437D01*
X39090Y-10434D01*
X39096Y-10432D01*
X39100Y-10429D01*
X39103Y-10428D01*
X39108Y-10425D01*
X39108Y-10424D01*
X39116Y-10415D01*
X39122Y-10406D01*
X39127Y-10396D01*
X39130Y-10388D01*
X39132Y-10380D01*
X39133Y-10373D01*
Y-10369D01*
Y-10367D01*
X39131Y-10352D01*
X39127Y-10340D01*
X39122Y-10328D01*
X39115Y-10318D01*
X39109Y-10309D01*
X39104Y-10304D01*
X39100Y-10300D01*
X39099Y-10299D01*
X39092Y-10294D01*
X39084Y-10289D01*
X39067Y-10282D01*
X39048Y-10277D01*
X39029Y-10274D01*
X39013Y-10271D01*
X39005D01*
X38999Y-10270D01*
X38987D01*
X38960Y-10271D01*
X38938Y-10275D01*
X38918Y-10280D01*
X38903Y-10286D01*
X38891Y-10292D01*
X38882Y-10297D01*
X38877Y-10301D01*
X38875Y-10302D01*
X38863Y-10314D01*
X38852Y-10329D01*
X38844Y-10344D01*
X38838Y-10358D01*
X38834Y-10372D01*
X38832Y-10383D01*
X38831Y-10387D01*
X38831Y-10389D01*
Y-10391D01*
Y-10392D01*
X38750Y-10387D01*
X38751Y-10366D01*
X38755Y-10348D01*
X38761Y-10330D01*
X38767Y-10315D01*
X38772Y-10304D01*
X38777Y-10294D01*
X38781Y-10288D01*
X38782Y-10286D01*
X38793Y-10270D01*
X38807Y-10257D01*
X38821Y-10245D01*
X38834Y-10235D01*
X38847Y-10229D01*
X38857Y-10223D01*
X38861Y-10221D01*
X38864Y-10220D01*
X38865Y-10219D01*
X38866D01*
X38886Y-10211D01*
X38908Y-10205D01*
X38929Y-10201D01*
X38949Y-10198D01*
X38965Y-10196D01*
X38972D01*
X38979Y-10195D01*
X38990D01*
X39014Y-10196D01*
D02*
G37*
G36*
X31566Y-11591D02*
X31590Y-11596D01*
X31613Y-11603D01*
X31631Y-11611D01*
X31646Y-11619D01*
X31652Y-11623D01*
X31656Y-11626D01*
X31661Y-11629D01*
X31664Y-11631D01*
X31665Y-11632D01*
X31666Y-11633D01*
X31684Y-11651D01*
X31697Y-11670D01*
X31709Y-11691D01*
X31717Y-11710D01*
X31724Y-11728D01*
X31726Y-11735D01*
X31728Y-11742D01*
X31729Y-11747D01*
X31730Y-11751D01*
X31731Y-11754D01*
Y-11755D01*
X31652Y-11769D01*
X31648Y-11748D01*
X31642Y-11731D01*
X31636Y-11716D01*
X31629Y-11704D01*
X31623Y-11694D01*
X31618Y-11688D01*
X31614Y-11684D01*
X31613Y-11683D01*
X31601Y-11673D01*
X31588Y-11666D01*
X31575Y-11660D01*
X31563Y-11657D01*
X31553Y-11655D01*
X31544Y-11654D01*
X31536D01*
X31520Y-11654D01*
X31505Y-11658D01*
X31493Y-11662D01*
X31482Y-11668D01*
X31473Y-11673D01*
X31466Y-11678D01*
X31462Y-11682D01*
X31461Y-11683D01*
X31452Y-11693D01*
X31445Y-11706D01*
X31439Y-11718D01*
X31436Y-11729D01*
X31434Y-11739D01*
X31432Y-11747D01*
Y-11752D01*
Y-11753D01*
Y-11754D01*
X31434Y-11773D01*
X31439Y-11790D01*
X31445Y-11804D01*
X31453Y-11814D01*
X31460Y-11823D01*
X31466Y-11830D01*
X31471Y-11834D01*
X31473Y-11835D01*
X31489Y-11844D01*
X31504Y-11850D01*
X31519Y-11854D01*
X31533Y-11857D01*
X31545Y-11859D01*
X31554Y-11860D01*
X31567D01*
X31571Y-11859D01*
X31575D01*
X31584Y-11929D01*
X31573Y-11926D01*
X31562Y-11924D01*
X31552Y-11923D01*
X31544Y-11922D01*
X31537Y-11921D01*
X31529D01*
X31509Y-11923D01*
X31493Y-11927D01*
X31477Y-11931D01*
X31464Y-11938D01*
X31454Y-11945D01*
X31446Y-11950D01*
X31442Y-11954D01*
X31440Y-11956D01*
X31428Y-11970D01*
X31419Y-11984D01*
X31413Y-12000D01*
X31409Y-12013D01*
X31406Y-12026D01*
X31405Y-12036D01*
X31404Y-12040D01*
Y-12043D01*
Y-12044D01*
Y-12045D01*
X31406Y-12065D01*
X31410Y-12084D01*
X31415Y-12100D01*
X31422Y-12114D01*
X31430Y-12126D01*
X31436Y-12133D01*
X31440Y-12138D01*
X31442Y-12140D01*
X31456Y-12153D01*
X31472Y-12163D01*
X31488Y-12168D01*
X31503Y-12173D01*
X31516Y-12176D01*
X31526Y-12177D01*
X31530Y-12178D01*
X31535D01*
X31552Y-12177D01*
X31568Y-12173D01*
X31581Y-12168D01*
X31592Y-12164D01*
X31602Y-12158D01*
X31609Y-12154D01*
X31613Y-12150D01*
X31614Y-12149D01*
X31625Y-12136D01*
X31635Y-12122D01*
X31643Y-12105D01*
X31649Y-12090D01*
X31653Y-12075D01*
X31656Y-12063D01*
X31658Y-12059D01*
Y-12055D01*
X31659Y-12053D01*
Y-12052D01*
X31738Y-12063D01*
X31736Y-12078D01*
X31733Y-12091D01*
X31725Y-12117D01*
X31715Y-12139D01*
X31703Y-12159D01*
X31698Y-12167D01*
X31692Y-12173D01*
X31688Y-12179D01*
X31684Y-12185D01*
X31680Y-12189D01*
X31677Y-12192D01*
X31676Y-12193D01*
X31675Y-12194D01*
X31664Y-12203D01*
X31653Y-12210D01*
X31642Y-12217D01*
X31630Y-12222D01*
X31607Y-12232D01*
X31584Y-12238D01*
X31574Y-12240D01*
X31565Y-12241D01*
X31557Y-12242D01*
X31549Y-12243D01*
X31543Y-12244D01*
X31535D01*
X31519Y-12243D01*
X31502Y-12241D01*
X31487Y-12239D01*
X31472Y-12235D01*
X31458Y-12230D01*
X31446Y-12225D01*
X31434Y-12220D01*
X31423Y-12214D01*
X31415Y-12209D01*
X31406Y-12205D01*
X31398Y-12200D01*
X31392Y-12195D01*
X31387Y-12191D01*
X31384Y-12189D01*
X31382Y-12187D01*
X31381Y-12186D01*
X31371Y-12174D01*
X31361Y-12163D01*
X31353Y-12151D01*
X31346Y-12139D01*
X31339Y-12128D01*
X31335Y-12115D01*
X31328Y-12092D01*
X31325Y-12083D01*
X31323Y-12073D01*
X31322Y-12065D01*
X31321Y-12057D01*
X31320Y-12051D01*
Y-12048D01*
Y-12045D01*
Y-12044D01*
X31321Y-12021D01*
X31325Y-12001D01*
X31330Y-11983D01*
X31336Y-11969D01*
X31342Y-11957D01*
X31347Y-11948D01*
X31351Y-11942D01*
X31352Y-11940D01*
X31365Y-11926D01*
X31379Y-11914D01*
X31394Y-11904D01*
X31408Y-11897D01*
X31420Y-11892D01*
X31430Y-11889D01*
X31434Y-11887D01*
X31437D01*
X31439Y-11886D01*
X31440D01*
X31424Y-11878D01*
X31411Y-11868D01*
X31400Y-11859D01*
X31390Y-11851D01*
X31383Y-11843D01*
X31377Y-11837D01*
X31375Y-11833D01*
X31374Y-11831D01*
X31366Y-11818D01*
X31361Y-11805D01*
X31357Y-11792D01*
X31354Y-11780D01*
X31352Y-11771D01*
X31351Y-11763D01*
Y-11758D01*
Y-11756D01*
X31352Y-11739D01*
X31355Y-11725D01*
X31359Y-11711D01*
X31363Y-11698D01*
X31367Y-11689D01*
X31371Y-11681D01*
X31374Y-11676D01*
X31375Y-11674D01*
X31384Y-11660D01*
X31395Y-11648D01*
X31407Y-11637D01*
X31417Y-11628D01*
X31427Y-11621D01*
X31435Y-11616D01*
X31441Y-11614D01*
X31442Y-11613D01*
X31443D01*
X31459Y-11605D01*
X31476Y-11599D01*
X31493Y-11595D01*
X31507Y-11592D01*
X31520Y-11590D01*
X31530Y-11589D01*
X31552D01*
X31566Y-11591D01*
D02*
G37*
G36*
X32107Y-11583D02*
X32136Y-11587D01*
X32163Y-11594D01*
X32174Y-11597D01*
X32185Y-11601D01*
X32195Y-11605D01*
X32205Y-11608D01*
X32212Y-11612D01*
X32218Y-11615D01*
X32224Y-11616D01*
X32228Y-11618D01*
X32230Y-11620D01*
X32231D01*
X32255Y-11636D01*
X32278Y-11654D01*
X32296Y-11673D01*
X32311Y-11692D01*
X32324Y-11708D01*
X32328Y-11715D01*
X32332Y-11721D01*
X32335Y-11727D01*
X32337Y-11731D01*
X32339Y-11733D01*
Y-11733D01*
X32352Y-11762D01*
X32362Y-11792D01*
X32367Y-11821D01*
X32372Y-11849D01*
X32374Y-11861D01*
X32375Y-11872D01*
X32376Y-11883D01*
Y-11892D01*
X32377Y-11898D01*
Y-11903D01*
Y-11907D01*
Y-11908D01*
X32376Y-11942D01*
X32372Y-11973D01*
X32366Y-12003D01*
X32364Y-12016D01*
X32361Y-12028D01*
X32358Y-12040D01*
X32355Y-12050D01*
X32352Y-12058D01*
X32349Y-12066D01*
X32347Y-12072D01*
X32345Y-12076D01*
X32344Y-12079D01*
Y-12080D01*
X32330Y-12108D01*
X32314Y-12132D01*
X32298Y-12154D01*
X32282Y-12170D01*
X32268Y-12184D01*
X32256Y-12194D01*
X32251Y-12197D01*
X32248Y-12200D01*
X32246Y-12201D01*
X32246Y-12202D01*
X32233Y-12209D01*
X32219Y-12215D01*
X32192Y-12226D01*
X32164Y-12233D01*
X32136Y-12239D01*
X32125Y-12240D01*
X32113Y-12242D01*
X32103Y-12243D01*
X32094D01*
X32087Y-12244D01*
X32077D01*
X32058Y-12243D01*
X32041Y-12242D01*
X32009Y-12235D01*
X31994Y-12231D01*
X31979Y-12226D01*
X31967Y-12221D01*
X31955Y-12216D01*
X31944Y-12211D01*
X31935Y-12207D01*
X31928Y-12202D01*
X31921Y-12198D01*
X31915Y-12194D01*
X31911Y-12191D01*
X31909Y-12190D01*
X31908Y-12189D01*
X31895Y-12178D01*
X31884Y-12167D01*
X31864Y-12141D01*
X31847Y-12115D01*
X31834Y-12089D01*
X31828Y-12077D01*
X31824Y-12066D01*
X31820Y-12055D01*
X31816Y-12048D01*
X31814Y-12040D01*
X31812Y-12035D01*
X31811Y-12031D01*
Y-12030D01*
X31896Y-12009D01*
X31904Y-12037D01*
X31914Y-12062D01*
X31926Y-12083D01*
X31936Y-12100D01*
X31947Y-12113D01*
X31956Y-12123D01*
X31962Y-12129D01*
X31963Y-12129D01*
X31964Y-12130D01*
X31983Y-12144D01*
X32003Y-12154D01*
X32023Y-12162D01*
X32042Y-12167D01*
X32058Y-12169D01*
X32066Y-12170D01*
X32072D01*
X32077Y-12171D01*
X32084D01*
X32105Y-12170D01*
X32126Y-12167D01*
X32144Y-12162D01*
X32160Y-12157D01*
X32173Y-12151D01*
X32184Y-12147D01*
X32188Y-12145D01*
X32191Y-12143D01*
X32192Y-12142D01*
X32193D01*
X32210Y-12129D01*
X32225Y-12115D01*
X32238Y-12100D01*
X32248Y-12085D01*
X32256Y-12072D01*
X32261Y-12060D01*
X32263Y-12056D01*
X32265Y-12053D01*
X32266Y-12051D01*
Y-12050D01*
X32274Y-12027D01*
X32280Y-12003D01*
X32284Y-11978D01*
X32286Y-11956D01*
X32287Y-11946D01*
X32288Y-11937D01*
Y-11929D01*
X32289Y-11922D01*
Y-11916D01*
Y-11912D01*
Y-11909D01*
Y-11908D01*
X32288Y-11885D01*
X32286Y-11862D01*
X32284Y-11842D01*
X32280Y-11823D01*
X32276Y-11808D01*
X32275Y-11801D01*
X32273Y-11796D01*
X32272Y-11791D01*
X32271Y-11788D01*
X32270Y-11786D01*
Y-11785D01*
X32261Y-11764D01*
X32250Y-11744D01*
X32239Y-11729D01*
X32228Y-11715D01*
X32217Y-11704D01*
X32208Y-11696D01*
X32203Y-11692D01*
X32202Y-11690D01*
X32201D01*
X32181Y-11678D01*
X32161Y-11669D01*
X32140Y-11662D01*
X32121Y-11658D01*
X32103Y-11655D01*
X32096Y-11654D01*
X32089D01*
X32085Y-11654D01*
X32078D01*
X32054Y-11654D01*
X32034Y-11658D01*
X32015Y-11663D01*
X32001Y-11669D01*
X31988Y-11676D01*
X31979Y-11681D01*
X31973Y-11685D01*
X31971Y-11686D01*
X31956Y-11699D01*
X31943Y-11715D01*
X31931Y-11733D01*
X31923Y-11749D01*
X31916Y-11764D01*
X31913Y-11771D01*
X31910Y-11776D01*
X31908Y-11781D01*
X31907Y-11785D01*
X31906Y-11787D01*
Y-11788D01*
X31822Y-11769D01*
X31834Y-11737D01*
X31841Y-11723D01*
X31848Y-11710D01*
X31855Y-11697D01*
X31863Y-11686D01*
X31870Y-11676D01*
X31878Y-11666D01*
X31885Y-11658D01*
X31891Y-11652D01*
X31898Y-11645D01*
X31903Y-11640D01*
X31908Y-11636D01*
X31911Y-11633D01*
X31913Y-11632D01*
X31914Y-11631D01*
X31927Y-11622D01*
X31939Y-11615D01*
X31953Y-11608D01*
X31967Y-11602D01*
X31994Y-11593D01*
X32019Y-11587D01*
X32031Y-11585D01*
X32042Y-11584D01*
X32051Y-11583D01*
X32059Y-11582D01*
X32066Y-11581D01*
X32076D01*
X32107Y-11583D01*
D02*
G37*
G36*
X31237Y-11675D02*
X30923D01*
X30945Y-11702D01*
X30966Y-11731D01*
X30985Y-11759D01*
X31003Y-11785D01*
X31010Y-11798D01*
X31017Y-11809D01*
X31022Y-11818D01*
X31027Y-11827D01*
X31031Y-11834D01*
X31034Y-11839D01*
X31036Y-11843D01*
X31037Y-11844D01*
X31056Y-11881D01*
X31072Y-11918D01*
X31086Y-11953D01*
X31092Y-11970D01*
X31098Y-11984D01*
X31102Y-11999D01*
X31106Y-12011D01*
X31110Y-12022D01*
X31113Y-12032D01*
X31115Y-12040D01*
X31117Y-12046D01*
X31118Y-12050D01*
Y-12050D01*
X31128Y-12090D01*
X31132Y-12107D01*
X31135Y-12125D01*
X31138Y-12140D01*
X31139Y-12155D01*
X31141Y-12169D01*
X31143Y-12182D01*
X31144Y-12193D01*
X31145Y-12204D01*
X31146Y-12212D01*
Y-12219D01*
X31147Y-12225D01*
Y-12229D01*
Y-12232D01*
Y-12233D01*
X31066D01*
X31063Y-12198D01*
X31059Y-12165D01*
X31055Y-12135D01*
X31052Y-12122D01*
X31050Y-12109D01*
X31047Y-12098D01*
X31045Y-12088D01*
X31043Y-12079D01*
X31041Y-12071D01*
X31039Y-12065D01*
X31038Y-12061D01*
X31037Y-12058D01*
Y-12057D01*
X31023Y-12014D01*
X31009Y-11974D01*
X31001Y-11955D01*
X30993Y-11936D01*
X30985Y-11919D01*
X30979Y-11903D01*
X30972Y-11889D01*
X30965Y-11875D01*
X30959Y-11863D01*
X30954Y-11853D01*
X30950Y-11846D01*
X30947Y-11840D01*
X30945Y-11836D01*
X30944Y-11835D01*
X30933Y-11815D01*
X30922Y-11796D01*
X30910Y-11778D01*
X30900Y-11762D01*
X30890Y-11746D01*
X30879Y-11733D01*
X30869Y-11719D01*
X30861Y-11707D01*
X30853Y-11697D01*
X30845Y-11688D01*
X30838Y-11680D01*
X30833Y-11673D01*
X30828Y-11668D01*
X30825Y-11664D01*
X30823Y-11662D01*
X30822Y-11661D01*
Y-11600D01*
X31237D01*
Y-11675D01*
D02*
G37*
G36*
X31232Y-10130D02*
X31256Y-10134D01*
X31278Y-10141D01*
X31297Y-10149D01*
X31312Y-10158D01*
X31317Y-10162D01*
X31322Y-10165D01*
X31327Y-10168D01*
X31330Y-10170D01*
X31331Y-10171D01*
X31332Y-10172D01*
X31350Y-10189D01*
X31363Y-10209D01*
X31375Y-10229D01*
X31383Y-10249D01*
X31390Y-10266D01*
X31392Y-10274D01*
X31394Y-10281D01*
X31395Y-10286D01*
X31396Y-10290D01*
X31396Y-10293D01*
Y-10293D01*
X31317Y-10307D01*
X31314Y-10287D01*
X31308Y-10269D01*
X31302Y-10254D01*
X31295Y-10243D01*
X31289Y-10233D01*
X31284Y-10226D01*
X31280Y-10222D01*
X31279Y-10221D01*
X31267Y-10212D01*
X31254Y-10205D01*
X31241Y-10199D01*
X31229Y-10196D01*
X31219Y-10194D01*
X31210Y-10192D01*
X31202D01*
X31186Y-10193D01*
X31171Y-10197D01*
X31158Y-10201D01*
X31148Y-10207D01*
X31139Y-10212D01*
X31132Y-10216D01*
X31128Y-10220D01*
X31127Y-10221D01*
X31118Y-10232D01*
X31111Y-10245D01*
X31105Y-10256D01*
X31102Y-10267D01*
X31100Y-10278D01*
X31098Y-10286D01*
Y-10291D01*
Y-10292D01*
Y-10293D01*
X31100Y-10312D01*
X31105Y-10329D01*
X31111Y-10342D01*
X31118Y-10353D01*
X31126Y-10362D01*
X31132Y-10369D01*
X31137Y-10372D01*
X31139Y-10373D01*
X31155Y-10382D01*
X31170Y-10388D01*
X31185Y-10393D01*
X31198Y-10396D01*
X31211Y-10398D01*
X31220Y-10399D01*
X31233D01*
X31237Y-10398D01*
X31241D01*
X31250Y-10467D01*
X31238Y-10464D01*
X31228Y-10462D01*
X31218Y-10461D01*
X31210Y-10460D01*
X31203Y-10459D01*
X31195D01*
X31175Y-10461D01*
X31158Y-10465D01*
X31143Y-10470D01*
X31130Y-10477D01*
X31119Y-10484D01*
X31112Y-10489D01*
X31108Y-10492D01*
X31106Y-10494D01*
X31094Y-10508D01*
X31085Y-10523D01*
X31079Y-10538D01*
X31075Y-10552D01*
X31072Y-10565D01*
X31071Y-10574D01*
X31070Y-10578D01*
Y-10581D01*
Y-10582D01*
Y-10583D01*
X31072Y-10604D01*
X31076Y-10622D01*
X31081Y-10639D01*
X31088Y-10652D01*
X31096Y-10664D01*
X31102Y-10672D01*
X31106Y-10677D01*
X31108Y-10679D01*
X31122Y-10691D01*
X31138Y-10701D01*
X31154Y-10707D01*
X31169Y-10712D01*
X31182Y-10715D01*
X31192Y-10716D01*
X31196Y-10717D01*
X31201D01*
X31218Y-10716D01*
X31234Y-10712D01*
X31247Y-10707D01*
X31258Y-10702D01*
X31268Y-10696D01*
X31275Y-10692D01*
X31278Y-10689D01*
X31280Y-10688D01*
X31291Y-10675D01*
X31301Y-10660D01*
X31309Y-10644D01*
X31315Y-10628D01*
X31319Y-10613D01*
X31322Y-10602D01*
X31324Y-10598D01*
Y-10594D01*
X31325Y-10592D01*
Y-10591D01*
X31404Y-10602D01*
X31402Y-10616D01*
X31399Y-10630D01*
X31391Y-10655D01*
X31381Y-10678D01*
X31369Y-10697D01*
X31364Y-10705D01*
X31358Y-10712D01*
X31354Y-10718D01*
X31350Y-10724D01*
X31346Y-10728D01*
X31343Y-10730D01*
X31342Y-10731D01*
X31341Y-10732D01*
X31330Y-10741D01*
X31318Y-10749D01*
X31308Y-10756D01*
X31296Y-10761D01*
X31273Y-10770D01*
X31250Y-10776D01*
X31240Y-10778D01*
X31231Y-10779D01*
X31223Y-10780D01*
X31215Y-10781D01*
X31209Y-10782D01*
X31201D01*
X31185Y-10781D01*
X31168Y-10779D01*
X31153Y-10777D01*
X31138Y-10773D01*
X31124Y-10768D01*
X31112Y-10764D01*
X31100Y-10759D01*
X31089Y-10753D01*
X31080Y-10748D01*
X31072Y-10743D01*
X31064Y-10738D01*
X31058Y-10733D01*
X31053Y-10729D01*
X31050Y-10728D01*
X31048Y-10726D01*
X31047Y-10725D01*
X31037Y-10713D01*
X31027Y-10701D01*
X31019Y-10689D01*
X31012Y-10678D01*
X31005Y-10666D01*
X31000Y-10653D01*
X30994Y-10631D01*
X30991Y-10621D01*
X30989Y-10611D01*
X30988Y-10604D01*
X30987Y-10596D01*
X30986Y-10590D01*
Y-10586D01*
Y-10583D01*
Y-10582D01*
X30987Y-10560D01*
X30991Y-10539D01*
X30996Y-10522D01*
X31001Y-10507D01*
X31008Y-10495D01*
X31013Y-10487D01*
X31017Y-10481D01*
X31018Y-10479D01*
X31031Y-10464D01*
X31045Y-10452D01*
X31060Y-10443D01*
X31074Y-10436D01*
X31086Y-10430D01*
X31096Y-10427D01*
X31100Y-10425D01*
X31103D01*
X31105Y-10424D01*
X31106D01*
X31090Y-10416D01*
X31077Y-10407D01*
X31066Y-10398D01*
X31056Y-10389D01*
X31049Y-10381D01*
X31043Y-10375D01*
X31040Y-10372D01*
X31039Y-10370D01*
X31032Y-10357D01*
X31027Y-10343D01*
X31023Y-10331D01*
X31020Y-10319D01*
X31018Y-10309D01*
X31017Y-10301D01*
Y-10296D01*
Y-10294D01*
X31018Y-10278D01*
X31021Y-10263D01*
X31025Y-10250D01*
X31029Y-10237D01*
X31033Y-10227D01*
X31037Y-10219D01*
X31039Y-10214D01*
X31040Y-10213D01*
X31050Y-10199D01*
X31061Y-10186D01*
X31073Y-10175D01*
X31083Y-10167D01*
X31093Y-10160D01*
X31101Y-10155D01*
X31107Y-10152D01*
X31108Y-10151D01*
X31109D01*
X31125Y-10143D01*
X31142Y-10137D01*
X31158Y-10134D01*
X31173Y-10131D01*
X31186Y-10129D01*
X31196Y-10128D01*
X31218D01*
X31232Y-10130D01*
D02*
G37*
G36*
X30894Y-10469D02*
X30820Y-10480D01*
X30813Y-10470D01*
X30805Y-10461D01*
X30798Y-10453D01*
X30791Y-10447D01*
X30784Y-10442D01*
X30778Y-10438D01*
X30774Y-10436D01*
X30773Y-10435D01*
X30762Y-10429D01*
X30750Y-10424D01*
X30738Y-10421D01*
X30727Y-10418D01*
X30718Y-10417D01*
X30711Y-10416D01*
X30704D01*
X30683Y-10418D01*
X30663Y-10422D01*
X30645Y-10429D01*
X30632Y-10436D01*
X30620Y-10443D01*
X30612Y-10450D01*
X30607Y-10453D01*
X30605Y-10455D01*
X30593Y-10471D01*
X30583Y-10489D01*
X30576Y-10506D01*
X30572Y-10523D01*
X30569Y-10538D01*
X30568Y-10545D01*
Y-10551D01*
X30567Y-10555D01*
Y-10559D01*
Y-10561D01*
Y-10562D01*
X30569Y-10587D01*
X30573Y-10609D01*
X30580Y-10629D01*
X30587Y-10646D01*
X30594Y-10658D01*
X30601Y-10668D01*
X30604Y-10674D01*
X30606Y-10675D01*
Y-10676D01*
X30614Y-10684D01*
X30622Y-10689D01*
X30638Y-10700D01*
X30654Y-10707D01*
X30669Y-10713D01*
X30683Y-10716D01*
X30693Y-10717D01*
X30697Y-10718D01*
X30703D01*
X30720Y-10717D01*
X30735Y-10713D01*
X30749Y-10708D01*
X30761Y-10703D01*
X30770Y-10697D01*
X30777Y-10693D01*
X30781Y-10689D01*
X30783Y-10689D01*
X30795Y-10676D01*
X30803Y-10661D01*
X30811Y-10647D01*
X30816Y-10632D01*
X30820Y-10618D01*
X30823Y-10608D01*
X30824Y-10604D01*
X30825Y-10601D01*
Y-10599D01*
Y-10598D01*
X30908Y-10604D01*
X30906Y-10618D01*
X30903Y-10633D01*
X30895Y-10658D01*
X30884Y-10681D01*
X30874Y-10699D01*
X30868Y-10707D01*
X30863Y-10714D01*
X30858Y-10720D01*
X30854Y-10725D01*
X30850Y-10729D01*
X30847Y-10731D01*
X30846Y-10732D01*
X30845Y-10733D01*
X30835Y-10742D01*
X30823Y-10749D01*
X30811Y-10756D01*
X30800Y-10762D01*
X30776Y-10770D01*
X30754Y-10776D01*
X30743Y-10778D01*
X30733Y-10779D01*
X30724Y-10780D01*
X30718Y-10781D01*
X30712Y-10782D01*
X30703D01*
X30683Y-10781D01*
X30665Y-10779D01*
X30648Y-10775D01*
X30632Y-10770D01*
X30617Y-10765D01*
X30603Y-10758D01*
X30590Y-10751D01*
X30579Y-10743D01*
X30568Y-10736D01*
X30560Y-10729D01*
X30552Y-10723D01*
X30546Y-10717D01*
X30541Y-10712D01*
X30537Y-10708D01*
X30535Y-10706D01*
X30534Y-10705D01*
X30525Y-10693D01*
X30518Y-10681D01*
X30511Y-10668D01*
X30505Y-10654D01*
X30496Y-10630D01*
X30489Y-10607D01*
X30487Y-10596D01*
X30486Y-10586D01*
X30485Y-10577D01*
X30485Y-10570D01*
X30484Y-10564D01*
Y-10559D01*
Y-10556D01*
Y-10555D01*
X30485Y-10538D01*
X30486Y-10522D01*
X30489Y-10507D01*
X30492Y-10492D01*
X30497Y-10480D01*
X30502Y-10467D01*
X30507Y-10456D01*
X30513Y-10446D01*
X30519Y-10437D01*
X30524Y-10429D01*
X30528Y-10422D01*
X30533Y-10416D01*
X30536Y-10412D01*
X30539Y-10409D01*
X30541Y-10407D01*
X30542Y-10406D01*
X30553Y-10395D01*
X30564Y-10386D01*
X30576Y-10378D01*
X30589Y-10372D01*
X30601Y-10366D01*
X30612Y-10362D01*
X30635Y-10354D01*
X30644Y-10352D01*
X30654Y-10350D01*
X30662Y-10349D01*
X30670Y-10348D01*
X30676Y-10347D01*
X30683D01*
X30707Y-10349D01*
X30729Y-10354D01*
X30750Y-10360D01*
X30767Y-10368D01*
X30783Y-10375D01*
X30789Y-10378D01*
X30795Y-10381D01*
X30799Y-10384D01*
X30802Y-10386D01*
X30803Y-10387D01*
X30804Y-10388D01*
X30769Y-10215D01*
X30514D01*
Y-10140D01*
X30832D01*
X30894Y-10469D01*
D02*
G37*
G36*
X31773Y-10122D02*
X31802Y-10126D01*
X31829Y-10133D01*
X31840Y-10135D01*
X31851Y-10139D01*
X31861Y-10143D01*
X31871Y-10146D01*
X31878Y-10150D01*
X31884Y-10153D01*
X31890Y-10155D01*
X31894Y-10157D01*
X31896Y-10159D01*
X31897D01*
X31921Y-10174D01*
X31944Y-10193D01*
X31962Y-10212D01*
X31977Y-10230D01*
X31989Y-10247D01*
X31994Y-10253D01*
X31998Y-10259D01*
X32001Y-10265D01*
X32003Y-10269D01*
X32005Y-10271D01*
Y-10272D01*
X32018Y-10300D01*
X32028Y-10331D01*
X32033Y-10360D01*
X32038Y-10387D01*
X32040Y-10400D01*
X32041Y-10411D01*
X32042Y-10421D01*
Y-10430D01*
X32043Y-10437D01*
Y-10442D01*
Y-10446D01*
Y-10447D01*
X32042Y-10481D01*
X32038Y-10512D01*
X32032Y-10541D01*
X32029Y-10555D01*
X32027Y-10567D01*
X32024Y-10578D01*
X32021Y-10588D01*
X32018Y-10597D01*
X32015Y-10605D01*
X32013Y-10610D01*
X32011Y-10614D01*
X32010Y-10617D01*
Y-10618D01*
X31996Y-10647D01*
X31980Y-10671D01*
X31964Y-10692D01*
X31948Y-10709D01*
X31934Y-10723D01*
X31922Y-10732D01*
X31917Y-10735D01*
X31914Y-10738D01*
X31912Y-10739D01*
X31911Y-10740D01*
X31899Y-10748D01*
X31885Y-10754D01*
X31858Y-10765D01*
X31830Y-10771D01*
X31802Y-10777D01*
X31791Y-10778D01*
X31779Y-10780D01*
X31769Y-10781D01*
X31760D01*
X31752Y-10782D01*
X31743D01*
X31724Y-10781D01*
X31707Y-10780D01*
X31674Y-10773D01*
X31660Y-10769D01*
X31645Y-10765D01*
X31633Y-10760D01*
X31621Y-10755D01*
X31610Y-10750D01*
X31601Y-10745D01*
X31594Y-10740D01*
X31587Y-10736D01*
X31581Y-10732D01*
X31577Y-10729D01*
X31575Y-10729D01*
X31574Y-10728D01*
X31561Y-10717D01*
X31550Y-10705D01*
X31530Y-10680D01*
X31513Y-10653D01*
X31500Y-10627D01*
X31494Y-10615D01*
X31490Y-10605D01*
X31486Y-10594D01*
X31482Y-10586D01*
X31480Y-10578D01*
X31478Y-10573D01*
X31477Y-10570D01*
Y-10569D01*
X31562Y-10547D01*
X31570Y-10575D01*
X31580Y-10601D01*
X31592Y-10621D01*
X31602Y-10639D01*
X31613Y-10651D01*
X31622Y-10661D01*
X31628Y-10667D01*
X31629Y-10668D01*
X31630Y-10669D01*
X31649Y-10683D01*
X31669Y-10692D01*
X31689Y-10700D01*
X31708Y-10705D01*
X31724Y-10708D01*
X31732Y-10709D01*
X31738D01*
X31743Y-10710D01*
X31750D01*
X31771Y-10709D01*
X31791Y-10705D01*
X31810Y-10700D01*
X31826Y-10695D01*
X31839Y-10689D01*
X31850Y-10686D01*
X31854Y-10684D01*
X31857Y-10682D01*
X31858Y-10681D01*
X31859D01*
X31876Y-10668D01*
X31891Y-10653D01*
X31904Y-10639D01*
X31914Y-10623D01*
X31922Y-10610D01*
X31927Y-10599D01*
X31929Y-10595D01*
X31931Y-10592D01*
X31932Y-10590D01*
Y-10589D01*
X31940Y-10566D01*
X31946Y-10541D01*
X31949Y-10517D01*
X31952Y-10494D01*
X31953Y-10485D01*
X31954Y-10476D01*
Y-10467D01*
X31955Y-10460D01*
Y-10454D01*
Y-10451D01*
Y-10448D01*
Y-10447D01*
X31954Y-10423D01*
X31952Y-10401D01*
X31949Y-10380D01*
X31946Y-10362D01*
X31942Y-10346D01*
X31941Y-10339D01*
X31939Y-10334D01*
X31938Y-10330D01*
X31937Y-10327D01*
X31936Y-10325D01*
Y-10324D01*
X31927Y-10302D01*
X31916Y-10283D01*
X31905Y-10267D01*
X31894Y-10253D01*
X31883Y-10243D01*
X31874Y-10235D01*
X31869Y-10230D01*
X31868Y-10228D01*
X31867D01*
X31847Y-10216D01*
X31827Y-10208D01*
X31806Y-10201D01*
X31787Y-10197D01*
X31769Y-10194D01*
X31762Y-10193D01*
X31755D01*
X31751Y-10192D01*
X31744D01*
X31720Y-10193D01*
X31700Y-10197D01*
X31681Y-10202D01*
X31667Y-10208D01*
X31654Y-10214D01*
X31645Y-10219D01*
X31639Y-10223D01*
X31637Y-10224D01*
X31622Y-10238D01*
X31609Y-10253D01*
X31597Y-10271D01*
X31589Y-10288D01*
X31582Y-10302D01*
X31579Y-10309D01*
X31576Y-10315D01*
X31574Y-10320D01*
X31573Y-10324D01*
X31572Y-10326D01*
Y-10327D01*
X31488Y-10307D01*
X31500Y-10276D01*
X31507Y-10261D01*
X31514Y-10249D01*
X31521Y-10236D01*
X31529Y-10224D01*
X31536Y-10214D01*
X31544Y-10205D01*
X31551Y-10197D01*
X31557Y-10190D01*
X31564Y-10183D01*
X31569Y-10178D01*
X31574Y-10174D01*
X31577Y-10172D01*
X31579Y-10171D01*
X31580Y-10170D01*
X31593Y-10161D01*
X31605Y-10153D01*
X31619Y-10146D01*
X31633Y-10140D01*
X31660Y-10132D01*
X31685Y-10126D01*
X31697Y-10124D01*
X31708Y-10123D01*
X31717Y-10122D01*
X31725Y-10121D01*
X31732Y-10120D01*
X31742D01*
X31773Y-10122D01*
D02*
G37*
G36*
X37984Y-11517D02*
X38000Y-11518D01*
X38029Y-11523D01*
X38042Y-11526D01*
X38054Y-11530D01*
X38065Y-11535D01*
X38075Y-11539D01*
X38084Y-11544D01*
X38091Y-11548D01*
X38098Y-11553D01*
X38104Y-11556D01*
X38108Y-11559D01*
X38111Y-11561D01*
X38113Y-11562D01*
X38114Y-11563D01*
X38124Y-11573D01*
X38131Y-11583D01*
X38146Y-11605D01*
X38157Y-11628D01*
X38165Y-11650D01*
X38170Y-11670D01*
X38171Y-11679D01*
X38173Y-11686D01*
X38174Y-11692D01*
X38175Y-11697D01*
Y-11700D01*
Y-11701D01*
X38094Y-11710D01*
X38092Y-11688D01*
X38088Y-11670D01*
X38084Y-11654D01*
X38077Y-11641D01*
X38071Y-11630D01*
X38065Y-11622D01*
X38061Y-11618D01*
X38060Y-11616D01*
X38046Y-11604D01*
X38032Y-11596D01*
X38016Y-11590D01*
X38002Y-11585D01*
X37989Y-11583D01*
X37979Y-11582D01*
X37975Y-11581D01*
X37969D01*
X37950Y-11582D01*
X37932Y-11586D01*
X37918Y-11591D01*
X37905Y-11597D01*
X37895Y-11603D01*
X37888Y-11608D01*
X37884Y-11612D01*
X37882Y-11613D01*
X37870Y-11626D01*
X37862Y-11640D01*
X37856Y-11652D01*
X37851Y-11665D01*
X37849Y-11676D01*
X37848Y-11684D01*
X37848Y-11690D01*
Y-11691D01*
Y-11692D01*
X37849Y-11709D01*
X37853Y-11726D01*
X37859Y-11742D01*
X37866Y-11757D01*
X37873Y-11769D01*
X37879Y-11779D01*
X37881Y-11783D01*
X37883Y-11786D01*
X37885Y-11787D01*
Y-11788D01*
X37892Y-11798D01*
X37901Y-11808D01*
X37911Y-11819D01*
X37923Y-11830D01*
X37946Y-11852D01*
X37969Y-11875D01*
X37991Y-11893D01*
X38001Y-11902D01*
X38009Y-11909D01*
X38016Y-11916D01*
X38021Y-11919D01*
X38025Y-11922D01*
X38026Y-11923D01*
X38049Y-11944D01*
X38071Y-11962D01*
X38088Y-11979D01*
X38103Y-11993D01*
X38115Y-12004D01*
X38123Y-12013D01*
X38127Y-12019D01*
X38129Y-12020D01*
Y-12021D01*
X38142Y-12036D01*
X38152Y-12051D01*
X38162Y-12066D01*
X38168Y-12078D01*
X38174Y-12090D01*
X38178Y-12098D01*
X38180Y-12104D01*
X38181Y-12105D01*
Y-12106D01*
X38184Y-12116D01*
X38187Y-12125D01*
X38188Y-12134D01*
X38189Y-12142D01*
X38190Y-12149D01*
Y-12155D01*
Y-12158D01*
Y-12159D01*
X37766D01*
Y-12084D01*
X38081D01*
X38070Y-12069D01*
X38059Y-12056D01*
X38054Y-12050D01*
X38050Y-12046D01*
X38048Y-12043D01*
X38047Y-12042D01*
X38043Y-12037D01*
X38038Y-12033D01*
X38025Y-12021D01*
X38009Y-12007D01*
X37995Y-11994D01*
X37980Y-11981D01*
X37968Y-11971D01*
X37964Y-11967D01*
X37960Y-11964D01*
X37958Y-11962D01*
X37957Y-11961D01*
X37941Y-11948D01*
X37928Y-11936D01*
X37914Y-11924D01*
X37902Y-11914D01*
X37891Y-11903D01*
X37882Y-11894D01*
X37872Y-11885D01*
X37864Y-11878D01*
X37857Y-11871D01*
X37851Y-11865D01*
X37843Y-11856D01*
X37838Y-11850D01*
X37836Y-11848D01*
X37823Y-11833D01*
X37811Y-11819D01*
X37803Y-11805D01*
X37796Y-11794D01*
X37790Y-11784D01*
X37786Y-11777D01*
X37784Y-11772D01*
X37783Y-11770D01*
X37777Y-11757D01*
X37773Y-11743D01*
X37770Y-11730D01*
X37769Y-11719D01*
X37768Y-11709D01*
X37767Y-11701D01*
Y-11696D01*
Y-11694D01*
X37768Y-11680D01*
X37769Y-11667D01*
X37775Y-11642D01*
X37784Y-11621D01*
X37794Y-11602D01*
X37804Y-11588D01*
X37808Y-11582D01*
X37812Y-11576D01*
X37816Y-11572D01*
X37819Y-11569D01*
X37820Y-11568D01*
X37821Y-11567D01*
X37832Y-11559D01*
X37843Y-11550D01*
X37854Y-11543D01*
X37867Y-11537D01*
X37891Y-11528D01*
X37915Y-11522D01*
X37926Y-11520D01*
X37935Y-11519D01*
X37944Y-11518D01*
X37952Y-11517D01*
X37959Y-11516D01*
X37967D01*
X37984Y-11517D01*
D02*
G37*
G36*
X38547Y-11510D02*
X38576Y-11514D01*
X38602Y-11521D01*
X38614Y-11523D01*
X38625Y-11527D01*
X38635Y-11531D01*
X38644Y-11534D01*
X38652Y-11538D01*
X38658Y-11541D01*
X38664Y-11543D01*
X38668Y-11545D01*
X38670Y-11547D01*
X38671D01*
X38695Y-11562D01*
X38718Y-11581D01*
X38736Y-11600D01*
X38751Y-11618D01*
X38763Y-11635D01*
X38768Y-11641D01*
X38772Y-11647D01*
X38775Y-11653D01*
X38777Y-11657D01*
X38779Y-11659D01*
Y-11660D01*
X38792Y-11688D01*
X38801Y-11719D01*
X38807Y-11748D01*
X38812Y-11775D01*
X38814Y-11788D01*
X38815Y-11799D01*
X38816Y-11809D01*
Y-11818D01*
X38817Y-11825D01*
Y-11830D01*
Y-11834D01*
Y-11835D01*
X38816Y-11869D01*
X38812Y-11900D01*
X38806Y-11929D01*
X38803Y-11943D01*
X38800Y-11955D01*
X38798Y-11966D01*
X38795Y-11976D01*
X38792Y-11985D01*
X38789Y-11993D01*
X38787Y-11998D01*
X38785Y-12002D01*
X38784Y-12005D01*
Y-12006D01*
X38770Y-12035D01*
X38754Y-12059D01*
X38738Y-12080D01*
X38721Y-12097D01*
X38708Y-12111D01*
X38696Y-12120D01*
X38691Y-12123D01*
X38688Y-12126D01*
X38686Y-12127D01*
X38685Y-12128D01*
X38673Y-12136D01*
X38659Y-12142D01*
X38632Y-12153D01*
X38603Y-12159D01*
X38576Y-12165D01*
X38564Y-12166D01*
X38553Y-12168D01*
X38543Y-12169D01*
X38534D01*
X38526Y-12170D01*
X38517D01*
X38498Y-12169D01*
X38481Y-12168D01*
X38448Y-12161D01*
X38434Y-12157D01*
X38419Y-12153D01*
X38406Y-12148D01*
X38395Y-12143D01*
X38384Y-12138D01*
X38375Y-12133D01*
X38367Y-12128D01*
X38361Y-12124D01*
X38355Y-12120D01*
X38351Y-12117D01*
X38349Y-12116D01*
X38348Y-12116D01*
X38335Y-12105D01*
X38323Y-12093D01*
X38304Y-12068D01*
X38286Y-12041D01*
X38274Y-12015D01*
X38268Y-12003D01*
X38264Y-11993D01*
X38260Y-11982D01*
X38256Y-11974D01*
X38254Y-11966D01*
X38252Y-11961D01*
X38251Y-11958D01*
Y-11957D01*
X38336Y-11935D01*
X38344Y-11963D01*
X38354Y-11989D01*
X38365Y-12009D01*
X38376Y-12027D01*
X38387Y-12039D01*
X38396Y-12049D01*
X38402Y-12055D01*
X38403Y-12056D01*
X38403Y-12057D01*
X38423Y-12071D01*
X38442Y-12080D01*
X38463Y-12088D01*
X38481Y-12093D01*
X38498Y-12096D01*
X38506Y-12097D01*
X38512D01*
X38517Y-12098D01*
X38523D01*
X38545Y-12097D01*
X38565Y-12093D01*
X38584Y-12088D01*
X38600Y-12083D01*
X38613Y-12077D01*
X38624Y-12074D01*
X38628Y-12072D01*
X38631Y-12070D01*
X38632Y-12069D01*
X38633D01*
X38650Y-12056D01*
X38665Y-12041D01*
X38678Y-12027D01*
X38688Y-12011D01*
X38696Y-11998D01*
X38701Y-11987D01*
X38703Y-11983D01*
X38705Y-11980D01*
X38706Y-11978D01*
Y-11977D01*
X38714Y-11954D01*
X38719Y-11929D01*
X38723Y-11905D01*
X38726Y-11882D01*
X38727Y-11873D01*
X38728Y-11864D01*
Y-11855D01*
X38729Y-11848D01*
Y-11842D01*
Y-11839D01*
Y-11836D01*
Y-11835D01*
X38728Y-11811D01*
X38726Y-11789D01*
X38723Y-11768D01*
X38719Y-11750D01*
X38716Y-11734D01*
X38715Y-11727D01*
X38713Y-11722D01*
X38712Y-11718D01*
X38711Y-11715D01*
X38710Y-11713D01*
Y-11712D01*
X38701Y-11690D01*
X38690Y-11671D01*
X38679Y-11655D01*
X38668Y-11641D01*
X38657Y-11631D01*
X38648Y-11623D01*
X38642Y-11618D01*
X38641Y-11616D01*
X38640D01*
X38621Y-11604D01*
X38600Y-11596D01*
X38580Y-11589D01*
X38561Y-11585D01*
X38543Y-11582D01*
X38536Y-11581D01*
X38529D01*
X38524Y-11580D01*
X38518D01*
X38494Y-11581D01*
X38474Y-11585D01*
X38455Y-11590D01*
X38441Y-11596D01*
X38428Y-11602D01*
X38419Y-11607D01*
X38413Y-11611D01*
X38411Y-11612D01*
X38396Y-11626D01*
X38383Y-11641D01*
X38371Y-11659D01*
X38363Y-11676D01*
X38356Y-11690D01*
X38353Y-11697D01*
X38350Y-11703D01*
X38348Y-11708D01*
X38347Y-11712D01*
X38346Y-11714D01*
Y-11715D01*
X38262Y-11695D01*
X38274Y-11664D01*
X38281Y-11649D01*
X38287Y-11637D01*
X38295Y-11624D01*
X38303Y-11612D01*
X38310Y-11602D01*
X38318Y-11593D01*
X38324Y-11585D01*
X38331Y-11578D01*
X38338Y-11571D01*
X38343Y-11566D01*
X38348Y-11562D01*
X38351Y-11560D01*
X38353Y-11559D01*
X38354Y-11558D01*
X38366Y-11549D01*
X38379Y-11541D01*
X38393Y-11534D01*
X38406Y-11528D01*
X38434Y-11520D01*
X38459Y-11514D01*
X38471Y-11512D01*
X38481Y-11511D01*
X38491Y-11510D01*
X38499Y-11509D01*
X38506Y-11508D01*
X38516D01*
X38547Y-11510D01*
D02*
G37*
G36*
X37708Y-11934D02*
Y-12006D01*
X37430D01*
Y-12159D01*
X37351D01*
Y-12006D01*
X37264D01*
Y-11934D01*
X37351D01*
Y-11520D01*
X37415D01*
X37708Y-11934D01*
D02*
G37*
G36*
X24440Y-7248D02*
X24459Y-7250D01*
X24496Y-7257D01*
X24512Y-7261D01*
X24528Y-7266D01*
X24541Y-7272D01*
X24553Y-7277D01*
X24564Y-7283D01*
X24574Y-7288D01*
X24582Y-7294D01*
X24590Y-7297D01*
X24595Y-7301D01*
X24598Y-7305D01*
X24601Y-7306D01*
X24602Y-7307D01*
X24614Y-7319D01*
X24624Y-7331D01*
X24642Y-7359D01*
X24656Y-7387D01*
X24665Y-7416D01*
X24673Y-7440D01*
X24674Y-7451D01*
X24676Y-7461D01*
X24678Y-7468D01*
X24679Y-7474D01*
Y-7478D01*
Y-7479D01*
X24578Y-7490D01*
X24575Y-7463D01*
X24570Y-7440D01*
X24564Y-7420D01*
X24556Y-7403D01*
X24548Y-7390D01*
X24541Y-7380D01*
X24536Y-7375D01*
X24535Y-7373D01*
X24518Y-7358D01*
X24500Y-7347D01*
X24480Y-7340D01*
X24462Y-7334D01*
X24446Y-7331D01*
X24434Y-7330D01*
X24429Y-7329D01*
X24422D01*
X24397Y-7330D01*
X24375Y-7335D01*
X24357Y-7341D01*
X24341Y-7348D01*
X24329Y-7357D01*
X24319Y-7363D01*
X24314Y-7368D01*
X24312Y-7369D01*
X24297Y-7385D01*
X24287Y-7402D01*
X24280Y-7418D01*
X24274Y-7434D01*
X24272Y-7447D01*
X24270Y-7458D01*
X24269Y-7466D01*
Y-7467D01*
Y-7468D01*
X24272Y-7489D01*
X24276Y-7511D01*
X24284Y-7530D01*
X24292Y-7548D01*
X24301Y-7564D01*
X24308Y-7576D01*
X24311Y-7581D01*
X24313Y-7585D01*
X24315Y-7586D01*
Y-7587D01*
X24325Y-7600D01*
X24336Y-7613D01*
X24348Y-7626D01*
X24363Y-7640D01*
X24392Y-7668D01*
X24422Y-7696D01*
X24448Y-7719D01*
X24461Y-7730D01*
X24472Y-7739D01*
X24480Y-7747D01*
X24486Y-7752D01*
X24491Y-7756D01*
X24492Y-7757D01*
X24522Y-7783D01*
X24548Y-7806D01*
X24570Y-7826D01*
X24589Y-7843D01*
X24603Y-7858D01*
X24613Y-7869D01*
X24619Y-7876D01*
X24621Y-7878D01*
Y-7879D01*
X24637Y-7898D01*
X24650Y-7917D01*
X24662Y-7935D01*
X24670Y-7951D01*
X24678Y-7965D01*
X24682Y-7975D01*
X24685Y-7982D01*
X24686Y-7984D01*
Y-7985D01*
X24690Y-7997D01*
X24693Y-8009D01*
X24695Y-8020D01*
X24696Y-8030D01*
X24697Y-8039D01*
Y-8046D01*
Y-8051D01*
Y-8052D01*
X24167D01*
Y-7958D01*
X24561D01*
X24547Y-7939D01*
X24534Y-7923D01*
X24528Y-7915D01*
X24523Y-7911D01*
X24520Y-7907D01*
X24519Y-7906D01*
X24513Y-7900D01*
X24507Y-7893D01*
X24491Y-7879D01*
X24472Y-7862D01*
X24453Y-7845D01*
X24435Y-7829D01*
X24420Y-7817D01*
X24414Y-7812D01*
X24409Y-7808D01*
X24407Y-7806D01*
X24406Y-7804D01*
X24386Y-7787D01*
X24369Y-7773D01*
X24352Y-7758D01*
X24337Y-7745D01*
X24324Y-7731D01*
X24312Y-7720D01*
X24300Y-7709D01*
X24290Y-7700D01*
X24281Y-7691D01*
X24274Y-7684D01*
X24263Y-7673D01*
X24257Y-7665D01*
X24255Y-7663D01*
X24239Y-7644D01*
X24224Y-7626D01*
X24213Y-7609D01*
X24205Y-7595D01*
X24197Y-7583D01*
X24192Y-7574D01*
X24190Y-7568D01*
X24189Y-7565D01*
X24181Y-7548D01*
X24176Y-7531D01*
X24173Y-7516D01*
X24170Y-7501D01*
X24169Y-7489D01*
X24168Y-7479D01*
Y-7473D01*
Y-7470D01*
X24169Y-7453D01*
X24170Y-7436D01*
X24179Y-7406D01*
X24190Y-7379D01*
X24202Y-7356D01*
X24214Y-7338D01*
X24220Y-7330D01*
X24225Y-7323D01*
X24230Y-7318D01*
X24234Y-7314D01*
X24235Y-7313D01*
X24236Y-7312D01*
X24250Y-7301D01*
X24263Y-7290D01*
X24278Y-7281D01*
X24294Y-7274D01*
X24324Y-7263D01*
X24353Y-7256D01*
X24367Y-7252D01*
X24379Y-7251D01*
X24390Y-7250D01*
X24400Y-7248D01*
X24408Y-7247D01*
X24419D01*
X24440Y-7248D01*
D02*
G37*
G36*
X25270Y-8052D02*
X24770D01*
Y-7958D01*
X25164D01*
Y-7251D01*
X25270D01*
Y-8052D01*
D02*
G37*
G36*
X26748Y5833D02*
X26779Y5829D01*
X26808Y5824D01*
X26822Y5821D01*
X26834Y5818D01*
X26845Y5815D01*
X26855Y5812D01*
X26864Y5809D01*
X26872Y5806D01*
X26878Y5804D01*
X26882Y5802D01*
X26885Y5801D01*
X26885D01*
X26914Y5787D01*
X26938Y5771D01*
X26960Y5755D01*
X26976Y5739D01*
X26990Y5725D01*
X27000Y5713D01*
X27003Y5708D01*
X27005Y5706D01*
X27006Y5704D01*
X27007Y5703D01*
X27015Y5690D01*
X27021Y5676D01*
X27032Y5649D01*
X27039Y5621D01*
X27044Y5593D01*
X27045Y5582D01*
X27047Y5570D01*
X27048Y5560D01*
Y5551D01*
X27049Y5544D01*
Y5534D01*
X27048Y5515D01*
X27047Y5498D01*
X27041Y5466D01*
X27037Y5451D01*
X27032Y5436D01*
X27027Y5424D01*
X27022Y5412D01*
X27017Y5401D01*
X27012Y5392D01*
X27007Y5385D01*
X27003Y5378D01*
X27000Y5372D01*
X26997Y5368D01*
X26996Y5366D01*
X26995Y5365D01*
X26984Y5352D01*
X26972Y5341D01*
X26947Y5321D01*
X26921Y5304D01*
X26894Y5291D01*
X26883Y5285D01*
X26872Y5281D01*
X26861Y5277D01*
X26853Y5273D01*
X26845Y5271D01*
X26841Y5270D01*
X26837Y5269D01*
X26836D01*
X26814Y5353D01*
X26843Y5361D01*
X26868Y5371D01*
X26888Y5383D01*
X26906Y5393D01*
X26919Y5404D01*
X26928Y5413D01*
X26934Y5419D01*
X26935Y5420D01*
X26936Y5421D01*
X26950Y5440D01*
X26960Y5460D01*
X26967Y5480D01*
X26972Y5499D01*
X26975Y5515D01*
X26976Y5523D01*
Y5529D01*
X26977Y5534D01*
Y5541D01*
X26976Y5562D01*
X26972Y5583D01*
X26967Y5601D01*
X26963Y5617D01*
X26957Y5630D01*
X26953Y5641D01*
X26951Y5645D01*
X26949Y5648D01*
X26948Y5649D01*
Y5650D01*
X26935Y5667D01*
X26921Y5682D01*
X26906Y5695D01*
X26890Y5706D01*
X26878Y5713D01*
X26866Y5718D01*
X26862Y5720D01*
X26859Y5722D01*
X26857Y5723D01*
X26856D01*
X26833Y5731D01*
X26808Y5737D01*
X26784Y5741D01*
X26762Y5744D01*
X26752Y5745D01*
X26743Y5746D01*
X26734D01*
X26727Y5746D01*
X26722D01*
X26718D01*
X26715D01*
X26714D01*
X26690Y5746D01*
X26668Y5744D01*
X26647Y5741D01*
X26629Y5737D01*
X26613Y5733D01*
X26607Y5732D01*
X26602Y5730D01*
X26597Y5729D01*
X26594Y5728D01*
X26592Y5727D01*
X26591D01*
X26569Y5718D01*
X26550Y5707D01*
X26534Y5696D01*
X26521Y5685D01*
X26510Y5674D01*
X26502Y5666D01*
X26497Y5660D01*
X26495Y5659D01*
Y5658D01*
X26484Y5638D01*
X26475Y5618D01*
X26468Y5597D01*
X26464Y5578D01*
X26461Y5560D01*
X26460Y5553D01*
Y5547D01*
X26459Y5542D01*
Y5535D01*
X26460Y5511D01*
X26464Y5491D01*
X26469Y5472D01*
X26475Y5458D01*
X26482Y5445D01*
X26487Y5436D01*
X26490Y5430D01*
X26491Y5429D01*
X26505Y5413D01*
X26521Y5400D01*
X26538Y5389D01*
X26555Y5380D01*
X26569Y5373D01*
X26576Y5370D01*
X26582Y5367D01*
X26587Y5365D01*
X26591Y5364D01*
X26593Y5363D01*
X26594D01*
X26574Y5279D01*
X26543Y5291D01*
X26528Y5298D01*
X26516Y5305D01*
X26503Y5312D01*
X26491Y5320D01*
X26482Y5327D01*
X26472Y5335D01*
X26464Y5342D01*
X26457Y5349D01*
X26450Y5355D01*
X26446Y5360D01*
X26442Y5365D01*
X26439Y5368D01*
X26438Y5370D01*
X26437Y5371D01*
X26428Y5384D01*
X26420Y5396D01*
X26413Y5410D01*
X26408Y5424D01*
X26399Y5451D01*
X26393Y5476D01*
X26391Y5488D01*
X26390Y5499D01*
X26389Y5508D01*
X26388Y5516D01*
X26387Y5523D01*
Y5533D01*
X26389Y5564D01*
X26393Y5593D01*
X26400Y5620D01*
X26403Y5631D01*
X26407Y5642D01*
X26410Y5652D01*
X26413Y5662D01*
X26417Y5669D01*
X26420Y5675D01*
X26422Y5681D01*
X26424Y5685D01*
X26426Y5687D01*
Y5688D01*
X26442Y5712D01*
X26460Y5735D01*
X26479Y5753D01*
X26497Y5768D01*
X26514Y5781D01*
X26521Y5785D01*
X26527Y5789D01*
X26532Y5792D01*
X26536Y5794D01*
X26538Y5796D01*
X26539D01*
X26568Y5809D01*
X26598Y5819D01*
X26627Y5825D01*
X26654Y5829D01*
X26667Y5831D01*
X26678Y5832D01*
X26688Y5833D01*
X26697D01*
X26704Y5834D01*
X26709D01*
X26713D01*
X26714D01*
X26748Y5833D01*
D02*
G37*
G36*
X26627Y5122D02*
X26620Y5108D01*
X26614Y5094D01*
X26608Y5081D01*
X26602Y5071D01*
X26597Y5062D01*
X26593Y5056D01*
X26592Y5055D01*
Y5054D01*
X26582Y5037D01*
X26571Y5023D01*
X26563Y5010D01*
X26554Y4999D01*
X26547Y4991D01*
X26542Y4984D01*
X26538Y4980D01*
X26537Y4979D01*
X27039D01*
Y4900D01*
X26395D01*
Y4952D01*
X26410Y4960D01*
X26426Y4971D01*
X26441Y4983D01*
X26454Y4994D01*
X26465Y5005D01*
X26474Y5014D01*
X26480Y5020D01*
X26481Y5021D01*
X26482Y5022D01*
X26497Y5040D01*
X26512Y5060D01*
X26525Y5079D01*
X26535Y5097D01*
X26544Y5112D01*
X26547Y5119D01*
X26550Y5125D01*
X26553Y5129D01*
X26555Y5133D01*
X26556Y5135D01*
Y5136D01*
X26633D01*
X26627Y5122D01*
D02*
G37*
G36*
X29586Y-4042D02*
X29601Y-4031D01*
X29614Y-4020D01*
X29620Y-4015D01*
X29624Y-4012D01*
X29627Y-4010D01*
X29628Y-4009D01*
X29633Y-4004D01*
X29637Y-3999D01*
X29649Y-3986D01*
X29663Y-3971D01*
X29676Y-3956D01*
X29689Y-3941D01*
X29699Y-3930D01*
X29703Y-3925D01*
X29706Y-3921D01*
X29708Y-3919D01*
X29709Y-3918D01*
X29722Y-3902D01*
X29734Y-3889D01*
X29746Y-3875D01*
X29756Y-3863D01*
X29767Y-3853D01*
X29776Y-3843D01*
X29785Y-3833D01*
X29792Y-3825D01*
X29799Y-3818D01*
X29805Y-3813D01*
X29814Y-3804D01*
X29820Y-3799D01*
X29822Y-3797D01*
X29837Y-3784D01*
X29851Y-3773D01*
X29865Y-3764D01*
X29876Y-3757D01*
X29886Y-3751D01*
X29893Y-3747D01*
X29898Y-3745D01*
X29900Y-3744D01*
X29913Y-3738D01*
X29927Y-3735D01*
X29940Y-3732D01*
X29951Y-3730D01*
X29961Y-3729D01*
X29969Y-3728D01*
X29974D01*
X29976D01*
X29990Y-3729D01*
X30003Y-3730D01*
X30028Y-3737D01*
X30049Y-3745D01*
X30068Y-3755D01*
X30082Y-3765D01*
X30088Y-3770D01*
X30094Y-3774D01*
X30098Y-3777D01*
X30101Y-3780D01*
X30102Y-3781D01*
X30103Y-3782D01*
X30111Y-3793D01*
X30120Y-3804D01*
X30127Y-3816D01*
X30133Y-3828D01*
X30142Y-3853D01*
X30148Y-3876D01*
X30150Y-3887D01*
X30151Y-3896D01*
X30152Y-3905D01*
X30153Y-3913D01*
X30154Y-3920D01*
Y-3929D01*
X30153Y-3945D01*
X30152Y-3961D01*
X30147Y-3990D01*
X30144Y-4003D01*
X30140Y-4015D01*
X30135Y-4026D01*
X30131Y-4036D01*
X30126Y-4045D01*
X30122Y-4053D01*
X30117Y-4059D01*
X30114Y-4065D01*
X30111Y-4069D01*
X30108Y-4072D01*
X30108Y-4074D01*
X30107Y-4075D01*
X30097Y-4085D01*
X30087Y-4093D01*
X30065Y-4107D01*
X30042Y-4118D01*
X30020Y-4126D01*
X30000Y-4132D01*
X29991Y-4133D01*
X29984Y-4134D01*
X29978Y-4135D01*
X29973Y-4136D01*
X29970D01*
X29969D01*
X29960Y-4055D01*
X29982Y-4054D01*
X30000Y-4050D01*
X30016Y-4045D01*
X30029Y-4038D01*
X30040Y-4032D01*
X30048Y-4026D01*
X30052Y-4022D01*
X30054Y-4021D01*
X30066Y-4008D01*
X30074Y-3993D01*
X30080Y-3977D01*
X30085Y-3963D01*
X30087Y-3950D01*
X30088Y-3940D01*
X30089Y-3936D01*
Y-3931D01*
X30088Y-3911D01*
X30084Y-3894D01*
X30079Y-3879D01*
X30073Y-3866D01*
X30067Y-3856D01*
X30062Y-3849D01*
X30058Y-3845D01*
X30057Y-3843D01*
X30044Y-3831D01*
X30030Y-3823D01*
X30018Y-3817D01*
X30005Y-3813D01*
X29994Y-3811D01*
X29986Y-3810D01*
X29980Y-3809D01*
X29979D01*
X29978D01*
X29961Y-3811D01*
X29944Y-3815D01*
X29928Y-3820D01*
X29913Y-3827D01*
X29901Y-3834D01*
X29891Y-3840D01*
X29887Y-3842D01*
X29884Y-3844D01*
X29883Y-3846D01*
X29882D01*
X29872Y-3854D01*
X29862Y-3862D01*
X29851Y-3872D01*
X29840Y-3884D01*
X29818Y-3907D01*
X29795Y-3931D01*
X29777Y-3952D01*
X29768Y-3962D01*
X29761Y-3971D01*
X29754Y-3977D01*
X29751Y-3982D01*
X29748Y-3986D01*
X29747Y-3987D01*
X29726Y-4011D01*
X29708Y-4032D01*
X29691Y-4050D01*
X29677Y-4064D01*
X29666Y-4076D01*
X29657Y-4084D01*
X29651Y-4089D01*
X29650Y-4091D01*
X29649D01*
X29633Y-4103D01*
X29619Y-4113D01*
X29604Y-4123D01*
X29592Y-4130D01*
X29580Y-4135D01*
X29572Y-4139D01*
X29566Y-4141D01*
X29565Y-4142D01*
X29564D01*
X29555Y-4145D01*
X29545Y-4148D01*
X29536Y-4149D01*
X29528Y-4150D01*
X29521Y-4151D01*
X29515D01*
X29512D01*
X29511D01*
Y-3727D01*
X29586D01*
Y-4042D01*
D02*
G37*
G36*
X29735Y-4297D02*
X29707Y-4305D01*
X29681Y-4315D01*
X29661Y-4327D01*
X29643Y-4337D01*
X29631Y-4348D01*
X29621Y-4357D01*
X29615Y-4363D01*
X29614Y-4364D01*
X29613Y-4365D01*
X29599Y-4384D01*
X29590Y-4404D01*
X29582Y-4424D01*
X29577Y-4443D01*
X29574Y-4459D01*
X29573Y-4467D01*
Y-4473D01*
X29572Y-4478D01*
Y-4485D01*
X29573Y-4506D01*
X29577Y-4527D01*
X29582Y-4545D01*
X29587Y-4561D01*
X29593Y-4574D01*
X29596Y-4585D01*
X29598Y-4589D01*
X29600Y-4592D01*
X29601Y-4593D01*
Y-4594D01*
X29614Y-4611D01*
X29629Y-4626D01*
X29643Y-4639D01*
X29659Y-4649D01*
X29672Y-4657D01*
X29683Y-4662D01*
X29687Y-4664D01*
X29690Y-4666D01*
X29692Y-4667D01*
X29693D01*
X29716Y-4675D01*
X29741Y-4681D01*
X29765Y-4685D01*
X29788Y-4687D01*
X29797Y-4688D01*
X29806Y-4689D01*
X29815D01*
X29822Y-4690D01*
X29828D01*
X29831D01*
X29834D01*
X29835D01*
X29859Y-4689D01*
X29881Y-4687D01*
X29902Y-4685D01*
X29920Y-4681D01*
X29936Y-4677D01*
X29943Y-4676D01*
X29948Y-4674D01*
X29952Y-4673D01*
X29955Y-4672D01*
X29957Y-4671D01*
X29958D01*
X29980Y-4662D01*
X29999Y-4651D01*
X30015Y-4640D01*
X30029Y-4629D01*
X30039Y-4618D01*
X30047Y-4609D01*
X30052Y-4604D01*
X30054Y-4603D01*
Y-4602D01*
X30066Y-4582D01*
X30074Y-4562D01*
X30081Y-4541D01*
X30085Y-4522D01*
X30088Y-4504D01*
X30089Y-4497D01*
Y-4490D01*
X30090Y-4486D01*
Y-4479D01*
X30089Y-4455D01*
X30085Y-4435D01*
X30080Y-4416D01*
X30074Y-4402D01*
X30068Y-4389D01*
X30063Y-4380D01*
X30059Y-4374D01*
X30058Y-4372D01*
X30044Y-4357D01*
X30029Y-4344D01*
X30011Y-4332D01*
X29994Y-4324D01*
X29980Y-4317D01*
X29973Y-4314D01*
X29967Y-4311D01*
X29962Y-4309D01*
X29958Y-4308D01*
X29956Y-4307D01*
X29955D01*
X29975Y-4223D01*
X30006Y-4235D01*
X30021Y-4242D01*
X30033Y-4249D01*
X30046Y-4256D01*
X30058Y-4264D01*
X30068Y-4271D01*
X30077Y-4279D01*
X30085Y-4286D01*
X30092Y-4292D01*
X30099Y-4299D01*
X30104Y-4304D01*
X30108Y-4309D01*
X30110Y-4312D01*
X30111Y-4314D01*
X30112Y-4315D01*
X30121Y-4328D01*
X30129Y-4340D01*
X30136Y-4354D01*
X30142Y-4368D01*
X30150Y-4395D01*
X30156Y-4420D01*
X30158Y-4432D01*
X30159Y-4443D01*
X30160Y-4452D01*
X30161Y-4460D01*
X30162Y-4467D01*
Y-4477D01*
X30160Y-4508D01*
X30156Y-4537D01*
X30149Y-4564D01*
X30147Y-4575D01*
X30143Y-4586D01*
X30139Y-4596D01*
X30136Y-4606D01*
X30132Y-4613D01*
X30129Y-4619D01*
X30127Y-4625D01*
X30125Y-4629D01*
X30123Y-4631D01*
Y-4632D01*
X30108Y-4656D01*
X30089Y-4679D01*
X30070Y-4697D01*
X30052Y-4712D01*
X30035Y-4725D01*
X30029Y-4729D01*
X30023Y-4733D01*
X30017Y-4736D01*
X30013Y-4738D01*
X30011Y-4740D01*
X30010D01*
X29982Y-4753D01*
X29951Y-4763D01*
X29922Y-4768D01*
X29895Y-4773D01*
X29882Y-4775D01*
X29871Y-4776D01*
X29861Y-4777D01*
X29852D01*
X29845Y-4778D01*
X29840D01*
X29836D01*
X29835D01*
X29801Y-4777D01*
X29770Y-4773D01*
X29741Y-4767D01*
X29727Y-4765D01*
X29715Y-4762D01*
X29704Y-4759D01*
X29694Y-4756D01*
X29685Y-4753D01*
X29677Y-4750D01*
X29672Y-4748D01*
X29668Y-4746D01*
X29665Y-4745D01*
X29664D01*
X29635Y-4731D01*
X29611Y-4715D01*
X29590Y-4699D01*
X29573Y-4683D01*
X29559Y-4669D01*
X29550Y-4657D01*
X29547Y-4652D01*
X29544Y-4649D01*
X29543Y-4648D01*
X29542Y-4647D01*
X29534Y-4634D01*
X29528Y-4620D01*
X29517Y-4593D01*
X29511Y-4565D01*
X29505Y-4537D01*
X29504Y-4526D01*
X29502Y-4514D01*
X29501Y-4504D01*
Y-4495D01*
X29500Y-4488D01*
Y-4478D01*
X29501Y-4459D01*
X29502Y-4442D01*
X29509Y-4410D01*
X29513Y-4395D01*
X29517Y-4380D01*
X29522Y-4368D01*
X29527Y-4356D01*
X29532Y-4345D01*
X29537Y-4336D01*
X29542Y-4329D01*
X29546Y-4322D01*
X29550Y-4316D01*
X29553Y-4312D01*
X29554Y-4310D01*
X29555Y-4309D01*
X29565Y-4296D01*
X29577Y-4285D01*
X29602Y-4265D01*
X29629Y-4248D01*
X29655Y-4235D01*
X29667Y-4229D01*
X29677Y-4225D01*
X29688Y-4221D01*
X29696Y-4217D01*
X29704Y-4215D01*
X29709Y-4213D01*
X29713Y-4212D01*
X29713D01*
X29735Y-4297D01*
D02*
G37*
G36*
X23254Y-3164D02*
X23286Y-3168D01*
X23315Y-3174D01*
X23329Y-3177D01*
X23340Y-3180D01*
X23352Y-3183D01*
X23362Y-3186D01*
X23371Y-3189D01*
X23378Y-3192D01*
X23384Y-3194D01*
X23388Y-3196D01*
X23391Y-3197D01*
X23392D01*
X23420Y-3210D01*
X23445Y-3227D01*
X23466Y-3243D01*
X23483Y-3259D01*
X23496Y-3273D01*
X23506Y-3284D01*
X23509Y-3289D01*
X23512Y-3292D01*
X23513Y-3294D01*
X23514Y-3295D01*
X23522Y-3308D01*
X23528Y-3322D01*
X23538Y-3349D01*
X23545Y-3377D01*
X23551Y-3404D01*
X23552Y-3416D01*
X23554Y-3428D01*
X23555Y-3438D01*
Y-3446D01*
X23556Y-3454D01*
Y-3464D01*
X23555Y-3482D01*
X23554Y-3500D01*
X23547Y-3532D01*
X23543Y-3547D01*
X23538Y-3561D01*
X23533Y-3574D01*
X23529Y-3586D01*
X23524Y-3597D01*
X23519Y-3605D01*
X23514Y-3613D01*
X23510Y-3620D01*
X23506Y-3626D01*
X23503Y-3630D01*
X23502Y-3632D01*
X23501Y-3633D01*
X23490Y-3645D01*
X23479Y-3657D01*
X23453Y-3677D01*
X23427Y-3694D01*
X23401Y-3707D01*
X23389Y-3713D01*
X23378Y-3717D01*
X23368Y-3720D01*
X23360Y-3724D01*
X23352Y-3726D01*
X23347Y-3728D01*
X23343Y-3729D01*
X23342D01*
X23321Y-3644D01*
X23349Y-3637D01*
X23374Y-3627D01*
X23395Y-3615D01*
X23412Y-3604D01*
X23425Y-3594D01*
X23435Y-3585D01*
X23441Y-3579D01*
X23442Y-3578D01*
X23443Y-3577D01*
X23456Y-3558D01*
X23466Y-3538D01*
X23474Y-3518D01*
X23479Y-3499D01*
X23482Y-3482D01*
X23483Y-3475D01*
Y-3469D01*
X23484Y-3464D01*
Y-3457D01*
X23483Y-3436D01*
X23479Y-3415D01*
X23474Y-3397D01*
X23469Y-3381D01*
X23463Y-3367D01*
X23459Y-3357D01*
X23457Y-3353D01*
X23455Y-3350D01*
X23454Y-3349D01*
Y-3348D01*
X23442Y-3330D01*
X23427Y-3316D01*
X23412Y-3303D01*
X23397Y-3292D01*
X23384Y-3284D01*
X23372Y-3280D01*
X23369Y-3278D01*
X23366Y-3276D01*
X23364Y-3275D01*
X23363D01*
X23339Y-3267D01*
X23315Y-3261D01*
X23291Y-3257D01*
X23268Y-3254D01*
X23258Y-3253D01*
X23250Y-3252D01*
X23241D01*
X23234Y-3251D01*
X23228D01*
X23224D01*
X23221D01*
X23220D01*
X23197Y-3252D01*
X23174Y-3254D01*
X23154Y-3257D01*
X23135Y-3261D01*
X23120Y-3265D01*
X23113Y-3266D01*
X23108Y-3268D01*
X23103Y-3269D01*
X23100Y-3270D01*
X23098Y-3271D01*
X23097D01*
X23076Y-3280D01*
X23056Y-3290D01*
X23041Y-3302D01*
X23027Y-3313D01*
X23016Y-3323D01*
X23009Y-3332D01*
X23004Y-3338D01*
X23002Y-3339D01*
Y-3340D01*
X22990Y-3360D01*
X22981Y-3380D01*
X22975Y-3401D01*
X22971Y-3420D01*
X22968Y-3438D01*
X22967Y-3444D01*
Y-3451D01*
X22966Y-3456D01*
Y-3463D01*
X22967Y-3486D01*
X22971Y-3507D01*
X22975Y-3525D01*
X22981Y-3540D01*
X22988Y-3553D01*
X22993Y-3561D01*
X22997Y-3567D01*
X22998Y-3569D01*
X23012Y-3585D01*
X23027Y-3598D01*
X23045Y-3609D01*
X23061Y-3618D01*
X23076Y-3625D01*
X23083Y-3628D01*
X23089Y-3631D01*
X23094Y-3633D01*
X23097Y-3634D01*
X23099Y-3635D01*
X23100D01*
X23081Y-3718D01*
X23050Y-3707D01*
X23035Y-3700D01*
X23022Y-3693D01*
X23010Y-3685D01*
X22998Y-3678D01*
X22988Y-3671D01*
X22978Y-3663D01*
X22971Y-3656D01*
X22964Y-3649D01*
X22957Y-3642D01*
X22952Y-3638D01*
X22948Y-3633D01*
X22945Y-3630D01*
X22944Y-3628D01*
X22943Y-3627D01*
X22935Y-3614D01*
X22927Y-3601D01*
X22920Y-3588D01*
X22914Y-3574D01*
X22905Y-3547D01*
X22899Y-3521D01*
X22897Y-3510D01*
X22896Y-3499D01*
X22896Y-3489D01*
X22895Y-3481D01*
X22894Y-3475D01*
Y-3465D01*
X22896Y-3434D01*
X22899Y-3404D01*
X22906Y-3378D01*
X22909Y-3366D01*
X22913Y-3356D01*
X22917Y-3346D01*
X22920Y-3336D01*
X22924Y-3328D01*
X22927Y-3322D01*
X22929Y-3317D01*
X22931Y-3313D01*
X22933Y-3311D01*
Y-3310D01*
X22948Y-3285D01*
X22967Y-3263D01*
X22985Y-3244D01*
X23004Y-3230D01*
X23020Y-3217D01*
X23027Y-3212D01*
X23033Y-3208D01*
X23039Y-3205D01*
X23043Y-3204D01*
X23045Y-3202D01*
X23046D01*
X23074Y-3189D01*
X23104Y-3179D01*
X23133Y-3173D01*
X23161Y-3168D01*
X23173Y-3166D01*
X23184Y-3165D01*
X23195Y-3164D01*
X23204D01*
X23211Y-3164D01*
X23215D01*
X23219D01*
X23220D01*
X23254Y-3164D01*
D02*
G37*
G36*
X23276Y-3798D02*
X23303Y-3800D01*
X23330Y-3803D01*
X23353Y-3807D01*
X23374Y-3812D01*
X23394Y-3817D01*
X23411Y-3823D01*
X23427Y-3829D01*
X23441Y-3834D01*
X23452Y-3839D01*
X23462Y-3844D01*
X23470Y-3849D01*
X23476Y-3853D01*
X23480Y-3856D01*
X23483Y-3858D01*
X23484Y-3859D01*
X23496Y-3871D01*
X23507Y-3883D01*
X23517Y-3897D01*
X23526Y-3911D01*
X23532Y-3924D01*
X23538Y-3937D01*
X23543Y-3951D01*
X23547Y-3963D01*
X23550Y-3975D01*
X23552Y-3986D01*
X23554Y-3996D01*
X23555Y-4003D01*
Y-4010D01*
X23556Y-4016D01*
Y-4020D01*
X23555Y-4040D01*
X23552Y-4060D01*
X23547Y-4077D01*
X23542Y-4093D01*
X23537Y-4105D01*
X23532Y-4115D01*
X23529Y-4120D01*
X23529Y-4122D01*
X23517Y-4139D01*
X23504Y-4153D01*
X23491Y-4165D01*
X23479Y-4176D01*
X23467Y-4184D01*
X23458Y-4190D01*
X23454Y-4192D01*
X23451Y-4194D01*
X23450Y-4194D01*
X23449D01*
X23430Y-4203D01*
X23410Y-4210D01*
X23391Y-4214D01*
X23374Y-4218D01*
X23359Y-4220D01*
X23353D01*
X23347Y-4221D01*
X23343D01*
X23340D01*
X23338D01*
X23337D01*
X23321Y-4220D01*
X23304Y-4219D01*
X23290Y-4216D01*
X23275Y-4212D01*
X23262Y-4208D01*
X23250Y-4203D01*
X23239Y-4198D01*
X23228Y-4194D01*
X23219Y-4188D01*
X23212Y-4183D01*
X23205Y-4178D01*
X23199Y-4174D01*
X23194Y-4170D01*
X23191Y-4167D01*
X23189Y-4166D01*
X23188Y-4165D01*
X23177Y-4154D01*
X23169Y-4144D01*
X23161Y-4132D01*
X23154Y-4120D01*
X23148Y-4110D01*
X23144Y-4098D01*
X23136Y-4077D01*
X23133Y-4059D01*
X23132Y-4051D01*
X23131Y-4044D01*
X23130Y-4038D01*
Y-4031D01*
X23131Y-4014D01*
X23133Y-3998D01*
X23136Y-3984D01*
X23140Y-3971D01*
X23144Y-3960D01*
X23148Y-3952D01*
X23150Y-3947D01*
X23151Y-3945D01*
X23160Y-3930D01*
X23170Y-3917D01*
X23180Y-3905D01*
X23191Y-3895D01*
X23201Y-3886D01*
X23209Y-3880D01*
X23213Y-3877D01*
X23214Y-3876D01*
X23198D01*
X23181Y-3877D01*
X23166Y-3877D01*
X23151Y-3878D01*
X23138Y-3880D01*
X23126Y-3882D01*
X23115Y-3884D01*
X23105Y-3886D01*
X23096Y-3888D01*
X23089Y-3890D01*
X23082Y-3892D01*
X23077Y-3894D01*
X23073Y-3895D01*
X23069Y-3896D01*
X23068Y-3897D01*
X23067D01*
X23049Y-3906D01*
X23032Y-3916D01*
X23018Y-3925D01*
X23008Y-3935D01*
X22999Y-3943D01*
X22992Y-3950D01*
X22988Y-3954D01*
X22987Y-3956D01*
X22980Y-3967D01*
X22975Y-3978D01*
X22971Y-3990D01*
X22969Y-4000D01*
X22967Y-4009D01*
X22966Y-4016D01*
Y-4023D01*
X22967Y-4039D01*
X22971Y-4055D01*
X22976Y-4069D01*
X22982Y-4080D01*
X22989Y-4089D01*
X22994Y-4096D01*
X22998Y-4101D01*
X23000Y-4102D01*
X23009Y-4109D01*
X23018Y-4115D01*
X23041Y-4124D01*
X23051Y-4127D01*
X23058Y-4130D01*
X23064Y-4132D01*
X23065D01*
X23066D01*
X23060Y-4210D01*
X23034Y-4205D01*
X23011Y-4196D01*
X22991Y-4188D01*
X22975Y-4177D01*
X22962Y-4167D01*
X22952Y-4159D01*
X22946Y-4154D01*
X22944Y-4153D01*
Y-4152D01*
X22936Y-4142D01*
X22930Y-4132D01*
X22920Y-4112D01*
X22912Y-4091D01*
X22906Y-4072D01*
X22903Y-4054D01*
X22902Y-4046D01*
Y-4040D01*
X22901Y-4035D01*
Y-4028D01*
X22902Y-4009D01*
X22904Y-3992D01*
X22908Y-3975D01*
X22913Y-3959D01*
X22919Y-3945D01*
X22925Y-3932D01*
X22932Y-3919D01*
X22938Y-3909D01*
X22945Y-3899D01*
X22952Y-3890D01*
X22958Y-3883D01*
X22964Y-3877D01*
X22969Y-3872D01*
X22973Y-3869D01*
X22975Y-3867D01*
X22975Y-3866D01*
X22992Y-3854D01*
X23012Y-3843D01*
X23031Y-3835D01*
X23054Y-3827D01*
X23075Y-3820D01*
X23097Y-3814D01*
X23120Y-3809D01*
X23142Y-3806D01*
X23163Y-3803D01*
X23182Y-3801D01*
X23200Y-3799D01*
X23215Y-3798D01*
X23228Y-3797D01*
X23238D01*
X23241D01*
X23244D01*
X23245D01*
X23246D01*
X23276Y-3798D01*
D02*
G37*
G36*
X26089Y-3142D02*
X26120Y-3146D01*
X26149Y-3152D01*
X26163Y-3155D01*
X26175Y-3158D01*
X26186Y-3161D01*
X26196Y-3164D01*
X26205Y-3166D01*
X26213Y-3169D01*
X26218Y-3171D01*
X26222Y-3173D01*
X26225Y-3174D01*
X26226D01*
X26255Y-3188D01*
X26279Y-3204D01*
X26300Y-3220D01*
X26317Y-3237D01*
X26331Y-3250D01*
X26340Y-3262D01*
X26343Y-3267D01*
X26346Y-3270D01*
X26347Y-3272D01*
X26348Y-3273D01*
X26356Y-3285D01*
X26362Y-3299D01*
X26373Y-3326D01*
X26379Y-3355D01*
X26385Y-3382D01*
X26386Y-3394D01*
X26388Y-3405D01*
X26389Y-3415D01*
Y-3424D01*
X26390Y-3432D01*
Y-3441D01*
X26389Y-3460D01*
X26388Y-3478D01*
X26381Y-3510D01*
X26377Y-3524D01*
X26373Y-3539D01*
X26368Y-3552D01*
X26363Y-3563D01*
X26358Y-3574D01*
X26353Y-3583D01*
X26348Y-3591D01*
X26344Y-3598D01*
X26340Y-3603D01*
X26337Y-3607D01*
X26337Y-3609D01*
X26336Y-3610D01*
X26325Y-3623D01*
X26313Y-3635D01*
X26288Y-3654D01*
X26261Y-3672D01*
X26235Y-3684D01*
X26223Y-3690D01*
X26213Y-3694D01*
X26202Y-3698D01*
X26194Y-3702D01*
X26186Y-3704D01*
X26181Y-3706D01*
X26178Y-3707D01*
X26177D01*
X26155Y-3622D01*
X26183Y-3614D01*
X26209Y-3604D01*
X26229Y-3593D01*
X26247Y-3582D01*
X26259Y-3571D01*
X26269Y-3562D01*
X26275Y-3557D01*
X26276Y-3556D01*
X26277Y-3555D01*
X26291Y-3535D01*
X26300Y-3516D01*
X26308Y-3495D01*
X26313Y-3477D01*
X26316Y-3460D01*
X26317Y-3452D01*
Y-3446D01*
X26318Y-3441D01*
Y-3435D01*
X26317Y-3413D01*
X26313Y-3393D01*
X26308Y-3374D01*
X26303Y-3359D01*
X26297Y-3345D01*
X26294Y-3334D01*
X26292Y-3330D01*
X26290Y-3327D01*
X26289Y-3326D01*
Y-3325D01*
X26276Y-3308D01*
X26261Y-3293D01*
X26247Y-3281D01*
X26231Y-3270D01*
X26218Y-3262D01*
X26207Y-3257D01*
X26203Y-3255D01*
X26200Y-3253D01*
X26198Y-3252D01*
X26197D01*
X26174Y-3244D01*
X26149Y-3239D01*
X26125Y-3235D01*
X26102Y-3232D01*
X26093Y-3231D01*
X26084Y-3230D01*
X26075D01*
X26068Y-3229D01*
X26062D01*
X26059D01*
X26056D01*
X26055D01*
X26031Y-3230D01*
X26009Y-3232D01*
X25988Y-3235D01*
X25970Y-3239D01*
X25954Y-3243D01*
X25947Y-3243D01*
X25942Y-3245D01*
X25938Y-3246D01*
X25935Y-3247D01*
X25933Y-3248D01*
X25932D01*
X25910Y-3257D01*
X25891Y-3268D01*
X25875Y-3280D01*
X25862Y-3290D01*
X25851Y-3301D01*
X25843Y-3310D01*
X25838Y-3316D01*
X25836Y-3317D01*
Y-3318D01*
X25824Y-3337D01*
X25816Y-3358D01*
X25809Y-3378D01*
X25805Y-3398D01*
X25802Y-3415D01*
X25801Y-3422D01*
Y-3429D01*
X25800Y-3434D01*
Y-3441D01*
X25801Y-3464D01*
X25805Y-3484D01*
X25810Y-3503D01*
X25816Y-3518D01*
X25822Y-3530D01*
X25827Y-3539D01*
X25831Y-3545D01*
X25832Y-3547D01*
X25846Y-3562D01*
X25862Y-3575D01*
X25879Y-3587D01*
X25896Y-3596D01*
X25910Y-3602D01*
X25917Y-3605D01*
X25923Y-3608D01*
X25928Y-3610D01*
X25932Y-3611D01*
X25934Y-3612D01*
X25935D01*
X25915Y-3696D01*
X25884Y-3684D01*
X25869Y-3678D01*
X25857Y-3671D01*
X25844Y-3663D01*
X25832Y-3655D01*
X25822Y-3648D01*
X25813Y-3640D01*
X25805Y-3634D01*
X25798Y-3627D01*
X25791Y-3620D01*
X25786Y-3615D01*
X25782Y-3610D01*
X25780Y-3607D01*
X25779Y-3605D01*
X25778Y-3604D01*
X25769Y-3592D01*
X25761Y-3579D01*
X25754Y-3565D01*
X25748Y-3552D01*
X25740Y-3524D01*
X25734Y-3499D01*
X25732Y-3487D01*
X25731Y-3477D01*
X25730Y-3467D01*
X25729Y-3459D01*
X25728Y-3452D01*
Y-3442D01*
X25730Y-3411D01*
X25734Y-3382D01*
X25741Y-3356D01*
X25743Y-3344D01*
X25747Y-3333D01*
X25751Y-3323D01*
X25754Y-3314D01*
X25758Y-3306D01*
X25761Y-3300D01*
X25763Y-3294D01*
X25765Y-3290D01*
X25767Y-3288D01*
Y-3287D01*
X25782Y-3263D01*
X25801Y-3241D01*
X25820Y-3222D01*
X25838Y-3207D01*
X25855Y-3195D01*
X25862Y-3190D01*
X25867Y-3186D01*
X25873Y-3183D01*
X25877Y-3181D01*
X25879Y-3179D01*
X25880D01*
X25908Y-3166D01*
X25939Y-3157D01*
X25968Y-3151D01*
X25995Y-3146D01*
X26008Y-3144D01*
X26019Y-3143D01*
X26029Y-3142D01*
X26038D01*
X26045Y-3141D01*
X26050D01*
X26054D01*
X26055D01*
X26089Y-3142D01*
D02*
G37*
G36*
X25822Y-4098D02*
X25849Y-4075D01*
X25877Y-4055D01*
X25905Y-4036D01*
X25932Y-4018D01*
X25944Y-4011D01*
X25955Y-4004D01*
X25965Y-3998D01*
X25974Y-3994D01*
X25980Y-3990D01*
X25985Y-3987D01*
X25989Y-3985D01*
X25990Y-3984D01*
X26027Y-3965D01*
X26064Y-3949D01*
X26100Y-3935D01*
X26116Y-3929D01*
X26131Y-3923D01*
X26145Y-3918D01*
X26158Y-3915D01*
X26169Y-3911D01*
X26178Y-3908D01*
X26186Y-3906D01*
X26192Y-3904D01*
X26196Y-3903D01*
X26197D01*
X26236Y-3893D01*
X26254Y-3889D01*
X26271Y-3886D01*
X26287Y-3883D01*
X26301Y-3881D01*
X26316Y-3879D01*
X26329Y-3877D01*
X26339Y-3877D01*
X26350Y-3876D01*
X26359Y-3875D01*
X26366D01*
X26372Y-3874D01*
X26376D01*
X26378D01*
X26379D01*
Y-3955D01*
X26344Y-3957D01*
X26311Y-3961D01*
X26282Y-3966D01*
X26268Y-3969D01*
X26256Y-3971D01*
X26245Y-3974D01*
X26234Y-3976D01*
X26225Y-3978D01*
X26218Y-3980D01*
X26212Y-3982D01*
X26208Y-3983D01*
X26205Y-3984D01*
X26204D01*
X26161Y-3997D01*
X26121Y-4012D01*
X26101Y-4020D01*
X26083Y-4028D01*
X26065Y-4036D01*
X26050Y-4042D01*
X26035Y-4049D01*
X26021Y-4056D01*
X26010Y-4062D01*
X26000Y-4067D01*
X25992Y-4071D01*
X25986Y-4074D01*
X25982Y-4075D01*
X25981Y-4076D01*
X25962Y-4088D01*
X25942Y-4099D01*
X25925Y-4111D01*
X25908Y-4121D01*
X25893Y-4131D01*
X25879Y-4142D01*
X25865Y-4152D01*
X25854Y-4160D01*
X25844Y-4168D01*
X25834Y-4176D01*
X25826Y-4183D01*
X25820Y-4188D01*
X25815Y-4193D01*
X25811Y-4195D01*
X25809Y-4197D01*
X25808Y-4198D01*
X25746D01*
Y-3784D01*
X25822D01*
Y-4098D01*
D02*
G37*
G36*
X23814Y-5974D02*
X23825Y-5989D01*
X23836Y-6004D01*
X23848Y-6018D01*
X23859Y-6028D01*
X23868Y-6037D01*
X23873Y-6043D01*
X23874Y-6044D01*
X23875Y-6045D01*
X23894Y-6060D01*
X23913Y-6075D01*
X23933Y-6088D01*
X23950Y-6099D01*
X23966Y-6107D01*
X23973Y-6110D01*
X23979Y-6113D01*
X23983Y-6116D01*
X23987Y-6118D01*
X23989Y-6119D01*
X23990D01*
Y-6196D01*
X23976Y-6190D01*
X23961Y-6183D01*
X23948Y-6178D01*
X23935Y-6171D01*
X23924Y-6165D01*
X23915Y-6160D01*
X23910Y-6156D01*
X23909Y-6155D01*
X23908D01*
X23891Y-6145D01*
X23876Y-6135D01*
X23864Y-6126D01*
X23853Y-6117D01*
X23844Y-6110D01*
X23837Y-6105D01*
X23833Y-6101D01*
X23832Y-6100D01*
Y-6602D01*
X23753D01*
Y-5958D01*
X23805D01*
X23814Y-5974D01*
D02*
G37*
G36*
X24418Y-5952D02*
X24447Y-5956D01*
X24473Y-5963D01*
X24485Y-5966D01*
X24496Y-5970D01*
X24505Y-5974D01*
X24515Y-5977D01*
X24523Y-5981D01*
X24529Y-5983D01*
X24535Y-5985D01*
X24539Y-5987D01*
X24541Y-5989D01*
X24542D01*
X24566Y-6005D01*
X24588Y-6023D01*
X24607Y-6042D01*
X24622Y-6060D01*
X24634Y-6077D01*
X24639Y-6084D01*
X24643Y-6090D01*
X24646Y-6096D01*
X24648Y-6100D01*
X24650Y-6101D01*
Y-6102D01*
X24663Y-6131D01*
X24672Y-6161D01*
X24678Y-6190D01*
X24683Y-6218D01*
X24685Y-6230D01*
X24686Y-6241D01*
X24687Y-6252D01*
Y-6260D01*
X24688Y-6267D01*
Y-6272D01*
Y-6276D01*
Y-6277D01*
X24687Y-6311D01*
X24683Y-6342D01*
X24677Y-6372D01*
X24674Y-6385D01*
X24671Y-6397D01*
X24668Y-6409D01*
X24665Y-6418D01*
X24663Y-6427D01*
X24660Y-6435D01*
X24658Y-6441D01*
X24656Y-6445D01*
X24655Y-6448D01*
Y-6449D01*
X24641Y-6477D01*
X24624Y-6501D01*
X24609Y-6523D01*
X24592Y-6539D01*
X24579Y-6553D01*
X24567Y-6563D01*
X24562Y-6566D01*
X24559Y-6569D01*
X24557Y-6570D01*
X24556Y-6571D01*
X24544Y-6578D01*
X24530Y-6584D01*
X24503Y-6595D01*
X24474Y-6602D01*
X24447Y-6608D01*
X24435Y-6609D01*
X24424Y-6611D01*
X24414Y-6612D01*
X24405D01*
X24397Y-6613D01*
X24387D01*
X24369Y-6612D01*
X24351Y-6611D01*
X24319Y-6604D01*
X24305Y-6600D01*
X24290Y-6595D01*
X24277Y-6590D01*
X24266Y-6585D01*
X24255Y-6580D01*
X24246Y-6575D01*
X24238Y-6571D01*
X24231Y-6567D01*
X24226Y-6563D01*
X24222Y-6560D01*
X24220Y-6559D01*
X24219Y-6558D01*
X24206Y-6547D01*
X24194Y-6535D01*
X24175Y-6510D01*
X24157Y-6484D01*
X24145Y-6457D01*
X24139Y-6446D01*
X24135Y-6435D01*
X24131Y-6424D01*
X24127Y-6417D01*
X24125Y-6409D01*
X24123Y-6404D01*
X24122Y-6400D01*
Y-6399D01*
X24207Y-6377D01*
X24215Y-6406D01*
X24225Y-6431D01*
X24236Y-6452D01*
X24247Y-6469D01*
X24258Y-6482D01*
X24267Y-6492D01*
X24272Y-6497D01*
X24273Y-6498D01*
X24274Y-6499D01*
X24294Y-6513D01*
X24313Y-6523D01*
X24334Y-6531D01*
X24352Y-6535D01*
X24369Y-6538D01*
X24377Y-6539D01*
X24383D01*
X24387Y-6540D01*
X24394D01*
X24416Y-6539D01*
X24436Y-6535D01*
X24455Y-6531D01*
X24470Y-6526D01*
X24484Y-6520D01*
X24495Y-6516D01*
X24499Y-6514D01*
X24502Y-6512D01*
X24503Y-6511D01*
X24504D01*
X24521Y-6498D01*
X24536Y-6484D01*
X24548Y-6469D01*
X24559Y-6454D01*
X24567Y-6441D01*
X24572Y-6429D01*
X24574Y-6425D01*
X24576Y-6422D01*
X24577Y-6420D01*
Y-6419D01*
X24584Y-6396D01*
X24590Y-6372D01*
X24594Y-6347D01*
X24597Y-6325D01*
X24598Y-6315D01*
X24599Y-6306D01*
Y-6298D01*
X24600Y-6291D01*
Y-6285D01*
Y-6281D01*
Y-6278D01*
Y-6277D01*
X24599Y-6254D01*
X24597Y-6231D01*
X24594Y-6211D01*
X24590Y-6192D01*
X24586Y-6177D01*
X24585Y-6170D01*
X24583Y-6165D01*
X24583Y-6160D01*
X24582Y-6157D01*
X24581Y-6155D01*
Y-6154D01*
X24572Y-6133D01*
X24561Y-6113D01*
X24549Y-6098D01*
X24539Y-6084D01*
X24528Y-6073D01*
X24519Y-6065D01*
X24513Y-6060D01*
X24512Y-6059D01*
X24511D01*
X24492Y-6047D01*
X24471Y-6038D01*
X24451Y-6031D01*
X24431Y-6027D01*
X24414Y-6024D01*
X24407Y-6023D01*
X24400D01*
X24395Y-6022D01*
X24388D01*
X24365Y-6023D01*
X24345Y-6027D01*
X24326Y-6032D01*
X24311Y-6038D01*
X24299Y-6045D01*
X24290Y-6050D01*
X24284Y-6054D01*
X24282Y-6055D01*
X24267Y-6068D01*
X24254Y-6084D01*
X24242Y-6101D01*
X24233Y-6118D01*
X24227Y-6133D01*
X24224Y-6139D01*
X24221Y-6145D01*
X24219Y-6150D01*
X24218Y-6154D01*
X24217Y-6156D01*
Y-6157D01*
X24133Y-6138D01*
X24145Y-6106D01*
X24151Y-6092D01*
X24158Y-6079D01*
X24166Y-6066D01*
X24174Y-6055D01*
X24181Y-6045D01*
X24188Y-6035D01*
X24195Y-6027D01*
X24202Y-6021D01*
X24209Y-6014D01*
X24214Y-6009D01*
X24219Y-6005D01*
X24222Y-6002D01*
X24224Y-6001D01*
X24225Y-6000D01*
X24237Y-5991D01*
X24250Y-5983D01*
X24264Y-5977D01*
X24277Y-5971D01*
X24305Y-5962D01*
X24330Y-5956D01*
X24342Y-5954D01*
X24352Y-5953D01*
X24362Y-5952D01*
X24370Y-5951D01*
X24377Y-5950D01*
X24386D01*
X24418Y-5952D01*
D02*
G37*
G36*
X23579Y-6377D02*
Y-6449D01*
X23301D01*
Y-6602D01*
X23222D01*
Y-6449D01*
X23135D01*
Y-6377D01*
X23222D01*
Y-5962D01*
X23286D01*
X23579Y-6377D01*
D02*
G37*
G36*
X2747Y14502D02*
X2758Y14486D01*
X2769Y14471D01*
X2781Y14458D01*
X2792Y14447D01*
X2801Y14438D01*
X2806Y14432D01*
X2807Y14431D01*
X2808Y14430D01*
X2827Y14415D01*
X2846Y14400D01*
X2866Y14387D01*
X2883Y14377D01*
X2899Y14368D01*
X2906Y14365D01*
X2912Y14362D01*
X2916Y14359D01*
X2920Y14357D01*
X2922Y14356D01*
X2922D01*
Y14279D01*
X2909Y14285D01*
X2894Y14292D01*
X2881Y14298D01*
X2868Y14304D01*
X2857Y14310D01*
X2848Y14315D01*
X2843Y14319D01*
X2842Y14320D01*
X2841D01*
X2824Y14330D01*
X2809Y14341D01*
X2797Y14349D01*
X2786Y14358D01*
X2777Y14365D01*
X2770Y14370D01*
X2766Y14374D01*
X2765Y14375D01*
Y13873D01*
X2686D01*
Y14517D01*
X2738D01*
X2747Y14502D01*
D02*
G37*
G36*
X3597Y13873D02*
X3516D01*
Y14377D01*
X3180Y13873D01*
X3093D01*
Y14514D01*
X3174D01*
Y14011D01*
X3512Y14514D01*
X3597D01*
Y13873D01*
D02*
G37*
G36*
X3996Y14523D02*
X4026Y14519D01*
X4052Y14512D01*
X4064Y14509D01*
X4074Y14505D01*
X4084Y14502D01*
X4094Y14499D01*
X4102Y14495D01*
X4108Y14492D01*
X4113Y14490D01*
X4117Y14488D01*
X4119Y14486D01*
X4120D01*
X4145Y14470D01*
X4167Y14452D01*
X4186Y14433D01*
X4200Y14415D01*
X4213Y14398D01*
X4218Y14391D01*
X4222Y14385D01*
X4225Y14380D01*
X4227Y14376D01*
X4228Y14374D01*
Y14373D01*
X4241Y14344D01*
X4251Y14314D01*
X4257Y14285D01*
X4262Y14258D01*
X4264Y14245D01*
X4265Y14234D01*
X4266Y14224D01*
Y14215D01*
X4267Y14208D01*
Y14203D01*
Y14199D01*
Y14198D01*
X4266Y14164D01*
X4262Y14133D01*
X4256Y14104D01*
X4253Y14090D01*
X4250Y14078D01*
X4247Y14066D01*
X4244Y14057D01*
X4241Y14048D01*
X4238Y14040D01*
X4236Y14034D01*
X4234Y14030D01*
X4233Y14027D01*
Y14027D01*
X4220Y13998D01*
X4203Y13974D01*
X4188Y13952D01*
X4171Y13936D01*
X4157Y13922D01*
X4146Y13912D01*
X4141Y13909D01*
X4138Y13907D01*
X4136Y13906D01*
X4135Y13905D01*
X4122Y13897D01*
X4109Y13891D01*
X4081Y13880D01*
X4053Y13873D01*
X4026Y13868D01*
X4014Y13867D01*
X4002Y13865D01*
X3992Y13864D01*
X3984D01*
X3976Y13863D01*
X3966D01*
X3948Y13864D01*
X3930Y13865D01*
X3898Y13871D01*
X3883Y13875D01*
X3869Y13880D01*
X3856Y13885D01*
X3844Y13890D01*
X3833Y13895D01*
X3825Y13900D01*
X3817Y13905D01*
X3810Y13908D01*
X3804Y13912D01*
X3800Y13915D01*
X3798Y13916D01*
X3797Y13917D01*
X3785Y13928D01*
X3773Y13940D01*
X3753Y13965D01*
X3736Y13991D01*
X3723Y14018D01*
X3717Y14029D01*
X3714Y14040D01*
X3710Y14051D01*
X3706Y14059D01*
X3704Y14066D01*
X3702Y14071D01*
X3701Y14075D01*
Y14076D01*
X3786Y14098D01*
X3793Y14069D01*
X3803Y14044D01*
X3815Y14024D01*
X3826Y14006D01*
X3836Y13993D01*
X3845Y13984D01*
X3851Y13978D01*
X3852Y13977D01*
X3853Y13976D01*
X3872Y13962D01*
X3892Y13952D01*
X3912Y13945D01*
X3931Y13940D01*
X3948Y13937D01*
X3955Y13936D01*
X3961D01*
X3966Y13935D01*
X3973D01*
X3994Y13936D01*
X4015Y13940D01*
X4033Y13945D01*
X4049Y13949D01*
X4063Y13955D01*
X4073Y13959D01*
X4077Y13961D01*
X4080Y13963D01*
X4081Y13964D01*
X4082D01*
X4100Y13977D01*
X4114Y13991D01*
X4127Y14006D01*
X4138Y14022D01*
X4146Y14034D01*
X4150Y14046D01*
X4152Y14050D01*
X4154Y14053D01*
X4155Y14055D01*
Y14056D01*
X4163Y14079D01*
X4169Y14104D01*
X4173Y14128D01*
X4176Y14150D01*
X4177Y14160D01*
X4178Y14169D01*
Y14178D01*
X4179Y14185D01*
Y14190D01*
Y14194D01*
Y14197D01*
Y14198D01*
X4178Y14222D01*
X4176Y14244D01*
X4173Y14264D01*
X4169Y14283D01*
X4165Y14299D01*
X4164Y14305D01*
X4162Y14310D01*
X4161Y14315D01*
X4160Y14318D01*
X4159Y14320D01*
Y14321D01*
X4150Y14343D01*
X4140Y14362D01*
X4128Y14378D01*
X4117Y14391D01*
X4107Y14402D01*
X4098Y14410D01*
X4092Y14415D01*
X4091Y14417D01*
X4090D01*
X4070Y14428D01*
X4050Y14437D01*
X4030Y14444D01*
X4010Y14448D01*
X3992Y14451D01*
X3986Y14452D01*
X3979D01*
X3974Y14453D01*
X3967D01*
X3944Y14452D01*
X3923Y14448D01*
X3905Y14443D01*
X3890Y14437D01*
X3877Y14430D01*
X3869Y14425D01*
X3863Y14422D01*
X3861Y14421D01*
X3845Y14407D01*
X3832Y14391D01*
X3821Y14374D01*
X3812Y14357D01*
X3805Y14343D01*
X3802Y14336D01*
X3799Y14330D01*
X3797Y14325D01*
X3796Y14321D01*
X3795Y14319D01*
Y14318D01*
X3712Y14338D01*
X3723Y14369D01*
X3730Y14383D01*
X3737Y14396D01*
X3745Y14409D01*
X3753Y14421D01*
X3759Y14430D01*
X3767Y14440D01*
X3774Y14448D01*
X3781Y14455D01*
X3788Y14462D01*
X3793Y14466D01*
X3797Y14470D01*
X3800Y14473D01*
X3802Y14474D01*
X3803Y14475D01*
X3816Y14484D01*
X3829Y14492D01*
X3842Y14499D01*
X3856Y14504D01*
X3883Y14513D01*
X3909Y14519D01*
X3920Y14521D01*
X3931Y14522D01*
X3941Y14523D01*
X3949Y14524D01*
X3955Y14525D01*
X3965D01*
X3996Y14523D01*
D02*
G37*
G36*
X2982Y-13848D02*
X2997Y-13849D01*
X3027Y-13855D01*
X3039Y-13858D01*
X3052Y-13862D01*
X3063Y-13867D01*
X3072Y-13871D01*
X3081Y-13876D01*
X3089Y-13879D01*
X3096Y-13884D01*
X3102Y-13887D01*
X3106Y-13890D01*
X3108Y-13893D01*
X3110Y-13894D01*
X3111Y-13895D01*
X3121Y-13905D01*
X3129Y-13915D01*
X3144Y-13937D01*
X3154Y-13959D01*
X3162Y-13982D01*
X3168Y-14001D01*
X3169Y-14010D01*
X3171Y-14018D01*
X3172Y-14024D01*
X3173Y-14029D01*
Y-14032D01*
Y-14033D01*
X3092Y-14041D01*
X3090Y-14020D01*
X3086Y-14001D01*
X3081Y-13986D01*
X3074Y-13972D01*
X3068Y-13961D01*
X3063Y-13954D01*
X3059Y-13950D01*
X3058Y-13948D01*
X3044Y-13936D01*
X3029Y-13927D01*
X3014Y-13921D01*
X2999Y-13917D01*
X2987Y-13915D01*
X2977Y-13914D01*
X2973Y-13913D01*
X2967D01*
X2948Y-13914D01*
X2930Y-13917D01*
X2915Y-13922D01*
X2903Y-13928D01*
X2893Y-13935D01*
X2885Y-13940D01*
X2881Y-13944D01*
X2879Y-13945D01*
X2868Y-13957D01*
X2860Y-13971D01*
X2854Y-13984D01*
X2849Y-13997D01*
X2847Y-14007D01*
X2846Y-14016D01*
X2845Y-14022D01*
Y-14023D01*
Y-14024D01*
X2847Y-14040D01*
X2851Y-14058D01*
X2857Y-14074D01*
X2864Y-14088D01*
X2870Y-14101D01*
X2876Y-14111D01*
X2878Y-14115D01*
X2880Y-14117D01*
X2882Y-14118D01*
Y-14119D01*
X2890Y-14129D01*
X2899Y-14140D01*
X2909Y-14151D01*
X2920Y-14161D01*
X2944Y-14184D01*
X2967Y-14206D01*
X2989Y-14225D01*
X2998Y-14234D01*
X3007Y-14240D01*
X3014Y-14247D01*
X3019Y-14251D01*
X3023Y-14254D01*
X3024Y-14255D01*
X3047Y-14275D01*
X3068Y-14294D01*
X3086Y-14311D01*
X3101Y-14324D01*
X3112Y-14336D01*
X3120Y-14345D01*
X3125Y-14351D01*
X3127Y-14352D01*
Y-14352D01*
X3140Y-14368D01*
X3149Y-14383D01*
X3159Y-14397D01*
X3166Y-14410D01*
X3172Y-14422D01*
X3176Y-14430D01*
X3178Y-14435D01*
X3179Y-14436D01*
Y-14437D01*
X3182Y-14447D01*
X3185Y-14457D01*
X3186Y-14466D01*
X3187Y-14473D01*
X3187Y-14480D01*
Y-14486D01*
Y-14490D01*
Y-14491D01*
X2763D01*
Y-14416D01*
X3078D01*
X3068Y-14400D01*
X3057Y-14388D01*
X3052Y-14382D01*
X3048Y-14378D01*
X3046Y-14375D01*
X3045Y-14374D01*
X3040Y-14369D01*
X3035Y-14364D01*
X3023Y-14352D01*
X3007Y-14339D01*
X2992Y-14325D01*
X2978Y-14313D01*
X2966Y-14303D01*
X2961Y-14299D01*
X2957Y-14296D01*
X2955Y-14294D01*
X2954Y-14293D01*
X2939Y-14279D01*
X2925Y-14268D01*
X2911Y-14256D01*
X2900Y-14245D01*
X2889Y-14234D01*
X2879Y-14226D01*
X2869Y-14217D01*
X2862Y-14209D01*
X2855Y-14202D01*
X2849Y-14196D01*
X2840Y-14188D01*
X2835Y-14182D01*
X2833Y-14180D01*
X2821Y-14164D01*
X2809Y-14151D01*
X2800Y-14137D01*
X2793Y-14125D01*
X2788Y-14115D01*
X2784Y-14109D01*
X2782Y-14104D01*
X2781Y-14102D01*
X2775Y-14088D01*
X2771Y-14075D01*
X2768Y-14062D01*
X2766Y-14050D01*
X2765Y-14040D01*
X2764Y-14033D01*
Y-14028D01*
Y-14026D01*
X2765Y-14012D01*
X2766Y-13998D01*
X2773Y-13974D01*
X2782Y-13953D01*
X2791Y-13934D01*
X2801Y-13919D01*
X2806Y-13914D01*
X2810Y-13908D01*
X2814Y-13904D01*
X2817Y-13901D01*
X2818Y-13900D01*
X2819Y-13899D01*
X2830Y-13890D01*
X2840Y-13881D01*
X2852Y-13875D01*
X2865Y-13869D01*
X2889Y-13860D01*
X2912Y-13854D01*
X2923Y-13851D01*
X2933Y-13850D01*
X2942Y-13849D01*
X2949Y-13848D01*
X2956Y-13847D01*
X2965D01*
X2982Y-13848D01*
D02*
G37*
G36*
X3791Y-14491D02*
X3710D01*
Y-13988D01*
X3374Y-14491D01*
X3287D01*
Y-13850D01*
X3368D01*
Y-14353D01*
X3705Y-13850D01*
X3791D01*
Y-14491D01*
D02*
G37*
G36*
X4190Y-13841D02*
X4219Y-13845D01*
X4246Y-13852D01*
X4257Y-13855D01*
X4268Y-13859D01*
X4278Y-13863D01*
X4288Y-13866D01*
X4295Y-13870D01*
X4301Y-13873D01*
X4307Y-13875D01*
X4311Y-13877D01*
X4313Y-13878D01*
X4314D01*
X4338Y-13894D01*
X4361Y-13913D01*
X4379Y-13931D01*
X4394Y-13950D01*
X4407Y-13966D01*
X4412Y-13973D01*
X4415Y-13979D01*
X4418Y-13985D01*
X4420Y-13989D01*
X4422Y-13991D01*
Y-13992D01*
X4435Y-14020D01*
X4445Y-14050D01*
X4451Y-14079D01*
X4455Y-14107D01*
X4457Y-14119D01*
X4458Y-14130D01*
X4459Y-14141D01*
Y-14150D01*
X4460Y-14156D01*
Y-14161D01*
Y-14165D01*
Y-14166D01*
X4459Y-14200D01*
X4455Y-14232D01*
X4450Y-14261D01*
X4447Y-14274D01*
X4444Y-14286D01*
X4441Y-14298D01*
X4438Y-14308D01*
X4435Y-14316D01*
X4432Y-14324D01*
X4430Y-14330D01*
X4428Y-14334D01*
X4427Y-14337D01*
Y-14338D01*
X4413Y-14366D01*
X4397Y-14391D01*
X4381Y-14412D01*
X4365Y-14429D01*
X4351Y-14442D01*
X4339Y-14452D01*
X4334Y-14455D01*
X4332Y-14458D01*
X4330Y-14459D01*
X4329Y-14460D01*
X4316Y-14468D01*
X4302Y-14473D01*
X4275Y-14484D01*
X4247Y-14491D01*
X4219Y-14497D01*
X4208Y-14498D01*
X4196Y-14500D01*
X4186Y-14501D01*
X4177D01*
X4170Y-14502D01*
X4160D01*
X4141Y-14501D01*
X4124Y-14500D01*
X4092Y-14493D01*
X4077Y-14489D01*
X4062Y-14484D01*
X4050Y-14479D01*
X4038Y-14474D01*
X4027Y-14470D01*
X4018Y-14465D01*
X4011Y-14460D01*
X4004Y-14456D01*
X3998Y-14452D01*
X3994Y-14449D01*
X3992Y-14448D01*
X3991Y-14447D01*
X3978Y-14436D01*
X3967Y-14425D01*
X3947Y-14399D01*
X3930Y-14373D01*
X3917Y-14347D01*
X3911Y-14335D01*
X3907Y-14324D01*
X3903Y-14313D01*
X3899Y-14306D01*
X3898Y-14298D01*
X3896Y-14293D01*
X3895Y-14289D01*
Y-14288D01*
X3979Y-14267D01*
X3987Y-14295D01*
X3997Y-14320D01*
X4009Y-14341D01*
X4019Y-14358D01*
X4030Y-14371D01*
X4039Y-14381D01*
X4045Y-14387D01*
X4046Y-14388D01*
X4047Y-14389D01*
X4066Y-14402D01*
X4086Y-14412D01*
X4106Y-14420D01*
X4125Y-14425D01*
X4141Y-14428D01*
X4149Y-14429D01*
X4155D01*
X4160Y-14430D01*
X4167D01*
X4188Y-14429D01*
X4209Y-14425D01*
X4227Y-14420D01*
X4243Y-14415D01*
X4256Y-14409D01*
X4267Y-14405D01*
X4271Y-14403D01*
X4274Y-14401D01*
X4275Y-14400D01*
X4276D01*
X4294Y-14388D01*
X4308Y-14373D01*
X4321Y-14358D01*
X4332Y-14343D01*
X4339Y-14330D01*
X4344Y-14318D01*
X4346Y-14314D01*
X4348Y-14312D01*
X4349Y-14310D01*
Y-14309D01*
X4357Y-14285D01*
X4363Y-14261D01*
X4367Y-14236D01*
X4370Y-14214D01*
X4371Y-14204D01*
X4372Y-14195D01*
Y-14187D01*
X4373Y-14180D01*
Y-14174D01*
Y-14170D01*
Y-14167D01*
Y-14166D01*
X4372Y-14143D01*
X4370Y-14120D01*
X4367Y-14100D01*
X4363Y-14081D01*
X4359Y-14066D01*
X4358Y-14059D01*
X4356Y-14054D01*
X4355Y-14049D01*
X4354Y-14046D01*
X4353Y-14044D01*
Y-14043D01*
X4344Y-14022D01*
X4334Y-14002D01*
X4322Y-13987D01*
X4311Y-13973D01*
X4300Y-13962D01*
X4292Y-13955D01*
X4286Y-13950D01*
X4285Y-13948D01*
X4284D01*
X4264Y-13936D01*
X4244Y-13927D01*
X4223Y-13920D01*
X4204Y-13917D01*
X4186Y-13914D01*
X4179Y-13913D01*
X4173D01*
X4168Y-13912D01*
X4161D01*
X4137Y-13913D01*
X4117Y-13917D01*
X4098Y-13921D01*
X4084Y-13927D01*
X4071Y-13934D01*
X4062Y-13939D01*
X4057Y-13943D01*
X4055Y-13944D01*
X4039Y-13957D01*
X4026Y-13973D01*
X4015Y-13991D01*
X4006Y-14007D01*
X3999Y-14022D01*
X3996Y-14029D01*
X3993Y-14035D01*
X3991Y-14039D01*
X3990Y-14043D01*
X3989Y-14045D01*
Y-14046D01*
X3905Y-14027D01*
X3917Y-13996D01*
X3924Y-13981D01*
X3931Y-13968D01*
X3938Y-13956D01*
X3946Y-13944D01*
X3953Y-13934D01*
X3961Y-13924D01*
X3968Y-13917D01*
X3975Y-13910D01*
X3981Y-13903D01*
X3986Y-13898D01*
X3991Y-13894D01*
X3994Y-13891D01*
X3996Y-13890D01*
X3997Y-13889D01*
X4010Y-13880D01*
X4022Y-13873D01*
X4036Y-13866D01*
X4050Y-13860D01*
X4077Y-13851D01*
X4102Y-13845D01*
X4114Y-13843D01*
X4125Y-13842D01*
X4135Y-13841D01*
X4142Y-13840D01*
X4149Y-13839D01*
X4159D01*
X4190Y-13841D01*
D02*
G37*
G36*
X19929Y-580D02*
X19940Y-595D01*
X19951Y-610D01*
X19963Y-624D01*
X19974Y-634D01*
X19983Y-643D01*
X19988Y-649D01*
X19989Y-650D01*
X19990Y-651D01*
X20009Y-667D01*
X20028Y-681D01*
X20048Y-694D01*
X20065Y-705D01*
X20081Y-713D01*
X20088Y-716D01*
X20094Y-719D01*
X20098Y-722D01*
X20102Y-724D01*
X20104Y-725D01*
X20104D01*
Y-802D01*
X20091Y-796D01*
X20076Y-789D01*
X20063Y-784D01*
X20050Y-777D01*
X20039Y-771D01*
X20030Y-766D01*
X20024Y-762D01*
X20024Y-761D01*
X20023D01*
X20006Y-751D01*
X19991Y-741D01*
X19979Y-732D01*
X19968Y-723D01*
X19959Y-716D01*
X19952Y-711D01*
X19948Y-707D01*
X19947Y-707D01*
Y-1208D01*
X19868D01*
Y-564D01*
X19920D01*
X19929Y-580D01*
D02*
G37*
G36*
X20634Y-1208D02*
X20234D01*
Y-1133D01*
X20549D01*
Y-567D01*
X20634D01*
Y-1208D01*
D02*
G37*
%LPC*%
G36*
X64073Y-39843D02*
Y-39931D01*
X64076Y-39987D01*
X64079Y-40033D01*
X64085Y-40074D01*
X64091Y-40110D01*
X64100Y-40136D01*
X64106Y-40153D01*
X64108Y-40165D01*
X64111Y-40168D01*
X64132Y-40206D01*
X64158Y-40238D01*
X64185Y-40268D01*
X64208Y-40288D01*
X64231Y-40309D01*
X64252Y-40320D01*
X64264Y-40329D01*
X64270Y-40332D01*
X64311Y-40353D01*
X64352Y-40367D01*
X64393Y-40376D01*
X64428Y-40382D01*
X64463Y-40388D01*
X64486Y-40391D01*
X64510D01*
X64559Y-40388D01*
X64600Y-40382D01*
X64639Y-40370D01*
X64668Y-40358D01*
X64691Y-40350D01*
X64706Y-40338D01*
X64718Y-40332D01*
X64721Y-40329D01*
X64744Y-40303D01*
X64762Y-40276D01*
X64773Y-40250D01*
X64782Y-40227D01*
X64788Y-40203D01*
X64791Y-40186D01*
Y-40174D01*
Y-40171D01*
X64788Y-40148D01*
X64785Y-40127D01*
X64773Y-40092D01*
X64767Y-40077D01*
X64764Y-40069D01*
X64759Y-40063D01*
Y-40060D01*
X64729Y-40025D01*
X64700Y-40001D01*
X64688Y-39992D01*
X64677Y-39987D01*
X64671Y-39981D01*
X64668D01*
X64641Y-39972D01*
X64609Y-39963D01*
X64542Y-39948D01*
X64510Y-39943D01*
X64483Y-39937D01*
X64466Y-39934D01*
X64460D01*
X64413Y-39925D01*
X64369Y-39919D01*
X64328Y-39910D01*
X64290Y-39905D01*
X64255Y-39896D01*
X64226Y-39887D01*
X64196Y-39881D01*
X64170Y-39875D01*
X64147Y-39866D01*
X64129Y-39861D01*
X64111Y-39858D01*
X64097Y-39852D01*
X64088Y-39849D01*
X64079Y-39846D01*
X64073Y-39843D01*
D02*
G37*
G36*
X67389Y-39310D02*
X67374D01*
X67342Y-39313D01*
X67309Y-39316D01*
X67254Y-39331D01*
X67204Y-39354D01*
X67160Y-39380D01*
X67128Y-39407D01*
X67102Y-39427D01*
X67087Y-39445D01*
X67081Y-39448D01*
Y-39451D01*
X67055Y-39486D01*
X67037Y-39530D01*
X67020Y-39574D01*
X67008Y-39615D01*
X66999Y-39653D01*
X66993Y-39685D01*
Y-39697D01*
X66990Y-39705D01*
Y-39711D01*
Y-39714D01*
X67769D01*
X67760Y-39650D01*
X67746Y-39591D01*
X67725Y-39541D01*
X67705Y-39500D01*
X67684Y-39465D01*
X67667Y-39442D01*
X67655Y-39427D01*
X67649Y-39421D01*
X67605Y-39383D01*
X67558Y-39357D01*
X67514Y-39336D01*
X67471Y-39325D01*
X67432Y-39316D01*
X67400Y-39313D01*
X67389Y-39310D01*
D02*
G37*
G36*
X80362Y-38844D02*
X79908D01*
X79847Y-38850D01*
X79797Y-38853D01*
X79756Y-38859D01*
X79727Y-38865D01*
X79706Y-38868D01*
X79692Y-38874D01*
X79689D01*
X79659Y-38885D01*
X79633Y-38900D01*
X79610Y-38918D01*
X79592Y-38932D01*
X79577Y-38950D01*
X79566Y-38962D01*
X79560Y-38970D01*
X79557Y-38973D01*
X79542Y-39003D01*
X79531Y-39032D01*
X79522Y-39058D01*
X79516Y-39085D01*
X79513Y-39108D01*
X79510Y-39126D01*
Y-39140D01*
Y-39143D01*
X79513Y-39181D01*
X79519Y-39213D01*
X79525Y-39243D01*
X79534Y-39266D01*
X79545Y-39287D01*
X79551Y-39301D01*
X79557Y-39310D01*
X79560Y-39313D01*
X79580Y-39336D01*
X79604Y-39357D01*
X79627Y-39374D01*
X79651Y-39386D01*
X79674Y-39398D01*
X79692Y-39404D01*
X79703Y-39407D01*
X79706Y-39410D01*
X79739Y-39415D01*
X79774Y-39421D01*
X79815Y-39424D01*
X79856Y-39427D01*
X79891Y-39430D01*
X80362D01*
Y-38844D01*
D02*
G37*
G36*
Y-39656D02*
X79856D01*
X79797Y-39661D01*
X79750Y-39664D01*
X79709Y-39670D01*
X79680Y-39676D01*
X79657Y-39682D01*
X79645Y-39685D01*
X79639Y-39688D01*
X79604Y-39702D01*
X79575Y-39720D01*
X79548Y-39738D01*
X79528Y-39758D01*
X79510Y-39776D01*
X79495Y-39787D01*
X79490Y-39799D01*
X79487Y-39802D01*
X79466Y-39831D01*
X79452Y-39864D01*
X79443Y-39896D01*
X79434Y-39925D01*
X79431Y-39948D01*
X79428Y-39969D01*
Y-39981D01*
Y-39987D01*
X79431Y-40022D01*
X79434Y-40051D01*
X79440Y-40080D01*
X79446Y-40104D01*
X79454Y-40124D01*
X79460Y-40139D01*
X79463Y-40148D01*
X79466Y-40151D01*
X79481Y-40174D01*
X79498Y-40197D01*
X79513Y-40215D01*
X79531Y-40230D01*
X79545Y-40244D01*
X79554Y-40253D01*
X79563Y-40256D01*
X79566Y-40259D01*
X79613Y-40282D01*
X79659Y-40297D01*
X79680Y-40303D01*
X79698Y-40306D01*
X79709Y-40309D01*
X79712D01*
X79733Y-40312D01*
X79759Y-40315D01*
X79818Y-40317D01*
X80362D01*
Y-39656D01*
D02*
G37*
G36*
X78298Y-39313D02*
X78248D01*
X78219Y-39319D01*
X78163Y-39333D01*
X78113Y-39357D01*
X78069Y-39380D01*
X78037Y-39404D01*
X78011Y-39427D01*
X77996Y-39442D01*
X77990Y-39445D01*
Y-39448D01*
X77949Y-39503D01*
X77920Y-39565D01*
X77899Y-39632D01*
X77885Y-39694D01*
X77876Y-39752D01*
X77873Y-39776D01*
Y-39796D01*
X77870Y-39817D01*
Y-39828D01*
Y-39837D01*
Y-39840D01*
Y-39890D01*
X77876Y-39937D01*
X77882Y-39981D01*
X77888Y-40019D01*
X77896Y-40057D01*
X77908Y-40092D01*
X77917Y-40121D01*
X77929Y-40148D01*
X77940Y-40171D01*
X77949Y-40192D01*
X77961Y-40209D01*
X77970Y-40224D01*
X77975Y-40235D01*
X77981Y-40244D01*
X77987Y-40247D01*
Y-40250D01*
X78011Y-40274D01*
X78034Y-40294D01*
X78081Y-40326D01*
X78131Y-40350D01*
X78178Y-40364D01*
X78219Y-40376D01*
X78251Y-40379D01*
X78262Y-40382D01*
X78280D01*
X78312Y-40379D01*
X78344Y-40376D01*
X78400Y-40361D01*
X78453Y-40341D01*
X78494Y-40315D01*
X78529Y-40291D01*
X78555Y-40271D01*
X78570Y-40256D01*
X78576Y-40250D01*
X78596Y-40224D01*
X78614Y-40194D01*
X78643Y-40130D01*
X78661Y-40063D01*
X78675Y-39998D01*
X78684Y-39940D01*
X78687Y-39913D01*
Y-39893D01*
X78690Y-39875D01*
Y-39861D01*
Y-39852D01*
Y-39849D01*
Y-39799D01*
X78684Y-39755D01*
X78678Y-39711D01*
X78673Y-39673D01*
X78664Y-39635D01*
X78655Y-39603D01*
X78643Y-39574D01*
X78632Y-39547D01*
X78623Y-39524D01*
X78611Y-39503D01*
X78602Y-39486D01*
X78593Y-39471D01*
X78588Y-39462D01*
X78582Y-39454D01*
X78576Y-39448D01*
X78552Y-39424D01*
X78529Y-39404D01*
X78479Y-39369D01*
X78429Y-39345D01*
X78383Y-39331D01*
X78342Y-39319D01*
X78309Y-39316D01*
X78298Y-39313D01*
D02*
G37*
G36*
X75310D02*
X75261D01*
X75231Y-39319D01*
X75176Y-39333D01*
X75126Y-39357D01*
X75082Y-39380D01*
X75050Y-39404D01*
X75023Y-39427D01*
X75009Y-39442D01*
X75003Y-39445D01*
Y-39448D01*
X74962Y-39503D01*
X74933Y-39565D01*
X74912Y-39632D01*
X74898Y-39694D01*
X74889Y-39752D01*
X74886Y-39776D01*
Y-39796D01*
X74883Y-39817D01*
Y-39828D01*
Y-39837D01*
Y-39840D01*
Y-39890D01*
X74889Y-39937D01*
X74895Y-39981D01*
X74900Y-40019D01*
X74909Y-40057D01*
X74921Y-40092D01*
X74930Y-40121D01*
X74941Y-40148D01*
X74953Y-40171D01*
X74962Y-40192D01*
X74974Y-40209D01*
X74982Y-40224D01*
X74988Y-40235D01*
X74994Y-40244D01*
X75000Y-40247D01*
Y-40250D01*
X75023Y-40274D01*
X75047Y-40294D01*
X75094Y-40326D01*
X75144Y-40350D01*
X75190Y-40364D01*
X75231Y-40376D01*
X75264Y-40379D01*
X75275Y-40382D01*
X75293D01*
X75325Y-40379D01*
X75357Y-40376D01*
X75413Y-40361D01*
X75466Y-40341D01*
X75507Y-40315D01*
X75542Y-40291D01*
X75568Y-40271D01*
X75583Y-40256D01*
X75589Y-40250D01*
X75609Y-40224D01*
X75627Y-40194D01*
X75656Y-40130D01*
X75674Y-40063D01*
X75688Y-39998D01*
X75697Y-39940D01*
X75700Y-39913D01*
Y-39893D01*
X75703Y-39875D01*
Y-39861D01*
Y-39852D01*
Y-39849D01*
Y-39799D01*
X75697Y-39755D01*
X75691Y-39711D01*
X75685Y-39673D01*
X75677Y-39635D01*
X75668Y-39603D01*
X75656Y-39574D01*
X75644Y-39547D01*
X75636Y-39524D01*
X75624Y-39503D01*
X75615Y-39486D01*
X75606Y-39471D01*
X75600Y-39462D01*
X75595Y-39454D01*
X75589Y-39448D01*
X75565Y-39424D01*
X75542Y-39404D01*
X75492Y-39369D01*
X75442Y-39345D01*
X75395Y-39331D01*
X75354Y-39319D01*
X75322Y-39316D01*
X75310Y-39313D01*
D02*
G37*
G36*
X70534Y-38806D02*
X70507D01*
X70437Y-38809D01*
X70373Y-38821D01*
X70314Y-38836D01*
X70264Y-38853D01*
X70223Y-38874D01*
X70191Y-38888D01*
X70179Y-38894D01*
X70171Y-38900D01*
X70168Y-38903D01*
X70165D01*
X70112Y-38941D01*
X70065Y-38985D01*
X70024Y-39032D01*
X69992Y-39076D01*
X69966Y-39114D01*
X69948Y-39146D01*
X69942Y-39158D01*
X69936Y-39167D01*
X69933Y-39172D01*
Y-39175D01*
X69907Y-39243D01*
X69887Y-39313D01*
X69872Y-39383D01*
X69860Y-39445D01*
X69854Y-39500D01*
Y-39527D01*
X69851Y-39547D01*
Y-39562D01*
Y-39574D01*
Y-39582D01*
Y-39585D01*
X69854Y-39653D01*
X69860Y-39717D01*
X69869Y-39776D01*
X69881Y-39831D01*
X69895Y-39884D01*
X69910Y-39931D01*
X69928Y-39972D01*
X69945Y-40013D01*
X69963Y-40045D01*
X69980Y-40074D01*
X69995Y-40101D01*
X70010Y-40121D01*
X70021Y-40139D01*
X70030Y-40151D01*
X70036Y-40156D01*
X70039Y-40159D01*
X70074Y-40194D01*
X70112Y-40224D01*
X70150Y-40250D01*
X70191Y-40274D01*
X70229Y-40294D01*
X70270Y-40309D01*
X70343Y-40332D01*
X70379Y-40341D01*
X70411Y-40347D01*
X70437Y-40353D01*
X70464Y-40356D01*
X70484Y-40358D01*
X70510D01*
X70563Y-40356D01*
X70610Y-40350D01*
X70657Y-40341D01*
X70701Y-40326D01*
X70745Y-40312D01*
X70783Y-40294D01*
X70818Y-40276D01*
X70850Y-40259D01*
X70879Y-40241D01*
X70906Y-40221D01*
X70926Y-40206D01*
X70944Y-40192D01*
X70959Y-40177D01*
X70970Y-40168D01*
X70976Y-40162D01*
X70979Y-40159D01*
X71011Y-40121D01*
X71041Y-40077D01*
X71064Y-40033D01*
X71084Y-39989D01*
X71102Y-39943D01*
X71120Y-39899D01*
X71140Y-39811D01*
X71149Y-39770D01*
X71155Y-39732D01*
X71158Y-39700D01*
X71161Y-39670D01*
X71164Y-39644D01*
Y-39626D01*
Y-39615D01*
Y-39612D01*
X71161Y-39533D01*
X71155Y-39459D01*
X71146Y-39395D01*
X71134Y-39333D01*
X71120Y-39275D01*
X71102Y-39225D01*
X71084Y-39181D01*
X71067Y-39140D01*
X71049Y-39105D01*
X71032Y-39076D01*
X71014Y-39049D01*
X71000Y-39029D01*
X70988Y-39014D01*
X70979Y-39003D01*
X70973Y-38997D01*
X70970Y-38994D01*
X70932Y-38962D01*
X70894Y-38932D01*
X70856Y-38906D01*
X70815Y-38885D01*
X70777Y-38868D01*
X70739Y-38853D01*
X70666Y-38830D01*
X70633Y-38821D01*
X70604Y-38815D01*
X70575Y-38812D01*
X70551Y-38809D01*
X70534Y-38806D01*
D02*
G37*
G36*
X36260Y-38844D02*
X35806D01*
X35745Y-38850D01*
X35695Y-38853D01*
X35654Y-38859D01*
X35625Y-38865D01*
X35604Y-38868D01*
X35590Y-38874D01*
X35587D01*
X35557Y-38885D01*
X35531Y-38900D01*
X35508Y-38918D01*
X35490Y-38932D01*
X35475Y-38950D01*
X35464Y-38962D01*
X35458Y-38970D01*
X35455Y-38973D01*
X35440Y-39003D01*
X35429Y-39032D01*
X35420Y-39058D01*
X35414Y-39085D01*
X35411Y-39108D01*
X35408Y-39126D01*
Y-39140D01*
Y-39143D01*
X35411Y-39181D01*
X35417Y-39213D01*
X35423Y-39243D01*
X35431Y-39266D01*
X35443Y-39287D01*
X35449Y-39301D01*
X35455Y-39310D01*
X35458Y-39313D01*
X35478Y-39336D01*
X35502Y-39357D01*
X35525Y-39374D01*
X35549Y-39386D01*
X35572Y-39398D01*
X35590Y-39404D01*
X35601Y-39407D01*
X35604Y-39410D01*
X35636Y-39415D01*
X35672Y-39421D01*
X35713Y-39424D01*
X35754Y-39427D01*
X35789Y-39430D01*
X36260D01*
Y-38844D01*
D02*
G37*
G36*
Y-39656D02*
X35754D01*
X35695Y-39661D01*
X35648Y-39664D01*
X35607Y-39670D01*
X35578Y-39676D01*
X35554Y-39682D01*
X35543Y-39685D01*
X35537Y-39688D01*
X35502Y-39702D01*
X35472Y-39720D01*
X35446Y-39738D01*
X35426Y-39758D01*
X35408Y-39776D01*
X35393Y-39787D01*
X35388Y-39799D01*
X35385Y-39802D01*
X35364Y-39831D01*
X35349Y-39864D01*
X35341Y-39896D01*
X35332Y-39925D01*
X35329Y-39948D01*
X35326Y-39969D01*
Y-39981D01*
Y-39987D01*
X35329Y-40022D01*
X35332Y-40051D01*
X35338Y-40080D01*
X35344Y-40104D01*
X35352Y-40124D01*
X35358Y-40139D01*
X35361Y-40148D01*
X35364Y-40151D01*
X35379Y-40174D01*
X35396Y-40197D01*
X35411Y-40215D01*
X35429Y-40230D01*
X35443Y-40244D01*
X35452Y-40253D01*
X35461Y-40256D01*
X35464Y-40259D01*
X35511Y-40282D01*
X35557Y-40297D01*
X35578Y-40303D01*
X35595Y-40306D01*
X35607Y-40309D01*
X35610D01*
X35631Y-40312D01*
X35657Y-40315D01*
X35716Y-40317D01*
X36260D01*
Y-39656D01*
D02*
G37*
G36*
X33897Y-38806D02*
X33871D01*
X33800Y-38809D01*
X33736Y-38821D01*
X33677Y-38836D01*
X33627Y-38853D01*
X33586Y-38874D01*
X33554Y-38888D01*
X33542Y-38894D01*
X33534Y-38900D01*
X33531Y-38903D01*
X33528D01*
X33475Y-38941D01*
X33428Y-38985D01*
X33387Y-39032D01*
X33355Y-39076D01*
X33329Y-39114D01*
X33311Y-39146D01*
X33305Y-39158D01*
X33299Y-39167D01*
X33297Y-39172D01*
Y-39175D01*
X33270Y-39243D01*
X33250Y-39313D01*
X33235Y-39383D01*
X33223Y-39445D01*
X33217Y-39500D01*
Y-39527D01*
X33215Y-39547D01*
Y-39562D01*
Y-39574D01*
Y-39582D01*
Y-39585D01*
X33217Y-39653D01*
X33223Y-39717D01*
X33232Y-39776D01*
X33244Y-39831D01*
X33258Y-39884D01*
X33273Y-39931D01*
X33291Y-39972D01*
X33308Y-40013D01*
X33326Y-40045D01*
X33343Y-40074D01*
X33358Y-40101D01*
X33373Y-40121D01*
X33384Y-40139D01*
X33393Y-40151D01*
X33399Y-40156D01*
X33402Y-40159D01*
X33437Y-40194D01*
X33475Y-40224D01*
X33513Y-40250D01*
X33554Y-40274D01*
X33592Y-40294D01*
X33633Y-40309D01*
X33707Y-40332D01*
X33742Y-40341D01*
X33774Y-40347D01*
X33800Y-40353D01*
X33827Y-40356D01*
X33847Y-40358D01*
X33873D01*
X33926Y-40356D01*
X33973Y-40350D01*
X34020Y-40341D01*
X34064Y-40326D01*
X34108Y-40312D01*
X34146Y-40294D01*
X34181Y-40276D01*
X34213Y-40259D01*
X34242Y-40241D01*
X34269Y-40221D01*
X34289Y-40206D01*
X34307Y-40192D01*
X34322Y-40177D01*
X34333Y-40168D01*
X34339Y-40162D01*
X34342Y-40159D01*
X34374Y-40121D01*
X34404Y-40077D01*
X34427Y-40033D01*
X34447Y-39989D01*
X34465Y-39943D01*
X34483Y-39899D01*
X34503Y-39811D01*
X34512Y-39770D01*
X34518Y-39732D01*
X34521Y-39700D01*
X34524Y-39670D01*
X34527Y-39644D01*
Y-39626D01*
Y-39615D01*
Y-39612D01*
X34524Y-39533D01*
X34518Y-39459D01*
X34509Y-39395D01*
X34497Y-39333D01*
X34483Y-39275D01*
X34465Y-39225D01*
X34447Y-39181D01*
X34430Y-39140D01*
X34412Y-39105D01*
X34395Y-39076D01*
X34377Y-39049D01*
X34363Y-39029D01*
X34351Y-39014D01*
X34342Y-39003D01*
X34336Y-38997D01*
X34333Y-38994D01*
X34295Y-38962D01*
X34257Y-38932D01*
X34219Y-38906D01*
X34178Y-38885D01*
X34140Y-38868D01*
X34102Y-38853D01*
X34029Y-38830D01*
X33996Y-38821D01*
X33967Y-38815D01*
X33938Y-38812D01*
X33914Y-38809D01*
X33897Y-38806D01*
D02*
G37*
G36*
X9243Y-9323D02*
X8103Y-9323D01*
D01*
X8562D01*
X8547Y-9326D01*
X8527D01*
X8505Y-9331D01*
X8454Y-9338D01*
X8398Y-9353D01*
X8340Y-9375D01*
X8313Y-9389D01*
X8283Y-9404D01*
X8257Y-9423D01*
X8232Y-9445D01*
X8230Y-9448D01*
X8227Y-9450D01*
X8220Y-9458D01*
X8213Y-9467D01*
X8203Y-9480D01*
X8191Y-9494D01*
X8166Y-9531D01*
X8144Y-9575D01*
X8122Y-9628D01*
X8108Y-9687D01*
X8105Y-9721D01*
X8103Y-9755D01*
Y-9772D01*
X8105Y-9790D01*
X8108Y-9814D01*
X8113Y-9843D01*
X8120Y-9875D01*
X8130Y-9909D01*
X8144Y-9946D01*
X8147Y-9951D01*
X8152Y-9963D01*
X8161Y-9982D01*
X8174Y-10007D01*
X8193Y-10036D01*
X8215Y-10070D01*
X8239Y-10109D01*
X8271Y-10148D01*
X8274Y-10151D01*
X8283Y-10163D01*
X8298Y-10178D01*
X8320Y-10202D01*
X8349Y-10231D01*
X8386Y-10268D01*
X8430Y-10309D01*
X8481Y-10358D01*
X8484Y-10361D01*
X8488Y-10363D01*
X8496Y-10370D01*
X8505Y-10380D01*
X8530Y-10405D01*
X8559Y-10434D01*
X8593Y-10463D01*
X8625Y-10495D01*
X8654Y-10524D01*
X8676Y-10546D01*
X8679Y-10549D01*
X8684Y-10554D01*
X8693Y-10563D01*
X8706Y-10578D01*
X8718Y-10593D01*
X8733Y-10610D01*
X8764Y-10649D01*
X8213D01*
X8271Y-10934D01*
X9243Y-10934D01*
Y-10929D01*
X9240Y-10915D01*
X9235Y-10893D01*
X9228Y-10864D01*
X9218Y-10829D01*
X9208Y-10790D01*
X9191Y-10751D01*
X9174Y-10712D01*
Y-10710D01*
X9172Y-10707D01*
X9165Y-10693D01*
X9152Y-10673D01*
X9138Y-10646D01*
X9118Y-10617D01*
X9094Y-10583D01*
X9069Y-10546D01*
X9040Y-10512D01*
X9035Y-10507D01*
X9023Y-10495D01*
X9003Y-10473D01*
X8989Y-10458D01*
X8972Y-10441D01*
X8955Y-10422D01*
X8933Y-10400D01*
X8908Y-10375D01*
X8881Y-10349D01*
X8852Y-10319D01*
X8818Y-10288D01*
X8784Y-10253D01*
X8745Y-10217D01*
X8742Y-10214D01*
X8737Y-10209D01*
X8730Y-10202D01*
X8718Y-10192D01*
X8691Y-10165D01*
X8659Y-10134D01*
X8625Y-10100D01*
X8591Y-10065D01*
X8562Y-10036D01*
X8552Y-10024D01*
X8542Y-10014D01*
X8540Y-10009D01*
X8530Y-9999D01*
X8518Y-9985D01*
X8501Y-9963D01*
X8484Y-9941D01*
X8466Y-9916D01*
X8449Y-9892D01*
X8437Y-9868D01*
X8435Y-9865D01*
X8432Y-9858D01*
X8427Y-9846D01*
X8423Y-9829D01*
X8413Y-9792D01*
X8408Y-9772D01*
Y-9753D01*
Y-9750D01*
Y-9738D01*
X8410Y-9724D01*
X8413Y-9707D01*
X8420Y-9685D01*
X8427Y-9663D01*
X8440Y-9641D01*
X8457Y-9621D01*
X8459Y-9619D01*
X8464Y-9614D01*
X8476Y-9604D01*
X8488Y-9594D01*
X8505Y-9587D01*
X8527Y-9577D01*
X8549Y-9572D01*
X8576Y-9570D01*
X8588D01*
X8603Y-9572D01*
X8620Y-9577D01*
X8640Y-9585D01*
X8662Y-9594D01*
X8684Y-9609D01*
X8706Y-9628D01*
X8708Y-9631D01*
X8715Y-9638D01*
X8725Y-9653D01*
X8737Y-9675D01*
X8750Y-9702D01*
X8764Y-9738D01*
X8776Y-9780D01*
X8789Y-9831D01*
X9094Y-9787D01*
Y-9785D01*
X9091Y-9777D01*
X9089Y-9765D01*
X9086Y-9750D01*
X9082Y-9731D01*
X9074Y-9709D01*
X9060Y-9660D01*
X9035Y-9604D01*
X9006Y-9548D01*
X8969Y-9492D01*
X8947Y-9467D01*
X8923Y-9443D01*
X8920Y-9440D01*
X8916Y-9438D01*
X8908Y-9431D01*
X8898Y-9423D01*
X8884Y-9416D01*
X8869Y-9404D01*
X8850Y-9394D01*
X8830Y-9382D01*
X8779Y-9360D01*
X8723Y-9343D01*
X8657Y-9328D01*
X8620Y-9326D01*
X8584Y-9323D01*
X9243Y-9323D01*
D01*
D02*
G37*
G36*
X12167D02*
X11974D01*
X12311Y-10934D01*
X11974D01*
X12850D01*
X12628D01*
X12399Y-9826D01*
X12404Y-9829D01*
X12416Y-9836D01*
X12435Y-9848D01*
X12462Y-9865D01*
X12496Y-9882D01*
X12535Y-9902D01*
X12577Y-9924D01*
X12623Y-9943D01*
X12626D01*
X12628Y-9946D01*
X12636Y-9948D01*
X12645Y-9953D01*
X12670Y-9960D01*
X12699Y-9973D01*
X12736Y-9985D01*
X12772Y-9997D01*
X12811Y-10007D01*
X12850Y-10017D01*
X12792Y-9736D01*
X12787Y-9733D01*
X12775Y-9729D01*
X12753Y-9719D01*
X12726Y-9704D01*
X12692Y-9687D01*
X12653Y-9667D01*
X12609Y-9646D01*
X12562Y-9619D01*
X12514Y-9589D01*
X12462Y-9558D01*
X12357Y-9487D01*
X12306Y-9450D01*
X12257Y-9409D01*
X12211Y-9367D01*
X12167Y-9323D01*
D02*
G37*
G36*
X16504Y-9331D02*
X14676D01*
D01*
X14967Y-10934D01*
X15264D01*
X14989Y-9606D01*
X15582Y-10934D01*
X15894D01*
X15953Y-9597D01*
X16207Y-10934D01*
X16504D01*
X16170Y-9331D01*
X16504D01*
D01*
D02*
G37*
G36*
X14640D02*
X13141D01*
X13697D01*
X13661Y-9333D01*
X13619D01*
X13578Y-9336D01*
X13541Y-9338D01*
X13524Y-9340D01*
X13509Y-9343D01*
X13505D01*
X13490Y-9345D01*
X13468Y-9350D01*
X13441Y-9358D01*
X13409Y-9367D01*
X13375Y-9377D01*
X13341Y-9392D01*
X13309Y-9409D01*
X13304Y-9411D01*
X13295Y-9419D01*
X13280Y-9428D01*
X13263Y-9443D01*
X13243Y-9462D01*
X13221Y-9484D01*
X13202Y-9511D01*
X13185Y-9541D01*
X13182Y-9543D01*
X13177Y-9555D01*
X13170Y-9572D01*
X13163Y-9594D01*
X13155Y-9621D01*
X13148Y-9650D01*
X13143Y-9685D01*
X13141Y-9721D01*
Y-10934D01*
Y-9743D01*
X13146Y-9768D01*
X13151Y-9799D01*
X13160Y-9836D01*
X13173Y-9875D01*
X13192Y-9914D01*
X13217Y-9953D01*
X13219Y-9958D01*
X13231Y-9970D01*
X13248Y-9987D01*
X13273Y-10009D01*
X13304Y-10031D01*
X13343Y-10058D01*
X13390Y-10080D01*
X13444Y-10102D01*
X13441D01*
X13439Y-10104D01*
X13424Y-10109D01*
X13402Y-10117D01*
X13373Y-10129D01*
X13343Y-10146D01*
X13312Y-10168D01*
X13280Y-10192D01*
X13253Y-10224D01*
X13251Y-10229D01*
X13241Y-10239D01*
X13231Y-10256D01*
X13217Y-10280D01*
X13204Y-10309D01*
X13192Y-10341D01*
X13185Y-10380D01*
X13182Y-10419D01*
Y-10422D01*
Y-10427D01*
Y-10434D01*
Y-10444D01*
X13185Y-10456D01*
X13187Y-10471D01*
X13192Y-10507D01*
X13202Y-10549D01*
X13217Y-10595D01*
X13238Y-10644D01*
X13265Y-10693D01*
Y-10695D01*
X13270Y-10698D01*
X13280Y-10715D01*
X13300Y-10737D01*
X13324Y-10763D01*
X13358Y-10795D01*
X13397Y-10825D01*
X13441Y-10854D01*
X13492Y-10878D01*
X13495D01*
X13500Y-10881D01*
X13507Y-10883D01*
X13519Y-10888D01*
X13534Y-10890D01*
X13551Y-10895D01*
X13573Y-10900D01*
X13595Y-10905D01*
X13622Y-10912D01*
X13651Y-10917D01*
X13683Y-10922D01*
X13719Y-10925D01*
X13756Y-10929D01*
X13797Y-10932D01*
X13839Y-10934D01*
X14640D01*
X14308Y-9331D01*
X14640D01*
D02*
G37*
G36*
X10561Y-9333D02*
X9372D01*
D01*
X9582Y-10344D01*
X9387D01*
X9443Y-10607D01*
X9638D01*
X9706Y-10934D01*
X9999D01*
X9933Y-10607D01*
X10561D01*
X10507Y-10349D01*
X9641Y-9333D01*
X10561D01*
D01*
D02*
G37*
G36*
X11056Y-9323D02*
X10600D01*
X11037D01*
X11020Y-9326D01*
X11003D01*
X10983Y-9328D01*
X10934Y-9338D01*
X10881Y-9350D01*
X10824Y-9370D01*
X10771Y-9399D01*
X10746Y-9416D01*
X10722Y-9436D01*
X10719Y-9438D01*
X10717Y-9440D01*
X10710Y-9448D01*
X10702Y-9455D01*
X10683Y-9480D01*
X10661Y-9514D01*
X10639Y-9555D01*
X10619Y-9604D01*
X10605Y-9660D01*
X10602Y-9689D01*
X10600Y-9721D01*
Y-9741D01*
X10602Y-9763D01*
X10607Y-9792D01*
X10617Y-9824D01*
X10629Y-9860D01*
X10646Y-9897D01*
X10668Y-9931D01*
X10671Y-9936D01*
X10680Y-9946D01*
X10697Y-9963D01*
X10719Y-9982D01*
X10749Y-10007D01*
X10783Y-10031D01*
X10824Y-10056D01*
X10873Y-10080D01*
X10868Y-10082D01*
X10856Y-10090D01*
X10839Y-10102D01*
X10817Y-10119D01*
X10793Y-10141D01*
X10768Y-10165D01*
X10744Y-10195D01*
X10724Y-10226D01*
X10722Y-10231D01*
X10717Y-10241D01*
X10710Y-10258D01*
X10700Y-10283D01*
X10690Y-10312D01*
X10683Y-10344D01*
X10678Y-10383D01*
X10675Y-10422D01*
Y-10424D01*
Y-10429D01*
Y-10439D01*
X10678Y-10451D01*
Y-10468D01*
X10680Y-10488D01*
X10690Y-10532D01*
X10705Y-10580D01*
X10724Y-10637D01*
X10754Y-10695D01*
X10773Y-10722D01*
X10793Y-10751D01*
X10795Y-10754D01*
X10800Y-10761D01*
X10810Y-10771D01*
X10824Y-10785D01*
X10841Y-10800D01*
X10861Y-10817D01*
X10885Y-10837D01*
X10912Y-10856D01*
X10944Y-10878D01*
X10978Y-10895D01*
X11017Y-10915D01*
X11059Y-10929D01*
X11103Y-10944D01*
X11149Y-10954D01*
X11200Y-10961D01*
X11254Y-10964D01*
X10600D01*
X11274D01*
X11288Y-10961D01*
X11308Y-10959D01*
X11327Y-10956D01*
X11376Y-10949D01*
X11430Y-10934D01*
X11488Y-10910D01*
X11515Y-10898D01*
X11544Y-10881D01*
X11571Y-10861D01*
X11596Y-10839D01*
X11598Y-10837D01*
X11601Y-10834D01*
X11608Y-10827D01*
X11615Y-10817D01*
X11625Y-10805D01*
X11635Y-10790D01*
X11659Y-10754D01*
X11684Y-10707D01*
X11703Y-10654D01*
X11718Y-10590D01*
X11720Y-10556D01*
X11723Y-10522D01*
Y-10507D01*
X11720Y-10495D01*
Y-10480D01*
X11718Y-10463D01*
X11710Y-10424D01*
X11701Y-10380D01*
X11686Y-10331D01*
X11664Y-10283D01*
X11635Y-10234D01*
Y-10231D01*
X11630Y-10229D01*
X11618Y-10214D01*
X11598Y-10190D01*
X11569Y-10163D01*
X11535Y-10134D01*
X11493Y-10104D01*
X11444Y-10078D01*
X11388Y-10056D01*
X11393Y-10053D01*
X11403Y-10046D01*
X11418Y-10034D01*
X11437Y-10019D01*
X11457Y-9999D01*
X11479Y-9977D01*
X11498Y-9953D01*
X11515Y-9926D01*
X11518Y-9924D01*
X11523Y-9914D01*
X11527Y-9899D01*
X11535Y-9877D01*
X11544Y-9855D01*
X11549Y-9826D01*
X11554Y-9797D01*
X11557Y-9765D01*
Y-9763D01*
Y-9760D01*
Y-9748D01*
X11554Y-9726D01*
X11549Y-9699D01*
X11542Y-9667D01*
X11532Y-9633D01*
X11518Y-9594D01*
X11498Y-9555D01*
Y-9553D01*
X11496Y-9550D01*
X11486Y-9538D01*
X11474Y-9519D01*
X11454Y-9494D01*
X11430Y-9467D01*
X11398Y-9438D01*
X11364Y-9411D01*
X11322Y-9387D01*
X11320D01*
X11317Y-9384D01*
X11310Y-9382D01*
X11303Y-9377D01*
X11278Y-9367D01*
X11244Y-9355D01*
X11205Y-9343D01*
X11161Y-9333D01*
X11110Y-9326D01*
X11056Y-9323D01*
D02*
G37*
%LPD*%
G36*
X15650Y-10432D02*
X15150Y-9331D01*
X15701D01*
X15650Y-10432D01*
D02*
G37*
G36*
X14112Y-9980D02*
X13834D01*
X13802Y-9977D01*
X13766D01*
X13727Y-9975D01*
X13685Y-9970D01*
X13649Y-9965D01*
X13617Y-9958D01*
X13614Y-9956D01*
X13605Y-9953D01*
X13590Y-9948D01*
X13575Y-9938D01*
X13556Y-9929D01*
X13536Y-9914D01*
X13519Y-9899D01*
X13505Y-9880D01*
X13502Y-9877D01*
X13497Y-9870D01*
X13492Y-9858D01*
X13485Y-9843D01*
X13478Y-9826D01*
X13470Y-9807D01*
X13468Y-9785D01*
X13465Y-9760D01*
Y-9758D01*
Y-9750D01*
X13468Y-9738D01*
X13470Y-9724D01*
X13475Y-9709D01*
X13480Y-9692D01*
X13490Y-9675D01*
X13502Y-9660D01*
X13505Y-9658D01*
X13509Y-9653D01*
X13517Y-9648D01*
X13527Y-9638D01*
X13541Y-9631D01*
X13558Y-9621D01*
X13578Y-9614D01*
X13602Y-9606D01*
X13605D01*
X13610Y-9604D01*
X13622D01*
X13636Y-9602D01*
X13661D01*
X13690Y-9599D01*
X14034D01*
X14112Y-9980D01*
D02*
G37*
G36*
X14259Y-10676D02*
X13890D01*
X13873Y-10673D01*
X13829D01*
X13785Y-10671D01*
X13741Y-10666D01*
X13702Y-10659D01*
X13685Y-10656D01*
X13671Y-10651D01*
X13668Y-10649D01*
X13658Y-10646D01*
X13646Y-10641D01*
X13631Y-10632D01*
X13614Y-10619D01*
X13595Y-10605D01*
X13578Y-10588D01*
X13561Y-10568D01*
X13558Y-10566D01*
X13553Y-10558D01*
X13548Y-10546D01*
X13539Y-10529D01*
X13531Y-10512D01*
X13527Y-10490D01*
X13522Y-10468D01*
X13519Y-10444D01*
Y-10441D01*
Y-10429D01*
X13522Y-10414D01*
X13527Y-10397D01*
X13534Y-10375D01*
X13546Y-10353D01*
X13561Y-10331D01*
X13580Y-10312D01*
X13583Y-10309D01*
X13592Y-10305D01*
X13607Y-10295D01*
X13627Y-10285D01*
X13653Y-10275D01*
X13688Y-10266D01*
X13727Y-10261D01*
X13775Y-10258D01*
X14171D01*
X14259Y-10676D01*
D02*
G37*
G36*
X10195Y-10344D02*
X9877D01*
X9772Y-9843D01*
X10195Y-10344D01*
D02*
G37*
G36*
X11090Y-9567D02*
X11112Y-9572D01*
X11134Y-9582D01*
X11159Y-9592D01*
X11183Y-9609D01*
X11208Y-9631D01*
X11210Y-9633D01*
X11217Y-9643D01*
X11227Y-9655D01*
X11237Y-9675D01*
X11249Y-9697D01*
X11259Y-9724D01*
X11266Y-9753D01*
X11269Y-9785D01*
Y-9787D01*
Y-9797D01*
X11266Y-9812D01*
X11264Y-9829D01*
X11259Y-9848D01*
X11249Y-9868D01*
X11239Y-9887D01*
X11225Y-9907D01*
X11222Y-9909D01*
X11217Y-9914D01*
X11205Y-9921D01*
X11193Y-9929D01*
X11176Y-9938D01*
X11154Y-9946D01*
X11132Y-9951D01*
X11105Y-9953D01*
X11090D01*
X11076Y-9951D01*
X11056Y-9946D01*
X11032Y-9938D01*
X11007Y-9926D01*
X10983Y-9912D01*
X10959Y-9890D01*
X10956Y-9887D01*
X10949Y-9877D01*
X10937Y-9865D01*
X10924Y-9848D01*
X10915Y-9826D01*
X10903Y-9799D01*
X10895Y-9772D01*
X10893Y-9741D01*
Y-9738D01*
Y-9729D01*
X10895Y-9714D01*
X10898Y-9694D01*
X10905Y-9675D01*
X10912Y-9655D01*
X10924Y-9633D01*
X10942Y-9614D01*
X10944Y-9611D01*
X10949Y-9606D01*
X10961Y-9599D01*
X10973Y-9589D01*
X10990Y-9580D01*
X11012Y-9572D01*
X11034Y-9567D01*
X11061Y-9565D01*
X11076D01*
X11090Y-9567D01*
D02*
G37*
G36*
X11178Y-10197D02*
X11195Y-10200D01*
X11220Y-10207D01*
X11247Y-10217D01*
X11276Y-10234D01*
X11305Y-10256D01*
X11335Y-10288D01*
X11337Y-10292D01*
X11347Y-10305D01*
X11359Y-10324D01*
X11371Y-10351D01*
X11386Y-10385D01*
X11398Y-10427D01*
X11408Y-10473D01*
X11410Y-10527D01*
Y-10532D01*
Y-10541D01*
X11408Y-10558D01*
X11403Y-10578D01*
X11398Y-10600D01*
X11391Y-10624D01*
X11378Y-10646D01*
X11361Y-10668D01*
X11359Y-10671D01*
X11352Y-10676D01*
X11342Y-10683D01*
X11327Y-10693D01*
X11308Y-10702D01*
X11288Y-10710D01*
X11261Y-10715D01*
X11234Y-10717D01*
X11230D01*
X11215Y-10715D01*
X11193Y-10712D01*
X11166Y-10705D01*
X11134Y-10690D01*
X11103Y-10673D01*
X11073Y-10646D01*
X11059Y-10632D01*
X11047Y-10612D01*
Y-10610D01*
X11044Y-10607D01*
X11037Y-10593D01*
X11025Y-10571D01*
X11012Y-10544D01*
X11000Y-10507D01*
X10988Y-10468D01*
X10981Y-10427D01*
X10978Y-10380D01*
Y-10378D01*
Y-10366D01*
X10981Y-10351D01*
X10986Y-10334D01*
X10990Y-10312D01*
X11000Y-10290D01*
X11012Y-10268D01*
X11029Y-10248D01*
X11032Y-10246D01*
X11039Y-10241D01*
X11049Y-10231D01*
X11066Y-10222D01*
X11083Y-10212D01*
X11108Y-10202D01*
X11132Y-10197D01*
X11161Y-10195D01*
X11166D01*
X11178Y-10197D01*
D02*
G37*
%LPC*%
G36*
X38533Y-10281D02*
X38382D01*
X38361Y-10283D01*
X38345Y-10284D01*
X38331Y-10286D01*
X38321Y-10288D01*
X38315Y-10289D01*
X38310Y-10291D01*
X38309D01*
X38299Y-10295D01*
X38290Y-10300D01*
X38282Y-10306D01*
X38277Y-10310D01*
X38272Y-10316D01*
X38268Y-10320D01*
X38266Y-10323D01*
X38265Y-10324D01*
X38260Y-10334D01*
X38256Y-10344D01*
X38253Y-10352D01*
X38251Y-10361D01*
X38250Y-10369D01*
X38249Y-10375D01*
Y-10380D01*
Y-10381D01*
X38250Y-10393D01*
X38252Y-10404D01*
X38254Y-10414D01*
X38257Y-10422D01*
X38261Y-10429D01*
X38263Y-10433D01*
X38265Y-10436D01*
X38266Y-10437D01*
X38273Y-10445D01*
X38280Y-10452D01*
X38288Y-10458D01*
X38296Y-10462D01*
X38304Y-10466D01*
X38310Y-10468D01*
X38314Y-10468D01*
X38315Y-10469D01*
X38325Y-10471D01*
X38337Y-10473D01*
X38351Y-10474D01*
X38364Y-10475D01*
X38376Y-10476D01*
X38533D01*
Y-10281D01*
D02*
G37*
G36*
Y-10551D02*
X38364D01*
X38345Y-10553D01*
X38329Y-10554D01*
X38316Y-10556D01*
X38306Y-10558D01*
X38298Y-10560D01*
X38294Y-10561D01*
X38292Y-10562D01*
X38280Y-10567D01*
X38271Y-10573D01*
X38262Y-10579D01*
X38255Y-10586D01*
X38249Y-10591D01*
X38244Y-10595D01*
X38242Y-10599D01*
X38241Y-10600D01*
X38235Y-10610D01*
X38230Y-10621D01*
X38227Y-10631D01*
X38224Y-10641D01*
X38223Y-10649D01*
X38222Y-10656D01*
Y-10660D01*
Y-10662D01*
X38223Y-10673D01*
X38224Y-10683D01*
X38226Y-10693D01*
X38228Y-10701D01*
X38231Y-10707D01*
X38233Y-10712D01*
X38234Y-10715D01*
X38235Y-10716D01*
X38239Y-10724D01*
X38245Y-10732D01*
X38250Y-10738D01*
X38256Y-10743D01*
X38261Y-10747D01*
X38264Y-10750D01*
X38267Y-10751D01*
X38268Y-10752D01*
X38283Y-10760D01*
X38299Y-10765D01*
X38306Y-10767D01*
X38312Y-10768D01*
X38316Y-10769D01*
X38316D01*
X38323Y-10770D01*
X38332Y-10771D01*
X38352Y-10772D01*
X38533D01*
Y-10551D01*
D02*
G37*
G36*
X37430Y-11647D02*
Y-11934D01*
X37631D01*
X37430Y-11647D01*
D02*
G37*
G36*
X23345Y-3888D02*
X23340D01*
X23338D01*
X23316Y-3890D01*
X23296Y-3894D01*
X23279Y-3900D01*
X23264Y-3907D01*
X23253Y-3914D01*
X23245Y-3919D01*
X23240Y-3923D01*
X23238Y-3925D01*
X23225Y-3940D01*
X23215Y-3955D01*
X23209Y-3970D01*
X23204Y-3984D01*
X23201Y-3996D01*
X23200Y-4006D01*
X23199Y-4010D01*
Y-4015D01*
X23201Y-4035D01*
X23205Y-4052D01*
X23212Y-4068D01*
X23218Y-4080D01*
X23225Y-4091D01*
X23232Y-4099D01*
X23236Y-4103D01*
X23238Y-4105D01*
X23253Y-4116D01*
X23270Y-4125D01*
X23288Y-4131D01*
X23304Y-4136D01*
X23319Y-4138D01*
X23326Y-4139D01*
X23331D01*
X23335Y-4140D01*
X23339D01*
X23341D01*
X23342D01*
X23367Y-4138D01*
X23388Y-4134D01*
X23408Y-4128D01*
X23423Y-4122D01*
X23435Y-4115D01*
X23444Y-4110D01*
X23449Y-4106D01*
X23451Y-4104D01*
X23465Y-4090D01*
X23475Y-4075D01*
X23482Y-4061D01*
X23487Y-4048D01*
X23489Y-4035D01*
X23490Y-4027D01*
X23491Y-4023D01*
Y-4018D01*
X23490Y-4005D01*
X23489Y-3994D01*
X23486Y-3982D01*
X23482Y-3972D01*
X23479Y-3964D01*
X23476Y-3958D01*
X23474Y-3954D01*
X23473Y-3953D01*
X23465Y-3942D01*
X23455Y-3932D01*
X23447Y-3924D01*
X23437Y-3917D01*
X23429Y-3912D01*
X23422Y-3908D01*
X23418Y-3906D01*
X23416Y-3905D01*
X23402Y-3899D01*
X23388Y-3895D01*
X23375Y-3892D01*
X23363Y-3890D01*
X23353Y-3889D01*
X23345Y-3888D01*
D02*
G37*
G36*
X23301Y-6090D02*
Y-6377D01*
X23502D01*
X23301Y-6090D01*
D02*
G37*
%LPD*%
D11*
X4600Y-15270D02*
Y-12730D01*
Y-15270D02*
X55400Y-15270D01*
X4600Y-12730D02*
X55400Y-12730D01*
Y-15270D02*
Y-12730D01*
X4600Y12730D02*
Y15270D01*
Y12730D02*
X55400Y12730D01*
X4600Y15270D02*
X55400Y15270D01*
Y12730D02*
Y15270D01*
X25751Y-8568D02*
X29051Y-8568D01*
X25751Y-6768D02*
X25751Y-8568D01*
X25751Y-6768D02*
X29051Y-6768D01*
X29051Y-8568D01*
X19102Y-2975D02*
X22198D01*
X19102D02*
Y-1525D01*
X22198Y-2975D02*
Y-1525D01*
X19102D02*
X22198D01*
X24937Y-6825D02*
X27537D01*
X24937Y-5425D02*
X24937Y-6825D01*
X27537Y-5425D02*
X27537Y-6825D01*
X24937Y-5425D02*
X27537D01*
X22850Y-2850D02*
Y-250D01*
X24250Y-250D01*
X22850Y-2850D02*
X24250Y-2850D01*
Y-250D01*
X27252Y1881D02*
Y4481D01*
X25852Y1881D02*
X27252Y1881D01*
X25852Y4481D02*
X27252Y4481D01*
X25852Y1881D02*
Y4481D01*
X27699Y-11104D02*
X30299D01*
X27699Y-9705D02*
X27699Y-11104D01*
X30299Y-9705D02*
X30299Y-11104D01*
X27699Y-9705D02*
X30299D01*
X25375Y-2700D02*
Y-900D01*
X26425Y-900D02*
X26425Y-2700D01*
X25375Y-900D02*
X26425Y-900D01*
X25375Y-2700D02*
X26425Y-2700D01*
X29475Y-7250D02*
Y-5450D01*
X30525Y-5450D02*
X30525Y-7250D01*
X29475Y-5450D02*
X30525Y-5450D01*
X29475Y-7250D02*
X30525Y-7250D01*
X34889Y-12355D02*
X36689D01*
X34889Y-11305D02*
X36689Y-11305D01*
X34889Y-11305D02*
X34889Y-12355D01*
X36689D02*
X36689Y-11305D01*
X28246Y-12355D02*
X30046D01*
X28246Y-11305D02*
X30046Y-11305D01*
X28246Y-11305D02*
X28246Y-12355D01*
X30046D02*
X30046Y-11305D01*
X34989Y-9905D02*
X36789Y-9904D01*
X36789Y-11104D01*
X34989Y-9905D02*
X34989Y-11104D01*
X36789Y-11104D01*
D12*
X296Y-17511D02*
X64868D01*
X64868Y17489D02*
X64868Y-17511D01*
X296Y17489D02*
X64868D01*
X61632D02*
X61645Y17477D01*
X296Y17489D02*
X296Y-17511D01*
D99*
X51212Y5462D02*
X52584D01*
X51085Y5488D02*
X52584D01*
X50882Y5513D02*
X52558D01*
X50653Y5538D02*
X52558D01*
X50552Y5564D02*
X52533D01*
X50476Y5589D02*
X52533D01*
X50120Y5691D02*
X52457D01*
X50018Y5716D02*
X52457D01*
X49968Y5742D02*
X52431D01*
X50196Y5665D02*
X52457D01*
X50247Y5640D02*
X52482D01*
X50323Y5615D02*
X52508D01*
X51415Y5437D02*
X52609D01*
X47859Y1601D02*
X53981D01*
X47859Y1627D02*
X54057D01*
X48063Y1779D02*
X54336D01*
X48088Y1805D02*
X54336D01*
X48139Y1830D02*
X54362D01*
X48190Y1855D02*
X54362D01*
X48215Y1881D02*
X54387D01*
X48266Y1906D02*
X54387D01*
X48291Y1932D02*
X54387D01*
X48367Y1957D02*
X54387D01*
X48393Y1982D02*
X54387D01*
X48418Y2008D02*
X54387D01*
X48469Y2033D02*
X54387D01*
X48520Y2059D02*
X54387D01*
X51720Y2109D02*
X54387D01*
X47885Y1652D02*
X54133D01*
X51644Y2084D02*
X54387D01*
X48037Y1754D02*
X54311D01*
X47961Y1728D02*
X54286D01*
X47936Y1703D02*
X54209D01*
X47910Y1678D02*
X54184D01*
X47859Y1576D02*
X53930D01*
X52863Y3252D02*
X53803D01*
X50349Y7316D02*
X51517D01*
X48063Y3252D02*
X49409D01*
X52863Y3278D02*
X53803D01*
X52889Y3329D02*
X53778D01*
X52889Y3354D02*
X53778D01*
X52914Y3379D02*
X53752D01*
X52914Y3405D02*
X53727D01*
X52914Y3430D02*
X53727D01*
X52914Y3456D02*
X53701D01*
X52939Y3481D02*
X53701D01*
X52889Y3303D02*
X53803D01*
X52939Y3506D02*
X53676D01*
X52939Y3532D02*
X53676D01*
X52939Y3557D02*
X53651D01*
X52939Y3583D02*
X53625D01*
X52965Y3608D02*
X53625D01*
X52965Y3633D02*
X53600D01*
X52965Y3659D02*
X53600D01*
X52965Y3684D02*
X53600D01*
X52965Y3710D02*
X53574D01*
X52965Y3735D02*
X53549D01*
X52965Y3760D02*
X53524D01*
X52939Y3786D02*
X53524D01*
X52939Y3811D02*
X53524D01*
X52939Y3837D02*
X53498D01*
X52939Y3862D02*
X53498D01*
X52914Y3887D02*
X53473D01*
X52914Y3913D02*
X53447D01*
Y3938D01*
X52914D02*
X53447D01*
X52533Y2135D02*
X54387D01*
X52558Y2160D02*
X54387D01*
X52584Y2186D02*
X54387D01*
X52584Y2211D02*
X54387D01*
X52584Y2236D02*
X54362D01*
X52584Y2262D02*
X54362D01*
X52609Y2287D02*
X54336D01*
X52609Y2313D02*
X54336D01*
X52609Y2338D02*
X54336D01*
X52609Y2363D02*
X54311D01*
X52635Y2389D02*
X54286D01*
X52635Y2414D02*
X54286D01*
X52660Y2440D02*
X54260D01*
X52660Y2465D02*
X54260D01*
X52660Y2490D02*
X54235D01*
X52685Y2516D02*
X54235D01*
X52685Y2541D02*
X54209D01*
X52685Y2567D02*
X54184D01*
X52685Y2592D02*
X54184D01*
X52711Y2617D02*
X54159D01*
X52711Y2643D02*
X54159D01*
X52711Y2668D02*
X54159D01*
X52736Y2719D02*
X54108D01*
X52736Y2744D02*
X54082D01*
X52762Y2770D02*
X54082D01*
X52762Y2795D02*
X54057D01*
X52762Y2821D02*
X54057D01*
X52762Y2846D02*
X54057D01*
X52762Y2871D02*
X54032D01*
X52787Y2897D02*
X54006D01*
X52787Y2922D02*
X54006D01*
X52787Y2948D02*
X53981D01*
X52787Y2973D02*
X53981D01*
X52812Y2998D02*
X53955D01*
X52812Y3024D02*
X53955D01*
X52838Y3075D02*
X53905D01*
X52838Y3100D02*
X53905D01*
X52838Y3125D02*
X53879D01*
X52863Y3151D02*
X53879D01*
X52863Y3176D02*
X53854D01*
X52863Y3202D02*
X53854D01*
X52863Y3227D02*
X53828D01*
X52838Y3049D02*
X53930D01*
X52736Y2694D02*
X54133D01*
X50374Y7342D02*
X51492D01*
X50374Y7367D02*
X51492D01*
X50399Y7393D02*
X51466D01*
X50399Y7418D02*
X51466D01*
X50425Y7443D02*
X51441D01*
X50450Y7469D02*
X51441D01*
X50450Y7494D02*
X51415D01*
X49891Y6402D02*
X52050D01*
X49891Y6427D02*
X52025D01*
X49917Y6453D02*
X52025D01*
X49917Y6478D02*
X52000D01*
X49942Y6504D02*
X52000D01*
X49942Y6529D02*
X51974D01*
X49968Y6554D02*
X51949D01*
X49993Y6580D02*
X51949D01*
X49993Y6605D02*
X51923D01*
X49993Y6631D02*
X51923D01*
X50018Y6656D02*
X51898D01*
X50018Y6681D02*
X51898D01*
X50044Y6707D02*
X51873D01*
X50044Y6732D02*
X51847D01*
X50069Y6758D02*
X51847D01*
X50095Y6783D02*
X51822D01*
X50095Y6808D02*
X51822D01*
X50120Y6834D02*
X51796D01*
X50120Y6859D02*
X51771D01*
X50145Y6885D02*
X51771D01*
X50145Y6910D02*
X51746D01*
X50171Y6935D02*
X51746D01*
X50171Y6961D02*
X51720D01*
X50196Y6986D02*
X51720D01*
X50196Y7012D02*
X51695D01*
X50222Y7037D02*
X51669D01*
X50222Y7062D02*
X51669D01*
X50247Y7088D02*
X51644D01*
X50247Y7113D02*
X51644D01*
X50272Y7139D02*
X51619D01*
X50272Y7164D02*
X51619D01*
X50298Y7189D02*
X51593D01*
X50298Y7215D02*
X51568D01*
X50323Y7240D02*
X51568D01*
X50323Y7266D02*
X51542D01*
X50349Y7291D02*
X51542D01*
X49917Y5767D02*
X52406D01*
X49841Y5792D02*
X52406D01*
X49815Y5818D02*
X52381D01*
X49764Y5843D02*
X52381D01*
X49739Y5869D02*
X52355D01*
X49688Y5894D02*
X52355D01*
X49663Y5919D02*
X52330D01*
X49663Y5945D02*
X52304D01*
X49663Y5970D02*
X52304D01*
X49663Y5996D02*
X52279D01*
X49688Y6021D02*
X52279D01*
X49688Y6046D02*
X52254D01*
X49714Y6072D02*
X52228D01*
X49739Y6097D02*
X52228D01*
X49739Y6123D02*
X52203D01*
X49764Y6148D02*
X52203D01*
X49764Y6173D02*
X52177D01*
X49790Y6199D02*
X52177D01*
X49790Y6224D02*
X52152D01*
X49815Y6250D02*
X52127D01*
X49815Y6275D02*
X52127D01*
X49841Y6300D02*
X52101D01*
X49841Y6326D02*
X52076D01*
X49866Y6351D02*
X52076D01*
X49866Y6377D02*
X52076D01*
X48113Y3303D02*
X49485D01*
X48113Y3329D02*
X49536D01*
X48139Y3354D02*
X49587D01*
X48139Y3379D02*
X49637D01*
X48215Y3481D02*
X49764D01*
X48190Y3456D02*
X49739D01*
X48164Y3430D02*
X49714D01*
X48139Y3405D02*
X49663D01*
X48088Y3278D02*
X49460D01*
X51415Y3405D02*
X52355D01*
X51390Y3430D02*
X52355D01*
X51365Y3456D02*
X52355D01*
X51339Y3481D02*
X52355D01*
X48215Y3506D02*
X49815D01*
X48215Y3532D02*
X49866D01*
X48240Y3557D02*
X49917D01*
X48240Y3583D02*
X49942D01*
X48291Y3633D02*
X49993D01*
X48291Y3659D02*
X50018D01*
X48317Y3684D02*
X50018D01*
X48317Y3710D02*
X49993D01*
X48342Y3735D02*
X49968D01*
X48342Y3760D02*
X49917D01*
X48393Y3811D02*
X49866D01*
X48393Y3837D02*
X49815D01*
X48418Y3887D02*
X49739D01*
X48418Y3913D02*
X49714D01*
X48469Y3964D02*
X49637D01*
X48469Y3989D02*
X49612D01*
X48494Y4014D02*
X49612D01*
X48494Y4040D02*
X49561D01*
X48520Y4065D02*
X49561D01*
X48520Y4091D02*
X49536D01*
X48545Y4116D02*
X49510D01*
X48571Y4141D02*
X49510D01*
X48571Y4167D02*
X49485D01*
X48596Y4192D02*
X49460D01*
X48596Y4218D02*
X49460D01*
X48621Y4243D02*
X49434D01*
X48621Y4268D02*
X49434D01*
X48672Y4319D02*
X49383D01*
Y4345D01*
X48672D02*
X49383D01*
X48647Y4294D02*
X49409D01*
X48444Y3938D02*
X49663D01*
X48418Y3862D02*
X49764D01*
X48367Y3786D02*
X49891D01*
X48266Y3608D02*
X49968D01*
X51314Y3506D02*
X52355D01*
X51263Y3532D02*
X52355D01*
X51238Y3557D02*
X52355D01*
X51212Y3583D02*
X52355D01*
X51212Y3608D02*
X52381D01*
X51212Y3633D02*
X52381D01*
X51212Y3659D02*
X52406D01*
X51212Y3684D02*
X52406D01*
X51288Y3735D02*
X52381D01*
X51339Y3760D02*
X52381D01*
X51365Y3786D02*
X52355D01*
X51415Y3811D02*
X52355D01*
X51238Y3710D02*
X52381D01*
X48672Y2160D02*
X51466D01*
X48723Y2186D02*
X51466D01*
X48748Y2211D02*
X51441D01*
X48799Y2236D02*
X51441D01*
X48875Y2287D02*
X51390D01*
X48926Y2313D02*
X51390D01*
X48977Y2338D02*
X51365D01*
X49002Y2363D02*
X51365D01*
X49104Y2414D02*
X51339D01*
X49129Y2440D02*
X51339D01*
X49180Y2465D02*
X51314D01*
X49231Y2490D02*
X51314D01*
X49256Y2516D02*
X51288D01*
X49282Y2541D02*
X51288D01*
X49333Y2567D02*
X51263D01*
X49383Y2592D02*
X51263D01*
X49028Y2389D02*
X51339D01*
X48825Y2262D02*
X51415D01*
X48647Y2135D02*
X51492D01*
X48596Y2109D02*
X51517D01*
X48545Y2084D02*
X51542D01*
X53803Y3252D02*
Y3278D01*
X52711Y5259D02*
Y5284D01*
X52152D02*
X52711D01*
X52381Y3227D02*
Y3252D01*
X51593D02*
X52381D01*
X52863Y3227D02*
Y3252D01*
X50349Y7291D02*
Y7316D01*
X48063Y3227D02*
Y3252D01*
X53727Y3405D02*
Y3430D01*
X53701Y3456D02*
Y3481D01*
X53676Y3506D02*
Y3532D01*
X53625Y3583D02*
Y3608D01*
X53600Y3659D02*
Y3684D01*
X53524Y3786D02*
Y3811D01*
X53498Y3837D02*
Y3862D01*
X54336Y2287D02*
Y2313D01*
X51492Y7342D02*
Y7367D01*
X51441Y7443D02*
Y7469D01*
X52025Y6427D02*
Y6453D01*
X52000Y6478D02*
Y6504D01*
X51949Y6554D02*
Y6580D01*
X51847Y6732D02*
Y6758D01*
X51822Y6783D02*
Y6808D01*
X51771Y6859D02*
Y6885D01*
X51746Y6910D02*
Y6935D01*
X51720Y6961D02*
Y6986D01*
X51669Y7037D02*
Y7062D01*
X51644Y7088D02*
Y7113D01*
X51568Y7215D02*
Y7240D01*
X51542Y7266D02*
Y7291D01*
X52101Y5335D02*
X52660D01*
Y5361D01*
X52050D02*
X52660D01*
X52025Y5386D02*
X52635D01*
Y5411D01*
X52000D02*
X52635D01*
X52584Y5462D02*
Y5488D01*
X52558Y5513D02*
Y5538D01*
X52533Y5564D02*
Y5589D01*
X52457Y5691D02*
Y5716D01*
X52406Y5767D02*
Y5792D01*
X52381Y5818D02*
Y5843D01*
X52355Y5869D02*
Y5894D01*
X52304Y5945D02*
Y5970D01*
X52279Y5996D02*
Y6021D01*
X52228Y6072D02*
Y6097D01*
X52203Y6123D02*
Y6148D01*
X52177Y6173D02*
Y6199D01*
X52127Y6250D02*
Y6275D01*
Y5310D02*
X52685D01*
X52076Y6326D02*
Y6351D01*
X51542Y3303D02*
X52381D01*
Y3329D01*
X51517D02*
X52381D01*
X52889D02*
Y3354D01*
X51466D02*
X52355D01*
Y3379D01*
X51441D02*
X52355D01*
Y3405D02*
Y3430D01*
Y3456D02*
Y3481D01*
X52914Y3379D02*
Y3405D01*
Y3430D02*
Y3456D01*
X51568Y3278D02*
X52381D01*
X52355Y3506D02*
Y3532D01*
X52939Y3481D02*
Y3506D01*
Y3532D02*
Y3557D01*
X52355D02*
Y3583D01*
X52381Y3608D02*
Y3633D01*
X52965D02*
Y3659D01*
Y3684D02*
Y3710D01*
Y3735D02*
Y3760D01*
X52381Y3735D02*
Y3760D01*
X52355Y3786D02*
Y3811D01*
X52939D02*
Y3837D01*
X52914Y3887D02*
Y3913D01*
X52889Y3964D02*
X53422D01*
Y3989D01*
X52889D02*
X53422D01*
X52889D02*
Y4014D01*
X53397D01*
X51695Y3989D02*
X52177D01*
Y4014D01*
X51746D02*
X52177D01*
X52889Y4040D02*
X53371D01*
Y4065D01*
X52889D02*
X53371D01*
X52889D02*
Y4091D01*
X53346D01*
Y4116D01*
X52863D02*
X53346D01*
X52863D02*
Y4141D01*
X53320D01*
Y4167D01*
X52863D02*
X53320D01*
X52863D02*
Y4192D01*
X53295D01*
X52863Y4218D02*
X53270D01*
X52863D02*
Y4243D01*
X53270D01*
Y4268D01*
X52838D02*
X53270D01*
X52838D02*
Y4294D01*
X53244D01*
Y4319D01*
X52838D02*
X53244D01*
X52812Y4345D02*
X53219D01*
X52812D02*
Y4370D01*
X53193D01*
Y4395D01*
X52812D02*
X53193D01*
X52787Y4421D02*
X53168D01*
Y4446D01*
X52787D02*
X53168D01*
X52787D02*
Y4472D01*
X53143D01*
Y4497D01*
X52787D02*
X53143D01*
X52762Y4548D02*
X53092D01*
X52762D02*
Y4573D01*
X53092D01*
X52762Y4599D02*
X53066D01*
Y4624D01*
X52762D02*
X53066D01*
X52762D02*
Y4649D01*
X53066D01*
X52787Y4675D02*
X53041D01*
X52787D02*
Y4700D01*
X53016D01*
X52228Y5208D02*
X52711D01*
Y5234D01*
X52203D02*
X52711D01*
X52177Y5259D02*
X52711D01*
X52254Y5183D02*
X52711D01*
X52279Y5157D02*
X52660D01*
X52304Y5132D02*
X52584D01*
X52330Y5107D02*
X52533D01*
X52381Y5081D02*
X52457D01*
X52838Y4751D02*
X52965D01*
X52812Y4726D02*
X52990D01*
X52762Y4522D02*
X53117D01*
X51847Y4091D02*
X52101D01*
X51822Y4065D02*
X52127D01*
X51771Y4040D02*
X52152D01*
X51669Y3964D02*
X52203D01*
X51644Y3938D02*
X52228D01*
X51568Y3913D02*
X52254D01*
X51517Y3887D02*
X52279D01*
X51492Y3862D02*
X52304D01*
X51466Y3837D02*
X52330D01*
X51898Y4116D02*
X52076D01*
X51466Y2160D02*
Y2186D01*
X51441Y2211D02*
Y2236D01*
X51771Y2160D02*
Y2186D01*
X51796Y2211D02*
Y2236D01*
X51822Y2313D02*
Y2338D01*
X51847Y2363D02*
Y2389D01*
Y2440D02*
Y2465D01*
Y2490D02*
Y2516D01*
X51873Y2541D02*
Y2567D01*
Y2592D02*
Y2617D01*
Y2643D02*
Y2668D01*
Y2719D02*
Y2744D01*
Y2770D02*
Y2795D01*
X51847Y2871D02*
Y2897D01*
X51822Y2922D02*
Y2948D01*
X51771Y2998D02*
Y3024D01*
X51746Y3049D02*
Y3075D01*
X52584Y2186D02*
Y2211D01*
Y2236D02*
Y2262D01*
X51746Y2135D02*
X52381D01*
Y2160D01*
X51771D02*
X52381D01*
X51771Y2186D02*
X52355D01*
Y2211D01*
X51796D02*
X52355D01*
X51796Y2236D02*
X52355D01*
Y2262D01*
X51796D02*
X52355D01*
X52609Y2287D02*
Y2313D01*
Y2338D02*
Y2363D01*
X51822Y2287D02*
X52330D01*
Y2313D01*
X51822D02*
X52330D01*
X51822Y2338D02*
X52330D01*
Y2363D01*
X51847D02*
X52330D01*
X51847Y2389D02*
X52330D01*
X52635D02*
Y2414D01*
X52660Y2465D02*
Y2490D01*
X52685Y2516D02*
Y2541D01*
Y2567D02*
Y2592D01*
X52711Y2643D02*
Y2668D01*
X51847Y2414D02*
X52330D01*
Y2440D01*
X51847D02*
X52330D01*
X51847Y2465D02*
X52330D01*
Y2490D01*
X51847D02*
X52330D01*
X51847Y2516D02*
X52330D01*
Y2541D01*
X51873D02*
X52330D01*
X51873Y2567D02*
X52304D01*
Y2592D01*
X51873D02*
X52304D01*
X51873Y2617D02*
X52304D01*
Y2643D01*
X51873D02*
X52304D01*
X51873Y2668D02*
X52304D01*
X52736Y2719D02*
Y2744D01*
X52762Y2770D02*
Y2795D01*
X51873Y2694D02*
X52304D01*
Y2719D01*
X51873D02*
X52304D01*
X51873Y2744D02*
X52330D01*
Y2770D01*
X51873D02*
X52330D01*
X51873Y2795D02*
X52330D01*
Y2821D01*
X51873D02*
X52330D01*
X52762Y2846D02*
Y2871D01*
X52787Y2922D02*
Y2948D01*
X51847Y2871D02*
X52355D01*
X51847Y2897D02*
X52355D01*
Y2922D01*
X51822D02*
X52355D01*
X51822Y2948D02*
X52355D01*
Y2973D01*
X51796D02*
X52355D01*
X52838Y3075D02*
Y3100D01*
X51771Y2998D02*
X52355D01*
X51771Y3024D02*
X52355D01*
Y3049D01*
X51746D02*
X52355D01*
X51746Y3075D02*
X52381D01*
Y3100D01*
X51720D02*
X52381D01*
X51695Y3125D02*
X52381D01*
Y3151D01*
X51669D02*
X52381D01*
X52863Y3176D02*
Y3202D01*
X51644Y3176D02*
X52381D01*
Y3202D01*
X51619D02*
X52381D01*
X51593Y3227D02*
X52381D01*
X51847Y2846D02*
X52330D01*
X50399Y7393D02*
Y7418D01*
X50450Y7469D02*
Y7494D01*
X50476Y7520D02*
X51390D01*
X50476D02*
Y7545D01*
X51390D01*
X50526Y7596D02*
X51339D01*
Y7621D01*
X50552D02*
X51339D01*
X50552D02*
Y7647D01*
X51288D01*
X50730Y7824D02*
X50984D01*
X50704Y7799D02*
X51034D01*
X50679Y7774D02*
X51085D01*
X50653Y7748D02*
X51136D01*
X50628Y7723D02*
X51187D01*
X50603Y7697D02*
X51238D01*
X50577Y7672D02*
X51263D01*
X50501Y7570D02*
X51365D01*
X49663Y5919D02*
Y5945D01*
Y5970D02*
Y5996D01*
X49688Y6021D02*
Y6046D01*
X49739Y6097D02*
Y6123D01*
X49764Y6148D02*
Y6173D01*
X49790Y6199D02*
Y6224D01*
X49841Y6300D02*
Y6326D01*
X49866Y6351D02*
Y6377D01*
X49891Y6402D02*
Y6427D01*
X49917Y6453D02*
Y6478D01*
X49942Y6504D02*
Y6529D01*
X49993Y6605D02*
Y6631D01*
X50018Y6656D02*
Y6681D01*
X50044Y6707D02*
Y6732D01*
X50120Y6834D02*
Y6859D01*
X50145Y6885D02*
Y6910D01*
X50171Y6935D02*
Y6961D01*
X50196Y6986D02*
Y7012D01*
X50272Y7139D02*
Y7164D01*
X50298Y7189D02*
Y7215D01*
X50323Y7240D02*
Y7266D01*
X51212Y3583D02*
Y3608D01*
Y3659D02*
Y3684D01*
X50018Y3659D02*
Y3684D01*
X49612Y3989D02*
Y4014D01*
X49561Y4040D02*
Y4065D01*
X49510Y4116D02*
Y4141D01*
X49460Y4192D02*
Y4218D01*
X49434Y4243D02*
Y4268D01*
X51390Y2287D02*
Y2313D01*
X51365Y2338D02*
Y2363D01*
X51339Y2414D02*
Y2440D01*
X51314Y2465D02*
Y2490D01*
X51288Y2516D02*
Y2541D01*
X51263Y2567D02*
Y2592D01*
X49460Y2643D02*
X51212D01*
Y2668D01*
X49510D02*
X51212D01*
X49536Y2694D02*
X51187D01*
Y2719D01*
X49561D02*
X51187D01*
X49637Y2744D02*
X51161D01*
Y2770D01*
X49663D02*
X51161D01*
X50374Y3176D02*
X50653D01*
X50323Y3151D02*
X50704D01*
X50298Y3125D02*
X50730D01*
X50222Y3100D02*
X50806D01*
X50171Y3075D02*
X50831D01*
X50145Y3049D02*
X50857D01*
X50095Y3024D02*
X50907D01*
X50018Y2998D02*
X50933D01*
X49993Y2973D02*
X50958D01*
X49942Y2948D02*
X50984D01*
X49917Y2922D02*
X51009D01*
X49866Y2897D02*
X51034D01*
X49841Y2871D02*
X51060D01*
X49790Y2846D02*
X51085D01*
X49739Y2821D02*
X51111D01*
X49688Y2795D02*
X51136D01*
X49409Y2617D02*
X51238D01*
X48113Y3303D02*
Y3329D01*
X48139Y3354D02*
Y3379D01*
X48215Y3506D02*
Y3532D01*
X48240Y3557D02*
Y3583D01*
X48291Y3633D02*
Y3659D01*
X48317Y3684D02*
Y3710D01*
X48342Y3735D02*
Y3760D01*
X48393Y3811D02*
Y3837D01*
X48418Y3887D02*
Y3913D01*
X48469Y3964D02*
Y3989D01*
X48494Y4014D02*
Y4040D01*
X48520Y4065D02*
Y4091D01*
X48571Y4141D02*
Y4167D01*
X48672Y4345D02*
Y4370D01*
X49358D01*
Y4395D01*
X48698D02*
X49358D01*
X48723Y4421D02*
X49333D01*
X48723D02*
Y4446D01*
X49307D01*
X48748Y4472D02*
X49282D01*
X48748D02*
Y4497D01*
X49256D01*
Y4522D01*
X48774D02*
X49256D01*
X48774D02*
Y4548D01*
X49231D01*
X48875Y4624D02*
X49104D01*
X48825Y4599D02*
X49180D01*
X48799Y4573D02*
X49206D01*
X47859Y1601D02*
Y1627D01*
X47504Y2186D02*
X47656D01*
X47504D02*
Y2211D01*
X47682D01*
X47504Y2236D02*
X47707D01*
X47504D02*
Y2262D01*
X47758D01*
X47580Y2338D02*
X47885D01*
X47580D02*
Y2363D01*
X47936D01*
X47605Y2414D02*
X48012D01*
X47605D02*
Y2440D01*
X48063D01*
X47656Y2490D02*
X48139D01*
X47656D02*
Y2516D01*
X48190D01*
X47682Y2541D02*
X48215D01*
X47682D02*
Y2567D01*
X48266D01*
X47707Y2592D02*
X48291D01*
X47707D02*
Y2617D01*
X48367D01*
X47758Y2668D02*
X48444D01*
X47758D02*
Y2694D01*
X48469D01*
X47783Y2719D02*
X48520D01*
X47783D02*
Y2744D01*
X48571D01*
X47809Y2770D02*
X48596D01*
X47809D02*
Y2795D01*
X48647D01*
X47859Y2871D02*
X48774D01*
X47859D02*
Y2897D01*
X48825D01*
X47885Y2922D02*
X48850D01*
X47885D02*
Y2948D01*
X48875D01*
X47936Y2998D02*
X49002D01*
X47936D02*
Y3024D01*
X49028D01*
X47961Y3049D02*
X49079D01*
X47961D02*
Y3075D01*
X49104D01*
X48012Y3125D02*
X49180D01*
X48012D02*
Y3151D01*
X49231D01*
X48037Y3176D02*
X49282D01*
X48037D02*
Y3202D01*
X49333D01*
X48063Y3227D02*
X49358D01*
X47986Y3100D02*
X49155D01*
X47910Y2973D02*
X48926D01*
X47859Y2846D02*
X48723D01*
X47834Y2821D02*
X48698D01*
X47732Y2643D02*
X48393D01*
X47631Y2465D02*
X48113D01*
X47580Y2389D02*
X47961D01*
X47555Y2313D02*
X47834D01*
X47529Y2287D02*
X47809D01*
X47555Y2160D02*
X47580D01*
M02*
