M48
;Layer_Color=9474304
;FILE_FORMAT=4:3
METRIC,LZ
;TYPE=PLATED
T1F00S00C0.125
%
T01
X0023157Y-0012297
X0026158Y-0011658
X0027558
X0028958
X0033158
X0034558
X0035958
X0037358
X0038758
X0040158
X0041558
X0044358
X0045758
X0047158
X0049958
X0051358
X0052758
X0054158
X0052058Y-0010258
X0050658
X0049738Y-0007945
X0049209Y-0008104
X0047858Y-0007458
X0046458
X0045058
X0043658
X0042258
X0042958Y-0006058
X0044358
X0045758
X0047158
X0048558
X0047158Y-0008858
X0045758
X0041558Y-0006058
X0040158
X0038758
X003878Y-0001911
X0039169Y-0001912
X0040509Y-0002219
X0041029Y-0002019
X0041418Y-0002018
X0041807Y-0002016
X0042196Y-0002015
X0042514Y-0001351
X0041275Y-0001167
X0040886Y-0001168
X0040497Y-000117
X004108Y-0001511
X0047218Y-0001615
X004722Y-0001223
X0046965Y-0001913
X0048334Y-0001012
X0048635Y-0000762
X004905Y0000549
X0049449
X0050998Y0000289
X0051441Y0000533
X005156Y-0001047
X0051077Y-0000998
X0056119Y-0001713
X0056449Y-0002054
X0056838Y-0002056
X0057233Y-0002109
X0057314Y-0001729
X0059352Y-0001829
X0059669Y-0002053
X0060058Y-0002055
X006044Y-0002101
X0060634Y-0001728
X0060636Y-0001339
X0055558Y0013542
X0053458Y0012142
X0052058
X0050658
X0047858
X0046458
X0052758Y0010742
X0035308Y0005835
X0034867Y0005835
X0034426Y0005835
X0033986Y0005835
X0033966Y000521
X0033942Y0004813
X0034313Y0004667
X0034754Y0004667
X0035194Y0004667
X0035635Y0004667
X0036076Y0004667
X0035869Y0005093
X0035429Y0005093
X0034988Y0005093
X0034547Y0005093
X0034707Y0005464
X0034266Y0005464
X0035148Y0005464
X0035589Y0005464
X0035429Y0004241
X0035869Y0004241
X003631Y0004241
X0036103Y0003814
X0035663Y0003814
X0035222Y0003814
X0034781Y0003814
X003434Y0003814
X0034547Y0004241
X0034988Y0004241
X0034106Y0004241
X0033655Y0004101
X0033655Y000366
X0033317Y0003315
X0033317Y0002874
X0031976Y0003516
X0031505Y0003542
X0031505Y0003101
X0031505Y000266
X0031505Y0002219
X0031911Y0001863
X0031505Y0003983
X0031505Y0004423
X0031505Y0004864
X0031505Y0005305
X0031451Y0006001
X0032043Y0005961
X0032022Y0004664
X0033655Y0004542
X0030522Y0005711
X0029991Y0005711
X0030649Y0006755
X0030649Y0007196
X0030649Y0007637
X0027987Y00073
X0027418Y0006313
X0024998Y0006424
X0023733Y0007031
X0023221Y0009708
X0022303Y0010066
X0020792Y0009908
X0019289Y0010197
X0018295Y0009897
X0016614Y0008914
X0015658Y0006542
Y0003742
Y0000942
X0018322Y0001648
X0020086Y0001648
X0020967Y0001648
X0020499Y0002501
X0019618Y0002501
X0019681Y0000365
X0020728Y0000115
X0020728Y-0000326
X0021169Y0000115
X002161Y0000115
X0022051Y0000115
X0022388Y-0000127
Y-0000568
X0022567Y0001569
X0024015Y0001896
X0024353Y0001613
X0024691Y0001329
X0023009Y0002971
X0022128Y0002971
X0022541Y0003824
X0026895Y0003933
X0027459Y0003346
X0027839Y0003355
X0028244Y000384
X0029214Y0003454
X0029224Y0003075
X0028621Y0001629
X002873Y0001223
X00285Y-00005
Y-0001
X0028997Y-0001009
X00295Y-00015
Y-0002
X0029
X00285
X0028
X0026285Y-0001983
X0028Y-0004
X00285Y-00035
X0029
Y-0003
X00295
X003
X00305
Y-00025
Y-0002
X0031
Y-00015
X00305
Y-0001
X003
Y-00015
X003Y-0002
X003Y-00035
X0031Y-0003
X00315
Y-00035
Y-0002
Y-00015
Y-00005
X0031
X003
X00295Y0
X0035167Y-0000859
X0036606Y-0001454
X0037686Y-0001444
X003791Y-0001765
X0037908Y-0002157
X0038391Y-0001909
X0037358Y-0006058
X0034323Y-000564
X003355Y-00051
X0032975Y-0003848
X0033853Y-0008108
X0034828Y-0008482
X0033858Y-0010258
X0032458
X0028958Y-0008858
X0027558
X0026158
X0023358
X0021958
X0020558
X0019158
X0016828Y-0008234
X0016253Y-0007373
X0014958Y-0008858
X0013558
X0012158
X0011458Y-0010258
X0012858
X002078Y-0004252
X002078Y-0003811
X0021221Y-0004252
X0021662Y-0004252
X0022103Y-0004252
X0022343Y-0003539
X0025868Y-000609
X0026885Y-0005738
X0026885Y-000533
X0027495Y-0005952
X0018529Y-0000906
X0020418Y0007624
X001985Y000842
X0021331
X0022658Y0012142
X0019858
X0017058
X0014958Y0010742
X0011458Y0009342
X0010758Y0007942
X0009358
X0006558
X0007258Y0006542
X0011458Y0012142
X0025458
X0026858
M30
