G04*
G04 #@! TF.GenerationSoftware,Altium Limited,Altium Designer,22.1.2 (22)*
G04*
G04 Layer_Color=8388736*
%FSLAX43Y43*%
%MOMM*%
G71*
G04*
G04 #@! TF.SameCoordinates,532FF45F-5525-43CF-9912-DA75C4080CC9*
G04*
G04*
G04 #@! TF.FilePolarity,Negative*
G04*
G01*
G75*
%ADD12C,0.300*%
%ADD16C,1.500*%
%ADD17R,0.800X0.610*%
%ADD18R,0.700X0.732*%
%ADD19R,0.732X0.732*%
%ADD20R,0.732X0.700*%
%ADD21R,0.850X0.850*%
%ADD22R,0.850X0.850*%
%ADD23R,0.430X0.500*%
%ADD24R,0.850X0.700*%
%ADD25R,0.700X0.850*%
%ADD26R,0.732X0.732*%
%ADD27R,0.700X0.900*%
%ADD28R,1.000X0.750*%
%ADD29R,0.660X0.610*%
%ADD30R,0.875X1.150*%
%ADD31R,0.750X0.375*%
%ADD32R,1.150X0.875*%
%ADD33R,5.000X1.700*%
%ADD34R,3.100X1.600*%
%ADD35R,0.850X0.732*%
%ADD36C,0.350*%
%ADD37R,0.575X0.450*%
%ADD38R,1.400X1.150*%
%ADD39C,1.950*%
G04:AMPARAMS|DCode=40|XSize=1.95mm|YSize=1.95mm|CornerRadius=0.525mm|HoleSize=0mm|Usage=FLASHONLY|Rotation=180.000|XOffset=0mm|YOffset=0mm|HoleType=Round|Shape=RoundedRectangle|*
%AMROUNDEDRECTD40*
21,1,1.950,0.900,0,0,180.0*
21,1,0.900,1.950,0,0,180.0*
1,1,1.050,-0.450,0.450*
1,1,1.050,0.450,0.450*
1,1,1.050,0.450,-0.450*
1,1,1.050,-0.450,-0.450*
%
%ADD40ROUNDEDRECTD40*%
G04:AMPARAMS|DCode=41|XSize=1.95mm|YSize=1.95mm|CornerRadius=0.525mm|HoleSize=0mm|Usage=FLASHONLY|Rotation=270.000|XOffset=0mm|YOffset=0mm|HoleType=Round|Shape=RoundedRectangle|*
%AMROUNDEDRECTD41*
21,1,1.950,0.900,0,0,270.0*
21,1,0.900,1.950,0,0,270.0*
1,1,1.050,-0.450,-0.450*
1,1,1.050,-0.450,0.450*
1,1,1.050,0.450,0.450*
1,1,1.050,0.450,-0.450*
%
%ADD41ROUNDEDRECTD41*%
%ADD42C,0.100*%
%ADD43C,0.250*%
G36*
X27800Y-4200D02*
Y-3300D01*
X28300D01*
Y-2700D01*
X27800D01*
Y-1800D01*
X28300D01*
Y-1200D01*
X27800D01*
Y200D01*
X28700D01*
Y-300D01*
X29300D01*
Y200D01*
X30200D01*
Y-300D01*
X30800D01*
Y200D01*
X32200D01*
Y-700D01*
X31700D01*
Y-1300D01*
X32200D01*
Y-2200D01*
X31700D01*
Y-2800D01*
X32200D01*
Y-4200D01*
X31300D01*
Y-3700D01*
X30700D01*
Y-4200D01*
X29800D01*
Y-3700D01*
X29200D01*
Y-4200D01*
X27800D01*
D02*
G37*
G36*
X55664Y-38558D02*
X55684D01*
X55734Y-38563D01*
X55792Y-38572D01*
X55857Y-38584D01*
X55921Y-38602D01*
X55983Y-38625D01*
X55986D01*
X55989Y-38628D01*
X55997Y-38631D01*
X56009Y-38637D01*
X56038Y-38654D01*
X56077Y-38675D01*
X56118Y-38704D01*
X56159Y-38739D01*
X56200Y-38780D01*
X56235Y-38827D01*
X56238Y-38833D01*
X56249Y-38850D01*
X56264Y-38880D01*
X56279Y-38915D01*
X56296Y-38959D01*
X56314Y-39012D01*
X56325Y-39067D01*
X56331Y-39129D01*
X56088Y-39146D01*
Y-39143D01*
Y-39137D01*
X56085Y-39129D01*
X56082Y-39117D01*
X56077Y-39085D01*
X56065Y-39044D01*
X56047Y-39000D01*
X56024Y-38956D01*
X55992Y-38912D01*
X55954Y-38874D01*
X55948Y-38871D01*
X55933Y-38859D01*
X55907Y-38845D01*
X55872Y-38827D01*
X55825Y-38809D01*
X55766Y-38795D01*
X55699Y-38783D01*
X55620Y-38780D01*
X55582D01*
X55564Y-38783D01*
X55541D01*
X55491Y-38792D01*
X55435Y-38801D01*
X55380Y-38815D01*
X55327Y-38836D01*
X55303Y-38850D01*
X55283Y-38865D01*
X55280Y-38868D01*
X55268Y-38880D01*
X55251Y-38897D01*
X55233Y-38924D01*
X55213Y-38953D01*
X55198Y-38988D01*
X55186Y-39026D01*
X55180Y-39070D01*
Y-39076D01*
Y-39088D01*
X55183Y-39108D01*
X55189Y-39132D01*
X55198Y-39158D01*
X55213Y-39187D01*
X55230Y-39214D01*
X55254Y-39240D01*
X55257Y-39243D01*
X55271Y-39252D01*
X55280Y-39258D01*
X55292Y-39266D01*
X55309Y-39272D01*
X55330Y-39281D01*
X55353Y-39293D01*
X55380Y-39304D01*
X55409Y-39313D01*
X55444Y-39325D01*
X55485Y-39340D01*
X55529Y-39351D01*
X55579Y-39363D01*
X55634Y-39378D01*
X55637D01*
X55649Y-39381D01*
X55664Y-39383D01*
X55684Y-39389D01*
X55710Y-39395D01*
X55740Y-39404D01*
X55804Y-39419D01*
X55874Y-39439D01*
X55945Y-39460D01*
X55980Y-39468D01*
X56009Y-39480D01*
X56038Y-39492D01*
X56062Y-39501D01*
X56065D01*
X56071Y-39504D01*
X56077Y-39509D01*
X56088Y-39515D01*
X56118Y-39533D01*
X56156Y-39553D01*
X56197Y-39583D01*
X56238Y-39618D01*
X56276Y-39656D01*
X56308Y-39697D01*
X56311Y-39703D01*
X56320Y-39717D01*
X56334Y-39741D01*
X56349Y-39776D01*
X56364Y-39814D01*
X56378Y-39861D01*
X56387Y-39914D01*
X56390Y-39969D01*
Y-39972D01*
Y-39975D01*
Y-39984D01*
Y-39996D01*
X56384Y-40025D01*
X56378Y-40063D01*
X56369Y-40107D01*
X56352Y-40157D01*
X56331Y-40209D01*
X56302Y-40259D01*
X56299Y-40265D01*
X56284Y-40283D01*
X56267Y-40306D01*
X56238Y-40335D01*
X56202Y-40370D01*
X56159Y-40406D01*
X56106Y-40438D01*
X56047Y-40470D01*
X56044D01*
X56038Y-40473D01*
X56030Y-40476D01*
X56018Y-40482D01*
X56003Y-40488D01*
X55986Y-40493D01*
X55939Y-40505D01*
X55886Y-40520D01*
X55822Y-40531D01*
X55754Y-40540D01*
X55678Y-40543D01*
X55634D01*
X55614Y-40540D01*
X55587D01*
X55558Y-40537D01*
X55526Y-40534D01*
X55459Y-40526D01*
X55385Y-40511D01*
X55312Y-40493D01*
X55242Y-40470D01*
X55239D01*
X55233Y-40467D01*
X55224Y-40461D01*
X55213Y-40455D01*
X55180Y-40438D01*
X55142Y-40411D01*
X55095Y-40379D01*
X55052Y-40341D01*
X55005Y-40294D01*
X54964Y-40242D01*
Y-40239D01*
X54961Y-40236D01*
X54955Y-40227D01*
X54949Y-40215D01*
X54940Y-40201D01*
X54931Y-40183D01*
X54914Y-40139D01*
X54896Y-40089D01*
X54879Y-40028D01*
X54867Y-39963D01*
X54861Y-39893D01*
X55101Y-39873D01*
Y-39875D01*
Y-39878D01*
X55104Y-39896D01*
X55110Y-39922D01*
X55116Y-39957D01*
X55128Y-39996D01*
X55139Y-40037D01*
X55157Y-40075D01*
X55177Y-40113D01*
X55180Y-40116D01*
X55189Y-40127D01*
X55204Y-40145D01*
X55227Y-40165D01*
X55254Y-40189D01*
X55286Y-40215D01*
X55327Y-40239D01*
X55371Y-40262D01*
X55374D01*
X55377Y-40265D01*
X55394Y-40271D01*
X55421Y-40280D01*
X55459Y-40288D01*
X55500Y-40300D01*
X55552Y-40309D01*
X55608Y-40315D01*
X55667Y-40318D01*
X55690D01*
X55719Y-40315D01*
X55751Y-40312D01*
X55792Y-40309D01*
X55833Y-40300D01*
X55877Y-40291D01*
X55921Y-40277D01*
X55927Y-40274D01*
X55939Y-40268D01*
X55959Y-40259D01*
X55983Y-40244D01*
X56012Y-40227D01*
X56038Y-40206D01*
X56065Y-40183D01*
X56088Y-40157D01*
X56091Y-40154D01*
X56097Y-40142D01*
X56106Y-40127D01*
X56118Y-40107D01*
X56126Y-40083D01*
X56135Y-40054D01*
X56141Y-40025D01*
X56144Y-39993D01*
Y-39990D01*
Y-39978D01*
X56141Y-39960D01*
X56138Y-39940D01*
X56132Y-39914D01*
X56120Y-39887D01*
X56109Y-39861D01*
X56091Y-39834D01*
X56088Y-39832D01*
X56082Y-39823D01*
X56068Y-39811D01*
X56050Y-39793D01*
X56027Y-39776D01*
X55997Y-39758D01*
X55959Y-39738D01*
X55918Y-39720D01*
X55915Y-39717D01*
X55904Y-39714D01*
X55880Y-39709D01*
X55866Y-39703D01*
X55848Y-39697D01*
X55825Y-39691D01*
X55801Y-39685D01*
X55772Y-39676D01*
X55743Y-39668D01*
X55708Y-39659D01*
X55667Y-39650D01*
X55623Y-39638D01*
X55576Y-39627D01*
X55573D01*
X55564Y-39624D01*
X55549Y-39621D01*
X55532Y-39615D01*
X55511Y-39609D01*
X55488Y-39603D01*
X55432Y-39588D01*
X55371Y-39568D01*
X55309Y-39547D01*
X55254Y-39527D01*
X55227Y-39518D01*
X55207Y-39506D01*
X55204D01*
X55201Y-39504D01*
X55183Y-39492D01*
X55160Y-39477D01*
X55131Y-39457D01*
X55095Y-39430D01*
X55063Y-39401D01*
X55031Y-39366D01*
X55002Y-39328D01*
X54999Y-39322D01*
X54990Y-39307D01*
X54981Y-39287D01*
X54970Y-39258D01*
X54955Y-39222D01*
X54946Y-39181D01*
X54937Y-39135D01*
X54934Y-39088D01*
Y-39085D01*
Y-39082D01*
Y-39073D01*
Y-39061D01*
X54940Y-39035D01*
X54946Y-39000D01*
X54955Y-38956D01*
X54970Y-38912D01*
X54990Y-38862D01*
X55016Y-38815D01*
Y-38812D01*
X55019Y-38809D01*
X55031Y-38795D01*
X55052Y-38771D01*
X55078Y-38742D01*
X55110Y-38713D01*
X55151Y-38681D01*
X55201Y-38648D01*
X55257Y-38622D01*
X55259D01*
X55262Y-38619D01*
X55271Y-38616D01*
X55286Y-38610D01*
X55300Y-38607D01*
X55318Y-38602D01*
X55359Y-38587D01*
X55412Y-38575D01*
X55470Y-38566D01*
X55538Y-38558D01*
X55608Y-38555D01*
X55643D01*
X55664Y-38558D01*
D02*
G37*
G36*
X52167D02*
X52190D01*
X52240Y-38563D01*
X52296Y-38572D01*
X52360Y-38584D01*
X52425Y-38602D01*
X52489Y-38625D01*
X52492D01*
X52498Y-38628D01*
X52507Y-38631D01*
X52518Y-38637D01*
X52548Y-38651D01*
X52586Y-38675D01*
X52630Y-38701D01*
X52674Y-38733D01*
X52717Y-38768D01*
X52756Y-38812D01*
X52758Y-38818D01*
X52770Y-38833D01*
X52788Y-38859D01*
X52811Y-38897D01*
X52835Y-38941D01*
X52858Y-38994D01*
X52881Y-39055D01*
X52902Y-39126D01*
X52671Y-39190D01*
Y-39187D01*
X52668Y-39184D01*
X52665Y-39167D01*
X52653Y-39140D01*
X52641Y-39105D01*
X52627Y-39070D01*
X52609Y-39032D01*
X52589Y-38994D01*
X52565Y-38959D01*
X52562Y-38956D01*
X52553Y-38944D01*
X52539Y-38930D01*
X52518Y-38909D01*
X52492Y-38889D01*
X52460Y-38865D01*
X52425Y-38845D01*
X52381Y-38824D01*
X52375Y-38821D01*
X52360Y-38815D01*
X52334Y-38807D01*
X52302Y-38798D01*
X52263Y-38789D01*
X52220Y-38780D01*
X52170Y-38774D01*
X52117Y-38771D01*
X52088D01*
X52056Y-38774D01*
X52015Y-38777D01*
X51968Y-38786D01*
X51915Y-38795D01*
X51865Y-38809D01*
X51815Y-38827D01*
X51810Y-38830D01*
X51795Y-38836D01*
X51771Y-38848D01*
X51742Y-38865D01*
X51710Y-38886D01*
X51675Y-38909D01*
X51643Y-38935D01*
X51610Y-38968D01*
X51607Y-38971D01*
X51599Y-38982D01*
X51584Y-39000D01*
X51566Y-39023D01*
X51546Y-39053D01*
X51525Y-39085D01*
X51508Y-39120D01*
X51490Y-39158D01*
Y-39161D01*
X51487Y-39167D01*
X51484Y-39176D01*
X51479Y-39190D01*
X51473Y-39205D01*
X51467Y-39225D01*
X51455Y-39272D01*
X51441Y-39331D01*
X51429Y-39395D01*
X51420Y-39468D01*
X51417Y-39545D01*
Y-39547D01*
Y-39556D01*
Y-39568D01*
X51420Y-39588D01*
Y-39609D01*
X51423Y-39635D01*
X51426Y-39665D01*
X51429Y-39694D01*
X51438Y-39764D01*
X51455Y-39837D01*
X51476Y-39908D01*
X51505Y-39978D01*
Y-39981D01*
X51508Y-39987D01*
X51514Y-39996D01*
X51523Y-40007D01*
X51543Y-40037D01*
X51569Y-40075D01*
X51605Y-40116D01*
X51648Y-40160D01*
X51701Y-40201D01*
X51760Y-40236D01*
X51763D01*
X51769Y-40239D01*
X51777Y-40244D01*
X51789Y-40247D01*
X51804Y-40253D01*
X51824Y-40262D01*
X51868Y-40277D01*
X51924Y-40291D01*
X51982Y-40306D01*
X52050Y-40315D01*
X52120Y-40318D01*
X52149D01*
X52181Y-40315D01*
X52222Y-40309D01*
X52269Y-40303D01*
X52325Y-40291D01*
X52384Y-40277D01*
X52442Y-40256D01*
X52445D01*
X52448Y-40253D01*
X52457Y-40250D01*
X52468Y-40244D01*
X52498Y-40233D01*
X52533Y-40215D01*
X52571Y-40195D01*
X52609Y-40171D01*
X52647Y-40145D01*
X52682Y-40119D01*
Y-39755D01*
X52117D01*
Y-39530D01*
X52931D01*
Y-40244D01*
X52928Y-40247D01*
X52922Y-40250D01*
X52914Y-40259D01*
X52899Y-40268D01*
X52881Y-40283D01*
X52861Y-40294D01*
X52811Y-40329D01*
X52753Y-40365D01*
X52688Y-40403D01*
X52615Y-40438D01*
X52542Y-40470D01*
X52539D01*
X52533Y-40473D01*
X52521Y-40476D01*
X52507Y-40482D01*
X52489Y-40488D01*
X52468Y-40493D01*
X52442Y-40499D01*
X52416Y-40505D01*
X52354Y-40520D01*
X52287Y-40531D01*
X52211Y-40540D01*
X52135Y-40543D01*
X52108D01*
X52088Y-40540D01*
X52061D01*
X52032Y-40537D01*
X52000Y-40534D01*
X51965Y-40529D01*
X51883Y-40514D01*
X51798Y-40493D01*
X51707Y-40464D01*
X51619Y-40423D01*
X51616Y-40420D01*
X51610Y-40417D01*
X51596Y-40411D01*
X51581Y-40400D01*
X51561Y-40388D01*
X51540Y-40373D01*
X51490Y-40335D01*
X51432Y-40285D01*
X51376Y-40224D01*
X51320Y-40154D01*
X51271Y-40075D01*
Y-40072D01*
X51265Y-40063D01*
X51259Y-40051D01*
X51253Y-40034D01*
X51244Y-40013D01*
X51233Y-39987D01*
X51224Y-39957D01*
X51212Y-39922D01*
X51200Y-39887D01*
X51192Y-39846D01*
X51171Y-39758D01*
X51159Y-39662D01*
X51154Y-39559D01*
Y-39556D01*
Y-39547D01*
Y-39533D01*
X51156Y-39512D01*
Y-39486D01*
X51159Y-39457D01*
X51162Y-39424D01*
X51168Y-39389D01*
X51183Y-39307D01*
X51203Y-39219D01*
X51233Y-39126D01*
X51271Y-39035D01*
Y-39032D01*
X51277Y-39023D01*
X51282Y-39012D01*
X51291Y-38994D01*
X51306Y-38973D01*
X51320Y-38953D01*
X51356Y-38897D01*
X51405Y-38839D01*
X51461Y-38780D01*
X51531Y-38725D01*
X51566Y-38698D01*
X51607Y-38675D01*
X51610D01*
X51616Y-38669D01*
X51631Y-38663D01*
X51646Y-38657D01*
X51666Y-38645D01*
X51692Y-38637D01*
X51722Y-38625D01*
X51754Y-38613D01*
X51789Y-38604D01*
X51827Y-38593D01*
X51915Y-38572D01*
X52009Y-38561D01*
X52114Y-38555D01*
X52149D01*
X52167Y-38558D01*
D02*
G37*
G36*
X54683Y-38812D02*
X54050D01*
Y-40511D01*
X53795D01*
Y-38812D01*
X53163D01*
Y-38587D01*
X54683D01*
Y-38812D01*
D02*
G37*
G36*
X50776Y-40511D02*
X50506D01*
Y-40242D01*
X50776D01*
Y-40511D01*
D02*
G37*
G36*
X15047Y-38558D02*
X15067D01*
X15117Y-38563D01*
X15175Y-38572D01*
X15240Y-38584D01*
X15304Y-38602D01*
X15366Y-38625D01*
X15369D01*
X15372Y-38628D01*
X15380Y-38631D01*
X15392Y-38637D01*
X15421Y-38654D01*
X15460Y-38675D01*
X15501Y-38704D01*
X15542Y-38739D01*
X15583Y-38780D01*
X15618Y-38827D01*
X15621Y-38833D01*
X15632Y-38850D01*
X15647Y-38880D01*
X15662Y-38915D01*
X15679Y-38959D01*
X15697Y-39012D01*
X15708Y-39067D01*
X15714Y-39129D01*
X15471Y-39146D01*
Y-39143D01*
Y-39137D01*
X15468Y-39129D01*
X15465Y-39117D01*
X15460Y-39085D01*
X15448Y-39044D01*
X15430Y-39000D01*
X15407Y-38956D01*
X15375Y-38912D01*
X15337Y-38874D01*
X15331Y-38871D01*
X15316Y-38859D01*
X15290Y-38845D01*
X15255Y-38827D01*
X15208Y-38809D01*
X15149Y-38795D01*
X15082Y-38783D01*
X15003Y-38780D01*
X14965D01*
X14947Y-38783D01*
X14924D01*
X14874Y-38792D01*
X14818Y-38801D01*
X14762Y-38815D01*
X14710Y-38836D01*
X14686Y-38850D01*
X14666Y-38865D01*
X14663Y-38868D01*
X14651Y-38880D01*
X14634Y-38897D01*
X14616Y-38924D01*
X14596Y-38953D01*
X14581Y-38988D01*
X14569Y-39026D01*
X14563Y-39070D01*
Y-39076D01*
Y-39088D01*
X14566Y-39108D01*
X14572Y-39132D01*
X14581Y-39158D01*
X14596Y-39187D01*
X14613Y-39214D01*
X14637Y-39240D01*
X14639Y-39243D01*
X14654Y-39252D01*
X14663Y-39258D01*
X14675Y-39266D01*
X14692Y-39272D01*
X14713Y-39281D01*
X14736Y-39293D01*
X14762Y-39304D01*
X14792Y-39313D01*
X14827Y-39325D01*
X14868Y-39340D01*
X14912Y-39351D01*
X14962Y-39363D01*
X15017Y-39378D01*
X15020D01*
X15032Y-39381D01*
X15047Y-39383D01*
X15067Y-39389D01*
X15093Y-39395D01*
X15123Y-39404D01*
X15187Y-39419D01*
X15257Y-39439D01*
X15328Y-39460D01*
X15363Y-39468D01*
X15392Y-39480D01*
X15421Y-39492D01*
X15445Y-39501D01*
X15448D01*
X15454Y-39504D01*
X15460Y-39509D01*
X15471Y-39515D01*
X15501Y-39533D01*
X15539Y-39553D01*
X15580Y-39583D01*
X15621Y-39618D01*
X15659Y-39656D01*
X15691Y-39697D01*
X15694Y-39703D01*
X15703Y-39717D01*
X15717Y-39741D01*
X15732Y-39776D01*
X15747Y-39814D01*
X15761Y-39861D01*
X15770Y-39914D01*
X15773Y-39969D01*
Y-39972D01*
Y-39975D01*
Y-39984D01*
Y-39996D01*
X15767Y-40025D01*
X15761Y-40063D01*
X15752Y-40107D01*
X15735Y-40157D01*
X15714Y-40209D01*
X15685Y-40259D01*
X15682Y-40265D01*
X15667Y-40283D01*
X15650Y-40306D01*
X15621Y-40335D01*
X15585Y-40370D01*
X15542Y-40406D01*
X15489Y-40438D01*
X15430Y-40470D01*
X15427D01*
X15421Y-40473D01*
X15413Y-40476D01*
X15401Y-40482D01*
X15386Y-40488D01*
X15369Y-40493D01*
X15322Y-40505D01*
X15269Y-40520D01*
X15205Y-40531D01*
X15137Y-40540D01*
X15061Y-40543D01*
X15017D01*
X14997Y-40540D01*
X14970D01*
X14941Y-40537D01*
X14909Y-40534D01*
X14842Y-40526D01*
X14768Y-40511D01*
X14695Y-40493D01*
X14625Y-40470D01*
X14622D01*
X14616Y-40467D01*
X14607Y-40461D01*
X14596Y-40455D01*
X14563Y-40438D01*
X14525Y-40411D01*
X14478Y-40379D01*
X14434Y-40341D01*
X14388Y-40294D01*
X14347Y-40242D01*
Y-40239D01*
X14344Y-40236D01*
X14338Y-40227D01*
X14332Y-40215D01*
X14323Y-40201D01*
X14314Y-40183D01*
X14297Y-40139D01*
X14279Y-40089D01*
X14262Y-40028D01*
X14250Y-39963D01*
X14244Y-39893D01*
X14484Y-39873D01*
Y-39875D01*
Y-39878D01*
X14487Y-39896D01*
X14493Y-39922D01*
X14499Y-39957D01*
X14511Y-39996D01*
X14522Y-40037D01*
X14540Y-40075D01*
X14560Y-40113D01*
X14563Y-40116D01*
X14572Y-40127D01*
X14587Y-40145D01*
X14610Y-40165D01*
X14637Y-40189D01*
X14669Y-40215D01*
X14710Y-40239D01*
X14754Y-40262D01*
X14757D01*
X14760Y-40265D01*
X14777Y-40271D01*
X14804Y-40280D01*
X14842Y-40288D01*
X14883Y-40300D01*
X14935Y-40309D01*
X14991Y-40315D01*
X15050Y-40318D01*
X15073D01*
X15102Y-40315D01*
X15134Y-40312D01*
X15175Y-40309D01*
X15216Y-40300D01*
X15260Y-40291D01*
X15304Y-40277D01*
X15310Y-40274D01*
X15322Y-40268D01*
X15342Y-40259D01*
X15366Y-40244D01*
X15395Y-40227D01*
X15421Y-40206D01*
X15448Y-40183D01*
X15471Y-40157D01*
X15474Y-40154D01*
X15480Y-40142D01*
X15489Y-40127D01*
X15501Y-40107D01*
X15509Y-40083D01*
X15518Y-40054D01*
X15524Y-40025D01*
X15527Y-39993D01*
Y-39990D01*
Y-39978D01*
X15524Y-39960D01*
X15521Y-39940D01*
X15515Y-39914D01*
X15503Y-39887D01*
X15492Y-39861D01*
X15474Y-39834D01*
X15471Y-39832D01*
X15465Y-39823D01*
X15451Y-39811D01*
X15433Y-39793D01*
X15410Y-39776D01*
X15380Y-39758D01*
X15342Y-39738D01*
X15301Y-39720D01*
X15298Y-39717D01*
X15287Y-39714D01*
X15263Y-39709D01*
X15249Y-39703D01*
X15231Y-39697D01*
X15208Y-39691D01*
X15184Y-39685D01*
X15155Y-39676D01*
X15126Y-39668D01*
X15090Y-39659D01*
X15050Y-39650D01*
X15006Y-39638D01*
X14959Y-39627D01*
X14956D01*
X14947Y-39624D01*
X14932Y-39621D01*
X14915Y-39615D01*
X14894Y-39609D01*
X14871Y-39603D01*
X14815Y-39588D01*
X14754Y-39568D01*
X14692Y-39547D01*
X14637Y-39527D01*
X14610Y-39518D01*
X14590Y-39506D01*
X14587D01*
X14584Y-39504D01*
X14566Y-39492D01*
X14543Y-39477D01*
X14514Y-39457D01*
X14478Y-39430D01*
X14446Y-39401D01*
X14414Y-39366D01*
X14385Y-39328D01*
X14382Y-39322D01*
X14373Y-39307D01*
X14364Y-39287D01*
X14352Y-39258D01*
X14338Y-39222D01*
X14329Y-39181D01*
X14320Y-39135D01*
X14317Y-39088D01*
Y-39085D01*
Y-39082D01*
Y-39073D01*
Y-39061D01*
X14323Y-39035D01*
X14329Y-39000D01*
X14338Y-38956D01*
X14352Y-38912D01*
X14373Y-38862D01*
X14399Y-38815D01*
Y-38812D01*
X14402Y-38809D01*
X14414Y-38795D01*
X14434Y-38771D01*
X14461Y-38742D01*
X14493Y-38713D01*
X14534Y-38681D01*
X14584Y-38648D01*
X14639Y-38622D01*
X14642D01*
X14645Y-38619D01*
X14654Y-38616D01*
X14669Y-38610D01*
X14683Y-38607D01*
X14701Y-38602D01*
X14742Y-38587D01*
X14795Y-38575D01*
X14853Y-38566D01*
X14921Y-38558D01*
X14991Y-38555D01*
X15026D01*
X15047Y-38558D01*
D02*
G37*
G36*
X19302Y-40511D02*
X19082D01*
Y-40338D01*
X19079Y-40341D01*
X19076Y-40347D01*
X19068Y-40356D01*
X19056Y-40370D01*
X19044Y-40385D01*
X19027Y-40403D01*
X19006Y-40420D01*
X18983Y-40441D01*
X18956Y-40458D01*
X18927Y-40479D01*
X18895Y-40496D01*
X18863Y-40511D01*
X18824Y-40526D01*
X18783Y-40534D01*
X18740Y-40540D01*
X18693Y-40543D01*
X18675D01*
X18663Y-40540D01*
X18631Y-40537D01*
X18593Y-40531D01*
X18543Y-40520D01*
X18494Y-40505D01*
X18438Y-40482D01*
X18385Y-40452D01*
X18382D01*
X18379Y-40449D01*
X18362Y-40435D01*
X18338Y-40414D01*
X18306Y-40385D01*
X18274Y-40350D01*
X18236Y-40306D01*
X18204Y-40256D01*
X18171Y-40198D01*
Y-40195D01*
X18168Y-40189D01*
X18166Y-40180D01*
X18160Y-40168D01*
X18154Y-40154D01*
X18148Y-40133D01*
X18133Y-40086D01*
X18119Y-40031D01*
X18107Y-39966D01*
X18098Y-39896D01*
X18095Y-39817D01*
Y-39814D01*
Y-39808D01*
Y-39796D01*
Y-39782D01*
X18098Y-39764D01*
Y-39741D01*
X18104Y-39691D01*
X18113Y-39632D01*
X18125Y-39571D01*
X18139Y-39504D01*
X18163Y-39439D01*
Y-39436D01*
X18166Y-39430D01*
X18171Y-39422D01*
X18177Y-39410D01*
X18192Y-39381D01*
X18215Y-39342D01*
X18245Y-39299D01*
X18280Y-39255D01*
X18321Y-39214D01*
X18371Y-39176D01*
X18373D01*
X18376Y-39173D01*
X18394Y-39161D01*
X18423Y-39146D01*
X18461Y-39129D01*
X18508Y-39114D01*
X18561Y-39099D01*
X18619Y-39088D01*
X18681Y-39085D01*
X18701D01*
X18725Y-39088D01*
X18757Y-39091D01*
X18789Y-39099D01*
X18827Y-39108D01*
X18865Y-39123D01*
X18904Y-39140D01*
X18909Y-39143D01*
X18921Y-39149D01*
X18939Y-39161D01*
X18962Y-39178D01*
X18986Y-39196D01*
X19015Y-39219D01*
X19041Y-39249D01*
X19065Y-39278D01*
Y-38587D01*
X19302D01*
Y-40511D01*
D02*
G37*
G36*
X12739Y-39091D02*
X12780Y-39096D01*
X12830Y-39108D01*
X12882Y-39123D01*
X12935Y-39146D01*
X12988Y-39178D01*
X12991D01*
X12994Y-39181D01*
X13011Y-39196D01*
X13035Y-39217D01*
X13067Y-39246D01*
X13099Y-39281D01*
X13134Y-39328D01*
X13166Y-39378D01*
X13196Y-39439D01*
Y-39442D01*
X13199Y-39448D01*
X13202Y-39457D01*
X13207Y-39468D01*
X13213Y-39483D01*
X13219Y-39504D01*
X13231Y-39547D01*
X13243Y-39603D01*
X13254Y-39665D01*
X13263Y-39732D01*
X13266Y-39805D01*
Y-39808D01*
Y-39814D01*
Y-39826D01*
Y-39840D01*
X13263Y-39861D01*
Y-39881D01*
X13257Y-39934D01*
X13245Y-39993D01*
X13234Y-40057D01*
X13213Y-40124D01*
X13187Y-40192D01*
Y-40195D01*
X13184Y-40201D01*
X13178Y-40209D01*
X13172Y-40221D01*
X13155Y-40250D01*
X13131Y-40288D01*
X13099Y-40329D01*
X13061Y-40373D01*
X13017Y-40414D01*
X12964Y-40452D01*
X12961D01*
X12958Y-40455D01*
X12950Y-40461D01*
X12938Y-40467D01*
X12909Y-40482D01*
X12871Y-40496D01*
X12824Y-40514D01*
X12774Y-40529D01*
X12715Y-40540D01*
X12657Y-40543D01*
X12636D01*
X12616Y-40540D01*
X12587Y-40537D01*
X12554Y-40531D01*
X12519Y-40523D01*
X12481Y-40511D01*
X12446Y-40496D01*
X12443Y-40493D01*
X12431Y-40488D01*
X12414Y-40476D01*
X12393Y-40461D01*
X12367Y-40444D01*
X12343Y-40423D01*
X12317Y-40397D01*
X12294Y-40370D01*
Y-41044D01*
X12056D01*
Y-39117D01*
X12273D01*
Y-39299D01*
X12276Y-39293D01*
X12285Y-39281D01*
X12302Y-39263D01*
X12323Y-39240D01*
X12346Y-39214D01*
X12376Y-39187D01*
X12408Y-39161D01*
X12443Y-39140D01*
X12449Y-39137D01*
X12461Y-39132D01*
X12481Y-39123D01*
X12507Y-39111D01*
X12543Y-39102D01*
X12581Y-39094D01*
X12625Y-39088D01*
X12674Y-39085D01*
X12704D01*
X12739Y-39091D01*
D02*
G37*
G36*
X21724Y-39088D02*
X21756Y-39094D01*
X21791Y-39105D01*
X21832Y-39117D01*
X21876Y-39137D01*
X21923Y-39164D01*
X21838Y-39381D01*
X21835Y-39378D01*
X21823Y-39372D01*
X21806Y-39363D01*
X21785Y-39354D01*
X21759Y-39345D01*
X21730Y-39337D01*
X21697Y-39331D01*
X21665Y-39328D01*
X21654D01*
X21639Y-39331D01*
X21618Y-39334D01*
X21598Y-39340D01*
X21574Y-39348D01*
X21551Y-39360D01*
X21528Y-39375D01*
X21525Y-39378D01*
X21519Y-39383D01*
X21507Y-39395D01*
X21495Y-39410D01*
X21481Y-39427D01*
X21466Y-39451D01*
X21454Y-39477D01*
X21443Y-39506D01*
X21440Y-39512D01*
X21437Y-39527D01*
X21431Y-39553D01*
X21425Y-39588D01*
X21416Y-39629D01*
X21410Y-39676D01*
X21408Y-39726D01*
X21405Y-39782D01*
Y-40511D01*
X21167D01*
Y-39117D01*
X21381D01*
Y-39325D01*
X21384Y-39322D01*
X21396Y-39304D01*
X21410Y-39278D01*
X21428Y-39249D01*
X21451Y-39217D01*
X21478Y-39184D01*
X21501Y-39155D01*
X21528Y-39135D01*
X21531Y-39132D01*
X21539Y-39126D01*
X21554Y-39120D01*
X21574Y-39108D01*
X21595Y-39099D01*
X21621Y-39094D01*
X21651Y-39088D01*
X21680Y-39085D01*
X21700D01*
X21724Y-39088D01*
D02*
G37*
G36*
X17817Y-40511D02*
X17580D01*
Y-38587D01*
X17817D01*
Y-40511D01*
D02*
G37*
G36*
X10331Y-38812D02*
X9699D01*
Y-40511D01*
X9444D01*
Y-38812D01*
X8812D01*
Y-38587D01*
X10331D01*
Y-38812D01*
D02*
G37*
G36*
X20292Y-39088D02*
X20315Y-39091D01*
X20344Y-39094D01*
X20374Y-39099D01*
X20409Y-39108D01*
X20479Y-39132D01*
X20517Y-39146D01*
X20555Y-39167D01*
X20593Y-39187D01*
X20631Y-39214D01*
X20667Y-39243D01*
X20702Y-39278D01*
X20705Y-39281D01*
X20711Y-39287D01*
X20719Y-39299D01*
X20731Y-39313D01*
X20743Y-39334D01*
X20757Y-39357D01*
X20775Y-39383D01*
X20793Y-39416D01*
X20807Y-39454D01*
X20825Y-39492D01*
X20839Y-39536D01*
X20854Y-39586D01*
X20863Y-39635D01*
X20872Y-39691D01*
X20877Y-39750D01*
X20880Y-39814D01*
Y-39817D01*
Y-39829D01*
Y-39849D01*
X20877Y-39875D01*
X19841D01*
Y-39878D01*
Y-39884D01*
X19844Y-39899D01*
Y-39914D01*
X19847Y-39934D01*
X19850Y-39955D01*
X19861Y-40007D01*
X19879Y-40063D01*
X19899Y-40121D01*
X19932Y-40180D01*
X19970Y-40230D01*
X19975Y-40236D01*
X19990Y-40247D01*
X20016Y-40268D01*
X20049Y-40288D01*
X20093Y-40312D01*
X20142Y-40332D01*
X20198Y-40344D01*
X20260Y-40350D01*
X20283D01*
X20306Y-40347D01*
X20336Y-40341D01*
X20371Y-40332D01*
X20409Y-40321D01*
X20447Y-40306D01*
X20482Y-40283D01*
X20485Y-40280D01*
X20497Y-40268D01*
X20514Y-40253D01*
X20535Y-40227D01*
X20558Y-40198D01*
X20582Y-40160D01*
X20605Y-40113D01*
X20629Y-40060D01*
X20872Y-40092D01*
Y-40095D01*
X20869Y-40101D01*
X20866Y-40113D01*
X20860Y-40127D01*
X20854Y-40145D01*
X20845Y-40165D01*
X20822Y-40215D01*
X20793Y-40268D01*
X20757Y-40324D01*
X20711Y-40379D01*
X20658Y-40426D01*
X20655D01*
X20652Y-40432D01*
X20643Y-40438D01*
X20629Y-40444D01*
X20614Y-40452D01*
X20596Y-40464D01*
X20576Y-40473D01*
X20549Y-40485D01*
X20494Y-40505D01*
X20424Y-40526D01*
X20347Y-40537D01*
X20260Y-40543D01*
X20230D01*
X20210Y-40540D01*
X20183Y-40537D01*
X20154Y-40534D01*
X20122Y-40529D01*
X20084Y-40520D01*
X20008Y-40496D01*
X19967Y-40482D01*
X19929Y-40464D01*
X19888Y-40444D01*
X19850Y-40417D01*
X19811Y-40388D01*
X19776Y-40356D01*
X19773Y-40353D01*
X19768Y-40347D01*
X19759Y-40335D01*
X19750Y-40321D01*
X19735Y-40303D01*
X19721Y-40280D01*
X19703Y-40250D01*
X19688Y-40218D01*
X19671Y-40183D01*
X19653Y-40145D01*
X19639Y-40101D01*
X19627Y-40054D01*
X19615Y-40004D01*
X19606Y-39949D01*
X19601Y-39890D01*
X19598Y-39829D01*
Y-39826D01*
Y-39814D01*
Y-39793D01*
X19601Y-39770D01*
X19604Y-39741D01*
X19606Y-39706D01*
X19612Y-39668D01*
X19621Y-39627D01*
X19642Y-39539D01*
X19656Y-39495D01*
X19674Y-39448D01*
X19694Y-39404D01*
X19718Y-39360D01*
X19744Y-39319D01*
X19776Y-39281D01*
X19779Y-39278D01*
X19785Y-39272D01*
X19794Y-39263D01*
X19809Y-39249D01*
X19826Y-39234D01*
X19850Y-39219D01*
X19873Y-39202D01*
X19902Y-39181D01*
X19934Y-39164D01*
X19970Y-39146D01*
X20008Y-39132D01*
X20052Y-39114D01*
X20096Y-39102D01*
X20142Y-39094D01*
X20192Y-39088D01*
X20245Y-39085D01*
X20271D01*
X20292Y-39088D01*
D02*
G37*
G36*
X16701D02*
X16728Y-39091D01*
X16754Y-39094D01*
X16786Y-39099D01*
X16821Y-39108D01*
X16895Y-39132D01*
X16933Y-39146D01*
X16974Y-39164D01*
X17012Y-39187D01*
X17050Y-39214D01*
X17088Y-39243D01*
X17123Y-39275D01*
X17126Y-39278D01*
X17132Y-39284D01*
X17141Y-39296D01*
X17152Y-39310D01*
X17167Y-39328D01*
X17182Y-39351D01*
X17199Y-39381D01*
X17217Y-39410D01*
X17231Y-39445D01*
X17249Y-39486D01*
X17264Y-39527D01*
X17278Y-39574D01*
X17290Y-39624D01*
X17299Y-39679D01*
X17305Y-39735D01*
X17307Y-39796D01*
Y-39799D01*
Y-39808D01*
Y-39823D01*
Y-39840D01*
X17305Y-39864D01*
Y-39890D01*
X17302Y-39919D01*
X17299Y-39952D01*
X17287Y-40019D01*
X17272Y-40089D01*
X17252Y-40160D01*
X17225Y-40221D01*
Y-40224D01*
X17223Y-40227D01*
X17211Y-40247D01*
X17190Y-40274D01*
X17164Y-40309D01*
X17132Y-40347D01*
X17091Y-40385D01*
X17044Y-40423D01*
X16988Y-40458D01*
X16985D01*
X16982Y-40461D01*
X16974Y-40467D01*
X16962Y-40470D01*
X16930Y-40485D01*
X16889Y-40499D01*
X16839Y-40517D01*
X16783Y-40529D01*
X16722Y-40540D01*
X16654Y-40543D01*
X16625D01*
X16605Y-40540D01*
X16581Y-40537D01*
X16552Y-40534D01*
X16520Y-40529D01*
X16485Y-40520D01*
X16411Y-40496D01*
X16370Y-40482D01*
X16332Y-40464D01*
X16291Y-40444D01*
X16253Y-40417D01*
X16215Y-40388D01*
X16180Y-40356D01*
X16177Y-40353D01*
X16171Y-40347D01*
X16162Y-40335D01*
X16154Y-40321D01*
X16139Y-40300D01*
X16124Y-40277D01*
X16107Y-40250D01*
X16092Y-40218D01*
X16075Y-40180D01*
X16057Y-40142D01*
X16042Y-40095D01*
X16031Y-40048D01*
X16019Y-39996D01*
X16010Y-39940D01*
X16004Y-39878D01*
X16001Y-39814D01*
Y-39808D01*
Y-39796D01*
X16004Y-39776D01*
Y-39750D01*
X16007Y-39717D01*
X16013Y-39682D01*
X16019Y-39641D01*
X16028Y-39597D01*
X16039Y-39550D01*
X16054Y-39504D01*
X16072Y-39457D01*
X16092Y-39410D01*
X16116Y-39363D01*
X16145Y-39319D01*
X16177Y-39278D01*
X16215Y-39240D01*
X16218Y-39237D01*
X16224Y-39234D01*
X16233Y-39225D01*
X16247Y-39217D01*
X16265Y-39205D01*
X16285Y-39190D01*
X16309Y-39176D01*
X16338Y-39161D01*
X16367Y-39149D01*
X16400Y-39135D01*
X16476Y-39108D01*
X16561Y-39091D01*
X16608Y-39088D01*
X16654Y-39085D01*
X16681D01*
X16701Y-39088D01*
D02*
G37*
G36*
X11175D02*
X11201Y-39091D01*
X11228Y-39094D01*
X11260Y-39099D01*
X11295Y-39108D01*
X11368Y-39132D01*
X11406Y-39146D01*
X11447Y-39164D01*
X11485Y-39187D01*
X11523Y-39214D01*
X11562Y-39243D01*
X11597Y-39275D01*
X11600Y-39278D01*
X11605Y-39284D01*
X11614Y-39296D01*
X11626Y-39310D01*
X11641Y-39328D01*
X11655Y-39351D01*
X11673Y-39381D01*
X11690Y-39410D01*
X11705Y-39445D01*
X11723Y-39486D01*
X11737Y-39527D01*
X11752Y-39574D01*
X11764Y-39624D01*
X11772Y-39679D01*
X11778Y-39735D01*
X11781Y-39796D01*
Y-39799D01*
Y-39808D01*
Y-39823D01*
Y-39840D01*
X11778Y-39864D01*
Y-39890D01*
X11775Y-39919D01*
X11772Y-39952D01*
X11761Y-40019D01*
X11746Y-40089D01*
X11726Y-40160D01*
X11699Y-40221D01*
Y-40224D01*
X11696Y-40227D01*
X11685Y-40247D01*
X11664Y-40274D01*
X11638Y-40309D01*
X11605Y-40347D01*
X11564Y-40385D01*
X11518Y-40423D01*
X11462Y-40458D01*
X11459D01*
X11456Y-40461D01*
X11447Y-40467D01*
X11436Y-40470D01*
X11403Y-40485D01*
X11362Y-40499D01*
X11313Y-40517D01*
X11257Y-40529D01*
X11195Y-40540D01*
X11128Y-40543D01*
X11099D01*
X11078Y-40540D01*
X11055Y-40537D01*
X11026Y-40534D01*
X10993Y-40529D01*
X10958Y-40520D01*
X10885Y-40496D01*
X10844Y-40482D01*
X10806Y-40464D01*
X10765Y-40444D01*
X10727Y-40417D01*
X10689Y-40388D01*
X10654Y-40356D01*
X10651Y-40353D01*
X10645Y-40347D01*
X10636Y-40335D01*
X10627Y-40321D01*
X10613Y-40300D01*
X10598Y-40277D01*
X10580Y-40250D01*
X10566Y-40218D01*
X10548Y-40180D01*
X10531Y-40142D01*
X10516Y-40095D01*
X10504Y-40048D01*
X10493Y-39996D01*
X10484Y-39940D01*
X10478Y-39878D01*
X10475Y-39814D01*
Y-39808D01*
Y-39796D01*
X10478Y-39776D01*
Y-39750D01*
X10481Y-39717D01*
X10487Y-39682D01*
X10493Y-39641D01*
X10501Y-39597D01*
X10513Y-39550D01*
X10528Y-39504D01*
X10545Y-39457D01*
X10566Y-39410D01*
X10589Y-39363D01*
X10618Y-39319D01*
X10651Y-39278D01*
X10689Y-39240D01*
X10692Y-39237D01*
X10698Y-39234D01*
X10706Y-39225D01*
X10721Y-39217D01*
X10739Y-39205D01*
X10759Y-39190D01*
X10783Y-39176D01*
X10812Y-39161D01*
X10841Y-39149D01*
X10873Y-39135D01*
X10949Y-39108D01*
X11034Y-39091D01*
X11081Y-39088D01*
X11128Y-39085D01*
X11154D01*
X11175Y-39088D01*
D02*
G37*
%LPC*%
G36*
X18734Y-39281D02*
X18690D01*
X18678Y-39284D01*
X18649Y-39287D01*
X18614Y-39296D01*
X18573Y-39313D01*
X18529Y-39337D01*
X18485Y-39366D01*
X18464Y-39386D01*
X18444Y-39410D01*
X18438Y-39416D01*
X18435Y-39424D01*
X18426Y-39433D01*
X18420Y-39448D01*
X18412Y-39465D01*
X18400Y-39486D01*
X18391Y-39509D01*
X18382Y-39536D01*
X18371Y-39565D01*
X18362Y-39600D01*
X18356Y-39635D01*
X18347Y-39676D01*
X18344Y-39720D01*
X18338Y-39767D01*
Y-39817D01*
Y-39820D01*
Y-39829D01*
Y-39843D01*
X18341Y-39861D01*
Y-39884D01*
X18344Y-39908D01*
X18353Y-39969D01*
X18365Y-40034D01*
X18385Y-40101D01*
X18412Y-40162D01*
X18429Y-40192D01*
X18450Y-40218D01*
X18455Y-40224D01*
X18470Y-40239D01*
X18494Y-40259D01*
X18526Y-40283D01*
X18564Y-40309D01*
X18608Y-40329D01*
X18660Y-40344D01*
X18687Y-40347D01*
X18716Y-40350D01*
X18731D01*
X18742Y-40347D01*
X18772Y-40344D01*
X18807Y-40335D01*
X18848Y-40318D01*
X18892Y-40297D01*
X18939Y-40265D01*
X18959Y-40247D01*
X18980Y-40224D01*
Y-40221D01*
X18986Y-40218D01*
X18988Y-40209D01*
X18997Y-40201D01*
X19006Y-40186D01*
X19015Y-40171D01*
X19024Y-40151D01*
X19035Y-40127D01*
X19044Y-40104D01*
X19053Y-40075D01*
X19062Y-40042D01*
X19070Y-40007D01*
X19079Y-39969D01*
X19082Y-39928D01*
X19088Y-39884D01*
Y-39837D01*
Y-39834D01*
Y-39826D01*
Y-39811D01*
X19085Y-39791D01*
Y-39767D01*
X19082Y-39741D01*
X19073Y-39676D01*
X19062Y-39609D01*
X19041Y-39539D01*
X19015Y-39471D01*
X18997Y-39442D01*
X18977Y-39416D01*
Y-39413D01*
X18971Y-39410D01*
X18956Y-39395D01*
X18933Y-39372D01*
X18901Y-39348D01*
X18863Y-39325D01*
X18816Y-39301D01*
X18763Y-39287D01*
X18734Y-39281D01*
D02*
G37*
G36*
X12680Y-39269D02*
X12639D01*
X12628Y-39272D01*
X12601Y-39278D01*
X12563Y-39287D01*
X12522Y-39304D01*
X12478Y-39331D01*
X12455Y-39345D01*
X12431Y-39366D01*
X12408Y-39386D01*
X12387Y-39413D01*
Y-39416D01*
X12382Y-39419D01*
X12376Y-39427D01*
X12370Y-39439D01*
X12361Y-39454D01*
X12352Y-39471D01*
X12341Y-39492D01*
X12332Y-39515D01*
X12320Y-39545D01*
X12308Y-39574D01*
X12300Y-39609D01*
X12291Y-39644D01*
X12285Y-39685D01*
X12279Y-39729D01*
X12273Y-39773D01*
Y-39823D01*
Y-39826D01*
Y-39834D01*
Y-39849D01*
X12276Y-39867D01*
Y-39890D01*
X12279Y-39914D01*
X12288Y-39972D01*
X12300Y-40039D01*
X12317Y-40104D01*
X12343Y-40165D01*
X12361Y-40195D01*
X12379Y-40221D01*
X12384Y-40227D01*
X12399Y-40242D01*
X12423Y-40262D01*
X12452Y-40285D01*
X12490Y-40309D01*
X12537Y-40329D01*
X12587Y-40344D01*
X12613Y-40347D01*
X12642Y-40350D01*
X12657D01*
X12669Y-40347D01*
X12698Y-40344D01*
X12733Y-40332D01*
X12777Y-40318D01*
X12821Y-40294D01*
X12865Y-40262D01*
X12888Y-40242D01*
X12909Y-40218D01*
Y-40215D01*
X12915Y-40212D01*
X12920Y-40203D01*
X12926Y-40192D01*
X12935Y-40177D01*
X12944Y-40160D01*
X12956Y-40139D01*
X12967Y-40116D01*
X12976Y-40089D01*
X12988Y-40057D01*
X12997Y-40025D01*
X13005Y-39987D01*
X13011Y-39946D01*
X13017Y-39902D01*
X13023Y-39855D01*
Y-39805D01*
Y-39802D01*
Y-39793D01*
Y-39779D01*
X13020Y-39761D01*
Y-39738D01*
X13017Y-39711D01*
X13008Y-39653D01*
X12997Y-39588D01*
X12976Y-39521D01*
X12950Y-39460D01*
X12932Y-39430D01*
X12912Y-39404D01*
Y-39401D01*
X12906Y-39398D01*
X12891Y-39383D01*
X12871Y-39360D01*
X12838Y-39337D01*
X12800Y-39313D01*
X12756Y-39290D01*
X12707Y-39275D01*
X12680Y-39269D01*
D02*
G37*
G36*
X20248Y-39278D02*
X20233D01*
X20221Y-39281D01*
X20189Y-39284D01*
X20151Y-39293D01*
X20107Y-39304D01*
X20063Y-39325D01*
X20016Y-39351D01*
X19973Y-39389D01*
X19967Y-39395D01*
X19955Y-39410D01*
X19937Y-39433D01*
X19917Y-39468D01*
X19896Y-39509D01*
X19876Y-39559D01*
X19861Y-39618D01*
X19852Y-39682D01*
X20631D01*
Y-39679D01*
Y-39673D01*
X20629Y-39665D01*
Y-39653D01*
X20623Y-39621D01*
X20614Y-39583D01*
X20602Y-39542D01*
X20585Y-39498D01*
X20567Y-39454D01*
X20541Y-39419D01*
Y-39416D01*
X20535Y-39413D01*
X20520Y-39395D01*
X20494Y-39375D01*
X20462Y-39348D01*
X20418Y-39322D01*
X20368Y-39299D01*
X20312Y-39284D01*
X20280Y-39281D01*
X20248Y-39278D01*
D02*
G37*
G36*
X16687Y-39281D02*
X16637D01*
X16625Y-39284D01*
X16593Y-39287D01*
X16552Y-39299D01*
X16505Y-39313D01*
X16455Y-39337D01*
X16405Y-39372D01*
X16382Y-39392D01*
X16359Y-39416D01*
X16353Y-39422D01*
X16347Y-39430D01*
X16341Y-39439D01*
X16332Y-39454D01*
X16323Y-39471D01*
X16312Y-39492D01*
X16303Y-39515D01*
X16291Y-39542D01*
X16280Y-39571D01*
X16271Y-39603D01*
X16262Y-39641D01*
X16256Y-39679D01*
X16250Y-39723D01*
X16244Y-39767D01*
Y-39817D01*
Y-39820D01*
Y-39829D01*
Y-39843D01*
X16247Y-39861D01*
Y-39881D01*
X16250Y-39908D01*
X16259Y-39966D01*
X16274Y-40031D01*
X16291Y-40098D01*
X16321Y-40162D01*
X16338Y-40192D01*
X16359Y-40218D01*
X16364Y-40224D01*
X16379Y-40239D01*
X16405Y-40259D01*
X16441Y-40283D01*
X16482Y-40309D01*
X16534Y-40329D01*
X16590Y-40344D01*
X16622Y-40347D01*
X16654Y-40350D01*
X16672D01*
X16684Y-40347D01*
X16716Y-40344D01*
X16757Y-40332D01*
X16804Y-40318D01*
X16854Y-40294D01*
X16900Y-40262D01*
X16924Y-40242D01*
X16947Y-40218D01*
Y-40215D01*
X16953Y-40212D01*
X16959Y-40203D01*
X16965Y-40192D01*
X16974Y-40177D01*
X16985Y-40160D01*
X16994Y-40139D01*
X17006Y-40116D01*
X17018Y-40089D01*
X17026Y-40060D01*
X17038Y-40025D01*
X17047Y-39987D01*
X17053Y-39949D01*
X17059Y-39905D01*
X17064Y-39858D01*
Y-39808D01*
Y-39805D01*
Y-39796D01*
Y-39785D01*
X17061Y-39764D01*
Y-39744D01*
X17059Y-39720D01*
X17050Y-39662D01*
X17035Y-39600D01*
X17015Y-39533D01*
X16985Y-39471D01*
X16944Y-39416D01*
Y-39413D01*
X16938Y-39410D01*
X16924Y-39395D01*
X16897Y-39372D01*
X16865Y-39348D01*
X16821Y-39325D01*
X16772Y-39301D01*
X16716Y-39287D01*
X16687Y-39281D01*
D02*
G37*
G36*
X11160D02*
X11111D01*
X11099Y-39284D01*
X11067Y-39287D01*
X11026Y-39299D01*
X10979Y-39313D01*
X10929Y-39337D01*
X10879Y-39372D01*
X10856Y-39392D01*
X10832Y-39416D01*
X10826Y-39422D01*
X10821Y-39430D01*
X10815Y-39439D01*
X10806Y-39454D01*
X10797Y-39471D01*
X10785Y-39492D01*
X10777Y-39515D01*
X10765Y-39542D01*
X10753Y-39571D01*
X10744Y-39603D01*
X10736Y-39641D01*
X10730Y-39679D01*
X10724Y-39723D01*
X10718Y-39767D01*
Y-39817D01*
Y-39820D01*
Y-39829D01*
Y-39843D01*
X10721Y-39861D01*
Y-39881D01*
X10724Y-39908D01*
X10733Y-39966D01*
X10747Y-40031D01*
X10765Y-40098D01*
X10794Y-40162D01*
X10812Y-40192D01*
X10832Y-40218D01*
X10838Y-40224D01*
X10853Y-40239D01*
X10879Y-40259D01*
X10914Y-40283D01*
X10955Y-40309D01*
X11008Y-40329D01*
X11064Y-40344D01*
X11096Y-40347D01*
X11128Y-40350D01*
X11146D01*
X11157Y-40347D01*
X11190Y-40344D01*
X11231Y-40332D01*
X11277Y-40318D01*
X11327Y-40294D01*
X11374Y-40262D01*
X11398Y-40242D01*
X11421Y-40218D01*
Y-40215D01*
X11427Y-40212D01*
X11433Y-40203D01*
X11439Y-40192D01*
X11447Y-40177D01*
X11459Y-40160D01*
X11468Y-40139D01*
X11480Y-40116D01*
X11491Y-40089D01*
X11500Y-40060D01*
X11512Y-40025D01*
X11521Y-39987D01*
X11526Y-39949D01*
X11532Y-39905D01*
X11538Y-39858D01*
Y-39808D01*
Y-39805D01*
Y-39796D01*
Y-39785D01*
X11535Y-39764D01*
Y-39744D01*
X11532Y-39720D01*
X11523Y-39662D01*
X11509Y-39600D01*
X11488Y-39533D01*
X11459Y-39471D01*
X11418Y-39416D01*
Y-39413D01*
X11412Y-39410D01*
X11398Y-39395D01*
X11371Y-39372D01*
X11339Y-39348D01*
X11295Y-39325D01*
X11245Y-39301D01*
X11190Y-39287D01*
X11160Y-39281D01*
D02*
G37*
%LPD*%
D12*
X296Y-17511D02*
X64868D01*
X64868Y17489D02*
X64868Y-17511D01*
X296Y17489D02*
X64868D01*
X61632D02*
X61645Y17477D01*
X296Y17489D02*
X296Y-17511D01*
D16*
X16478Y11575D02*
G03*
X14628Y9725I0J-1850D01*
G01*
X55228D02*
G03*
X53378Y11575I-1850J0D01*
G01*
Y-9625D02*
G03*
X55228Y-7775I0J1850D01*
G01*
X14628D02*
G03*
X16478Y-9625I1850J0D01*
G01*
X55203Y1326D02*
Y9519D01*
X16478Y11575D02*
X53378D01*
X14628Y-7775D02*
Y9725D01*
X55225Y-7823D02*
Y-1746D01*
X16478Y-9625D02*
X53378D01*
D17*
X26866Y7754D02*
D03*
Y8654D02*
D03*
D18*
X33422Y76D02*
D03*
D19*
X34405D02*
D03*
X35670Y-3200D02*
D03*
X36830D02*
D03*
X39720Y801D02*
D03*
X40880D02*
D03*
X43127Y-164D02*
D03*
X44287D02*
D03*
X52426Y-283D02*
D03*
X53586D02*
D03*
X35771Y-2040D02*
D03*
X36931D02*
D03*
X39720Y-164D02*
D03*
X40880D02*
D03*
X45451D02*
D03*
X46611D02*
D03*
X35485Y-163D02*
D03*
X36645D02*
D03*
X57777Y-283D02*
D03*
X58937D02*
D03*
D20*
X34405Y-907D02*
D03*
D21*
X32746Y6528D02*
D03*
X31762D02*
D03*
D22*
Y7511D02*
D03*
D23*
X28286Y4419D02*
D03*
X28766D02*
D03*
X32098Y3095D02*
D03*
X32578D02*
D03*
D24*
X29885Y2280D02*
D03*
X29885Y3180D02*
D03*
X28559Y2384D02*
D03*
X28559Y3284D02*
D03*
X21550Y-1550D02*
D03*
X21550Y-650D02*
D03*
X21550Y-3550D02*
D03*
X21550Y-2650D02*
D03*
X26104Y-4552D02*
D03*
X26104Y-5452D02*
D03*
X35581Y2272D02*
D03*
X35581Y3172D02*
D03*
X34204Y2272D02*
D03*
X34204Y3172D02*
D03*
X50056Y3594D02*
D03*
Y4494D02*
D03*
X28157Y5660D02*
D03*
X28157Y6560D02*
D03*
X52618Y-5078D02*
D03*
Y-4178D02*
D03*
D25*
X49998Y2369D02*
D03*
X49097Y2369D02*
D03*
X50224Y-3826D02*
D03*
X51124Y-3826D02*
D03*
X32789Y8726D02*
D03*
X33689Y8726D02*
D03*
X32000Y4061D02*
D03*
X32900Y4061D02*
D03*
X25500Y-550D02*
D03*
X26400Y-550D02*
D03*
X25200Y650D02*
D03*
X26100Y650D02*
D03*
X34000Y-6407D02*
D03*
X33100Y-6407D02*
D03*
X50225Y-2576D02*
D03*
X51125Y-2576D02*
D03*
X50198Y1044D02*
D03*
X49297Y1044D02*
D03*
X22481Y-2700D02*
D03*
X23381Y-2700D02*
D03*
X49150Y5794D02*
D03*
X50050Y5794D02*
D03*
X37372Y-7578D02*
D03*
X38272Y-7578D02*
D03*
X50467Y-5152D02*
D03*
X51367Y-5152D02*
D03*
X50467Y-6551D02*
D03*
X51367Y-6551D02*
D03*
X22481Y-1500D02*
D03*
X23381Y-1500D02*
D03*
X50467Y-7952D02*
D03*
X51367Y-7952D02*
D03*
X49150Y7195D02*
D03*
X50050Y7195D02*
D03*
D26*
X39849Y-3202D02*
D03*
Y-2042D02*
D03*
X38659Y-1323D02*
D03*
Y-163D02*
D03*
X41951Y-1327D02*
D03*
Y-167D02*
D03*
X47800Y-1327D02*
D03*
Y-168D02*
D03*
X60069Y-283D02*
D03*
Y-1443D02*
D03*
X56644Y-1443D02*
D03*
Y-283D02*
D03*
X34586Y-3200D02*
D03*
Y-2040D02*
D03*
D27*
X27649Y8560D02*
D03*
X27649Y9760D02*
D03*
X29449Y8560D02*
D03*
X29449Y9760D02*
D03*
D28*
X29463Y6544D02*
D03*
Y7494D02*
D03*
D29*
X30369Y8541D02*
D03*
Y9441D02*
D03*
X26751Y5949D02*
D03*
Y6849D02*
D03*
D30*
X33309Y5327D02*
D03*
X31884D02*
D03*
X41062Y-7609D02*
D03*
X39637D02*
D03*
D31*
X49448Y-380D02*
D03*
Y-780D02*
D03*
Y20D02*
D03*
X50248Y-780D02*
D03*
Y-380D02*
D03*
Y20D02*
D03*
D32*
X24604Y-5967D02*
D03*
Y-4542D02*
D03*
D33*
X61750Y-4511D02*
D03*
Y3989D02*
D03*
D34*
X63000Y-261D02*
D03*
D35*
X37660Y-163D02*
D03*
Y897D02*
D03*
D36*
X28500Y-4000D02*
D03*
X28000D02*
D03*
X28500Y-3500D02*
D03*
X28000D02*
D03*
Y-2500D02*
D03*
X28500Y-3000D02*
D03*
X29000Y-4000D02*
D03*
Y-3500D02*
D03*
X29500D02*
D03*
X29000Y-2500D02*
D03*
X29500Y-3000D02*
D03*
X29000D02*
D03*
X29500Y-2500D02*
D03*
X28000Y-2000D02*
D03*
X28500Y-1000D02*
D03*
Y-2500D02*
D03*
Y-1500D02*
D03*
Y-2000D02*
D03*
X28000Y-1000D02*
D03*
Y0D02*
D03*
Y-500D02*
D03*
X29000D02*
D03*
X28500Y0D02*
D03*
Y-500D02*
D03*
X29000Y-2000D02*
D03*
Y-1500D02*
D03*
X29500Y-1000D02*
D03*
Y-2000D02*
D03*
Y-1500D02*
D03*
X29000Y-1000D02*
D03*
X29500Y0D02*
D03*
Y-500D02*
D03*
X30000Y-4000D02*
D03*
Y-3500D02*
D03*
X30500Y-4000D02*
D03*
Y-3500D02*
D03*
X31000Y-3000D02*
D03*
X30000D02*
D03*
Y-2500D02*
D03*
X30500Y-3000D02*
D03*
Y-2500D02*
D03*
X31000D02*
D03*
X31500Y-4000D02*
D03*
X31000Y-3500D02*
D03*
X31500D02*
D03*
X32000Y-4000D02*
D03*
Y-3000D02*
D03*
Y-3500D02*
D03*
X31500Y-3000D02*
D03*
Y-2500D02*
D03*
X30000Y-2000D02*
D03*
Y-1500D02*
D03*
X30500Y-2000D02*
D03*
Y-1000D02*
D03*
Y-1500D02*
D03*
X30000Y-1000D02*
D03*
Y0D02*
D03*
Y-500D02*
D03*
X31000D02*
D03*
X30500D02*
D03*
X31000Y0D02*
D03*
Y-2000D02*
D03*
Y-1500D02*
D03*
X31500D02*
D03*
X32000Y-2000D02*
D03*
X31500D02*
D03*
X32000Y-1500D02*
D03*
X31000Y-1000D02*
D03*
X31500Y0D02*
D03*
Y-500D02*
D03*
Y-1000D02*
D03*
X32000Y0D02*
D03*
Y-500D02*
D03*
D37*
X33144Y-7557D02*
D03*
X33769Y-7557D02*
D03*
D38*
X19900Y-2850D02*
D03*
X19900Y-1350D02*
D03*
D39*
X21110Y14000D02*
D03*
X23650D02*
D03*
X13490D02*
D03*
X16030D02*
D03*
X5870D02*
D03*
X10950D02*
D03*
X8410D02*
D03*
X18570D02*
D03*
X46510D02*
D03*
X49050D02*
D03*
X41430D02*
D03*
X43970D02*
D03*
X51590D02*
D03*
X26190D02*
D03*
X31270D02*
D03*
X28730D02*
D03*
X33810D02*
D03*
X38890D02*
D03*
X36350D02*
D03*
X21110Y-14000D02*
D03*
X23650D02*
D03*
X13490D02*
D03*
X16030D02*
D03*
X5870D02*
D03*
X10950D02*
D03*
X8410D02*
D03*
X18570D02*
D03*
X46510D02*
D03*
X49050D02*
D03*
X41430D02*
D03*
X43970D02*
D03*
X51590D02*
D03*
X26190D02*
D03*
X31270D02*
D03*
X28730D02*
D03*
X33810D02*
D03*
X38890D02*
D03*
X36350D02*
D03*
X5000Y-9770D02*
D03*
Y7230D02*
D03*
D40*
X54130Y14000D02*
D03*
X54130Y-14000D02*
D03*
D41*
X5000Y-7230D02*
D03*
Y9770D02*
D03*
D42*
X36219Y6452D02*
D03*
X63170Y-1640D02*
D03*
X62541Y1430D02*
D03*
X28132Y1544D02*
D03*
X27708Y4532D02*
D03*
Y3949D02*
D03*
X23706Y2287D02*
D03*
X24598Y-458D02*
D03*
Y-1104D02*
D03*
X28441Y7636D02*
D03*
X52785Y12942D02*
D03*
X52655Y11286D02*
D03*
X51912D02*
D03*
X53399D02*
D03*
X51747Y-8977D02*
D03*
X51037Y-8977D02*
D03*
X50327Y-8977D02*
D03*
X52265Y-7774D02*
D03*
X52265Y-8484D02*
D03*
X37231Y12029D02*
D03*
X36488D02*
D03*
X40220Y11926D02*
D03*
X39477D02*
D03*
X42825Y11793D02*
D03*
X42082D02*
D03*
X46575Y11465D02*
D03*
X45088D02*
D03*
X45832D02*
D03*
X24503Y11554D02*
D03*
X25246D02*
D03*
X21776Y11558D02*
D03*
X22519D02*
D03*
X19467Y11550D02*
D03*
X20210D02*
D03*
X53239Y-9752D02*
D03*
X51753D02*
D03*
X50366D02*
D03*
X47494D02*
D03*
X43235D02*
D03*
X41849D02*
D03*
X38976D02*
D03*
X40363D02*
D03*
X32938Y-9592D02*
D03*
X18609Y-9554D02*
D03*
X21482D02*
D03*
X19996D02*
D03*
X48160Y8150D02*
D03*
X49646D02*
D03*
X48903Y8150D02*
D03*
X51132D02*
D03*
X50389D02*
D03*
X35200Y-7900D02*
D03*
X31600Y-12309D02*
D03*
X30609D02*
D03*
Y-11651D02*
D03*
X59197Y-1429D02*
D03*
X58453D02*
D03*
X57710D02*
D03*
X60313Y-3058D02*
D03*
X59570D02*
D03*
X58827D02*
D03*
X57340D02*
D03*
X58083D02*
D03*
X55854D02*
D03*
X56597D02*
D03*
X55211D02*
D03*
X54468D02*
D03*
X52982D02*
D03*
X53725D02*
D03*
X61799D02*
D03*
X61056D02*
D03*
X62542D02*
D03*
X61090Y-1411D02*
D03*
X36219Y5389D02*
D03*
X37334Y5920D02*
D03*
X36591Y5920D02*
D03*
X36962Y5389D02*
D03*
X36590Y4857D02*
D03*
X37333Y4857D02*
D03*
X36961Y4326D02*
D03*
X36683Y3794D02*
D03*
X37332Y3794D02*
D03*
X37758Y3186D02*
D03*
X37109Y3185D02*
D03*
X38555Y2046D02*
D03*
X38927Y2577D02*
D03*
X38184D02*
D03*
X37441D02*
D03*
X37812Y2046D02*
D03*
X52265Y-7064D02*
D03*
X51132Y5921D02*
D03*
Y6664D02*
D03*
Y7407D02*
D03*
X62541Y-1995D02*
D03*
X62170Y-2527D02*
D03*
X60684D02*
D03*
X61427D02*
D03*
X61055Y-1995D02*
D03*
X61798D02*
D03*
X62170Y1961D02*
D03*
X61798Y1430D02*
D03*
X55853D02*
D03*
X61055D02*
D03*
X60683Y898D02*
D03*
X60312Y1430D02*
D03*
X61427Y1961D02*
D03*
X59569Y1430D02*
D03*
X59197Y898D02*
D03*
X59940D02*
D03*
X58454D02*
D03*
X58826Y1430D02*
D03*
X51132Y5178D02*
D03*
Y4435D02*
D03*
Y2205D02*
D03*
Y2948D02*
D03*
Y3692D02*
D03*
X37505Y-967D02*
D03*
X36762D02*
D03*
X36019D02*
D03*
X37140Y-1356D02*
D03*
X44844Y-1988D02*
D03*
X46330D02*
D03*
X45587D02*
D03*
X44100D02*
D03*
X43357D02*
D03*
X42614D02*
D03*
X40013Y-1356D02*
D03*
X42985D02*
D03*
X43729D02*
D03*
X46701D02*
D03*
X45215D02*
D03*
X45958D02*
D03*
X44472D02*
D03*
X54838Y-1464D02*
D03*
X54095D02*
D03*
X55481D02*
D03*
X51866D02*
D03*
X52609D02*
D03*
X53352D02*
D03*
X53353Y-2527D02*
D03*
X52610D02*
D03*
X54096D02*
D03*
X54839D02*
D03*
X56225D02*
D03*
X55482D02*
D03*
X57712D02*
D03*
X56968D02*
D03*
X58455D02*
D03*
X59198D02*
D03*
X59941D02*
D03*
X51123Y898D02*
D03*
X51495Y1430D02*
D03*
X53352Y898D02*
D03*
X52981Y1430D02*
D03*
X52238D02*
D03*
X53724D02*
D03*
X52609Y898D02*
D03*
X51866D02*
D03*
X54467Y1430D02*
D03*
X55110D02*
D03*
X57340D02*
D03*
X56596D02*
D03*
X56968Y898D02*
D03*
X55481D02*
D03*
X56225D02*
D03*
X54095D02*
D03*
X54838D02*
D03*
X57711D02*
D03*
X58083Y1430D02*
D03*
X48758Y1469D02*
D03*
X48014D02*
D03*
X47643Y938D02*
D03*
X48386D02*
D03*
X44770D02*
D03*
X44027D02*
D03*
X46156D02*
D03*
X45413D02*
D03*
X46899D02*
D03*
X46528Y1469D02*
D03*
X47271D02*
D03*
X45042D02*
D03*
X45785D02*
D03*
X44399D02*
D03*
X41798Y938D02*
D03*
X42541D02*
D03*
X43656Y1469D02*
D03*
X42169D02*
D03*
X42913D02*
D03*
X43284Y938D02*
D03*
X36792Y-4654D02*
D03*
X36420Y-4122D02*
D03*
X37907D02*
D03*
X38550D02*
D03*
X38178Y-4654D02*
D03*
X38922D02*
D03*
X37535D02*
D03*
X40779Y-4122D02*
D03*
X40036D02*
D03*
X39665Y-4654D02*
D03*
X40408D02*
D03*
X41894D02*
D03*
X42637D02*
D03*
X43008Y-4122D02*
D03*
X42265D02*
D03*
X44767Y-4654D02*
D03*
X44123D02*
D03*
X44495Y-4122D02*
D03*
X43752D02*
D03*
X45881D02*
D03*
X46253Y-4654D02*
D03*
X46973Y-4469D02*
D03*
X47705Y-4340D02*
D03*
X46613Y-3993D02*
D03*
X48352Y-3976D02*
D03*
X37163Y-4122D02*
D03*
X39293D02*
D03*
X41522D02*
D03*
X41151Y-4654D02*
D03*
X45510D02*
D03*
X43380D02*
D03*
X45138Y-4122D02*
D03*
X47246Y-3882D02*
D03*
X47896Y-3671D02*
D03*
X48464Y-3337D02*
D03*
X49026Y-3662D02*
D03*
X49510Y-3098D02*
D03*
X48942Y-2914D02*
D03*
X49397Y-2460D02*
D03*
X36110Y1096D02*
D03*
X35367D02*
D03*
X34624D02*
D03*
X33881D02*
D03*
X52265Y-6354D02*
D03*
X39297Y2046D02*
D03*
X43013D02*
D03*
X42641Y2577D02*
D03*
X41898D02*
D03*
X42270Y2046D02*
D03*
X40040D02*
D03*
X39669Y2577D02*
D03*
X40412D02*
D03*
X41155D02*
D03*
X40784Y2046D02*
D03*
X41527D02*
D03*
D43*
X42958Y-8858D02*
D03*
X61858Y12142D02*
D03*
X62558Y10742D02*
D03*
X61858Y9342D02*
D03*
X62558Y7942D02*
D03*
X61858Y6542D02*
D03*
X62558Y-6058D02*
D03*
X61858Y-7458D02*
D03*
Y-10258D02*
D03*
X62558Y-11658D02*
D03*
X61858Y-13058D02*
D03*
X60458Y14942D02*
D03*
X61158Y13542D02*
D03*
X60458Y12142D02*
D03*
X61158Y10742D02*
D03*
X60458Y9342D02*
D03*
X61158Y7942D02*
D03*
X60458Y6542D02*
D03*
X61158Y-6058D02*
D03*
X60458Y-7458D02*
D03*
X61158Y-8858D02*
D03*
X60458Y-10258D02*
D03*
X61158Y-11658D02*
D03*
X60458Y-13058D02*
D03*
X61158Y-14458D02*
D03*
X59058Y14942D02*
D03*
X59758Y13542D02*
D03*
X59058Y12142D02*
D03*
X59758Y10742D02*
D03*
X59058Y9342D02*
D03*
X59758Y7942D02*
D03*
X59058Y6542D02*
D03*
X59758Y2342D02*
D03*
Y-6058D02*
D03*
X59058Y-7458D02*
D03*
X59758Y-8858D02*
D03*
X59058Y-10258D02*
D03*
X59758Y-11658D02*
D03*
X59058Y-13058D02*
D03*
X59758Y-14458D02*
D03*
X57658Y14942D02*
D03*
X58358Y13542D02*
D03*
X57658Y12142D02*
D03*
X58358Y10742D02*
D03*
X57658Y9342D02*
D03*
X58358Y7942D02*
D03*
X57658Y6542D02*
D03*
X58358Y5142D02*
D03*
X57658Y3742D02*
D03*
X58358Y2342D02*
D03*
X57658Y-4658D02*
D03*
X58358Y-6058D02*
D03*
X57658Y-7458D02*
D03*
X58358Y-8858D02*
D03*
X57658Y-10258D02*
D03*
X58358Y-11658D02*
D03*
X57658Y-13058D02*
D03*
X58358Y-14458D02*
D03*
X56258Y14942D02*
D03*
X56958Y13542D02*
D03*
X56258Y12142D02*
D03*
X56958Y10742D02*
D03*
X56258Y9342D02*
D03*
X56958Y7942D02*
D03*
X56258Y6542D02*
D03*
X56958Y5142D02*
D03*
X56258Y3742D02*
D03*
X56958Y2342D02*
D03*
X56258Y-4658D02*
D03*
X56958Y-6058D02*
D03*
X56258Y-7458D02*
D03*
X56958Y-8858D02*
D03*
X56258Y-10258D02*
D03*
X56958Y-11658D02*
D03*
X56258Y-13058D02*
D03*
X56958Y-14458D02*
D03*
X54858Y12142D02*
D03*
X55558Y10742D02*
D03*
X54858Y9342D02*
D03*
X55558Y7942D02*
D03*
X54858Y6542D02*
D03*
X55558Y5142D02*
D03*
X54858Y3742D02*
D03*
X55558Y2342D02*
D03*
X54858Y-4658D02*
D03*
X55558Y-6058D02*
D03*
X54858Y-7458D02*
D03*
X55558Y-8858D02*
D03*
X54858Y-10258D02*
D03*
X55558Y-11658D02*
D03*
X54158Y10742D02*
D03*
X53458Y9342D02*
D03*
X54158Y7942D02*
D03*
X53458Y6542D02*
D03*
X54158Y5142D02*
D03*
X53458Y3742D02*
D03*
X54158Y2342D02*
D03*
Y-6058D02*
D03*
X53458Y-7458D02*
D03*
X54158Y-8858D02*
D03*
X52058Y9342D02*
D03*
X52758Y7942D02*
D03*
X52058Y6542D02*
D03*
X52758Y5142D02*
D03*
X52058Y3742D02*
D03*
X52758Y2342D02*
D03*
X51358Y10742D02*
D03*
X50658Y9342D02*
D03*
X49958Y10742D02*
D03*
X49258Y9342D02*
D03*
X47858Y14942D02*
D03*
Y3742D02*
D03*
Y-13058D02*
D03*
X46458Y6542D02*
D03*
X47158Y5142D02*
D03*
X46458Y3742D02*
D03*
X47158Y2342D02*
D03*
X45058Y9342D02*
D03*
X45758Y7942D02*
D03*
X45058Y6542D02*
D03*
X45758Y5142D02*
D03*
X45058Y3742D02*
D03*
X45758Y2342D02*
D03*
X43658Y9342D02*
D03*
X44358Y7942D02*
D03*
X43658Y6542D02*
D03*
X44358Y5142D02*
D03*
X43658Y3742D02*
D03*
X44358Y2342D02*
D03*
Y-8858D02*
D03*
X42258Y9342D02*
D03*
X42958Y7942D02*
D03*
X42258Y6542D02*
D03*
X42958Y5142D02*
D03*
X42258Y3742D02*
D03*
X40858Y9342D02*
D03*
X41558Y7942D02*
D03*
X40858Y6542D02*
D03*
X41558Y5142D02*
D03*
X40858Y3742D02*
D03*
X41558Y-8858D02*
D03*
X39458Y9342D02*
D03*
X40158Y7942D02*
D03*
X39458Y6542D02*
D03*
X40158Y5142D02*
D03*
X39458Y3742D02*
D03*
X40158Y-8858D02*
D03*
X38058Y9342D02*
D03*
X38758Y7942D02*
D03*
X38058Y6542D02*
D03*
X38758Y5142D02*
D03*
Y-8858D02*
D03*
X36658Y9342D02*
D03*
X37358Y7942D02*
D03*
X35958D02*
D03*
X32458Y14942D02*
D03*
X24758Y10742D02*
D03*
Y5142D02*
D03*
X22658Y6542D02*
D03*
X21258D02*
D03*
X21958Y5142D02*
D03*
X19858Y14942D02*
D03*
X18458Y6542D02*
D03*
Y3742D02*
D03*
X15658Y12142D02*
D03*
X14258Y9342D02*
D03*
X14958Y7942D02*
D03*
X14258Y6542D02*
D03*
X14958Y5142D02*
D03*
X14258Y3742D02*
D03*
X14958Y2342D02*
D03*
X14258Y942D02*
D03*
X14958Y-458D02*
D03*
X14258Y-1858D02*
D03*
X14958Y-3258D02*
D03*
X14258Y-4658D02*
D03*
X14958Y-6058D02*
D03*
X14258Y-7458D02*
D03*
X12858Y12142D02*
D03*
Y9342D02*
D03*
X13558Y7942D02*
D03*
X12858Y6542D02*
D03*
X13558Y5142D02*
D03*
X12858Y3742D02*
D03*
X13558Y2342D02*
D03*
X12858Y942D02*
D03*
X13558Y-458D02*
D03*
X12858Y-1858D02*
D03*
X13558Y-6058D02*
D03*
X12858Y-7458D02*
D03*
X12158Y7942D02*
D03*
X11458Y6542D02*
D03*
X12158Y5142D02*
D03*
X11458Y3742D02*
D03*
X12158Y2342D02*
D03*
X11458Y942D02*
D03*
X12158Y-458D02*
D03*
X11458Y-1858D02*
D03*
X12158Y-3258D02*
D03*
X11458Y-4658D02*
D03*
X12158Y-6058D02*
D03*
X11458Y-7458D02*
D03*
X12158Y-11658D02*
D03*
X10058Y12142D02*
D03*
X10758Y10742D02*
D03*
X10058Y9342D02*
D03*
Y6542D02*
D03*
X10758Y5142D02*
D03*
X10058Y3742D02*
D03*
X10758Y2342D02*
D03*
X10058Y942D02*
D03*
X10758Y-458D02*
D03*
X10058Y-1858D02*
D03*
X10758Y-3258D02*
D03*
X10058Y-4658D02*
D03*
X9358Y10742D02*
D03*
Y5142D02*
D03*
Y2342D02*
D03*
Y-458D02*
D03*
Y-3258D02*
D03*
Y-6058D02*
D03*
X8658Y-7458D02*
D03*
X9358Y-8858D02*
D03*
Y-11658D02*
D03*
X7258Y14942D02*
D03*
Y12142D02*
D03*
Y9342D02*
D03*
Y3742D02*
D03*
Y942D02*
D03*
Y-1858D02*
D03*
Y-4658D02*
D03*
X5858Y12142D02*
D03*
X6558Y10742D02*
D03*
Y5142D02*
D03*
X5858Y3742D02*
D03*
X6558Y2342D02*
D03*
X5858Y942D02*
D03*
X6558Y-458D02*
D03*
X5858Y-1858D02*
D03*
X6558Y-3258D02*
D03*
X5858Y-4658D02*
D03*
X6558Y-6058D02*
D03*
Y-8858D02*
D03*
Y-11658D02*
D03*
X4458Y14942D02*
D03*
X5158Y5142D02*
D03*
X4458Y3742D02*
D03*
X5158Y2342D02*
D03*
X4458Y942D02*
D03*
X5158Y-458D02*
D03*
X4458Y-1858D02*
D03*
X5158Y-3258D02*
D03*
X4458Y-4658D02*
D03*
X3058Y14942D02*
D03*
X3758Y13542D02*
D03*
X3058Y12142D02*
D03*
Y9342D02*
D03*
Y6542D02*
D03*
X3758Y5142D02*
D03*
X3058Y3742D02*
D03*
X3758Y2342D02*
D03*
X3058Y942D02*
D03*
X3758Y-458D02*
D03*
X3058Y-1858D02*
D03*
X3758Y-3258D02*
D03*
X3058Y-4658D02*
D03*
X3758Y-6058D02*
D03*
X3058Y-7458D02*
D03*
X3758Y-8858D02*
D03*
X3058Y-10258D02*
D03*
X3758Y-11658D02*
D03*
X3058Y-13058D02*
D03*
X1970Y16301D02*
D03*
X62526Y15112D02*
D03*
X62908Y-15185D02*
D03*
X64253Y14266D02*
D03*
Y15366D02*
D03*
X63300Y13716D02*
D03*
X63300Y14816D02*
D03*
Y7116D02*
D03*
Y1616D02*
D03*
X63300Y2716D02*
D03*
X63300Y3816D02*
D03*
X63300Y4916D02*
D03*
Y6016D02*
D03*
X63300Y12616D02*
D03*
X63300Y8216D02*
D03*
X63300Y10416D02*
D03*
X63300Y9316D02*
D03*
X63300Y11516D02*
D03*
X64253Y2166D02*
D03*
X64253Y6566D02*
D03*
Y13166D02*
D03*
Y12066D02*
D03*
X64253Y7666D02*
D03*
X64253Y8766D02*
D03*
Y9866D02*
D03*
X64253Y10966D02*
D03*
X64253Y5466D02*
D03*
Y1066D02*
D03*
X64253Y3266D02*
D03*
X64253Y4366D02*
D03*
X64253Y-1734D02*
D03*
X64253Y-2834D02*
D03*
X64253Y-3934D02*
D03*
X64253Y-5034D02*
D03*
X64253Y-6134D02*
D03*
X64253Y-7234D02*
D03*
X64253Y-8334D02*
D03*
X64253Y-9434D02*
D03*
X64253Y-10534D02*
D03*
X64253Y-11634D02*
D03*
Y-12734D02*
D03*
X64253Y-13834D02*
D03*
X64253Y-14934D02*
D03*
X64253Y-16034D02*
D03*
X63300Y-2284D02*
D03*
Y-3384D02*
D03*
X63300Y-4484D02*
D03*
X63300Y-5584D02*
D03*
X63300Y-6684D02*
D03*
X63300Y-7784D02*
D03*
Y-8884D02*
D03*
Y-9984D02*
D03*
X63300Y-11084D02*
D03*
X63300Y-12184D02*
D03*
Y-13284D02*
D03*
X63300Y-14384D02*
D03*
X2005Y-16137D02*
D03*
X1215Y16083D02*
D03*
X1215Y14983D02*
D03*
X1215Y13883D02*
D03*
X1215Y12783D02*
D03*
Y11683D02*
D03*
X1215Y10583D02*
D03*
X1215Y9483D02*
D03*
X1215Y8383D02*
D03*
X1215Y7283D02*
D03*
X1215Y6183D02*
D03*
X1215Y5083D02*
D03*
X1215Y3983D02*
D03*
X1215Y2883D02*
D03*
X1215Y1783D02*
D03*
X1215Y683D02*
D03*
X1215Y-417D02*
D03*
X1215Y-1517D02*
D03*
X1215Y-2617D02*
D03*
X1215Y-3717D02*
D03*
X1215Y-4817D02*
D03*
Y-5917D02*
D03*
Y-7017D02*
D03*
Y-8117D02*
D03*
X1215Y-9217D02*
D03*
X1215Y-10317D02*
D03*
X1215Y-11417D02*
D03*
X1215Y-12517D02*
D03*
X1215Y-13617D02*
D03*
X1215Y-14717D02*
D03*
X1215Y-15817D02*
D03*
X2168Y15533D02*
D03*
X2168Y14433D02*
D03*
X2168Y13333D02*
D03*
X2168Y12233D02*
D03*
X2168Y11133D02*
D03*
X2168Y10033D02*
D03*
X2168Y8933D02*
D03*
Y7833D02*
D03*
X2168Y6733D02*
D03*
X2168Y5633D02*
D03*
Y4533D02*
D03*
X2168Y3433D02*
D03*
X2168Y2333D02*
D03*
X2168Y1233D02*
D03*
X2168Y133D02*
D03*
X2168Y-967D02*
D03*
X2168Y-2067D02*
D03*
X2168Y-3167D02*
D03*
X2168Y-4267D02*
D03*
Y-5367D02*
D03*
X2168Y-6467D02*
D03*
X2168Y-7567D02*
D03*
X2168Y-8667D02*
D03*
X2168Y-9767D02*
D03*
X2168Y-10867D02*
D03*
X2168Y-11967D02*
D03*
Y-13067D02*
D03*
Y-14167D02*
D03*
X2168Y-15267D02*
D03*
X62902Y16895D02*
D03*
X64002D02*
D03*
X61802D02*
D03*
X60702D02*
D03*
X59602D02*
D03*
X58502D02*
D03*
X57402D02*
D03*
X56302D02*
D03*
X55202D02*
D03*
X54102D02*
D03*
X53002D02*
D03*
X51902D02*
D03*
X50802D02*
D03*
X49702D02*
D03*
X48602D02*
D03*
X47502D02*
D03*
X46402D02*
D03*
X45302D02*
D03*
X44202D02*
D03*
X43102D02*
D03*
X42002D02*
D03*
X40902D02*
D03*
X39802D02*
D03*
X38702D02*
D03*
X37602D02*
D03*
X36502D02*
D03*
X35402D02*
D03*
X34302D02*
D03*
X33202D02*
D03*
X32102D02*
D03*
X31002D02*
D03*
X29902D02*
D03*
X28802D02*
D03*
X27702D02*
D03*
X26602D02*
D03*
X25502D02*
D03*
X24402D02*
D03*
X23302D02*
D03*
X22202D02*
D03*
X21102D02*
D03*
X20002D02*
D03*
X18902D02*
D03*
X17802D02*
D03*
X16702D02*
D03*
X15602D02*
D03*
X14502D02*
D03*
X13402D02*
D03*
X12302D02*
D03*
X11202D02*
D03*
X10102D02*
D03*
X9002D02*
D03*
X7902D02*
D03*
X6802D02*
D03*
X5702D02*
D03*
X4602D02*
D03*
X3502D02*
D03*
X2402D02*
D03*
X1302D02*
D03*
X63513Y16099D02*
D03*
X62352Y15942D02*
D03*
X61252D02*
D03*
X60152D02*
D03*
X59052D02*
D03*
X57952D02*
D03*
X56852D02*
D03*
X55752D02*
D03*
X54652D02*
D03*
X53552D02*
D03*
X52452D02*
D03*
X51352D02*
D03*
X50252D02*
D03*
X49152D02*
D03*
X48052D02*
D03*
X46952D02*
D03*
X45852D02*
D03*
X44752D02*
D03*
X43652D02*
D03*
X42552D02*
D03*
X41452D02*
D03*
X40352D02*
D03*
X39252D02*
D03*
X38152D02*
D03*
X37052D02*
D03*
X35952D02*
D03*
X34852D02*
D03*
X33752D02*
D03*
X32652D02*
D03*
X31552D02*
D03*
X30452D02*
D03*
X29352D02*
D03*
X28252D02*
D03*
X27152D02*
D03*
X26052D02*
D03*
X24952D02*
D03*
X23852D02*
D03*
X22752D02*
D03*
X21652D02*
D03*
X20552D02*
D03*
X19452D02*
D03*
X18352D02*
D03*
X17252D02*
D03*
X16152D02*
D03*
X15052D02*
D03*
X13952D02*
D03*
X12852D02*
D03*
X11752D02*
D03*
X10652D02*
D03*
X9552D02*
D03*
X8452D02*
D03*
X7352D02*
D03*
X6252D02*
D03*
X5152D02*
D03*
X4052D02*
D03*
X2952D02*
D03*
X63365Y-15964D02*
D03*
X62265D02*
D03*
X61165D02*
D03*
X60065D02*
D03*
X58965D02*
D03*
X57865D02*
D03*
X56765D02*
D03*
X55665D02*
D03*
X54565D02*
D03*
X53465D02*
D03*
X52365D02*
D03*
X51265D02*
D03*
X50165D02*
D03*
X49065D02*
D03*
X47965D02*
D03*
X46865D02*
D03*
X45765D02*
D03*
X44665D02*
D03*
X43565D02*
D03*
X42465D02*
D03*
X41365D02*
D03*
X40265D02*
D03*
X39165D02*
D03*
X38065D02*
D03*
X36965D02*
D03*
X35865D02*
D03*
X34765D02*
D03*
X33665D02*
D03*
X32565D02*
D03*
X31465D02*
D03*
X30365D02*
D03*
X29265D02*
D03*
X28165D02*
D03*
X27065D02*
D03*
X25965D02*
D03*
X24865D02*
D03*
X23765D02*
D03*
X22665D02*
D03*
X21565D02*
D03*
X20465D02*
D03*
X19365D02*
D03*
X18265D02*
D03*
X17165D02*
D03*
X16065D02*
D03*
X14965D02*
D03*
X13865D02*
D03*
X12765D02*
D03*
X11665D02*
D03*
X10565D02*
D03*
X9465D02*
D03*
X8365D02*
D03*
X7265D02*
D03*
X6165D02*
D03*
X5065D02*
D03*
X3965D02*
D03*
X2865D02*
D03*
X63915Y-16917D02*
D03*
X62815D02*
D03*
X61715D02*
D03*
X60615D02*
D03*
X59515D02*
D03*
X58415D02*
D03*
X57315D02*
D03*
X56215D02*
D03*
X55115D02*
D03*
X54015D02*
D03*
X52915D02*
D03*
X51815D02*
D03*
X50715D02*
D03*
X49615D02*
D03*
X48515D02*
D03*
X47415D02*
D03*
X46315D02*
D03*
X45215D02*
D03*
X44115D02*
D03*
X43015D02*
D03*
X41915D02*
D03*
X40815D02*
D03*
X39715D02*
D03*
X38615D02*
D03*
X37515D02*
D03*
X36415D02*
D03*
X35315D02*
D03*
X34215D02*
D03*
X33115D02*
D03*
X32015D02*
D03*
X30915D02*
D03*
X29815D02*
D03*
X28715D02*
D03*
X27615D02*
D03*
X26515D02*
D03*
X25415D02*
D03*
X24315D02*
D03*
X23215D02*
D03*
X22115D02*
D03*
X21015D02*
D03*
X19915D02*
D03*
X18815D02*
D03*
X17715D02*
D03*
X16615D02*
D03*
X15515D02*
D03*
X14415D02*
D03*
X13315D02*
D03*
X12215D02*
D03*
X11115D02*
D03*
X10015D02*
D03*
X8915D02*
D03*
X7815D02*
D03*
X6715D02*
D03*
X5615D02*
D03*
X4515D02*
D03*
X3415D02*
D03*
X1215D02*
D03*
X2315D02*
D03*
X25328Y1874D02*
D03*
X29769Y4259D02*
D03*
X48427Y5794D02*
D03*
X48427Y7195D02*
D03*
X49742Y-5197D02*
D03*
X49738Y-6540D02*
D03*
X24579Y2628D02*
D03*
X34041Y9737D02*
D03*
X32670Y9531D02*
D03*
X22349Y-5934D02*
D03*
X25441Y-2788D02*
D03*
X17028Y10201D02*
D03*
X23312Y-5533D02*
D03*
X23744Y-4559D02*
D03*
X30515Y-8285D02*
D03*
X36227Y-8220D02*
D03*
X33359Y-2477D02*
D03*
X20578Y-4985D02*
D03*
X27593Y2397D02*
D03*
X25359Y3901D02*
D03*
X30008Y1405D02*
D03*
X27650Y-5210D02*
D03*
X28250Y-6406D02*
D03*
X23711Y100D02*
D03*
X30788Y-6550D02*
D03*
X30409Y-5175D02*
D03*
X33223Y6521D02*
D03*
X18275Y-4925D02*
D03*
X18500Y-2250D02*
D03*
X19700Y-4300D02*
D03*
M02*
