G04*
G04 #@! TF.GenerationSoftware,Altium Limited,Altium Designer,22.1.2 (22)*
G04*
G04 Layer_Physical_Order=3*
G04 Layer_Color=16440176*
%FSLAX43Y43*%
%MOMM*%
G71*
G04*
G04 #@! TF.SameCoordinates,532FF45F-5525-43CF-9912-DA75C4080CC9*
G04*
G04*
G04 #@! TF.FilePolarity,Positive*
G04*
G01*
G75*
%ADD12C,0.300*%
%ADD16C,1.500*%
%ADD75C,0.700*%
%ADD79C,0.500*%
%ADD80C,0.550*%
%ADD83C,1.800*%
G04:AMPARAMS|DCode=84|XSize=1.8mm|YSize=1.8mm|CornerRadius=0.45mm|HoleSize=0mm|Usage=FLASHONLY|Rotation=180.000|XOffset=0mm|YOffset=0mm|HoleType=Round|Shape=RoundedRectangle|*
%AMROUNDEDRECTD84*
21,1,1.800,0.900,0,0,180.0*
21,1,0.900,1.800,0,0,180.0*
1,1,0.900,-0.450,0.450*
1,1,0.900,0.450,0.450*
1,1,0.900,0.450,-0.450*
1,1,0.900,-0.450,-0.450*
%
%ADD84ROUNDEDRECTD84*%
G04:AMPARAMS|DCode=85|XSize=1.8mm|YSize=1.8mm|CornerRadius=0.45mm|HoleSize=0mm|Usage=FLASHONLY|Rotation=270.000|XOffset=0mm|YOffset=0mm|HoleType=Round|Shape=RoundedRectangle|*
%AMROUNDEDRECTD85*
21,1,1.800,0.900,0,0,270.0*
21,1,0.900,1.800,0,0,270.0*
1,1,0.900,-0.450,-0.450*
1,1,0.900,-0.450,0.450*
1,1,0.900,0.450,0.450*
1,1,0.900,0.450,-0.450*
%
%ADD85ROUNDEDRECTD85*%
%ADD87C,0.500*%
%ADD88C,0.650*%
%ADD89C,1.700*%
%ADD90C,2.000*%
%ADD91C,1.000*%
%ADD92C,1.200*%
%ADD93C,1.100*%
%ADD94C,0.800*%
G36*
X64615Y-17251D02*
X542D01*
Y17238D01*
X64615D01*
Y-17251D01*
D02*
G37*
G36*
X11266Y-38856D02*
X11028D01*
Y-38587D01*
X11266D01*
Y-38856D01*
D02*
G37*
G36*
X12745Y-40511D02*
X12525D01*
Y-40338D01*
X12522Y-40341D01*
X12519Y-40347D01*
X12510Y-40356D01*
X12499Y-40370D01*
X12487Y-40385D01*
X12469Y-40403D01*
X12449Y-40420D01*
X12425Y-40441D01*
X12399Y-40458D01*
X12370Y-40479D01*
X12338Y-40496D01*
X12305Y-40511D01*
X12267Y-40526D01*
X12226Y-40534D01*
X12182Y-40540D01*
X12136Y-40543D01*
X12118D01*
X12106Y-40540D01*
X12074Y-40537D01*
X12036Y-40531D01*
X11986Y-40520D01*
X11936Y-40505D01*
X11881Y-40482D01*
X11828Y-40452D01*
X11825D01*
X11822Y-40449D01*
X11805Y-40435D01*
X11781Y-40414D01*
X11749Y-40385D01*
X11717Y-40350D01*
X11679Y-40306D01*
X11646Y-40256D01*
X11614Y-40198D01*
Y-40195D01*
X11611Y-40189D01*
X11608Y-40180D01*
X11603Y-40168D01*
X11597Y-40154D01*
X11591Y-40133D01*
X11576Y-40086D01*
X11562Y-40031D01*
X11550Y-39966D01*
X11541Y-39896D01*
X11538Y-39817D01*
Y-39814D01*
Y-39808D01*
Y-39796D01*
Y-39782D01*
X11541Y-39764D01*
Y-39741D01*
X11547Y-39691D01*
X11556Y-39632D01*
X11567Y-39571D01*
X11582Y-39504D01*
X11605Y-39439D01*
Y-39436D01*
X11608Y-39430D01*
X11614Y-39422D01*
X11620Y-39410D01*
X11635Y-39381D01*
X11658Y-39342D01*
X11687Y-39299D01*
X11723Y-39255D01*
X11764Y-39214D01*
X11813Y-39176D01*
X11816D01*
X11819Y-39173D01*
X11837Y-39161D01*
X11866Y-39146D01*
X11904Y-39129D01*
X11951Y-39114D01*
X12004Y-39099D01*
X12062Y-39088D01*
X12124Y-39085D01*
X12144D01*
X12168Y-39088D01*
X12200Y-39091D01*
X12232Y-39099D01*
X12270Y-39108D01*
X12308Y-39123D01*
X12346Y-39140D01*
X12352Y-39143D01*
X12364Y-39149D01*
X12382Y-39161D01*
X12405Y-39178D01*
X12428Y-39196D01*
X12458Y-39219D01*
X12484Y-39249D01*
X12507Y-39278D01*
Y-38587D01*
X12745D01*
Y-40511D01*
D02*
G37*
G36*
X19498Y-39088D02*
X19530Y-39094D01*
X19565Y-39105D01*
X19606Y-39117D01*
X19650Y-39137D01*
X19697Y-39164D01*
X19612Y-39381D01*
X19609Y-39378D01*
X19598Y-39372D01*
X19580Y-39363D01*
X19560Y-39354D01*
X19533Y-39345D01*
X19504Y-39337D01*
X19472Y-39331D01*
X19440Y-39328D01*
X19428D01*
X19413Y-39331D01*
X19393Y-39334D01*
X19372Y-39340D01*
X19349Y-39348D01*
X19325Y-39360D01*
X19302Y-39375D01*
X19299Y-39378D01*
X19293Y-39383D01*
X19281Y-39395D01*
X19270Y-39410D01*
X19255Y-39427D01*
X19240Y-39451D01*
X19229Y-39477D01*
X19217Y-39506D01*
X19214Y-39512D01*
X19211Y-39527D01*
X19205Y-39553D01*
X19199Y-39588D01*
X19191Y-39629D01*
X19185Y-39676D01*
X19182Y-39726D01*
X19179Y-39782D01*
Y-40511D01*
X18942D01*
Y-39117D01*
X19155D01*
Y-39325D01*
X19158Y-39322D01*
X19170Y-39304D01*
X19185Y-39278D01*
X19202Y-39249D01*
X19226Y-39217D01*
X19252Y-39184D01*
X19275Y-39155D01*
X19302Y-39135D01*
X19305Y-39132D01*
X19314Y-39126D01*
X19328Y-39120D01*
X19349Y-39108D01*
X19369Y-39099D01*
X19396Y-39094D01*
X19425Y-39088D01*
X19454Y-39085D01*
X19475D01*
X19498Y-39088D01*
D02*
G37*
G36*
X10648Y-40511D02*
X10402D01*
Y-38900D01*
X9839Y-40511D01*
X9611D01*
X9058Y-38874D01*
Y-40511D01*
X8812D01*
Y-38587D01*
X9192D01*
X9649Y-39949D01*
Y-39952D01*
X9652Y-39957D01*
X9655Y-39966D01*
X9658Y-39981D01*
X9670Y-40013D01*
X9684Y-40054D01*
X9699Y-40101D01*
X9714Y-40148D01*
X9728Y-40195D01*
X9740Y-40233D01*
X9743Y-40227D01*
X9746Y-40212D01*
X9755Y-40189D01*
X9766Y-40157D01*
X9778Y-40113D01*
X9796Y-40060D01*
X9819Y-39998D01*
X9842Y-39925D01*
X10302Y-38587D01*
X10648D01*
Y-40511D01*
D02*
G37*
G36*
X16719Y-40534D02*
Y-40537D01*
X16716Y-40543D01*
X16710Y-40555D01*
X16704Y-40572D01*
X16698Y-40590D01*
X16690Y-40611D01*
X16672Y-40660D01*
X16649Y-40713D01*
X16628Y-40763D01*
X16608Y-40813D01*
X16596Y-40833D01*
X16587Y-40851D01*
X16584Y-40857D01*
X16575Y-40868D01*
X16564Y-40889D01*
X16546Y-40915D01*
X16523Y-40941D01*
X16499Y-40971D01*
X16470Y-40997D01*
X16441Y-41021D01*
X16438Y-41023D01*
X16426Y-41029D01*
X16408Y-41038D01*
X16385Y-41047D01*
X16359Y-41059D01*
X16323Y-41067D01*
X16288Y-41073D01*
X16247Y-41076D01*
X16236D01*
X16221Y-41073D01*
X16203D01*
X16180Y-41070D01*
X16154Y-41064D01*
X16095Y-41047D01*
X16069Y-40827D01*
X16072D01*
X16080Y-40830D01*
X16095Y-40833D01*
X16116Y-40839D01*
X16157Y-40848D01*
X16203Y-40851D01*
X16218D01*
X16230Y-40848D01*
X16250D01*
X16291Y-40839D01*
X16312Y-40833D01*
X16329Y-40824D01*
X16332D01*
X16338Y-40818D01*
X16347Y-40813D01*
X16356Y-40804D01*
X16382Y-40780D01*
X16408Y-40748D01*
Y-40745D01*
X16411Y-40739D01*
X16417Y-40731D01*
X16426Y-40713D01*
X16435Y-40690D01*
X16446Y-40660D01*
X16461Y-40619D01*
X16479Y-40572D01*
X16482Y-40570D01*
X16485Y-40558D01*
X16493Y-40540D01*
X16502Y-40514D01*
X15972Y-39117D01*
X16224D01*
X16514Y-39919D01*
Y-39922D01*
X16517Y-39925D01*
X16520Y-39934D01*
X16523Y-39946D01*
X16534Y-39978D01*
X16549Y-40019D01*
X16564Y-40066D01*
X16581Y-40121D01*
X16599Y-40180D01*
X16616Y-40242D01*
Y-40239D01*
X16619Y-40236D01*
Y-40227D01*
X16625Y-40215D01*
X16631Y-40183D01*
X16643Y-40145D01*
X16657Y-40098D01*
X16675Y-40045D01*
X16692Y-39990D01*
X16713Y-39931D01*
X17012Y-39117D01*
X17246D01*
X16719Y-40534D01*
D02*
G37*
G36*
X21200Y-38581D02*
X21223Y-38584D01*
X21249Y-38587D01*
X21279Y-38590D01*
X21311Y-38599D01*
X21381Y-38616D01*
X21454Y-38643D01*
X21492Y-38660D01*
X21528Y-38681D01*
X21560Y-38707D01*
X21592Y-38733D01*
X21595Y-38736D01*
X21598Y-38739D01*
X21607Y-38748D01*
X21618Y-38760D01*
X21630Y-38777D01*
X21645Y-38795D01*
X21674Y-38839D01*
X21703Y-38894D01*
X21730Y-38959D01*
X21750Y-39032D01*
X21753Y-39073D01*
X21756Y-39114D01*
Y-39120D01*
Y-39135D01*
X21753Y-39158D01*
X21750Y-39187D01*
X21744Y-39222D01*
X21736Y-39260D01*
X21724Y-39301D01*
X21706Y-39342D01*
X21703Y-39348D01*
X21697Y-39363D01*
X21686Y-39383D01*
X21668Y-39413D01*
X21648Y-39448D01*
X21621Y-39489D01*
X21586Y-39530D01*
X21548Y-39577D01*
X21542Y-39583D01*
X21528Y-39600D01*
X21501Y-39627D01*
X21484Y-39644D01*
X21463Y-39665D01*
X21440Y-39688D01*
X21410Y-39714D01*
X21381Y-39741D01*
X21349Y-39773D01*
X21314Y-39805D01*
X21273Y-39840D01*
X21232Y-39875D01*
X21185Y-39916D01*
X21182Y-39919D01*
X21176Y-39925D01*
X21164Y-39934D01*
X21150Y-39946D01*
X21115Y-39975D01*
X21071Y-40013D01*
X21027Y-40054D01*
X20980Y-40095D01*
X20942Y-40130D01*
X20927Y-40145D01*
X20913Y-40160D01*
X20910Y-40162D01*
X20904Y-40171D01*
X20892Y-40183D01*
X20877Y-40201D01*
X20845Y-40239D01*
X20813Y-40285D01*
X21759D01*
Y-40511D01*
X20485D01*
Y-40508D01*
Y-40496D01*
Y-40479D01*
X20488Y-40458D01*
X20491Y-40435D01*
X20494Y-40408D01*
X20503Y-40379D01*
X20511Y-40350D01*
Y-40347D01*
X20514Y-40344D01*
X20520Y-40326D01*
X20532Y-40303D01*
X20549Y-40268D01*
X20570Y-40230D01*
X20599Y-40186D01*
X20629Y-40142D01*
X20667Y-40095D01*
Y-40092D01*
X20672Y-40089D01*
X20687Y-40072D01*
X20711Y-40045D01*
X20746Y-40010D01*
X20790Y-39969D01*
X20842Y-39919D01*
X20907Y-39864D01*
X20977Y-39802D01*
X20980Y-39799D01*
X20992Y-39791D01*
X21006Y-39779D01*
X21027Y-39758D01*
X21053Y-39738D01*
X21082Y-39711D01*
X21147Y-39656D01*
X21217Y-39588D01*
X21287Y-39521D01*
X21323Y-39489D01*
X21352Y-39457D01*
X21378Y-39424D01*
X21402Y-39395D01*
Y-39392D01*
X21408Y-39389D01*
X21413Y-39381D01*
X21419Y-39369D01*
X21437Y-39340D01*
X21457Y-39301D01*
X21478Y-39258D01*
X21495Y-39211D01*
X21507Y-39158D01*
X21513Y-39108D01*
Y-39105D01*
Y-39102D01*
X21510Y-39085D01*
X21507Y-39058D01*
X21501Y-39026D01*
X21487Y-38988D01*
X21469Y-38950D01*
X21446Y-38909D01*
X21410Y-38871D01*
X21405Y-38868D01*
X21393Y-38856D01*
X21369Y-38842D01*
X21340Y-38821D01*
X21302Y-38804D01*
X21258Y-38789D01*
X21205Y-38777D01*
X21147Y-38774D01*
X21129D01*
X21118Y-38777D01*
X21088Y-38780D01*
X21050Y-38786D01*
X21006Y-38801D01*
X20959Y-38818D01*
X20916Y-38845D01*
X20875Y-38880D01*
X20872Y-38886D01*
X20860Y-38897D01*
X20842Y-38921D01*
X20825Y-38953D01*
X20804Y-38994D01*
X20790Y-39041D01*
X20778Y-39096D01*
X20772Y-39161D01*
X20529Y-39135D01*
Y-39132D01*
Y-39123D01*
X20532Y-39108D01*
X20535Y-39091D01*
X20541Y-39067D01*
X20544Y-39041D01*
X20561Y-38982D01*
X20585Y-38915D01*
X20617Y-38848D01*
X20661Y-38780D01*
X20684Y-38751D01*
X20713Y-38722D01*
X20716Y-38719D01*
X20722Y-38716D01*
X20731Y-38707D01*
X20743Y-38698D01*
X20760Y-38689D01*
X20781Y-38675D01*
X20804Y-38663D01*
X20831Y-38648D01*
X20860Y-38637D01*
X20892Y-38622D01*
X20930Y-38610D01*
X20968Y-38602D01*
X21056Y-38584D01*
X21103Y-38581D01*
X21153Y-38578D01*
X21179D01*
X21200Y-38581D01*
D02*
G37*
G36*
X15260Y-39088D02*
X15301Y-39091D01*
X15348Y-39096D01*
X15398Y-39102D01*
X15445Y-39114D01*
X15489Y-39129D01*
X15495Y-39132D01*
X15506Y-39135D01*
X15527Y-39146D01*
X15550Y-39158D01*
X15577Y-39173D01*
X15606Y-39190D01*
X15629Y-39211D01*
X15653Y-39234D01*
X15656Y-39237D01*
X15662Y-39246D01*
X15670Y-39258D01*
X15682Y-39278D01*
X15694Y-39301D01*
X15706Y-39328D01*
X15717Y-39360D01*
X15726Y-39395D01*
Y-39398D01*
X15729Y-39407D01*
X15732Y-39422D01*
X15735Y-39445D01*
Y-39474D01*
X15738Y-39512D01*
X15741Y-39556D01*
Y-39612D01*
Y-39928D01*
Y-39931D01*
Y-39943D01*
Y-39960D01*
Y-39981D01*
Y-40007D01*
Y-40037D01*
X15744Y-40104D01*
Y-40177D01*
X15747Y-40244D01*
X15749Y-40277D01*
Y-40303D01*
X15752Y-40326D01*
X15755Y-40347D01*
Y-40350D01*
X15758Y-40362D01*
X15761Y-40379D01*
X15767Y-40400D01*
X15776Y-40423D01*
X15788Y-40452D01*
X15814Y-40511D01*
X15568D01*
X15565Y-40508D01*
X15562Y-40499D01*
X15556Y-40482D01*
X15547Y-40461D01*
X15539Y-40435D01*
X15533Y-40406D01*
X15527Y-40373D01*
X15521Y-40335D01*
X15515Y-40341D01*
X15498Y-40353D01*
X15474Y-40373D01*
X15439Y-40397D01*
X15401Y-40426D01*
X15357Y-40452D01*
X15313Y-40476D01*
X15266Y-40496D01*
X15260Y-40499D01*
X15246Y-40502D01*
X15222Y-40511D01*
X15190Y-40520D01*
X15149Y-40529D01*
X15105Y-40534D01*
X15058Y-40540D01*
X15006Y-40543D01*
X14985D01*
X14967Y-40540D01*
X14950D01*
X14927Y-40537D01*
X14877Y-40529D01*
X14818Y-40517D01*
X14762Y-40496D01*
X14704Y-40470D01*
X14654Y-40432D01*
X14648Y-40426D01*
X14634Y-40411D01*
X14616Y-40388D01*
X14593Y-40353D01*
X14569Y-40312D01*
X14552Y-40265D01*
X14537Y-40206D01*
X14531Y-40145D01*
Y-40139D01*
Y-40127D01*
X14534Y-40107D01*
X14537Y-40083D01*
X14543Y-40054D01*
X14549Y-40022D01*
X14560Y-39990D01*
X14575Y-39957D01*
X14578Y-39955D01*
X14584Y-39943D01*
X14593Y-39928D01*
X14607Y-39908D01*
X14625Y-39887D01*
X14648Y-39864D01*
X14672Y-39843D01*
X14698Y-39823D01*
X14701Y-39820D01*
X14713Y-39814D01*
X14727Y-39805D01*
X14748Y-39793D01*
X14774Y-39779D01*
X14801Y-39767D01*
X14833Y-39755D01*
X14868Y-39744D01*
X14871D01*
X14883Y-39741D01*
X14897Y-39738D01*
X14921Y-39732D01*
X14950Y-39726D01*
X14988Y-39720D01*
X15029Y-39714D01*
X15079Y-39709D01*
X15082D01*
X15090Y-39706D01*
X15105D01*
X15126Y-39703D01*
X15149Y-39700D01*
X15175Y-39697D01*
X15240Y-39685D01*
X15307Y-39673D01*
X15378Y-39662D01*
X15445Y-39644D01*
X15474Y-39635D01*
X15501Y-39627D01*
Y-39624D01*
Y-39618D01*
X15503Y-39600D01*
Y-39580D01*
Y-39571D01*
Y-39565D01*
Y-39562D01*
Y-39559D01*
Y-39542D01*
X15501Y-39515D01*
X15495Y-39486D01*
X15486Y-39454D01*
X15474Y-39419D01*
X15460Y-39389D01*
X15436Y-39363D01*
X15433Y-39360D01*
X15419Y-39351D01*
X15398Y-39337D01*
X15369Y-39322D01*
X15331Y-39307D01*
X15284Y-39293D01*
X15228Y-39284D01*
X15167Y-39281D01*
X15140D01*
X15111Y-39284D01*
X15073Y-39287D01*
X15032Y-39296D01*
X14994Y-39304D01*
X14953Y-39319D01*
X14921Y-39340D01*
X14918Y-39342D01*
X14909Y-39351D01*
X14894Y-39366D01*
X14877Y-39386D01*
X14856Y-39416D01*
X14839Y-39451D01*
X14818Y-39495D01*
X14804Y-39545D01*
X14572Y-39512D01*
Y-39509D01*
X14575Y-39506D01*
X14578Y-39489D01*
X14587Y-39463D01*
X14596Y-39427D01*
X14610Y-39389D01*
X14628Y-39351D01*
X14648Y-39310D01*
X14675Y-39275D01*
X14678Y-39272D01*
X14689Y-39260D01*
X14704Y-39243D01*
X14727Y-39222D01*
X14757Y-39202D01*
X14795Y-39178D01*
X14836Y-39155D01*
X14883Y-39135D01*
X14885D01*
X14888Y-39132D01*
X14897Y-39129D01*
X14906Y-39126D01*
X14935Y-39120D01*
X14973Y-39108D01*
X15020Y-39099D01*
X15073Y-39094D01*
X15134Y-39088D01*
X15199Y-39085D01*
X15228D01*
X15260Y-39088D01*
D02*
G37*
G36*
X13392Y-40285D02*
X14338D01*
Y-40511D01*
X13137D01*
Y-38587D01*
X13392D01*
Y-40285D01*
D02*
G37*
G36*
X11266Y-40511D02*
X11028D01*
Y-39117D01*
X11266D01*
Y-40511D01*
D02*
G37*
G36*
X18066Y-39088D02*
X18089Y-39091D01*
X18119Y-39094D01*
X18148Y-39099D01*
X18183Y-39108D01*
X18253Y-39132D01*
X18291Y-39146D01*
X18330Y-39167D01*
X18368Y-39187D01*
X18406Y-39214D01*
X18441Y-39243D01*
X18476Y-39278D01*
X18479Y-39281D01*
X18485Y-39287D01*
X18494Y-39299D01*
X18505Y-39313D01*
X18517Y-39334D01*
X18532Y-39357D01*
X18549Y-39383D01*
X18567Y-39416D01*
X18581Y-39454D01*
X18599Y-39492D01*
X18614Y-39536D01*
X18628Y-39586D01*
X18637Y-39635D01*
X18646Y-39691D01*
X18652Y-39750D01*
X18655Y-39814D01*
Y-39817D01*
Y-39829D01*
Y-39849D01*
X18652Y-39875D01*
X17615D01*
Y-39878D01*
Y-39884D01*
X17618Y-39899D01*
Y-39914D01*
X17621Y-39934D01*
X17624Y-39955D01*
X17635Y-40007D01*
X17653Y-40063D01*
X17674Y-40121D01*
X17706Y-40180D01*
X17744Y-40230D01*
X17750Y-40236D01*
X17764Y-40247D01*
X17791Y-40268D01*
X17823Y-40288D01*
X17867Y-40312D01*
X17917Y-40332D01*
X17972Y-40344D01*
X18034Y-40350D01*
X18057D01*
X18081Y-40347D01*
X18110Y-40341D01*
X18145Y-40332D01*
X18183Y-40321D01*
X18221Y-40306D01*
X18256Y-40283D01*
X18259Y-40280D01*
X18271Y-40268D01*
X18289Y-40253D01*
X18309Y-40227D01*
X18332Y-40198D01*
X18356Y-40160D01*
X18379Y-40113D01*
X18403Y-40060D01*
X18646Y-40092D01*
Y-40095D01*
X18643Y-40101D01*
X18640Y-40113D01*
X18634Y-40127D01*
X18628Y-40145D01*
X18619Y-40165D01*
X18596Y-40215D01*
X18567Y-40268D01*
X18532Y-40324D01*
X18485Y-40379D01*
X18432Y-40426D01*
X18429D01*
X18426Y-40432D01*
X18417Y-40438D01*
X18403Y-40444D01*
X18388Y-40452D01*
X18371Y-40464D01*
X18350Y-40473D01*
X18324Y-40485D01*
X18268Y-40505D01*
X18198Y-40526D01*
X18122Y-40537D01*
X18034Y-40543D01*
X18004D01*
X17984Y-40540D01*
X17958Y-40537D01*
X17928Y-40534D01*
X17896Y-40529D01*
X17858Y-40520D01*
X17782Y-40496D01*
X17741Y-40482D01*
X17703Y-40464D01*
X17662Y-40444D01*
X17624Y-40417D01*
X17586Y-40388D01*
X17551Y-40356D01*
X17548Y-40353D01*
X17542Y-40347D01*
X17533Y-40335D01*
X17524Y-40321D01*
X17510Y-40303D01*
X17495Y-40280D01*
X17477Y-40250D01*
X17463Y-40218D01*
X17445Y-40183D01*
X17428Y-40145D01*
X17413Y-40101D01*
X17401Y-40054D01*
X17389Y-40004D01*
X17381Y-39949D01*
X17375Y-39890D01*
X17372Y-39829D01*
Y-39826D01*
Y-39814D01*
Y-39793D01*
X17375Y-39770D01*
X17378Y-39741D01*
X17381Y-39706D01*
X17387Y-39668D01*
X17395Y-39627D01*
X17416Y-39539D01*
X17430Y-39495D01*
X17448Y-39448D01*
X17469Y-39404D01*
X17492Y-39360D01*
X17518Y-39319D01*
X17551Y-39281D01*
X17553Y-39278D01*
X17559Y-39272D01*
X17568Y-39263D01*
X17583Y-39249D01*
X17600Y-39234D01*
X17624Y-39219D01*
X17647Y-39202D01*
X17676Y-39181D01*
X17709Y-39164D01*
X17744Y-39146D01*
X17782Y-39132D01*
X17826Y-39114D01*
X17870Y-39102D01*
X17917Y-39094D01*
X17966Y-39088D01*
X18019Y-39085D01*
X18045D01*
X18066Y-39088D01*
D02*
G37*
G36*
X52167Y-38558D02*
X52190D01*
X52240Y-38563D01*
X52296Y-38572D01*
X52360Y-38584D01*
X52425Y-38602D01*
X52489Y-38625D01*
X52492D01*
X52498Y-38628D01*
X52507Y-38631D01*
X52518Y-38637D01*
X52548Y-38651D01*
X52586Y-38675D01*
X52630Y-38701D01*
X52674Y-38733D01*
X52717Y-38768D01*
X52756Y-38812D01*
X52758Y-38818D01*
X52770Y-38833D01*
X52788Y-38859D01*
X52811Y-38897D01*
X52835Y-38941D01*
X52858Y-38994D01*
X52881Y-39055D01*
X52902Y-39126D01*
X52671Y-39190D01*
Y-39187D01*
X52668Y-39184D01*
X52665Y-39167D01*
X52653Y-39140D01*
X52641Y-39105D01*
X52627Y-39070D01*
X52609Y-39032D01*
X52589Y-38994D01*
X52565Y-38959D01*
X52562Y-38956D01*
X52553Y-38944D01*
X52539Y-38930D01*
X52518Y-38909D01*
X52492Y-38889D01*
X52460Y-38865D01*
X52425Y-38845D01*
X52381Y-38824D01*
X52375Y-38821D01*
X52360Y-38815D01*
X52334Y-38807D01*
X52302Y-38798D01*
X52263Y-38789D01*
X52220Y-38780D01*
X52170Y-38774D01*
X52117Y-38771D01*
X52088D01*
X52056Y-38774D01*
X52015Y-38777D01*
X51968Y-38786D01*
X51915Y-38795D01*
X51865Y-38809D01*
X51815Y-38827D01*
X51810Y-38830D01*
X51795Y-38836D01*
X51771Y-38848D01*
X51742Y-38865D01*
X51710Y-38886D01*
X51675Y-38909D01*
X51643Y-38935D01*
X51610Y-38968D01*
X51607Y-38971D01*
X51599Y-38982D01*
X51584Y-39000D01*
X51566Y-39023D01*
X51546Y-39053D01*
X51525Y-39085D01*
X51508Y-39120D01*
X51490Y-39158D01*
Y-39161D01*
X51487Y-39167D01*
X51484Y-39176D01*
X51479Y-39190D01*
X51473Y-39205D01*
X51467Y-39225D01*
X51455Y-39272D01*
X51441Y-39331D01*
X51429Y-39395D01*
X51420Y-39468D01*
X51417Y-39545D01*
Y-39547D01*
Y-39556D01*
Y-39568D01*
X51420Y-39588D01*
Y-39609D01*
X51423Y-39635D01*
X51426Y-39665D01*
X51429Y-39694D01*
X51438Y-39764D01*
X51455Y-39837D01*
X51476Y-39908D01*
X51505Y-39978D01*
Y-39981D01*
X51508Y-39987D01*
X51514Y-39996D01*
X51523Y-40007D01*
X51543Y-40037D01*
X51569Y-40075D01*
X51605Y-40116D01*
X51648Y-40160D01*
X51701Y-40201D01*
X51760Y-40236D01*
X51763D01*
X51769Y-40239D01*
X51777Y-40244D01*
X51789Y-40247D01*
X51804Y-40253D01*
X51824Y-40262D01*
X51868Y-40277D01*
X51924Y-40291D01*
X51982Y-40306D01*
X52050Y-40315D01*
X52120Y-40318D01*
X52149D01*
X52181Y-40315D01*
X52222Y-40309D01*
X52269Y-40303D01*
X52325Y-40291D01*
X52384Y-40277D01*
X52442Y-40256D01*
X52445D01*
X52448Y-40253D01*
X52457Y-40250D01*
X52468Y-40244D01*
X52498Y-40233D01*
X52533Y-40215D01*
X52571Y-40195D01*
X52609Y-40171D01*
X52647Y-40145D01*
X52682Y-40119D01*
Y-39755D01*
X52117D01*
Y-39530D01*
X52931D01*
Y-40244D01*
X52928Y-40247D01*
X52922Y-40250D01*
X52914Y-40259D01*
X52899Y-40268D01*
X52881Y-40283D01*
X52861Y-40294D01*
X52811Y-40329D01*
X52753Y-40365D01*
X52688Y-40403D01*
X52615Y-40438D01*
X52542Y-40470D01*
X52539D01*
X52533Y-40473D01*
X52521Y-40476D01*
X52507Y-40482D01*
X52489Y-40488D01*
X52468Y-40493D01*
X52442Y-40499D01*
X52416Y-40505D01*
X52354Y-40520D01*
X52287Y-40531D01*
X52211Y-40540D01*
X52135Y-40543D01*
X52108D01*
X52088Y-40540D01*
X52061D01*
X52032Y-40537D01*
X52000Y-40534D01*
X51965Y-40529D01*
X51883Y-40514D01*
X51798Y-40493D01*
X51707Y-40464D01*
X51619Y-40423D01*
X51616Y-40420D01*
X51610Y-40417D01*
X51596Y-40411D01*
X51581Y-40400D01*
X51561Y-40388D01*
X51540Y-40373D01*
X51490Y-40335D01*
X51432Y-40285D01*
X51376Y-40224D01*
X51320Y-40154D01*
X51271Y-40075D01*
Y-40072D01*
X51265Y-40063D01*
X51259Y-40051D01*
X51253Y-40034D01*
X51244Y-40013D01*
X51233Y-39987D01*
X51224Y-39957D01*
X51212Y-39922D01*
X51200Y-39887D01*
X51192Y-39846D01*
X51171Y-39758D01*
X51159Y-39662D01*
X51154Y-39559D01*
Y-39556D01*
Y-39547D01*
Y-39533D01*
X51156Y-39512D01*
Y-39486D01*
X51159Y-39457D01*
X51162Y-39424D01*
X51168Y-39389D01*
X51183Y-39307D01*
X51203Y-39219D01*
X51233Y-39126D01*
X51271Y-39035D01*
Y-39032D01*
X51277Y-39023D01*
X51282Y-39012D01*
X51291Y-38994D01*
X51306Y-38973D01*
X51320Y-38953D01*
X51356Y-38897D01*
X51405Y-38839D01*
X51461Y-38780D01*
X51531Y-38725D01*
X51566Y-38698D01*
X51607Y-38675D01*
X51610D01*
X51616Y-38669D01*
X51631Y-38663D01*
X51646Y-38657D01*
X51666Y-38645D01*
X51692Y-38637D01*
X51722Y-38625D01*
X51754Y-38613D01*
X51789Y-38604D01*
X51827Y-38593D01*
X51915Y-38572D01*
X52009Y-38561D01*
X52114Y-38555D01*
X52149D01*
X52167Y-38558D01*
D02*
G37*
G36*
X53892Y-38581D02*
X53915Y-38584D01*
X53942Y-38587D01*
X53971Y-38590D01*
X54003Y-38599D01*
X54073Y-38616D01*
X54147Y-38643D01*
X54185Y-38660D01*
X54220Y-38681D01*
X54252Y-38707D01*
X54284Y-38733D01*
X54287Y-38736D01*
X54290Y-38739D01*
X54299Y-38748D01*
X54311Y-38760D01*
X54322Y-38777D01*
X54337Y-38795D01*
X54366Y-38839D01*
X54396Y-38894D01*
X54422Y-38959D01*
X54442Y-39032D01*
X54445Y-39073D01*
X54448Y-39114D01*
Y-39120D01*
Y-39135D01*
X54445Y-39158D01*
X54442Y-39187D01*
X54437Y-39222D01*
X54428Y-39260D01*
X54416Y-39301D01*
X54398Y-39342D01*
X54396Y-39348D01*
X54390Y-39363D01*
X54378Y-39383D01*
X54360Y-39413D01*
X54340Y-39448D01*
X54314Y-39489D01*
X54278Y-39530D01*
X54240Y-39577D01*
X54234Y-39583D01*
X54220Y-39600D01*
X54193Y-39627D01*
X54176Y-39644D01*
X54155Y-39665D01*
X54132Y-39688D01*
X54103Y-39714D01*
X54073Y-39741D01*
X54041Y-39773D01*
X54006Y-39805D01*
X53965Y-39840D01*
X53924Y-39875D01*
X53877Y-39916D01*
X53874Y-39919D01*
X53868Y-39925D01*
X53857Y-39934D01*
X53842Y-39946D01*
X53807Y-39975D01*
X53763Y-40013D01*
X53719Y-40054D01*
X53672Y-40095D01*
X53634Y-40130D01*
X53619Y-40145D01*
X53605Y-40160D01*
X53602Y-40162D01*
X53596Y-40171D01*
X53584Y-40183D01*
X53570Y-40201D01*
X53537Y-40239D01*
X53505Y-40285D01*
X54451D01*
Y-40511D01*
X53177D01*
Y-40508D01*
Y-40496D01*
Y-40479D01*
X53180Y-40458D01*
X53183Y-40435D01*
X53186Y-40408D01*
X53195Y-40379D01*
X53204Y-40350D01*
Y-40347D01*
X53207Y-40344D01*
X53212Y-40326D01*
X53224Y-40303D01*
X53242Y-40268D01*
X53262Y-40230D01*
X53291Y-40186D01*
X53321Y-40142D01*
X53359Y-40095D01*
Y-40092D01*
X53365Y-40089D01*
X53379Y-40072D01*
X53403Y-40045D01*
X53438Y-40010D01*
X53482Y-39969D01*
X53535Y-39919D01*
X53599Y-39864D01*
X53669Y-39802D01*
X53672Y-39799D01*
X53684Y-39791D01*
X53699Y-39779D01*
X53719Y-39758D01*
X53745Y-39738D01*
X53775Y-39711D01*
X53839Y-39656D01*
X53909Y-39588D01*
X53980Y-39521D01*
X54015Y-39489D01*
X54044Y-39457D01*
X54070Y-39424D01*
X54094Y-39395D01*
Y-39392D01*
X54100Y-39389D01*
X54106Y-39381D01*
X54111Y-39369D01*
X54129Y-39340D01*
X54150Y-39301D01*
X54170Y-39258D01*
X54188Y-39211D01*
X54199Y-39158D01*
X54205Y-39108D01*
Y-39105D01*
Y-39102D01*
X54202Y-39085D01*
X54199Y-39058D01*
X54193Y-39026D01*
X54179Y-38988D01*
X54161Y-38950D01*
X54138Y-38909D01*
X54103Y-38871D01*
X54097Y-38868D01*
X54085Y-38856D01*
X54062Y-38842D01*
X54032Y-38821D01*
X53994Y-38804D01*
X53950Y-38789D01*
X53898Y-38777D01*
X53839Y-38774D01*
X53822D01*
X53810Y-38777D01*
X53781Y-38780D01*
X53742Y-38786D01*
X53699Y-38801D01*
X53652Y-38818D01*
X53608Y-38845D01*
X53567Y-38880D01*
X53564Y-38886D01*
X53552Y-38897D01*
X53535Y-38921D01*
X53517Y-38953D01*
X53496Y-38994D01*
X53482Y-39041D01*
X53470Y-39096D01*
X53464Y-39161D01*
X53221Y-39135D01*
Y-39132D01*
Y-39123D01*
X53224Y-39108D01*
X53227Y-39091D01*
X53233Y-39067D01*
X53236Y-39041D01*
X53253Y-38982D01*
X53277Y-38915D01*
X53309Y-38848D01*
X53353Y-38780D01*
X53376Y-38751D01*
X53406Y-38722D01*
X53409Y-38719D01*
X53414Y-38716D01*
X53423Y-38707D01*
X53435Y-38698D01*
X53453Y-38689D01*
X53473Y-38675D01*
X53496Y-38663D01*
X53523Y-38648D01*
X53552Y-38637D01*
X53584Y-38622D01*
X53622Y-38610D01*
X53660Y-38602D01*
X53748Y-38584D01*
X53795Y-38581D01*
X53845Y-38578D01*
X53871D01*
X53892Y-38581D01*
D02*
G37*
G36*
X50776Y-40511D02*
X50506D01*
Y-40242D01*
X50776D01*
Y-40511D01*
D02*
G37*
%LPC*%
G36*
X26315Y15143D02*
Y14125D01*
X27333D01*
X27310Y14300D01*
X27195Y14580D01*
X27010Y14820D01*
X26770Y15005D01*
X26490Y15120D01*
X26315Y15143D01*
D02*
G37*
G36*
X26065Y15143D02*
X25890Y15120D01*
X25610Y15005D01*
X25370Y14820D01*
X25185Y14580D01*
X25070Y14300D01*
X25047Y14125D01*
X26065D01*
Y15143D01*
D02*
G37*
G36*
X27333Y13875D02*
X26315D01*
Y12857D01*
X26490Y12880D01*
X26770Y12995D01*
X27010Y13180D01*
X27195Y13420D01*
X27310Y13700D01*
X27333Y13875D01*
D02*
G37*
G36*
X26065D02*
X25047D01*
X25070Y13700D01*
X25185Y13420D01*
X25370Y13180D01*
X25610Y12995D01*
X25890Y12880D01*
X26065Y12857D01*
Y13875D01*
D02*
G37*
G36*
X54580Y15156D02*
X53680D01*
X53497Y15132D01*
X53327Y15061D01*
X53181Y14949D01*
X53069Y14803D01*
X52998Y14633D01*
X52974Y14450D01*
Y13550D01*
X52998Y13367D01*
X53069Y13197D01*
X53181Y13051D01*
X53327Y12939D01*
X53497Y12868D01*
X53680Y12844D01*
X54580D01*
X54763Y12868D01*
X54933Y12939D01*
X55079Y13051D01*
X55191Y13197D01*
X55262Y13367D01*
X55286Y13550D01*
Y14450D01*
X55262Y14633D01*
X55191Y14803D01*
X55079Y14949D01*
X54933Y15061D01*
X54763Y15132D01*
X54580Y15156D01*
D02*
G37*
G36*
X51590Y15160D02*
X51290Y15120D01*
X51010Y15005D01*
X50770Y14820D01*
X50585Y14580D01*
X50470Y14300D01*
X50430Y14000D01*
X50470Y13700D01*
X50585Y13420D01*
X50770Y13180D01*
X51010Y12995D01*
X51290Y12880D01*
X51590Y12840D01*
X51890Y12880D01*
X52170Y12995D01*
X52410Y13180D01*
X52595Y13420D01*
X52710Y13700D01*
X52750Y14000D01*
X52710Y14300D01*
X52595Y14580D01*
X52410Y14820D01*
X52170Y15005D01*
X51890Y15120D01*
X51590Y15160D01*
D02*
G37*
G36*
X49050D02*
X48750Y15120D01*
X48470Y15005D01*
X48230Y14820D01*
X48045Y14580D01*
X47930Y14300D01*
X47890Y14000D01*
X47930Y13700D01*
X48045Y13420D01*
X48230Y13180D01*
X48470Y12995D01*
X48750Y12880D01*
X49050Y12840D01*
X49350Y12880D01*
X49630Y12995D01*
X49870Y13180D01*
X50055Y13420D01*
X50170Y13700D01*
X50210Y14000D01*
X50170Y14300D01*
X50055Y14580D01*
X49870Y14820D01*
X49630Y15005D01*
X49350Y15120D01*
X49050Y15160D01*
D02*
G37*
G36*
X46510D02*
X46210Y15120D01*
X45930Y15005D01*
X45690Y14820D01*
X45505Y14580D01*
X45390Y14300D01*
X45350Y14000D01*
X45390Y13700D01*
X45505Y13420D01*
X45690Y13180D01*
X45930Y12995D01*
X46210Y12880D01*
X46510Y12840D01*
X46810Y12880D01*
X47090Y12995D01*
X47330Y13180D01*
X47515Y13420D01*
X47630Y13700D01*
X47670Y14000D01*
X47630Y14300D01*
X47515Y14580D01*
X47330Y14820D01*
X47090Y15005D01*
X46810Y15120D01*
X46510Y15160D01*
D02*
G37*
G36*
X43970D02*
X43670Y15120D01*
X43390Y15005D01*
X43150Y14820D01*
X42965Y14580D01*
X42850Y14300D01*
X42810Y14000D01*
X42850Y13700D01*
X42965Y13420D01*
X43150Y13180D01*
X43390Y12995D01*
X43670Y12880D01*
X43970Y12840D01*
X44270Y12880D01*
X44550Y12995D01*
X44790Y13180D01*
X44975Y13420D01*
X45090Y13700D01*
X45130Y14000D01*
X45090Y14300D01*
X44975Y14580D01*
X44790Y14820D01*
X44550Y15005D01*
X44270Y15120D01*
X43970Y15160D01*
D02*
G37*
G36*
X41430D02*
X41130Y15120D01*
X40850Y15005D01*
X40610Y14820D01*
X40425Y14580D01*
X40310Y14300D01*
X40270Y14000D01*
X40310Y13700D01*
X40425Y13420D01*
X40610Y13180D01*
X40850Y12995D01*
X41130Y12880D01*
X41430Y12840D01*
X41730Y12880D01*
X42010Y12995D01*
X42250Y13180D01*
X42435Y13420D01*
X42550Y13700D01*
X42590Y14000D01*
X42550Y14300D01*
X42435Y14580D01*
X42250Y14820D01*
X42010Y15005D01*
X41730Y15120D01*
X41430Y15160D01*
D02*
G37*
G36*
X38890D02*
X38590Y15120D01*
X38310Y15005D01*
X38070Y14820D01*
X37885Y14580D01*
X37770Y14300D01*
X37730Y14000D01*
X37770Y13700D01*
X37885Y13420D01*
X38070Y13180D01*
X38310Y12995D01*
X38590Y12880D01*
X38890Y12840D01*
X39190Y12880D01*
X39470Y12995D01*
X39710Y13180D01*
X39895Y13420D01*
X40010Y13700D01*
X40050Y14000D01*
X40010Y14300D01*
X39895Y14580D01*
X39710Y14820D01*
X39470Y15005D01*
X39190Y15120D01*
X38890Y15160D01*
D02*
G37*
G36*
X36350D02*
X36050Y15120D01*
X35770Y15005D01*
X35530Y14820D01*
X35345Y14580D01*
X35230Y14300D01*
X35190Y14000D01*
X35230Y13700D01*
X35345Y13420D01*
X35530Y13180D01*
X35770Y12995D01*
X36050Y12880D01*
X36350Y12840D01*
X36650Y12880D01*
X36930Y12995D01*
X37170Y13180D01*
X37355Y13420D01*
X37470Y13700D01*
X37510Y14000D01*
X37470Y14300D01*
X37355Y14580D01*
X37170Y14820D01*
X36930Y15005D01*
X36650Y15120D01*
X36350Y15160D01*
D02*
G37*
G36*
X33810D02*
X33510Y15120D01*
X33230Y15005D01*
X32990Y14820D01*
X32805Y14580D01*
X32690Y14300D01*
X32650Y14000D01*
X32690Y13700D01*
X32805Y13420D01*
X32990Y13180D01*
X33230Y12995D01*
X33510Y12880D01*
X33810Y12840D01*
X34110Y12880D01*
X34390Y12995D01*
X34630Y13180D01*
X34815Y13420D01*
X34930Y13700D01*
X34970Y14000D01*
X34930Y14300D01*
X34815Y14580D01*
X34630Y14820D01*
X34390Y15005D01*
X34110Y15120D01*
X33810Y15160D01*
D02*
G37*
G36*
X31270D02*
X30970Y15120D01*
X30690Y15005D01*
X30450Y14820D01*
X30265Y14580D01*
X30150Y14300D01*
X30110Y14000D01*
X30150Y13700D01*
X30265Y13420D01*
X30450Y13180D01*
X30690Y12995D01*
X30970Y12880D01*
X31270Y12840D01*
X31570Y12880D01*
X31850Y12995D01*
X32090Y13180D01*
X32275Y13420D01*
X32390Y13700D01*
X32430Y14000D01*
X32390Y14300D01*
X32275Y14580D01*
X32090Y14820D01*
X31850Y15005D01*
X31570Y15120D01*
X31270Y15160D01*
D02*
G37*
G36*
X23650D02*
X23350Y15120D01*
X23070Y15005D01*
X22830Y14820D01*
X22645Y14580D01*
X22530Y14300D01*
X22490Y14000D01*
X22530Y13700D01*
X22645Y13420D01*
X22830Y13180D01*
X23070Y12995D01*
X23350Y12880D01*
X23650Y12840D01*
X23950Y12880D01*
X24230Y12995D01*
X24470Y13180D01*
X24655Y13420D01*
X24770Y13700D01*
X24810Y14000D01*
X24770Y14300D01*
X24655Y14580D01*
X24470Y14820D01*
X24230Y15005D01*
X23950Y15120D01*
X23650Y15160D01*
D02*
G37*
G36*
X21110D02*
X20810Y15120D01*
X20530Y15005D01*
X20290Y14820D01*
X20105Y14580D01*
X19990Y14300D01*
X19950Y14000D01*
X19990Y13700D01*
X20105Y13420D01*
X20290Y13180D01*
X20530Y12995D01*
X20810Y12880D01*
X21110Y12840D01*
X21410Y12880D01*
X21690Y12995D01*
X21930Y13180D01*
X22115Y13420D01*
X22230Y13700D01*
X22270Y14000D01*
X22230Y14300D01*
X22115Y14580D01*
X21930Y14820D01*
X21690Y15005D01*
X21410Y15120D01*
X21110Y15160D01*
D02*
G37*
G36*
X18570D02*
X18270Y15120D01*
X17990Y15005D01*
X17750Y14820D01*
X17565Y14580D01*
X17450Y14300D01*
X17410Y14000D01*
X17450Y13700D01*
X17565Y13420D01*
X17750Y13180D01*
X17990Y12995D01*
X18270Y12880D01*
X18570Y12840D01*
X18870Y12880D01*
X19150Y12995D01*
X19390Y13180D01*
X19575Y13420D01*
X19690Y13700D01*
X19730Y14000D01*
X19690Y14300D01*
X19575Y14580D01*
X19390Y14820D01*
X19150Y15005D01*
X18870Y15120D01*
X18570Y15160D01*
D02*
G37*
G36*
X16030D02*
X15730Y15120D01*
X15450Y15005D01*
X15210Y14820D01*
X15025Y14580D01*
X14910Y14300D01*
X14870Y14000D01*
X14910Y13700D01*
X15025Y13420D01*
X15210Y13180D01*
X15450Y12995D01*
X15730Y12880D01*
X16030Y12840D01*
X16330Y12880D01*
X16610Y12995D01*
X16850Y13180D01*
X17035Y13420D01*
X17150Y13700D01*
X17190Y14000D01*
X17150Y14300D01*
X17035Y14580D01*
X16850Y14820D01*
X16610Y15005D01*
X16330Y15120D01*
X16030Y15160D01*
D02*
G37*
G36*
X13490D02*
X13190Y15120D01*
X12910Y15005D01*
X12670Y14820D01*
X12485Y14580D01*
X12370Y14300D01*
X12330Y14000D01*
X12370Y13700D01*
X12485Y13420D01*
X12670Y13180D01*
X12910Y12995D01*
X13190Y12880D01*
X13490Y12840D01*
X13790Y12880D01*
X14070Y12995D01*
X14310Y13180D01*
X14495Y13420D01*
X14610Y13700D01*
X14650Y14000D01*
X14610Y14300D01*
X14495Y14580D01*
X14310Y14820D01*
X14070Y15005D01*
X13790Y15120D01*
X13490Y15160D01*
D02*
G37*
G36*
X10950D02*
X10650Y15120D01*
X10370Y15005D01*
X10130Y14820D01*
X9945Y14580D01*
X9830Y14300D01*
X9790Y14000D01*
X9830Y13700D01*
X9945Y13420D01*
X10130Y13180D01*
X10370Y12995D01*
X10650Y12880D01*
X10950Y12840D01*
X11250Y12880D01*
X11530Y12995D01*
X11770Y13180D01*
X11955Y13420D01*
X12070Y13700D01*
X12110Y14000D01*
X12070Y14300D01*
X11955Y14580D01*
X11770Y14820D01*
X11530Y15005D01*
X11250Y15120D01*
X10950Y15160D01*
D02*
G37*
G36*
X8410D02*
X8110Y15120D01*
X7830Y15005D01*
X7590Y14820D01*
X7405Y14580D01*
X7290Y14300D01*
X7250Y14000D01*
X7290Y13700D01*
X7405Y13420D01*
X7590Y13180D01*
X7830Y12995D01*
X8110Y12880D01*
X8410Y12840D01*
X8710Y12880D01*
X8990Y12995D01*
X9230Y13180D01*
X9415Y13420D01*
X9530Y13700D01*
X9570Y14000D01*
X9530Y14300D01*
X9415Y14580D01*
X9230Y14820D01*
X8990Y15005D01*
X8710Y15120D01*
X8410Y15160D01*
D02*
G37*
G36*
X5870D02*
X5570Y15120D01*
X5290Y15005D01*
X5050Y14820D01*
X4865Y14580D01*
X4750Y14300D01*
X4710Y14000D01*
X4750Y13700D01*
X4865Y13420D01*
X5050Y13180D01*
X5290Y12995D01*
X5570Y12880D01*
X5870Y12840D01*
X6170Y12880D01*
X6450Y12995D01*
X6690Y13180D01*
X6875Y13420D01*
X6990Y13700D01*
X7030Y14000D01*
X6990Y14300D01*
X6875Y14580D01*
X6690Y14820D01*
X6450Y15005D01*
X6170Y15120D01*
X5870Y15160D01*
D02*
G37*
G36*
X17028Y10787D02*
X16803Y10743D01*
X16613Y10616D01*
X16486Y10425D01*
X16441Y10201D01*
X16486Y9977D01*
X16613Y9786D01*
X16803Y9659D01*
X17028Y9615D01*
X17252Y9659D01*
X17442Y9786D01*
X17569Y9977D01*
X17614Y10201D01*
X17569Y10425D01*
X17442Y10616D01*
X17252Y10743D01*
X17028Y10787D01*
D02*
G37*
G36*
X5450Y10926D02*
X4550D01*
X4367Y10902D01*
X4197Y10831D01*
X4051Y10719D01*
X3939Y10573D01*
X3868Y10403D01*
X3844Y10220D01*
Y9320D01*
X3868Y9137D01*
X3939Y8967D01*
X4051Y8821D01*
X4197Y8709D01*
X4367Y8638D01*
X4550Y8614D01*
X5450D01*
X5633Y8638D01*
X5803Y8709D01*
X5949Y8821D01*
X6061Y8967D01*
X6132Y9137D01*
X6156Y9320D01*
Y10220D01*
X6132Y10403D01*
X6061Y10573D01*
X5949Y10719D01*
X5803Y10831D01*
X5633Y10902D01*
X5450Y10926D01*
D02*
G37*
G36*
X48427Y7781D02*
X48203Y7736D01*
X48013Y7609D01*
X47886Y7419D01*
X47841Y7195D01*
X47886Y6970D01*
X48013Y6780D01*
X48203Y6653D01*
X48427Y6608D01*
X48651Y6653D01*
X48842Y6780D01*
X48969Y6970D01*
X49013Y7195D01*
X48969Y7419D01*
X48842Y7609D01*
X48651Y7736D01*
X48427Y7781D01*
D02*
G37*
G36*
X5000Y8390D02*
X4700Y8350D01*
X4420Y8235D01*
X4180Y8050D01*
X3995Y7810D01*
X3880Y7530D01*
X3840Y7230D01*
X3880Y6930D01*
X3995Y6650D01*
X4180Y6410D01*
X4420Y6225D01*
X4700Y6110D01*
X5000Y6070D01*
X5300Y6110D01*
X5580Y6225D01*
X5820Y6410D01*
X6005Y6650D01*
X6120Y6930D01*
X6160Y7230D01*
X6120Y7530D01*
X6005Y7810D01*
X5820Y8050D01*
X5580Y8235D01*
X5300Y8350D01*
X5000Y8390D01*
D02*
G37*
G36*
X48427Y6381D02*
X48203Y6336D01*
X48013Y6209D01*
X47886Y6019D01*
X47841Y5794D01*
X47886Y5570D01*
X48013Y5380D01*
X48203Y5253D01*
X48427Y5208D01*
X48651Y5253D01*
X48842Y5380D01*
X48969Y5570D01*
X49013Y5794D01*
X48969Y6019D01*
X48842Y6209D01*
X48651Y6336D01*
X48427Y6381D01*
D02*
G37*
G36*
X28730Y15160D02*
X28430Y15120D01*
X28150Y15005D01*
X27910Y14820D01*
X27725Y14580D01*
X27610Y14300D01*
X27570Y14000D01*
X27610Y13700D01*
X27725Y13420D01*
X27872Y13229D01*
X27903Y13186D01*
X27929Y13128D01*
X27959Y13029D01*
X27988Y12895D01*
X28013Y12734D01*
X28073Y11750D01*
X28074Y11527D01*
Y11438D01*
X28097Y11268D01*
X28162Y11110D01*
X28266Y10974D01*
X29113Y10127D01*
Y4259D01*
Y2816D01*
X28570Y2272D01*
X28465Y2136D01*
X28400Y1978D01*
X28378Y1808D01*
Y1002D01*
X28400Y833D01*
X28463Y681D01*
Y-1083D01*
X28275Y-1270D01*
X28164Y-1224D01*
X28164Y1092D01*
X28159Y1116D01*
Y1141D01*
X28150Y1164D01*
X28145Y1189D01*
X28131Y1210D01*
X28121Y1233D01*
X28103Y1251D01*
X28089Y1272D01*
X28069Y1286D01*
X28051Y1303D01*
X27955Y1367D01*
X27901Y1449D01*
X27882Y1544D01*
X27901Y1640D01*
X27955Y1721D01*
X28051Y1785D01*
X28069Y1803D01*
X28089Y1817D01*
X28103Y1838D01*
X28121Y1855D01*
X28131Y1878D01*
X28145Y1899D01*
X28150Y1924D01*
X28159Y1947D01*
Y1972D01*
X28164Y1997D01*
Y2320D01*
X28179Y2397D01*
X28164Y2474D01*
X28164Y2577D01*
X28156Y2619D01*
X28150Y2661D01*
X28060Y2918D01*
X28038Y2955D01*
X28018Y2993D01*
X27848Y3206D01*
X27816Y3233D01*
X27785Y3263D01*
X27554Y3407D01*
X27514Y3423D01*
X27475Y3440D01*
X27342Y3470D01*
X27342Y3470D01*
X26708Y3614D01*
X26506Y3660D01*
X26486Y3660D01*
X26467Y3666D01*
X26054Y3694D01*
X26035Y3692D01*
X26026Y3693D01*
X25988Y3707D01*
X25921Y3782D01*
X25945Y3901D01*
X25900Y4125D01*
X25773Y4315D01*
X25583Y4442D01*
X25359Y4487D01*
X25134Y4442D01*
X24944Y4315D01*
X24817Y4125D01*
X24772Y3901D01*
X24817Y3676D01*
X24886Y3573D01*
X24841Y3425D01*
X23943Y3053D01*
X23912Y3032D01*
X23879Y3015D01*
X23871Y3005D01*
X23860Y2998D01*
X23839Y2967D01*
X23816Y2938D01*
X23812Y2926D01*
X23805Y2915D01*
X23798Y2878D01*
X23787Y2843D01*
X23773Y2699D01*
X23776Y2662D01*
Y2625D01*
X23781Y2613D01*
X23782Y2600D01*
X23800Y2567D01*
X23814Y2533D01*
X23823Y2524D01*
X23829Y2513D01*
X23858Y2489D01*
X23882Y2465D01*
X23937Y2382D01*
X23956Y2287D01*
X23937Y2191D01*
X23883Y2110D01*
X23802Y2056D01*
X23706Y2037D01*
X23611Y2056D01*
X23530Y2110D01*
X23475Y2191D01*
X23456Y2289D01*
Y2322D01*
X23460Y2359D01*
X23456Y2371D01*
Y2384D01*
X23442Y2419D01*
X23431Y2455D01*
X23423Y2464D01*
X23418Y2476D01*
X23391Y2502D01*
X23368Y2531D01*
X23256Y2623D01*
X23223Y2640D01*
X23192Y2661D01*
X23180Y2664D01*
X23169Y2670D01*
X23131Y2673D01*
X23095Y2681D01*
X23082Y2678D01*
X23070Y2679D01*
X23034Y2669D01*
X22997Y2661D01*
X20660Y1693D01*
X20660Y1693D01*
X20462Y1611D01*
X20451Y1604D01*
X20439Y1600D01*
X20060Y1398D01*
X20051Y1390D01*
X20039Y1385D01*
X19682Y1146D01*
X19673Y1137D01*
X19662Y1131D01*
X19330Y859D01*
X19322Y849D01*
X19311Y842D01*
X19159Y690D01*
X19159Y690D01*
X16621Y-1848D01*
X16607Y-1869D01*
X16589Y-1886D01*
X16509Y-2007D01*
X16500Y-2030D01*
X16486Y-2051D01*
X16430Y-2184D01*
X16425Y-2209D01*
X16416Y-2232D01*
X16388Y-2374D01*
Y-2399D01*
X16383Y-2423D01*
X16383Y-2495D01*
Y-5523D01*
X16388Y-5547D01*
Y-5572D01*
X16415Y-5709D01*
X16424Y-5732D01*
X16429Y-5757D01*
X16483Y-5886D01*
X16497Y-5906D01*
X16506Y-5930D01*
X16584Y-6046D01*
X16601Y-6063D01*
X16615Y-6084D01*
X16665Y-6133D01*
X16665Y-6133D01*
X19766Y-9234D01*
X19787Y-9248D01*
X19804Y-9266D01*
X19827Y-9276D01*
X19848Y-9290D01*
X19873Y-9295D01*
X19896Y-9304D01*
X19921D01*
X19946Y-9309D01*
X19971Y-9304D01*
X19996D01*
X19996Y-9304D01*
X20091Y-9323D01*
X20172Y-9377D01*
X20227Y-9458D01*
X20246Y-9554D01*
X20246Y-9554D01*
Y-9579D01*
X20241Y-9604D01*
X20246Y-9629D01*
Y-9654D01*
X20255Y-9677D01*
X20260Y-9701D01*
X20274Y-9722D01*
X20284Y-9746D01*
X20301Y-9763D01*
X20315Y-9784D01*
X22164Y-11632D01*
X22164Y-11633D01*
X22164Y-11633D01*
X22224Y-11693D01*
X22245Y-11707D01*
X22263Y-11724D01*
X22404Y-11819D01*
X22427Y-11829D01*
X22448Y-11842D01*
X22605Y-11908D01*
X22630Y-11912D01*
X22653Y-11922D01*
X22820Y-11955D01*
X22845D01*
X22870Y-11960D01*
X22955Y-11960D01*
X27989Y-11960D01*
X28088Y-11965D01*
X28289Y-12005D01*
X28472Y-12081D01*
X28642Y-12194D01*
X28715Y-12261D01*
X29270Y-12816D01*
X29324Y-12876D01*
X29241Y-12967D01*
X29030Y-12880D01*
X29030Y-12880D01*
Y-14000D01*
Y-15120D01*
X29030Y-15120D01*
X29310Y-15005D01*
X29408Y-14929D01*
X29515Y-14983D01*
Y-15107D01*
X29535Y-15204D01*
X29535Y-15204D01*
X29535Y-15204D01*
X29590Y-15287D01*
X29899Y-15596D01*
X29982Y-15651D01*
X30079Y-15671D01*
X30177Y-15671D01*
X30201Y-15666D01*
X30226D01*
X30365Y-15638D01*
X30504Y-15666D01*
X30529D01*
X30553Y-15671D01*
X31277Y-15671D01*
X31301Y-15666D01*
X31326D01*
X31465Y-15638D01*
X31604Y-15666D01*
X31629D01*
X31653Y-15671D01*
X32377Y-15671D01*
X32401Y-15666D01*
X32427D01*
X32460Y-15659D01*
X32483Y-15649D01*
X32508Y-15644D01*
X32529Y-15630D01*
X32552Y-15621D01*
X32570Y-15603D01*
X32591Y-15589D01*
X32919Y-15261D01*
X32974Y-15178D01*
X32994Y-15081D01*
Y-14959D01*
X33101Y-14906D01*
X33230Y-15005D01*
X33510Y-15120D01*
X33510Y-15120D01*
Y-14000D01*
Y-12880D01*
X33510Y-12880D01*
X33230Y-12995D01*
X33101Y-13094D01*
X32994Y-13041D01*
X32994Y-10060D01*
X32989Y-10035D01*
Y-10010D01*
X32979Y-9987D01*
X32974Y-9962D01*
X32960Y-9941D01*
X32951Y-9918D01*
X32933Y-9900D01*
X32919Y-9880D01*
X32898Y-9866D01*
X32880Y-9848D01*
X32761Y-9768D01*
X32707Y-9687D01*
X32688Y-9592D01*
X32707Y-9496D01*
X32761Y-9415D01*
X32880Y-9336D01*
X32985Y-9329D01*
X33030Y-9345D01*
X33036Y-9349D01*
X33179Y-9492D01*
Y-9804D01*
X33216Y-10091D01*
X33327Y-10358D01*
X33504Y-10588D01*
X35241Y-12325D01*
Y-13673D01*
X35230Y-13700D01*
X35190Y-14000D01*
X35230Y-14300D01*
X35345Y-14580D01*
X35530Y-14820D01*
X35770Y-15005D01*
X36050Y-15120D01*
X36350Y-15160D01*
X36650Y-15120D01*
X36930Y-15005D01*
X37170Y-14820D01*
X37355Y-14580D01*
X37470Y-14300D01*
X37510Y-14000D01*
X37470Y-13700D01*
X37459Y-13673D01*
Y-11971D01*
X44137D01*
X44333Y-11946D01*
X44515Y-11870D01*
X44672Y-11750D01*
X49125Y-7297D01*
X49738D01*
X49934Y-7271D01*
X50116Y-7196D01*
X50273Y-7075D01*
X50393Y-6919D01*
X50469Y-6736D01*
X50495Y-6540D01*
X50469Y-6345D01*
X50393Y-6162D01*
X50273Y-6005D01*
X50116Y-5885D01*
X50014Y-5843D01*
X50009Y-5711D01*
X50157Y-5612D01*
X50284Y-5422D01*
X50329Y-5197D01*
X50284Y-4973D01*
X50157Y-4783D01*
X49967Y-4656D01*
X49742Y-4611D01*
X49518Y-4656D01*
X49328Y-4783D01*
X49201Y-4973D01*
X49156Y-5197D01*
X49201Y-5422D01*
X49328Y-5612D01*
X49406Y-5664D01*
X49369Y-5784D01*
X48812D01*
X48812Y-5784D01*
X48616Y-5810D01*
X48433Y-5885D01*
X48277Y-6005D01*
X48277Y-6005D01*
X43824Y-10458D01*
X37001D01*
X36963Y-10463D01*
X36517Y-10463D01*
X35398Y-9344D01*
Y-9033D01*
X35360Y-8745D01*
X35249Y-8478D01*
X35073Y-8248D01*
X34912Y-8088D01*
Y-5450D01*
X35658Y-4705D01*
X35834Y-4475D01*
X35945Y-4207D01*
X35983Y-3920D01*
Y-1827D01*
X35945Y-1540D01*
X35834Y-1272D01*
X35658Y-1042D01*
X33402Y1214D01*
X33530Y1381D01*
X33656Y1685D01*
X33699Y2012D01*
X33699Y2012D01*
Y3065D01*
X34853Y4220D01*
X35054Y4481D01*
X35180Y4785D01*
X35218Y5075D01*
X35361Y5218D01*
X35521Y5427D01*
X35622Y5670D01*
X35656Y5931D01*
Y7351D01*
X35622Y7612D01*
X35521Y7855D01*
X35361Y8064D01*
X34998Y8427D01*
X34998Y9740D01*
X34998Y9740D01*
Y9823D01*
X34979Y9921D01*
X34915Y10074D01*
X34915Y10074D01*
X34860Y10157D01*
X34742Y10275D01*
X34742Y10275D01*
X34659Y10330D01*
X34506Y10394D01*
X34408Y10413D01*
X32672Y10413D01*
X32672Y10413D01*
X32591Y10413D01*
X32494Y10394D01*
X32345Y10332D01*
X32262Y10277D01*
X32149Y10163D01*
X32149Y10163D01*
X32093Y10080D01*
X32032Y9932D01*
X32012Y9834D01*
X32012Y9754D01*
X32012Y9376D01*
X32012Y9376D01*
X32012Y9322D01*
X32017Y9300D01*
X32016Y9277D01*
X32035Y9171D01*
X32043Y9150D01*
X32047Y9128D01*
X32084Y9027D01*
X32095Y9008D01*
X32103Y8987D01*
X32157Y8894D01*
X32171Y8877D01*
X32182Y8857D01*
X32217Y8816D01*
X32217Y8816D01*
X32619Y8340D01*
X32648Y8115D01*
X32749Y7872D01*
X32909Y7663D01*
X33282Y7290D01*
X33226Y7177D01*
X33223Y7177D01*
X33053Y7155D01*
X32895Y7089D01*
X32759Y6985D01*
X30799Y5025D01*
X30509Y5025D01*
X30424Y5110D01*
Y10399D01*
X30402Y10569D01*
X30337Y10727D01*
X30232Y10863D01*
X29387Y11708D01*
X29387Y11753D01*
X29407Y12300D01*
X29446Y12730D01*
X29472Y12895D01*
X29501Y13029D01*
X29531Y13128D01*
X29557Y13186D01*
X29588Y13229D01*
X29735Y13420D01*
X29850Y13700D01*
X29890Y14000D01*
X29850Y14300D01*
X29735Y14580D01*
X29550Y14820D01*
X29310Y15005D01*
X29030Y15120D01*
X28730Y15160D01*
D02*
G37*
G36*
X5450Y-6074D02*
X4550D01*
X4367Y-6098D01*
X4197Y-6169D01*
X4051Y-6281D01*
X3939Y-6427D01*
X3868Y-6597D01*
X3844Y-6780D01*
Y-7680D01*
X3868Y-7863D01*
X3939Y-8033D01*
X4051Y-8179D01*
X4197Y-8291D01*
X4367Y-8362D01*
X4550Y-8386D01*
X5450D01*
X5633Y-8362D01*
X5803Y-8291D01*
X5949Y-8179D01*
X6061Y-8033D01*
X6132Y-7863D01*
X6156Y-7680D01*
Y-6780D01*
X6132Y-6597D01*
X6061Y-6427D01*
X5949Y-6281D01*
X5803Y-6169D01*
X5633Y-6098D01*
X5450Y-6074D01*
D02*
G37*
G36*
X36227Y-7634D02*
X36003Y-7678D01*
X35813Y-7805D01*
X35686Y-7996D01*
X35641Y-8220D01*
X35686Y-8444D01*
X35813Y-8634D01*
X36003Y-8762D01*
X36227Y-8806D01*
X36452Y-8762D01*
X36642Y-8634D01*
X36769Y-8444D01*
X36814Y-8220D01*
X36769Y-7996D01*
X36642Y-7805D01*
X36452Y-7678D01*
X36227Y-7634D01*
D02*
G37*
G36*
X5000Y-8610D02*
X4700Y-8650D01*
X4420Y-8765D01*
X4180Y-8950D01*
X3995Y-9190D01*
X3880Y-9470D01*
X3840Y-9770D01*
X3880Y-10070D01*
X3995Y-10350D01*
X4180Y-10590D01*
X4420Y-10775D01*
X4700Y-10890D01*
X5000Y-10930D01*
X5300Y-10890D01*
X5580Y-10775D01*
X5820Y-10590D01*
X6005Y-10350D01*
X6120Y-10070D01*
X6160Y-9770D01*
X6120Y-9470D01*
X6005Y-9190D01*
X5820Y-8950D01*
X5580Y-8765D01*
X5300Y-8650D01*
X5000Y-8610D01*
D02*
G37*
G36*
X34110Y-12880D02*
Y-13700D01*
X34930D01*
X34930Y-13700D01*
X34815Y-13420D01*
X34630Y-13180D01*
X34390Y-12995D01*
X34110Y-12880D01*
X34110Y-12880D01*
D02*
G37*
G36*
X28430Y-12880D02*
X28430Y-12880D01*
X28150Y-12995D01*
X27910Y-13180D01*
X27725Y-13420D01*
X27610Y-13700D01*
X27610Y-13700D01*
X28430D01*
Y-12880D01*
D02*
G37*
G36*
X41555Y-12857D02*
Y-13875D01*
X42573D01*
X42550Y-13700D01*
X42435Y-13420D01*
X42250Y-13180D01*
X42010Y-12995D01*
X41730Y-12880D01*
X41555Y-12857D01*
D02*
G37*
G36*
X41305Y-12857D02*
X41130Y-12880D01*
X40850Y-12995D01*
X40610Y-13180D01*
X40425Y-13420D01*
X40310Y-13700D01*
X40287Y-13875D01*
X41305D01*
Y-12857D01*
D02*
G37*
G36*
X34930Y-14300D02*
X34110D01*
Y-15120D01*
X34110Y-15120D01*
X34390Y-15005D01*
X34630Y-14820D01*
X34815Y-14580D01*
X34930Y-14300D01*
X34930Y-14300D01*
D02*
G37*
G36*
X28430D02*
X27610D01*
X27610Y-14300D01*
X27725Y-14580D01*
X27910Y-14820D01*
X28150Y-15005D01*
X28430Y-15120D01*
X28430Y-15120D01*
Y-14300D01*
D02*
G37*
G36*
X42573Y-14125D02*
X41555D01*
Y-15143D01*
X41730Y-15120D01*
X42010Y-15005D01*
X42250Y-14820D01*
X42435Y-14580D01*
X42550Y-14300D01*
X42573Y-14125D01*
D02*
G37*
G36*
X41305D02*
X40287D01*
X40310Y-14300D01*
X40425Y-14580D01*
X40610Y-14820D01*
X40850Y-15005D01*
X41130Y-15120D01*
X41305Y-15143D01*
Y-14125D01*
D02*
G37*
G36*
X54580Y-12844D02*
X53680D01*
X53497Y-12868D01*
X53327Y-12939D01*
X53181Y-13051D01*
X53069Y-13197D01*
X52998Y-13367D01*
X52974Y-13550D01*
Y-14450D01*
X52998Y-14633D01*
X53069Y-14803D01*
X53181Y-14949D01*
X53327Y-15061D01*
X53497Y-15132D01*
X53680Y-15156D01*
X54580D01*
X54763Y-15132D01*
X54933Y-15061D01*
X55079Y-14949D01*
X55191Y-14803D01*
X55262Y-14633D01*
X55286Y-14450D01*
Y-13550D01*
X55262Y-13367D01*
X55191Y-13197D01*
X55079Y-13051D01*
X54933Y-12939D01*
X54763Y-12868D01*
X54580Y-12844D01*
D02*
G37*
G36*
X51590Y-12840D02*
X51290Y-12880D01*
X51010Y-12995D01*
X50770Y-13180D01*
X50585Y-13420D01*
X50470Y-13700D01*
X50430Y-14000D01*
X50470Y-14300D01*
X50585Y-14580D01*
X50770Y-14820D01*
X51010Y-15005D01*
X51290Y-15120D01*
X51590Y-15160D01*
X51890Y-15120D01*
X52170Y-15005D01*
X52410Y-14820D01*
X52595Y-14580D01*
X52710Y-14300D01*
X52750Y-14000D01*
X52710Y-13700D01*
X52595Y-13420D01*
X52410Y-13180D01*
X52170Y-12995D01*
X51890Y-12880D01*
X51590Y-12840D01*
D02*
G37*
G36*
X49050D02*
X48750Y-12880D01*
X48470Y-12995D01*
X48230Y-13180D01*
X48045Y-13420D01*
X47930Y-13700D01*
X47890Y-14000D01*
X47930Y-14300D01*
X48045Y-14580D01*
X48230Y-14820D01*
X48470Y-15005D01*
X48750Y-15120D01*
X49050Y-15160D01*
X49350Y-15120D01*
X49630Y-15005D01*
X49870Y-14820D01*
X50055Y-14580D01*
X50170Y-14300D01*
X50210Y-14000D01*
X50170Y-13700D01*
X50055Y-13420D01*
X49870Y-13180D01*
X49630Y-12995D01*
X49350Y-12880D01*
X49050Y-12840D01*
D02*
G37*
G36*
X46510D02*
X46210Y-12880D01*
X45930Y-12995D01*
X45690Y-13180D01*
X45505Y-13420D01*
X45390Y-13700D01*
X45350Y-14000D01*
X45390Y-14300D01*
X45505Y-14580D01*
X45690Y-14820D01*
X45930Y-15005D01*
X46210Y-15120D01*
X46510Y-15160D01*
X46810Y-15120D01*
X47090Y-15005D01*
X47330Y-14820D01*
X47515Y-14580D01*
X47630Y-14300D01*
X47670Y-14000D01*
X47630Y-13700D01*
X47515Y-13420D01*
X47330Y-13180D01*
X47090Y-12995D01*
X46810Y-12880D01*
X46510Y-12840D01*
D02*
G37*
G36*
X43970D02*
X43670Y-12880D01*
X43390Y-12995D01*
X43150Y-13180D01*
X42965Y-13420D01*
X42850Y-13700D01*
X42810Y-14000D01*
X42850Y-14300D01*
X42965Y-14580D01*
X43150Y-14820D01*
X43390Y-15005D01*
X43670Y-15120D01*
X43970Y-15160D01*
X44270Y-15120D01*
X44550Y-15005D01*
X44790Y-14820D01*
X44975Y-14580D01*
X45090Y-14300D01*
X45130Y-14000D01*
X45090Y-13700D01*
X44975Y-13420D01*
X44790Y-13180D01*
X44550Y-12995D01*
X44270Y-12880D01*
X43970Y-12840D01*
D02*
G37*
G36*
X38890D02*
X38590Y-12880D01*
X38310Y-12995D01*
X38070Y-13180D01*
X37885Y-13420D01*
X37770Y-13700D01*
X37730Y-14000D01*
X37770Y-14300D01*
X37885Y-14580D01*
X38070Y-14820D01*
X38310Y-15005D01*
X38590Y-15120D01*
X38890Y-15160D01*
X39190Y-15120D01*
X39470Y-15005D01*
X39710Y-14820D01*
X39895Y-14580D01*
X40010Y-14300D01*
X40050Y-14000D01*
X40010Y-13700D01*
X39895Y-13420D01*
X39710Y-13180D01*
X39470Y-12995D01*
X39190Y-12880D01*
X38890Y-12840D01*
D02*
G37*
G36*
X26190D02*
X25890Y-12880D01*
X25610Y-12995D01*
X25370Y-13180D01*
X25185Y-13420D01*
X25070Y-13700D01*
X25030Y-14000D01*
X25070Y-14300D01*
X25185Y-14580D01*
X25370Y-14820D01*
X25610Y-15005D01*
X25890Y-15120D01*
X26190Y-15160D01*
X26490Y-15120D01*
X26770Y-15005D01*
X27010Y-14820D01*
X27195Y-14580D01*
X27310Y-14300D01*
X27350Y-14000D01*
X27310Y-13700D01*
X27195Y-13420D01*
X27010Y-13180D01*
X26770Y-12995D01*
X26490Y-12880D01*
X26190Y-12840D01*
D02*
G37*
G36*
X23650D02*
X23350Y-12880D01*
X23070Y-12995D01*
X22830Y-13180D01*
X22645Y-13420D01*
X22530Y-13700D01*
X22490Y-14000D01*
X22530Y-14300D01*
X22645Y-14580D01*
X22830Y-14820D01*
X23070Y-15005D01*
X23350Y-15120D01*
X23650Y-15160D01*
X23950Y-15120D01*
X24230Y-15005D01*
X24470Y-14820D01*
X24655Y-14580D01*
X24770Y-14300D01*
X24810Y-14000D01*
X24770Y-13700D01*
X24655Y-13420D01*
X24470Y-13180D01*
X24230Y-12995D01*
X23950Y-12880D01*
X23650Y-12840D01*
D02*
G37*
G36*
X21110D02*
X20810Y-12880D01*
X20530Y-12995D01*
X20290Y-13180D01*
X20105Y-13420D01*
X19990Y-13700D01*
X19950Y-14000D01*
X19990Y-14300D01*
X20105Y-14580D01*
X20290Y-14820D01*
X20530Y-15005D01*
X20810Y-15120D01*
X21110Y-15160D01*
X21410Y-15120D01*
X21690Y-15005D01*
X21930Y-14820D01*
X22115Y-14580D01*
X22230Y-14300D01*
X22270Y-14000D01*
X22230Y-13700D01*
X22115Y-13420D01*
X21930Y-13180D01*
X21690Y-12995D01*
X21410Y-12880D01*
X21110Y-12840D01*
D02*
G37*
G36*
X18570D02*
X18270Y-12880D01*
X17990Y-12995D01*
X17750Y-13180D01*
X17565Y-13420D01*
X17450Y-13700D01*
X17410Y-14000D01*
X17450Y-14300D01*
X17565Y-14580D01*
X17750Y-14820D01*
X17990Y-15005D01*
X18270Y-15120D01*
X18570Y-15160D01*
X18870Y-15120D01*
X19150Y-15005D01*
X19390Y-14820D01*
X19575Y-14580D01*
X19690Y-14300D01*
X19730Y-14000D01*
X19690Y-13700D01*
X19575Y-13420D01*
X19390Y-13180D01*
X19150Y-12995D01*
X18870Y-12880D01*
X18570Y-12840D01*
D02*
G37*
G36*
X16030D02*
X15730Y-12880D01*
X15450Y-12995D01*
X15210Y-13180D01*
X15025Y-13420D01*
X14910Y-13700D01*
X14870Y-14000D01*
X14910Y-14300D01*
X15025Y-14580D01*
X15210Y-14820D01*
X15450Y-15005D01*
X15730Y-15120D01*
X16030Y-15160D01*
X16330Y-15120D01*
X16610Y-15005D01*
X16850Y-14820D01*
X17035Y-14580D01*
X17150Y-14300D01*
X17190Y-14000D01*
X17150Y-13700D01*
X17035Y-13420D01*
X16850Y-13180D01*
X16610Y-12995D01*
X16330Y-12880D01*
X16030Y-12840D01*
D02*
G37*
G36*
X13490D02*
X13190Y-12880D01*
X12910Y-12995D01*
X12670Y-13180D01*
X12485Y-13420D01*
X12370Y-13700D01*
X12330Y-14000D01*
X12370Y-14300D01*
X12485Y-14580D01*
X12670Y-14820D01*
X12910Y-15005D01*
X13190Y-15120D01*
X13490Y-15160D01*
X13790Y-15120D01*
X14070Y-15005D01*
X14310Y-14820D01*
X14495Y-14580D01*
X14610Y-14300D01*
X14650Y-14000D01*
X14610Y-13700D01*
X14495Y-13420D01*
X14310Y-13180D01*
X14070Y-12995D01*
X13790Y-12880D01*
X13490Y-12840D01*
D02*
G37*
G36*
X10950D02*
X10650Y-12880D01*
X10370Y-12995D01*
X10130Y-13180D01*
X9945Y-13420D01*
X9830Y-13700D01*
X9790Y-14000D01*
X9830Y-14300D01*
X9945Y-14580D01*
X10130Y-14820D01*
X10370Y-15005D01*
X10650Y-15120D01*
X10950Y-15160D01*
X11250Y-15120D01*
X11530Y-15005D01*
X11770Y-14820D01*
X11955Y-14580D01*
X12070Y-14300D01*
X12110Y-14000D01*
X12070Y-13700D01*
X11955Y-13420D01*
X11770Y-13180D01*
X11530Y-12995D01*
X11250Y-12880D01*
X10950Y-12840D01*
D02*
G37*
G36*
X8410D02*
X8110Y-12880D01*
X7830Y-12995D01*
X7590Y-13180D01*
X7405Y-13420D01*
X7290Y-13700D01*
X7250Y-14000D01*
X7290Y-14300D01*
X7405Y-14580D01*
X7590Y-14820D01*
X7830Y-15005D01*
X8110Y-15120D01*
X8410Y-15160D01*
X8710Y-15120D01*
X8990Y-15005D01*
X9230Y-14820D01*
X9415Y-14580D01*
X9530Y-14300D01*
X9570Y-14000D01*
X9530Y-13700D01*
X9415Y-13420D01*
X9230Y-13180D01*
X8990Y-12995D01*
X8710Y-12880D01*
X8410Y-12840D01*
D02*
G37*
G36*
X5870D02*
X5570Y-12880D01*
X5290Y-12995D01*
X5050Y-13180D01*
X4865Y-13420D01*
X4750Y-13700D01*
X4710Y-14000D01*
X4750Y-14300D01*
X4865Y-14580D01*
X5050Y-14820D01*
X5290Y-15005D01*
X5570Y-15120D01*
X5870Y-15160D01*
X6170Y-15120D01*
X6450Y-15005D01*
X6690Y-14820D01*
X6875Y-14580D01*
X6990Y-14300D01*
X7030Y-14000D01*
X6990Y-13700D01*
X6875Y-13420D01*
X6690Y-13180D01*
X6450Y-12995D01*
X6170Y-12880D01*
X5870Y-12840D01*
D02*
G37*
%LPD*%
G36*
X29335Y13313D02*
X29292Y13218D01*
X29254Y13094D01*
X29221Y12942D01*
X29193Y12762D01*
X29153Y12317D01*
X29133Y11759D01*
X29130Y11438D01*
X28330D01*
X28327Y11759D01*
X28267Y12762D01*
X28239Y12942D01*
X28206Y13094D01*
X28168Y13218D01*
X28125Y13313D01*
X28077Y13381D01*
X29383D01*
X29335Y13313D01*
D02*
G37*
G36*
X34325Y10158D02*
X34408D01*
X34562Y10094D01*
X34680Y9977D01*
X34743Y9823D01*
Y9740D01*
X34743Y9740D01*
X34743Y7782D01*
Y7163D01*
X33944D01*
X32412Y8980D01*
X32377Y9021D01*
X32323Y9115D01*
X32286Y9216D01*
X32267Y9322D01*
X32267Y9376D01*
X32267Y9376D01*
X32267Y9754D01*
X32267Y9834D01*
X32329Y9983D01*
X32443Y10097D01*
X32591Y10158D01*
X32672Y10158D01*
X32672Y10158D01*
X34325Y10158D01*
D02*
G37*
G36*
X26450Y3411D02*
X26652Y3365D01*
X27286Y3222D01*
X27286Y3221D01*
Y3221D01*
X27418Y3191D01*
X27649Y3047D01*
X27819Y2834D01*
X27909Y2577D01*
X27909Y2441D01*
Y1997D01*
X27771Y1905D01*
X27661Y1739D01*
X27622Y1544D01*
X27661Y1349D01*
X27771Y1184D01*
X27909Y1092D01*
X27909Y-1636D01*
X27186Y-2359D01*
X27082Y-2494D01*
X27017Y-2653D01*
X26994Y-2822D01*
Y-5210D01*
X27017Y-5380D01*
X27082Y-5538D01*
X27186Y-5674D01*
X27322Y-5778D01*
X27480Y-5843D01*
X27650Y-5866D01*
X27820Y-5843D01*
X27842Y-5834D01*
X27902Y-5947D01*
X27835Y-5991D01*
X27708Y-6181D01*
X27664Y-6406D01*
X27708Y-6630D01*
X27726Y-6657D01*
X27666Y-6769D01*
X25857D01*
X24920Y-5832D01*
X24947Y-5804D01*
X25084Y-5627D01*
X25169Y-5420D01*
X25198Y-5198D01*
X25169Y-4976D01*
X25084Y-4769D01*
X24947Y-4592D01*
X24350Y-3995D01*
X24173Y-3859D01*
X23966Y-3773D01*
X23744Y-3744D01*
X23522Y-3773D01*
X23315Y-3859D01*
X23138Y-3995D01*
X23002Y-4172D01*
X22916Y-4379D01*
X22887Y-4601D01*
X22916Y-4823D01*
X22986Y-4991D01*
X22918Y-5043D01*
X22782Y-5220D01*
X22730Y-5345D01*
X22579Y-5396D01*
X22574Y-5393D01*
X22349Y-5348D01*
X22125Y-5393D01*
X21935Y-5520D01*
X21808Y-5710D01*
X21763Y-5934D01*
X21808Y-6159D01*
X21935Y-6349D01*
X22125Y-6476D01*
X22349Y-6520D01*
X22574Y-6476D01*
X22764Y-6349D01*
X22805Y-6288D01*
X22955Y-6292D01*
X24895Y-8232D01*
X25073Y-8368D01*
X25280Y-8454D01*
X25501Y-8483D01*
X28691D01*
X28913Y-8454D01*
X29120Y-8368D01*
X29298Y-8232D01*
X30031Y-7499D01*
X30167Y-7321D01*
X30253Y-7114D01*
X30264Y-7029D01*
X30306Y-7005D01*
X30399Y-6981D01*
X30564Y-7092D01*
X30788Y-7136D01*
X31013Y-7092D01*
X31203Y-6965D01*
X31330Y-6774D01*
X31374Y-6550D01*
X31330Y-6326D01*
X31203Y-6135D01*
X31013Y-6008D01*
X30788Y-5964D01*
X30564Y-6008D01*
X30374Y-6135D01*
X30359Y-6157D01*
X30232Y-6119D01*
Y-5980D01*
X30204Y-5771D01*
X30124Y-5576D01*
X29996Y-5409D01*
X29807Y-5220D01*
Y-5003D01*
X29961Y-4802D01*
X30072Y-4534D01*
X30109Y-4247D01*
Y-3827D01*
X31243Y-2694D01*
X31419Y-2464D01*
X31530Y-2196D01*
X31543Y-2100D01*
X33431Y-2100D01*
X33551Y-2100D01*
X33652Y-2174D01*
X33749Y-2271D01*
Y-2299D01*
X33749Y-2757D01*
X33749Y-2757D01*
X33749Y-2826D01*
X33722Y-2962D01*
X33669Y-3091D01*
X33591Y-3207D01*
X33542Y-3256D01*
X33542Y-3256D01*
X33498Y-3302D01*
X33418Y-3400D01*
X33347Y-3506D01*
X33287Y-3618D01*
X33262Y-3676D01*
X33059Y-4166D01*
X33018Y-4206D01*
X32842Y-4436D01*
X32731Y-4704D01*
X32693Y-4991D01*
Y-8547D01*
X32731Y-8835D01*
X32739Y-8853D01*
X32739Y-9124D01*
X32578Y-9231D01*
X32467Y-9397D01*
X32428Y-9592D01*
X32467Y-9787D01*
X32578Y-9952D01*
X32739Y-10060D01*
X32739Y-13581D01*
X32690Y-13700D01*
X32650Y-14000D01*
X32690Y-14300D01*
X32739Y-14419D01*
X32739Y-15081D01*
X32410Y-15409D01*
X32377Y-15416D01*
X31653Y-15416D01*
X31465Y-15378D01*
X31277Y-15416D01*
X30553Y-15416D01*
X30365Y-15378D01*
X30177Y-15416D01*
X30079Y-15416D01*
X29770Y-15107D01*
X29770Y-14493D01*
X29850Y-14300D01*
X29890Y-14000D01*
X29850Y-13700D01*
X29776Y-13520D01*
X29770Y-13403D01*
Y-13402D01*
X29770Y-13402D01*
X29770Y-13402D01*
X29770Y-13401D01*
X29765Y-13297D01*
X29763Y-13285D01*
X29724Y-13089D01*
X29643Y-12894D01*
X29526Y-12718D01*
X29455Y-12640D01*
X28891Y-12076D01*
X28891Y-12076D01*
X28891Y-12076D01*
X28799Y-11993D01*
X28592Y-11855D01*
X28363Y-11760D01*
X28119Y-11711D01*
X27995Y-11705D01*
X22955Y-11705D01*
X22870Y-11705D01*
X22703Y-11672D01*
X22546Y-11607D01*
X22404Y-11512D01*
X22344Y-11452D01*
X20496Y-9604D01*
X20506Y-9554D01*
X20467Y-9359D01*
X20356Y-9194D01*
X20191Y-9083D01*
X19996Y-9044D01*
X19946Y-9054D01*
X16845Y-5953D01*
X16845D01*
X16796Y-5904D01*
X16718Y-5788D01*
X16665Y-5659D01*
X16638Y-5523D01*
Y-2495D01*
X16638Y-2423D01*
X16666Y-2282D01*
X16721Y-2148D01*
X16801Y-2028D01*
X19339Y510D01*
X19339Y510D01*
X19339Y510D01*
X19491Y662D01*
X19823Y934D01*
X20181Y1173D01*
X20559Y1376D01*
X20758Y1458D01*
X23095Y2426D01*
X23206Y2334D01*
X23196Y2287D01*
X23235Y2092D01*
X23346Y1926D01*
X23511Y1816D01*
X23706Y1777D01*
X23901Y1816D01*
X24067Y1926D01*
X24177Y2092D01*
X24216Y2287D01*
X24177Y2482D01*
X24067Y2647D01*
X24026Y2674D01*
X24041Y2818D01*
X25031Y3228D01*
X25031Y3228D01*
X25031Y3228D01*
X25222Y3307D01*
X25300Y3326D01*
X25359Y3314D01*
X25583Y3359D01*
X25655Y3408D01*
X26037Y3440D01*
X26450Y3411D01*
D02*
G37*
G36*
X29376Y2585D02*
X29376Y4770D01*
X31785Y4770D01*
X29376Y2585D01*
D02*
G37*
G36*
X36440Y-10718D02*
Y-10718D01*
X37357Y-10718D01*
X36440Y-12950D01*
X35523Y-10718D01*
X36440Y-10718D01*
D02*
G37*
%LPC*%
G36*
X23711Y686D02*
X23486Y642D01*
X23296Y515D01*
X23169Y324D01*
X23124Y100D01*
X23169Y-124D01*
X23296Y-315D01*
X23486Y-442D01*
X23711Y-486D01*
X23935Y-442D01*
X23978Y-413D01*
X24094Y-488D01*
X24127Y-653D01*
X24212Y-781D01*
X24127Y-909D01*
X24088Y-1104D01*
X24127Y-1299D01*
X24238Y-1464D01*
X24403Y-1575D01*
X24598Y-1614D01*
X24793Y-1575D01*
X24958Y-1464D01*
X25069Y-1299D01*
X25108Y-1104D01*
X25069Y-909D01*
X24984Y-781D01*
X25069Y-653D01*
X25108Y-458D01*
X25069Y-263D01*
X24958Y-98D01*
X24793Y13D01*
X24598Y52D01*
X24403Y13D01*
X24399Y10D01*
X24293Y80D01*
X24297Y100D01*
X24252Y324D01*
X24125Y515D01*
X23935Y642D01*
X23711Y686D01*
D02*
G37*
G36*
X25441Y-2202D02*
X25217Y-2247D01*
X25027Y-2374D01*
X24900Y-2564D01*
X24855Y-2788D01*
X24900Y-3013D01*
X25027Y-3203D01*
X25217Y-3330D01*
X25441Y-3374D01*
X25666Y-3330D01*
X25856Y-3203D01*
X25983Y-3013D01*
X26028Y-2788D01*
X25983Y-2564D01*
X25856Y-2374D01*
X25666Y-2247D01*
X25441Y-2202D01*
D02*
G37*
G36*
X18275Y-4339D02*
X18050Y-4384D01*
X17860Y-4511D01*
X17733Y-4701D01*
X17688Y-4925D01*
X17733Y-5150D01*
X17860Y-5340D01*
X18050Y-5467D01*
X18275Y-5512D01*
X18499Y-5467D01*
X18689Y-5340D01*
X18816Y-5150D01*
X18861Y-4925D01*
X18816Y-4701D01*
X18689Y-4511D01*
X18499Y-4384D01*
X18275Y-4339D01*
D02*
G37*
G36*
X19700Y-3714D02*
X19476Y-3758D01*
X19285Y-3885D01*
X19158Y-4076D01*
X19114Y-4300D01*
X19158Y-4524D01*
X19285Y-4715D01*
X19476Y-4842D01*
X19700Y-4886D01*
X19889Y-4849D01*
X20002Y-4931D01*
X19992Y-4985D01*
X20036Y-5210D01*
X20163Y-5400D01*
X20353Y-5527D01*
X20578Y-5572D01*
X20802Y-5527D01*
X20992Y-5400D01*
X21119Y-5210D01*
X21164Y-4985D01*
X21119Y-4761D01*
X20992Y-4571D01*
X20802Y-4444D01*
X20578Y-4399D01*
X20389Y-4437D01*
X20275Y-4355D01*
X20286Y-4300D01*
X20242Y-4076D01*
X20115Y-3885D01*
X19924Y-3758D01*
X19700Y-3714D01*
D02*
G37*
G36*
X30515Y-7699D02*
X30290Y-7744D01*
X30100Y-7871D01*
X29973Y-8061D01*
X29928Y-8285D01*
X29973Y-8510D01*
X30100Y-8700D01*
X30290Y-8827D01*
X30515Y-8872D01*
X30739Y-8827D01*
X30929Y-8700D01*
X31056Y-8510D01*
X31101Y-8285D01*
X31056Y-8061D01*
X30929Y-7871D01*
X30739Y-7744D01*
X30515Y-7699D01*
D02*
G37*
G36*
X21482Y-9044D02*
X21287Y-9083D01*
X21121Y-9194D01*
X21011Y-9359D01*
X20972Y-9554D01*
X21011Y-9749D01*
X21121Y-9915D01*
X21287Y-10025D01*
X21482Y-10064D01*
X21677Y-10025D01*
X21842Y-9915D01*
X21953Y-9749D01*
X21992Y-9554D01*
X21953Y-9359D01*
X21842Y-9194D01*
X21677Y-9083D01*
X21482Y-9044D01*
D02*
G37*
G36*
X31670Y-12921D02*
Y-13600D01*
X32349D01*
X32275Y-13420D01*
X32090Y-13180D01*
X31850Y-12995D01*
X31670Y-12921D01*
D02*
G37*
G36*
X30870Y-12921D02*
X30690Y-12995D01*
X30450Y-13180D01*
X30265Y-13420D01*
X30191Y-13600D01*
X30870D01*
Y-12921D01*
D02*
G37*
G36*
Y-14400D02*
X30191D01*
X30265Y-14580D01*
X30450Y-14820D01*
X30690Y-15005D01*
X30870Y-15079D01*
Y-14400D01*
D02*
G37*
G36*
X32349D02*
X31670D01*
Y-15079D01*
X31850Y-15005D01*
X32090Y-14820D01*
X32275Y-14580D01*
X32349Y-14400D01*
D02*
G37*
G36*
X12177Y-39281D02*
X12133D01*
X12121Y-39284D01*
X12092Y-39287D01*
X12056Y-39296D01*
X12015Y-39313D01*
X11972Y-39337D01*
X11928Y-39366D01*
X11907Y-39386D01*
X11887Y-39410D01*
X11881Y-39416D01*
X11878Y-39424D01*
X11869Y-39433D01*
X11863Y-39448D01*
X11854Y-39465D01*
X11843Y-39486D01*
X11834Y-39509D01*
X11825Y-39536D01*
X11813Y-39565D01*
X11805Y-39600D01*
X11799Y-39635D01*
X11790Y-39676D01*
X11787Y-39720D01*
X11781Y-39767D01*
Y-39817D01*
Y-39820D01*
Y-39829D01*
Y-39843D01*
X11784Y-39861D01*
Y-39884D01*
X11787Y-39908D01*
X11796Y-39969D01*
X11808Y-40034D01*
X11828Y-40101D01*
X11854Y-40162D01*
X11872Y-40192D01*
X11892Y-40218D01*
X11898Y-40224D01*
X11913Y-40239D01*
X11936Y-40259D01*
X11969Y-40283D01*
X12007Y-40309D01*
X12051Y-40329D01*
X12103Y-40344D01*
X12130Y-40347D01*
X12159Y-40350D01*
X12174D01*
X12185Y-40347D01*
X12215Y-40344D01*
X12250Y-40335D01*
X12291Y-40318D01*
X12335Y-40297D01*
X12382Y-40265D01*
X12402Y-40247D01*
X12423Y-40224D01*
Y-40221D01*
X12428Y-40218D01*
X12431Y-40209D01*
X12440Y-40201D01*
X12449Y-40186D01*
X12458Y-40171D01*
X12466Y-40151D01*
X12478Y-40127D01*
X12487Y-40104D01*
X12496Y-40075D01*
X12505Y-40042D01*
X12513Y-40007D01*
X12522Y-39969D01*
X12525Y-39928D01*
X12531Y-39884D01*
Y-39837D01*
Y-39834D01*
Y-39826D01*
Y-39811D01*
X12528Y-39791D01*
Y-39767D01*
X12525Y-39741D01*
X12516Y-39676D01*
X12505Y-39609D01*
X12484Y-39539D01*
X12458Y-39471D01*
X12440Y-39442D01*
X12420Y-39416D01*
Y-39413D01*
X12414Y-39410D01*
X12399Y-39395D01*
X12376Y-39372D01*
X12343Y-39348D01*
X12305Y-39325D01*
X12259Y-39301D01*
X12206Y-39287D01*
X12177Y-39281D01*
D02*
G37*
G36*
X15501Y-39811D02*
X15495Y-39814D01*
X15486Y-39817D01*
X15477Y-39820D01*
X15462Y-39826D01*
X15445Y-39829D01*
X15427Y-39834D01*
X15404Y-39843D01*
X15378Y-39849D01*
X15348Y-39855D01*
X15319Y-39864D01*
X15284Y-39873D01*
X15246Y-39878D01*
X15205Y-39887D01*
X15161Y-39893D01*
X15114Y-39902D01*
X15108D01*
X15090Y-39905D01*
X15064Y-39911D01*
X15032Y-39916D01*
X14965Y-39931D01*
X14932Y-39940D01*
X14906Y-39949D01*
X14903D01*
X14897Y-39955D01*
X14885Y-39960D01*
X14874Y-39969D01*
X14844Y-39993D01*
X14815Y-40028D01*
Y-40031D01*
X14809Y-40037D01*
X14806Y-40045D01*
X14801Y-40060D01*
X14789Y-40095D01*
X14786Y-40116D01*
X14783Y-40139D01*
Y-40142D01*
Y-40154D01*
X14786Y-40171D01*
X14792Y-40195D01*
X14801Y-40218D01*
X14812Y-40244D01*
X14830Y-40271D01*
X14853Y-40297D01*
X14856Y-40300D01*
X14868Y-40306D01*
X14883Y-40318D01*
X14906Y-40326D01*
X14935Y-40338D01*
X14973Y-40350D01*
X15014Y-40356D01*
X15064Y-40359D01*
X15088D01*
X15111Y-40356D01*
X15146Y-40350D01*
X15181Y-40344D01*
X15222Y-40335D01*
X15263Y-40321D01*
X15304Y-40300D01*
X15310Y-40297D01*
X15322Y-40288D01*
X15342Y-40277D01*
X15366Y-40256D01*
X15389Y-40236D01*
X15416Y-40206D01*
X15442Y-40174D01*
X15462Y-40136D01*
X15465Y-40133D01*
X15468Y-40121D01*
X15474Y-40104D01*
X15483Y-40078D01*
X15489Y-40042D01*
X15495Y-40001D01*
X15498Y-39955D01*
X15501Y-39899D01*
Y-39811D01*
D02*
G37*
G36*
X18022Y-39278D02*
X18007D01*
X17996Y-39281D01*
X17963Y-39284D01*
X17925Y-39293D01*
X17881Y-39304D01*
X17838Y-39325D01*
X17791Y-39351D01*
X17747Y-39389D01*
X17741Y-39395D01*
X17729Y-39410D01*
X17712Y-39433D01*
X17691Y-39468D01*
X17671Y-39509D01*
X17650Y-39559D01*
X17635Y-39618D01*
X17627Y-39682D01*
X18406D01*
Y-39679D01*
Y-39673D01*
X18403Y-39665D01*
Y-39653D01*
X18397Y-39621D01*
X18388Y-39583D01*
X18376Y-39542D01*
X18359Y-39498D01*
X18341Y-39454D01*
X18315Y-39419D01*
Y-39416D01*
X18309Y-39413D01*
X18294Y-39395D01*
X18268Y-39375D01*
X18236Y-39348D01*
X18192Y-39322D01*
X18142Y-39299D01*
X18086Y-39284D01*
X18054Y-39281D01*
X18022Y-39278D01*
D02*
G37*
%LPD*%
D12*
X296Y-17511D02*
X64868D01*
X64868Y17489D02*
X64868Y-17511D01*
X296Y17489D02*
X64868D01*
X61632D02*
X61645Y17477D01*
X296Y17489D02*
X296Y-17511D01*
D16*
X33622Y8376D02*
X34648Y7351D01*
Y5931D02*
Y7351D01*
X34041Y5324D02*
X34648Y5931D01*
D75*
X32670Y9531D02*
X33462D01*
X33835D02*
X34041Y9737D01*
D79*
X23838Y5458D02*
X26144D01*
X27358Y4244D02*
X28362D01*
X26144Y5458D02*
X27358Y4244D01*
D80*
X37096Y6537D02*
X38640Y4993D01*
X36252Y6537D02*
X37096D01*
D83*
X21110Y14000D02*
D03*
X23650D02*
D03*
X13490D02*
D03*
X16030D02*
D03*
X5870D02*
D03*
X10950D02*
D03*
X8410D02*
D03*
X18570D02*
D03*
X46510D02*
D03*
X49050D02*
D03*
X41430D02*
D03*
X43970D02*
D03*
X51590D02*
D03*
X26190D02*
D03*
X31270D02*
D03*
X28730D02*
D03*
X33810D02*
D03*
X38890D02*
D03*
X36350D02*
D03*
X21110Y-14000D02*
D03*
X23650D02*
D03*
X13490D02*
D03*
X16030D02*
D03*
X5870D02*
D03*
X10950D02*
D03*
X8410D02*
D03*
X18570D02*
D03*
X46510D02*
D03*
X49050D02*
D03*
X41430D02*
D03*
X43970D02*
D03*
X51590D02*
D03*
X26190D02*
D03*
X31270D02*
D03*
X28730D02*
D03*
X33810D02*
D03*
X38890D02*
D03*
X36350D02*
D03*
X5000Y-9770D02*
D03*
Y7230D02*
D03*
D84*
X54130Y14000D02*
D03*
X54130Y-14000D02*
D03*
D85*
X5000Y-7230D02*
D03*
Y9770D02*
D03*
D87*
X36219Y6452D02*
D03*
X63170Y-1640D02*
D03*
X62541Y1430D02*
D03*
X28132Y1544D02*
D03*
X27708Y4532D02*
D03*
Y3949D02*
D03*
X23706Y2287D02*
D03*
X24598Y-458D02*
D03*
Y-1104D02*
D03*
X28441Y7636D02*
D03*
X52785Y12942D02*
D03*
X52655Y11286D02*
D03*
X51912D02*
D03*
X53399D02*
D03*
X51747Y-8977D02*
D03*
X51037Y-8977D02*
D03*
X50327Y-8977D02*
D03*
X52265Y-7774D02*
D03*
X52265Y-8484D02*
D03*
X37231Y12029D02*
D03*
X36488D02*
D03*
X40220Y11926D02*
D03*
X39477D02*
D03*
X42825Y11793D02*
D03*
X42082D02*
D03*
X46575Y11465D02*
D03*
X45088D02*
D03*
X45832D02*
D03*
X24503Y11554D02*
D03*
X25246D02*
D03*
X21776Y11558D02*
D03*
X22519D02*
D03*
X19467Y11550D02*
D03*
X20210D02*
D03*
X53239Y-9752D02*
D03*
X51753D02*
D03*
X50366D02*
D03*
X47494D02*
D03*
X43235D02*
D03*
X41849D02*
D03*
X38976D02*
D03*
X40363D02*
D03*
X32938Y-9592D02*
D03*
X18609Y-9554D02*
D03*
X21482D02*
D03*
X19996D02*
D03*
X48160Y8150D02*
D03*
X49646D02*
D03*
X48903Y8150D02*
D03*
X51132D02*
D03*
X50389D02*
D03*
X35200Y-7900D02*
D03*
X31600Y-12309D02*
D03*
X30609D02*
D03*
Y-11651D02*
D03*
X59197Y-1429D02*
D03*
X58453D02*
D03*
X57710D02*
D03*
X60313Y-3058D02*
D03*
X59570D02*
D03*
X58827D02*
D03*
X57340D02*
D03*
X58083D02*
D03*
X55854D02*
D03*
X56597D02*
D03*
X55211D02*
D03*
X54468D02*
D03*
X52982D02*
D03*
X53725D02*
D03*
X61799D02*
D03*
X61056D02*
D03*
X62542D02*
D03*
X61090Y-1411D02*
D03*
X36219Y5389D02*
D03*
X37334Y5920D02*
D03*
X36591Y5920D02*
D03*
X36962Y5389D02*
D03*
X36590Y4857D02*
D03*
X37333Y4857D02*
D03*
X36961Y4326D02*
D03*
X36683Y3794D02*
D03*
X37332Y3794D02*
D03*
X37758Y3186D02*
D03*
X37109Y3185D02*
D03*
X38555Y2046D02*
D03*
X38927Y2577D02*
D03*
X38184D02*
D03*
X37441D02*
D03*
X37812Y2046D02*
D03*
X52265Y-7064D02*
D03*
X51132Y5921D02*
D03*
Y6664D02*
D03*
Y7407D02*
D03*
X62541Y-1995D02*
D03*
X62170Y-2527D02*
D03*
X60684D02*
D03*
X61427D02*
D03*
X61055Y-1995D02*
D03*
X61798D02*
D03*
X62170Y1961D02*
D03*
X61798Y1430D02*
D03*
X55853D02*
D03*
X61055D02*
D03*
X60683Y898D02*
D03*
X60312Y1430D02*
D03*
X61427Y1961D02*
D03*
X59569Y1430D02*
D03*
X59197Y898D02*
D03*
X59940D02*
D03*
X58454D02*
D03*
X58826Y1430D02*
D03*
X51132Y5178D02*
D03*
Y4435D02*
D03*
Y2205D02*
D03*
Y2948D02*
D03*
Y3692D02*
D03*
X37505Y-967D02*
D03*
X36762D02*
D03*
X36019D02*
D03*
X37140Y-1356D02*
D03*
X44844Y-1988D02*
D03*
X46330D02*
D03*
X45587D02*
D03*
X44100D02*
D03*
X43357D02*
D03*
X42614D02*
D03*
X40013Y-1356D02*
D03*
X42985D02*
D03*
X43729D02*
D03*
X46701D02*
D03*
X45215D02*
D03*
X45958D02*
D03*
X44472D02*
D03*
X54838Y-1464D02*
D03*
X54095D02*
D03*
X55481D02*
D03*
X51866D02*
D03*
X52609D02*
D03*
X53352D02*
D03*
X53353Y-2527D02*
D03*
X52610D02*
D03*
X54096D02*
D03*
X54839D02*
D03*
X56225D02*
D03*
X55482D02*
D03*
X57712D02*
D03*
X56968D02*
D03*
X58455D02*
D03*
X59198D02*
D03*
X59941D02*
D03*
X51123Y898D02*
D03*
X51495Y1430D02*
D03*
X53352Y898D02*
D03*
X52981Y1430D02*
D03*
X52238D02*
D03*
X53724D02*
D03*
X52609Y898D02*
D03*
X51866D02*
D03*
X54467Y1430D02*
D03*
X55110D02*
D03*
X57340D02*
D03*
X56596D02*
D03*
X56968Y898D02*
D03*
X55481D02*
D03*
X56225D02*
D03*
X54095D02*
D03*
X54838D02*
D03*
X57711D02*
D03*
X58083Y1430D02*
D03*
X48758Y1469D02*
D03*
X48014D02*
D03*
X47643Y938D02*
D03*
X48386D02*
D03*
X44770D02*
D03*
X44027D02*
D03*
X46156D02*
D03*
X45413D02*
D03*
X46899D02*
D03*
X46528Y1469D02*
D03*
X47271D02*
D03*
X45042D02*
D03*
X45785D02*
D03*
X44399D02*
D03*
X41798Y938D02*
D03*
X42541D02*
D03*
X43656Y1469D02*
D03*
X42169D02*
D03*
X42913D02*
D03*
X43284Y938D02*
D03*
X36792Y-4654D02*
D03*
X36420Y-4122D02*
D03*
X37907D02*
D03*
X38550D02*
D03*
X38178Y-4654D02*
D03*
X38922D02*
D03*
X37535D02*
D03*
X40779Y-4122D02*
D03*
X40036D02*
D03*
X39665Y-4654D02*
D03*
X40408D02*
D03*
X41894D02*
D03*
X42637D02*
D03*
X43008Y-4122D02*
D03*
X42265D02*
D03*
X44767Y-4654D02*
D03*
X44123D02*
D03*
X44495Y-4122D02*
D03*
X43752D02*
D03*
X45881D02*
D03*
X46253Y-4654D02*
D03*
X46973Y-4469D02*
D03*
X47705Y-4340D02*
D03*
X46613Y-3993D02*
D03*
X48352Y-3976D02*
D03*
X37163Y-4122D02*
D03*
X39293D02*
D03*
X41522D02*
D03*
X41151Y-4654D02*
D03*
X45510D02*
D03*
X43380D02*
D03*
X45138Y-4122D02*
D03*
X47246Y-3882D02*
D03*
X47896Y-3671D02*
D03*
X48464Y-3337D02*
D03*
X49026Y-3662D02*
D03*
X49510Y-3098D02*
D03*
X48942Y-2914D02*
D03*
X49397Y-2460D02*
D03*
X36110Y1096D02*
D03*
X35367D02*
D03*
X34624D02*
D03*
X33881D02*
D03*
X52265Y-6354D02*
D03*
X39297Y2046D02*
D03*
X43013D02*
D03*
X42641Y2577D02*
D03*
X41898D02*
D03*
X42270Y2046D02*
D03*
X40040D02*
D03*
X39669Y2577D02*
D03*
X40412D02*
D03*
X41155D02*
D03*
X40784Y2046D02*
D03*
X41527D02*
D03*
D88*
X42958Y-8858D02*
D03*
X61858Y12142D02*
D03*
X62558Y10742D02*
D03*
X61858Y9342D02*
D03*
X62558Y7942D02*
D03*
X61858Y6542D02*
D03*
X62558Y-6058D02*
D03*
X61858Y-7458D02*
D03*
Y-10258D02*
D03*
X62558Y-11658D02*
D03*
X61858Y-13058D02*
D03*
X60458Y14942D02*
D03*
X61158Y13542D02*
D03*
X60458Y12142D02*
D03*
X61158Y10742D02*
D03*
X60458Y9342D02*
D03*
X61158Y7942D02*
D03*
X60458Y6542D02*
D03*
X61158Y-6058D02*
D03*
X60458Y-7458D02*
D03*
X61158Y-8858D02*
D03*
X60458Y-10258D02*
D03*
X61158Y-11658D02*
D03*
X60458Y-13058D02*
D03*
X61158Y-14458D02*
D03*
X59058Y14942D02*
D03*
X59758Y13542D02*
D03*
X59058Y12142D02*
D03*
X59758Y10742D02*
D03*
X59058Y9342D02*
D03*
X59758Y7942D02*
D03*
X59058Y6542D02*
D03*
X59758Y2342D02*
D03*
Y-6058D02*
D03*
X59058Y-7458D02*
D03*
X59758Y-8858D02*
D03*
X59058Y-10258D02*
D03*
X59758Y-11658D02*
D03*
X59058Y-13058D02*
D03*
X59758Y-14458D02*
D03*
X57658Y14942D02*
D03*
X58358Y13542D02*
D03*
X57658Y12142D02*
D03*
X58358Y10742D02*
D03*
X57658Y9342D02*
D03*
X58358Y7942D02*
D03*
X57658Y6542D02*
D03*
X58358Y5142D02*
D03*
X57658Y3742D02*
D03*
X58358Y2342D02*
D03*
X57658Y-4658D02*
D03*
X58358Y-6058D02*
D03*
X57658Y-7458D02*
D03*
X58358Y-8858D02*
D03*
X57658Y-10258D02*
D03*
X58358Y-11658D02*
D03*
X57658Y-13058D02*
D03*
X58358Y-14458D02*
D03*
X56258Y14942D02*
D03*
X56958Y13542D02*
D03*
X56258Y12142D02*
D03*
X56958Y10742D02*
D03*
X56258Y9342D02*
D03*
X56958Y7942D02*
D03*
X56258Y6542D02*
D03*
X56958Y5142D02*
D03*
X56258Y3742D02*
D03*
X56958Y2342D02*
D03*
X56258Y-4658D02*
D03*
X56958Y-6058D02*
D03*
X56258Y-7458D02*
D03*
X56958Y-8858D02*
D03*
X56258Y-10258D02*
D03*
X56958Y-11658D02*
D03*
X56258Y-13058D02*
D03*
X56958Y-14458D02*
D03*
X54858Y12142D02*
D03*
X55558Y10742D02*
D03*
X54858Y9342D02*
D03*
X55558Y7942D02*
D03*
X54858Y6542D02*
D03*
X55558Y5142D02*
D03*
X54858Y3742D02*
D03*
X55558Y2342D02*
D03*
X54858Y-4658D02*
D03*
X55558Y-6058D02*
D03*
X54858Y-7458D02*
D03*
X55558Y-8858D02*
D03*
X54858Y-10258D02*
D03*
X55558Y-11658D02*
D03*
X54158Y10742D02*
D03*
X53458Y9342D02*
D03*
X54158Y7942D02*
D03*
X53458Y6542D02*
D03*
X54158Y5142D02*
D03*
X53458Y3742D02*
D03*
X54158Y2342D02*
D03*
Y-6058D02*
D03*
X53458Y-7458D02*
D03*
X54158Y-8858D02*
D03*
X52058Y9342D02*
D03*
X52758Y7942D02*
D03*
X52058Y6542D02*
D03*
X52758Y5142D02*
D03*
X52058Y3742D02*
D03*
X52758Y2342D02*
D03*
X51358Y10742D02*
D03*
X50658Y9342D02*
D03*
X49958Y10742D02*
D03*
X49258Y9342D02*
D03*
X47858Y14942D02*
D03*
Y3742D02*
D03*
Y-13058D02*
D03*
X46458Y6542D02*
D03*
X47158Y5142D02*
D03*
X46458Y3742D02*
D03*
X47158Y2342D02*
D03*
X45058Y9342D02*
D03*
X45758Y7942D02*
D03*
X45058Y6542D02*
D03*
X45758Y5142D02*
D03*
X45058Y3742D02*
D03*
X45758Y2342D02*
D03*
X43658Y9342D02*
D03*
X44358Y7942D02*
D03*
X43658Y6542D02*
D03*
X44358Y5142D02*
D03*
X43658Y3742D02*
D03*
X44358Y2342D02*
D03*
Y-8858D02*
D03*
X42258Y9342D02*
D03*
X42958Y7942D02*
D03*
X42258Y6542D02*
D03*
X42958Y5142D02*
D03*
X42258Y3742D02*
D03*
X40858Y9342D02*
D03*
X41558Y7942D02*
D03*
X40858Y6542D02*
D03*
X41558Y5142D02*
D03*
X40858Y3742D02*
D03*
X41558Y-8858D02*
D03*
X39458Y9342D02*
D03*
X40158Y7942D02*
D03*
X39458Y6542D02*
D03*
X40158Y5142D02*
D03*
X39458Y3742D02*
D03*
X40158Y-8858D02*
D03*
X38058Y9342D02*
D03*
X38758Y7942D02*
D03*
X38058Y6542D02*
D03*
X38758Y5142D02*
D03*
Y-8858D02*
D03*
X36658Y9342D02*
D03*
X37358Y7942D02*
D03*
X35958D02*
D03*
X32458Y14942D02*
D03*
X24758Y10742D02*
D03*
Y5142D02*
D03*
X22658Y6542D02*
D03*
X21258D02*
D03*
X21958Y5142D02*
D03*
X19858Y14942D02*
D03*
X18458Y6542D02*
D03*
Y3742D02*
D03*
X15658Y12142D02*
D03*
X14258Y9342D02*
D03*
X14958Y7942D02*
D03*
X14258Y6542D02*
D03*
X14958Y5142D02*
D03*
X14258Y3742D02*
D03*
X14958Y2342D02*
D03*
X14258Y942D02*
D03*
X14958Y-458D02*
D03*
X14258Y-1858D02*
D03*
X14958Y-3258D02*
D03*
X14258Y-4658D02*
D03*
X14958Y-6058D02*
D03*
X14258Y-7458D02*
D03*
X12858Y12142D02*
D03*
Y9342D02*
D03*
X13558Y7942D02*
D03*
X12858Y6542D02*
D03*
X13558Y5142D02*
D03*
X12858Y3742D02*
D03*
X13558Y2342D02*
D03*
X12858Y942D02*
D03*
X13558Y-458D02*
D03*
X12858Y-1858D02*
D03*
X13558Y-6058D02*
D03*
X12858Y-7458D02*
D03*
X12158Y7942D02*
D03*
X11458Y6542D02*
D03*
X12158Y5142D02*
D03*
X11458Y3742D02*
D03*
X12158Y2342D02*
D03*
X11458Y942D02*
D03*
X12158Y-458D02*
D03*
X11458Y-1858D02*
D03*
X12158Y-3258D02*
D03*
X11458Y-4658D02*
D03*
X12158Y-6058D02*
D03*
X11458Y-7458D02*
D03*
X12158Y-11658D02*
D03*
X10058Y12142D02*
D03*
X10758Y10742D02*
D03*
X10058Y9342D02*
D03*
Y6542D02*
D03*
X10758Y5142D02*
D03*
X10058Y3742D02*
D03*
X10758Y2342D02*
D03*
X10058Y942D02*
D03*
X10758Y-458D02*
D03*
X10058Y-1858D02*
D03*
X10758Y-3258D02*
D03*
X10058Y-4658D02*
D03*
X9358Y10742D02*
D03*
Y5142D02*
D03*
Y2342D02*
D03*
Y-458D02*
D03*
Y-3258D02*
D03*
Y-6058D02*
D03*
X8658Y-7458D02*
D03*
X9358Y-8858D02*
D03*
Y-11658D02*
D03*
X7258Y14942D02*
D03*
Y12142D02*
D03*
Y9342D02*
D03*
Y3742D02*
D03*
Y942D02*
D03*
Y-1858D02*
D03*
Y-4658D02*
D03*
X5858Y12142D02*
D03*
X6558Y10742D02*
D03*
Y5142D02*
D03*
X5858Y3742D02*
D03*
X6558Y2342D02*
D03*
X5858Y942D02*
D03*
X6558Y-458D02*
D03*
X5858Y-1858D02*
D03*
X6558Y-3258D02*
D03*
X5858Y-4658D02*
D03*
X6558Y-6058D02*
D03*
Y-8858D02*
D03*
Y-11658D02*
D03*
X4458Y14942D02*
D03*
X5158Y5142D02*
D03*
X4458Y3742D02*
D03*
X5158Y2342D02*
D03*
X4458Y942D02*
D03*
X5158Y-458D02*
D03*
X4458Y-1858D02*
D03*
X5158Y-3258D02*
D03*
X4458Y-4658D02*
D03*
X3058Y14942D02*
D03*
X3758Y13542D02*
D03*
X3058Y12142D02*
D03*
Y9342D02*
D03*
Y6542D02*
D03*
X3758Y5142D02*
D03*
X3058Y3742D02*
D03*
X3758Y2342D02*
D03*
X3058Y942D02*
D03*
X3758Y-458D02*
D03*
X3058Y-1858D02*
D03*
X3758Y-3258D02*
D03*
X3058Y-4658D02*
D03*
X3758Y-6058D02*
D03*
X3058Y-7458D02*
D03*
X3758Y-8858D02*
D03*
X3058Y-10258D02*
D03*
X3758Y-11658D02*
D03*
X3058Y-13058D02*
D03*
X1970Y16301D02*
D03*
X62526Y15112D02*
D03*
X62908Y-15185D02*
D03*
X64253Y14266D02*
D03*
Y15366D02*
D03*
X63300Y13716D02*
D03*
X63300Y14816D02*
D03*
Y7116D02*
D03*
Y1616D02*
D03*
X63300Y2716D02*
D03*
X63300Y3816D02*
D03*
X63300Y4916D02*
D03*
Y6016D02*
D03*
X63300Y12616D02*
D03*
X63300Y8216D02*
D03*
X63300Y10416D02*
D03*
X63300Y9316D02*
D03*
X63300Y11516D02*
D03*
X64253Y2166D02*
D03*
X64253Y6566D02*
D03*
Y13166D02*
D03*
Y12066D02*
D03*
X64253Y7666D02*
D03*
X64253Y8766D02*
D03*
Y9866D02*
D03*
X64253Y10966D02*
D03*
X64253Y5466D02*
D03*
Y1066D02*
D03*
X64253Y3266D02*
D03*
X64253Y4366D02*
D03*
X64253Y-1734D02*
D03*
X64253Y-2834D02*
D03*
X64253Y-3934D02*
D03*
X64253Y-5034D02*
D03*
X64253Y-6134D02*
D03*
X64253Y-7234D02*
D03*
X64253Y-8334D02*
D03*
X64253Y-9434D02*
D03*
X64253Y-10534D02*
D03*
X64253Y-11634D02*
D03*
Y-12734D02*
D03*
X64253Y-13834D02*
D03*
X64253Y-14934D02*
D03*
X64253Y-16034D02*
D03*
X63300Y-2284D02*
D03*
Y-3384D02*
D03*
X63300Y-4484D02*
D03*
X63300Y-5584D02*
D03*
X63300Y-6684D02*
D03*
X63300Y-7784D02*
D03*
Y-8884D02*
D03*
Y-9984D02*
D03*
X63300Y-11084D02*
D03*
X63300Y-12184D02*
D03*
Y-13284D02*
D03*
X63300Y-14384D02*
D03*
X2005Y-16137D02*
D03*
X1215Y16083D02*
D03*
X1215Y14983D02*
D03*
X1215Y13883D02*
D03*
X1215Y12783D02*
D03*
Y11683D02*
D03*
X1215Y10583D02*
D03*
X1215Y9483D02*
D03*
X1215Y8383D02*
D03*
X1215Y7283D02*
D03*
X1215Y6183D02*
D03*
X1215Y5083D02*
D03*
X1215Y3983D02*
D03*
X1215Y2883D02*
D03*
X1215Y1783D02*
D03*
X1215Y683D02*
D03*
X1215Y-417D02*
D03*
X1215Y-1517D02*
D03*
X1215Y-2617D02*
D03*
X1215Y-3717D02*
D03*
X1215Y-4817D02*
D03*
Y-5917D02*
D03*
Y-7017D02*
D03*
Y-8117D02*
D03*
X1215Y-9217D02*
D03*
X1215Y-10317D02*
D03*
X1215Y-11417D02*
D03*
X1215Y-12517D02*
D03*
X1215Y-13617D02*
D03*
X1215Y-14717D02*
D03*
X1215Y-15817D02*
D03*
X2168Y15533D02*
D03*
X2168Y14433D02*
D03*
X2168Y13333D02*
D03*
X2168Y12233D02*
D03*
X2168Y11133D02*
D03*
X2168Y10033D02*
D03*
X2168Y8933D02*
D03*
Y7833D02*
D03*
X2168Y6733D02*
D03*
X2168Y5633D02*
D03*
Y4533D02*
D03*
X2168Y3433D02*
D03*
X2168Y2333D02*
D03*
X2168Y1233D02*
D03*
X2168Y133D02*
D03*
X2168Y-967D02*
D03*
X2168Y-2067D02*
D03*
X2168Y-3167D02*
D03*
X2168Y-4267D02*
D03*
Y-5367D02*
D03*
X2168Y-6467D02*
D03*
X2168Y-7567D02*
D03*
X2168Y-8667D02*
D03*
X2168Y-9767D02*
D03*
X2168Y-10867D02*
D03*
X2168Y-11967D02*
D03*
Y-13067D02*
D03*
Y-14167D02*
D03*
X2168Y-15267D02*
D03*
X62902Y16895D02*
D03*
X64002D02*
D03*
X61802D02*
D03*
X60702D02*
D03*
X59602D02*
D03*
X58502D02*
D03*
X57402D02*
D03*
X56302D02*
D03*
X55202D02*
D03*
X54102D02*
D03*
X53002D02*
D03*
X51902D02*
D03*
X50802D02*
D03*
X49702D02*
D03*
X48602D02*
D03*
X47502D02*
D03*
X46402D02*
D03*
X45302D02*
D03*
X44202D02*
D03*
X43102D02*
D03*
X42002D02*
D03*
X40902D02*
D03*
X39802D02*
D03*
X38702D02*
D03*
X37602D02*
D03*
X36502D02*
D03*
X35402D02*
D03*
X34302D02*
D03*
X33202D02*
D03*
X32102D02*
D03*
X31002D02*
D03*
X29902D02*
D03*
X28802D02*
D03*
X27702D02*
D03*
X26602D02*
D03*
X25502D02*
D03*
X24402D02*
D03*
X23302D02*
D03*
X22202D02*
D03*
X21102D02*
D03*
X20002D02*
D03*
X18902D02*
D03*
X17802D02*
D03*
X16702D02*
D03*
X15602D02*
D03*
X14502D02*
D03*
X13402D02*
D03*
X12302D02*
D03*
X11202D02*
D03*
X10102D02*
D03*
X9002D02*
D03*
X7902D02*
D03*
X6802D02*
D03*
X5702D02*
D03*
X4602D02*
D03*
X3502D02*
D03*
X2402D02*
D03*
X1302D02*
D03*
X63513Y16099D02*
D03*
X62352Y15942D02*
D03*
X61252D02*
D03*
X60152D02*
D03*
X59052D02*
D03*
X57952D02*
D03*
X56852D02*
D03*
X55752D02*
D03*
X54652D02*
D03*
X53552D02*
D03*
X52452D02*
D03*
X51352D02*
D03*
X50252D02*
D03*
X49152D02*
D03*
X48052D02*
D03*
X46952D02*
D03*
X45852D02*
D03*
X44752D02*
D03*
X43652D02*
D03*
X42552D02*
D03*
X41452D02*
D03*
X40352D02*
D03*
X39252D02*
D03*
X38152D02*
D03*
X37052D02*
D03*
X35952D02*
D03*
X34852D02*
D03*
X33752D02*
D03*
X32652D02*
D03*
X31552D02*
D03*
X30452D02*
D03*
X29352D02*
D03*
X28252D02*
D03*
X27152D02*
D03*
X26052D02*
D03*
X24952D02*
D03*
X23852D02*
D03*
X22752D02*
D03*
X21652D02*
D03*
X20552D02*
D03*
X19452D02*
D03*
X18352D02*
D03*
X17252D02*
D03*
X16152D02*
D03*
X15052D02*
D03*
X13952D02*
D03*
X12852D02*
D03*
X11752D02*
D03*
X10652D02*
D03*
X9552D02*
D03*
X8452D02*
D03*
X7352D02*
D03*
X6252D02*
D03*
X5152D02*
D03*
X4052D02*
D03*
X2952D02*
D03*
X63365Y-15964D02*
D03*
X62265D02*
D03*
X61165D02*
D03*
X60065D02*
D03*
X58965D02*
D03*
X57865D02*
D03*
X56765D02*
D03*
X55665D02*
D03*
X54565D02*
D03*
X53465D02*
D03*
X52365D02*
D03*
X51265D02*
D03*
X50165D02*
D03*
X49065D02*
D03*
X47965D02*
D03*
X46865D02*
D03*
X45765D02*
D03*
X44665D02*
D03*
X43565D02*
D03*
X42465D02*
D03*
X41365D02*
D03*
X40265D02*
D03*
X39165D02*
D03*
X38065D02*
D03*
X36965D02*
D03*
X35865D02*
D03*
X34765D02*
D03*
X33665D02*
D03*
X32565D02*
D03*
X31465D02*
D03*
X30365D02*
D03*
X29265D02*
D03*
X28165D02*
D03*
X27065D02*
D03*
X25965D02*
D03*
X24865D02*
D03*
X23765D02*
D03*
X22665D02*
D03*
X21565D02*
D03*
X20465D02*
D03*
X19365D02*
D03*
X18265D02*
D03*
X17165D02*
D03*
X16065D02*
D03*
X14965D02*
D03*
X13865D02*
D03*
X12765D02*
D03*
X11665D02*
D03*
X10565D02*
D03*
X9465D02*
D03*
X8365D02*
D03*
X7265D02*
D03*
X6165D02*
D03*
X5065D02*
D03*
X3965D02*
D03*
X2865D02*
D03*
X63915Y-16917D02*
D03*
X62815D02*
D03*
X61715D02*
D03*
X60615D02*
D03*
X59515D02*
D03*
X58415D02*
D03*
X57315D02*
D03*
X56215D02*
D03*
X55115D02*
D03*
X54015D02*
D03*
X52915D02*
D03*
X51815D02*
D03*
X50715D02*
D03*
X49615D02*
D03*
X48515D02*
D03*
X47415D02*
D03*
X46315D02*
D03*
X45215D02*
D03*
X44115D02*
D03*
X43015D02*
D03*
X41915D02*
D03*
X40815D02*
D03*
X39715D02*
D03*
X38615D02*
D03*
X37515D02*
D03*
X36415D02*
D03*
X35315D02*
D03*
X34215D02*
D03*
X33115D02*
D03*
X32015D02*
D03*
X30915D02*
D03*
X29815D02*
D03*
X28715D02*
D03*
X27615D02*
D03*
X26515D02*
D03*
X25415D02*
D03*
X24315D02*
D03*
X23215D02*
D03*
X22115D02*
D03*
X21015D02*
D03*
X19915D02*
D03*
X18815D02*
D03*
X17715D02*
D03*
X16615D02*
D03*
X15515D02*
D03*
X14415D02*
D03*
X13315D02*
D03*
X12215D02*
D03*
X11115D02*
D03*
X10015D02*
D03*
X8915D02*
D03*
X7815D02*
D03*
X6715D02*
D03*
X5615D02*
D03*
X4515D02*
D03*
X3415D02*
D03*
X1215D02*
D03*
X2315D02*
D03*
X25328Y1874D02*
D03*
X29769Y4259D02*
D03*
X48427Y5794D02*
D03*
X48427Y7195D02*
D03*
X49742Y-5197D02*
D03*
X49738Y-6540D02*
D03*
X24579Y2628D02*
D03*
X34041Y9737D02*
D03*
X32670Y9531D02*
D03*
X22349Y-5934D02*
D03*
X25441Y-2788D02*
D03*
X17028Y10201D02*
D03*
X23312Y-5533D02*
D03*
X23744Y-4559D02*
D03*
X30515Y-8285D02*
D03*
X36227Y-8220D02*
D03*
X33359Y-2477D02*
D03*
X20578Y-4985D02*
D03*
X27593Y2397D02*
D03*
X25359Y3901D02*
D03*
X30008Y1405D02*
D03*
X27650Y-5210D02*
D03*
X28250Y-6406D02*
D03*
X23711Y100D02*
D03*
X30788Y-6550D02*
D03*
X30409Y-5175D02*
D03*
X33223Y6521D02*
D03*
X18275Y-4925D02*
D03*
X18500Y-2250D02*
D03*
X19700Y-4300D02*
D03*
D89*
X30458Y32D02*
X31026Y600D01*
X30458Y-1909D02*
Y32D01*
X34041Y5190D02*
Y5324D01*
X33962Y5111D02*
X34041Y5190D01*
X29000Y-4247D02*
Y-3367D01*
X30458Y-1909D01*
X31026Y600D02*
X32447D01*
X34873Y-1827D01*
Y-3920D02*
Y-1827D01*
X33803Y-4991D02*
X34873Y-3920D01*
X34288Y-9804D02*
Y-9033D01*
X33803Y-8547D02*
Y-4991D01*
Y-8547D02*
X34288Y-9033D01*
Y-9804D02*
X36350Y-11866D01*
Y-14000D02*
Y-11866D01*
D90*
X32438Y3587D02*
X33962Y5111D01*
X32438Y2012D02*
Y3587D01*
X31026Y600D02*
X32438Y2012D01*
D91*
X48812Y-6540D02*
X49738D01*
X44137Y-11215D02*
X48812Y-6540D01*
X37001Y-11215D02*
X44137D01*
X36350Y-11866D02*
X37001Y-11215D01*
D92*
X28691Y-7626D02*
X29425Y-6892D01*
X23744Y-4601D02*
X24341Y-5198D01*
X24006Y-5533D02*
X24341Y-5198D01*
X23524Y-5649D02*
X25501Y-7626D01*
X28691D01*
D93*
X29000Y-5555D02*
Y-4247D01*
Y-5555D02*
X29425Y-5980D01*
Y-6892D02*
Y-5980D01*
D94*
X29769Y4259D02*
X30960D01*
X33223Y6521D01*
X29604Y2380D02*
X29682D01*
X29033Y1002D02*
Y1808D01*
Y1002D02*
X29118Y917D01*
X29682Y2380D02*
X29769Y2466D01*
X29118Y-1354D02*
Y917D01*
X27650Y-2822D02*
X29118Y-1354D01*
X29033Y1808D02*
X29604Y2380D01*
X29769Y2466D02*
Y4259D01*
X28730Y11438D02*
Y14000D01*
Y11438D02*
X29769Y10399D01*
Y4259D02*
Y10399D01*
X27650Y-5210D02*
Y-2822D01*
M02*
