G04*
G04 #@! TF.GenerationSoftware,Altium Limited,Altium Designer,22.1.2 (22)*
G04*
G04 Layer_Color=16711935*
%FSLAX43Y43*%
%MOMM*%
G71*
G04*
G04 #@! TF.SameCoordinates,532FF45F-5525-43CF-9912-DA75C4080CC9*
G04*
G04*
G04 #@! TF.FilePolarity,Negative*
G04*
G01*
G75*
%ADD12C,0.300*%
%ADD24R,0.850X0.700*%
%ADD25R,0.700X0.850*%
%ADD30R,0.875X1.150*%
%ADD32R,1.150X0.875*%
%ADD33R,5.000X1.700*%
%ADD39C,1.950*%
G04:AMPARAMS|DCode=40|XSize=1.95mm|YSize=1.95mm|CornerRadius=0.525mm|HoleSize=0mm|Usage=FLASHONLY|Rotation=180.000|XOffset=0mm|YOffset=0mm|HoleType=Round|Shape=RoundedRectangle|*
%AMROUNDEDRECTD40*
21,1,1.950,0.900,0,0,180.0*
21,1,0.900,1.950,0,0,180.0*
1,1,1.050,-0.450,0.450*
1,1,1.050,0.450,0.450*
1,1,1.050,0.450,-0.450*
1,1,1.050,-0.450,-0.450*
%
%ADD40ROUNDEDRECTD40*%
G04:AMPARAMS|DCode=41|XSize=1.95mm|YSize=1.95mm|CornerRadius=0.525mm|HoleSize=0mm|Usage=FLASHONLY|Rotation=270.000|XOffset=0mm|YOffset=0mm|HoleType=Round|Shape=RoundedRectangle|*
%AMROUNDEDRECTD41*
21,1,1.950,0.900,0,0,270.0*
21,1,0.900,1.950,0,0,270.0*
1,1,1.050,-0.450,-0.450*
1,1,1.050,-0.450,0.450*
1,1,1.050,0.450,0.450*
1,1,1.050,0.450,-0.450*
%
%ADD41ROUNDEDRECTD41*%
%ADD42C,0.100*%
%ADD43C,0.250*%
%ADD97R,1.110X1.550*%
%ADD98R,1.250X1.100*%
G36*
X73779Y-39120D02*
X73829Y-39126D01*
X73870Y-39137D01*
X73908Y-39149D01*
X73937Y-39161D01*
X73960Y-39172D01*
X73975Y-39178D01*
X73981Y-39181D01*
X74019Y-39205D01*
X74054Y-39234D01*
X74083Y-39260D01*
X74107Y-39287D01*
X74127Y-39310D01*
X74142Y-39328D01*
X74151Y-39339D01*
X74154Y-39345D01*
Y-39149D01*
X74365D01*
Y-40543D01*
X74127D01*
Y-39820D01*
X74124Y-39752D01*
X74121Y-39694D01*
X74116Y-39644D01*
X74107Y-39603D01*
X74101Y-39571D01*
X74095Y-39547D01*
X74092Y-39536D01*
X74089Y-39530D01*
X74072Y-39495D01*
X74054Y-39462D01*
X74034Y-39436D01*
X74013Y-39413D01*
X73995Y-39398D01*
X73981Y-39383D01*
X73969Y-39377D01*
X73966Y-39374D01*
X73934Y-39357D01*
X73902Y-39345D01*
X73870Y-39333D01*
X73843Y-39328D01*
X73817Y-39325D01*
X73799Y-39322D01*
X73782D01*
X73735Y-39325D01*
X73697Y-39333D01*
X73665Y-39348D01*
X73638Y-39360D01*
X73618Y-39374D01*
X73606Y-39389D01*
X73597Y-39398D01*
X73594Y-39401D01*
X73574Y-39433D01*
X73559Y-39471D01*
X73550Y-39509D01*
X73542Y-39550D01*
X73539Y-39582D01*
X73536Y-39612D01*
Y-39623D01*
Y-39632D01*
Y-39635D01*
Y-39638D01*
Y-40543D01*
X73298Y-40543D01*
Y-39735D01*
X73296Y-39659D01*
X73284Y-39594D01*
X73269Y-39541D01*
X73249Y-39497D01*
X73231Y-39462D01*
X73216Y-39439D01*
X73205Y-39427D01*
X73202Y-39421D01*
X73164Y-39389D01*
X73120Y-39363D01*
X73079Y-39345D01*
X73041Y-39333D01*
X73009Y-39328D01*
X72979Y-39322D01*
X72956D01*
X72927Y-39325D01*
X72900Y-39328D01*
X72874Y-39333D01*
X72853Y-39339D01*
X72839Y-39348D01*
X72827Y-39354D01*
X72818Y-39357D01*
X72815Y-39360D01*
X72795Y-39374D01*
X72777Y-39392D01*
X72763Y-39410D01*
X72751Y-39424D01*
X72742Y-39439D01*
X72736Y-39451D01*
X72730Y-39459D01*
Y-39462D01*
X72722Y-39489D01*
X72716Y-39521D01*
X72710Y-39588D01*
X72707Y-39618D01*
Y-39644D01*
Y-39661D01*
Y-39664D01*
Y-39667D01*
Y-40543D01*
X72470D01*
Y-39588D01*
Y-39544D01*
X72476Y-39503D01*
X72487Y-39430D01*
X72505Y-39372D01*
X72525Y-39322D01*
X72549Y-39284D01*
X72566Y-39254D01*
X72578Y-39240D01*
X72584Y-39234D01*
X72631Y-39196D01*
X72681Y-39167D01*
X72733Y-39146D01*
X72786Y-39131D01*
X72830Y-39123D01*
X72850Y-39120D01*
X72868D01*
X72883Y-39117D01*
X72903D01*
X72953Y-39120D01*
X72997Y-39128D01*
X73041Y-39140D01*
X73082Y-39155D01*
X73158Y-39196D01*
X73190Y-39216D01*
X73219Y-39240D01*
X73246Y-39263D01*
X73269Y-39284D01*
X73290Y-39304D01*
X73307Y-39325D01*
X73319Y-39339D01*
X73328Y-39351D01*
X73334Y-39360D01*
X73337Y-39363D01*
X73354Y-39322D01*
X73375Y-39284D01*
X73398Y-39254D01*
X73421Y-39228D01*
X73442Y-39208D01*
X73460Y-39193D01*
X73471Y-39184D01*
X73477Y-39181D01*
X73515Y-39161D01*
X73556Y-39143D01*
X73600Y-39131D01*
X73638Y-39126D01*
X73673Y-39120D01*
X73703Y-39117D01*
X73729D01*
X73779Y-39120D01*
D02*
G37*
G36*
X77311Y-38806D02*
Y-39149D01*
X77486D01*
Y-39333D01*
X77311D01*
Y-40136D01*
Y-40174D01*
Y-40209D01*
X77308Y-40241D01*
Y-40271D01*
X77305Y-40297D01*
X77302Y-40317D01*
X77296Y-40356D01*
X77293Y-40385D01*
X77287Y-40402D01*
X77284Y-40414D01*
Y-40417D01*
X77273Y-40440D01*
X77255Y-40461D01*
X77240Y-40479D01*
X77223Y-40493D01*
X77208Y-40505D01*
X77196Y-40514D01*
X77188Y-40520D01*
X77185Y-40522D01*
X77155Y-40534D01*
X77123Y-40543D01*
X77088Y-40552D01*
X77056Y-40555D01*
X77027Y-40558D01*
X77003Y-40561D01*
X76983D01*
X76921Y-40558D01*
X76892Y-40555D01*
X76866Y-40549D01*
X76839Y-40546D01*
X76822Y-40543D01*
X76810Y-40540D01*
X76804D01*
X76836Y-40332D01*
X76880Y-40338D01*
X76898D01*
X76912Y-40341D01*
X76942D01*
X76977Y-40338D01*
X77003Y-40332D01*
X77018Y-40329D01*
X77024Y-40326D01*
X77041Y-40312D01*
X77053Y-40297D01*
X77059Y-40285D01*
X77062Y-40279D01*
X77065Y-40265D01*
X77068Y-40247D01*
X77071Y-40203D01*
X77073Y-40183D01*
Y-40165D01*
Y-40153D01*
Y-40151D01*
Y-39333D01*
X76836D01*
Y-39149D01*
X77073D01*
Y-38663D01*
X77311Y-38806D01*
D02*
G37*
G36*
X76564D02*
Y-39149D01*
X76740D01*
Y-39333D01*
X76564D01*
Y-40136D01*
Y-40174D01*
Y-40209D01*
X76561Y-40241D01*
Y-40271D01*
X76558Y-40297D01*
X76555Y-40317D01*
X76549Y-40356D01*
X76546Y-40385D01*
X76540Y-40402D01*
X76538Y-40414D01*
Y-40417D01*
X76526Y-40440D01*
X76508Y-40461D01*
X76494Y-40479D01*
X76476Y-40493D01*
X76461Y-40505D01*
X76450Y-40514D01*
X76441Y-40520D01*
X76438Y-40522D01*
X76409Y-40534D01*
X76376Y-40543D01*
X76341Y-40552D01*
X76309Y-40555D01*
X76280Y-40558D01*
X76256Y-40561D01*
X76236D01*
X76174Y-40558D01*
X76145Y-40555D01*
X76119Y-40549D01*
X76092Y-40546D01*
X76075Y-40543D01*
X76063Y-40540D01*
X76057D01*
X76089Y-40332D01*
X76133Y-40338D01*
X76151D01*
X76166Y-40341D01*
X76195D01*
X76230Y-40338D01*
X76256Y-40332D01*
X76271Y-40329D01*
X76277Y-40326D01*
X76294Y-40312D01*
X76306Y-40297D01*
X76312Y-40285D01*
X76315Y-40279D01*
X76318Y-40265D01*
X76321Y-40247D01*
X76324Y-40203D01*
X76327Y-40183D01*
Y-40165D01*
Y-40153D01*
Y-40151D01*
Y-39333D01*
X76089D01*
Y-39149D01*
X76327D01*
Y-38663D01*
X76564Y-38806D01*
D02*
G37*
G36*
X65485Y-39120D02*
X65535Y-39126D01*
X65582Y-39134D01*
X65625Y-39146D01*
X65669Y-39164D01*
X65707Y-39178D01*
X65743Y-39196D01*
X65775Y-39213D01*
X65804Y-39234D01*
X65828Y-39251D01*
X65851Y-39266D01*
X65869Y-39281D01*
X65883Y-39295D01*
X65892Y-39304D01*
X65898Y-39310D01*
X65901Y-39313D01*
X65933Y-39351D01*
X65959Y-39392D01*
X65983Y-39436D01*
X66003Y-39480D01*
X66021Y-39527D01*
X66035Y-39571D01*
X66056Y-39659D01*
X66065Y-39700D01*
X66071Y-39738D01*
X66074Y-39773D01*
X66076Y-39802D01*
X66079Y-39825D01*
Y-39846D01*
Y-39858D01*
Y-39861D01*
X66076Y-39922D01*
X66071Y-39981D01*
X66062Y-40036D01*
X66050Y-40086D01*
X66038Y-40133D01*
X66024Y-40177D01*
X66006Y-40215D01*
X65989Y-40250D01*
X65974Y-40282D01*
X65956Y-40312D01*
X65942Y-40335D01*
X65927Y-40353D01*
X65918Y-40367D01*
X65910Y-40379D01*
X65904Y-40385D01*
X65901Y-40388D01*
X65866Y-40420D01*
X65828Y-40449D01*
X65789Y-40476D01*
X65748Y-40496D01*
X65710Y-40514D01*
X65669Y-40528D01*
X65593Y-40552D01*
X65555Y-40561D01*
X65523Y-40566D01*
X65494Y-40569D01*
X65467Y-40572D01*
X65447Y-40575D01*
X65418D01*
X65330Y-40569D01*
X65254Y-40558D01*
X65183Y-40537D01*
X65128Y-40517D01*
X65101Y-40505D01*
X65081Y-40496D01*
X65063Y-40484D01*
X65049Y-40476D01*
X65034Y-40470D01*
X65025Y-40464D01*
X65022Y-40458D01*
X65019D01*
X64967Y-40411D01*
X64920Y-40356D01*
X64885Y-40300D01*
X64855Y-40247D01*
X64832Y-40197D01*
X64823Y-40177D01*
X64817Y-40159D01*
X64811Y-40145D01*
X64808Y-40133D01*
X64805Y-40127D01*
Y-40124D01*
X65049Y-40092D01*
X65072Y-40145D01*
X65095Y-40192D01*
X65119Y-40230D01*
X65142Y-40259D01*
X65163Y-40285D01*
X65180Y-40300D01*
X65192Y-40312D01*
X65195Y-40315D01*
X65230Y-40338D01*
X65268Y-40353D01*
X65306Y-40364D01*
X65341Y-40373D01*
X65371Y-40379D01*
X65394Y-40382D01*
X65418D01*
X65479Y-40376D01*
X65535Y-40364D01*
X65584Y-40344D01*
X65628Y-40320D01*
X65661Y-40300D01*
X65687Y-40279D01*
X65702Y-40268D01*
X65707Y-40262D01*
X65746Y-40212D01*
X65778Y-40153D01*
X65798Y-40095D01*
X65816Y-40039D01*
X65828Y-39987D01*
X65830Y-39966D01*
X65833Y-39946D01*
Y-39931D01*
X65836Y-39916D01*
Y-39910D01*
Y-39907D01*
X64800D01*
X64797Y-39881D01*
Y-39861D01*
Y-39849D01*
Y-39846D01*
X64800Y-39782D01*
X64805Y-39723D01*
X64814Y-39667D01*
X64823Y-39618D01*
X64838Y-39568D01*
X64852Y-39524D01*
X64870Y-39486D01*
X64885Y-39448D01*
X64902Y-39415D01*
X64920Y-39389D01*
X64934Y-39366D01*
X64946Y-39345D01*
X64958Y-39331D01*
X64967Y-39319D01*
X64972Y-39313D01*
X64975Y-39310D01*
X65010Y-39275D01*
X65046Y-39246D01*
X65084Y-39219D01*
X65122Y-39199D01*
X65160Y-39178D01*
X65198Y-39164D01*
X65268Y-39140D01*
X65303Y-39131D01*
X65333Y-39126D01*
X65362Y-39123D01*
X65385Y-39120D01*
X65406Y-39117D01*
X65432D01*
X65485Y-39120D01*
D02*
G37*
G36*
X80617Y-40543D02*
X79818D01*
X79759Y-40537D01*
X79706Y-40534D01*
X79659Y-40528D01*
X79624Y-40522D01*
X79598Y-40520D01*
X79580Y-40514D01*
X79575D01*
X79531Y-40499D01*
X79490Y-40484D01*
X79452Y-40470D01*
X79422Y-40455D01*
X79396Y-40440D01*
X79378Y-40429D01*
X79367Y-40423D01*
X79364Y-40420D01*
X79334Y-40394D01*
X79305Y-40364D01*
X79282Y-40335D01*
X79261Y-40306D01*
X79247Y-40279D01*
X79232Y-40259D01*
X79226Y-40244D01*
X79223Y-40238D01*
X79203Y-40194D01*
X79188Y-40151D01*
X79179Y-40107D01*
X79170Y-40069D01*
X79167Y-40036D01*
X79165Y-40010D01*
Y-39992D01*
Y-39987D01*
X79167Y-39925D01*
X79179Y-39869D01*
X79194Y-39823D01*
X79211Y-39779D01*
X79232Y-39743D01*
X79247Y-39717D01*
X79258Y-39702D01*
X79261Y-39697D01*
X79299Y-39653D01*
X79343Y-39618D01*
X79387Y-39588D01*
X79431Y-39562D01*
X79469Y-39544D01*
X79501Y-39530D01*
X79513Y-39527D01*
X79522Y-39524D01*
X79528Y-39521D01*
X79531D01*
X79481Y-39495D01*
X79440Y-39465D01*
X79405Y-39439D01*
X79375Y-39410D01*
X79355Y-39386D01*
X79337Y-39366D01*
X79329Y-39354D01*
X79326Y-39348D01*
X79302Y-39307D01*
X79288Y-39263D01*
X79276Y-39225D01*
X79267Y-39190D01*
X79261Y-39158D01*
X79258Y-39134D01*
Y-39120D01*
Y-39114D01*
X79261Y-39064D01*
X79270Y-39017D01*
X79282Y-38976D01*
X79296Y-38938D01*
X79311Y-38906D01*
X79323Y-38880D01*
X79331Y-38865D01*
X79334Y-38859D01*
X79367Y-38815D01*
X79399Y-38780D01*
X79434Y-38748D01*
X79469Y-38721D01*
X79498Y-38704D01*
X79522Y-38689D01*
X79539Y-38680D01*
X79542Y-38677D01*
X79545D01*
X79598Y-38657D01*
X79657Y-38642D01*
X79715Y-38634D01*
X79771Y-38625D01*
X79821Y-38622D01*
X79841D01*
X79862Y-38619D01*
X80617D01*
Y-40543D01*
D02*
G37*
G36*
X68097Y-40543D02*
X67860D01*
Y-38619D01*
X68097D01*
Y-40543D01*
D02*
G37*
G36*
X64026Y-39120D02*
X64056Y-39126D01*
X64082Y-39131D01*
X64103Y-39140D01*
X64123Y-39152D01*
X64138Y-39158D01*
X64147Y-39164D01*
X64149Y-39167D01*
X64176Y-39187D01*
X64199Y-39216D01*
X64226Y-39249D01*
X64249Y-39281D01*
X64267Y-39310D01*
X64281Y-39336D01*
X64293Y-39354D01*
X64296Y-39357D01*
Y-39149D01*
X64510D01*
Y-40543D01*
X64272D01*
Y-39814D01*
X64270Y-39758D01*
X64267Y-39708D01*
X64261Y-39661D01*
X64252Y-39620D01*
X64246Y-39585D01*
X64240Y-39559D01*
X64237Y-39544D01*
X64234Y-39538D01*
X64223Y-39509D01*
X64211Y-39483D01*
X64196Y-39459D01*
X64182Y-39442D01*
X64170Y-39427D01*
X64158Y-39415D01*
X64152Y-39410D01*
X64149Y-39407D01*
X64126Y-39392D01*
X64103Y-39380D01*
X64079Y-39372D01*
X64059Y-39366D01*
X64038Y-39363D01*
X64024Y-39360D01*
X64012D01*
X63980Y-39363D01*
X63947Y-39369D01*
X63918Y-39377D01*
X63892Y-39386D01*
X63871Y-39395D01*
X63854Y-39404D01*
X63842Y-39410D01*
X63839Y-39413D01*
X63754Y-39196D01*
X63801Y-39169D01*
X63845Y-39149D01*
X63886Y-39137D01*
X63921Y-39126D01*
X63953Y-39120D01*
X63977Y-39117D01*
X63997D01*
X64026Y-39120D01*
D02*
G37*
G36*
X78327Y-39120D02*
X78374Y-39123D01*
X78459Y-39140D01*
X78535Y-39167D01*
X78567Y-39181D01*
X78596Y-39193D01*
X78626Y-39208D01*
X78649Y-39222D01*
X78670Y-39237D01*
X78687Y-39249D01*
X78702Y-39257D01*
X78711Y-39266D01*
X78716Y-39269D01*
X78719Y-39272D01*
X78757Y-39310D01*
X78790Y-39351D01*
X78819Y-39395D01*
X78842Y-39442D01*
X78863Y-39489D01*
X78880Y-39536D01*
X78895Y-39582D01*
X78907Y-39629D01*
X78916Y-39673D01*
X78921Y-39714D01*
X78927Y-39749D01*
X78930Y-39782D01*
Y-39808D01*
X78933Y-39828D01*
Y-39840D01*
Y-39846D01*
X78930Y-39910D01*
X78924Y-39972D01*
X78916Y-40028D01*
X78904Y-40080D01*
X78892Y-40127D01*
X78878Y-40174D01*
X78860Y-40212D01*
X78842Y-40250D01*
X78828Y-40282D01*
X78810Y-40309D01*
X78796Y-40332D01*
X78781Y-40353D01*
X78772Y-40367D01*
X78763Y-40379D01*
X78757Y-40385D01*
X78755Y-40388D01*
X78719Y-40420D01*
X78681Y-40449D01*
X78643Y-40476D01*
X78602Y-40496D01*
X78564Y-40514D01*
X78523Y-40528D01*
X78450Y-40552D01*
X78415Y-40561D01*
X78383Y-40566D01*
X78353Y-40569D01*
X78330Y-40572D01*
X78309Y-40575D01*
X78280D01*
X78213Y-40572D01*
X78151Y-40561D01*
X78096Y-40549D01*
X78046Y-40531D01*
X78005Y-40517D01*
X77973Y-40502D01*
X77961Y-40499D01*
X77952Y-40493D01*
X77949Y-40490D01*
X77946D01*
X77891Y-40455D01*
X77844Y-40417D01*
X77803Y-40379D01*
X77770Y-40341D01*
X77744Y-40306D01*
X77724Y-40279D01*
X77712Y-40259D01*
X77709Y-40256D01*
Y-40253D01*
X77683Y-40192D01*
X77662Y-40121D01*
X77647Y-40051D01*
X77636Y-39984D01*
X77633Y-39951D01*
X77630Y-39922D01*
Y-39896D01*
X77627Y-39872D01*
Y-39855D01*
Y-39840D01*
Y-39831D01*
Y-39828D01*
X77630Y-39767D01*
X77636Y-39711D01*
X77645Y-39656D01*
X77656Y-39606D01*
X77671Y-39559D01*
X77686Y-39518D01*
X77703Y-39477D01*
X77718Y-39442D01*
X77735Y-39413D01*
X77753Y-39383D01*
X77768Y-39360D01*
X77782Y-39342D01*
X77794Y-39328D01*
X77803Y-39316D01*
X77809Y-39310D01*
X77811Y-39307D01*
X77847Y-39275D01*
X77885Y-39246D01*
X77923Y-39219D01*
X77961Y-39196D01*
X78002Y-39178D01*
X78040Y-39164D01*
X78113Y-39140D01*
X78148Y-39131D01*
X78180Y-39126D01*
X78207Y-39123D01*
X78233Y-39120D01*
X78254Y-39117D01*
X78280D01*
X78327Y-39120D01*
D02*
G37*
G36*
X75340D02*
X75387Y-39123D01*
X75472Y-39140D01*
X75548Y-39167D01*
X75580Y-39181D01*
X75609Y-39193D01*
X75638Y-39208D01*
X75662Y-39222D01*
X75682Y-39237D01*
X75700Y-39249D01*
X75715Y-39257D01*
X75723Y-39266D01*
X75729Y-39269D01*
X75732Y-39272D01*
X75770Y-39310D01*
X75802Y-39351D01*
X75832Y-39395D01*
X75855Y-39442D01*
X75876Y-39489D01*
X75893Y-39536D01*
X75908Y-39582D01*
X75920Y-39629D01*
X75928Y-39673D01*
X75934Y-39714D01*
X75940Y-39749D01*
X75943Y-39782D01*
Y-39808D01*
X75946Y-39828D01*
Y-39840D01*
Y-39846D01*
X75943Y-39910D01*
X75937Y-39972D01*
X75928Y-40028D01*
X75917Y-40080D01*
X75905Y-40127D01*
X75890Y-40174D01*
X75873Y-40212D01*
X75855Y-40250D01*
X75841Y-40282D01*
X75823Y-40309D01*
X75808Y-40332D01*
X75794Y-40353D01*
X75785Y-40367D01*
X75776Y-40379D01*
X75770Y-40385D01*
X75767Y-40388D01*
X75732Y-40420D01*
X75694Y-40449D01*
X75656Y-40476D01*
X75615Y-40496D01*
X75577Y-40514D01*
X75536Y-40528D01*
X75463Y-40552D01*
X75428Y-40561D01*
X75395Y-40566D01*
X75366Y-40569D01*
X75343Y-40572D01*
X75322Y-40575D01*
X75293D01*
X75226Y-40572D01*
X75164Y-40561D01*
X75108Y-40549D01*
X75059Y-40531D01*
X75018Y-40517D01*
X74985Y-40502D01*
X74974Y-40499D01*
X74965Y-40493D01*
X74962Y-40490D01*
X74959D01*
X74903Y-40455D01*
X74857Y-40417D01*
X74815Y-40379D01*
X74783Y-40341D01*
X74757Y-40306D01*
X74736Y-40279D01*
X74725Y-40259D01*
X74722Y-40256D01*
Y-40253D01*
X74695Y-40192D01*
X74675Y-40121D01*
X74660Y-40051D01*
X74649Y-39984D01*
X74646Y-39951D01*
X74643Y-39922D01*
Y-39896D01*
X74640Y-39872D01*
Y-39855D01*
Y-39840D01*
Y-39831D01*
Y-39828D01*
X74643Y-39767D01*
X74649Y-39711D01*
X74657Y-39656D01*
X74669Y-39606D01*
X74684Y-39559D01*
X74698Y-39518D01*
X74716Y-39477D01*
X74731Y-39442D01*
X74748Y-39413D01*
X74766Y-39383D01*
X74780Y-39360D01*
X74795Y-39342D01*
X74807Y-39328D01*
X74815Y-39316D01*
X74821Y-39310D01*
X74824Y-39307D01*
X74859Y-39275D01*
X74898Y-39246D01*
X74936Y-39219D01*
X74974Y-39196D01*
X75015Y-39178D01*
X75053Y-39164D01*
X75126Y-39140D01*
X75161Y-39131D01*
X75193Y-39126D01*
X75220Y-39123D01*
X75246Y-39120D01*
X75267Y-39117D01*
X75293D01*
X75340Y-39120D01*
D02*
G37*
G36*
X70756Y-38590D02*
X70824Y-38598D01*
X70882Y-38607D01*
X70935Y-38619D01*
X70976Y-38634D01*
X70994Y-38639D01*
X71008Y-38642D01*
X71023Y-38648D01*
X71032Y-38651D01*
X71035Y-38654D01*
X71038D01*
X71093Y-38680D01*
X71143Y-38713D01*
X71184Y-38745D01*
X71216Y-38774D01*
X71243Y-38803D01*
X71263Y-38827D01*
X71275Y-38841D01*
X71278Y-38844D01*
Y-38847D01*
X71304Y-38894D01*
X71325Y-38944D01*
X71339Y-38988D01*
X71348Y-39032D01*
X71354Y-39067D01*
X71360Y-39093D01*
Y-39105D01*
Y-39114D01*
Y-39117D01*
Y-39120D01*
X71357Y-39167D01*
X71348Y-39213D01*
X71339Y-39254D01*
X71325Y-39290D01*
X71313Y-39319D01*
X71304Y-39339D01*
X71295Y-39354D01*
X71292Y-39360D01*
X71263Y-39398D01*
X71231Y-39433D01*
X71199Y-39462D01*
X71164Y-39489D01*
X71134Y-39509D01*
X71111Y-39524D01*
X71093Y-39536D01*
X71090Y-39538D01*
X71087D01*
X71067Y-39550D01*
X71041Y-39559D01*
X70985Y-39579D01*
X70923Y-39600D01*
X70862Y-39620D01*
X70806Y-39635D01*
X70783Y-39641D01*
X70762Y-39647D01*
X70745Y-39653D01*
X70730Y-39656D01*
X70721Y-39659D01*
X70718D01*
X70672Y-39670D01*
X70628Y-39682D01*
X70587Y-39691D01*
X70551Y-39700D01*
X70522Y-39708D01*
X70493Y-39717D01*
X70469Y-39723D01*
X70446Y-39729D01*
X70428Y-39735D01*
X70414Y-39741D01*
X70390Y-39746D01*
X70379Y-39749D01*
X70376Y-39752D01*
X70335Y-39770D01*
X70297Y-39790D01*
X70267Y-39808D01*
X70244Y-39825D01*
X70226Y-39843D01*
X70212Y-39855D01*
X70206Y-39864D01*
X70203Y-39866D01*
X70185Y-39893D01*
X70174Y-39919D01*
X70162Y-39946D01*
X70156Y-39972D01*
X70153Y-39992D01*
X70150Y-40010D01*
Y-40022D01*
Y-40025D01*
X70153Y-40057D01*
X70159Y-40086D01*
X70168Y-40115D01*
X70177Y-40139D01*
X70188Y-40159D01*
X70197Y-40174D01*
X70203Y-40186D01*
X70206Y-40189D01*
X70229Y-40215D01*
X70256Y-40238D01*
X70282Y-40259D01*
X70311Y-40276D01*
X70335Y-40291D01*
X70355Y-40300D01*
X70367Y-40306D01*
X70373Y-40309D01*
X70417Y-40323D01*
X70461Y-40332D01*
X70502Y-40341D01*
X70543Y-40344D01*
X70575Y-40347D01*
X70604Y-40350D01*
X70628D01*
X70686Y-40347D01*
X70742Y-40341D01*
X70795Y-40332D01*
X70836Y-40320D01*
X70874Y-40312D01*
X70900Y-40303D01*
X70918Y-40297D01*
X70920Y-40294D01*
X70923D01*
X70967Y-40271D01*
X71008Y-40247D01*
X71041Y-40221D01*
X71067Y-40197D01*
X71090Y-40177D01*
X71105Y-40159D01*
X71114Y-40148D01*
X71117Y-40145D01*
X71137Y-40107D01*
X71155Y-40069D01*
X71166Y-40028D01*
X71178Y-39989D01*
X71184Y-39954D01*
X71190Y-39928D01*
X71193Y-39910D01*
Y-39907D01*
Y-39905D01*
X71433Y-39925D01*
X71427Y-39995D01*
X71415Y-40060D01*
X71398Y-40121D01*
X71380Y-40171D01*
X71363Y-40215D01*
X71354Y-40233D01*
X71345Y-40247D01*
X71339Y-40259D01*
X71333Y-40268D01*
X71330Y-40271D01*
Y-40274D01*
X71289Y-40326D01*
X71243Y-40373D01*
X71199Y-40411D01*
X71152Y-40443D01*
X71114Y-40470D01*
X71082Y-40487D01*
X71070Y-40493D01*
X71061Y-40499D01*
X71055Y-40502D01*
X71052D01*
X70982Y-40525D01*
X70909Y-40543D01*
X70836Y-40558D01*
X70768Y-40566D01*
X70736Y-40569D01*
X70707Y-40572D01*
X70680D01*
X70660Y-40575D01*
X70616D01*
X70540Y-40572D01*
X70472Y-40563D01*
X70408Y-40552D01*
X70355Y-40537D01*
X70308Y-40525D01*
X70291Y-40520D01*
X70276Y-40514D01*
X70264Y-40508D01*
X70256Y-40505D01*
X70250Y-40502D01*
X70247D01*
X70188Y-40470D01*
X70136Y-40438D01*
X70092Y-40402D01*
X70057Y-40367D01*
X70027Y-40338D01*
X70010Y-40315D01*
X69995Y-40297D01*
X69992Y-40291D01*
X69963Y-40241D01*
X69942Y-40189D01*
X69925Y-40139D01*
X69916Y-40095D01*
X69910Y-40057D01*
X69904Y-40028D01*
Y-40016D01*
Y-40007D01*
Y-40004D01*
Y-40001D01*
X69907Y-39946D01*
X69916Y-39893D01*
X69931Y-39846D01*
X69945Y-39808D01*
X69960Y-39773D01*
X69975Y-39749D01*
X69983Y-39735D01*
X69986Y-39729D01*
X70018Y-39688D01*
X70057Y-39650D01*
X70098Y-39615D01*
X70138Y-39585D01*
X70177Y-39565D01*
X70206Y-39547D01*
X70218Y-39541D01*
X70223Y-39536D01*
X70229Y-39533D01*
X70232D01*
X70256Y-39524D01*
X70285Y-39512D01*
X70314Y-39500D01*
X70349Y-39492D01*
X70420Y-39471D01*
X70490Y-39451D01*
X70554Y-39436D01*
X70584Y-39427D01*
X70610Y-39421D01*
X70631Y-39415D01*
X70645Y-39413D01*
X70657Y-39410D01*
X70660D01*
X70715Y-39395D01*
X70765Y-39383D01*
X70809Y-39372D01*
X70850Y-39357D01*
X70885Y-39345D01*
X70915Y-39336D01*
X70941Y-39325D01*
X70964Y-39313D01*
X70985Y-39304D01*
X71002Y-39298D01*
X71014Y-39290D01*
X71023Y-39284D01*
X71038Y-39275D01*
X71041Y-39272D01*
X71064Y-39246D01*
X71082Y-39219D01*
X71096Y-39190D01*
X71105Y-39164D01*
X71111Y-39140D01*
X71114Y-39120D01*
Y-39108D01*
Y-39102D01*
X71108Y-39058D01*
X71096Y-39020D01*
X71082Y-38985D01*
X71061Y-38956D01*
X71043Y-38929D01*
X71026Y-38912D01*
X71014Y-38900D01*
X71011Y-38897D01*
X70991Y-38882D01*
X70967Y-38868D01*
X70915Y-38847D01*
X70859Y-38833D01*
X70803Y-38824D01*
X70754Y-38815D01*
X70730D01*
X70713Y-38812D01*
X70674D01*
X70595Y-38815D01*
X70528Y-38827D01*
X70469Y-38841D01*
X70423Y-38859D01*
X70387Y-38877D01*
X70361Y-38891D01*
X70346Y-38903D01*
X70341Y-38906D01*
X70302Y-38944D01*
X70270Y-38988D01*
X70247Y-39032D01*
X70229Y-39076D01*
X70218Y-39117D01*
X70212Y-39149D01*
X70209Y-39161D01*
X70206Y-39169D01*
Y-39175D01*
Y-39178D01*
X69963Y-39161D01*
X69969Y-39099D01*
X69980Y-39044D01*
X69998Y-38991D01*
X70016Y-38947D01*
X70030Y-38912D01*
X70045Y-38882D01*
X70057Y-38865D01*
X70059Y-38859D01*
X70095Y-38812D01*
X70136Y-38771D01*
X70177Y-38736D01*
X70218Y-38707D01*
X70256Y-38686D01*
X70285Y-38669D01*
X70297Y-38663D01*
X70305Y-38660D01*
X70308Y-38657D01*
X70311D01*
X70373Y-38634D01*
X70437Y-38616D01*
X70502Y-38604D01*
X70560Y-38595D01*
X70610Y-38590D01*
X70631D01*
X70651Y-38587D01*
X70686D01*
X70756Y-38590D01*
D02*
G37*
G36*
X69070Y-39120D02*
X69116Y-39123D01*
X69201Y-39140D01*
X69277Y-39167D01*
X69310Y-39181D01*
X69339Y-39193D01*
X69368Y-39208D01*
X69392Y-39222D01*
X69412Y-39237D01*
X69430Y-39249D01*
X69444Y-39257D01*
X69453Y-39266D01*
X69459Y-39269D01*
X69462Y-39272D01*
X69500Y-39310D01*
X69532Y-39351D01*
X69562Y-39395D01*
X69585Y-39442D01*
X69605Y-39489D01*
X69623Y-39536D01*
X69638Y-39582D01*
X69649Y-39629D01*
X69658Y-39673D01*
X69664Y-39714D01*
X69670Y-39749D01*
X69673Y-39782D01*
Y-39808D01*
X69676Y-39828D01*
Y-39840D01*
Y-39846D01*
X69673Y-39910D01*
X69667Y-39972D01*
X69658Y-40028D01*
X69646Y-40080D01*
X69635Y-40127D01*
X69620Y-40174D01*
X69603Y-40212D01*
X69585Y-40250D01*
X69570Y-40282D01*
X69553Y-40309D01*
X69538Y-40332D01*
X69523Y-40353D01*
X69515Y-40367D01*
X69506Y-40379D01*
X69500Y-40385D01*
X69497Y-40388D01*
X69462Y-40420D01*
X69424Y-40449D01*
X69386Y-40476D01*
X69345Y-40496D01*
X69307Y-40514D01*
X69266Y-40528D01*
X69193Y-40552D01*
X69157Y-40561D01*
X69125Y-40566D01*
X69096Y-40569D01*
X69072Y-40572D01*
X69052Y-40575D01*
X69023D01*
X68955Y-40572D01*
X68894Y-40561D01*
X68838Y-40549D01*
X68788Y-40531D01*
X68747Y-40517D01*
X68715Y-40502D01*
X68703Y-40499D01*
X68695Y-40493D01*
X68692Y-40490D01*
X68689D01*
X68633Y-40455D01*
X68586Y-40417D01*
X68545Y-40379D01*
X68513Y-40341D01*
X68487Y-40306D01*
X68466Y-40279D01*
X68455Y-40259D01*
X68452Y-40256D01*
Y-40253D01*
X68425Y-40192D01*
X68405Y-40121D01*
X68390Y-40051D01*
X68378Y-39984D01*
X68375Y-39951D01*
X68373Y-39922D01*
Y-39896D01*
X68370Y-39872D01*
Y-39855D01*
Y-39840D01*
Y-39831D01*
Y-39828D01*
X68373Y-39767D01*
X68378Y-39711D01*
X68387Y-39656D01*
X68399Y-39606D01*
X68414Y-39559D01*
X68428Y-39518D01*
X68446Y-39477D01*
X68460Y-39442D01*
X68478Y-39413D01*
X68496Y-39383D01*
X68510Y-39360D01*
X68525Y-39342D01*
X68537Y-39328D01*
X68545Y-39316D01*
X68551Y-39310D01*
X68554Y-39307D01*
X68589Y-39275D01*
X68627Y-39246D01*
X68665Y-39219D01*
X68703Y-39196D01*
X68744Y-39178D01*
X68783Y-39164D01*
X68856Y-39140D01*
X68891Y-39131D01*
X68923Y-39126D01*
X68949Y-39123D01*
X68976Y-39120D01*
X68996Y-39117D01*
X69023D01*
X69070Y-39120D01*
D02*
G37*
G36*
X66612Y-39310D02*
X66636Y-39281D01*
X66662Y-39251D01*
X66692Y-39228D01*
X66715Y-39210D01*
X66738Y-39193D01*
X66756Y-39181D01*
X66768Y-39175D01*
X66774Y-39172D01*
X66812Y-39155D01*
X66850Y-39140D01*
X66888Y-39131D01*
X66920Y-39123D01*
X66952Y-39120D01*
X66976Y-39117D01*
X66996D01*
X67058Y-39120D01*
X67116Y-39131D01*
X67169Y-39146D01*
X67216Y-39161D01*
X67254Y-39178D01*
X67283Y-39193D01*
X67301Y-39205D01*
X67304Y-39208D01*
X67307D01*
X67356Y-39246D01*
X67397Y-39287D01*
X67432Y-39331D01*
X67462Y-39374D01*
X67485Y-39413D01*
X67500Y-39442D01*
X67506Y-39454D01*
X67512Y-39462D01*
X67514Y-39468D01*
Y-39471D01*
X67538Y-39536D01*
X67553Y-39603D01*
X67564Y-39664D01*
X67573Y-39723D01*
X67579Y-39773D01*
Y-39796D01*
X67582Y-39814D01*
Y-39828D01*
Y-39840D01*
Y-39846D01*
Y-39849D01*
X67579Y-39928D01*
X67570Y-39998D01*
X67558Y-40063D01*
X67544Y-40118D01*
X67529Y-40165D01*
X67523Y-40186D01*
X67517Y-40200D01*
X67512Y-40212D01*
X67509Y-40221D01*
X67506Y-40227D01*
Y-40230D01*
X67473Y-40288D01*
X67441Y-40338D01*
X67403Y-40382D01*
X67371Y-40417D01*
X67339Y-40446D01*
X67315Y-40467D01*
X67298Y-40481D01*
X67295Y-40484D01*
X67292D01*
X67239Y-40514D01*
X67184Y-40537D01*
X67134Y-40552D01*
X67084Y-40563D01*
X67046Y-40569D01*
X67014Y-40572D01*
X67002Y-40575D01*
X66984D01*
X66938Y-40572D01*
X66894Y-40566D01*
X66853Y-40558D01*
X66815Y-40543D01*
X66782Y-40528D01*
X66750Y-40511D01*
X66721Y-40490D01*
X66694Y-40473D01*
X66671Y-40452D01*
X66651Y-40435D01*
X66633Y-40417D01*
X66621Y-40402D01*
X66610Y-40388D01*
X66601Y-40379D01*
X66598Y-40373D01*
X66595Y-40370D01*
Y-40543D01*
X66375D01*
Y-38619D01*
X66612D01*
Y-39310D01*
D02*
G37*
G36*
X37801Y-38593D02*
X37894Y-38604D01*
X37982Y-38625D01*
X38020Y-38636D01*
X38056Y-38645D01*
X38088Y-38657D01*
X38117Y-38669D01*
X38143Y-38677D01*
X38164Y-38689D01*
X38179Y-38695D01*
X38193Y-38701D01*
X38199Y-38707D01*
X38202D01*
X38243Y-38730D01*
X38278Y-38757D01*
X38348Y-38812D01*
X38404Y-38871D01*
X38454Y-38929D01*
X38489Y-38985D01*
X38504Y-39005D01*
X38518Y-39026D01*
X38527Y-39044D01*
X38533Y-39055D01*
X38539Y-39064D01*
Y-39067D01*
X38577Y-39158D01*
X38606Y-39251D01*
X38627Y-39339D01*
X38641Y-39421D01*
X38647Y-39456D01*
X38650Y-39489D01*
X38653Y-39518D01*
Y-39544D01*
X38656Y-39565D01*
Y-39579D01*
Y-39588D01*
Y-39591D01*
X38650Y-39694D01*
X38638Y-39790D01*
X38618Y-39878D01*
X38609Y-39919D01*
X38597Y-39954D01*
X38586Y-39989D01*
X38577Y-40019D01*
X38565Y-40045D01*
X38556Y-40066D01*
X38550Y-40083D01*
X38545Y-40095D01*
X38539Y-40104D01*
Y-40107D01*
X38489Y-40186D01*
X38433Y-40256D01*
X38378Y-40317D01*
X38319Y-40367D01*
X38269Y-40405D01*
X38249Y-40420D01*
X38228Y-40432D01*
X38214Y-40443D01*
X38199Y-40449D01*
X38193Y-40452D01*
X38190Y-40455D01*
X38102Y-40496D01*
X38012Y-40525D01*
X37927Y-40546D01*
X37845Y-40561D01*
X37810Y-40566D01*
X37777Y-40569D01*
X37748Y-40572D01*
X37722D01*
X37701Y-40575D01*
X37675D01*
X37599Y-40572D01*
X37522Y-40563D01*
X37455Y-40552D01*
X37394Y-40537D01*
X37367Y-40531D01*
X37341Y-40525D01*
X37320Y-40520D01*
X37303Y-40514D01*
X37288Y-40508D01*
X37276Y-40505D01*
X37271Y-40502D01*
X37268D01*
X37194Y-40470D01*
X37121Y-40435D01*
X37057Y-40397D01*
X36998Y-40361D01*
X36948Y-40326D01*
X36928Y-40315D01*
X36910Y-40300D01*
X36896Y-40291D01*
X36887Y-40282D01*
X36881Y-40279D01*
X36878Y-40276D01*
Y-39562D01*
X37692D01*
Y-39787D01*
X37127D01*
Y-40151D01*
X37162Y-40177D01*
X37200Y-40203D01*
X37238Y-40227D01*
X37276Y-40247D01*
X37312Y-40265D01*
X37341Y-40276D01*
X37353Y-40282D01*
X37361Y-40285D01*
X37364Y-40288D01*
X37367D01*
X37426Y-40309D01*
X37484Y-40323D01*
X37540Y-40335D01*
X37587Y-40341D01*
X37628Y-40347D01*
X37660Y-40350D01*
X37689D01*
X37760Y-40347D01*
X37827Y-40338D01*
X37886Y-40323D01*
X37941Y-40309D01*
X37985Y-40294D01*
X38006Y-40285D01*
X38020Y-40279D01*
X38032Y-40276D01*
X38041Y-40271D01*
X38047Y-40268D01*
X38050D01*
X38108Y-40233D01*
X38161Y-40192D01*
X38205Y-40148D01*
X38240Y-40107D01*
X38266Y-40069D01*
X38287Y-40039D01*
X38296Y-40028D01*
X38302Y-40019D01*
X38304Y-40013D01*
Y-40010D01*
X38334Y-39940D01*
X38354Y-39869D01*
X38372Y-39796D01*
X38381Y-39726D01*
X38384Y-39697D01*
X38386Y-39667D01*
X38389Y-39641D01*
Y-39620D01*
X38392Y-39600D01*
Y-39588D01*
Y-39579D01*
Y-39577D01*
X38389Y-39500D01*
X38381Y-39427D01*
X38369Y-39363D01*
X38354Y-39304D01*
X38343Y-39257D01*
X38337Y-39237D01*
X38331Y-39222D01*
X38325Y-39208D01*
X38322Y-39199D01*
X38319Y-39193D01*
Y-39190D01*
X38302Y-39152D01*
X38284Y-39117D01*
X38263Y-39085D01*
X38243Y-39055D01*
X38225Y-39032D01*
X38211Y-39014D01*
X38202Y-39003D01*
X38199Y-39000D01*
X38167Y-38967D01*
X38135Y-38941D01*
X38099Y-38918D01*
X38067Y-38897D01*
X38038Y-38880D01*
X38015Y-38868D01*
X38000Y-38862D01*
X37994Y-38859D01*
X37944Y-38841D01*
X37894Y-38827D01*
X37842Y-38818D01*
X37795Y-38809D01*
X37754Y-38806D01*
X37722Y-38803D01*
X37692D01*
X37640Y-38806D01*
X37590Y-38812D01*
X37546Y-38821D01*
X37508Y-38830D01*
X37476Y-38839D01*
X37449Y-38847D01*
X37435Y-38853D01*
X37429Y-38856D01*
X37385Y-38877D01*
X37350Y-38897D01*
X37317Y-38921D01*
X37291Y-38941D01*
X37271Y-38962D01*
X37256Y-38976D01*
X37247Y-38988D01*
X37244Y-38991D01*
X37221Y-39026D01*
X37200Y-39064D01*
X37183Y-39102D01*
X37168Y-39137D01*
X37156Y-39172D01*
X37145Y-39199D01*
X37142Y-39216D01*
X37139Y-39219D01*
Y-39222D01*
X36907Y-39158D01*
X36928Y-39087D01*
X36951Y-39026D01*
X36975Y-38973D01*
X36998Y-38929D01*
X37022Y-38891D01*
X37039Y-38865D01*
X37051Y-38850D01*
X37054Y-38844D01*
X37092Y-38800D01*
X37136Y-38765D01*
X37180Y-38733D01*
X37224Y-38707D01*
X37262Y-38683D01*
X37291Y-38669D01*
X37303Y-38663D01*
X37312Y-38660D01*
X37317Y-38657D01*
X37320D01*
X37385Y-38634D01*
X37449Y-38616D01*
X37514Y-38604D01*
X37569Y-38595D01*
X37619Y-38590D01*
X37643D01*
X37660Y-38587D01*
X37695D01*
X37801Y-38593D01*
D02*
G37*
G36*
X39303Y-40543D02*
X39034D01*
Y-40274D01*
X39303D01*
Y-40543D01*
D02*
G37*
G36*
X36515D02*
X35716D01*
X35657Y-40537D01*
X35604Y-40534D01*
X35557Y-40528D01*
X35522Y-40522D01*
X35496Y-40520D01*
X35478Y-40514D01*
X35472D01*
X35429Y-40499D01*
X35388Y-40484D01*
X35349Y-40470D01*
X35320Y-40455D01*
X35294Y-40440D01*
X35276Y-40429D01*
X35265Y-40423D01*
X35262Y-40420D01*
X35232Y-40394D01*
X35203Y-40364D01*
X35180Y-40335D01*
X35159Y-40306D01*
X35144Y-40279D01*
X35130Y-40259D01*
X35124Y-40244D01*
X35121Y-40238D01*
X35101Y-40194D01*
X35086Y-40151D01*
X35077Y-40107D01*
X35068Y-40069D01*
X35065Y-40036D01*
X35062Y-40010D01*
Y-39992D01*
Y-39987D01*
X35065Y-39925D01*
X35077Y-39869D01*
X35092Y-39823D01*
X35109Y-39779D01*
X35130Y-39743D01*
X35144Y-39717D01*
X35156Y-39702D01*
X35159Y-39697D01*
X35197Y-39653D01*
X35241Y-39618D01*
X35285Y-39588D01*
X35329Y-39562D01*
X35367Y-39544D01*
X35399Y-39530D01*
X35411Y-39527D01*
X35420Y-39524D01*
X35426Y-39521D01*
X35429D01*
X35379Y-39495D01*
X35338Y-39465D01*
X35303Y-39439D01*
X35273Y-39410D01*
X35253Y-39386D01*
X35235Y-39366D01*
X35226Y-39354D01*
X35224Y-39348D01*
X35200Y-39307D01*
X35185Y-39263D01*
X35174Y-39225D01*
X35165Y-39190D01*
X35159Y-39158D01*
X35156Y-39134D01*
Y-39120D01*
Y-39114D01*
X35159Y-39064D01*
X35168Y-39017D01*
X35180Y-38976D01*
X35194Y-38938D01*
X35209Y-38906D01*
X35221Y-38880D01*
X35229Y-38865D01*
X35232Y-38859D01*
X35265Y-38815D01*
X35297Y-38780D01*
X35332Y-38748D01*
X35367Y-38721D01*
X35396Y-38704D01*
X35420Y-38689D01*
X35437Y-38680D01*
X35440Y-38677D01*
X35443D01*
X35496Y-38657D01*
X35554Y-38642D01*
X35613Y-38634D01*
X35669Y-38625D01*
X35718Y-38622D01*
X35739D01*
X35759Y-38619D01*
X36515D01*
Y-40543D01*
D02*
G37*
G36*
X34119Y-38590D02*
X34187Y-38598D01*
X34245Y-38607D01*
X34298Y-38619D01*
X34339Y-38634D01*
X34357Y-38639D01*
X34371Y-38642D01*
X34386Y-38648D01*
X34395Y-38651D01*
X34398Y-38654D01*
X34401D01*
X34456Y-38680D01*
X34506Y-38713D01*
X34547Y-38745D01*
X34579Y-38774D01*
X34606Y-38803D01*
X34626Y-38827D01*
X34638Y-38841D01*
X34641Y-38844D01*
Y-38847D01*
X34667Y-38894D01*
X34688Y-38944D01*
X34702Y-38988D01*
X34711Y-39032D01*
X34717Y-39067D01*
X34723Y-39093D01*
Y-39105D01*
Y-39114D01*
Y-39117D01*
Y-39120D01*
X34720Y-39167D01*
X34711Y-39213D01*
X34702Y-39254D01*
X34688Y-39290D01*
X34676Y-39319D01*
X34667Y-39339D01*
X34658Y-39354D01*
X34655Y-39360D01*
X34626Y-39398D01*
X34594Y-39433D01*
X34562Y-39462D01*
X34527Y-39489D01*
X34497Y-39509D01*
X34474Y-39524D01*
X34456Y-39536D01*
X34453Y-39538D01*
X34450D01*
X34430Y-39550D01*
X34404Y-39559D01*
X34348Y-39579D01*
X34286Y-39600D01*
X34225Y-39620D01*
X34169Y-39635D01*
X34146Y-39641D01*
X34125Y-39647D01*
X34108Y-39653D01*
X34093Y-39656D01*
X34084Y-39659D01*
X34081D01*
X34035Y-39670D01*
X33991Y-39682D01*
X33950Y-39691D01*
X33914Y-39700D01*
X33885Y-39708D01*
X33856Y-39717D01*
X33832Y-39723D01*
X33809Y-39729D01*
X33791Y-39735D01*
X33777Y-39741D01*
X33753Y-39746D01*
X33742Y-39749D01*
X33739Y-39752D01*
X33698Y-39770D01*
X33660Y-39790D01*
X33630Y-39808D01*
X33607Y-39825D01*
X33589Y-39843D01*
X33575Y-39855D01*
X33569Y-39864D01*
X33566Y-39866D01*
X33548Y-39893D01*
X33537Y-39919D01*
X33525Y-39946D01*
X33519Y-39972D01*
X33516Y-39992D01*
X33513Y-40010D01*
Y-40022D01*
Y-40025D01*
X33516Y-40057D01*
X33522Y-40086D01*
X33531Y-40115D01*
X33540Y-40139D01*
X33551Y-40159D01*
X33560Y-40174D01*
X33566Y-40186D01*
X33569Y-40189D01*
X33592Y-40215D01*
X33619Y-40238D01*
X33645Y-40259D01*
X33674Y-40276D01*
X33698Y-40291D01*
X33718Y-40300D01*
X33730Y-40306D01*
X33736Y-40309D01*
X33780Y-40323D01*
X33824Y-40332D01*
X33865Y-40341D01*
X33906Y-40344D01*
X33938Y-40347D01*
X33967Y-40350D01*
X33991D01*
X34049Y-40347D01*
X34105Y-40341D01*
X34158Y-40332D01*
X34199Y-40320D01*
X34237Y-40312D01*
X34263Y-40303D01*
X34281Y-40297D01*
X34283Y-40294D01*
X34286D01*
X34330Y-40271D01*
X34371Y-40247D01*
X34404Y-40221D01*
X34430Y-40197D01*
X34453Y-40177D01*
X34468Y-40159D01*
X34477Y-40148D01*
X34480Y-40145D01*
X34500Y-40107D01*
X34518Y-40069D01*
X34529Y-40028D01*
X34541Y-39989D01*
X34547Y-39954D01*
X34553Y-39928D01*
X34556Y-39910D01*
Y-39907D01*
Y-39905D01*
X34796Y-39925D01*
X34790Y-39995D01*
X34778Y-40060D01*
X34761Y-40121D01*
X34743Y-40171D01*
X34726Y-40215D01*
X34717Y-40233D01*
X34708Y-40247D01*
X34702Y-40259D01*
X34696Y-40268D01*
X34693Y-40271D01*
Y-40274D01*
X34652Y-40326D01*
X34606Y-40373D01*
X34562Y-40411D01*
X34515Y-40443D01*
X34477Y-40470D01*
X34445Y-40487D01*
X34433Y-40493D01*
X34424Y-40499D01*
X34418Y-40502D01*
X34415D01*
X34345Y-40525D01*
X34272Y-40543D01*
X34199Y-40558D01*
X34131Y-40566D01*
X34099Y-40569D01*
X34070Y-40572D01*
X34043D01*
X34023Y-40575D01*
X33979D01*
X33903Y-40572D01*
X33835Y-40563D01*
X33771Y-40552D01*
X33718Y-40537D01*
X33671Y-40525D01*
X33654Y-40520D01*
X33639Y-40514D01*
X33627Y-40508D01*
X33619Y-40505D01*
X33613Y-40502D01*
X33610D01*
X33551Y-40470D01*
X33499Y-40438D01*
X33455Y-40402D01*
X33419Y-40367D01*
X33390Y-40338D01*
X33373Y-40315D01*
X33358Y-40297D01*
X33355Y-40291D01*
X33326Y-40241D01*
X33305Y-40189D01*
X33288Y-40139D01*
X33279Y-40095D01*
X33273Y-40057D01*
X33267Y-40028D01*
Y-40016D01*
Y-40007D01*
Y-40004D01*
Y-40001D01*
X33270Y-39946D01*
X33279Y-39893D01*
X33294Y-39846D01*
X33308Y-39808D01*
X33323Y-39773D01*
X33338Y-39749D01*
X33346Y-39735D01*
X33349Y-39729D01*
X33381Y-39688D01*
X33419Y-39650D01*
X33460Y-39615D01*
X33501Y-39585D01*
X33540Y-39565D01*
X33569Y-39547D01*
X33581Y-39541D01*
X33586Y-39536D01*
X33592Y-39533D01*
X33595D01*
X33619Y-39524D01*
X33648Y-39512D01*
X33677Y-39500D01*
X33712Y-39492D01*
X33783Y-39471D01*
X33853Y-39451D01*
X33917Y-39436D01*
X33947Y-39427D01*
X33973Y-39421D01*
X33994Y-39415D01*
X34008Y-39413D01*
X34020Y-39410D01*
X34023D01*
X34078Y-39395D01*
X34128Y-39383D01*
X34172Y-39372D01*
X34213Y-39357D01*
X34248Y-39345D01*
X34278Y-39336D01*
X34304Y-39325D01*
X34327Y-39313D01*
X34348Y-39304D01*
X34365Y-39298D01*
X34377Y-39290D01*
X34386Y-39284D01*
X34401Y-39275D01*
X34404Y-39272D01*
X34427Y-39246D01*
X34445Y-39219D01*
X34459Y-39190D01*
X34468Y-39164D01*
X34474Y-39140D01*
X34477Y-39120D01*
Y-39108D01*
Y-39102D01*
X34471Y-39058D01*
X34459Y-39020D01*
X34445Y-38985D01*
X34424Y-38956D01*
X34406Y-38929D01*
X34389Y-38912D01*
X34377Y-38900D01*
X34374Y-38897D01*
X34354Y-38882D01*
X34330Y-38868D01*
X34278Y-38847D01*
X34222Y-38833D01*
X34166Y-38824D01*
X34117Y-38815D01*
X34093D01*
X34076Y-38812D01*
X34037D01*
X33958Y-38815D01*
X33891Y-38827D01*
X33832Y-38841D01*
X33786Y-38859D01*
X33750Y-38877D01*
X33724Y-38891D01*
X33709Y-38903D01*
X33704Y-38906D01*
X33666Y-38944D01*
X33633Y-38988D01*
X33610Y-39032D01*
X33592Y-39076D01*
X33581Y-39117D01*
X33575Y-39149D01*
X33572Y-39161D01*
X33569Y-39169D01*
Y-39175D01*
Y-39178D01*
X33326Y-39161D01*
X33332Y-39099D01*
X33343Y-39044D01*
X33361Y-38991D01*
X33379Y-38947D01*
X33393Y-38912D01*
X33408Y-38882D01*
X33419Y-38865D01*
X33422Y-38859D01*
X33458Y-38812D01*
X33499Y-38771D01*
X33540Y-38736D01*
X33581Y-38707D01*
X33619Y-38686D01*
X33648Y-38669D01*
X33660Y-38663D01*
X33668Y-38660D01*
X33671Y-38657D01*
X33674D01*
X33736Y-38634D01*
X33800Y-38616D01*
X33865Y-38604D01*
X33923Y-38595D01*
X33973Y-38590D01*
X33994D01*
X34014Y-38587D01*
X34049D01*
X34119Y-38590D01*
D02*
G37*
%LPC*%
G36*
X65444Y-39310D02*
X65429D01*
X65397Y-39313D01*
X65365Y-39316D01*
X65309Y-39331D01*
X65259Y-39354D01*
X65215Y-39380D01*
X65183Y-39407D01*
X65157Y-39427D01*
X65142Y-39445D01*
X65136Y-39448D01*
Y-39451D01*
X65110Y-39486D01*
X65092Y-39530D01*
X65075Y-39574D01*
X65063Y-39615D01*
X65054Y-39653D01*
X65049Y-39685D01*
Y-39697D01*
X65046Y-39705D01*
Y-39711D01*
Y-39714D01*
X65825D01*
X65816Y-39650D01*
X65801Y-39591D01*
X65781Y-39541D01*
X65760Y-39500D01*
X65740Y-39465D01*
X65722Y-39442D01*
X65710Y-39427D01*
X65705Y-39421D01*
X65661Y-39383D01*
X65614Y-39357D01*
X65570Y-39336D01*
X65526Y-39325D01*
X65488Y-39316D01*
X65456Y-39313D01*
X65444Y-39310D01*
D02*
G37*
G36*
X80362Y-38844D02*
X79908D01*
X79847Y-38850D01*
X79797Y-38853D01*
X79756Y-38859D01*
X79727Y-38865D01*
X79706Y-38868D01*
X79692Y-38874D01*
X79689D01*
X79659Y-38885D01*
X79633Y-38900D01*
X79610Y-38918D01*
X79592Y-38932D01*
X79577Y-38950D01*
X79566Y-38962D01*
X79560Y-38970D01*
X79557Y-38973D01*
X79542Y-39003D01*
X79531Y-39032D01*
X79522Y-39058D01*
X79516Y-39085D01*
X79513Y-39108D01*
X79510Y-39126D01*
Y-39140D01*
Y-39143D01*
X79513Y-39181D01*
X79519Y-39213D01*
X79525Y-39243D01*
X79534Y-39266D01*
X79545Y-39287D01*
X79551Y-39301D01*
X79557Y-39310D01*
X79560Y-39313D01*
X79580Y-39336D01*
X79604Y-39357D01*
X79627Y-39374D01*
X79651Y-39386D01*
X79674Y-39398D01*
X79692Y-39404D01*
X79703Y-39407D01*
X79706Y-39410D01*
X79739Y-39415D01*
X79774Y-39421D01*
X79815Y-39424D01*
X79856Y-39427D01*
X79891Y-39430D01*
X80362D01*
Y-38844D01*
D02*
G37*
G36*
Y-39656D02*
X79856D01*
X79797Y-39661D01*
X79750Y-39664D01*
X79709Y-39670D01*
X79680Y-39676D01*
X79657Y-39682D01*
X79645Y-39685D01*
X79639Y-39688D01*
X79604Y-39702D01*
X79575Y-39720D01*
X79548Y-39738D01*
X79528Y-39758D01*
X79510Y-39776D01*
X79495Y-39787D01*
X79490Y-39799D01*
X79487Y-39802D01*
X79466Y-39831D01*
X79452Y-39864D01*
X79443Y-39896D01*
X79434Y-39925D01*
X79431Y-39948D01*
X79428Y-39969D01*
Y-39981D01*
Y-39987D01*
X79431Y-40022D01*
X79434Y-40051D01*
X79440Y-40080D01*
X79446Y-40104D01*
X79454Y-40124D01*
X79460Y-40139D01*
X79463Y-40148D01*
X79466Y-40151D01*
X79481Y-40174D01*
X79498Y-40197D01*
X79513Y-40215D01*
X79531Y-40230D01*
X79545Y-40244D01*
X79554Y-40253D01*
X79563Y-40256D01*
X79566Y-40259D01*
X79613Y-40282D01*
X79659Y-40297D01*
X79680Y-40303D01*
X79698Y-40306D01*
X79709Y-40309D01*
X79712D01*
X79733Y-40312D01*
X79759Y-40315D01*
X79818Y-40317D01*
X80362D01*
Y-39656D01*
D02*
G37*
G36*
X78298Y-39313D02*
X78248D01*
X78219Y-39319D01*
X78163Y-39333D01*
X78113Y-39357D01*
X78069Y-39380D01*
X78037Y-39404D01*
X78011Y-39427D01*
X77996Y-39442D01*
X77990Y-39445D01*
Y-39448D01*
X77949Y-39503D01*
X77920Y-39565D01*
X77899Y-39632D01*
X77885Y-39694D01*
X77876Y-39752D01*
X77873Y-39776D01*
Y-39796D01*
X77870Y-39817D01*
Y-39828D01*
Y-39837D01*
Y-39840D01*
Y-39890D01*
X77876Y-39937D01*
X77882Y-39981D01*
X77888Y-40019D01*
X77896Y-40057D01*
X77908Y-40092D01*
X77917Y-40121D01*
X77929Y-40148D01*
X77940Y-40171D01*
X77949Y-40192D01*
X77961Y-40209D01*
X77970Y-40224D01*
X77975Y-40235D01*
X77981Y-40244D01*
X77987Y-40247D01*
Y-40250D01*
X78011Y-40274D01*
X78034Y-40294D01*
X78081Y-40326D01*
X78131Y-40350D01*
X78178Y-40364D01*
X78219Y-40376D01*
X78251Y-40379D01*
X78262Y-40382D01*
X78280D01*
X78312Y-40379D01*
X78344Y-40376D01*
X78400Y-40361D01*
X78453Y-40341D01*
X78494Y-40315D01*
X78529Y-40291D01*
X78555Y-40271D01*
X78570Y-40256D01*
X78576Y-40250D01*
X78596Y-40224D01*
X78614Y-40194D01*
X78643Y-40130D01*
X78661Y-40063D01*
X78675Y-39998D01*
X78684Y-39940D01*
X78687Y-39913D01*
Y-39893D01*
X78690Y-39875D01*
Y-39861D01*
Y-39852D01*
Y-39849D01*
Y-39799D01*
X78684Y-39755D01*
X78678Y-39711D01*
X78673Y-39673D01*
X78664Y-39635D01*
X78655Y-39603D01*
X78643Y-39574D01*
X78632Y-39547D01*
X78623Y-39524D01*
X78611Y-39503D01*
X78602Y-39486D01*
X78593Y-39471D01*
X78588Y-39462D01*
X78582Y-39454D01*
X78576Y-39448D01*
X78552Y-39424D01*
X78529Y-39404D01*
X78479Y-39369D01*
X78429Y-39345D01*
X78383Y-39331D01*
X78342Y-39319D01*
X78309Y-39316D01*
X78298Y-39313D01*
D02*
G37*
G36*
X75310D02*
X75261D01*
X75231Y-39319D01*
X75176Y-39333D01*
X75126Y-39357D01*
X75082Y-39380D01*
X75050Y-39404D01*
X75023Y-39427D01*
X75009Y-39442D01*
X75003Y-39445D01*
Y-39448D01*
X74962Y-39503D01*
X74933Y-39565D01*
X74912Y-39632D01*
X74898Y-39694D01*
X74889Y-39752D01*
X74886Y-39776D01*
Y-39796D01*
X74883Y-39817D01*
Y-39828D01*
Y-39837D01*
Y-39840D01*
Y-39890D01*
X74889Y-39937D01*
X74895Y-39981D01*
X74900Y-40019D01*
X74909Y-40057D01*
X74921Y-40092D01*
X74930Y-40121D01*
X74941Y-40148D01*
X74953Y-40171D01*
X74962Y-40192D01*
X74974Y-40209D01*
X74982Y-40224D01*
X74988Y-40235D01*
X74994Y-40244D01*
X75000Y-40247D01*
Y-40250D01*
X75023Y-40274D01*
X75047Y-40294D01*
X75094Y-40326D01*
X75144Y-40350D01*
X75190Y-40364D01*
X75231Y-40376D01*
X75264Y-40379D01*
X75275Y-40382D01*
X75293D01*
X75325Y-40379D01*
X75357Y-40376D01*
X75413Y-40361D01*
X75466Y-40341D01*
X75507Y-40315D01*
X75542Y-40291D01*
X75568Y-40271D01*
X75583Y-40256D01*
X75589Y-40250D01*
X75609Y-40224D01*
X75627Y-40194D01*
X75656Y-40130D01*
X75674Y-40063D01*
X75688Y-39998D01*
X75697Y-39940D01*
X75700Y-39913D01*
Y-39893D01*
X75703Y-39875D01*
Y-39861D01*
Y-39852D01*
Y-39849D01*
Y-39799D01*
X75697Y-39755D01*
X75691Y-39711D01*
X75685Y-39673D01*
X75677Y-39635D01*
X75668Y-39603D01*
X75656Y-39574D01*
X75644Y-39547D01*
X75636Y-39524D01*
X75624Y-39503D01*
X75615Y-39486D01*
X75606Y-39471D01*
X75600Y-39462D01*
X75595Y-39454D01*
X75589Y-39448D01*
X75565Y-39424D01*
X75542Y-39404D01*
X75492Y-39369D01*
X75442Y-39345D01*
X75395Y-39331D01*
X75354Y-39319D01*
X75322Y-39316D01*
X75310Y-39313D01*
D02*
G37*
G36*
X69040Y-39313D02*
X68990D01*
X68961Y-39319D01*
X68906Y-39333D01*
X68856Y-39357D01*
X68812Y-39380D01*
X68780Y-39404D01*
X68753Y-39427D01*
X68739Y-39442D01*
X68733Y-39445D01*
Y-39448D01*
X68692Y-39503D01*
X68662Y-39565D01*
X68642Y-39632D01*
X68627Y-39694D01*
X68619Y-39752D01*
X68616Y-39776D01*
Y-39796D01*
X68613Y-39817D01*
Y-39828D01*
Y-39837D01*
Y-39840D01*
Y-39890D01*
X68619Y-39937D01*
X68624Y-39981D01*
X68630Y-40019D01*
X68639Y-40057D01*
X68651Y-40092D01*
X68660Y-40121D01*
X68671Y-40148D01*
X68683Y-40171D01*
X68692Y-40192D01*
X68703Y-40209D01*
X68712Y-40224D01*
X68718Y-40235D01*
X68724Y-40244D01*
X68730Y-40247D01*
Y-40250D01*
X68753Y-40274D01*
X68777Y-40294D01*
X68824Y-40326D01*
X68873Y-40350D01*
X68920Y-40364D01*
X68961Y-40376D01*
X68993Y-40379D01*
X69005Y-40382D01*
X69023D01*
X69055Y-40379D01*
X69087Y-40376D01*
X69143Y-40361D01*
X69195Y-40341D01*
X69236Y-40315D01*
X69272Y-40291D01*
X69298Y-40271D01*
X69313Y-40256D01*
X69318Y-40250D01*
X69339Y-40224D01*
X69357Y-40194D01*
X69386Y-40130D01*
X69403Y-40063D01*
X69418Y-39998D01*
X69427Y-39940D01*
X69430Y-39913D01*
Y-39893D01*
X69433Y-39875D01*
Y-39861D01*
Y-39852D01*
Y-39849D01*
Y-39799D01*
X69427Y-39755D01*
X69421Y-39711D01*
X69415Y-39673D01*
X69406Y-39635D01*
X69398Y-39603D01*
X69386Y-39574D01*
X69374Y-39547D01*
X69365Y-39524D01*
X69354Y-39503D01*
X69345Y-39486D01*
X69336Y-39471D01*
X69330Y-39462D01*
X69324Y-39454D01*
X69318Y-39448D01*
X69295Y-39424D01*
X69272Y-39404D01*
X69222Y-39369D01*
X69172Y-39345D01*
X69125Y-39331D01*
X69084Y-39319D01*
X69052Y-39316D01*
X69040Y-39313D01*
D02*
G37*
G36*
X66987D02*
X66943D01*
X66914Y-39319D01*
X66861Y-39333D01*
X66815Y-39357D01*
X66776Y-39380D01*
X66744Y-39404D01*
X66721Y-39427D01*
X66706Y-39442D01*
X66700Y-39445D01*
Y-39448D01*
X66680Y-39474D01*
X66662Y-39503D01*
X66636Y-39571D01*
X66615Y-39641D01*
X66604Y-39708D01*
X66595Y-39773D01*
X66592Y-39799D01*
Y-39823D01*
X66589Y-39843D01*
Y-39858D01*
Y-39866D01*
Y-39869D01*
Y-39916D01*
X66595Y-39960D01*
X66598Y-40001D01*
X66607Y-40039D01*
X66615Y-40074D01*
X66624Y-40107D01*
X66633Y-40136D01*
X66642Y-40159D01*
X66653Y-40183D01*
X66662Y-40203D01*
X66671Y-40218D01*
X66680Y-40233D01*
X66689Y-40241D01*
X66692Y-40250D01*
X66697Y-40253D01*
Y-40256D01*
X66718Y-40279D01*
X66738Y-40297D01*
X66785Y-40329D01*
X66829Y-40350D01*
X66870Y-40367D01*
X66905Y-40376D01*
X66935Y-40379D01*
X66946Y-40382D01*
X66961D01*
X66990Y-40379D01*
X67017Y-40376D01*
X67069Y-40361D01*
X67113Y-40341D01*
X67151Y-40315D01*
X67184Y-40291D01*
X67207Y-40271D01*
X67222Y-40256D01*
X67227Y-40250D01*
X67248Y-40224D01*
X67266Y-40194D01*
X67292Y-40133D01*
X67312Y-40066D01*
X67324Y-40001D01*
X67333Y-39940D01*
X67336Y-39916D01*
Y-39893D01*
X67339Y-39875D01*
Y-39861D01*
Y-39852D01*
Y-39849D01*
Y-39799D01*
X67333Y-39752D01*
X67330Y-39708D01*
X67321Y-39667D01*
X67315Y-39632D01*
X67307Y-39597D01*
X67295Y-39568D01*
X67286Y-39541D01*
X67277Y-39518D01*
X67266Y-39497D01*
X67257Y-39480D01*
X67251Y-39465D01*
X67242Y-39456D01*
X67239Y-39448D01*
X67233Y-39442D01*
X67213Y-39418D01*
X67192Y-39398D01*
X67148Y-39369D01*
X67104Y-39345D01*
X67063Y-39328D01*
X67028Y-39319D01*
X66999Y-39316D01*
X66987Y-39313D01*
D02*
G37*
G36*
X36260Y-38844D02*
X35806D01*
X35745Y-38850D01*
X35695Y-38853D01*
X35654Y-38859D01*
X35625Y-38865D01*
X35604Y-38868D01*
X35590Y-38874D01*
X35587D01*
X35557Y-38885D01*
X35531Y-38900D01*
X35508Y-38918D01*
X35490Y-38932D01*
X35475Y-38950D01*
X35464Y-38962D01*
X35458Y-38970D01*
X35455Y-38973D01*
X35440Y-39003D01*
X35429Y-39032D01*
X35420Y-39058D01*
X35414Y-39085D01*
X35411Y-39108D01*
X35408Y-39126D01*
Y-39140D01*
Y-39143D01*
X35411Y-39181D01*
X35417Y-39213D01*
X35423Y-39243D01*
X35431Y-39266D01*
X35443Y-39287D01*
X35449Y-39301D01*
X35455Y-39310D01*
X35458Y-39313D01*
X35478Y-39336D01*
X35502Y-39357D01*
X35525Y-39374D01*
X35549Y-39386D01*
X35572Y-39398D01*
X35590Y-39404D01*
X35601Y-39407D01*
X35604Y-39410D01*
X35636Y-39415D01*
X35672Y-39421D01*
X35713Y-39424D01*
X35754Y-39427D01*
X35789Y-39430D01*
X36260D01*
Y-38844D01*
D02*
G37*
G36*
Y-39656D02*
X35754D01*
X35695Y-39661D01*
X35648Y-39664D01*
X35607Y-39670D01*
X35578Y-39676D01*
X35554Y-39682D01*
X35543Y-39685D01*
X35537Y-39688D01*
X35502Y-39702D01*
X35472Y-39720D01*
X35446Y-39738D01*
X35426Y-39758D01*
X35408Y-39776D01*
X35393Y-39787D01*
X35388Y-39799D01*
X35385Y-39802D01*
X35364Y-39831D01*
X35349Y-39864D01*
X35341Y-39896D01*
X35332Y-39925D01*
X35329Y-39948D01*
X35326Y-39969D01*
Y-39981D01*
Y-39987D01*
X35329Y-40022D01*
X35332Y-40051D01*
X35338Y-40080D01*
X35344Y-40104D01*
X35352Y-40124D01*
X35358Y-40139D01*
X35361Y-40148D01*
X35364Y-40151D01*
X35379Y-40174D01*
X35396Y-40197D01*
X35411Y-40215D01*
X35429Y-40230D01*
X35443Y-40244D01*
X35452Y-40253D01*
X35461Y-40256D01*
X35464Y-40259D01*
X35511Y-40282D01*
X35557Y-40297D01*
X35578Y-40303D01*
X35595Y-40306D01*
X35607Y-40309D01*
X35610D01*
X35631Y-40312D01*
X35657Y-40315D01*
X35716Y-40317D01*
X36260D01*
Y-39656D01*
D02*
G37*
%LPD*%
D12*
X296Y-17511D02*
X64868D01*
X64868Y17489D02*
X64868Y-17511D01*
X296Y17489D02*
X64868D01*
X61632D02*
X61645Y17477D01*
X296Y17489D02*
X296Y-17511D01*
D24*
X30000Y-5900D02*
D03*
X30000Y-6800D02*
D03*
X25900Y-1350D02*
D03*
X25900Y-2250D02*
D03*
D25*
X28696Y-11830D02*
D03*
X29596Y-11830D02*
D03*
X35339Y-11830D02*
D03*
X36239Y-11830D02*
D03*
X35439Y-10505D02*
D03*
X36339Y-10504D02*
D03*
D30*
X25525Y-6125D02*
D03*
X26950D02*
D03*
X28286Y-10404D02*
D03*
X29711D02*
D03*
D32*
X26552Y2469D02*
D03*
X26552Y3894D02*
D03*
X23550Y-2263D02*
D03*
Y-837D02*
D03*
D33*
X61750Y-4511D02*
D03*
Y3989D02*
D03*
D39*
X21110Y14000D02*
D03*
X23650D02*
D03*
X13490D02*
D03*
X16030D02*
D03*
X5870D02*
D03*
X10950D02*
D03*
X8410D02*
D03*
X18570D02*
D03*
X46510D02*
D03*
X49050D02*
D03*
X41430D02*
D03*
X43970D02*
D03*
X51590D02*
D03*
X26190D02*
D03*
X31270D02*
D03*
X28730D02*
D03*
X33810D02*
D03*
X38890D02*
D03*
X36350D02*
D03*
X21110Y-14000D02*
D03*
X23650D02*
D03*
X13490D02*
D03*
X16030D02*
D03*
X5870D02*
D03*
X10950D02*
D03*
X8410D02*
D03*
X18570D02*
D03*
X46510D02*
D03*
X49050D02*
D03*
X41430D02*
D03*
X43970D02*
D03*
X51590D02*
D03*
X26190D02*
D03*
X31270D02*
D03*
X28730D02*
D03*
X33810D02*
D03*
X38890D02*
D03*
X36350D02*
D03*
X5000Y-9770D02*
D03*
Y7230D02*
D03*
D40*
X54130Y14000D02*
D03*
X54130Y-14000D02*
D03*
D41*
X5000Y-7230D02*
D03*
Y9770D02*
D03*
D42*
X36219Y6452D02*
D03*
X63170Y-1640D02*
D03*
X62541Y1430D02*
D03*
X28132Y1544D02*
D03*
X27708Y4532D02*
D03*
Y3949D02*
D03*
X23706Y2287D02*
D03*
X24598Y-458D02*
D03*
Y-1104D02*
D03*
X28441Y7636D02*
D03*
X52785Y12942D02*
D03*
X52655Y11286D02*
D03*
X51912D02*
D03*
X53399D02*
D03*
X51747Y-8977D02*
D03*
X51037Y-8977D02*
D03*
X50327Y-8977D02*
D03*
X52265Y-7774D02*
D03*
X52265Y-8484D02*
D03*
X37231Y12029D02*
D03*
X36488D02*
D03*
X40220Y11926D02*
D03*
X39477D02*
D03*
X42825Y11793D02*
D03*
X42082D02*
D03*
X46575Y11465D02*
D03*
X45088D02*
D03*
X45832D02*
D03*
X24503Y11554D02*
D03*
X25246D02*
D03*
X21776Y11558D02*
D03*
X22519D02*
D03*
X19467Y11550D02*
D03*
X20210D02*
D03*
X53239Y-9752D02*
D03*
X51753D02*
D03*
X50366D02*
D03*
X47494D02*
D03*
X43235D02*
D03*
X41849D02*
D03*
X38976D02*
D03*
X40363D02*
D03*
X32938Y-9592D02*
D03*
X18609Y-9554D02*
D03*
X21482D02*
D03*
X19996D02*
D03*
X48160Y8150D02*
D03*
X49646D02*
D03*
X48903Y8150D02*
D03*
X51132D02*
D03*
X50389D02*
D03*
X35200Y-7900D02*
D03*
X31600Y-12309D02*
D03*
X30609D02*
D03*
Y-11651D02*
D03*
X59197Y-1429D02*
D03*
X58453D02*
D03*
X57710D02*
D03*
X60313Y-3058D02*
D03*
X59570D02*
D03*
X58827D02*
D03*
X57340D02*
D03*
X58083D02*
D03*
X55854D02*
D03*
X56597D02*
D03*
X55211D02*
D03*
X54468D02*
D03*
X52982D02*
D03*
X53725D02*
D03*
X61799D02*
D03*
X61056D02*
D03*
X62542D02*
D03*
X61090Y-1411D02*
D03*
X36219Y5389D02*
D03*
X37334Y5920D02*
D03*
X36591Y5920D02*
D03*
X36962Y5389D02*
D03*
X36590Y4857D02*
D03*
X37333Y4857D02*
D03*
X36961Y4326D02*
D03*
X36683Y3794D02*
D03*
X37332Y3794D02*
D03*
X37758Y3186D02*
D03*
X37109Y3185D02*
D03*
X38555Y2046D02*
D03*
X38927Y2577D02*
D03*
X38184D02*
D03*
X37441D02*
D03*
X37812Y2046D02*
D03*
X52265Y-7064D02*
D03*
X51132Y5921D02*
D03*
Y6664D02*
D03*
Y7407D02*
D03*
X62541Y-1995D02*
D03*
X62170Y-2527D02*
D03*
X60684D02*
D03*
X61427D02*
D03*
X61055Y-1995D02*
D03*
X61798D02*
D03*
X62170Y1961D02*
D03*
X61798Y1430D02*
D03*
X55853D02*
D03*
X61055D02*
D03*
X60683Y898D02*
D03*
X60312Y1430D02*
D03*
X61427Y1961D02*
D03*
X59569Y1430D02*
D03*
X59197Y898D02*
D03*
X59940D02*
D03*
X58454D02*
D03*
X58826Y1430D02*
D03*
X51132Y5178D02*
D03*
Y4435D02*
D03*
Y2205D02*
D03*
Y2948D02*
D03*
Y3692D02*
D03*
X37505Y-967D02*
D03*
X36762D02*
D03*
X36019D02*
D03*
X37140Y-1356D02*
D03*
X44844Y-1988D02*
D03*
X46330D02*
D03*
X45587D02*
D03*
X44100D02*
D03*
X43357D02*
D03*
X42614D02*
D03*
X40013Y-1356D02*
D03*
X42985D02*
D03*
X43729D02*
D03*
X46701D02*
D03*
X45215D02*
D03*
X45958D02*
D03*
X44472D02*
D03*
X54838Y-1464D02*
D03*
X54095D02*
D03*
X55481D02*
D03*
X51866D02*
D03*
X52609D02*
D03*
X53352D02*
D03*
X53353Y-2527D02*
D03*
X52610D02*
D03*
X54096D02*
D03*
X54839D02*
D03*
X56225D02*
D03*
X55482D02*
D03*
X57712D02*
D03*
X56968D02*
D03*
X58455D02*
D03*
X59198D02*
D03*
X59941D02*
D03*
X51123Y898D02*
D03*
X51495Y1430D02*
D03*
X53352Y898D02*
D03*
X52981Y1430D02*
D03*
X52238D02*
D03*
X53724D02*
D03*
X52609Y898D02*
D03*
X51866D02*
D03*
X54467Y1430D02*
D03*
X55110D02*
D03*
X57340D02*
D03*
X56596D02*
D03*
X56968Y898D02*
D03*
X55481D02*
D03*
X56225D02*
D03*
X54095D02*
D03*
X54838D02*
D03*
X57711D02*
D03*
X58083Y1430D02*
D03*
X48758Y1469D02*
D03*
X48014D02*
D03*
X47643Y938D02*
D03*
X48386D02*
D03*
X44770D02*
D03*
X44027D02*
D03*
X46156D02*
D03*
X45413D02*
D03*
X46899D02*
D03*
X46528Y1469D02*
D03*
X47271D02*
D03*
X45042D02*
D03*
X45785D02*
D03*
X44399D02*
D03*
X41798Y938D02*
D03*
X42541D02*
D03*
X43656Y1469D02*
D03*
X42169D02*
D03*
X42913D02*
D03*
X43284Y938D02*
D03*
X36792Y-4654D02*
D03*
X36420Y-4122D02*
D03*
X37907D02*
D03*
X38550D02*
D03*
X38178Y-4654D02*
D03*
X38922D02*
D03*
X37535D02*
D03*
X40779Y-4122D02*
D03*
X40036D02*
D03*
X39665Y-4654D02*
D03*
X40408D02*
D03*
X41894D02*
D03*
X42637D02*
D03*
X43008Y-4122D02*
D03*
X42265D02*
D03*
X44767Y-4654D02*
D03*
X44123D02*
D03*
X44495Y-4122D02*
D03*
X43752D02*
D03*
X45881D02*
D03*
X46253Y-4654D02*
D03*
X46973Y-4469D02*
D03*
X47705Y-4340D02*
D03*
X46613Y-3993D02*
D03*
X48352Y-3976D02*
D03*
X37163Y-4122D02*
D03*
X39293D02*
D03*
X41522D02*
D03*
X41151Y-4654D02*
D03*
X45510D02*
D03*
X43380D02*
D03*
X45138Y-4122D02*
D03*
X47246Y-3882D02*
D03*
X47896Y-3671D02*
D03*
X48464Y-3337D02*
D03*
X49026Y-3662D02*
D03*
X49510Y-3098D02*
D03*
X48942Y-2914D02*
D03*
X49397Y-2460D02*
D03*
X36110Y1096D02*
D03*
X35367D02*
D03*
X34624D02*
D03*
X33881D02*
D03*
X52265Y-6354D02*
D03*
X39297Y2046D02*
D03*
X43013D02*
D03*
X42641Y2577D02*
D03*
X41898D02*
D03*
X42270Y2046D02*
D03*
X40040D02*
D03*
X39669Y2577D02*
D03*
X40412D02*
D03*
X41155D02*
D03*
X40784Y2046D02*
D03*
X41527D02*
D03*
D43*
X42958Y-8858D02*
D03*
X61858Y12142D02*
D03*
X62558Y10742D02*
D03*
X61858Y9342D02*
D03*
X62558Y7942D02*
D03*
X61858Y6542D02*
D03*
X62558Y-6058D02*
D03*
X61858Y-7458D02*
D03*
Y-10258D02*
D03*
X62558Y-11658D02*
D03*
X61858Y-13058D02*
D03*
X60458Y14942D02*
D03*
X61158Y13542D02*
D03*
X60458Y12142D02*
D03*
X61158Y10742D02*
D03*
X60458Y9342D02*
D03*
X61158Y7942D02*
D03*
X60458Y6542D02*
D03*
X61158Y-6058D02*
D03*
X60458Y-7458D02*
D03*
X61158Y-8858D02*
D03*
X60458Y-10258D02*
D03*
X61158Y-11658D02*
D03*
X60458Y-13058D02*
D03*
X61158Y-14458D02*
D03*
X59058Y14942D02*
D03*
X59758Y13542D02*
D03*
X59058Y12142D02*
D03*
X59758Y10742D02*
D03*
X59058Y9342D02*
D03*
X59758Y7942D02*
D03*
X59058Y6542D02*
D03*
X59758Y2342D02*
D03*
Y-6058D02*
D03*
X59058Y-7458D02*
D03*
X59758Y-8858D02*
D03*
X59058Y-10258D02*
D03*
X59758Y-11658D02*
D03*
X59058Y-13058D02*
D03*
X59758Y-14458D02*
D03*
X57658Y14942D02*
D03*
X58358Y13542D02*
D03*
X57658Y12142D02*
D03*
X58358Y10742D02*
D03*
X57658Y9342D02*
D03*
X58358Y7942D02*
D03*
X57658Y6542D02*
D03*
X58358Y5142D02*
D03*
X57658Y3742D02*
D03*
X58358Y2342D02*
D03*
X57658Y-4658D02*
D03*
X58358Y-6058D02*
D03*
X57658Y-7458D02*
D03*
X58358Y-8858D02*
D03*
X57658Y-10258D02*
D03*
X58358Y-11658D02*
D03*
X57658Y-13058D02*
D03*
X58358Y-14458D02*
D03*
X56258Y14942D02*
D03*
X56958Y13542D02*
D03*
X56258Y12142D02*
D03*
X56958Y10742D02*
D03*
X56258Y9342D02*
D03*
X56958Y7942D02*
D03*
X56258Y6542D02*
D03*
X56958Y5142D02*
D03*
X56258Y3742D02*
D03*
X56958Y2342D02*
D03*
X56258Y-4658D02*
D03*
X56958Y-6058D02*
D03*
X56258Y-7458D02*
D03*
X56958Y-8858D02*
D03*
X56258Y-10258D02*
D03*
X56958Y-11658D02*
D03*
X56258Y-13058D02*
D03*
X56958Y-14458D02*
D03*
X54858Y12142D02*
D03*
X55558Y10742D02*
D03*
X54858Y9342D02*
D03*
X55558Y7942D02*
D03*
X54858Y6542D02*
D03*
X55558Y5142D02*
D03*
X54858Y3742D02*
D03*
X55558Y2342D02*
D03*
X54858Y-4658D02*
D03*
X55558Y-6058D02*
D03*
X54858Y-7458D02*
D03*
X55558Y-8858D02*
D03*
X54858Y-10258D02*
D03*
X55558Y-11658D02*
D03*
X54158Y10742D02*
D03*
X53458Y9342D02*
D03*
X54158Y7942D02*
D03*
X53458Y6542D02*
D03*
X54158Y5142D02*
D03*
X53458Y3742D02*
D03*
X54158Y2342D02*
D03*
Y-6058D02*
D03*
X53458Y-7458D02*
D03*
X54158Y-8858D02*
D03*
X52058Y9342D02*
D03*
X52758Y7942D02*
D03*
X52058Y6542D02*
D03*
X52758Y5142D02*
D03*
X52058Y3742D02*
D03*
X52758Y2342D02*
D03*
X51358Y10742D02*
D03*
X50658Y9342D02*
D03*
X49958Y10742D02*
D03*
X49258Y9342D02*
D03*
X47858Y14942D02*
D03*
Y3742D02*
D03*
Y-13058D02*
D03*
X46458Y6542D02*
D03*
X47158Y5142D02*
D03*
X46458Y3742D02*
D03*
X47158Y2342D02*
D03*
X45058Y9342D02*
D03*
X45758Y7942D02*
D03*
X45058Y6542D02*
D03*
X45758Y5142D02*
D03*
X45058Y3742D02*
D03*
X45758Y2342D02*
D03*
X43658Y9342D02*
D03*
X44358Y7942D02*
D03*
X43658Y6542D02*
D03*
X44358Y5142D02*
D03*
X43658Y3742D02*
D03*
X44358Y2342D02*
D03*
Y-8858D02*
D03*
X42258Y9342D02*
D03*
X42958Y7942D02*
D03*
X42258Y6542D02*
D03*
X42958Y5142D02*
D03*
X42258Y3742D02*
D03*
X40858Y9342D02*
D03*
X41558Y7942D02*
D03*
X40858Y6542D02*
D03*
X41558Y5142D02*
D03*
X40858Y3742D02*
D03*
X41558Y-8858D02*
D03*
X39458Y9342D02*
D03*
X40158Y7942D02*
D03*
X39458Y6542D02*
D03*
X40158Y5142D02*
D03*
X39458Y3742D02*
D03*
X40158Y-8858D02*
D03*
X38058Y9342D02*
D03*
X38758Y7942D02*
D03*
X38058Y6542D02*
D03*
X38758Y5142D02*
D03*
Y-8858D02*
D03*
X36658Y9342D02*
D03*
X37358Y7942D02*
D03*
X35958D02*
D03*
X32458Y14942D02*
D03*
X24758Y10742D02*
D03*
Y5142D02*
D03*
X22658Y6542D02*
D03*
X21258D02*
D03*
X21958Y5142D02*
D03*
X19858Y14942D02*
D03*
X18458Y6542D02*
D03*
Y3742D02*
D03*
X15658Y12142D02*
D03*
X14258Y9342D02*
D03*
X14958Y7942D02*
D03*
X14258Y6542D02*
D03*
X14958Y5142D02*
D03*
X14258Y3742D02*
D03*
X14958Y2342D02*
D03*
X14258Y942D02*
D03*
X14958Y-458D02*
D03*
X14258Y-1858D02*
D03*
X14958Y-3258D02*
D03*
X14258Y-4658D02*
D03*
X14958Y-6058D02*
D03*
X14258Y-7458D02*
D03*
X12858Y12142D02*
D03*
Y9342D02*
D03*
X13558Y7942D02*
D03*
X12858Y6542D02*
D03*
X13558Y5142D02*
D03*
X12858Y3742D02*
D03*
X13558Y2342D02*
D03*
X12858Y942D02*
D03*
X13558Y-458D02*
D03*
X12858Y-1858D02*
D03*
X13558Y-6058D02*
D03*
X12858Y-7458D02*
D03*
X12158Y7942D02*
D03*
X11458Y6542D02*
D03*
X12158Y5142D02*
D03*
X11458Y3742D02*
D03*
X12158Y2342D02*
D03*
X11458Y942D02*
D03*
X12158Y-458D02*
D03*
X11458Y-1858D02*
D03*
X12158Y-3258D02*
D03*
X11458Y-4658D02*
D03*
X12158Y-6058D02*
D03*
X11458Y-7458D02*
D03*
X12158Y-11658D02*
D03*
X10058Y12142D02*
D03*
X10758Y10742D02*
D03*
X10058Y9342D02*
D03*
Y6542D02*
D03*
X10758Y5142D02*
D03*
X10058Y3742D02*
D03*
X10758Y2342D02*
D03*
X10058Y942D02*
D03*
X10758Y-458D02*
D03*
X10058Y-1858D02*
D03*
X10758Y-3258D02*
D03*
X10058Y-4658D02*
D03*
X9358Y10742D02*
D03*
Y5142D02*
D03*
Y2342D02*
D03*
Y-458D02*
D03*
Y-3258D02*
D03*
Y-6058D02*
D03*
X8658Y-7458D02*
D03*
X9358Y-8858D02*
D03*
Y-11658D02*
D03*
X7258Y14942D02*
D03*
Y12142D02*
D03*
Y9342D02*
D03*
Y3742D02*
D03*
Y942D02*
D03*
Y-1858D02*
D03*
Y-4658D02*
D03*
X5858Y12142D02*
D03*
X6558Y10742D02*
D03*
Y5142D02*
D03*
X5858Y3742D02*
D03*
X6558Y2342D02*
D03*
X5858Y942D02*
D03*
X6558Y-458D02*
D03*
X5858Y-1858D02*
D03*
X6558Y-3258D02*
D03*
X5858Y-4658D02*
D03*
X6558Y-6058D02*
D03*
Y-8858D02*
D03*
Y-11658D02*
D03*
X4458Y14942D02*
D03*
X5158Y5142D02*
D03*
X4458Y3742D02*
D03*
X5158Y2342D02*
D03*
X4458Y942D02*
D03*
X5158Y-458D02*
D03*
X4458Y-1858D02*
D03*
X5158Y-3258D02*
D03*
X4458Y-4658D02*
D03*
X3058Y14942D02*
D03*
X3758Y13542D02*
D03*
X3058Y12142D02*
D03*
Y9342D02*
D03*
Y6542D02*
D03*
X3758Y5142D02*
D03*
X3058Y3742D02*
D03*
X3758Y2342D02*
D03*
X3058Y942D02*
D03*
X3758Y-458D02*
D03*
X3058Y-1858D02*
D03*
X3758Y-3258D02*
D03*
X3058Y-4658D02*
D03*
X3758Y-6058D02*
D03*
X3058Y-7458D02*
D03*
X3758Y-8858D02*
D03*
X3058Y-10258D02*
D03*
X3758Y-11658D02*
D03*
X3058Y-13058D02*
D03*
X1970Y16301D02*
D03*
X62526Y15112D02*
D03*
X62908Y-15185D02*
D03*
X64253Y14266D02*
D03*
Y15366D02*
D03*
X63300Y13716D02*
D03*
X63300Y14816D02*
D03*
Y7116D02*
D03*
Y1616D02*
D03*
X63300Y2716D02*
D03*
X63300Y3816D02*
D03*
X63300Y4916D02*
D03*
Y6016D02*
D03*
X63300Y12616D02*
D03*
X63300Y8216D02*
D03*
X63300Y10416D02*
D03*
X63300Y9316D02*
D03*
X63300Y11516D02*
D03*
X64253Y2166D02*
D03*
X64253Y6566D02*
D03*
Y13166D02*
D03*
Y12066D02*
D03*
X64253Y7666D02*
D03*
X64253Y8766D02*
D03*
Y9866D02*
D03*
X64253Y10966D02*
D03*
X64253Y5466D02*
D03*
Y1066D02*
D03*
X64253Y3266D02*
D03*
X64253Y4366D02*
D03*
X64253Y-1734D02*
D03*
X64253Y-2834D02*
D03*
X64253Y-3934D02*
D03*
X64253Y-5034D02*
D03*
X64253Y-6134D02*
D03*
X64253Y-7234D02*
D03*
X64253Y-8334D02*
D03*
X64253Y-9434D02*
D03*
X64253Y-10534D02*
D03*
X64253Y-11634D02*
D03*
Y-12734D02*
D03*
X64253Y-13834D02*
D03*
X64253Y-14934D02*
D03*
X64253Y-16034D02*
D03*
X63300Y-2284D02*
D03*
Y-3384D02*
D03*
X63300Y-4484D02*
D03*
X63300Y-5584D02*
D03*
X63300Y-6684D02*
D03*
X63300Y-7784D02*
D03*
Y-8884D02*
D03*
Y-9984D02*
D03*
X63300Y-11084D02*
D03*
X63300Y-12184D02*
D03*
Y-13284D02*
D03*
X63300Y-14384D02*
D03*
X2005Y-16137D02*
D03*
X1215Y16083D02*
D03*
X1215Y14983D02*
D03*
X1215Y13883D02*
D03*
X1215Y12783D02*
D03*
Y11683D02*
D03*
X1215Y10583D02*
D03*
X1215Y9483D02*
D03*
X1215Y8383D02*
D03*
X1215Y7283D02*
D03*
X1215Y6183D02*
D03*
X1215Y5083D02*
D03*
X1215Y3983D02*
D03*
X1215Y2883D02*
D03*
X1215Y1783D02*
D03*
X1215Y683D02*
D03*
X1215Y-417D02*
D03*
X1215Y-1517D02*
D03*
X1215Y-2617D02*
D03*
X1215Y-3717D02*
D03*
X1215Y-4817D02*
D03*
Y-5917D02*
D03*
Y-7017D02*
D03*
Y-8117D02*
D03*
X1215Y-9217D02*
D03*
X1215Y-10317D02*
D03*
X1215Y-11417D02*
D03*
X1215Y-12517D02*
D03*
X1215Y-13617D02*
D03*
X1215Y-14717D02*
D03*
X1215Y-15817D02*
D03*
X2168Y15533D02*
D03*
X2168Y14433D02*
D03*
X2168Y13333D02*
D03*
X2168Y12233D02*
D03*
X2168Y11133D02*
D03*
X2168Y10033D02*
D03*
X2168Y8933D02*
D03*
Y7833D02*
D03*
X2168Y6733D02*
D03*
X2168Y5633D02*
D03*
Y4533D02*
D03*
X2168Y3433D02*
D03*
X2168Y2333D02*
D03*
X2168Y1233D02*
D03*
X2168Y133D02*
D03*
X2168Y-967D02*
D03*
X2168Y-2067D02*
D03*
X2168Y-3167D02*
D03*
X2168Y-4267D02*
D03*
Y-5367D02*
D03*
X2168Y-6467D02*
D03*
X2168Y-7567D02*
D03*
X2168Y-8667D02*
D03*
X2168Y-9767D02*
D03*
X2168Y-10867D02*
D03*
X2168Y-11967D02*
D03*
Y-13067D02*
D03*
Y-14167D02*
D03*
X2168Y-15267D02*
D03*
X62902Y16895D02*
D03*
X64002D02*
D03*
X61802D02*
D03*
X60702D02*
D03*
X59602D02*
D03*
X58502D02*
D03*
X57402D02*
D03*
X56302D02*
D03*
X55202D02*
D03*
X54102D02*
D03*
X53002D02*
D03*
X51902D02*
D03*
X50802D02*
D03*
X49702D02*
D03*
X48602D02*
D03*
X47502D02*
D03*
X46402D02*
D03*
X45302D02*
D03*
X44202D02*
D03*
X43102D02*
D03*
X42002D02*
D03*
X40902D02*
D03*
X39802D02*
D03*
X38702D02*
D03*
X37602D02*
D03*
X36502D02*
D03*
X35402D02*
D03*
X34302D02*
D03*
X33202D02*
D03*
X32102D02*
D03*
X31002D02*
D03*
X29902D02*
D03*
X28802D02*
D03*
X27702D02*
D03*
X26602D02*
D03*
X25502D02*
D03*
X24402D02*
D03*
X23302D02*
D03*
X22202D02*
D03*
X21102D02*
D03*
X20002D02*
D03*
X18902D02*
D03*
X17802D02*
D03*
X16702D02*
D03*
X15602D02*
D03*
X14502D02*
D03*
X13402D02*
D03*
X12302D02*
D03*
X11202D02*
D03*
X10102D02*
D03*
X9002D02*
D03*
X7902D02*
D03*
X6802D02*
D03*
X5702D02*
D03*
X4602D02*
D03*
X3502D02*
D03*
X2402D02*
D03*
X1302D02*
D03*
X63513Y16099D02*
D03*
X62352Y15942D02*
D03*
X61252D02*
D03*
X60152D02*
D03*
X59052D02*
D03*
X57952D02*
D03*
X56852D02*
D03*
X55752D02*
D03*
X54652D02*
D03*
X53552D02*
D03*
X52452D02*
D03*
X51352D02*
D03*
X50252D02*
D03*
X49152D02*
D03*
X48052D02*
D03*
X46952D02*
D03*
X45852D02*
D03*
X44752D02*
D03*
X43652D02*
D03*
X42552D02*
D03*
X41452D02*
D03*
X40352D02*
D03*
X39252D02*
D03*
X38152D02*
D03*
X37052D02*
D03*
X35952D02*
D03*
X34852D02*
D03*
X33752D02*
D03*
X32652D02*
D03*
X31552D02*
D03*
X30452D02*
D03*
X29352D02*
D03*
X28252D02*
D03*
X27152D02*
D03*
X26052D02*
D03*
X24952D02*
D03*
X23852D02*
D03*
X22752D02*
D03*
X21652D02*
D03*
X20552D02*
D03*
X19452D02*
D03*
X18352D02*
D03*
X17252D02*
D03*
X16152D02*
D03*
X15052D02*
D03*
X13952D02*
D03*
X12852D02*
D03*
X11752D02*
D03*
X10652D02*
D03*
X9552D02*
D03*
X8452D02*
D03*
X7352D02*
D03*
X6252D02*
D03*
X5152D02*
D03*
X4052D02*
D03*
X2952D02*
D03*
X63365Y-15964D02*
D03*
X62265D02*
D03*
X61165D02*
D03*
X60065D02*
D03*
X58965D02*
D03*
X57865D02*
D03*
X56765D02*
D03*
X55665D02*
D03*
X54565D02*
D03*
X53465D02*
D03*
X52365D02*
D03*
X51265D02*
D03*
X50165D02*
D03*
X49065D02*
D03*
X47965D02*
D03*
X46865D02*
D03*
X45765D02*
D03*
X44665D02*
D03*
X43565D02*
D03*
X42465D02*
D03*
X41365D02*
D03*
X40265D02*
D03*
X39165D02*
D03*
X38065D02*
D03*
X36965D02*
D03*
X35865D02*
D03*
X34765D02*
D03*
X33665D02*
D03*
X32565D02*
D03*
X31465D02*
D03*
X30365D02*
D03*
X29265D02*
D03*
X28165D02*
D03*
X27065D02*
D03*
X25965D02*
D03*
X24865D02*
D03*
X23765D02*
D03*
X22665D02*
D03*
X21565D02*
D03*
X20465D02*
D03*
X19365D02*
D03*
X18265D02*
D03*
X17165D02*
D03*
X16065D02*
D03*
X14965D02*
D03*
X13865D02*
D03*
X12765D02*
D03*
X11665D02*
D03*
X10565D02*
D03*
X9465D02*
D03*
X8365D02*
D03*
X7265D02*
D03*
X6165D02*
D03*
X5065D02*
D03*
X3965D02*
D03*
X2865D02*
D03*
X63915Y-16917D02*
D03*
X62815D02*
D03*
X61715D02*
D03*
X60615D02*
D03*
X59515D02*
D03*
X58415D02*
D03*
X57315D02*
D03*
X56215D02*
D03*
X55115D02*
D03*
X54015D02*
D03*
X52915D02*
D03*
X51815D02*
D03*
X50715D02*
D03*
X49615D02*
D03*
X48515D02*
D03*
X47415D02*
D03*
X46315D02*
D03*
X45215D02*
D03*
X44115D02*
D03*
X43015D02*
D03*
X41915D02*
D03*
X40815D02*
D03*
X39715D02*
D03*
X38615D02*
D03*
X37515D02*
D03*
X36415D02*
D03*
X35315D02*
D03*
X34215D02*
D03*
X33115D02*
D03*
X32015D02*
D03*
X30915D02*
D03*
X29815D02*
D03*
X28715D02*
D03*
X27615D02*
D03*
X26515D02*
D03*
X25415D02*
D03*
X24315D02*
D03*
X23215D02*
D03*
X22115D02*
D03*
X21015D02*
D03*
X19915D02*
D03*
X18815D02*
D03*
X17715D02*
D03*
X16615D02*
D03*
X15515D02*
D03*
X14415D02*
D03*
X13315D02*
D03*
X12215D02*
D03*
X11115D02*
D03*
X10015D02*
D03*
X8915D02*
D03*
X7815D02*
D03*
X6715D02*
D03*
X5615D02*
D03*
X4515D02*
D03*
X3415D02*
D03*
X1215D02*
D03*
X2315D02*
D03*
X25328Y1874D02*
D03*
X29769Y4259D02*
D03*
X48427Y5794D02*
D03*
X48427Y7195D02*
D03*
X49742Y-5197D02*
D03*
X49738Y-6540D02*
D03*
X24579Y2628D02*
D03*
X34041Y9737D02*
D03*
X32670Y9531D02*
D03*
X22349Y-5934D02*
D03*
X25441Y-2788D02*
D03*
X17028Y10201D02*
D03*
X23312Y-5533D02*
D03*
X23744Y-4559D02*
D03*
X30515Y-8285D02*
D03*
X36227Y-8220D02*
D03*
X33359Y-2477D02*
D03*
X20578Y-4985D02*
D03*
X27593Y2397D02*
D03*
X25359Y3901D02*
D03*
X30008Y1405D02*
D03*
X27650Y-5210D02*
D03*
X28250Y-6406D02*
D03*
X23711Y100D02*
D03*
X30788Y-6550D02*
D03*
X30409Y-5175D02*
D03*
X33223Y6521D02*
D03*
X18275Y-4925D02*
D03*
X18500Y-2250D02*
D03*
X19700Y-4300D02*
D03*
D97*
X26449Y-7668D02*
D03*
X28354Y-7668D02*
D03*
D98*
X19900Y-2250D02*
D03*
X21400D02*
D03*
M02*
