M48
;Layer_Color=9474304
;FILE_FORMAT=4:3
METRIC,LZ
;TYPE=PLATED
T2F00S00C0.200
T3F00S00C1.000
%
T02
X0001215Y-0016917
X0001215Y-0015817
X0001215Y-0014717
X0001215Y-0013617
X0001215Y-0012517
X0001215Y-0011417
X0002168Y-0011967
X0002168Y-0010867
X0002168Y-0013067
X0003058Y-0013058
X0002168Y-0014167
X0002168Y-0015267
X0002005Y-0016137
X0002865Y-0015964
X0003965
X0005065
X0006165
X0007265
X0008365
X0009465
X0010565
X0011665
X0012765
X0013865
X0014965
X0016065
X0017165
X0018265
X0019365
X0020465
X0021565
X0022665
X0023765
X0024865
X0025965
X0027065
X0028165
X0029265
X0030365
X0031465
X0032565
X0033665
X0034765
X0035865
X0036965
X0038065
X0037515Y-0016917
X0038615
X0036415
X0035315
X0034215
X0033115
X0032015
X0030915
X0029815
X0028715
X0027615
X0026515
X0025415
X0024315
X0023215
X0022115
X0021015
X0019915
X0018815
X0017715
X0016615
X0015515
X0014415
X0013315
X0012215
X0011115
X0010015
X0008915
X0007815
X0006715
X0005615
X0004515
X0003415
X0002315
X0003758Y-0011658
X0006558
X0009358
X0012158
X0030609Y-0011651
Y-0012309
X00316
X0039165Y-0015964
X0040265
X0041365
X0042465
X0043565
X0044665
X0045765
X0046865
X0047965
X0049065
X0050165
X0051265
X0052365
X0053465
X0054565
X0055665
X0056765
X0057865
X0058965
X0060065
X0061165
X0062265
X0063365
X0064253Y-0016034
X0064253Y-0014934
X0064253Y-0013834
X0064253Y-0012734
Y-0011634
X00633Y-0012184
Y-0013284
X00633Y-0014384
X0062908Y-0015185
X0062815Y-0016917
X0061715
X0060615
X0059515
X0058415
X0057315
X0056215
X0055115
X0054015
X0052915
X0051815
X0050715
X0049615
X0048515
X0047415
X0046315
X0045215
X0044115
X0043015
X0041915
X0040815
X0039715
X0047858Y-0013058
X0056258
X0057658
X0059058
X0060458
X0061858
X0062558Y-0011658
X00633Y-0011084
X0061158Y-0011658
X0059758
X0058358
X0056958
X0055558
X0056958Y-0014458
X0058358
X0059758
X0061158
X0063915Y-0016917
X0064253Y-0010534
X0064253Y-0009434
X0064253Y-0008334
X0064253Y-0007234
X0064253Y-0006134
X0064253Y-0005034
X0064253Y-0003934
X0064253Y-0002834
X0064253Y-0001734
X006317Y-000164
X00633Y-0002284
X0062541Y-0001995
X0061798
X0061055
X006109Y-0001411
X0061427Y-0002527
X006217
X0061799Y-0003058
X0061056
X0060313
X005957
X0058827
X0058083
X005734
X0056597
X0055854
X0055211
X0054468
X0053725
X0052982
X0053353Y-0002527
X005261
X0052609Y-0001464
X0051866
X0053352
X0054095
X0054838
X0055481
X0055482Y-0002527
X0054839
X0054096
X0056225
X0056968
X0057712
X0058455
X0059198
X0059941
X0060684
X0062542Y-0003058
X00633Y-0003384
X00633Y-0004484
X00633Y-0005584
X00633Y-0006684
X00633Y-0007784
Y-0008884
Y-0009984
X0061858Y-0010258
X0060458
X0059058
X0057658
X0056258
X0054858
X0055558Y-0008858
X0056958
X0058358
X0059758
X0061158
X0060458Y-0007458
X0061858
X0062558Y-0006058
X0061158
X0059758
X0058358
X0056958
X0055558
X0054158
X0053458Y-0007458
X0054858
X0056258
X0057658
X0059058
X0057658Y-0004658
X0056258
X0054858
X0052265Y-0006354
X0052265Y-0007064
X0052265Y-0007774
X0052265Y-0008484
X0051747Y-0008977
X0051037Y-0008977
X0050327Y-0008977
X0050366Y-0009752
X0051753
X0053239
X0054158Y-0008858
X0049738Y-000654
X0049742Y-0005197
X0049026Y-0003662
X0048942Y-0002914
X004951Y-0003098
X0049397Y-000246
X0048464Y-0003337
X0048352Y-0003976
X0047896Y-0003671
X0047246Y-0003882
X0046613Y-0003993
X0046973Y-0004469
X0047705Y-000434
X0046253Y-0004654
X004551
X0044767
X0044123
X004338
X0042637
X0041894
X0041151
X0040408
X0039665
X0038922
X0039293Y-0004122
X0040036
X0040779
X0041522
X0042265
X0043008
X0043752
X0044495
X0045138
X0045881
X0045587Y-0001988
X0044844
X00441
X0043357
X0042614
X0042985Y-0001356
X0043729
X0044472
X0045215
X0045958
X0046701
X004633Y-0001988
X0046156Y0000938
X0045413
X004477
X0044027
X0043284
X0042541
X0041798
X0042169Y0001469
X004227Y0002046
X0043013
X0042913Y0001469
X0043656
X0044399
X0045042
X0045785
X0046528
X0047271
X0048014
X0048758
X0048386Y0000938
X0047643
X0046899
X0047158Y0002342
X0045758
X0044358
X0042641Y0002577
X0041898
X0041155
X0040412
X0039669
X0038927
X0039297Y0002046
X004004
X0040784
X0041527
X0040858Y0003742
X0042258
X0043658
X0045058
X0046458
X0047858
X0047158Y0005142
X0045758
X0044358
X0042958
X0041558
X0040158
X0038758
X0039458Y0006542
X0040858
X0042258
X0043658
X0045058
X0046458
X0045758Y0007942
X0044358
X0042958
X0041558
X0040158
X0038758
X0039458Y0009342
X0040858
X0042258
X0043658
X0045058
X0045088Y0011465
X0045832
X0046575
X0042825Y0011793
X0042082
X004022Y0011926
X0039477
X0039252Y0015942
X0040352
X0041452
X0042552
X0043652
X0044752
X0045852
X0046952
X0048052
X0049152
X0050252
X0051352
X0052452
X0053552
X0054652
X0055752
X0056852
X0057952
X0059052
X0059058Y0014942
X0060458
X0060152Y0015942
X0061252
X0062352
X0062526Y0015112
X00633Y0014816
X00633Y0013716
X00633Y0012616
X00633Y0011516
X00633Y0010416
X0062558Y0010742
X0061158
X0059758
X0058358
X0056958
X0055558
X0054158
X0053399Y0011286
X0052655
X0051912
X0051358Y0010742
X0049958
X0049258Y0009342
X0050658
X0052058
X0053458
X0054858
X0056258
X0057658
X0059058
X0060458
X0061858
X00633Y0009316
Y0008216
X0062558Y0007942
X0061158
X0059758
X0058358
X0056958
X0055558
X0054158
X0052758
X0051132Y000815
X0050389
X0049646Y000815
X0048903Y000815
X004816Y000815
X0048427Y0007195
X0048427Y0005794
X0051132Y0005921
Y0006664
Y0007407
X0052058Y0006542
X0053458
X0054858
X0056258
X0057658
X0059058
X0060458
X0061858
X00633Y0006016
X00633Y0007116
X0064253Y0007666
X0064253Y0006566
X0064253Y0005466
X0064253Y0004366
X0064253Y0003266
X0064253Y0002166
X0064253Y0001066
X00633Y0001616
X0062541Y000143
X0061798
X0061055
X0060312
X0059569
X0058826
X0058083
X005734
X0056596
X0055853
X005511
X0054467
X0053724
X0052981
X0052238
X0051495
X0051866Y0000898
X0051123
X0051132Y0002205
Y0002948
Y0003692
Y0004435
Y0005178
X0052758Y0005142
X0054158
X0055558
X0056958
X0058358
X0057658Y0003742
X0056258
X0054858
X0053458
X0052058
X0052758Y0002342
X0054158
X0055558
X0056958
X0058358
X0059758
X005994Y0000898
X0060683
X0059197
X0058454
X0057711
X0056968
X0056225
X0055481
X0054838
X0054095
X0053352
X0052609
X005771Y-0001429
X0058453
X0059197
X0061427Y0001961
X006217
X00633Y0002716
X00633Y0003816
X00633Y0004916
X0064253Y0008766
Y0009866
X0064253Y0010966
X0064253Y0012066
Y0013166
Y0014266
Y0015366
X0063513Y0016099
X0064002Y0016895
X0062902
X0061802
X0060702
X0059602
X0058502
X0057402
X0056302
X0055202
X0054102
X0053002
X0051902
X0050802
X0049702
X0048602
X0047502
X0046402
X0045302
X0044202
X0043102
X0042002
X0040902
X0039802
X0038702
X0047858Y0014942
X0052785Y0012942
X0054858Y0012142
X0056258
X0057658
X0059058
X0060458
X0061858
X0061158Y0013542
X0059758
X0058358
X0056958
X0056258Y0014942
X0057658
X0039458Y0003742
X0040013Y-0001356
X0040158Y-0008858
X0040363Y-0009752
X0038976
X0038758Y-0008858
X0041558
X0041849Y-0009752
X0043235
X0042958Y-0008858
X0044358
X0047494Y-0009752
X0036227Y-000822
X00352Y-00079
X0032938Y-0009592
X0030515Y-0008285
X0030788Y-000655
X0030409Y-0005175
X002765Y-000521
X002825Y-0006406
X0023312Y-0005533
X0022349Y-0005934
X0020578Y-0004985
X00197Y-00043
X0018275Y-0004925
X00185Y-000225
X0014958Y-0003258
X0014258Y-0001858
X0012858
X0011458
X0010058
X0010758Y-0000458
X0012158
X0013558
X0014958
X0014258Y0000942
X0012858
X0011458
X0010058
X0010758Y0002342
X0012158
X0013558
X0014958
X0014258Y0003742
X0012858
X0011458
X0010058
X0010758Y0005142
X0012158
X0013558
X0014958
X0014258Y0006542
X0012858
X0011458
X0010058
X0009358Y0005142
Y0002342
Y-0000458
Y-0003258
X0010758
X0012158
X0011458Y-0004658
X0010058
X0009358Y-0006058
X0008658Y-0007458
X0009358Y-0008858
X0006558
Y-0006058
X0005858Y-0004658
X0007258
X0006558Y-0003258
X0005158
X0003758
X0002168Y-0003167
X0002168Y-0002067
X0002168Y-0000967
X0002168Y0000133
X0002168Y0001233
X0002168Y0002333
X0002168Y0003433
X0002168Y0004533
Y0005633
X0002168Y0006733
X0003058Y0006542
X0003758Y0005142
X0005158
X0006558
X0005858Y0003742
X0007258
X0006558Y0002342
X0005158
X0003758
X0003058Y0003742
X0004458
Y0000942
X0005858
X0007258
X0006558Y-0000458
X0005158
X0003758
X0003058Y0000942
X0001215Y0000683
X0001215Y0001783
X0001215Y0002883
X0001215Y0003983
X0001215Y0005083
X0001215Y0006183
X0001215Y0007283
X0001215Y0008383
X0001215Y0009483
X0001215Y0010583
X0001215Y0011683
Y0012783
X0001215Y0013883
X0001215Y0014983
X0001215Y0016083
X0001302Y0016895
X0002402
X000197Y0016301
X0002168Y0015533
X0002168Y0014433
X0002168Y0013333
X0002168Y0012233
X0003058Y0012142
X0002168Y0011133
X0002168Y0010033
X0002168Y0008933
Y0007833
X0003058Y0009342
X0007258
X0006558Y0010742
X0005858Y0012142
X0007258
X0010058
X0010758Y0010742
X0009358
X0010058Y0009342
X0012858
X0014258
X0014958Y0007942
X0013558
X0012158
X0012858Y0012142
X0015658
X0017028Y0010201
X0019467Y001155
X002021
X0021776Y0011558
X0022519
X0024503Y0011554
X0025246
X0024758Y0010742
X0024952Y0015942
X0026052
X0027152
X0028252
X0029352
X0030452
X0031552
X0032652
X0033752
X0034852
X0035952
X0037052
X0038152
X0037602Y0016895
X0036502
X0035402
X0034302
X0033202
X0032102
X0031002
X0029902
X0028802
X0027702
X0026602
X0025502
X0024402
X0023302
X0022202
X0021102
X0020002
X0018902
X0017802
X0016702
X0015602
X0014502
X0013402
X0012302
X0011202
X0010102
X0009002
X0007902
X0006802
X0005702
X0004602
X0003502
X0002952Y0015942
X0004052
X0005152
X0006252
X0007352
X0007258Y0014942
X0008452Y0015942
X0009552
X0010652
X0011752
X0012852
X0013952
X0015052
X0016152
X0017252
X0018352
X0019452
X0020552
X0021652
X0022752
X0023852
X0019858Y0014942
X0021258Y0006542
X0022658
X0021958Y0005142
X0024758
X0025359Y0003901
X0024579Y0002628
X0023706Y0002287
X0025328Y0001874
X0027593Y0002397
X0028132Y0001544
X0030008Y0001405
X0029769Y0004259
X0027708Y0004532
Y0003949
X0028441Y0007636
X0033223Y0006521
X0036219Y0006452
X0036591Y000592
X0037334Y000592
X0036962Y0005389
X0036219
X003659Y0004857
X0037333Y0004857
X0036961Y0004326
X0036683Y0003794
X0037332Y0003794
X0037109Y0003185
X0037758Y0003186
X0037441Y0002577
X0038184
X0038555Y0002046
X0037812
X003611Y0001096
X0035367
X0034624
X0033881
X0033359Y-0002477
X0036019Y-0000967
X0036762
X0037505
X003714Y-0001356
X0037163Y-0004122
X003642
X0036792Y-0004654
X0037535
X0038178
X0037907Y-0004122
X003855
X0038058Y0006542
X0037358Y0007942
X0035958
X0036658Y0009342
X0038058
X0037231Y0012029
X0036488
X0034041Y0009737
X003267Y0009531
X0032458Y0014942
X0018458Y0006542
Y0003742
X0023711Y00001
X0024598Y-0000458
Y-0001104
X0025441Y-0002788
X0023744Y-0004559
X0021482Y-0009554
X0019996
X0018609
X0014258Y-0007458
X0012858
X0011458
X0012158Y-0006058
X0013558
X0014958
X0014258Y-0004658
X0007258Y-0001858
X0005858
X0004458
X0003058
X0001215Y-0001517
X0001215Y-0002617
X0001215Y-0003717
X0001215Y-0004817
Y-0005917
Y-0007017
Y-0008117
X0001215Y-0009217
X0001215Y-0010317
X0002168Y-0009767
X0002168Y-0008667
X0002168Y-0007567
X0003058Y-0007458
X0002168Y-0006467
X0002168Y-0005367
Y-0004267
X0003058Y-0004658
X0004458
X0003758Y-0006058
Y-0008858
X0003058Y-0010258
X0001215Y-0000417
X0003758Y0013542
X0003058Y0014942
X0004458
T03
X000587Y-0014
X000841
X001095
X001349
X001603
X001857
X002111
X002365
X002619
X002873
X003127
X003381
X003635
X003889
X004143
X004397
X004651
X004905
X005159
X005413
X005413Y0014
X005159
X004905
X004651
X004397
X004143
X003889
X003635
X003381
X003127
X002873
X002619
X002365
X002111
X001857
X001603
X001349
X001095
X000841
X000587
X0005Y000977
Y000723
Y-000723
Y-000977
M30
