M48
; DRILL file KiCad 10.0.1 date 2026-05-04T19:57:01
; FORMAT={-:-/ absolute / inch / decimal}
; #@! TF.CreationDate,2026-05-04T19:57:01+02:00
; #@! TF.GenerationSoftware,Kicad,Pcbnew,10.0.1
; #@! TF.FileFunction,Plated,1,4,PTH
FMAT,2
INCH
; #@! TA.AperFunction,Plated,PTH,ViaDrill
T1C0.0118
; #@! TA.AperFunction,Plated,PTH,ComponentDrill
T2C0.0236
; #@! TA.AperFunction,Plated,PTH,ComponentDrill
T3C0.0256
; #@! TA.AperFunction,Plated,PTH,ComponentDrill
T4C0.0394
%
G90
G05
T1
X3.5354Y-3.9409
X3.6063Y-2.7717
X3.7042Y-3.3396
X3.7047Y-4.1535
X3.7047Y-4.2874
X3.7082Y-3.124
X3.7559Y-2.7677
X3.7913Y-3.8622
X3.7953Y-3.7205
X3.7992Y-4.0394
X3.8031Y-4.3937
X3.8268Y-4.6142
X3.8898Y-3.9961
X3.8937Y-4.0315
X3.9016Y-3.7677
X3.9035Y-4.1614
X3.9291Y-3.9961
X3.9291Y-4.0315
X3.9328Y-4.1499
X3.968Y-3.3238
X3.9685Y-3.9606
X3.9724Y-3.9016
X3.9749Y-3.1043
X3.9961Y-4.3701
X3.9961Y-4.4016
X4.0103Y-3.2283
X4.0354Y-3.8031
X4.0472Y-4.1535
X4.0694Y-3.3219
X4.0984Y-3.9961
X4.1614Y-4.4291
X4.1654Y-3.8858
X4.1654Y-3.9173
X4.2244Y-3.185
X4.2244Y-3.2126
X4.2347Y-2.9508
X4.252Y-3.185
X4.252Y-3.2126
X4.3164Y-3.2707
X4.3371Y-3.2047
X4.3381Y-3.1693
X4.3509Y-2.937
X4.4961Y-3.31
X4.5039Y-3.2205
X4.5861Y-3.0984
X4.7008Y-3.5433
X4.7835Y-4.7087
X4.7953Y-3.3307
X4.9646Y-2.748
X4.9685Y-4.6417
X4.9685Y-4.7047
X5.13Y-3.0
X5.1575Y-4.6102
X5.1575Y-4.6417
X5.1811Y-2.8071
X5.1929Y-2.8898
X5.2362Y-2.811
X5.252Y-4.7047
X5.252Y-4.7402
X5.2746Y-4.3947
X5.2746Y-4.4429
X5.2746Y-4.5925
X5.2756Y-2.7323
X5.2785Y-4.4941
X5.315Y-2.7323
X5.315Y-2.7835
X5.4567Y-2.7362
X5.4567Y-4.2087
X5.5Y-3.7441
X5.5079Y-4.1378
X5.5098Y-4.1752
X5.5118Y-4.7402
X5.5413Y-4.2874
X5.5866Y-4.5866
X5.5906Y-4.0866
X5.6161Y-4.1846
X5.6161Y-4.2323
X5.626Y-3.7598
X5.6358Y-4.5138
X5.6673Y-4.0276
X5.685Y-4.1555
X5.687Y-4.3002
X5.7047Y-4.0276
X5.7087Y-4.6417
X5.7087Y-4.8031
X5.7126Y-4.2323
X5.7152Y-4.165
X5.7205Y-3.8268
X5.7362Y-4.5138
X5.7589Y-3.9872
X5.7677Y-3.0945
X5.7795Y-3.7618
X5.7795Y-3.8996
X5.8091Y-5.5443
X5.815Y-4.0827
X5.815Y-4.1339
X5.8346Y-4.5669
X5.8386Y-4.2362
X5.8406Y-2.8878
X5.8661Y-4.4173
X5.874Y-4.7126
X5.8858Y-4.0827
X5.8858Y-4.1339
X5.9055Y-4.2362
X5.9202Y-4.3888
X5.929Y-3.9836
X5.9429Y-3.8563
X5.9449Y-3.2244
X5.9449Y-3.3898
X5.9488Y-4.0827
X5.9488Y-4.1339
X5.9515Y-3.9544
X5.9567Y-3.1575
X5.9646Y-4.2362
X5.9764Y-4.437
X6.002Y-3.9843
X6.0039Y-4.3661
X6.0197Y-3.874
X6.0364Y-3.1388
X6.0591Y-3.9094
X6.062Y-4.1722
X6.062Y-4.6466
X6.0866Y-4.375
X6.0888Y-4.1888
X6.1102Y-3.5472
X6.1299Y-5.622
X6.1339Y-4.2688
X6.1378Y-5.4803
X6.1467Y-4.8681
X6.186Y-4.8179
X6.248Y-5.0787
X6.2598Y-3.8583
X6.2864Y-4.7254
X6.2992Y-4.1063
X6.3799Y-4.5827
X6.4035Y-4.3848
X6.4213Y-5.3327
X6.4331Y-4.1024
X6.437Y-5.6811
X6.4902Y-3.4902
X6.5315Y-4.2648
X6.6378Y-4.4774
X6.7766Y-4.0902
X6.814Y-2.8848
X6.8465Y-4.0276
X6.8583Y-3.4921
X6.878Y-4.1614
X6.8947Y-3.065
X7.0238Y-4.1969
X7.2Y-4.1969
X7.2511Y-3.9764
X7.2521Y-4.1988
T3
X5.3504Y-4.3441
X5.3504Y-4.3941
X5.3504Y-4.4441
X5.3504Y-4.4941
X5.3504Y-4.5441
X5.3504Y-4.5941
X5.3504Y-4.6441
X5.4004Y-4.3441
X5.4004Y-4.3941
X5.4004Y-4.4441
X5.4004Y-4.4941
X5.4004Y-4.5441
X5.4004Y-4.5941
X5.4004Y-4.6441
T4
X3.6063Y-2.6811
X3.7559Y-2.6811
X4.2638Y-4.1654
X4.3638Y-4.1654
X4.4375Y-3.3543
X4.4375Y-3.4543
X4.5871Y-2.9134
X4.5871Y-3.0134
X4.878Y-4.6102
X4.878Y-4.7102
X4.9394Y-2.6457
X5.0394Y-2.6457
X5.1394Y-2.6457
X5.2795Y-2.6457
X5.3795Y-2.6457
X5.4795Y-2.6457
X5.8764Y-3.4921
X5.9764Y-3.4921
X6.2254Y-5.622
X6.2795Y-4.5246
X6.3254Y-5.622
X6.3795Y-4.5246
X6.6378Y-4.2923
X6.6378Y-4.3923
T2
G00X3.6344Y-3.0622
M15
G01X3.5871Y-3.0622
M16
G05
G00X3.6344Y-3.4024
M15
G01X3.5871Y-3.4024
M16
G05
G00X3.78Y-3.0622
M15
G01X3.7406Y-3.0622
M16
G05
G00X3.78Y-3.4024
M15
G01X3.7406Y-3.4024
M16
G05
M30
