%TF.GenerationSoftware,KiCad,Pcbnew,10.0.1*%
%TF.CreationDate,2026-05-04T19:57:01+02:00*%
%TF.ProjectId,LoRa_prototype,4c6f5261-5f70-4726-9f74-6f747970652e,A*%
%TF.SameCoordinates,Original*%
%TF.FileFunction,Copper,L4,Bot*%
%TF.FilePolarity,Positive*%
%FSLAX46Y46*%
G04 Gerber Fmt 4.6, Leading zero omitted, Abs format (unit mm)*
G04 Created by KiCad (PCBNEW 10.0.1) date 2026-05-04 19:57:01*
%MOMM*%
%LPD*%
G01*
G04 APERTURE LIST*
G04 Aperture macros list*
%AMRoundRect*
0 Rectangle with rounded corners*
0 $1 Rounding radius*
0 $2 $3 $4 $5 $6 $7 $8 $9 X,Y pos of 4 corners*
0 Add a 4 corners polygon primitive as box body*
4,1,4,$2,$3,$4,$5,$6,$7,$8,$9,$2,$3,0*
0 Add four circle primitives for the rounded corners*
1,1,$1+$1,$2,$3*
1,1,$1+$1,$4,$5*
1,1,$1+$1,$6,$7*
1,1,$1+$1,$8,$9*
0 Add four rect primitives between the rounded corners*
20,1,$1+$1,$2,$3,$4,$5,0*
20,1,$1+$1,$4,$5,$6,$7,0*
20,1,$1+$1,$6,$7,$8,$9,0*
20,1,$1+$1,$8,$9,$2,$3,0*%
G04 Aperture macros list end*
%TA.AperFunction,ComponentPad*%
%ADD10R,1.700000X1.700000*%
%TD*%
%TA.AperFunction,ComponentPad*%
%ADD11C,1.700000*%
%TD*%
%TA.AperFunction,ComponentPad*%
%ADD12R,1.000000X1.000000*%
%TD*%
%TA.AperFunction,ComponentPad*%
%ADD13C,1.000000*%
%TD*%
%TA.AperFunction,ComponentPad*%
%ADD14R,2.000000X2.000000*%
%TD*%
%TA.AperFunction,SMDPad,CuDef*%
%ADD15RoundRect,0.250000X1.600000X-0.425000X1.600000X0.425000X-1.600000X0.425000X-1.600000X-0.425000X0*%
%TD*%
%TA.AperFunction,ComponentPad*%
%ADD16O,2.000000X1.000000*%
%TD*%
%TA.AperFunction,ComponentPad*%
%ADD17O,2.200000X1.000000*%
%TD*%
%TA.AperFunction,ViaPad*%
%ADD18C,0.600000*%
%TD*%
%TA.AperFunction,Conductor*%
%ADD19C,0.200000*%
%TD*%
G04 APERTURE END LIST*
D10*
%TO.P,J9,1,Pin_1_1*%
%TO.N,/MCU/TX1*%
X134100000Y-67200000D03*
D11*
%TO.P,J9,2,Pin_2_2*%
%TO.N,/MCU/RX1*%
X136640000Y-67200000D03*
%TO.P,J9,3,Pin_3_3*%
%TO.N,GND*%
X139180000Y-67200000D03*
%TD*%
D10*
%TO.P,J8,1,Pin_1_1*%
%TO.N,VDD*%
X158125000Y-142800000D03*
D11*
%TO.P,J8,2,Pin_2_2*%
%TO.N,Net-(J8-Pin_2)*%
X160665000Y-142800000D03*
%TD*%
D10*
%TO.P,J6,1,Pin_1_1*%
%TO.N,/MCU_SCL1*%
X130540000Y-67200000D03*
D11*
%TO.P,J6,2,Pin_2_2*%
%TO.N,/MCU_SDA1*%
X128000000Y-67200000D03*
%TO.P,J6,3,Pin_3_3*%
%TO.N,GND*%
X125460000Y-67200000D03*
%TD*%
D10*
%TO.P,J12,1,Pin_1_1*%
%TO.N,Net-(J12-Pin_1)*%
X151800000Y-88700000D03*
D11*
%TO.P,J12,2,Pin_2_2*%
%TO.N,VDD*%
X149260000Y-88700000D03*
%TD*%
D12*
%TO.P,J1,1,NC_1*%
%TO.N,unconnected-(J1-NC-Pad1)*%
X135900000Y-110340000D03*
D13*
%TO.P,J1,2,NC_2*%
%TO.N,unconnected-(J1-NC-Pad2)*%
X137170000Y-110340000D03*
%TO.P,J1,3,VCC_3*%
%TO.N,VDD*%
X135900000Y-111610000D03*
%TO.P,J1,4,JTMS/SWDIO_4*%
%TO.N,/MCU/SWDIO*%
X137170000Y-111610000D03*
%TO.P,J1,5,GND_5*%
%TO.N,GND*%
X135900000Y-112880000D03*
%TO.P,J1,6,JCLK/SWCLK_6*%
%TO.N,/MCU/SWCLK*%
X137170000Y-112880000D03*
%TO.P,J1,7,GND_7*%
%TO.N,GND*%
X135900000Y-114150000D03*
%TO.P,J1,8,JTDO/SWO_8*%
%TO.N,/MCU/SWO*%
X137170000Y-114150000D03*
%TO.P,J1,9,JRCLK/NC_9*%
%TO.N,unconnected-(J1-JRCLK{slash}NC-Pad9)*%
X135900000Y-115420000D03*
%TO.P,J1,10,JTDI/NC_10*%
%TO.N,unconnected-(J1-JTDI{slash}NC-Pad10)*%
X137170000Y-115420000D03*
%TO.P,J1,11,GNDDetect_11*%
%TO.N,GND*%
X135900000Y-116690000D03*
%TO.P,J1,12,~{RST}_12*%
%TO.N,/MCU/NRST*%
X137170000Y-116690000D03*
%TO.P,J1,13,VCP_RX_13*%
%TO.N,/MCU/VCP_TX*%
X135900000Y-117960000D03*
%TO.P,J1,14,VCP_TX_14*%
%TO.N,/MCU/VCP_RX*%
X137170000Y-117960000D03*
%TD*%
D14*
%TO.P,TP35,1,1_1*%
%TO.N,VDD*%
X91600000Y-68100000D03*
%TD*%
D10*
%TO.P,J18,1,Pin_1_1*%
%TO.N,/MCU/MCO*%
X168600000Y-109025000D03*
D11*
%TO.P,J18,2,Pin_2_2*%
%TO.N,GND*%
X168600000Y-111565000D03*
%TD*%
D10*
%TO.P,J11,1,Pin_1_1*%
%TO.N,Net-(J11-Pin_1)*%
X123900000Y-117100000D03*
D11*
%TO.P,J11,2,Pin_2_2*%
%TO.N,VDD*%
X123900000Y-119640000D03*
%TD*%
D10*
%TO.P,J10,1,Pin_1_1*%
%TO.N,VDD*%
X116512500Y-76540000D03*
D11*
%TO.P,J10,2,Pin_2_2*%
%TO.N,Net-(J10-Pin_2)*%
X116512500Y-74000000D03*
%TD*%
D10*
%TO.P,J5,1,Pin_1_1*%
%TO.N,Net-(J5-Pin_1)*%
X112712500Y-85200000D03*
D11*
%TO.P,J5,2,Pin_2_2*%
%TO.N,/POWER/BAT+*%
X112712500Y-87740000D03*
%TD*%
D15*
%TO.P,J4,2,Ext_2*%
%TO.N,GND*%
X186550000Y-101000000D03*
X186550000Y-106650000D03*
%TD*%
D16*
%TO.P,J2,S1,SHIELD_S1*%
%TO.N,GND*%
X95512500Y-77780000D03*
D17*
X91712500Y-77780000D03*
D16*
X95512500Y-86420000D03*
D17*
X91712500Y-86420000D03*
%TD*%
D10*
%TO.P,J15,1,Pin_1_1*%
%TO.N,VDD*%
X110840000Y-105800000D03*
D11*
%TO.P,J15,2,Pin_2_2*%
%TO.N,Net-(J15-Pin_2)*%
X108300000Y-105800000D03*
%TD*%
D14*
%TO.P,TP36,1,1_1*%
%TO.N,GND*%
X95400000Y-68100000D03*
%TD*%
D10*
%TO.P,J14,1,Pin_1_1*%
%TO.N,Net-(J14-Pin_1)*%
X159500000Y-114925000D03*
D11*
%TO.P,J14,2,Pin_2_2*%
%TO.N,VDD*%
X162040000Y-114925000D03*
%TD*%
D18*
%TO.N,GND*%
X163500000Y-144300000D03*
X138600000Y-69500000D03*
X131900000Y-73400000D03*
X154600000Y-111125000D03*
X133975000Y-116650000D03*
X155900000Y-139200000D03*
X151000000Y-86100000D03*
X151100000Y-105000000D03*
X99800000Y-102400000D03*
X173075000Y-73275000D03*
X163100000Y-135450000D03*
X107300000Y-80900000D03*
X94187500Y-79350000D03*
X110162500Y-81400000D03*
X142000000Y-103800000D03*
X151100000Y-103700000D03*
X99800000Y-101500000D03*
X172125000Y-103891681D03*
X104100000Y-101500000D03*
X144450000Y-109225000D03*
X100787500Y-84425000D03*
X150000000Y-107600000D03*
X89800000Y-100100000D03*
X152900000Y-98400000D03*
X98800000Y-101500000D03*
X149500000Y-105000000D03*
X146500000Y-78600000D03*
X94100000Y-105500000D03*
X134075000Y-114150000D03*
X149500000Y-103700000D03*
X155200000Y-90100000D03*
X108000000Y-81600000D03*
X101862500Y-82000000D03*
X114200000Y-84075000D03*
X94087500Y-84825000D03*
X109637500Y-83075000D03*
X147700000Y-103700000D03*
X110512500Y-74600000D03*
X168600000Y-113725000D03*
X107300000Y-81600000D03*
X165900000Y-108325000D03*
X133975000Y-112850000D03*
X159000000Y-98000000D03*
X147550000Y-140825000D03*
X142650000Y-107500000D03*
X182878982Y-106600000D03*
X105700000Y-112500000D03*
X160000000Y-104300000D03*
X148200000Y-116000000D03*
X96500000Y-102600000D03*
X150950000Y-97950000D03*
X146800000Y-95550000D03*
X100962500Y-78850000D03*
X153900000Y-99300000D03*
X110187500Y-80500000D03*
X178403982Y-106600000D03*
X148300000Y-107600000D03*
X126200000Y-117900000D03*
X151000000Y-81900000D03*
X107562500Y-74950000D03*
X142650000Y-106290000D03*
X184178982Y-101000000D03*
X175125000Y-77850000D03*
X103362500Y-84375000D03*
X153325000Y-79725000D03*
X151500000Y-107600000D03*
X163400000Y-104200000D03*
X95400000Y-70300000D03*
X98900000Y-102400000D03*
X108000000Y-80900000D03*
X143950000Y-102300000D03*
X121800000Y-84600000D03*
X147700000Y-105000000D03*
X131000000Y-117100000D03*
X139950000Y-106050000D03*
X156125000Y-123650000D03*
X114400000Y-81800000D03*
X151300000Y-80200000D03*
X184203982Y-106650000D03*
X140750000Y-108900000D03*
X96400000Y-94500000D03*
X96600000Y-111600000D03*
X151800000Y-112700000D03*
X126200000Y-119500000D03*
X159675000Y-120025000D03*
X149200000Y-119700000D03*
X126100000Y-69800000D03*
%TO.N,Net-(U4-IN_LV)*%
X105800000Y-98699997D03*
X100900000Y-99100000D03*
%TO.N,/POWER/MPP*%
X94100000Y-108900000D03*
X96300000Y-98100000D03*
%TO.N,/MCU/TX1*%
X134000000Y-69400000D03*
X148350000Y-73350000D03*
X154654968Y-106396479D03*
X135000000Y-70700000D03*
X131600000Y-71300000D03*
%TO.N,/MCU/RX1*%
X133000000Y-71400000D03*
X135000000Y-69400000D03*
%TO.N,VDD*%
X155700000Y-142800000D03*
X121500000Y-119600000D03*
X91600000Y-70400000D03*
X151167801Y-100440952D03*
X143150000Y-114650000D03*
X133975000Y-111625000D03*
X116487500Y-78700000D03*
X152500000Y-110900000D03*
X145700000Y-114650000D03*
X144900000Y-102300000D03*
X144400000Y-105550000D03*
X157125000Y-122375000D03*
X131000000Y-117900000D03*
X145100000Y-107500000D03*
X142900000Y-95500000D03*
X162050000Y-116400000D03*
X164850000Y-88650000D03*
X139900000Y-105100000D03*
%TO.N,/MCU_SDA1*%
X145000000Y-122000000D03*
X130300735Y-76200735D03*
X133400000Y-120400000D03*
X145000000Y-117900000D03*
X140000000Y-120400000D03*
%TO.N,/MCU_SCL1*%
X133400000Y-119500000D03*
X158700000Y-129000000D03*
X141900000Y-116500000D03*
%TO.N,/POWER/~{BATT_CHG}*%
X97200000Y-117200000D03*
X99147906Y-105698656D03*
%TO.N,/MCU/VFBSMPS*%
X138600000Y-106900000D03*
X152450000Y-101200000D03*
X150597555Y-101184519D03*
%TO.N,/MCU/NRST*%
X153975735Y-118024265D03*
X153975000Y-105975000D03*
%TO.N,/MCU/MISO1*%
X155800000Y-108426473D03*
X162650000Y-111375000D03*
%TO.N,/POWER/STORE*%
X100800000Y-100600000D03*
X101500000Y-111000000D03*
X105800000Y-99500000D03*
X102800000Y-105500000D03*
%TO.N,/POWER/BAT+*%
X102500000Y-96600000D03*
X99100000Y-95700000D03*
%TO.N,/ANTENNA/RF_SW_V1*%
X145300000Y-97200000D03*
X174700000Y-105700000D03*
%TO.N,/ANTENNA/RF_SW_V2*%
X149000000Y-112200000D03*
X173900000Y-102300000D03*
%TO.N,/POWER/~{BATT_CONN}*%
X101500000Y-111800003D03*
X99892892Y-105407108D03*
%TO.N,/MCU/SWDIO*%
X146275000Y-101275000D03*
%TO.N,/MCU/SWCLK*%
X145166526Y-105790504D03*
%TO.N,/MCU/VCP_TX*%
X150373511Y-111475000D03*
%TO.N,/MCU/~{ALRT}*%
X146800000Y-99050000D03*
X119400000Y-90000000D03*
%TO.N,/GPS AND GAS SENSORS/GPS_RESET*%
X139700000Y-95100000D03*
X174200000Y-88700000D03*
%TD*%
%TO.N,GND*%
D19*
X184212301Y-106641681D02*
X184203982Y-106650000D01*
X186850000Y-100991681D02*
X184187301Y-100991681D01*
X186850000Y-106641681D02*
X184212301Y-106641681D01*
X184187301Y-100991681D02*
X184178982Y-101000000D01*
%TO.N,Net-(U4-IN_LV)*%
X101300003Y-98699997D02*
X105800000Y-98699997D01*
X100900000Y-99100000D02*
X101300003Y-98699997D01*
%TO.N,/POWER/MPP*%
X95400000Y-98600000D02*
X95900000Y-98100000D01*
X95400000Y-107600000D02*
X95400000Y-98600000D01*
X95900000Y-98100000D02*
X96300000Y-98100000D01*
X94100000Y-108900000D02*
X95400000Y-107600000D01*
%TO.N,/MCU/TX1*%
X154654968Y-106396479D02*
X154654968Y-104556440D01*
X134700000Y-93800000D02*
X134700000Y-71000000D01*
X132100000Y-71300000D02*
X134000000Y-69400000D01*
X134700000Y-71000000D02*
X135000000Y-70700000D01*
X154399264Y-104300736D02*
X152223529Y-102125000D01*
X148350000Y-73350000D02*
X137650000Y-73350000D01*
X152223529Y-102125000D02*
X148100000Y-102125000D01*
X154654968Y-104556440D02*
X154399264Y-104300736D01*
X137200000Y-96300000D02*
X135400000Y-94500000D01*
X148100000Y-102125000D02*
X142275000Y-96300000D01*
X131600000Y-71300000D02*
X132100000Y-71300000D01*
X135400000Y-94500000D02*
X134700000Y-93800000D01*
X142275000Y-96300000D02*
X137200000Y-96300000D01*
X137650000Y-73350000D02*
X135000000Y-70700000D01*
%TO.N,/MCU/RX1*%
X133000000Y-71400000D02*
X135000000Y-69400000D01*
%TO.N,/MCU_SDA1*%
X132500000Y-120400000D02*
X133400000Y-120400000D01*
X130300735Y-76200735D02*
X130300735Y-118200735D01*
X130300735Y-118200735D02*
X132500000Y-120400000D01*
X140000000Y-120400000D02*
X133400000Y-120400000D01*
%TO.N,/MCU_SCL1*%
X141900000Y-116500000D02*
X138900000Y-119500000D01*
X138900000Y-119500000D02*
X133400000Y-119500000D01*
%TO.N,/POWER/~{BATT_CHG}*%
X99147906Y-105698656D02*
X99147906Y-115252094D01*
X99147906Y-115252094D02*
X97200000Y-117200000D01*
%TO.N,/MCU/VFBSMPS*%
X152450000Y-101200000D02*
X150613036Y-101200000D01*
X150613036Y-101200000D02*
X150597555Y-101184519D01*
%TO.N,/MCU/NRST*%
X148592106Y-105975000D02*
X137877106Y-116690000D01*
X137877106Y-116690000D02*
X137170000Y-116690000D01*
X153975000Y-105975000D02*
X148592106Y-105975000D01*
%TO.N,/MCU/MISO1*%
X158748527Y-111375000D02*
X155800000Y-108426473D01*
X162650000Y-111375000D02*
X158748527Y-111375000D01*
%TO.N,/POWER/STORE*%
X102800000Y-105500000D02*
X102800000Y-109700000D01*
X105800000Y-99500000D02*
X101900000Y-99500000D01*
X101900000Y-99500000D02*
X100800000Y-100600000D01*
X100800000Y-110300000D02*
X101500000Y-111000000D01*
X102800000Y-109700000D02*
X101500000Y-111000000D01*
X100800000Y-100600000D02*
X100800000Y-110300000D01*
%TO.N,/POWER/BAT+*%
X102500000Y-96600000D02*
X101600000Y-95700000D01*
X101600000Y-95700000D02*
X99100000Y-95700000D01*
%TO.N,/ANTENNA/RF_SW_V1*%
X175100000Y-105700000D02*
X174700000Y-105700000D01*
X170600000Y-97200000D02*
X176200000Y-102800000D01*
X176200000Y-102800000D02*
X176200000Y-104600000D01*
X145300000Y-97200000D02*
X170600000Y-97200000D01*
X176200000Y-104600000D02*
X175100000Y-105700000D01*
%TO.N,/ANTENNA/RF_SW_V2*%
X154400000Y-117600000D02*
X170600000Y-117600000D01*
X149000000Y-112200000D02*
X154400000Y-117600000D01*
X173900000Y-114300000D02*
X173900000Y-102300000D01*
X170600000Y-117600000D02*
X173900000Y-114300000D01*
%TO.N,/POWER/~{BATT_CONN}*%
X99892892Y-105407108D02*
X99892892Y-110241421D01*
X99892892Y-110241421D02*
X101451474Y-111800003D01*
X101451474Y-111800003D02*
X101500000Y-111800003D01*
%TO.N,/MCU/SWDIO*%
X146275000Y-101275000D02*
X146275000Y-101773529D01*
X146275000Y-101773529D02*
X137970000Y-110078529D01*
X137970000Y-110078529D02*
X137970000Y-110810000D01*
X137970000Y-110810000D02*
X137170000Y-111610000D01*
%TO.N,/MCU/SWCLK*%
X138118529Y-112880000D02*
X137170000Y-112880000D01*
X145166526Y-105832003D02*
X138118529Y-112880000D01*
X145166526Y-105790504D02*
X145166526Y-105832003D01*
%TO.N,/MCU/VCP_TX*%
X137501371Y-118760000D02*
X136700000Y-118760000D01*
X144786371Y-111475000D02*
X137501371Y-118760000D01*
X150373511Y-111475000D02*
X144786371Y-111475000D01*
X136700000Y-118760000D02*
X135900000Y-117960000D01*
%TO.N,/GPS AND GAS SENSORS/GPS_RESET*%
X169600000Y-93300000D02*
X174200000Y-88700000D01*
X141500000Y-93300000D02*
X169600000Y-93300000D01*
X139700000Y-95100000D02*
X141500000Y-93300000D01*
%TO.N,/MCU_SCL1*%
X141900000Y-124200000D02*
X141900000Y-116500000D01*
%TO.N,/MCU_SDA1*%
X145000000Y-122000000D02*
X145000000Y-117900000D01*
%TO.N,/MCU_SCL1*%
X158700000Y-129000000D02*
X146700000Y-129000000D01*
X146700000Y-129000000D02*
X141900000Y-124200000D01*
%TD*%
%TA.AperFunction,Conductor*%
%TO.N,GND*%
G36*
X184780364Y-100400606D02*
G01*
X186518214Y-100980736D01*
X186524976Y-100986606D01*
X186525607Y-100995539D01*
X186519737Y-101002301D01*
X186518307Y-101002900D01*
X184780492Y-101599282D01*
X184771554Y-101598727D01*
X184768048Y-101596097D01*
X184639281Y-101454772D01*
X184558402Y-101366005D01*
X184558221Y-101365802D01*
X184493976Y-101291915D01*
X184493969Y-101291906D01*
X184373098Y-101169928D01*
X184279908Y-101110746D01*
X184224628Y-101099365D01*
X184217215Y-101094340D01*
X184215527Y-101085546D01*
X184220552Y-101078133D01*
X184222505Y-101077098D01*
X184246247Y-101067264D01*
X184117207Y-100938224D01*
X184113780Y-100929951D01*
X184117207Y-100921678D01*
X184120999Y-100919143D01*
X184185740Y-100892327D01*
X184188978Y-100891504D01*
X184237429Y-100886417D01*
X184285204Y-100871129D01*
X184377438Y-100813521D01*
X184471494Y-100724927D01*
X184574862Y-100611420D01*
X184768094Y-100403734D01*
X184776238Y-100400013D01*
X184780364Y-100400606D01*
G37*
%TD.AperFunction*%
%TD*%
%TA.AperFunction,Conductor*%
%TO.N,GND*%
G36*
X184304240Y-100728128D02*
G01*
X184304786Y-100728386D01*
X184316151Y-100734121D01*
X184469249Y-100811377D01*
X184469815Y-100811682D01*
X184496694Y-100827155D01*
X184496704Y-100827160D01*
X184601333Y-100872950D01*
X184601338Y-100872952D01*
X184675731Y-100886840D01*
X184765280Y-100891145D01*
X184773376Y-100894965D01*
X184776415Y-100902831D01*
X184776415Y-101080659D01*
X184772988Y-101088932D01*
X184765412Y-101092338D01*
X184671886Y-101097922D01*
X184671880Y-101097923D01*
X184596009Y-101115461D01*
X184536152Y-101142522D01*
X184479689Y-101177322D01*
X184446412Y-101198548D01*
X184445475Y-101199087D01*
X184305083Y-101271349D01*
X184296158Y-101272088D01*
X184289325Y-101266301D01*
X184288920Y-101265427D01*
X184261311Y-101198842D01*
X184177329Y-100996299D01*
X184177327Y-100987346D01*
X184177430Y-100987104D01*
X184288819Y-100734118D01*
X184295287Y-100727930D01*
X184304240Y-100728128D01*
G37*
%TD.AperFunction*%
%TD*%
%TA.AperFunction,Conductor*%
%TO.N,GND*%
G36*
X184780471Y-106050642D02*
G01*
X186518214Y-106630736D01*
X186524976Y-106636606D01*
X186525607Y-106645539D01*
X186519737Y-106652301D01*
X186518307Y-106652900D01*
X184780420Y-107249306D01*
X184771482Y-107248751D01*
X184768046Y-107246198D01*
X184651485Y-107120585D01*
X184651120Y-107120172D01*
X184549990Y-106999427D01*
X184536369Y-106982939D01*
X184502264Y-106941655D01*
X184502257Y-106941648D01*
X184502253Y-106941643D01*
X184388291Y-106819497D01*
X184300695Y-106760694D01*
X184300693Y-106760693D01*
X184248980Y-106749570D01*
X184241612Y-106744480D01*
X184240002Y-106735672D01*
X184245092Y-106728304D01*
X184246963Y-106727323D01*
X184271247Y-106717264D01*
X184142207Y-106588224D01*
X184138780Y-106579951D01*
X184142207Y-106571678D01*
X184146003Y-106569142D01*
X184210742Y-106542326D01*
X184213973Y-106541503D01*
X184258815Y-106536742D01*
X184302814Y-106522415D01*
X184386768Y-106468547D01*
X184471156Y-106385968D01*
X184562947Y-106280600D01*
X184563010Y-106280529D01*
X184768094Y-106053890D01*
X184776185Y-106050056D01*
X184780471Y-106050642D01*
G37*
%TD.AperFunction*%
%TD*%
%TA.AperFunction,Conductor*%
%TO.N,GND*%
G36*
X184329240Y-106378128D02*
G01*
X184329786Y-106378386D01*
X184341151Y-106384121D01*
X184494249Y-106461377D01*
X184494815Y-106461682D01*
X184521694Y-106477155D01*
X184521704Y-106477160D01*
X184626333Y-106522950D01*
X184626338Y-106522952D01*
X184700731Y-106536840D01*
X184790280Y-106541145D01*
X184798376Y-106544965D01*
X184801415Y-106552831D01*
X184801415Y-106730659D01*
X184797988Y-106738932D01*
X184790412Y-106742338D01*
X184696886Y-106747922D01*
X184696880Y-106747923D01*
X184621009Y-106765461D01*
X184561152Y-106792522D01*
X184504689Y-106827322D01*
X184471412Y-106848548D01*
X184470475Y-106849087D01*
X184330083Y-106921349D01*
X184321158Y-106922088D01*
X184314325Y-106916301D01*
X184313920Y-106915427D01*
X184286311Y-106848842D01*
X184202329Y-106646299D01*
X184202327Y-106637346D01*
X184202430Y-106637104D01*
X184313819Y-106384118D01*
X184320287Y-106377930D01*
X184329240Y-106378128D01*
G37*
%TD.AperFunction*%
%TD*%
%TA.AperFunction,Conductor*%
%TO.N,Net-(U4-IN_LV)*%
G36*
X105689777Y-98433627D02*
G01*
X105690104Y-98434327D01*
X105801604Y-98695402D01*
X105801702Y-98704356D01*
X105801604Y-98704592D01*
X105689974Y-98965970D01*
X105683573Y-98972233D01*
X105674619Y-98972135D01*
X105674200Y-98971946D01*
X105580232Y-98927376D01*
X105579338Y-98926904D01*
X105504005Y-98882832D01*
X105503858Y-98882744D01*
X105484098Y-98870792D01*
X105472748Y-98863927D01*
X105371370Y-98818540D01*
X105299253Y-98804815D01*
X105299248Y-98804814D01*
X105213685Y-98800550D01*
X105205592Y-98796716D01*
X105202567Y-98788865D01*
X105202567Y-98611060D01*
X105205994Y-98602787D01*
X105213612Y-98599378D01*
X105287391Y-98595245D01*
X105308315Y-98594073D01*
X105322078Y-98591063D01*
X105385036Y-98577300D01*
X105445864Y-98551178D01*
X105503928Y-98517206D01*
X105527044Y-98503128D01*
X105527796Y-98502709D01*
X105674049Y-98428488D01*
X105682978Y-98427801D01*
X105689777Y-98433627D01*
G37*
%TD.AperFunction*%
%TD*%
%TA.AperFunction,Conductor*%
%TO.N,Net-(U4-IN_LV)*%
G36*
X101328319Y-98603424D02*
G01*
X101331746Y-98611697D01*
X101331746Y-98786848D01*
X101336135Y-98789781D01*
X101341109Y-98797227D01*
X101339362Y-98806010D01*
X101338400Y-98807258D01*
X101306230Y-98843645D01*
X101268197Y-98905363D01*
X101247143Y-98962816D01*
X101233612Y-99022907D01*
X101225865Y-99059940D01*
X101225573Y-99061058D01*
X101180958Y-99202754D01*
X101175205Y-99209616D01*
X101166284Y-99210400D01*
X101165439Y-99210098D01*
X101164238Y-99209616D01*
X101117038Y-99190666D01*
X100902115Y-99104383D01*
X100895714Y-99098120D01*
X100895616Y-99097884D01*
X100865516Y-99022907D01*
X100789777Y-98834249D01*
X100789875Y-98825296D01*
X100796276Y-98819033D01*
X100796784Y-98818843D01*
X100892875Y-98785742D01*
X100894066Y-98785402D01*
X100977010Y-98766404D01*
X100977159Y-98766372D01*
X101009537Y-98759609D01*
X101107297Y-98725387D01*
X101163528Y-98688277D01*
X101227807Y-98630617D01*
X101231136Y-98628522D01*
X101297852Y-98600888D01*
X101302329Y-98599997D01*
X101320046Y-98599997D01*
X101328319Y-98603424D01*
G37*
%TD.AperFunction*%
%TD*%
%TA.AperFunction,Conductor*%
%TO.N,/POWER/MPP*%
G36*
X96124574Y-97871304D02*
G01*
X96125379Y-97872229D01*
X96297927Y-98092791D01*
X96300326Y-98101418D01*
X96297927Y-98107209D01*
X96125379Y-98327770D01*
X96117582Y-98332175D01*
X96108955Y-98329776D01*
X96108030Y-98328971D01*
X96106788Y-98327770D01*
X96043496Y-98266554D01*
X95991068Y-98218471D01*
X95953846Y-98204809D01*
X95953849Y-98204809D01*
X95900000Y-98200000D01*
X95838898Y-98297837D01*
X95831609Y-98303038D01*
X95822776Y-98301563D01*
X95820701Y-98299912D01*
X95697956Y-98177167D01*
X95694529Y-98168894D01*
X95697954Y-98160624D01*
X95827646Y-98030931D01*
X95831437Y-98028399D01*
X95898340Y-98000687D01*
X95901784Y-97999842D01*
X95953406Y-97995284D01*
X95990446Y-97981878D01*
X96043495Y-97933446D01*
X96108032Y-97871027D01*
X96116359Y-97867740D01*
X96124574Y-97871304D01*
G37*
%TD.AperFunction*%
%TD*%
%TA.AperFunction,Conductor*%
%TO.N,/POWER/MPP*%
G36*
X94459609Y-108414712D02*
G01*
X94585336Y-108540439D01*
X94588763Y-108548712D01*
X94585786Y-108556509D01*
X94522577Y-108627220D01*
X94522568Y-108627231D01*
X94480183Y-108693335D01*
X94480180Y-108693340D01*
X94455647Y-108754805D01*
X94455644Y-108754813D01*
X94438600Y-108819923D01*
X94432223Y-108846163D01*
X94431975Y-108847034D01*
X94381044Y-109002924D01*
X94375218Y-109009723D01*
X94366289Y-109010411D01*
X94365564Y-109010148D01*
X94102115Y-108904383D01*
X94095714Y-108898120D01*
X94095616Y-108897884D01*
X94038181Y-108754819D01*
X93989728Y-108634127D01*
X93989826Y-108625174D01*
X93996227Y-108618911D01*
X93996638Y-108618755D01*
X94094644Y-108583809D01*
X94095571Y-108583524D01*
X94180103Y-108561392D01*
X94215487Y-108552681D01*
X94319266Y-108513089D01*
X94379964Y-108471801D01*
X94443485Y-108414309D01*
X94451918Y-108411300D01*
X94459609Y-108414712D01*
G37*
%TD.AperFunction*%
%TD*%
%TA.AperFunction,Conductor*%
%TO.N,/MCU/TX1*%
G36*
X154752178Y-105802473D02*
G01*
X154755587Y-105810092D01*
X154760891Y-105904795D01*
X154774676Y-105967846D01*
X154777665Y-105981516D01*
X154803787Y-106042344D01*
X154837759Y-106100408D01*
X154837768Y-106100423D01*
X154851824Y-106123504D01*
X154852264Y-106124294D01*
X154926475Y-106270528D01*
X154927163Y-106279457D01*
X154921337Y-106286256D01*
X154920637Y-106286583D01*
X154659563Y-106398083D01*
X154650609Y-106398181D01*
X154650373Y-106398083D01*
X154388994Y-106286453D01*
X154388821Y-106286276D01*
X154388575Y-106286264D01*
X154385716Y-106283103D01*
X154382731Y-106280052D01*
X154382733Y-106279805D01*
X154382569Y-106279623D01*
X154382782Y-106275376D01*
X154382829Y-106271098D01*
X154382998Y-106270722D01*
X154386517Y-106263302D01*
X154386934Y-106262509D01*
X154441392Y-106168186D01*
X154448477Y-106141740D01*
X154449677Y-106138866D01*
X154472168Y-106100423D01*
X154472188Y-106100388D01*
X154491039Y-106069226D01*
X154536425Y-105967848D01*
X154550150Y-105895732D01*
X154550983Y-105879003D01*
X154554415Y-105810164D01*
X154558249Y-105802071D01*
X154566100Y-105799046D01*
X154743905Y-105799046D01*
X154752178Y-105802473D01*
G37*
%TD.AperFunction*%
%TD*%
%TA.AperFunction,Conductor*%
%TO.N,/MCU/TX1*%
G36*
X133734430Y-69289849D02*
G01*
X133752428Y-69297075D01*
X133997884Y-69395616D01*
X134004285Y-69401879D01*
X134004383Y-69402115D01*
X134110271Y-69665871D01*
X134110173Y-69674825D01*
X134103772Y-69681088D01*
X134103343Y-69681250D01*
X134005385Y-69716179D01*
X134004418Y-69716478D01*
X133919970Y-69738587D01*
X133919804Y-69738629D01*
X133884505Y-69747319D01*
X133780737Y-69786908D01*
X133780731Y-69786911D01*
X133720033Y-69828200D01*
X133656514Y-69885689D01*
X133648081Y-69888699D01*
X133640390Y-69885287D01*
X133514663Y-69759560D01*
X133511236Y-69751287D01*
X133514211Y-69743492D01*
X133577426Y-69672775D01*
X133577428Y-69672772D01*
X133577431Y-69672768D01*
X133591776Y-69650394D01*
X133619816Y-69606664D01*
X133644356Y-69545181D01*
X133661392Y-69480103D01*
X133667782Y-69453807D01*
X133668017Y-69452981D01*
X133718954Y-69297073D01*
X133724780Y-69290276D01*
X133733709Y-69289588D01*
X133734430Y-69289849D01*
G37*
%TD.AperFunction*%
%TD*%
%TA.AperFunction,Conductor*%
%TO.N,/MCU/TX1*%
G36*
X134735315Y-70590205D02*
G01*
X134997884Y-70695616D01*
X135004285Y-70701879D01*
X135004383Y-70702115D01*
X135109873Y-70964879D01*
X135109775Y-70973833D01*
X135103374Y-70980096D01*
X135102008Y-70980549D01*
X135023547Y-71001309D01*
X135020754Y-71001696D01*
X134949755Y-71002909D01*
X134949205Y-71002906D01*
X134929819Y-71002325D01*
X134925983Y-71002210D01*
X134925982Y-71002210D01*
X134925973Y-71002210D01*
X134853705Y-71012797D01*
X134853702Y-71012798D01*
X134814501Y-71033590D01*
X134814498Y-71033592D01*
X134770711Y-71070710D01*
X134770710Y-71070711D01*
X134795736Y-71158253D01*
X134794715Y-71167150D01*
X134787703Y-71172718D01*
X134784487Y-71173169D01*
X134611700Y-71173169D01*
X134603427Y-71169742D01*
X134600000Y-71161469D01*
X134600000Y-71002325D01*
X134600891Y-70997848D01*
X134608057Y-70980549D01*
X134628619Y-70930904D01*
X134630401Y-70927940D01*
X134670510Y-70879295D01*
X134690970Y-70834969D01*
X134697085Y-70750532D01*
X134697363Y-70689346D01*
X134697706Y-70686597D01*
X134719601Y-70598247D01*
X134724916Y-70591043D01*
X134733770Y-70589707D01*
X134735315Y-70590205D01*
G37*
%TD.AperFunction*%
%TD*%
%TA.AperFunction,Conductor*%
%TO.N,/MCU/TX1*%
G36*
X148239777Y-73083630D02*
G01*
X148240104Y-73084330D01*
X148351604Y-73345405D01*
X148351702Y-73354359D01*
X148351604Y-73354595D01*
X148239974Y-73615973D01*
X148233573Y-73622236D01*
X148224619Y-73622138D01*
X148224200Y-73621949D01*
X148130232Y-73577379D01*
X148129338Y-73576907D01*
X148054005Y-73532835D01*
X148053858Y-73532747D01*
X148034098Y-73520795D01*
X148022748Y-73513930D01*
X147921370Y-73468543D01*
X147849253Y-73454818D01*
X147849248Y-73454817D01*
X147763685Y-73450553D01*
X147755592Y-73446719D01*
X147752567Y-73438868D01*
X147752567Y-73261063D01*
X147755994Y-73252790D01*
X147763612Y-73249381D01*
X147837391Y-73245248D01*
X147858315Y-73244076D01*
X147872078Y-73241066D01*
X147935036Y-73227303D01*
X147995864Y-73201181D01*
X148053928Y-73167209D01*
X148077044Y-73153131D01*
X148077796Y-73152712D01*
X148224049Y-73078491D01*
X148232978Y-73077804D01*
X148239777Y-73083630D01*
G37*
%TD.AperFunction*%
%TD*%
%TA.AperFunction,Conductor*%
%TO.N,/MCU/TX1*%
G36*
X131725191Y-71028303D02*
G01*
X131726007Y-71028690D01*
X131809101Y-71072115D01*
X131810672Y-71073102D01*
X131874114Y-71120385D01*
X131874397Y-71120603D01*
X131896068Y-71137810D01*
X131927809Y-71156050D01*
X131973016Y-71182029D01*
X132008036Y-71190545D01*
X132027399Y-71195254D01*
X132032145Y-71195564D01*
X132100000Y-71200000D01*
X132099566Y-71190543D01*
X132102611Y-71182123D01*
X132110718Y-71178321D01*
X132119140Y-71181366D01*
X132119527Y-71181736D01*
X132231333Y-71293542D01*
X132234760Y-71301815D01*
X132231333Y-71310088D01*
X132172356Y-71369065D01*
X132168560Y-71371601D01*
X132101732Y-71399282D01*
X132098132Y-71400140D01*
X132019035Y-71406087D01*
X132019027Y-71406088D01*
X131960510Y-71422857D01*
X131960507Y-71422858D01*
X131960505Y-71422858D01*
X131960503Y-71422860D01*
X131874268Y-71479500D01*
X131874250Y-71479513D01*
X131832479Y-71511866D01*
X131830981Y-71512852D01*
X131726141Y-71570888D01*
X131717244Y-71571897D01*
X131710239Y-71566318D01*
X131709715Y-71565247D01*
X131673099Y-71479513D01*
X131598394Y-71304593D01*
X131598297Y-71295641D01*
X131598395Y-71295405D01*
X131639141Y-71200000D01*
X131709838Y-71034466D01*
X131716237Y-71028205D01*
X131725191Y-71028303D01*
G37*
%TD.AperFunction*%
%TD*%
%TA.AperFunction,Conductor*%
%TO.N,/MCU/TX1*%
G36*
X135274825Y-70589826D02*
G01*
X135281088Y-70596227D01*
X135281250Y-70596656D01*
X135316179Y-70694614D01*
X135316477Y-70695581D01*
X135338587Y-70780029D01*
X135338630Y-70780195D01*
X135347319Y-70815493D01*
X135386908Y-70919262D01*
X135386910Y-70919266D01*
X135426294Y-70977164D01*
X135428200Y-70979965D01*
X135485689Y-71043485D01*
X135488699Y-71051918D01*
X135485287Y-71059609D01*
X135359560Y-71185336D01*
X135351287Y-71188763D01*
X135343490Y-71185786D01*
X135272778Y-71122577D01*
X135272767Y-71122568D01*
X135206663Y-71080183D01*
X135206658Y-71080180D01*
X135145193Y-71055647D01*
X135145185Y-71055644D01*
X135080076Y-71038600D01*
X135053826Y-71032221D01*
X135052955Y-71031973D01*
X134897075Y-70981045D01*
X134890276Y-70975219D01*
X134889588Y-70966290D01*
X134889845Y-70965579D01*
X134995616Y-70702114D01*
X135001879Y-70695714D01*
X135002084Y-70695628D01*
X135265872Y-70589728D01*
X135274825Y-70589826D01*
G37*
%TD.AperFunction*%
%TD*%
%TA.AperFunction,Conductor*%
%TO.N,/MCU/RX1*%
G36*
X133356188Y-70913195D02*
G01*
X133357618Y-70913829D01*
X133361149Y-70916252D01*
X133483690Y-71038793D01*
X133486226Y-71042587D01*
X133486981Y-71044409D01*
X133487101Y-71053066D01*
X133486554Y-71054497D01*
X133484348Y-71058116D01*
X133422589Y-71127206D01*
X133422566Y-71127233D01*
X133422557Y-71127246D01*
X133380184Y-71193331D01*
X133380184Y-71193332D01*
X133380175Y-71193349D01*
X133355659Y-71254772D01*
X133355642Y-71254816D01*
X133338593Y-71319948D01*
X133332278Y-71345933D01*
X133332163Y-71346371D01*
X133332033Y-71346828D01*
X133331900Y-71347261D01*
X133281766Y-71500712D01*
X133279531Y-71504689D01*
X133278373Y-71506041D01*
X133270389Y-71510095D01*
X133270388Y-71510095D01*
X133268951Y-71510205D01*
X133263697Y-71509398D01*
X133004275Y-71405250D01*
X133000452Y-71402756D01*
X132997465Y-71399833D01*
X132994793Y-71395834D01*
X132938181Y-71254819D01*
X132890593Y-71136283D01*
X132889753Y-71131801D01*
X132889773Y-71130013D01*
X132891568Y-71125813D01*
X132893286Y-71121788D01*
X132894412Y-71120687D01*
X132898660Y-71118033D01*
X132994406Y-71083894D01*
X132994862Y-71083741D01*
X132995371Y-71083585D01*
X132995772Y-71083471D01*
X133080103Y-71061392D01*
X133115487Y-71052681D01*
X133219266Y-71013089D01*
X133279964Y-70971801D01*
X133341761Y-70915868D01*
X133345680Y-70913526D01*
X133347517Y-70912871D01*
X133356188Y-70913195D01*
G37*
%TD.AperFunction*%
%TD*%
%TA.AperFunction,Conductor*%
%TO.N,/MCU/RX1*%
G36*
X134736300Y-69290599D02*
G01*
X134752428Y-69297075D01*
X134995724Y-69394749D01*
X134999545Y-69397241D01*
X135002532Y-69400164D01*
X135005207Y-69404167D01*
X135109404Y-69663712D01*
X135110245Y-69668196D01*
X135110226Y-69669975D01*
X135106711Y-69678211D01*
X135106706Y-69678216D01*
X135105587Y-69679310D01*
X135101338Y-69681964D01*
X135005626Y-69716092D01*
X135005166Y-69716246D01*
X135004683Y-69716396D01*
X135004176Y-69716541D01*
X134920023Y-69738573D01*
X134919854Y-69738616D01*
X134919732Y-69738646D01*
X134919731Y-69738645D01*
X134884503Y-69747319D01*
X134780737Y-69786907D01*
X134780732Y-69786910D01*
X134720031Y-69828201D01*
X134658239Y-69884127D01*
X134654319Y-69886472D01*
X134652483Y-69887127D01*
X134643810Y-69886803D01*
X134642380Y-69886169D01*
X134638849Y-69883746D01*
X134516308Y-69761205D01*
X134513774Y-69757414D01*
X134513016Y-69755586D01*
X134512897Y-69746934D01*
X134513443Y-69745505D01*
X134515649Y-69741883D01*
X134518543Y-69738646D01*
X134577426Y-69672775D01*
X134577428Y-69672772D01*
X134577431Y-69672768D01*
X134591776Y-69650394D01*
X134619816Y-69606664D01*
X134644356Y-69545181D01*
X134661392Y-69480103D01*
X134667738Y-69453984D01*
X134667830Y-69453637D01*
X134667971Y-69453142D01*
X134668078Y-69452794D01*
X134718231Y-69299283D01*
X134720463Y-69295312D01*
X134721625Y-69293956D01*
X134729604Y-69289904D01*
X134731051Y-69289792D01*
X134736300Y-69290599D01*
G37*
%TD.AperFunction*%
%TD*%
%TA.AperFunction,Conductor*%
%TO.N,/MCU_SDA1*%
G36*
X133286656Y-120130956D02*
G01*
X133287749Y-120131892D01*
X133290893Y-120136179D01*
X133400690Y-120393266D01*
X133401629Y-120397732D01*
X133401675Y-120401903D01*
X133400736Y-120406627D01*
X133290888Y-120663831D01*
X133288309Y-120667600D01*
X133287034Y-120668847D01*
X133278726Y-120672182D01*
X133277166Y-120672165D01*
X133272279Y-120671037D01*
X133180475Y-120627494D01*
X133180030Y-120627271D01*
X133179558Y-120627022D01*
X133179109Y-120626773D01*
X133104082Y-120582880D01*
X133103983Y-120582821D01*
X133103861Y-120582748D01*
X133103868Y-120582734D01*
X133103812Y-120582719D01*
X133084098Y-120570795D01*
X133078423Y-120567362D01*
X133072749Y-120563930D01*
X133022059Y-120541236D01*
X132971370Y-120518543D01*
X132899314Y-120504829D01*
X132899255Y-120504818D01*
X132899238Y-120504815D01*
X132816009Y-120500668D01*
X132811583Y-120499557D01*
X132809820Y-120498722D01*
X132803909Y-120492351D01*
X132803347Y-120490892D01*
X132802567Y-120486690D01*
X132802567Y-120313390D01*
X132803454Y-120308920D01*
X132804211Y-120307091D01*
X132810243Y-120300888D01*
X132811647Y-120300260D01*
X132815762Y-120299260D01*
X132887391Y-120295248D01*
X132908315Y-120294076D01*
X132920351Y-120291443D01*
X132922074Y-120291067D01*
X132922074Y-120291066D01*
X132922078Y-120291066D01*
X132985036Y-120277303D01*
X133045864Y-120251181D01*
X133103928Y-120217209D01*
X133126861Y-120203241D01*
X133127217Y-120203035D01*
X133127356Y-120202957D01*
X133127619Y-120202810D01*
X133127960Y-120202628D01*
X133271974Y-120129543D01*
X133276367Y-120128313D01*
X133278147Y-120128176D01*
X133286656Y-120130956D01*
G37*
%TD.AperFunction*%
%TD*%
%TA.AperFunction,Conductor*%
%TO.N,/MCU_SDA1*%
G36*
X130305292Y-76199114D02*
G01*
X130566708Y-76310760D01*
X130572971Y-76317161D01*
X130572873Y-76326115D01*
X130572684Y-76326534D01*
X130528114Y-76420501D01*
X130527642Y-76421395D01*
X130483570Y-76496728D01*
X130483482Y-76496875D01*
X130464665Y-76527986D01*
X130464664Y-76527987D01*
X130452629Y-76554870D01*
X130425396Y-76615701D01*
X130419278Y-76629366D01*
X130405552Y-76701486D01*
X130401288Y-76787050D01*
X130397454Y-76795143D01*
X130389603Y-76798168D01*
X130211798Y-76798168D01*
X130203525Y-76794741D01*
X130200116Y-76787122D01*
X130194811Y-76692419D01*
X130181026Y-76629366D01*
X130178038Y-76615698D01*
X130151915Y-76554870D01*
X130117944Y-76496806D01*
X130103869Y-76473694D01*
X130103441Y-76472924D01*
X130029227Y-76326685D01*
X130028539Y-76317756D01*
X130034365Y-76310957D01*
X130035037Y-76310642D01*
X130296141Y-76199129D01*
X130305094Y-76199032D01*
X130305292Y-76199114D01*
G37*
%TD.AperFunction*%
%TD*%
%TA.AperFunction,Conductor*%
%TO.N,/MCU_SDA1*%
G36*
X133522832Y-120127833D02*
G01*
X133527718Y-120128960D01*
X133538393Y-120134024D01*
X133619535Y-120172510D01*
X133619975Y-120172730D01*
X133620165Y-120172830D01*
X133620434Y-120172972D01*
X133620851Y-120173203D01*
X133686250Y-120211463D01*
X133695923Y-120217122D01*
X133695976Y-120217193D01*
X133695994Y-120217164D01*
X133696142Y-120217252D01*
X133727252Y-120236071D01*
X133828631Y-120281457D01*
X133900747Y-120295182D01*
X133917251Y-120296004D01*
X133983993Y-120299331D01*
X133988421Y-120300443D01*
X133990181Y-120301277D01*
X133996088Y-120307642D01*
X133996650Y-120309100D01*
X133997433Y-120313308D01*
X133997433Y-120486608D01*
X133996542Y-120491087D01*
X133995787Y-120492909D01*
X133989754Y-120499111D01*
X133988354Y-120499737D01*
X133984232Y-120500738D01*
X133891682Y-120505922D01*
X133891678Y-120505923D01*
X133816834Y-120522287D01*
X133816829Y-120522288D01*
X133814966Y-120522696D01*
X133814964Y-120522696D01*
X133814963Y-120522697D01*
X133812493Y-120523757D01*
X133812480Y-120523762D01*
X133797425Y-120530228D01*
X133754141Y-120548816D01*
X133696066Y-120582792D01*
X133696055Y-120582799D01*
X133673164Y-120596738D01*
X133672778Y-120596963D01*
X133672357Y-120597197D01*
X133671968Y-120597404D01*
X133528025Y-120670453D01*
X133523630Y-120671685D01*
X133521854Y-120671822D01*
X133513346Y-120669045D01*
X133512256Y-120668112D01*
X133509105Y-120663821D01*
X133399306Y-120406729D01*
X133398368Y-120402266D01*
X133398323Y-120398091D01*
X133399261Y-120393376D01*
X133439378Y-120299445D01*
X133509113Y-120136159D01*
X133511685Y-120132400D01*
X133512965Y-120131148D01*
X133521269Y-120127816D01*
X133522832Y-120127833D01*
G37*
%TD.AperFunction*%
%TD*%
%TA.AperFunction,Conductor*%
%TO.N,/MCU_SDA1*%
G36*
X139889777Y-120133630D02*
G01*
X139890104Y-120134330D01*
X140001604Y-120395405D01*
X140001702Y-120404359D01*
X140001604Y-120404595D01*
X139889974Y-120665973D01*
X139883573Y-120672236D01*
X139874619Y-120672138D01*
X139874200Y-120671949D01*
X139780232Y-120627379D01*
X139779338Y-120626907D01*
X139704005Y-120582835D01*
X139703858Y-120582747D01*
X139684098Y-120570795D01*
X139672748Y-120563930D01*
X139571370Y-120518543D01*
X139499253Y-120504818D01*
X139499248Y-120504817D01*
X139413685Y-120500553D01*
X139405592Y-120496719D01*
X139402567Y-120488868D01*
X139402567Y-120311063D01*
X139405994Y-120302790D01*
X139413612Y-120299381D01*
X139487391Y-120295248D01*
X139508315Y-120294076D01*
X139522078Y-120291066D01*
X139585036Y-120277303D01*
X139645864Y-120251181D01*
X139703928Y-120217209D01*
X139727044Y-120203131D01*
X139727796Y-120202712D01*
X139874049Y-120128491D01*
X139882978Y-120127804D01*
X139889777Y-120133630D01*
G37*
%TD.AperFunction*%
%TD*%
%TA.AperFunction,Conductor*%
%TO.N,/MCU_SCL1*%
G36*
X133525380Y-119227861D02*
G01*
X133525775Y-119228039D01*
X133619773Y-119272623D01*
X133620655Y-119273089D01*
X133686250Y-119311463D01*
X133695994Y-119317164D01*
X133696142Y-119317252D01*
X133727252Y-119336071D01*
X133828631Y-119381457D01*
X133900747Y-119395182D01*
X133986317Y-119399446D01*
X133994408Y-119403280D01*
X133997433Y-119411131D01*
X133997433Y-119588936D01*
X133994006Y-119597209D01*
X133986387Y-119600618D01*
X133891683Y-119605923D01*
X133814966Y-119622696D01*
X133814964Y-119622696D01*
X133814963Y-119622697D01*
X133797425Y-119630228D01*
X133754138Y-119648818D01*
X133696055Y-119682799D01*
X133672974Y-119696855D01*
X133672184Y-119697295D01*
X133525950Y-119771507D01*
X133517021Y-119772195D01*
X133510222Y-119766369D01*
X133509902Y-119765686D01*
X133398394Y-119504593D01*
X133398297Y-119495641D01*
X133398395Y-119495405D01*
X133439378Y-119399445D01*
X133510026Y-119234024D01*
X133516426Y-119227763D01*
X133525380Y-119227861D01*
G37*
%TD.AperFunction*%
%TD*%
%TA.AperFunction,Conductor*%
%TO.N,/POWER/~{BATT_CHG}*%
G36*
X99152463Y-105697035D02*
G01*
X99413879Y-105808681D01*
X99420142Y-105815082D01*
X99420044Y-105824036D01*
X99419855Y-105824455D01*
X99375285Y-105918422D01*
X99374813Y-105919316D01*
X99330741Y-105994649D01*
X99330653Y-105994796D01*
X99311836Y-106025907D01*
X99311835Y-106025908D01*
X99299800Y-106052791D01*
X99272567Y-106113622D01*
X99266449Y-106127287D01*
X99252723Y-106199407D01*
X99248459Y-106284971D01*
X99244625Y-106293064D01*
X99236774Y-106296089D01*
X99058969Y-106296089D01*
X99050696Y-106292662D01*
X99047287Y-106285043D01*
X99041982Y-106190340D01*
X99028197Y-106127287D01*
X99025209Y-106113619D01*
X98999086Y-106052791D01*
X98965115Y-105994727D01*
X98951040Y-105971615D01*
X98950612Y-105970845D01*
X98876398Y-105824606D01*
X98875710Y-105815677D01*
X98881536Y-105808878D01*
X98882208Y-105808563D01*
X99143312Y-105697050D01*
X99152265Y-105696953D01*
X99152463Y-105697035D01*
G37*
%TD.AperFunction*%
%TD*%
%TA.AperFunction,Conductor*%
%TO.N,/POWER/~{BATT_CHG}*%
G36*
X97559609Y-116714712D02*
G01*
X97685336Y-116840439D01*
X97688763Y-116848712D01*
X97685786Y-116856509D01*
X97622577Y-116927220D01*
X97622568Y-116927231D01*
X97580183Y-116993335D01*
X97580180Y-116993340D01*
X97555647Y-117054805D01*
X97555644Y-117054813D01*
X97538600Y-117119923D01*
X97532223Y-117146163D01*
X97531975Y-117147034D01*
X97481044Y-117302924D01*
X97475218Y-117309723D01*
X97466289Y-117310411D01*
X97465564Y-117310148D01*
X97202115Y-117204383D01*
X97195714Y-117198120D01*
X97195616Y-117197884D01*
X97138181Y-117054819D01*
X97089728Y-116934127D01*
X97089826Y-116925174D01*
X97096227Y-116918911D01*
X97096638Y-116918755D01*
X97194644Y-116883809D01*
X97195571Y-116883524D01*
X97280103Y-116861392D01*
X97315487Y-116852681D01*
X97419266Y-116813089D01*
X97479964Y-116771801D01*
X97543485Y-116714309D01*
X97551918Y-116711300D01*
X97559609Y-116714712D01*
G37*
%TD.AperFunction*%
%TD*%
%TA.AperFunction,Conductor*%
%TO.N,/MCU/VFBSMPS*%
G36*
X152339777Y-100933630D02*
G01*
X152340104Y-100934330D01*
X152451604Y-101195405D01*
X152451702Y-101204359D01*
X152451604Y-101204595D01*
X152339974Y-101465973D01*
X152333573Y-101472236D01*
X152324619Y-101472138D01*
X152324200Y-101471949D01*
X152230232Y-101427379D01*
X152229338Y-101426907D01*
X152154005Y-101382835D01*
X152153858Y-101382747D01*
X152134098Y-101370795D01*
X152122748Y-101363930D01*
X152021370Y-101318543D01*
X151949253Y-101304818D01*
X151949248Y-101304817D01*
X151863685Y-101300553D01*
X151855592Y-101296719D01*
X151852567Y-101288868D01*
X151852567Y-101111063D01*
X151855994Y-101102790D01*
X151863612Y-101099381D01*
X151937391Y-101095248D01*
X151958315Y-101094076D01*
X151972078Y-101091066D01*
X152035036Y-101077303D01*
X152095864Y-101051181D01*
X152153928Y-101017209D01*
X152177044Y-101003131D01*
X152177796Y-101002712D01*
X152324049Y-100928491D01*
X152332978Y-100927804D01*
X152339777Y-100933630D01*
G37*
%TD.AperFunction*%
%TD*%
%TA.AperFunction,Conductor*%
%TO.N,/MCU/VFBSMPS*%
G36*
X150723643Y-100912892D02*
G01*
X150822971Y-100961642D01*
X150824098Y-100962276D01*
X150901605Y-101011709D01*
X150901764Y-101011812D01*
X150939351Y-101036660D01*
X151035758Y-101081664D01*
X151104343Y-101095208D01*
X151183906Y-101099414D01*
X151191986Y-101103273D01*
X151194988Y-101111098D01*
X151194988Y-101288859D01*
X151191561Y-101297132D01*
X151183860Y-101300545D01*
X151086172Y-101305330D01*
X151007470Y-101320723D01*
X151007465Y-101320724D01*
X150944390Y-101345284D01*
X150944384Y-101345287D01*
X150882631Y-101378034D01*
X150882309Y-101378198D01*
X150723201Y-101456357D01*
X150714264Y-101456929D01*
X150707541Y-101451015D01*
X150707382Y-101450678D01*
X150639223Y-101300000D01*
X150596051Y-101204562D01*
X150595764Y-101195614D01*
X150595834Y-101195435D01*
X150707646Y-100919008D01*
X150713924Y-100912625D01*
X150722878Y-100912551D01*
X150723643Y-100912892D01*
G37*
%TD.AperFunction*%
%TD*%
%TA.AperFunction,Conductor*%
%TO.N,/MCU/NRST*%
G36*
X137482920Y-116301398D02*
G01*
X137483725Y-116302088D01*
X137562911Y-116376367D01*
X137564169Y-116377753D01*
X137622756Y-116453684D01*
X137680822Y-116525943D01*
X137751522Y-116571355D01*
X137762545Y-116574145D01*
X137806079Y-116585169D01*
X137877106Y-116590000D01*
X138002363Y-116425840D01*
X138010104Y-116421343D01*
X138018760Y-116423637D01*
X138019936Y-116424666D01*
X138143626Y-116548356D01*
X138147053Y-116556629D01*
X138143626Y-116564902D01*
X137949462Y-116759065D01*
X137945666Y-116761601D01*
X137878684Y-116789346D01*
X137875408Y-116790175D01*
X137779349Y-116800089D01*
X137779347Y-116800089D01*
X137712651Y-116828266D01*
X137712649Y-116828267D01*
X137664600Y-116871384D01*
X137622751Y-116926323D01*
X137574887Y-116989616D01*
X137573674Y-116990984D01*
X137483731Y-117077665D01*
X137475396Y-117080938D01*
X137467187Y-117077359D01*
X137466395Y-117076447D01*
X137170340Y-116697196D01*
X137167952Y-116688569D01*
X137170339Y-116682804D01*
X137466499Y-116303419D01*
X137474289Y-116299009D01*
X137482920Y-116301398D01*
G37*
%TD.AperFunction*%
%TD*%
%TA.AperFunction,Conductor*%
%TO.N,/MCU/NRST*%
G36*
X153861656Y-105705956D02*
G01*
X153862749Y-105706892D01*
X153865893Y-105711179D01*
X153975690Y-105968266D01*
X153976629Y-105972732D01*
X153976675Y-105976903D01*
X153975736Y-105981627D01*
X153865888Y-106238831D01*
X153863309Y-106242600D01*
X153862034Y-106243847D01*
X153853726Y-106247182D01*
X153852166Y-106247165D01*
X153847279Y-106246037D01*
X153755475Y-106202494D01*
X153755030Y-106202271D01*
X153754558Y-106202022D01*
X153754109Y-106201773D01*
X153679082Y-106157880D01*
X153678983Y-106157821D01*
X153678861Y-106157748D01*
X153678868Y-106157734D01*
X153678812Y-106157719D01*
X153659098Y-106145795D01*
X153653423Y-106142362D01*
X153647749Y-106138930D01*
X153597059Y-106116236D01*
X153546370Y-106093543D01*
X153474314Y-106079829D01*
X153474255Y-106079818D01*
X153474238Y-106079815D01*
X153391009Y-106075668D01*
X153386583Y-106074557D01*
X153384820Y-106073722D01*
X153378909Y-106067351D01*
X153378347Y-106065892D01*
X153377567Y-106061690D01*
X153377567Y-105888390D01*
X153378454Y-105883920D01*
X153379211Y-105882091D01*
X153385243Y-105875888D01*
X153386647Y-105875260D01*
X153390762Y-105874260D01*
X153462391Y-105870248D01*
X153483315Y-105869076D01*
X153495351Y-105866443D01*
X153497074Y-105866067D01*
X153497074Y-105866066D01*
X153497078Y-105866066D01*
X153560036Y-105852303D01*
X153620864Y-105826181D01*
X153678928Y-105792209D01*
X153701861Y-105778241D01*
X153702217Y-105778035D01*
X153702356Y-105777957D01*
X153702619Y-105777810D01*
X153702960Y-105777628D01*
X153846974Y-105704543D01*
X153851367Y-105703313D01*
X153853147Y-105703176D01*
X153861656Y-105705956D01*
G37*
%TD.AperFunction*%
%TD*%
%TA.AperFunction,Conductor*%
%TO.N,/MCU/MISO1*%
G36*
X156074825Y-108316299D02*
G01*
X156081088Y-108322700D01*
X156081250Y-108323129D01*
X156116179Y-108421087D01*
X156116477Y-108422054D01*
X156138587Y-108506502D01*
X156138630Y-108506668D01*
X156147319Y-108541966D01*
X156186908Y-108645735D01*
X156186910Y-108645739D01*
X156226294Y-108703637D01*
X156228200Y-108706438D01*
X156285689Y-108769958D01*
X156288699Y-108778391D01*
X156285287Y-108786082D01*
X156159560Y-108911809D01*
X156151287Y-108915236D01*
X156143490Y-108912259D01*
X156072778Y-108849050D01*
X156072767Y-108849041D01*
X156006663Y-108806656D01*
X156006658Y-108806653D01*
X155945193Y-108782120D01*
X155945185Y-108782117D01*
X155880076Y-108765073D01*
X155853826Y-108758694D01*
X155852955Y-108758446D01*
X155697075Y-108707518D01*
X155690276Y-108701692D01*
X155689588Y-108692763D01*
X155689845Y-108692052D01*
X155795616Y-108428587D01*
X155801879Y-108422187D01*
X155802084Y-108422101D01*
X156065872Y-108316201D01*
X156074825Y-108316299D01*
G37*
%TD.AperFunction*%
%TD*%
%TA.AperFunction,Conductor*%
%TO.N,/MCU/MISO1*%
G36*
X162539777Y-111108630D02*
G01*
X162540104Y-111109330D01*
X162651604Y-111370405D01*
X162651702Y-111379359D01*
X162651604Y-111379595D01*
X162539974Y-111640973D01*
X162533573Y-111647236D01*
X162524619Y-111647138D01*
X162524200Y-111646949D01*
X162430232Y-111602379D01*
X162429338Y-111601907D01*
X162354005Y-111557835D01*
X162353858Y-111557747D01*
X162334098Y-111545795D01*
X162322748Y-111538930D01*
X162221370Y-111493543D01*
X162149253Y-111479818D01*
X162149248Y-111479817D01*
X162063685Y-111475553D01*
X162055592Y-111471719D01*
X162052567Y-111463868D01*
X162052567Y-111286063D01*
X162055994Y-111277790D01*
X162063612Y-111274381D01*
X162137391Y-111270248D01*
X162158315Y-111269076D01*
X162172078Y-111266066D01*
X162235036Y-111252303D01*
X162295864Y-111226181D01*
X162353928Y-111192209D01*
X162377044Y-111178131D01*
X162377796Y-111177712D01*
X162524049Y-111103491D01*
X162532978Y-111102804D01*
X162539777Y-111108630D01*
G37*
%TD.AperFunction*%
%TD*%
%TA.AperFunction,Conductor*%
%TO.N,/POWER/STORE*%
G36*
X102804557Y-105498379D02*
G01*
X103065973Y-105610025D01*
X103072236Y-105616426D01*
X103072138Y-105625380D01*
X103071949Y-105625799D01*
X103027379Y-105719766D01*
X103026907Y-105720660D01*
X102982817Y-105796023D01*
X102982729Y-105796170D01*
X102963930Y-105827252D01*
X102963929Y-105827253D01*
X102951894Y-105854135D01*
X102924661Y-105914966D01*
X102918543Y-105928631D01*
X102904817Y-106000751D01*
X102900553Y-106086315D01*
X102896719Y-106094408D01*
X102888868Y-106097433D01*
X102711063Y-106097433D01*
X102702790Y-106094006D01*
X102699381Y-106086387D01*
X102694076Y-105991684D01*
X102680291Y-105928631D01*
X102677303Y-105914963D01*
X102651180Y-105854135D01*
X102617209Y-105796071D01*
X102603134Y-105772959D01*
X102602706Y-105772189D01*
X102528492Y-105625950D01*
X102527804Y-105617021D01*
X102533630Y-105610222D01*
X102534302Y-105609907D01*
X102795406Y-105498394D01*
X102804359Y-105498297D01*
X102804557Y-105498379D01*
G37*
%TD.AperFunction*%
%TD*%
%TA.AperFunction,Conductor*%
%TO.N,/POWER/STORE*%
G36*
X105686656Y-99230956D02*
G01*
X105687749Y-99231892D01*
X105690893Y-99236179D01*
X105800690Y-99493266D01*
X105801629Y-99497732D01*
X105801675Y-99501903D01*
X105800736Y-99506627D01*
X105690888Y-99763831D01*
X105688309Y-99767600D01*
X105687034Y-99768847D01*
X105678726Y-99772182D01*
X105677166Y-99772165D01*
X105672279Y-99771037D01*
X105580475Y-99727494D01*
X105580030Y-99727271D01*
X105579558Y-99727022D01*
X105579109Y-99726773D01*
X105504082Y-99682880D01*
X105503983Y-99682821D01*
X105503861Y-99682748D01*
X105503868Y-99682734D01*
X105503812Y-99682719D01*
X105484098Y-99670795D01*
X105478423Y-99667362D01*
X105472749Y-99663930D01*
X105422059Y-99641236D01*
X105371370Y-99618543D01*
X105299314Y-99604829D01*
X105299255Y-99604818D01*
X105299238Y-99604815D01*
X105216009Y-99600668D01*
X105211583Y-99599557D01*
X105209820Y-99598722D01*
X105203909Y-99592351D01*
X105203347Y-99590892D01*
X105202567Y-99586690D01*
X105202567Y-99413390D01*
X105203454Y-99408920D01*
X105204211Y-99407091D01*
X105210243Y-99400888D01*
X105211647Y-99400260D01*
X105215762Y-99399260D01*
X105287391Y-99395248D01*
X105308315Y-99394076D01*
X105320351Y-99391443D01*
X105322074Y-99391067D01*
X105322074Y-99391066D01*
X105322078Y-99391066D01*
X105385036Y-99377303D01*
X105445864Y-99351181D01*
X105503928Y-99317209D01*
X105526861Y-99303241D01*
X105527217Y-99303035D01*
X105527356Y-99302957D01*
X105527619Y-99302810D01*
X105527960Y-99302628D01*
X105671974Y-99229543D01*
X105676367Y-99228313D01*
X105678147Y-99228176D01*
X105686656Y-99230956D01*
G37*
%TD.AperFunction*%
%TD*%
%TA.AperFunction,Conductor*%
%TO.N,/POWER/STORE*%
G36*
X101156188Y-100113195D02*
G01*
X101157618Y-100113829D01*
X101161149Y-100116252D01*
X101283690Y-100238793D01*
X101286226Y-100242587D01*
X101286981Y-100244409D01*
X101287101Y-100253066D01*
X101286554Y-100254497D01*
X101284348Y-100258116D01*
X101222589Y-100327206D01*
X101222566Y-100327233D01*
X101222557Y-100327246D01*
X101180184Y-100393331D01*
X101180184Y-100393332D01*
X101180175Y-100393349D01*
X101155659Y-100454772D01*
X101155642Y-100454816D01*
X101138593Y-100519948D01*
X101132278Y-100545933D01*
X101132163Y-100546371D01*
X101132033Y-100546828D01*
X101131900Y-100547261D01*
X101081766Y-100700712D01*
X101079531Y-100704689D01*
X101078373Y-100706041D01*
X101070389Y-100710095D01*
X101070388Y-100710095D01*
X101068951Y-100710205D01*
X101063697Y-100709398D01*
X100804275Y-100605250D01*
X100800452Y-100602756D01*
X100797465Y-100599833D01*
X100794793Y-100595834D01*
X100738181Y-100454819D01*
X100690593Y-100336283D01*
X100689753Y-100331801D01*
X100689773Y-100330013D01*
X100691568Y-100325813D01*
X100693286Y-100321788D01*
X100694412Y-100320687D01*
X100698660Y-100318033D01*
X100794406Y-100283894D01*
X100794862Y-100283741D01*
X100795371Y-100283585D01*
X100795772Y-100283471D01*
X100880103Y-100261392D01*
X100915487Y-100252681D01*
X101019266Y-100213089D01*
X101079964Y-100171801D01*
X101141761Y-100115868D01*
X101145680Y-100113526D01*
X101147517Y-100112871D01*
X101156188Y-100113195D01*
G37*
%TD.AperFunction*%
%TD*%
%TA.AperFunction,Conductor*%
%TO.N,/POWER/STORE*%
G36*
X101154501Y-110513446D02*
G01*
X101158116Y-110515650D01*
X101192924Y-110546764D01*
X101227220Y-110577422D01*
X101227231Y-110577431D01*
X101227233Y-110577432D01*
X101227246Y-110577441D01*
X101277644Y-110609754D01*
X101293255Y-110619764D01*
X101293423Y-110619873D01*
X101293849Y-110620021D01*
X101354354Y-110644171D01*
X101354427Y-110644200D01*
X101354847Y-110644371D01*
X101355098Y-110644429D01*
X101419897Y-110661392D01*
X101446000Y-110667735D01*
X101446373Y-110667833D01*
X101446848Y-110667969D01*
X101447226Y-110668085D01*
X101600713Y-110718231D01*
X101604687Y-110720465D01*
X101606041Y-110721625D01*
X101610095Y-110729608D01*
X101610206Y-110731044D01*
X101609398Y-110736300D01*
X101505250Y-110995723D01*
X101502756Y-110999546D01*
X101499836Y-111002531D01*
X101495831Y-111005207D01*
X101236285Y-111109404D01*
X101231801Y-111110245D01*
X101230022Y-111110226D01*
X101221786Y-111106711D01*
X101221781Y-111106706D01*
X101220687Y-111105587D01*
X101218033Y-111101337D01*
X101183904Y-111005621D01*
X101183749Y-111005157D01*
X101183585Y-111004624D01*
X101183456Y-111004169D01*
X101181245Y-110995723D01*
X101161392Y-110919897D01*
X101152681Y-110884512D01*
X101152680Y-110884509D01*
X101152679Y-110884505D01*
X101152678Y-110884502D01*
X101113096Y-110780751D01*
X101113088Y-110780731D01*
X101113087Y-110780730D01*
X101113086Y-110780729D01*
X101113085Y-110780726D01*
X101071807Y-110720043D01*
X101071804Y-110720039D01*
X101071802Y-110720037D01*
X101071801Y-110720035D01*
X101024728Y-110668025D01*
X101015870Y-110658238D01*
X101013529Y-110654326D01*
X101012871Y-110652482D01*
X101013194Y-110643808D01*
X101013830Y-110642376D01*
X101016247Y-110638854D01*
X101138796Y-110516305D01*
X101142585Y-110513773D01*
X101144414Y-110513015D01*
X101153065Y-110512898D01*
X101154501Y-110513446D01*
G37*
%TD.AperFunction*%
%TD*%
%TA.AperFunction,Conductor*%
%TO.N,/POWER/STORE*%
G36*
X101856188Y-110513195D02*
G01*
X101857618Y-110513829D01*
X101861149Y-110516252D01*
X101983690Y-110638793D01*
X101986226Y-110642587D01*
X101986981Y-110644409D01*
X101987101Y-110653066D01*
X101986554Y-110654497D01*
X101984348Y-110658116D01*
X101922589Y-110727206D01*
X101922566Y-110727233D01*
X101922557Y-110727246D01*
X101880184Y-110793331D01*
X101880184Y-110793332D01*
X101880175Y-110793349D01*
X101855659Y-110854772D01*
X101855642Y-110854816D01*
X101838593Y-110919948D01*
X101832278Y-110945933D01*
X101832163Y-110946371D01*
X101832033Y-110946828D01*
X101831900Y-110947261D01*
X101781766Y-111100712D01*
X101779531Y-111104689D01*
X101778373Y-111106041D01*
X101770389Y-111110095D01*
X101770388Y-111110095D01*
X101768951Y-111110205D01*
X101763697Y-111109398D01*
X101504275Y-111005250D01*
X101500452Y-111002756D01*
X101497465Y-110999833D01*
X101494793Y-110995834D01*
X101438181Y-110854819D01*
X101390593Y-110736283D01*
X101389753Y-110731801D01*
X101389773Y-110730013D01*
X101391568Y-110725813D01*
X101393286Y-110721788D01*
X101394412Y-110720687D01*
X101398660Y-110718033D01*
X101494406Y-110683894D01*
X101494862Y-110683741D01*
X101495371Y-110683585D01*
X101495772Y-110683471D01*
X101580103Y-110661392D01*
X101615487Y-110652681D01*
X101719266Y-110613089D01*
X101779964Y-110571801D01*
X101841761Y-110515868D01*
X101845680Y-110513526D01*
X101847517Y-110512871D01*
X101856188Y-110513195D01*
G37*
%TD.AperFunction*%
%TD*%
%TA.AperFunction,Conductor*%
%TO.N,/POWER/STORE*%
G36*
X100804557Y-100598379D02*
G01*
X101065973Y-100710025D01*
X101072236Y-100716426D01*
X101072138Y-100725380D01*
X101071949Y-100725799D01*
X101027379Y-100819766D01*
X101026907Y-100820660D01*
X100982835Y-100895993D01*
X100982747Y-100896140D01*
X100963930Y-100927251D01*
X100963929Y-100927252D01*
X100951894Y-100954135D01*
X100924661Y-101014966D01*
X100918543Y-101028631D01*
X100904817Y-101100751D01*
X100900553Y-101186315D01*
X100896719Y-101194408D01*
X100888868Y-101197433D01*
X100711063Y-101197433D01*
X100702790Y-101194006D01*
X100699381Y-101186387D01*
X100694076Y-101091684D01*
X100680291Y-101028631D01*
X100677303Y-101014963D01*
X100651180Y-100954135D01*
X100617209Y-100896071D01*
X100603134Y-100872959D01*
X100602706Y-100872189D01*
X100528492Y-100725950D01*
X100527804Y-100717021D01*
X100533630Y-100710222D01*
X100534302Y-100709907D01*
X100795406Y-100598394D01*
X100804359Y-100598297D01*
X100804557Y-100598379D01*
G37*
%TD.AperFunction*%
%TD*%
%TA.AperFunction,Conductor*%
%TO.N,/POWER/BAT+*%
G36*
X102156509Y-96114213D02*
G01*
X102227220Y-96177422D01*
X102227231Y-96177431D01*
X102277644Y-96209754D01*
X102293336Y-96219816D01*
X102293337Y-96219816D01*
X102293340Y-96219818D01*
X102354805Y-96244351D01*
X102354812Y-96244354D01*
X102354814Y-96244354D01*
X102354818Y-96244356D01*
X102419897Y-96261392D01*
X102446191Y-96267782D01*
X102447024Y-96268019D01*
X102602924Y-96318954D01*
X102609723Y-96324780D01*
X102610411Y-96333709D01*
X102610148Y-96334434D01*
X102504383Y-96597884D01*
X102498120Y-96604285D01*
X102497884Y-96604383D01*
X102234127Y-96710271D01*
X102225173Y-96710173D01*
X102218910Y-96703772D01*
X102218760Y-96703376D01*
X102183814Y-96605368D01*
X102183519Y-96604410D01*
X102183512Y-96604383D01*
X102161392Y-96519897D01*
X102152681Y-96484512D01*
X102152680Y-96484509D01*
X102152679Y-96484505D01*
X102113090Y-96380737D01*
X102113085Y-96380726D01*
X102071807Y-96320043D01*
X102071804Y-96320039D01*
X102071802Y-96320037D01*
X102071801Y-96320035D01*
X102024728Y-96268025D01*
X102014310Y-96256514D01*
X102011300Y-96248081D01*
X102014711Y-96240391D01*
X102140440Y-96114662D01*
X102148712Y-96111236D01*
X102156509Y-96114213D01*
G37*
%TD.AperFunction*%
%TD*%
%TA.AperFunction,Conductor*%
%TO.N,/POWER/BAT+*%
G36*
X99225380Y-95427861D02*
G01*
X99225775Y-95428039D01*
X99319773Y-95472623D01*
X99320655Y-95473089D01*
X99386250Y-95511463D01*
X99395994Y-95517164D01*
X99396142Y-95517252D01*
X99427252Y-95536071D01*
X99528631Y-95581457D01*
X99600747Y-95595182D01*
X99686317Y-95599446D01*
X99694408Y-95603280D01*
X99697433Y-95611131D01*
X99697433Y-95788936D01*
X99694006Y-95797209D01*
X99686387Y-95800618D01*
X99591683Y-95805923D01*
X99514966Y-95822696D01*
X99514964Y-95822696D01*
X99514963Y-95822697D01*
X99497425Y-95830228D01*
X99454138Y-95848818D01*
X99396055Y-95882799D01*
X99372974Y-95896855D01*
X99372184Y-95897295D01*
X99225950Y-95971507D01*
X99217021Y-95972195D01*
X99210222Y-95966369D01*
X99209902Y-95965686D01*
X99098394Y-95704593D01*
X99098297Y-95695641D01*
X99098395Y-95695405D01*
X99139378Y-95599445D01*
X99210026Y-95434024D01*
X99216426Y-95427763D01*
X99225380Y-95427861D01*
G37*
%TD.AperFunction*%
%TD*%
%TA.AperFunction,Conductor*%
%TO.N,/ANTENNA/RF_SW_V1*%
G36*
X174891044Y-105470223D02*
G01*
X174891965Y-105471024D01*
X174911258Y-105489684D01*
X174956500Y-105533442D01*
X174977509Y-105552710D01*
X175008931Y-105581529D01*
X175046151Y-105595190D01*
X175046154Y-105595191D01*
X175100000Y-105600000D01*
X175161103Y-105502160D01*
X175168390Y-105496961D01*
X175177223Y-105498436D01*
X175179298Y-105500087D01*
X175302043Y-105622832D01*
X175305470Y-105631105D01*
X175302043Y-105639378D01*
X175172356Y-105769065D01*
X175168560Y-105771601D01*
X175101661Y-105799311D01*
X175098213Y-105800157D01*
X175046593Y-105804716D01*
X175009553Y-105818122D01*
X175009552Y-105818123D01*
X174956488Y-105866568D01*
X174891969Y-105928971D01*
X174883640Y-105932259D01*
X174875425Y-105928695D01*
X174874620Y-105927770D01*
X174788841Y-105818122D01*
X174702071Y-105707207D01*
X174699673Y-105698582D01*
X174702071Y-105692792D01*
X174874621Y-105472227D01*
X174882417Y-105467824D01*
X174891044Y-105470223D01*
G37*
%TD.AperFunction*%
%TD*%
%TA.AperFunction,Conductor*%
%TO.N,/ANTENNA/RF_SW_V1*%
G36*
X145425380Y-96927861D02*
G01*
X145425775Y-96928039D01*
X145519773Y-96972623D01*
X145520655Y-96973089D01*
X145586250Y-97011463D01*
X145595994Y-97017164D01*
X145596142Y-97017252D01*
X145627252Y-97036071D01*
X145728631Y-97081457D01*
X145800747Y-97095182D01*
X145886317Y-97099446D01*
X145894408Y-97103280D01*
X145897433Y-97111131D01*
X145897433Y-97288936D01*
X145894006Y-97297209D01*
X145886387Y-97300618D01*
X145791683Y-97305923D01*
X145714966Y-97322696D01*
X145714964Y-97322696D01*
X145714963Y-97322697D01*
X145697425Y-97330228D01*
X145654138Y-97348818D01*
X145596055Y-97382799D01*
X145572974Y-97396855D01*
X145572184Y-97397295D01*
X145425950Y-97471507D01*
X145417021Y-97472195D01*
X145410222Y-97466369D01*
X145409902Y-97465686D01*
X145298394Y-97204593D01*
X145298297Y-97195641D01*
X145298395Y-97195405D01*
X145339378Y-97099445D01*
X145410026Y-96934024D01*
X145416426Y-96927763D01*
X145425380Y-96927861D01*
G37*
%TD.AperFunction*%
%TD*%
%TA.AperFunction,Conductor*%
%TO.N,/ANTENNA/RF_SW_V2*%
G36*
X149274825Y-112089826D02*
G01*
X149281088Y-112096227D01*
X149281250Y-112096656D01*
X149316179Y-112194614D01*
X149316477Y-112195581D01*
X149338587Y-112280029D01*
X149338630Y-112280195D01*
X149347319Y-112315493D01*
X149386908Y-112419262D01*
X149386910Y-112419266D01*
X149426294Y-112477164D01*
X149428200Y-112479965D01*
X149485689Y-112543485D01*
X149488699Y-112551918D01*
X149485287Y-112559609D01*
X149359560Y-112685336D01*
X149351287Y-112688763D01*
X149343490Y-112685786D01*
X149272778Y-112622577D01*
X149272767Y-112622568D01*
X149206663Y-112580183D01*
X149206658Y-112580180D01*
X149145193Y-112555647D01*
X149145185Y-112555644D01*
X149080076Y-112538600D01*
X149053826Y-112532221D01*
X149052955Y-112531973D01*
X148897075Y-112481045D01*
X148890276Y-112475219D01*
X148889588Y-112466290D01*
X148889845Y-112465579D01*
X148995616Y-112202114D01*
X149001879Y-112195714D01*
X149002084Y-112195628D01*
X149265872Y-112089728D01*
X149274825Y-112089826D01*
G37*
%TD.AperFunction*%
%TD*%
%TA.AperFunction,Conductor*%
%TO.N,/ANTENNA/RF_SW_V2*%
G36*
X173904557Y-102298379D02*
G01*
X174165973Y-102410025D01*
X174172236Y-102416426D01*
X174172138Y-102425380D01*
X174171949Y-102425799D01*
X174127379Y-102519766D01*
X174126907Y-102520660D01*
X174082835Y-102595993D01*
X174082747Y-102596140D01*
X174063930Y-102627251D01*
X174063929Y-102627252D01*
X174051894Y-102654135D01*
X174024661Y-102714966D01*
X174018543Y-102728631D01*
X174004817Y-102800751D01*
X174000553Y-102886315D01*
X173996719Y-102894408D01*
X173988868Y-102897433D01*
X173811063Y-102897433D01*
X173802790Y-102894006D01*
X173799381Y-102886387D01*
X173794076Y-102791684D01*
X173780291Y-102728631D01*
X173777303Y-102714963D01*
X173751180Y-102654135D01*
X173717209Y-102596071D01*
X173703134Y-102572959D01*
X173702706Y-102572189D01*
X173628492Y-102425950D01*
X173627804Y-102417021D01*
X173633630Y-102410222D01*
X173634302Y-102409907D01*
X173895406Y-102298394D01*
X173904359Y-102298297D01*
X173904557Y-102298379D01*
G37*
%TD.AperFunction*%
%TD*%
%TA.AperFunction,Conductor*%
%TO.N,/POWER/~{BATT_CONN}*%
G36*
X99899515Y-105406369D02*
G01*
X100156723Y-105516218D01*
X100160492Y-105518797D01*
X100161736Y-105520069D01*
X100161738Y-105520070D01*
X100165074Y-105528380D01*
X100165057Y-105529940D01*
X100163929Y-105534827D01*
X100120386Y-105626630D01*
X100120163Y-105627075D01*
X100119914Y-105627547D01*
X100119665Y-105627996D01*
X100075769Y-105703029D01*
X100075709Y-105703131D01*
X100075621Y-105703278D01*
X100075593Y-105703323D01*
X100057004Y-105734058D01*
X100056850Y-105734295D01*
X100044786Y-105761243D01*
X100017553Y-105822074D01*
X100011435Y-105835738D01*
X99997708Y-105907863D01*
X99993560Y-105991098D01*
X99992449Y-105995524D01*
X99991614Y-105997287D01*
X99985251Y-106003195D01*
X99983794Y-106003757D01*
X99979583Y-106004541D01*
X99806282Y-106004541D01*
X99801805Y-106003650D01*
X99799980Y-106002894D01*
X99793779Y-105996862D01*
X99793152Y-105995461D01*
X99792152Y-105991340D01*
X99792138Y-105991098D01*
X99786968Y-105898792D01*
X99773183Y-105835739D01*
X99770195Y-105822071D01*
X99744072Y-105761243D01*
X99710101Y-105703179D01*
X99701848Y-105689627D01*
X99696135Y-105680245D01*
X99695915Y-105679867D01*
X99695695Y-105679471D01*
X99695501Y-105679106D01*
X99669448Y-105627768D01*
X99622855Y-105535958D01*
X99622374Y-105534874D01*
X99622007Y-105533917D01*
X99621334Y-105528211D01*
X99621623Y-105526019D01*
X99625453Y-105518803D01*
X99626306Y-105518047D01*
X99629468Y-105516044D01*
X99886162Y-105406414D01*
X99890623Y-105405476D01*
X99894798Y-105405431D01*
X99899515Y-105406369D01*
G37*
%TD.AperFunction*%
%TD*%
%TA.AperFunction,Conductor*%
%TO.N,/POWER/~{BATT_CONN}*%
G36*
X101398781Y-111920486D02*
G01*
X101402011Y-111927225D01*
X101410355Y-111995363D01*
X101410145Y-111999406D01*
X101399137Y-112047303D01*
X101395570Y-112053370D01*
X101387764Y-112060410D01*
X101381237Y-112063348D01*
X101369623Y-112064656D01*
X101363590Y-112063734D01*
X101334051Y-112050697D01*
X101331204Y-112048914D01*
X101329306Y-112047303D01*
X101297676Y-112020459D01*
X101293588Y-112012496D01*
X101296328Y-112003970D01*
X101297073Y-112003173D01*
X101302999Y-111997405D01*
X101382239Y-111920263D01*
X101390555Y-111916948D01*
X101398781Y-111920486D01*
G37*
%TD.AperFunction*%
%TA.AperFunction,Conductor*%
G36*
X101131251Y-111340400D02*
G01*
X101132153Y-111341413D01*
X101215891Y-111447238D01*
X101216855Y-111448660D01*
X101275128Y-111549865D01*
X101276287Y-111558744D01*
X101270827Y-111565842D01*
X101264125Y-111567371D01*
X101183581Y-111561406D01*
X101181110Y-111560953D01*
X101062904Y-111525805D01*
X101059720Y-111524305D01*
X100994390Y-111480456D01*
X100989430Y-111473000D01*
X100991195Y-111464221D01*
X100992632Y-111462473D01*
X101114706Y-111340399D01*
X101122978Y-111336973D01*
X101131251Y-111340400D01*
G37*
%TD.AperFunction*%
%TA.AperFunction,Conductor*%
G36*
X101565214Y-111506655D02*
G01*
X101566137Y-111507118D01*
X101568546Y-111507660D01*
X101574420Y-111510440D01*
X101581316Y-111513704D01*
X101587328Y-111520340D01*
X101586886Y-111529284D01*
X101584917Y-111532205D01*
X101581690Y-111535709D01*
X101581432Y-111535871D01*
X101581355Y-111536058D01*
X101580724Y-111536318D01*
X101576546Y-111538959D01*
X101547897Y-111547832D01*
X101537943Y-111550914D01*
X101529027Y-111550089D01*
X101523306Y-111543201D01*
X101522919Y-111537954D01*
X101526806Y-111512811D01*
X101531456Y-111505161D01*
X101540038Y-111503021D01*
X101565214Y-111506655D01*
G37*
%TD.AperFunction*%
%TD*%
%TA.AperFunction,Conductor*%
%TO.N,/MCU/SWDIO*%
G36*
X146279557Y-101273379D02*
G01*
X146493143Y-101364598D01*
X146540522Y-101384833D01*
X146546785Y-101391234D01*
X146546687Y-101400188D01*
X146546292Y-101401020D01*
X146502910Y-101483883D01*
X146501912Y-101485467D01*
X146454590Y-101548686D01*
X146454369Y-101548971D01*
X146437171Y-101570528D01*
X146437165Y-101570537D01*
X146392963Y-101647116D01*
X146379746Y-101701246D01*
X146379745Y-101701257D01*
X146375126Y-101771604D01*
X146374260Y-101775314D01*
X146346601Y-101842088D01*
X146344065Y-101845884D01*
X146284047Y-101905902D01*
X146275774Y-101909329D01*
X146267501Y-101905902D01*
X146154877Y-101793278D01*
X146151450Y-101785005D01*
X146154877Y-101776732D01*
X146163150Y-101773305D01*
X146163314Y-101773306D01*
X146175000Y-101773529D01*
X146168911Y-101692906D01*
X146152139Y-101634635D01*
X146152138Y-101634634D01*
X146152138Y-101634632D01*
X146152137Y-101634630D01*
X146095525Y-101548842D01*
X146095506Y-101548816D01*
X146062936Y-101506942D01*
X146061938Y-101505432D01*
X146037155Y-101460730D01*
X146004121Y-101401143D01*
X146003108Y-101392248D01*
X146008682Y-101385239D01*
X146009752Y-101384715D01*
X146270406Y-101273394D01*
X146279359Y-101273297D01*
X146279557Y-101273379D01*
G37*
%TD.AperFunction*%
%TD*%
%TA.AperFunction,Conductor*%
%TO.N,/MCU/SWDIO*%
G36*
X137807823Y-110841602D02*
G01*
X137809279Y-110842242D01*
X137812843Y-110844679D01*
X137935457Y-110967293D01*
X137937994Y-110971090D01*
X137938770Y-110972964D01*
X137938926Y-110981518D01*
X137938418Y-110982884D01*
X137936307Y-110986453D01*
X137833717Y-111105249D01*
X137771210Y-111216189D01*
X137740526Y-111319875D01*
X137724954Y-111426555D01*
X137724935Y-111426684D01*
X137724918Y-111426792D01*
X137724908Y-111426855D01*
X137696379Y-111601930D01*
X137696200Y-111602810D01*
X137695994Y-111603658D01*
X137695755Y-111604504D01*
X137636525Y-111787196D01*
X137634296Y-111791182D01*
X137633140Y-111792537D01*
X137625163Y-111796606D01*
X137623750Y-111796718D01*
X137618454Y-111795907D01*
X137173046Y-111616460D01*
X137169225Y-111613960D01*
X137166236Y-111611028D01*
X137163577Y-111607048D01*
X137006106Y-111216189D01*
X136984049Y-111161442D01*
X136983202Y-111156961D01*
X136983219Y-111155175D01*
X136986722Y-111146942D01*
X136987867Y-111145818D01*
X136992045Y-111143185D01*
X137090961Y-111107174D01*
X137091436Y-111107014D01*
X137091932Y-111106859D01*
X137092394Y-111106725D01*
X137188928Y-111081132D01*
X137189448Y-111081008D01*
X137190058Y-111080879D01*
X137190617Y-111080775D01*
X137353077Y-111055099D01*
X137353277Y-111055071D01*
X137353353Y-111055060D01*
X137353378Y-111055057D01*
X137353487Y-111055043D01*
X137374823Y-111052403D01*
X137384437Y-111051214D01*
X137522063Y-111023939D01*
X137583313Y-111000199D01*
X137583316Y-111000196D01*
X137583318Y-111000194D01*
X137583323Y-111000194D01*
X137625913Y-110976629D01*
X137647681Y-110964585D01*
X137721405Y-110910349D01*
X137793401Y-110844345D01*
X137797298Y-110841980D01*
X137799116Y-110841318D01*
X137807823Y-110841602D01*
G37*
%TD.AperFunction*%
%TD*%
%TA.AperFunction,Conductor*%
%TO.N,/MCU/SWCLK*%
G36*
X137371921Y-112423078D02*
G01*
X137372345Y-112423268D01*
X137466519Y-112467844D01*
X137467576Y-112468412D01*
X137550747Y-112518801D01*
X137551856Y-112519566D01*
X137631015Y-112581224D01*
X137678197Y-112617976D01*
X137678547Y-112618259D01*
X137696811Y-112633650D01*
X137700693Y-112636922D01*
X137808616Y-112714699D01*
X137864559Y-112741142D01*
X137930658Y-112761459D01*
X138014980Y-112775182D01*
X138037324Y-112776221D01*
X138081415Y-112778273D01*
X138081414Y-112778278D01*
X138081487Y-112778266D01*
X138083502Y-112778368D01*
X138083558Y-112778371D01*
X138083612Y-112778374D01*
X138085576Y-112779307D01*
X138085605Y-112779242D01*
X138085630Y-112779253D01*
X138085601Y-112779318D01*
X138087588Y-112780263D01*
X138091664Y-112782176D01*
X138091673Y-112782203D01*
X138091700Y-112782216D01*
X138093169Y-112786343D01*
X138094048Y-112788778D01*
X138214337Y-112909067D01*
X138217764Y-112917340D01*
X138214337Y-112925613D01*
X138190884Y-112949065D01*
X138187088Y-112951601D01*
X138120242Y-112979290D01*
X138116683Y-112980145D01*
X137959941Y-112992483D01*
X137845551Y-113026774D01*
X137845542Y-113026778D01*
X137757608Y-113078147D01*
X137757599Y-113078153D01*
X137678502Y-113141783D01*
X137678274Y-113141962D01*
X137534427Y-113251932D01*
X137532710Y-113253022D01*
X137372550Y-113336124D01*
X137363628Y-113336893D01*
X137356776Y-113331128D01*
X137356396Y-113330321D01*
X137323294Y-113252552D01*
X137166671Y-112884581D01*
X137166585Y-112875628D01*
X137166672Y-112875418D01*
X137203140Y-112789741D01*
X137356574Y-112429260D01*
X137362967Y-112422991D01*
X137371921Y-112423078D01*
G37*
%TD.AperFunction*%
%TD*%
%TA.AperFunction,Conductor*%
%TO.N,/MCU/SWCLK*%
G36*
X144901414Y-105681036D02*
G01*
X144917819Y-105688300D01*
X145185184Y-105806689D01*
X145191361Y-105813172D01*
X145191478Y-105813488D01*
X145277466Y-106056735D01*
X145276992Y-106065677D01*
X145270433Y-106071630D01*
X145119582Y-106126478D01*
X144988439Y-106179402D01*
X144920031Y-106226941D01*
X144843794Y-106296841D01*
X144835380Y-106299906D01*
X144827614Y-106296490D01*
X144701839Y-106170715D01*
X144698412Y-106162442D01*
X144701290Y-106154758D01*
X144761539Y-106085612D01*
X144800219Y-106019321D01*
X144820187Y-105957475D01*
X144826158Y-105923595D01*
X144831469Y-105893469D01*
X144842436Y-105828868D01*
X144842783Y-105827400D01*
X144885493Y-105688298D01*
X144891196Y-105681397D01*
X144900111Y-105680549D01*
X144901414Y-105681036D01*
G37*
%TD.AperFunction*%
%TD*%
%TA.AperFunction,Conductor*%
%TO.N,/MCU/VCP_TX*%
G36*
X150260167Y-111205956D02*
G01*
X150261260Y-111206892D01*
X150264404Y-111211179D01*
X150374201Y-111468266D01*
X150375140Y-111472732D01*
X150375186Y-111476903D01*
X150374247Y-111481627D01*
X150264399Y-111738831D01*
X150261820Y-111742600D01*
X150260545Y-111743847D01*
X150252237Y-111747182D01*
X150250677Y-111747165D01*
X150245790Y-111746037D01*
X150153986Y-111702494D01*
X150153541Y-111702271D01*
X150153069Y-111702022D01*
X150152620Y-111701773D01*
X150077593Y-111657880D01*
X150077494Y-111657821D01*
X150077372Y-111657748D01*
X150077379Y-111657734D01*
X150077323Y-111657719D01*
X150057609Y-111645795D01*
X150051934Y-111642362D01*
X150046260Y-111638930D01*
X149995570Y-111616236D01*
X149944881Y-111593543D01*
X149872825Y-111579829D01*
X149872766Y-111579818D01*
X149872749Y-111579815D01*
X149789520Y-111575668D01*
X149785094Y-111574557D01*
X149783331Y-111573722D01*
X149777420Y-111567351D01*
X149776858Y-111565892D01*
X149776078Y-111561690D01*
X149776078Y-111388390D01*
X149776965Y-111383920D01*
X149777722Y-111382091D01*
X149783754Y-111375888D01*
X149785158Y-111375260D01*
X149789273Y-111374260D01*
X149860902Y-111370248D01*
X149881826Y-111369076D01*
X149893862Y-111366443D01*
X149895585Y-111366067D01*
X149895585Y-111366066D01*
X149895589Y-111366066D01*
X149958547Y-111352303D01*
X150019375Y-111326181D01*
X150077439Y-111292209D01*
X150100372Y-111278241D01*
X150100728Y-111278035D01*
X150100867Y-111277957D01*
X150101130Y-111277810D01*
X150101471Y-111277628D01*
X150245485Y-111204543D01*
X150249878Y-111203313D01*
X150251658Y-111203176D01*
X150260167Y-111205956D01*
G37*
%TD.AperFunction*%
%TD*%
%TA.AperFunction,Conductor*%
%TO.N,/MCU/VCP_TX*%
G36*
X136359668Y-117773267D02*
G01*
X136365938Y-117779660D01*
X136366080Y-117780030D01*
X136402901Y-117881171D01*
X136403216Y-117882175D01*
X136428933Y-117979180D01*
X136429181Y-117980352D01*
X136454899Y-118143081D01*
X136454953Y-118143470D01*
X136458785Y-118174435D01*
X136486059Y-118312057D01*
X136486062Y-118312066D01*
X136509798Y-118373309D01*
X136509804Y-118373323D01*
X136545409Y-118437673D01*
X136545417Y-118437685D01*
X136599644Y-118511396D01*
X136599652Y-118511406D01*
X136667222Y-118585113D01*
X136670287Y-118593527D01*
X136666871Y-118601292D01*
X136541060Y-118727103D01*
X136532787Y-118730530D01*
X136525140Y-118727685D01*
X136404750Y-118623718D01*
X136404751Y-118623718D01*
X136293809Y-118561210D01*
X136190121Y-118530527D01*
X136190123Y-118530527D01*
X136083386Y-118514946D01*
X136083194Y-118514917D01*
X135907636Y-118486309D01*
X135905910Y-118485891D01*
X135720589Y-118425808D01*
X135713776Y-118419996D01*
X135713067Y-118411070D01*
X135713345Y-118410306D01*
X135728251Y-118373309D01*
X135894408Y-117960887D01*
X135900678Y-117954495D01*
X135900888Y-117954408D01*
X136080178Y-117882175D01*
X136350715Y-117773180D01*
X136359668Y-117773267D01*
G37*
%TD.AperFunction*%
%TD*%
%TA.AperFunction,Conductor*%
%TO.N,/GPS AND GAS SENSORS/GPS_RESET*%
G36*
X173934430Y-88589849D02*
G01*
X173952428Y-88597075D01*
X174197884Y-88695616D01*
X174204285Y-88701879D01*
X174204383Y-88702115D01*
X174310271Y-88965871D01*
X174310173Y-88974825D01*
X174303772Y-88981088D01*
X174303343Y-88981250D01*
X174205385Y-89016179D01*
X174204418Y-89016478D01*
X174119970Y-89038587D01*
X174119804Y-89038629D01*
X174084505Y-89047319D01*
X173980737Y-89086908D01*
X173980731Y-89086911D01*
X173920033Y-89128200D01*
X173856514Y-89185689D01*
X173848081Y-89188699D01*
X173840390Y-89185287D01*
X173714663Y-89059560D01*
X173711236Y-89051287D01*
X173714211Y-89043492D01*
X173777426Y-88972775D01*
X173777428Y-88972772D01*
X173777431Y-88972768D01*
X173791776Y-88950394D01*
X173819816Y-88906664D01*
X173844356Y-88845181D01*
X173861392Y-88780103D01*
X173867782Y-88753807D01*
X173868017Y-88752981D01*
X173918954Y-88597073D01*
X173924780Y-88590276D01*
X173933709Y-88589588D01*
X173934430Y-88589849D01*
G37*
%TD.AperFunction*%
%TD*%
%TA.AperFunction,Conductor*%
%TO.N,/GPS AND GAS SENSORS/GPS_RESET*%
G36*
X140059609Y-94614712D02*
G01*
X140185336Y-94740439D01*
X140188763Y-94748712D01*
X140185786Y-94756509D01*
X140122577Y-94827220D01*
X140122568Y-94827231D01*
X140080183Y-94893335D01*
X140080180Y-94893340D01*
X140055647Y-94954805D01*
X140055644Y-94954813D01*
X140038600Y-95019923D01*
X140032223Y-95046163D01*
X140031975Y-95047034D01*
X139981044Y-95202924D01*
X139975218Y-95209723D01*
X139966289Y-95210411D01*
X139965564Y-95210148D01*
X139702115Y-95104383D01*
X139695714Y-95098120D01*
X139695616Y-95097884D01*
X139638181Y-94954819D01*
X139589728Y-94834127D01*
X139589826Y-94825174D01*
X139596227Y-94818911D01*
X139596638Y-94818755D01*
X139694644Y-94783809D01*
X139695571Y-94783524D01*
X139780103Y-94761392D01*
X139815487Y-94752681D01*
X139919266Y-94713089D01*
X139979964Y-94671801D01*
X140043485Y-94614309D01*
X140051918Y-94611300D01*
X140059609Y-94614712D01*
G37*
%TD.AperFunction*%
%TD*%
%TA.AperFunction,Conductor*%
%TO.N,/MCU_SDA1*%
G36*
X145004557Y-117898379D02*
G01*
X145265973Y-118010025D01*
X145272236Y-118016426D01*
X145272138Y-118025380D01*
X145271949Y-118025799D01*
X145227379Y-118119766D01*
X145226907Y-118120660D01*
X145182835Y-118195993D01*
X145182747Y-118196140D01*
X145163930Y-118227251D01*
X145163929Y-118227252D01*
X145151894Y-118254135D01*
X145124661Y-118314966D01*
X145118543Y-118328631D01*
X145104817Y-118400751D01*
X145100553Y-118486315D01*
X145096719Y-118494408D01*
X145088868Y-118497433D01*
X144911063Y-118497433D01*
X144902790Y-118494006D01*
X144899381Y-118486387D01*
X144894076Y-118391684D01*
X144880291Y-118328631D01*
X144877303Y-118314963D01*
X144851180Y-118254135D01*
X144817209Y-118196071D01*
X144803134Y-118172959D01*
X144802706Y-118172189D01*
X144728492Y-118025950D01*
X144727804Y-118017021D01*
X144733630Y-118010222D01*
X144734302Y-118009907D01*
X144995406Y-117898394D01*
X145004359Y-117898297D01*
X145004557Y-117898379D01*
G37*
%TD.AperFunction*%
%TD*%
%TA.AperFunction,Conductor*%
%TO.N,/MCU_SDA1*%
G36*
X145097210Y-121405994D02*
G01*
X145100619Y-121413613D01*
X145105923Y-121508316D01*
X145119708Y-121571367D01*
X145122697Y-121585037D01*
X145148819Y-121645865D01*
X145182791Y-121703929D01*
X145182800Y-121703944D01*
X145196856Y-121727025D01*
X145197296Y-121727815D01*
X145271507Y-121874049D01*
X145272195Y-121882978D01*
X145266369Y-121889777D01*
X145265669Y-121890104D01*
X145004595Y-122001604D01*
X144995641Y-122001702D01*
X144995405Y-122001604D01*
X144734026Y-121889974D01*
X144727763Y-121883573D01*
X144727861Y-121874619D01*
X144728030Y-121874243D01*
X144772628Y-121780216D01*
X144773083Y-121779353D01*
X144817200Y-121703944D01*
X144817220Y-121703909D01*
X144836071Y-121672747D01*
X144881457Y-121571369D01*
X144895182Y-121499253D01*
X144896015Y-121482524D01*
X144899447Y-121413685D01*
X144903281Y-121405592D01*
X144911132Y-121402567D01*
X145088937Y-121402567D01*
X145097210Y-121405994D01*
G37*
%TD.AperFunction*%
%TD*%
%TA.AperFunction,Conductor*%
%TO.N,/MCU_SCL1*%
G36*
X141634430Y-116389849D02*
G01*
X141652428Y-116397075D01*
X141897884Y-116495616D01*
X141904285Y-116501879D01*
X141904383Y-116502115D01*
X142010271Y-116765871D01*
X142010173Y-116774825D01*
X142003772Y-116781088D01*
X142003343Y-116781250D01*
X141905385Y-116816179D01*
X141904418Y-116816478D01*
X141819970Y-116838587D01*
X141819804Y-116838629D01*
X141784505Y-116847319D01*
X141680737Y-116886908D01*
X141680731Y-116886911D01*
X141620033Y-116928200D01*
X141556514Y-116985689D01*
X141548081Y-116988699D01*
X141540390Y-116985287D01*
X141414663Y-116859560D01*
X141411236Y-116851287D01*
X141414211Y-116843492D01*
X141477426Y-116772775D01*
X141477428Y-116772772D01*
X141477431Y-116772768D01*
X141491776Y-116750394D01*
X141519816Y-116706664D01*
X141544356Y-116645181D01*
X141561392Y-116580103D01*
X141567782Y-116553807D01*
X141568017Y-116552981D01*
X141618954Y-116397073D01*
X141624780Y-116390276D01*
X141633709Y-116389588D01*
X141634430Y-116389849D01*
G37*
%TD.AperFunction*%
%TD*%
%TA.AperFunction,Conductor*%
%TO.N,/MCU_SCL1*%
G36*
X158589777Y-128733630D02*
G01*
X158590104Y-128734330D01*
X158701604Y-128995405D01*
X158701702Y-129004359D01*
X158701604Y-129004595D01*
X158589974Y-129265973D01*
X158583573Y-129272236D01*
X158574619Y-129272138D01*
X158574200Y-129271949D01*
X158480232Y-129227379D01*
X158479338Y-129226907D01*
X158404005Y-129182835D01*
X158403858Y-129182747D01*
X158384098Y-129170795D01*
X158372748Y-129163930D01*
X158271370Y-129118543D01*
X158199253Y-129104818D01*
X158199248Y-129104817D01*
X158113685Y-129100553D01*
X158105592Y-129096719D01*
X158102567Y-129088868D01*
X158102567Y-128911063D01*
X158105994Y-128902790D01*
X158113612Y-128899381D01*
X158187391Y-128895248D01*
X158208315Y-128894076D01*
X158222078Y-128891066D01*
X158285036Y-128877303D01*
X158345864Y-128851181D01*
X158403928Y-128817209D01*
X158427044Y-128803131D01*
X158427796Y-128802712D01*
X158574049Y-128728491D01*
X158582978Y-128727804D01*
X158589777Y-128733630D01*
G37*
%TD.AperFunction*%
%TD*%
%TA.AperFunction,Conductor*%
%TO.N,/MCU_SCL1*%
G36*
X141904557Y-116498379D02*
G01*
X142165973Y-116610025D01*
X142172236Y-116616426D01*
X142172138Y-116625380D01*
X142171949Y-116625799D01*
X142127379Y-116719766D01*
X142126907Y-116720660D01*
X142082817Y-116796023D01*
X142082729Y-116796170D01*
X142063930Y-116827252D01*
X142063929Y-116827253D01*
X142051894Y-116854135D01*
X142024661Y-116914966D01*
X142018543Y-116928631D01*
X142004817Y-117000751D01*
X142000553Y-117086315D01*
X141996719Y-117094408D01*
X141988868Y-117097433D01*
X141811063Y-117097433D01*
X141802790Y-117094006D01*
X141799381Y-117086387D01*
X141794076Y-116991684D01*
X141780291Y-116928631D01*
X141777303Y-116914963D01*
X141751180Y-116854135D01*
X141717209Y-116796071D01*
X141703134Y-116772959D01*
X141702706Y-116772189D01*
X141628492Y-116625950D01*
X141627804Y-116617021D01*
X141633630Y-116610222D01*
X141634302Y-116609907D01*
X141895406Y-116498394D01*
X141904359Y-116498297D01*
X141904557Y-116498379D01*
G37*
%TD.AperFunction*%
%TD*%
M02*
