%TF.GenerationSoftware,KiCad,Pcbnew,10.0.1*%
%TF.CreationDate,2026-05-06T10:16:03+02:00*%
%TF.ProjectId,LoRa_prototype,4c6f5261-5f70-4726-9f74-6f747970652e,A*%
%TF.SameCoordinates,Original*%
%TF.FileFunction,Paste,Top*%
%TF.FilePolarity,Positive*%
%FSLAX46Y46*%
G04 Gerber Fmt 4.6, Leading zero omitted, Abs format (unit mm)*
G04 Created by KiCad (PCBNEW 10.0.1) date 2026-05-06 10:16:03*
%MOMM*%
%LPD*%
G01*
G04 APERTURE LIST*
G04 Aperture macros list*
%AMRoundRect*
0 Rectangle with rounded corners*
0 $1 Rounding radius*
0 $2 $3 $4 $5 $6 $7 $8 $9 X,Y pos of 4 corners*
0 Add a 4 corners polygon primitive as box body*
4,1,4,$2,$3,$4,$5,$6,$7,$8,$9,$2,$3,0*
0 Add four circle primitives for the rounded corners*
1,1,$1+$1,$2,$3*
1,1,$1+$1,$4,$5*
1,1,$1+$1,$6,$7*
1,1,$1+$1,$8,$9*
0 Add four rect primitives between the rounded corners*
20,1,$1+$1,$2,$3,$4,$5,0*
20,1,$1+$1,$4,$5,$6,$7,0*
20,1,$1+$1,$6,$7,$8,$9,0*
20,1,$1+$1,$8,$9,$2,$3,0*%
G04 Aperture macros list end*
%ADD10C,0.010000*%
%ADD11RoundRect,0.140000X-0.140000X-0.170000X0.140000X-0.170000X0.140000X0.170000X-0.140000X0.170000X0*%
%ADD12R,2.500000X1.000000*%
%ADD13RoundRect,0.225000X0.225000X0.250000X-0.225000X0.250000X-0.225000X-0.250000X0.225000X-0.250000X0*%
%ADD14RoundRect,0.150000X-0.587500X-0.150000X0.587500X-0.150000X0.587500X0.150000X-0.587500X0.150000X0*%
%ADD15R,0.400000X0.600000*%
%ADD16RoundRect,0.250000X-0.262500X-0.450000X0.262500X-0.450000X0.262500X0.450000X-0.262500X0.450000X0*%
%ADD17RoundRect,0.147500X0.172500X-0.147500X0.172500X0.147500X-0.172500X0.147500X-0.172500X-0.147500X0*%
%ADD18RoundRect,0.140000X0.140000X0.170000X-0.140000X0.170000X-0.140000X-0.170000X0.140000X-0.170000X0*%
%ADD19RoundRect,0.140000X-0.170000X0.140000X-0.170000X-0.140000X0.170000X-0.140000X0.170000X0.140000X0*%
%ADD20RoundRect,0.162500X0.650000X0.162500X-0.650000X0.162500X-0.650000X-0.162500X0.650000X-0.162500X0*%
%ADD21RoundRect,0.225000X-0.225000X-0.250000X0.225000X-0.250000X0.225000X0.250000X-0.225000X0.250000X0*%
%ADD22RoundRect,0.250000X0.450000X-0.262500X0.450000X0.262500X-0.450000X0.262500X-0.450000X-0.262500X0*%
%ADD23RoundRect,0.150000X-0.700000X0.150000X-0.700000X-0.150000X0.700000X-0.150000X0.700000X0.150000X0*%
%ADD24RoundRect,0.250000X-1.100000X0.250000X-1.100000X-0.250000X1.100000X-0.250000X1.100000X0.250000X0*%
%ADD25RoundRect,0.200000X-0.275000X0.200000X-0.275000X-0.200000X0.275000X-0.200000X0.275000X0.200000X0*%
%ADD26RoundRect,0.087500X-0.425000X-0.087500X0.425000X-0.087500X0.425000X0.087500X-0.425000X0.087500X0*%
%ADD27RoundRect,0.243750X0.456250X-0.243750X0.456250X0.243750X-0.456250X0.243750X-0.456250X-0.243750X0*%
%ADD28RoundRect,0.140000X0.170000X-0.140000X0.170000X0.140000X-0.170000X0.140000X-0.170000X-0.140000X0*%
%ADD29RoundRect,0.250000X0.262500X0.450000X-0.262500X0.450000X-0.262500X-0.450000X0.262500X-0.450000X0*%
%ADD30RoundRect,0.147500X-0.147500X-0.172500X0.147500X-0.172500X0.147500X0.172500X-0.147500X0.172500X0*%
%ADD31RoundRect,0.218750X-0.218750X-0.256250X0.218750X-0.256250X0.218750X0.256250X-0.218750X0.256250X0*%
%ADD32RoundRect,0.160000X0.160000X-0.160000X0.160000X0.160000X-0.160000X0.160000X-0.160000X-0.160000X0*%
%ADD33RoundRect,0.062500X0.062500X-0.375000X0.062500X0.375000X-0.062500X0.375000X-0.062500X-0.375000X0*%
%ADD34RoundRect,0.062500X0.375000X-0.062500X0.375000X0.062500X-0.375000X0.062500X-0.375000X-0.062500X0*%
%ADD35RoundRect,0.150000X0.587500X0.150000X-0.587500X0.150000X-0.587500X-0.150000X0.587500X-0.150000X0*%
%ADD36RoundRect,0.225000X-0.250000X0.225000X-0.250000X-0.225000X0.250000X-0.225000X0.250000X0.225000X0*%
%ADD37RoundRect,0.225000X0.250000X-0.225000X0.250000X0.225000X-0.250000X0.225000X-0.250000X-0.225000X0*%
%ADD38R,1.000000X1.800000*%
%ADD39RoundRect,0.200000X0.275000X-0.200000X0.275000X0.200000X-0.275000X0.200000X-0.275000X-0.200000X0*%
%ADD40RoundRect,0.250000X-0.450000X0.262500X-0.450000X-0.262500X0.450000X-0.262500X0.450000X0.262500X0*%
%ADD41RoundRect,0.033750X-0.346250X-0.101250X0.346250X-0.101250X0.346250X0.101250X-0.346250X0.101250X0*%
%ADD42R,0.950000X1.900000*%
%ADD43R,3.250000X1.900000*%
%ADD44RoundRect,0.250000X0.315000X-0.315000X0.315000X0.315000X-0.315000X0.315000X-0.315000X-0.315000X0*%
%ADD45R,0.720000X0.250000*%
%ADD46R,0.520000X0.250000*%
%ADD47R,0.850000X0.300000*%
%ADD48RoundRect,0.200000X0.200000X0.275000X-0.200000X0.275000X-0.200000X-0.275000X0.200000X-0.275000X0*%
%ADD49O,0.850000X0.200000*%
%ADD50O,0.200000X0.850000*%
%ADD51RoundRect,0.243750X-0.243750X-0.456250X0.243750X-0.456250X0.243750X0.456250X-0.243750X0.456250X0*%
%ADD52RoundRect,0.250000X0.250000X0.475000X-0.250000X0.475000X-0.250000X-0.475000X0.250000X-0.475000X0*%
%ADD53RoundRect,0.147500X-0.172500X0.147500X-0.172500X-0.147500X0.172500X-0.147500X0.172500X0.147500X0*%
G04 APERTURE END LIST*
D10*
%TO.C,D4*%
X131400000Y-72650000D02*
X130900000Y-72650000D01*
X130900000Y-72150000D01*
X131400000Y-72150000D01*
X131400000Y-72650000D01*
G36*
X131400000Y-72650000D02*
G01*
X130900000Y-72650000D01*
X130900000Y-72150000D01*
X131400000Y-72150000D01*
X131400000Y-72650000D01*
G37*
X131400000Y-74450000D02*
X130900000Y-74450000D01*
X130900000Y-73950000D01*
X131400000Y-73950000D01*
X131400000Y-74450000D01*
G36*
X131400000Y-74450000D02*
G01*
X130900000Y-74450000D01*
X130900000Y-73950000D01*
X131400000Y-73950000D01*
X131400000Y-74450000D01*
G37*
X132900000Y-72650000D02*
X132400000Y-72650000D01*
X132400000Y-72150000D01*
X132900000Y-72150000D01*
X132900000Y-72650000D01*
G36*
X132900000Y-72650000D02*
G01*
X132400000Y-72650000D01*
X132400000Y-72150000D01*
X132900000Y-72150000D01*
X132900000Y-72650000D01*
G37*
X132900000Y-74450000D02*
X132400000Y-74450000D01*
X132400000Y-73950000D01*
X132900000Y-73950000D01*
X132900000Y-74450000D01*
G36*
X132900000Y-74450000D02*
G01*
X132400000Y-74450000D01*
X132400000Y-73950000D01*
X132900000Y-73950000D01*
X132900000Y-74450000D01*
G37*
%TO.C,U3*%
X116492500Y-83210000D02*
X115932500Y-83210000D01*
X115932500Y-82390000D01*
X116492500Y-82390000D01*
X116492500Y-83210000D01*
G36*
X116492500Y-83210000D02*
G01*
X115932500Y-83210000D01*
X115932500Y-82390000D01*
X116492500Y-82390000D01*
X116492500Y-83210000D01*
G37*
%TO.C,U4*%
X99840000Y-102540390D02*
X98759610Y-102540390D01*
X98759610Y-101460000D01*
X99840000Y-101460000D01*
X99840000Y-102540390D01*
G36*
X99840000Y-102540390D02*
G01*
X98759610Y-102540390D01*
X98759610Y-101460000D01*
X99840000Y-101460000D01*
X99840000Y-102540390D01*
G37*
%TD*%
D11*
%TO.C,C35*%
X170156482Y-104535000D03*
X171116482Y-104535000D03*
%TD*%
D12*
%TO.C,U6*%
X155150000Y-73250000D03*
X155150000Y-75790000D03*
X155150000Y-78330000D03*
X155150000Y-80870000D03*
X155150000Y-83410000D03*
X155150000Y-85950000D03*
X170650000Y-85950000D03*
X170650000Y-83410000D03*
X170650000Y-80870000D03*
X170650000Y-78330000D03*
X170650000Y-75790000D03*
X170650000Y-73250000D03*
%TD*%
D13*
%TO.C,C34*%
X95625000Y-110050000D03*
X94075000Y-110050000D03*
%TD*%
D14*
%TO.C,Q3*%
X158462500Y-88400000D03*
X158462500Y-90300000D03*
X160337500Y-89350000D03*
%TD*%
D15*
%TO.C,D4*%
X131900000Y-74200000D03*
%TD*%
D16*
%TO.C,R5*%
X102887500Y-82000000D03*
X104712500Y-82000000D03*
%TD*%
D17*
%TO.C,L1*%
X141700000Y-107920000D03*
X141700000Y-106950000D03*
%TD*%
D18*
%TO.C,C4*%
X142980000Y-103000000D03*
X142020000Y-103000000D03*
%TD*%
D11*
%TO.C,C6*%
X154250000Y-123650000D03*
X155210000Y-123650000D03*
%TD*%
D19*
%TO.C,C50*%
X140750000Y-106950000D03*
X140750000Y-107910000D03*
%TD*%
D20*
%TO.C,U8*%
X164287500Y-112130000D03*
X164287500Y-110860000D03*
X164287500Y-109590000D03*
X164287500Y-108320000D03*
X157112500Y-108320000D03*
X157112500Y-109590000D03*
X157112500Y-110860000D03*
X157112500Y-112130000D03*
%TD*%
D21*
%TO.C,C32*%
X96075000Y-105200000D03*
X97625000Y-105200000D03*
%TD*%
D22*
%TO.C,R7*%
X97512500Y-84425000D03*
X97512500Y-82600000D03*
%TD*%
D19*
%TO.C,C44*%
X151750000Y-110900000D03*
X151750000Y-111860000D03*
%TD*%
D16*
%TO.C,R2*%
X154400000Y-88400000D03*
X156225000Y-88400000D03*
%TD*%
D23*
%TO.C,J3*%
X94950000Y-94475000D03*
X94950000Y-95725000D03*
D24*
X91750000Y-92625000D03*
X91750000Y-97575000D03*
%TD*%
D25*
%TO.C,R30*%
X149750000Y-113000000D03*
X149750000Y-114650000D03*
%TD*%
D19*
%TO.C,C51*%
X141700000Y-105070000D03*
X141700000Y-106030000D03*
%TD*%
D11*
%TO.C,C21*%
X159000000Y-101100000D03*
X159960000Y-101100000D03*
%TD*%
D26*
%TO.C,U5*%
X173041482Y-103235000D03*
X173041482Y-103885000D03*
X173041482Y-104535000D03*
X174716482Y-104535000D03*
X174716482Y-103885000D03*
X174716482Y-103235000D03*
%TD*%
D19*
%TO.C,C52*%
X140750000Y-105090000D03*
X140750000Y-106050000D03*
%TD*%
D27*
%TO.C,D3*%
X149750000Y-117950000D03*
X149750000Y-116075000D03*
%TD*%
D28*
%TO.C,C19*%
X154900000Y-101100000D03*
X154900000Y-100140000D03*
%TD*%
D11*
%TO.C,C8*%
X140110000Y-103000000D03*
X141070000Y-103000000D03*
%TD*%
D18*
%TO.C,C42*%
X155560000Y-112175000D03*
X154600000Y-112175000D03*
%TD*%
D13*
%TO.C,C13*%
X139000000Y-107000000D03*
X137450000Y-107000000D03*
%TD*%
D28*
%TO.C,C2*%
X146800000Y-97380000D03*
X146800000Y-96420000D03*
%TD*%
D22*
%TO.C,R11*%
X99500000Y-108825000D03*
X99500000Y-107000000D03*
%TD*%
D16*
%TO.C,R19*%
X150587500Y-78150000D03*
X152412500Y-78150000D03*
%TD*%
D29*
%TO.C,R8*%
X106312500Y-84400000D03*
X104487500Y-84400000D03*
%TD*%
%TO.C,R23*%
X179412500Y-79300000D03*
X177587500Y-79300000D03*
%TD*%
D30*
%TO.C,L5*%
X163100000Y-102200000D03*
X164070000Y-102200000D03*
%TD*%
D18*
%TO.C,C47*%
X144900000Y-103000000D03*
X143940000Y-103000000D03*
%TD*%
D31*
%TO.C,L8*%
X179853982Y-103900000D03*
X181428982Y-103900000D03*
%TD*%
D11*
%TO.C,C23*%
X161100000Y-102200000D03*
X162060000Y-102200000D03*
%TD*%
D16*
%TO.C,R13*%
X103887500Y-107200000D03*
X105712500Y-107200000D03*
%TD*%
D32*
%TO.C,U2*%
X107262500Y-81650000D03*
X108062500Y-81650000D03*
X107262500Y-80850000D03*
X108062500Y-80850000D03*
D33*
X106912500Y-82687500D03*
X107412500Y-82687500D03*
X107912500Y-82687500D03*
X108412500Y-82687500D03*
D34*
X109100000Y-82000000D03*
X109100000Y-81500000D03*
X109100000Y-81000000D03*
X109100000Y-80500000D03*
D33*
X108412500Y-79812500D03*
X107912500Y-79812500D03*
X107412500Y-79812500D03*
X106912500Y-79812500D03*
D34*
X106225000Y-80500000D03*
X106225000Y-81000000D03*
X106225000Y-81500000D03*
X106225000Y-82000000D03*
%TD*%
D29*
%TO.C,R18*%
X92500000Y-100000000D03*
X90675000Y-100000000D03*
%TD*%
D35*
%TO.C,Q4*%
X175275000Y-79250000D03*
X175275000Y-77350000D03*
X173400000Y-78300000D03*
%TD*%
D25*
%TO.C,R29*%
X148200000Y-113000000D03*
X148200000Y-114650000D03*
%TD*%
D11*
%TO.C,C24*%
X157900000Y-104275000D03*
X158860000Y-104275000D03*
%TD*%
%TO.C,C26*%
X157905000Y-105225000D03*
X158865000Y-105225000D03*
%TD*%
D25*
%TO.C,R28*%
X144100000Y-95550000D03*
X144100000Y-97200000D03*
%TD*%
D16*
%TO.C,R9*%
X109312500Y-77650000D03*
X111137500Y-77650000D03*
%TD*%
D22*
%TO.C,R12*%
X101500000Y-108825000D03*
X101500000Y-107000000D03*
%TD*%
D36*
%TO.C,C10*%
X182878982Y-103875000D03*
X182878982Y-105425000D03*
%TD*%
D37*
%TO.C,C28*%
X107562500Y-77475000D03*
X107562500Y-75925000D03*
%TD*%
D27*
%TO.C,D1*%
X113062500Y-79525000D03*
X113062500Y-77650000D03*
%TD*%
D17*
%TO.C,L6*%
X156905000Y-105225000D03*
X156905000Y-104255000D03*
%TD*%
D38*
%TO.C,X1*%
X142870000Y-101300000D03*
X140370000Y-101300000D03*
%TD*%
D37*
%TO.C,C27*%
X99512500Y-80375000D03*
X99512500Y-78825000D03*
%TD*%
D36*
%TO.C,C7*%
X178403982Y-103875000D03*
X178403982Y-105425000D03*
%TD*%
D13*
%TO.C,C38*%
X152575000Y-82850000D03*
X151025000Y-82850000D03*
%TD*%
D16*
%TO.C,R10*%
X115300000Y-85100000D03*
X117125000Y-85100000D03*
%TD*%
D39*
%TO.C,R26*%
X146700000Y-114650000D03*
X146700000Y-113000000D03*
%TD*%
D28*
%TO.C,C48*%
X149850000Y-99880000D03*
X149850000Y-98920000D03*
%TD*%
D40*
%TO.C,R6*%
X99512500Y-82600000D03*
X99512500Y-84425000D03*
%TD*%
D19*
%TO.C,C49*%
X152450000Y-99370000D03*
X152450000Y-100330000D03*
%TD*%
D18*
%TO.C,C39*%
X152280000Y-80850000D03*
X151320000Y-80850000D03*
%TD*%
D29*
%TO.C,R20*%
X152412500Y-75800000D03*
X150587500Y-75800000D03*
%TD*%
D19*
%TO.C,C25*%
X164100000Y-103200000D03*
X164100000Y-104160000D03*
%TD*%
D11*
%TO.C,C36*%
X170195000Y-103250000D03*
X171155000Y-103250000D03*
%TD*%
D37*
%TO.C,C18*%
X153700000Y-101075000D03*
X153700000Y-99525000D03*
%TD*%
D29*
%TO.C,R21*%
X152412500Y-73350000D03*
X150587500Y-73350000D03*
%TD*%
D28*
%TO.C,C22*%
X160000000Y-100180000D03*
X160000000Y-99220000D03*
%TD*%
D13*
%TO.C,C40*%
X152575000Y-84850000D03*
X151025000Y-84850000D03*
%TD*%
D16*
%TO.C,R15*%
X103875000Y-111000000D03*
X105700000Y-111000000D03*
%TD*%
D11*
%TO.C,C31*%
X103170000Y-102500000D03*
X104130000Y-102500000D03*
%TD*%
D41*
%TO.C,U3*%
X115227500Y-82050000D03*
X115227500Y-82550000D03*
X115227500Y-83050000D03*
X115227500Y-83550000D03*
X117197500Y-83550000D03*
X117197500Y-83050000D03*
X117197500Y-82550000D03*
X117197500Y-82050000D03*
%TD*%
D42*
%TO.C,U1*%
X109300000Y-74050000D03*
X111600000Y-74050000D03*
X113900000Y-74050000D03*
D43*
X111550000Y-68050000D03*
%TD*%
D28*
%TO.C,C20*%
X159000000Y-100160000D03*
X159000000Y-99200000D03*
%TD*%
D29*
%TO.C,R16*%
X179425000Y-81600000D03*
X177600000Y-81600000D03*
%TD*%
D44*
%TO.C,U11*%
X147410000Y-107850000D03*
X148810000Y-107850000D03*
X150210000Y-107850000D03*
X151610000Y-107850000D03*
X147410000Y-106450000D03*
X148810000Y-106450000D03*
X150210000Y-106450000D03*
X151610000Y-106450000D03*
X147410000Y-105050000D03*
X148810000Y-105050000D03*
X150210000Y-105050000D03*
X151610000Y-105050000D03*
X147410000Y-103650000D03*
X148810000Y-103650000D03*
X150210000Y-103650000D03*
X151610000Y-103650000D03*
D33*
X146760000Y-109187500D03*
X147260000Y-109187500D03*
X147760000Y-109187500D03*
X148260000Y-109187500D03*
X148760000Y-109187500D03*
X149260000Y-109187500D03*
X149760000Y-109187500D03*
X150260000Y-109187500D03*
X150760000Y-109187500D03*
X151260000Y-109187500D03*
X151760000Y-109187500D03*
X152260000Y-109187500D03*
D34*
X152947500Y-108500000D03*
X152947500Y-108000000D03*
X152947500Y-107500000D03*
X152947500Y-107000000D03*
X152947500Y-106500000D03*
X152947500Y-106000000D03*
X152947500Y-105500000D03*
X152947500Y-105000000D03*
X152947500Y-104500000D03*
X152947500Y-104000000D03*
X152947500Y-103500000D03*
X152947500Y-103000000D03*
D33*
X152260000Y-102312500D03*
X151760000Y-102312500D03*
X151260000Y-102312500D03*
X150760000Y-102312500D03*
X150260000Y-102312500D03*
X149760000Y-102312500D03*
X149260000Y-102312500D03*
X148760000Y-102312500D03*
X148260000Y-102312500D03*
X147760000Y-102312500D03*
X147260000Y-102312500D03*
X146760000Y-102312500D03*
D34*
X146072500Y-103000000D03*
X146072500Y-103500000D03*
X146072500Y-104000000D03*
X146072500Y-104500000D03*
X146072500Y-105000000D03*
X146072500Y-105500000D03*
X146072500Y-106000000D03*
X146072500Y-106500000D03*
X146072500Y-107000000D03*
X146072500Y-107500000D03*
X146072500Y-108000000D03*
X146072500Y-108500000D03*
%TD*%
D28*
%TO.C,C45*%
X150800000Y-99880000D03*
X150800000Y-98920000D03*
%TD*%
D37*
%TO.C,C30*%
X94100000Y-104375000D03*
X94100000Y-102825000D03*
%TD*%
D22*
%TO.C,R4*%
X105562500Y-77650000D03*
X105562500Y-75825000D03*
%TD*%
D29*
%TO.C,R22*%
X164225000Y-89400000D03*
X162400000Y-89400000D03*
%TD*%
D11*
%TO.C,C37*%
X176203982Y-103875000D03*
X177163982Y-103875000D03*
%TD*%
D29*
%TO.C,R17*%
X96300000Y-100000000D03*
X94475000Y-100000000D03*
%TD*%
D18*
%TO.C,C43*%
X144450000Y-107500000D03*
X143490000Y-107500000D03*
%TD*%
D36*
%TO.C,C41*%
X163500000Y-141725000D03*
X163500000Y-143275000D03*
%TD*%
D45*
%TO.C,U9*%
X160000613Y-135135947D03*
D46*
X162430613Y-135430947D03*
D45*
X160000613Y-135735947D03*
D46*
X162430613Y-136030949D03*
D45*
X160000613Y-136335943D03*
D46*
X162430613Y-136630949D03*
D45*
X160000613Y-136935943D03*
D46*
X162430613Y-137230950D03*
D45*
X160000613Y-137535943D03*
D46*
X162430613Y-137830949D03*
D45*
X160000613Y-138135947D03*
D46*
X162430613Y-138430947D03*
D45*
X160000613Y-138735947D03*
D47*
X160066653Y-134426017D03*
X160066653Y-139446007D03*
%TD*%
D29*
%TO.C,R25*%
X156950000Y-113725000D03*
X155125000Y-113725000D03*
%TD*%
D48*
%TO.C,R14*%
X105637500Y-109100000D03*
X103987500Y-109100000D03*
%TD*%
D30*
%TO.C,L4*%
X159000000Y-102200000D03*
X159970000Y-102200000D03*
%TD*%
D49*
%TO.C,U4*%
X97800000Y-101200000D03*
X97800000Y-101600000D03*
X97800000Y-102000000D03*
X97800000Y-102400000D03*
X97800000Y-102800000D03*
D50*
X98500000Y-103500000D03*
X98900000Y-103500000D03*
X99300000Y-103500000D03*
X99700000Y-103500000D03*
X100100000Y-103500000D03*
D49*
X100800000Y-102800000D03*
X100800000Y-102400000D03*
X100800000Y-102000000D03*
X100800000Y-101600000D03*
X100800000Y-101200000D03*
D50*
X100100000Y-100500000D03*
X99700000Y-100500000D03*
X99300000Y-100500000D03*
X98900000Y-100500000D03*
X98500000Y-100500000D03*
%TD*%
D18*
%TO.C,C46*%
X144410000Y-106300000D03*
X143450000Y-106300000D03*
%TD*%
D51*
%TO.C,D2*%
X166000000Y-89400000D03*
X167875000Y-89400000D03*
%TD*%
D19*
%TO.C,C9*%
X151750000Y-96420000D03*
X151750000Y-97380000D03*
%TD*%
D52*
%TO.C,C32*%
X116900000Y-99500000D03*
X115000000Y-99500000D03*
%TD*%
D16*
%TO.C,R3*%
X154375000Y-90400000D03*
X156200000Y-90400000D03*
%TD*%
D13*
%TO.C,C33*%
X95625000Y-111550000D03*
X94075000Y-111550000D03*
%TD*%
D48*
%TO.C,R1*%
X155812500Y-122375000D03*
X154162500Y-122375000D03*
%TD*%
D39*
%TO.C,R27*%
X144225000Y-114650000D03*
X144225000Y-113000000D03*
%TD*%
D13*
%TO.C,C29*%
X109637500Y-84400000D03*
X108087500Y-84400000D03*
%TD*%
D53*
%TO.C,L3*%
X157500000Y-101215000D03*
X157500000Y-102185000D03*
%TD*%
M02*
