%TF.GenerationSoftware,KiCad,Pcbnew,10.0.1*%
%TF.CreationDate,2026-05-06T10:16:03+02:00*%
%TF.ProjectId,LoRa_prototype,4c6f5261-5f70-4726-9f74-6f747970652e,A*%
%TF.SameCoordinates,Original*%
%TF.FileFunction,Soldermask,Bot*%
%TF.FilePolarity,Negative*%
%FSLAX46Y46*%
G04 Gerber Fmt 4.6, Leading zero omitted, Abs format (unit mm)*
G04 Created by KiCad (PCBNEW 10.0.1) date 2026-05-06 10:16:03*
%MOMM*%
%LPD*%
G01*
G04 APERTURE LIST*
G04 Aperture macros list*
%AMRoundRect*
0 Rectangle with rounded corners*
0 $1 Rounding radius*
0 $2 $3 $4 $5 $6 $7 $8 $9 X,Y pos of 4 corners*
0 Add a 4 corners polygon primitive as box body*
4,1,4,$2,$3,$4,$5,$6,$7,$8,$9,$2,$3,0*
0 Add four circle primitives for the rounded corners*
1,1,$1+$1,$2,$3*
1,1,$1+$1,$4,$5*
1,1,$1+$1,$6,$7*
1,1,$1+$1,$8,$9*
0 Add four rect primitives between the rounded corners*
20,1,$1+$1,$2,$3,$4,$5,0*
20,1,$1+$1,$4,$5,$6,$7,0*
20,1,$1+$1,$6,$7,$8,$9,0*
20,1,$1+$1,$8,$9,$2,$3,0*%
G04 Aperture macros list end*
%ADD10R,1.700000X1.700000*%
%ADD11C,1.700000*%
%ADD12R,1.000000X1.000000*%
%ADD13C,1.000000*%
%ADD14R,2.000000X2.000000*%
%ADD15RoundRect,0.250000X1.600000X-0.425000X1.600000X0.425000X-1.600000X0.425000X-1.600000X-0.425000X0*%
%ADD16O,2.000000X1.000000*%
%ADD17O,2.200000X1.000000*%
%ADD18R,2.500000X1.800000*%
G04 APERTURE END LIST*
D10*
%TO.C,J9*%
X134100000Y-67200000D03*
D11*
X136640000Y-67200000D03*
X139180000Y-67200000D03*
%TD*%
D10*
%TO.C,J8*%
X158125000Y-142800000D03*
D11*
X160665000Y-142800000D03*
%TD*%
D10*
%TO.C,J6*%
X130540000Y-67200000D03*
D11*
X128000000Y-67200000D03*
X125460000Y-67200000D03*
%TD*%
D10*
%TO.C,J12*%
X151800000Y-88700000D03*
D11*
X149260000Y-88700000D03*
%TD*%
D12*
%TO.C,J1*%
X135900000Y-110340000D03*
D13*
X137170000Y-110340000D03*
X135900000Y-111610000D03*
X137170000Y-111610000D03*
X135900000Y-112880000D03*
X137170000Y-112880000D03*
X135900000Y-114150000D03*
X137170000Y-114150000D03*
X135900000Y-115420000D03*
X137170000Y-115420000D03*
X135900000Y-116690000D03*
X137170000Y-116690000D03*
X135900000Y-117960000D03*
X137170000Y-117960000D03*
%TD*%
D14*
%TO.C,TP35*%
X91600000Y-68100000D03*
%TD*%
D10*
%TO.C,J7*%
X125900000Y-95600000D03*
D11*
X125900000Y-98140000D03*
X125900000Y-100680000D03*
X125900000Y-103220000D03*
X125900000Y-105760000D03*
X125900000Y-108300000D03*
X125900000Y-110840000D03*
%TD*%
D10*
%TO.C,J18*%
X168600000Y-109025000D03*
D11*
X168600000Y-111565000D03*
%TD*%
D10*
%TO.C,J13*%
X122200000Y-100700000D03*
D11*
X122200000Y-103240000D03*
%TD*%
D10*
%TO.C,J10*%
X116512500Y-76540000D03*
D11*
X116512500Y-74000000D03*
%TD*%
D10*
%TO.C,J5*%
X112712500Y-85200000D03*
D11*
X112712500Y-87740000D03*
%TD*%
D15*
%TO.C,J4*%
X186550000Y-101000000D03*
X186550000Y-106650000D03*
%TD*%
D16*
%TO.C,J2*%
X95512500Y-77780000D03*
D17*
X91712500Y-77780000D03*
D16*
X95512500Y-86420000D03*
D17*
X91712500Y-86420000D03*
%TD*%
D18*
%TO.C,L7*%
X101400000Y-96700000D03*
X101400000Y-92700000D03*
%TD*%
D10*
%TO.C,J15*%
X110840000Y-105800000D03*
D11*
X108300000Y-105800000D03*
%TD*%
D14*
%TO.C,TP36*%
X95400000Y-68100000D03*
%TD*%
D10*
%TO.C,J14*%
X159500000Y-114925000D03*
D11*
X162040000Y-114925000D03*
%TD*%
M02*
