%TF.GenerationSoftware,KiCad,Pcbnew,10.0.1*%
%TF.CreationDate,2026-05-04T19:57:01+02:00*%
%TF.ProjectId,LoRa_prototype,4c6f5261-5f70-4726-9f74-6f747970652e,A*%
%TF.SameCoordinates,Original*%
%TF.FileFunction,Legend,Bot*%
%TF.FilePolarity,Positive*%
%FSLAX46Y46*%
G04 Gerber Fmt 4.6, Leading zero omitted, Abs format (unit mm)*
G04 Created by KiCad (PCBNEW 10.0.1) date 2026-05-04 19:57:01*
%MOMM*%
%LPD*%
G01*
G04 APERTURE LIST*
G04 Aperture macros list*
%AMRoundRect*
0 Rectangle with rounded corners*
0 $1 Rounding radius*
0 $2 $3 $4 $5 $6 $7 $8 $9 X,Y pos of 4 corners*
0 Add a 4 corners polygon primitive as box body*
4,1,4,$2,$3,$4,$5,$6,$7,$8,$9,$2,$3,0*
0 Add four circle primitives for the rounded corners*
1,1,$1+$1,$2,$3*
1,1,$1+$1,$4,$5*
1,1,$1+$1,$6,$7*
1,1,$1+$1,$8,$9*
0 Add four rect primitives between the rounded corners*
20,1,$1+$1,$2,$3,$4,$5,0*
20,1,$1+$1,$4,$5,$6,$7,0*
20,1,$1+$1,$6,$7,$8,$9,0*
20,1,$1+$1,$8,$9,$2,$3,0*%
G04 Aperture macros list end*
%ADD10C,0.150000*%
%ADD11C,0.100000*%
%ADD12C,0.300000*%
%ADD13C,0.000000*%
%ADD14R,1.700000X1.700000*%
%ADD15C,1.700000*%
%ADD16R,1.000000X1.000000*%
%ADD17C,1.000000*%
%ADD18R,2.000000X2.000000*%
%ADD19RoundRect,0.250000X1.600000X-0.425000X1.600000X0.425000X-1.600000X0.425000X-1.600000X-0.425000X0*%
%ADD20O,2.000000X1.000000*%
%ADD21O,2.200000X1.000000*%
G04 APERTURE END LIST*
D10*
X185877506Y-67369819D02*
X185877506Y-68084104D01*
X185877506Y-68084104D02*
X185925125Y-68226961D01*
X185925125Y-68226961D02*
X186020363Y-68322200D01*
X186020363Y-68322200D02*
X186163220Y-68369819D01*
X186163220Y-68369819D02*
X186258458Y-68369819D01*
X184925125Y-68369819D02*
X185401315Y-68369819D01*
X185401315Y-68369819D02*
X185401315Y-67369819D01*
X184020363Y-68274580D02*
X184067982Y-68322200D01*
X184067982Y-68322200D02*
X184210839Y-68369819D01*
X184210839Y-68369819D02*
X184306077Y-68369819D01*
X184306077Y-68369819D02*
X184448934Y-68322200D01*
X184448934Y-68322200D02*
X184544172Y-68226961D01*
X184544172Y-68226961D02*
X184591791Y-68131723D01*
X184591791Y-68131723D02*
X184639410Y-67941247D01*
X184639410Y-67941247D02*
X184639410Y-67798390D01*
X184639410Y-67798390D02*
X184591791Y-67607914D01*
X184591791Y-67607914D02*
X184544172Y-67512676D01*
X184544172Y-67512676D02*
X184448934Y-67417438D01*
X184448934Y-67417438D02*
X184306077Y-67369819D01*
X184306077Y-67369819D02*
X184210839Y-67369819D01*
X184210839Y-67369819D02*
X184067982Y-67417438D01*
X184067982Y-67417438D02*
X184020363Y-67465057D01*
X183306077Y-67369819D02*
X183306077Y-68084104D01*
X183306077Y-68084104D02*
X183353696Y-68226961D01*
X183353696Y-68226961D02*
X183448934Y-68322200D01*
X183448934Y-68322200D02*
X183591791Y-68369819D01*
X183591791Y-68369819D02*
X183687029Y-68369819D01*
X182353696Y-68369819D02*
X182829886Y-68369819D01*
X182829886Y-68369819D02*
X182829886Y-67369819D01*
X181448934Y-68274580D02*
X181496553Y-68322200D01*
X181496553Y-68322200D02*
X181639410Y-68369819D01*
X181639410Y-68369819D02*
X181734648Y-68369819D01*
X181734648Y-68369819D02*
X181877505Y-68322200D01*
X181877505Y-68322200D02*
X181972743Y-68226961D01*
X181972743Y-68226961D02*
X182020362Y-68131723D01*
X182020362Y-68131723D02*
X182067981Y-67941247D01*
X182067981Y-67941247D02*
X182067981Y-67798390D01*
X182067981Y-67798390D02*
X182020362Y-67607914D01*
X182020362Y-67607914D02*
X181972743Y-67512676D01*
X181972743Y-67512676D02*
X181877505Y-67417438D01*
X181877505Y-67417438D02*
X181734648Y-67369819D01*
X181734648Y-67369819D02*
X181639410Y-67369819D01*
X181639410Y-67369819D02*
X181496553Y-67417438D01*
X181496553Y-67417438D02*
X181448934Y-67465057D01*
X180734648Y-67369819D02*
X180734648Y-68084104D01*
X180734648Y-68084104D02*
X180782267Y-68226961D01*
X180782267Y-68226961D02*
X180877505Y-68322200D01*
X180877505Y-68322200D02*
X181020362Y-68369819D01*
X181020362Y-68369819D02*
X181115600Y-68369819D01*
X179782267Y-68369819D02*
X180258457Y-68369819D01*
X180258457Y-68369819D02*
X180258457Y-67369819D01*
X178877505Y-68274580D02*
X178925124Y-68322200D01*
X178925124Y-68322200D02*
X179067981Y-68369819D01*
X179067981Y-68369819D02*
X179163219Y-68369819D01*
X179163219Y-68369819D02*
X179306076Y-68322200D01*
X179306076Y-68322200D02*
X179401314Y-68226961D01*
X179401314Y-68226961D02*
X179448933Y-68131723D01*
X179448933Y-68131723D02*
X179496552Y-67941247D01*
X179496552Y-67941247D02*
X179496552Y-67798390D01*
X179496552Y-67798390D02*
X179448933Y-67607914D01*
X179448933Y-67607914D02*
X179401314Y-67512676D01*
X179401314Y-67512676D02*
X179306076Y-67417438D01*
X179306076Y-67417438D02*
X179163219Y-67369819D01*
X179163219Y-67369819D02*
X179067981Y-67369819D01*
X179067981Y-67369819D02*
X178925124Y-67417438D01*
X178925124Y-67417438D02*
X178877505Y-67465057D01*
X178163219Y-67369819D02*
X178163219Y-68084104D01*
X178163219Y-68084104D02*
X178210838Y-68226961D01*
X178210838Y-68226961D02*
X178306076Y-68322200D01*
X178306076Y-68322200D02*
X178448933Y-68369819D01*
X178448933Y-68369819D02*
X178544171Y-68369819D01*
X177210838Y-68369819D02*
X177687028Y-68369819D01*
X177687028Y-68369819D02*
X177687028Y-67369819D01*
X176306076Y-68274580D02*
X176353695Y-68322200D01*
X176353695Y-68322200D02*
X176496552Y-68369819D01*
X176496552Y-68369819D02*
X176591790Y-68369819D01*
X176591790Y-68369819D02*
X176734647Y-68322200D01*
X176734647Y-68322200D02*
X176829885Y-68226961D01*
X176829885Y-68226961D02*
X176877504Y-68131723D01*
X176877504Y-68131723D02*
X176925123Y-67941247D01*
X176925123Y-67941247D02*
X176925123Y-67798390D01*
X176925123Y-67798390D02*
X176877504Y-67607914D01*
X176877504Y-67607914D02*
X176829885Y-67512676D01*
X176829885Y-67512676D02*
X176734647Y-67417438D01*
X176734647Y-67417438D02*
X176591790Y-67369819D01*
X176591790Y-67369819D02*
X176496552Y-67369819D01*
X176496552Y-67369819D02*
X176353695Y-67417438D01*
X176353695Y-67417438D02*
X176306076Y-67465057D01*
D11*
X184362782Y-79848609D02*
X184696115Y-79848609D01*
X184696115Y-80372419D02*
X184696115Y-79372419D01*
X184696115Y-79372419D02*
X184219925Y-79372419D01*
X183886591Y-80086704D02*
X183410401Y-80086704D01*
X183981829Y-80372419D02*
X183648496Y-79372419D01*
X183648496Y-79372419D02*
X183315163Y-80372419D01*
X182981829Y-80372419D02*
X182981829Y-79372419D01*
X182029449Y-80372419D02*
X182505639Y-80372419D01*
X182505639Y-80372419D02*
X182505639Y-79372419D01*
X181696115Y-79848609D02*
X181362782Y-79848609D01*
X181219925Y-80372419D02*
X181696115Y-80372419D01*
X181696115Y-80372419D02*
X181696115Y-79372419D01*
X181696115Y-79372419D02*
X181219925Y-79372419D01*
X180791353Y-80372419D02*
X180791353Y-79372419D01*
X180791353Y-79372419D02*
X180553258Y-79372419D01*
X180553258Y-79372419D02*
X180410401Y-79420038D01*
X180410401Y-79420038D02*
X180315163Y-79515276D01*
X180315163Y-79515276D02*
X180267544Y-79610514D01*
X180267544Y-79610514D02*
X180219925Y-79800990D01*
X180219925Y-79800990D02*
X180219925Y-79943847D01*
X180219925Y-79943847D02*
X180267544Y-80134323D01*
X180267544Y-80134323D02*
X180315163Y-80229561D01*
X180315163Y-80229561D02*
X180410401Y-80324800D01*
X180410401Y-80324800D02*
X180553258Y-80372419D01*
X180553258Y-80372419D02*
X180791353Y-80372419D01*
X184596115Y-76972419D02*
X184596115Y-75972419D01*
X184596115Y-75972419D02*
X184215163Y-75972419D01*
X184215163Y-75972419D02*
X184119925Y-76020038D01*
X184119925Y-76020038D02*
X184072306Y-76067657D01*
X184072306Y-76067657D02*
X184024687Y-76162895D01*
X184024687Y-76162895D02*
X184024687Y-76305752D01*
X184024687Y-76305752D02*
X184072306Y-76400990D01*
X184072306Y-76400990D02*
X184119925Y-76448609D01*
X184119925Y-76448609D02*
X184215163Y-76496228D01*
X184215163Y-76496228D02*
X184596115Y-76496228D01*
X183643734Y-76686704D02*
X183167544Y-76686704D01*
X183738972Y-76972419D02*
X183405639Y-75972419D01*
X183405639Y-75972419D02*
X183072306Y-76972419D01*
X182786591Y-76924800D02*
X182643734Y-76972419D01*
X182643734Y-76972419D02*
X182405639Y-76972419D01*
X182405639Y-76972419D02*
X182310401Y-76924800D01*
X182310401Y-76924800D02*
X182262782Y-76877180D01*
X182262782Y-76877180D02*
X182215163Y-76781942D01*
X182215163Y-76781942D02*
X182215163Y-76686704D01*
X182215163Y-76686704D02*
X182262782Y-76591466D01*
X182262782Y-76591466D02*
X182310401Y-76543847D01*
X182310401Y-76543847D02*
X182405639Y-76496228D01*
X182405639Y-76496228D02*
X182596115Y-76448609D01*
X182596115Y-76448609D02*
X182691353Y-76400990D01*
X182691353Y-76400990D02*
X182738972Y-76353371D01*
X182738972Y-76353371D02*
X182786591Y-76258133D01*
X182786591Y-76258133D02*
X182786591Y-76162895D01*
X182786591Y-76162895D02*
X182738972Y-76067657D01*
X182738972Y-76067657D02*
X182691353Y-76020038D01*
X182691353Y-76020038D02*
X182596115Y-75972419D01*
X182596115Y-75972419D02*
X182358020Y-75972419D01*
X182358020Y-75972419D02*
X182215163Y-76020038D01*
X181834210Y-76924800D02*
X181691353Y-76972419D01*
X181691353Y-76972419D02*
X181453258Y-76972419D01*
X181453258Y-76972419D02*
X181358020Y-76924800D01*
X181358020Y-76924800D02*
X181310401Y-76877180D01*
X181310401Y-76877180D02*
X181262782Y-76781942D01*
X181262782Y-76781942D02*
X181262782Y-76686704D01*
X181262782Y-76686704D02*
X181310401Y-76591466D01*
X181310401Y-76591466D02*
X181358020Y-76543847D01*
X181358020Y-76543847D02*
X181453258Y-76496228D01*
X181453258Y-76496228D02*
X181643734Y-76448609D01*
X181643734Y-76448609D02*
X181738972Y-76400990D01*
X181738972Y-76400990D02*
X181786591Y-76353371D01*
X181786591Y-76353371D02*
X181834210Y-76258133D01*
X181834210Y-76258133D02*
X181834210Y-76162895D01*
X181834210Y-76162895D02*
X181786591Y-76067657D01*
X181786591Y-76067657D02*
X181738972Y-76020038D01*
X181738972Y-76020038D02*
X181643734Y-75972419D01*
X181643734Y-75972419D02*
X181405639Y-75972419D01*
X181405639Y-75972419D02*
X181262782Y-76020038D01*
X180834210Y-76448609D02*
X180500877Y-76448609D01*
X180358020Y-76972419D02*
X180834210Y-76972419D01*
X180834210Y-76972419D02*
X180834210Y-75972419D01*
X180834210Y-75972419D02*
X180358020Y-75972419D01*
X179929448Y-76972419D02*
X179929448Y-75972419D01*
X179929448Y-75972419D02*
X179691353Y-75972419D01*
X179691353Y-75972419D02*
X179548496Y-76020038D01*
X179548496Y-76020038D02*
X179453258Y-76115276D01*
X179453258Y-76115276D02*
X179405639Y-76210514D01*
X179405639Y-76210514D02*
X179358020Y-76400990D01*
X179358020Y-76400990D02*
X179358020Y-76543847D01*
X179358020Y-76543847D02*
X179405639Y-76734323D01*
X179405639Y-76734323D02*
X179453258Y-76829561D01*
X179453258Y-76829561D02*
X179548496Y-76924800D01*
X179548496Y-76924800D02*
X179691353Y-76972419D01*
X179691353Y-76972419D02*
X179929448Y-76972419D01*
X184362782Y-72848609D02*
X184696115Y-72848609D01*
X184696115Y-73372419D02*
X184696115Y-72372419D01*
X184696115Y-72372419D02*
X184219925Y-72372419D01*
X183362782Y-73372419D02*
X183838972Y-73372419D01*
X183838972Y-73372419D02*
X183838972Y-72372419D01*
X183077067Y-73086704D02*
X182600877Y-73086704D01*
X183172305Y-73372419D02*
X182838972Y-72372419D01*
X182838972Y-72372419D02*
X182505639Y-73372419D01*
X182219924Y-73324800D02*
X182077067Y-73372419D01*
X182077067Y-73372419D02*
X181838972Y-73372419D01*
X181838972Y-73372419D02*
X181743734Y-73324800D01*
X181743734Y-73324800D02*
X181696115Y-73277180D01*
X181696115Y-73277180D02*
X181648496Y-73181942D01*
X181648496Y-73181942D02*
X181648496Y-73086704D01*
X181648496Y-73086704D02*
X181696115Y-72991466D01*
X181696115Y-72991466D02*
X181743734Y-72943847D01*
X181743734Y-72943847D02*
X181838972Y-72896228D01*
X181838972Y-72896228D02*
X182029448Y-72848609D01*
X182029448Y-72848609D02*
X182124686Y-72800990D01*
X182124686Y-72800990D02*
X182172305Y-72753371D01*
X182172305Y-72753371D02*
X182219924Y-72658133D01*
X182219924Y-72658133D02*
X182219924Y-72562895D01*
X182219924Y-72562895D02*
X182172305Y-72467657D01*
X182172305Y-72467657D02*
X182124686Y-72420038D01*
X182124686Y-72420038D02*
X182029448Y-72372419D01*
X182029448Y-72372419D02*
X181791353Y-72372419D01*
X181791353Y-72372419D02*
X181648496Y-72420038D01*
X181219924Y-73372419D02*
X181219924Y-72372419D01*
X181219924Y-72848609D02*
X180648496Y-72848609D01*
X180648496Y-73372419D02*
X180648496Y-72372419D01*
X180172305Y-72848609D02*
X179838972Y-72848609D01*
X179696115Y-73372419D02*
X180172305Y-73372419D01*
X180172305Y-73372419D02*
X180172305Y-72372419D01*
X180172305Y-72372419D02*
X179696115Y-72372419D01*
X179267543Y-73372419D02*
X179267543Y-72372419D01*
X179267543Y-72372419D02*
X179029448Y-72372419D01*
X179029448Y-72372419D02*
X178886591Y-72420038D01*
X178886591Y-72420038D02*
X178791353Y-72515276D01*
X178791353Y-72515276D02*
X178743734Y-72610514D01*
X178743734Y-72610514D02*
X178696115Y-72800990D01*
X178696115Y-72800990D02*
X178696115Y-72943847D01*
X178696115Y-72943847D02*
X178743734Y-73134323D01*
X178743734Y-73134323D02*
X178791353Y-73229561D01*
X178791353Y-73229561D02*
X178886591Y-73324800D01*
X178886591Y-73324800D02*
X179029448Y-73372419D01*
X179029448Y-73372419D02*
X179267543Y-73372419D01*
X185000000Y-79000000D02*
X187000000Y-79000000D01*
X187000000Y-81000000D01*
X185000000Y-81000000D01*
X185000000Y-79000000D01*
G36*
X185000000Y-79000000D02*
G01*
X187000000Y-79000000D01*
X187000000Y-81000000D01*
X185000000Y-81000000D01*
X185000000Y-79000000D01*
G37*
X185000000Y-75500000D02*
X187000000Y-75500000D01*
X187000000Y-77500000D01*
X185000000Y-77500000D01*
X185000000Y-75500000D01*
G36*
X185000000Y-75500000D02*
G01*
X187000000Y-75500000D01*
X187000000Y-77500000D01*
X185000000Y-77500000D01*
X185000000Y-75500000D01*
G37*
X185000000Y-72000000D02*
X187000000Y-72000000D01*
X187000000Y-74000000D01*
X185000000Y-74000000D01*
X185000000Y-72000000D01*
G36*
X185000000Y-72000000D02*
G01*
X187000000Y-72000000D01*
X187000000Y-74000000D01*
X185000000Y-74000000D01*
X185000000Y-72000000D01*
G37*
D12*
X122959774Y-126572257D02*
X123102632Y-126500828D01*
X123102632Y-126500828D02*
X123316917Y-126500828D01*
X123316917Y-126500828D02*
X123531203Y-126572257D01*
X123531203Y-126572257D02*
X123674060Y-126715114D01*
X123674060Y-126715114D02*
X123745489Y-126857971D01*
X123745489Y-126857971D02*
X123816917Y-127143685D01*
X123816917Y-127143685D02*
X123816917Y-127357971D01*
X123816917Y-127357971D02*
X123745489Y-127643685D01*
X123745489Y-127643685D02*
X123674060Y-127786542D01*
X123674060Y-127786542D02*
X123531203Y-127929400D01*
X123531203Y-127929400D02*
X123316917Y-128000828D01*
X123316917Y-128000828D02*
X123174060Y-128000828D01*
X123174060Y-128000828D02*
X122959774Y-127929400D01*
X122959774Y-127929400D02*
X122888346Y-127857971D01*
X122888346Y-127857971D02*
X122888346Y-127357971D01*
X122888346Y-127357971D02*
X123174060Y-127357971D01*
X122245489Y-128000828D02*
X122245489Y-127000828D01*
X122245489Y-126500828D02*
X122316917Y-126572257D01*
X122316917Y-126572257D02*
X122245489Y-126643685D01*
X122245489Y-126643685D02*
X122174060Y-126572257D01*
X122174060Y-126572257D02*
X122245489Y-126500828D01*
X122245489Y-126500828D02*
X122245489Y-126643685D01*
X121745488Y-127000828D02*
X121174060Y-127000828D01*
X121531203Y-126500828D02*
X121531203Y-127786542D01*
X121531203Y-127786542D02*
X121459774Y-127929400D01*
X121459774Y-127929400D02*
X121316917Y-128000828D01*
X121316917Y-128000828D02*
X121174060Y-128000828D01*
X120674060Y-128000828D02*
X120674060Y-126500828D01*
X120031203Y-128000828D02*
X120031203Y-127215114D01*
X120031203Y-127215114D02*
X120102631Y-127072257D01*
X120102631Y-127072257D02*
X120245488Y-127000828D01*
X120245488Y-127000828D02*
X120459774Y-127000828D01*
X120459774Y-127000828D02*
X120602631Y-127072257D01*
X120602631Y-127072257D02*
X120674060Y-127143685D01*
X118674060Y-127000828D02*
X118674060Y-128000828D01*
X119316917Y-127000828D02*
X119316917Y-127786542D01*
X119316917Y-127786542D02*
X119245488Y-127929400D01*
X119245488Y-127929400D02*
X119102631Y-128000828D01*
X119102631Y-128000828D02*
X118888345Y-128000828D01*
X118888345Y-128000828D02*
X118745488Y-127929400D01*
X118745488Y-127929400D02*
X118674060Y-127857971D01*
X117959774Y-128000828D02*
X117959774Y-126500828D01*
X117959774Y-127072257D02*
X117816917Y-127000828D01*
X117816917Y-127000828D02*
X117531202Y-127000828D01*
X117531202Y-127000828D02*
X117388345Y-127072257D01*
X117388345Y-127072257D02*
X117316917Y-127143685D01*
X117316917Y-127143685D02*
X117245488Y-127286542D01*
X117245488Y-127286542D02*
X117245488Y-127715114D01*
X117245488Y-127715114D02*
X117316917Y-127857971D01*
X117316917Y-127857971D02*
X117388345Y-127929400D01*
X117388345Y-127929400D02*
X117531202Y-128000828D01*
X117531202Y-128000828D02*
X117816917Y-128000828D01*
X117816917Y-128000828D02*
X117959774Y-127929400D01*
X115245488Y-128000828D02*
X115388345Y-127929400D01*
X115388345Y-127929400D02*
X115459774Y-127786542D01*
X115459774Y-127786542D02*
X115459774Y-126500828D01*
X114674060Y-128000828D02*
X114674060Y-127000828D01*
X114674060Y-126500828D02*
X114745488Y-126572257D01*
X114745488Y-126572257D02*
X114674060Y-126643685D01*
X114674060Y-126643685D02*
X114602631Y-126572257D01*
X114602631Y-126572257D02*
X114674060Y-126500828D01*
X114674060Y-126500828D02*
X114674060Y-126643685D01*
X113959774Y-127000828D02*
X113959774Y-128000828D01*
X113959774Y-127143685D02*
X113888345Y-127072257D01*
X113888345Y-127072257D02*
X113745488Y-127000828D01*
X113745488Y-127000828D02*
X113531202Y-127000828D01*
X113531202Y-127000828D02*
X113388345Y-127072257D01*
X113388345Y-127072257D02*
X113316917Y-127215114D01*
X113316917Y-127215114D02*
X113316917Y-128000828D01*
X112602631Y-128000828D02*
X112602631Y-126500828D01*
X112459774Y-127429400D02*
X112031202Y-128000828D01*
X112031202Y-127000828D02*
X112602631Y-127572257D01*
D13*
%TO.C,G\u002A\u002A\u002A*%
G36*
X129076000Y-151376000D02*
G01*
X126705333Y-151376000D01*
X124334667Y-151376000D01*
X124334667Y-149005333D01*
X124334667Y-147312000D01*
X125012000Y-147312000D01*
X125012000Y-149005333D01*
X125012000Y-150698667D01*
X126705333Y-150698667D01*
X128398667Y-150698667D01*
X128398667Y-149005333D01*
X128398667Y-147312000D01*
X126705333Y-147312000D01*
X125012000Y-147312000D01*
X124334667Y-147312000D01*
X124334667Y-146634667D01*
X126705333Y-146634667D01*
X129076000Y-146634667D01*
X129076000Y-149005333D01*
X129076000Y-151376000D01*
G37*
G36*
X117561333Y-137152000D02*
G01*
X118238667Y-137152000D01*
X118916000Y-137152000D01*
X118916000Y-137490667D01*
X118916000Y-137829333D01*
X119254667Y-137829333D01*
X119593333Y-137829333D01*
X119593333Y-137152000D01*
X119593333Y-136474667D01*
X118916000Y-136474667D01*
X118238667Y-136474667D01*
X118238667Y-136136000D01*
X118238667Y-135797333D01*
X117900000Y-135797333D01*
X117561333Y-135797333D01*
X117561333Y-135458667D01*
X117561333Y-135120000D01*
X117222667Y-135120000D01*
X116884000Y-135120000D01*
X116884000Y-134781333D01*
X116884000Y-134442667D01*
X116545333Y-134442667D01*
X116206667Y-134442667D01*
X116206667Y-134781333D01*
X116206667Y-135120000D01*
X115190667Y-135120000D01*
X114174667Y-135120000D01*
X114174667Y-134781333D01*
X114174667Y-134442667D01*
X113158667Y-134442667D01*
X112142667Y-134442667D01*
X112142667Y-133426667D01*
X112142667Y-132410667D01*
X112481333Y-132410667D01*
X112820000Y-132410667D01*
X112820000Y-133088000D01*
X112820000Y-133765333D01*
X113158667Y-133765333D01*
X113497333Y-133765333D01*
X113497333Y-133426667D01*
X113497333Y-133088000D01*
X113836000Y-133088000D01*
X114174667Y-133088000D01*
X114174667Y-133426667D01*
X114174667Y-133765333D01*
X114513333Y-133765333D01*
X114852000Y-133765333D01*
X114852000Y-134104000D01*
X114852000Y-134442667D01*
X115190667Y-134442667D01*
X115529333Y-134442667D01*
X115529333Y-134104000D01*
X115529333Y-133765333D01*
X115868000Y-133765333D01*
X116206667Y-133765333D01*
X116206667Y-133426667D01*
X116206667Y-133088000D01*
X116545333Y-133088000D01*
X116884000Y-133088000D01*
X116884000Y-133426667D01*
X116884000Y-133765333D01*
X117222667Y-133765333D01*
X117561333Y-133765333D01*
X117561333Y-134442667D01*
X117561333Y-135120000D01*
X117900000Y-135120000D01*
X118238667Y-135120000D01*
X118238667Y-134781333D01*
X118238667Y-134442667D01*
X118577333Y-134442667D01*
X118916000Y-134442667D01*
X118916000Y-134781333D01*
X118916000Y-135120000D01*
X119254667Y-135120000D01*
X119593333Y-135120000D01*
X119593333Y-135458667D01*
X119593333Y-135797333D01*
X119932000Y-135797333D01*
X120270667Y-135797333D01*
X120270667Y-135458667D01*
X120270667Y-135120000D01*
X120948000Y-135120000D01*
X121625333Y-135120000D01*
X121625333Y-135458667D01*
X121625333Y-135797333D01*
X121286667Y-135797333D01*
X120948000Y-135797333D01*
X120948000Y-136136000D01*
X120948000Y-136474667D01*
X121286667Y-136474667D01*
X121625333Y-136474667D01*
X121625333Y-136136000D01*
X121625333Y-135797333D01*
X121964000Y-135797333D01*
X122302667Y-135797333D01*
X122302667Y-136136000D01*
X122302667Y-136474667D01*
X122302667Y-137152000D01*
X122641333Y-137152000D01*
X122980000Y-137152000D01*
X122980000Y-135797333D01*
X122980000Y-134442667D01*
X122641333Y-134442667D01*
X122302667Y-134442667D01*
X122302667Y-134781333D01*
X122302667Y-135120000D01*
X121964000Y-135120000D01*
X121625333Y-135120000D01*
X121625333Y-134104000D01*
X121625333Y-133088000D01*
X121964000Y-133088000D01*
X122302667Y-133088000D01*
X122302667Y-133426667D01*
X122302667Y-133765333D01*
X122641333Y-133765333D01*
X122980000Y-133765333D01*
X122980000Y-133426667D01*
X122980000Y-133088000D01*
X122641333Y-133088000D01*
X122302667Y-133088000D01*
X122302667Y-132410667D01*
X122302667Y-131733333D01*
X121964000Y-131733333D01*
X121625333Y-131733333D01*
X121625333Y-131394667D01*
X121625333Y-131056000D01*
X121964000Y-131056000D01*
X122302667Y-131056000D01*
X122302667Y-131394667D01*
X122302667Y-131733333D01*
X122641333Y-131733333D01*
X122980000Y-131733333D01*
X122980000Y-131394667D01*
X122980000Y-131056000D01*
X123318667Y-131056000D01*
X123657333Y-131056000D01*
X123657333Y-132749333D01*
X123657333Y-134442667D01*
X124334667Y-134442667D01*
X125012000Y-134442667D01*
X125012000Y-134781333D01*
X125012000Y-135120000D01*
X124334667Y-135120000D01*
X123657333Y-135120000D01*
X123657333Y-135458667D01*
X123657333Y-135797333D01*
X124334667Y-135797333D01*
X125012000Y-135797333D01*
X125012000Y-136136000D01*
X125012000Y-136474667D01*
X124334667Y-136474667D01*
X123657333Y-136474667D01*
X123657333Y-136813333D01*
X123657333Y-137152000D01*
X123318667Y-137152000D01*
X122980000Y-137152000D01*
X122980000Y-137490667D01*
X122980000Y-137829333D01*
X122641333Y-137829333D01*
X122302667Y-137829333D01*
X122302667Y-137490667D01*
X122302667Y-137152000D01*
X121964000Y-137152000D01*
X121625333Y-137152000D01*
X121625333Y-137490667D01*
X121625333Y-137829333D01*
X121286667Y-137829333D01*
X120948000Y-137829333D01*
X120948000Y-137490667D01*
X120948000Y-137152000D01*
X120609333Y-137152000D01*
X120270667Y-137152000D01*
X120270667Y-138168000D01*
X120270667Y-138506667D01*
X120270667Y-139522667D01*
X120270667Y-139861333D01*
X120609333Y-139861333D01*
X120948000Y-139861333D01*
X120948000Y-139184000D01*
X120948000Y-138506667D01*
X121286667Y-138506667D01*
X121625333Y-138506667D01*
X121625333Y-138845333D01*
X121625333Y-139184000D01*
X121964000Y-139184000D01*
X122302667Y-139184000D01*
X122302667Y-138845333D01*
X122302667Y-138506667D01*
X123657333Y-138506667D01*
X125012000Y-138506667D01*
X125012000Y-138845333D01*
X125012000Y-139184000D01*
X123996000Y-139184000D01*
X122980000Y-139184000D01*
X122980000Y-139522667D01*
X122980000Y-139861333D01*
X122641333Y-139861333D01*
X122302667Y-139861333D01*
X122302667Y-140200000D01*
X122302667Y-140538667D01*
X121964000Y-140538667D01*
X121625333Y-140538667D01*
X121625333Y-140200000D01*
X121625333Y-139861333D01*
X121286667Y-139861333D01*
X120948000Y-139861333D01*
X120948000Y-140200000D01*
X120948000Y-140538667D01*
X120609333Y-140538667D01*
X120270667Y-140538667D01*
X120270667Y-140200000D01*
X120270667Y-139861333D01*
X119932000Y-139861333D01*
X119593333Y-139861333D01*
X119593333Y-140200000D01*
X119593333Y-140877333D01*
X119593333Y-141893333D01*
X119932000Y-141893333D01*
X120270667Y-141893333D01*
X120270667Y-142570667D01*
X120270667Y-143248000D01*
X119593333Y-143248000D01*
X118916000Y-143248000D01*
X118916000Y-142570667D01*
X118916000Y-141893333D01*
X118577333Y-141893333D01*
X118238667Y-141893333D01*
X118238667Y-142232000D01*
X118238667Y-142570667D01*
X117561333Y-142570667D01*
X116884000Y-142570667D01*
X116884000Y-143248000D01*
X116884000Y-143925333D01*
X117222667Y-143925333D01*
X117561333Y-143925333D01*
X117561333Y-143586667D01*
X117561333Y-143248000D01*
X117900000Y-143248000D01*
X118238667Y-143248000D01*
X118238667Y-143925333D01*
X118238667Y-144602667D01*
X117900000Y-144602667D01*
X117561333Y-144602667D01*
X117561333Y-144941333D01*
X117561333Y-145280000D01*
X118238667Y-145280000D01*
X118916000Y-145280000D01*
X118916000Y-145957333D01*
X118916000Y-146634667D01*
X119254667Y-146634667D01*
X119593333Y-146634667D01*
X119593333Y-146296000D01*
X119593333Y-145957333D01*
X119932000Y-145957333D01*
X120270667Y-145957333D01*
X120270667Y-145618667D01*
X120270667Y-145280000D01*
X119593333Y-145280000D01*
X118916000Y-145280000D01*
X118916000Y-144941333D01*
X118916000Y-144602667D01*
X119254667Y-144602667D01*
X119593333Y-144602667D01*
X119593333Y-144264000D01*
X119593333Y-143925333D01*
X120270667Y-143925333D01*
X120948000Y-143925333D01*
X120948000Y-144941333D01*
X120948000Y-145618667D01*
X120948000Y-145957333D01*
X121286667Y-145957333D01*
X121625333Y-145957333D01*
X121625333Y-145618667D01*
X121625333Y-145280000D01*
X122302667Y-145280000D01*
X122980000Y-145280000D01*
X122980000Y-144602667D01*
X122980000Y-143925333D01*
X123318667Y-143925333D01*
X123657333Y-143925333D01*
X123657333Y-145618667D01*
X123657333Y-146973333D01*
X123657333Y-147312000D01*
X122980000Y-147312000D01*
X122302667Y-147312000D01*
X122302667Y-147650667D01*
X122302667Y-147989333D01*
X121964000Y-147989333D01*
X121625333Y-147989333D01*
X121625333Y-148328000D01*
X121625333Y-148666667D01*
X121964000Y-148666667D01*
X122302667Y-148666667D01*
X122302667Y-149005333D01*
X122302667Y-149344000D01*
X122641333Y-149344000D01*
X122980000Y-149344000D01*
X122980000Y-149682667D01*
X122980000Y-150021333D01*
X122641333Y-150021333D01*
X122302667Y-150021333D01*
X122302667Y-150360000D01*
X122302667Y-150698667D01*
X122980000Y-150698667D01*
X123657333Y-150698667D01*
X123657333Y-151037333D01*
X123657333Y-151376000D01*
X122641333Y-151376000D01*
X121625333Y-151376000D01*
X121625333Y-151037333D01*
X121625333Y-150698667D01*
X121286667Y-150698667D01*
X120948000Y-150698667D01*
X120948000Y-151037333D01*
X120948000Y-151376000D01*
X120609333Y-151376000D01*
X120270667Y-151376000D01*
X120270667Y-151037333D01*
X120270667Y-150698667D01*
X119932000Y-150698667D01*
X119593333Y-150698667D01*
X119593333Y-151037333D01*
X119593333Y-151376000D01*
X119254667Y-151376000D01*
X118916000Y-151376000D01*
X118916000Y-151037333D01*
X118916000Y-150698667D01*
X118577333Y-150698667D01*
X118238667Y-150698667D01*
X118238667Y-151037333D01*
X118238667Y-151376000D01*
X117561333Y-151376000D01*
X116884000Y-151376000D01*
X116884000Y-150698667D01*
X116884000Y-150360000D01*
X120270667Y-150360000D01*
X120270667Y-150698667D01*
X120609333Y-150698667D01*
X120948000Y-150698667D01*
X120948000Y-150360000D01*
X120948000Y-150021333D01*
X120609333Y-150021333D01*
X120270667Y-150021333D01*
X120270667Y-150360000D01*
X116884000Y-150360000D01*
X116884000Y-150021333D01*
X116545333Y-150021333D01*
X116206667Y-150021333D01*
X116206667Y-150360000D01*
X116206667Y-150698667D01*
X115868000Y-150698667D01*
X115529333Y-150698667D01*
X115529333Y-151037333D01*
X115529333Y-151376000D01*
X113158667Y-151376000D01*
X110788000Y-151376000D01*
X110788000Y-150698667D01*
X110788000Y-150021333D01*
X109772000Y-150021333D01*
X108756000Y-150021333D01*
X108756000Y-149005333D01*
X108756000Y-148666667D01*
X111465333Y-148666667D01*
X111465333Y-149682667D01*
X111465333Y-150698667D01*
X111804000Y-150698667D01*
X112142667Y-150698667D01*
X112142667Y-149682667D01*
X112142667Y-148666667D01*
X111804000Y-148666667D01*
X111465333Y-148666667D01*
X108756000Y-148666667D01*
X108756000Y-147989333D01*
X109094667Y-147989333D01*
X109433333Y-147989333D01*
X109433333Y-147650667D01*
X109433333Y-147312000D01*
X109094667Y-147312000D01*
X108756000Y-147312000D01*
X108756000Y-146973333D01*
X108756000Y-146634667D01*
X108417333Y-146634667D01*
X108078667Y-146634667D01*
X108078667Y-147650667D01*
X108078667Y-148666667D01*
X107740000Y-148666667D01*
X107401333Y-148666667D01*
X107401333Y-148328000D01*
X107401333Y-147989333D01*
X107062667Y-147989333D01*
X106724000Y-147989333D01*
X106724000Y-147650667D01*
X106724000Y-147312000D01*
X107062667Y-147312000D01*
X107401333Y-147312000D01*
X107401333Y-146634667D01*
X107401333Y-145957333D01*
X107062667Y-145957333D01*
X106724000Y-145957333D01*
X106724000Y-145280000D01*
X106724000Y-144602667D01*
X107062667Y-144602667D01*
X107401333Y-144602667D01*
X107401333Y-143586667D01*
X107401333Y-142570667D01*
X107740000Y-142570667D01*
X108078667Y-142570667D01*
X108078667Y-143248000D01*
X108078667Y-143925333D01*
X108417333Y-143925333D01*
X108756000Y-143925333D01*
X108756000Y-143248000D01*
X108756000Y-142570667D01*
X109094667Y-142570667D01*
X109433333Y-142570667D01*
X109433333Y-143248000D01*
X109433333Y-143925333D01*
X109094667Y-143925333D01*
X108756000Y-143925333D01*
X108756000Y-144264000D01*
X108756000Y-144602667D01*
X108417333Y-144602667D01*
X108078667Y-144602667D01*
X108078667Y-144941333D01*
X108078667Y-145280000D01*
X107740000Y-145280000D01*
X107401333Y-145280000D01*
X107401333Y-145618667D01*
X107401333Y-145957333D01*
X107740000Y-145957333D01*
X108078667Y-145957333D01*
X108078667Y-145618667D01*
X108078667Y-145280000D01*
X108417333Y-145280000D01*
X108756000Y-145280000D01*
X108756000Y-145618667D01*
X108756000Y-145957333D01*
X108756000Y-146634667D01*
X109094667Y-146634667D01*
X109433333Y-146634667D01*
X109433333Y-145957333D01*
X110110667Y-145957333D01*
X110110667Y-146973333D01*
X110110667Y-147989333D01*
X111126667Y-147989333D01*
X112142667Y-147989333D01*
X112142667Y-146973333D01*
X112142667Y-145957333D01*
X111126667Y-145957333D01*
X110110667Y-145957333D01*
X109433333Y-145957333D01*
X109433333Y-145280000D01*
X110110667Y-145280000D01*
X110788000Y-145280000D01*
X110788000Y-144941333D01*
X110788000Y-144602667D01*
X111126667Y-144602667D01*
X111465333Y-144602667D01*
X111465333Y-143925333D01*
X111465333Y-143248000D01*
X111804000Y-143248000D01*
X112142667Y-143248000D01*
X112142667Y-143586667D01*
X112142667Y-143925333D01*
X112481333Y-143925333D01*
X112820000Y-143925333D01*
X112820000Y-143586667D01*
X112820000Y-143248000D01*
X113158667Y-143248000D01*
X113497333Y-143248000D01*
X113497333Y-143586667D01*
X113497333Y-143925333D01*
X113836000Y-143925333D01*
X114174667Y-143925333D01*
X114174667Y-144264000D01*
X114174667Y-144602667D01*
X113836000Y-144602667D01*
X113497333Y-144602667D01*
X113497333Y-144941333D01*
X113497333Y-145280000D01*
X113158667Y-145280000D01*
X112820000Y-145280000D01*
X112820000Y-144941333D01*
X112820000Y-144602667D01*
X112481333Y-144602667D01*
X112142667Y-144602667D01*
X112142667Y-144941333D01*
X112142667Y-145280000D01*
X112481333Y-145280000D01*
X112820000Y-145280000D01*
X112820000Y-145618667D01*
X112820000Y-145957333D01*
X113158667Y-145957333D01*
X113497333Y-145957333D01*
X113497333Y-146296000D01*
X113497333Y-146634667D01*
X113158667Y-146634667D01*
X112820000Y-146634667D01*
X112820000Y-146973333D01*
X112820000Y-147650667D01*
X112820000Y-148666667D01*
X113158667Y-148666667D01*
X113497333Y-148666667D01*
X113497333Y-148328000D01*
X113497333Y-147989333D01*
X113836000Y-147989333D01*
X114174667Y-147989333D01*
X114174667Y-148328000D01*
X114174667Y-148666667D01*
X114513333Y-148666667D01*
X114852000Y-148666667D01*
X114852000Y-149005333D01*
X114852000Y-149344000D01*
X114174667Y-149344000D01*
X113497333Y-149344000D01*
X113497333Y-149682667D01*
X113497333Y-150021333D01*
X113497333Y-150698667D01*
X113836000Y-150698667D01*
X114174667Y-150698667D01*
X114174667Y-150360000D01*
X114174667Y-150021333D01*
X114513333Y-150021333D01*
X114852000Y-150021333D01*
X114852000Y-149682667D01*
X114852000Y-149344000D01*
X115190667Y-149344000D01*
X115529333Y-149344000D01*
X115529333Y-149682667D01*
X115529333Y-150021333D01*
X115868000Y-150021333D01*
X116206667Y-150021333D01*
X116206667Y-149344000D01*
X116206667Y-148666667D01*
X116884000Y-148666667D01*
X117561333Y-148666667D01*
X117561333Y-149005333D01*
X117561333Y-149344000D01*
X117222667Y-149344000D01*
X116884000Y-149344000D01*
X116884000Y-149682667D01*
X116884000Y-150021333D01*
X117561333Y-150021333D01*
X118238667Y-150021333D01*
X118238667Y-149682667D01*
X118238667Y-149344000D01*
X118577333Y-149344000D01*
X118916000Y-149344000D01*
X118916000Y-149682667D01*
X118916000Y-150021333D01*
X119593333Y-150021333D01*
X120270667Y-150021333D01*
X120270667Y-149682667D01*
X120270667Y-149344000D01*
X119932000Y-149344000D01*
X119593333Y-149344000D01*
X119593333Y-149005333D01*
X119593333Y-148666667D01*
X120270667Y-148666667D01*
X120948000Y-148666667D01*
X120948000Y-148328000D01*
X120948000Y-147989333D01*
X120270667Y-147989333D01*
X119593333Y-147989333D01*
X119593333Y-147650667D01*
X119593333Y-147312000D01*
X119254667Y-147312000D01*
X118916000Y-147312000D01*
X118916000Y-147650667D01*
X118916000Y-147989333D01*
X118577333Y-147989333D01*
X118238667Y-147989333D01*
X118238667Y-147650667D01*
X118238667Y-147312000D01*
X117900000Y-147312000D01*
X117561333Y-147312000D01*
X117561333Y-146973333D01*
X119593333Y-146973333D01*
X119593333Y-147312000D01*
X119932000Y-147312000D01*
X120270667Y-147312000D01*
X120270667Y-146973333D01*
X120270667Y-146634667D01*
X121625333Y-146634667D01*
X121625333Y-146973333D01*
X121625333Y-147312000D01*
X121964000Y-147312000D01*
X122302667Y-147312000D01*
X122302667Y-146973333D01*
X122302667Y-146634667D01*
X121964000Y-146634667D01*
X121625333Y-146634667D01*
X120270667Y-146634667D01*
X119932000Y-146634667D01*
X119593333Y-146634667D01*
X119593333Y-146973333D01*
X117561333Y-146973333D01*
X117561333Y-146634667D01*
X117222667Y-146634667D01*
X116884000Y-146634667D01*
X116884000Y-146973333D01*
X116884000Y-147312000D01*
X116545333Y-147312000D01*
X116206667Y-147312000D01*
X116206667Y-146634667D01*
X116206667Y-145957333D01*
X116545333Y-145957333D01*
X116884000Y-145957333D01*
X116884000Y-145618667D01*
X116884000Y-145280000D01*
X116545333Y-145280000D01*
X116206667Y-145280000D01*
X116206667Y-143925333D01*
X116206667Y-142570667D01*
X115868000Y-142570667D01*
X115529333Y-142570667D01*
X115529333Y-142909333D01*
X115529333Y-143248000D01*
X114513333Y-143248000D01*
X113497333Y-143248000D01*
X113497333Y-142909333D01*
X113497333Y-142570667D01*
X112481333Y-142570667D01*
X111465333Y-142570667D01*
X111465333Y-142909333D01*
X111465333Y-143248000D01*
X111126667Y-143248000D01*
X110788000Y-143248000D01*
X110788000Y-143586667D01*
X110788000Y-143925333D01*
X110449333Y-143925333D01*
X110110667Y-143925333D01*
X110110667Y-142570667D01*
X110110667Y-141216000D01*
X110788000Y-141216000D01*
X111465333Y-141216000D01*
X111465333Y-140877333D01*
X111465333Y-140538667D01*
X111804000Y-140538667D01*
X112142667Y-140538667D01*
X112142667Y-141216000D01*
X112142667Y-141893333D01*
X112481333Y-141893333D01*
X112820000Y-141893333D01*
X112820000Y-141216000D01*
X112820000Y-140538667D01*
X113158667Y-140538667D01*
X113497333Y-140538667D01*
X113497333Y-140877333D01*
X113497333Y-141216000D01*
X113836000Y-141216000D01*
X114174667Y-141216000D01*
X114174667Y-141554667D01*
X114174667Y-141893333D01*
X114513333Y-141893333D01*
X114852000Y-141893333D01*
X114852000Y-141554667D01*
X114852000Y-141216000D01*
X115190667Y-141216000D01*
X115529333Y-141216000D01*
X115529333Y-141554667D01*
X115529333Y-141893333D01*
X115868000Y-141893333D01*
X116206667Y-141893333D01*
X116206667Y-142232000D01*
X116206667Y-142570667D01*
X116545333Y-142570667D01*
X116884000Y-142570667D01*
X116884000Y-142232000D01*
X116884000Y-141893333D01*
X117222667Y-141893333D01*
X117561333Y-141893333D01*
X117561333Y-141554667D01*
X117561333Y-141216000D01*
X117222667Y-141216000D01*
X116884000Y-141216000D01*
X116884000Y-141554667D01*
X116884000Y-141893333D01*
X116545333Y-141893333D01*
X116206667Y-141893333D01*
X116206667Y-141216000D01*
X116206667Y-140538667D01*
X116545333Y-140538667D01*
X116884000Y-140538667D01*
X116884000Y-140200000D01*
X116884000Y-139861333D01*
X117561333Y-139861333D01*
X117561333Y-140200000D01*
X117561333Y-140538667D01*
X118238667Y-140538667D01*
X118916000Y-140538667D01*
X118916000Y-140200000D01*
X118916000Y-139861333D01*
X118238667Y-139861333D01*
X117561333Y-139861333D01*
X116884000Y-139861333D01*
X116545333Y-139861333D01*
X116206667Y-139861333D01*
X116206667Y-139522667D01*
X116206667Y-139184000D01*
X116545333Y-139184000D01*
X116884000Y-139184000D01*
X116884000Y-138845333D01*
X116884000Y-138506667D01*
X116545333Y-138506667D01*
X116206667Y-138506667D01*
X116206667Y-138168000D01*
X116206667Y-137829333D01*
X116545333Y-137829333D01*
X116884000Y-137829333D01*
X117561333Y-137829333D01*
X117561333Y-138506667D01*
X117561333Y-139184000D01*
X117900000Y-139184000D01*
X118238667Y-139184000D01*
X118916000Y-139184000D01*
X118916000Y-139522667D01*
X118916000Y-139861333D01*
X119254667Y-139861333D01*
X119593333Y-139861333D01*
X119593333Y-139522667D01*
X119593333Y-139184000D01*
X119254667Y-139184000D01*
X118916000Y-139184000D01*
X118238667Y-139184000D01*
X118238667Y-138845333D01*
X118238667Y-138506667D01*
X118577333Y-138506667D01*
X118916000Y-138506667D01*
X118916000Y-138168000D01*
X118916000Y-137829333D01*
X118238667Y-137829333D01*
X117561333Y-137829333D01*
X116884000Y-137829333D01*
X116884000Y-137490667D01*
X116884000Y-137152000D01*
X115868000Y-137152000D01*
X114852000Y-137152000D01*
X114852000Y-137829333D01*
X114852000Y-138506667D01*
X114174667Y-138506667D01*
X113497333Y-138506667D01*
X113497333Y-138845333D01*
X113497333Y-139184000D01*
X113158667Y-139184000D01*
X112820000Y-139184000D01*
X112820000Y-138506667D01*
X112820000Y-137829333D01*
X112481333Y-137829333D01*
X112142667Y-137829333D01*
X112142667Y-137490667D01*
X112142667Y-137152000D01*
X111804000Y-137152000D01*
X111465333Y-137152000D01*
X111465333Y-136813333D01*
X111465333Y-136474667D01*
X111804000Y-136474667D01*
X112142667Y-136474667D01*
X112142667Y-136813333D01*
X112142667Y-137152000D01*
X112481333Y-137152000D01*
X112820000Y-137152000D01*
X112820000Y-136474667D01*
X113497333Y-136474667D01*
X113497333Y-136813333D01*
X113497333Y-137152000D01*
X113836000Y-137152000D01*
X114174667Y-137152000D01*
X114174667Y-136813333D01*
X114174667Y-136474667D01*
X113836000Y-136474667D01*
X113497333Y-136474667D01*
X112820000Y-136474667D01*
X112820000Y-136136000D01*
X112820000Y-135120000D01*
X113158667Y-135120000D01*
X113497333Y-135120000D01*
X113497333Y-135458667D01*
X113497333Y-135797333D01*
X114174667Y-135797333D01*
X114852000Y-135797333D01*
X114852000Y-136136000D01*
X114852000Y-136474667D01*
X115529333Y-136474667D01*
X116206667Y-136474667D01*
X116206667Y-136136000D01*
X116206667Y-135797333D01*
X116545333Y-135797333D01*
X116884000Y-135797333D01*
X116884000Y-136136000D01*
X116884000Y-136474667D01*
X117222667Y-136474667D01*
X117561333Y-136474667D01*
X117561333Y-136813333D01*
X117561333Y-137152000D01*
G37*
G36*
X124334667Y-139861333D02*
G01*
X125689333Y-139861333D01*
X125689333Y-140200000D01*
X125689333Y-140538667D01*
X125012000Y-140538667D01*
X124334667Y-140538667D01*
X124334667Y-140877333D01*
X124334667Y-141216000D01*
X124673333Y-141216000D01*
X125012000Y-141216000D01*
X125012000Y-141554667D01*
X125012000Y-141893333D01*
X125350667Y-141893333D01*
X125689333Y-141893333D01*
X125689333Y-141554667D01*
X125689333Y-141216000D01*
X126028000Y-141216000D01*
X126366667Y-141216000D01*
X126366667Y-141554667D01*
X126366667Y-141893333D01*
X127382667Y-141893333D01*
X128398667Y-141893333D01*
X128398667Y-141554667D01*
X128398667Y-141216000D01*
X128737333Y-141216000D01*
X129076000Y-141216000D01*
X129076000Y-141554667D01*
X129076000Y-141893333D01*
X128737333Y-141893333D01*
X128398667Y-141893333D01*
X128398667Y-142570667D01*
X128398667Y-143248000D01*
X128737333Y-143248000D01*
X129076000Y-143248000D01*
X129076000Y-143586667D01*
X129076000Y-143925333D01*
X128060000Y-143925333D01*
X127044000Y-143925333D01*
X127044000Y-143248000D01*
X127044000Y-142570667D01*
X126705333Y-142570667D01*
X126366667Y-142570667D01*
X126366667Y-142909333D01*
X126366667Y-143248000D01*
X126028000Y-143248000D01*
X125689333Y-143248000D01*
X125689333Y-143586667D01*
X125689333Y-143925333D01*
X125350667Y-143925333D01*
X125012000Y-143925333D01*
X125012000Y-143586667D01*
X125012000Y-143248000D01*
X123996000Y-143248000D01*
X122980000Y-143248000D01*
X122980000Y-142909333D01*
X125012000Y-142909333D01*
X125012000Y-143248000D01*
X125350667Y-143248000D01*
X125689333Y-143248000D01*
X125689333Y-142909333D01*
X125689333Y-142570667D01*
X125350667Y-142570667D01*
X125012000Y-142570667D01*
X125012000Y-142909333D01*
X122980000Y-142909333D01*
X122980000Y-142570667D01*
X123318667Y-142570667D01*
X123657333Y-142570667D01*
X123657333Y-142232000D01*
X124334667Y-142232000D01*
X124334667Y-142570667D01*
X124673333Y-142570667D01*
X125012000Y-142570667D01*
X125012000Y-142232000D01*
X125012000Y-141893333D01*
X124673333Y-141893333D01*
X124334667Y-141893333D01*
X124334667Y-142232000D01*
X123657333Y-142232000D01*
X123657333Y-141893333D01*
X122641333Y-141893333D01*
X121625333Y-141893333D01*
X121625333Y-142232000D01*
X121625333Y-142570667D01*
X121964000Y-142570667D01*
X122302667Y-142570667D01*
X122302667Y-143248000D01*
X122302667Y-143925333D01*
X121964000Y-143925333D01*
X121625333Y-143925333D01*
X121625333Y-143586667D01*
X121625333Y-143248000D01*
X121286667Y-143248000D01*
X120948000Y-143248000D01*
X120948000Y-142232000D01*
X120948000Y-141216000D01*
X121964000Y-141216000D01*
X122980000Y-141216000D01*
X122980000Y-140538667D01*
X122980000Y-139861333D01*
X124334667Y-139861333D01*
G37*
G36*
X110110667Y-137490667D02*
G01*
X110110667Y-137829333D01*
X110449333Y-137829333D01*
X110788000Y-137829333D01*
X110788000Y-137490667D01*
X110788000Y-137152000D01*
X111126667Y-137152000D01*
X111465333Y-137152000D01*
X111465333Y-137829333D01*
X111465333Y-138506667D01*
X111804000Y-138506667D01*
X112142667Y-138506667D01*
X112142667Y-139184000D01*
X112142667Y-139861333D01*
X111804000Y-139861333D01*
X111465333Y-139861333D01*
X111465333Y-140200000D01*
X111465333Y-140538667D01*
X111126667Y-140538667D01*
X110788000Y-140538667D01*
X110788000Y-140200000D01*
X110788000Y-139861333D01*
X110449333Y-139861333D01*
X110110667Y-139861333D01*
X110110667Y-140200000D01*
X110110667Y-140538667D01*
X109772000Y-140538667D01*
X109433333Y-140538667D01*
X109433333Y-141216000D01*
X109433333Y-141893333D01*
X109094667Y-141893333D01*
X108756000Y-141893333D01*
X108756000Y-141554667D01*
X108756000Y-141216000D01*
X108417333Y-141216000D01*
X108078667Y-141216000D01*
X108078667Y-141554667D01*
X108078667Y-141893333D01*
X107740000Y-141893333D01*
X107401333Y-141893333D01*
X107401333Y-140877333D01*
X107401333Y-139861333D01*
X107740000Y-139861333D01*
X108078667Y-139861333D01*
X108078667Y-140200000D01*
X108078667Y-140538667D01*
X108756000Y-140538667D01*
X109433333Y-140538667D01*
X109433333Y-140200000D01*
X109433333Y-139861333D01*
X109094667Y-139861333D01*
X108756000Y-139861333D01*
X108756000Y-139522667D01*
X108756000Y-139184000D01*
X109433333Y-139184000D01*
X110110667Y-139184000D01*
X110110667Y-138506667D01*
X110110667Y-137829333D01*
X109433333Y-137829333D01*
X108756000Y-137829333D01*
X108756000Y-137490667D01*
X108756000Y-137152000D01*
X109433333Y-137152000D01*
X110110667Y-137152000D01*
X110110667Y-137490667D01*
G37*
G36*
X124334667Y-137152000D02*
G01*
X125012000Y-137152000D01*
X125012000Y-137490667D01*
X125012000Y-137829333D01*
X124334667Y-137829333D01*
X123657333Y-137829333D01*
X123657333Y-137490667D01*
X123657333Y-137152000D01*
X124334667Y-137152000D01*
G37*
G36*
X122302667Y-129362667D02*
G01*
X122302667Y-129701333D01*
X122641333Y-129701333D01*
X122980000Y-129701333D01*
X122980000Y-129362667D01*
X122980000Y-129024000D01*
X123318667Y-129024000D01*
X123657333Y-129024000D01*
X123657333Y-129362667D01*
X123657333Y-129701333D01*
X123318667Y-129701333D01*
X122980000Y-129701333D01*
X122980000Y-130378667D01*
X122980000Y-131056000D01*
X122641333Y-131056000D01*
X122302667Y-131056000D01*
X122302667Y-130378667D01*
X122302667Y-129701333D01*
X121964000Y-129701333D01*
X121625333Y-129701333D01*
X121625333Y-129362667D01*
X121625333Y-129024000D01*
X121964000Y-129024000D01*
X122302667Y-129024000D01*
X122302667Y-129362667D01*
G37*
G36*
X125012000Y-144264000D02*
G01*
X125012000Y-144602667D01*
X124673333Y-144602667D01*
X124334667Y-144602667D01*
X124334667Y-144264000D01*
X124334667Y-143925333D01*
X124673333Y-143925333D01*
X125012000Y-143925333D01*
X125012000Y-144264000D01*
G37*
G36*
X127721333Y-140877333D02*
G01*
X127721333Y-141216000D01*
X127044000Y-141216000D01*
X126366667Y-141216000D01*
X126366667Y-140877333D01*
X126366667Y-140538667D01*
X127044000Y-140538667D01*
X127721333Y-140538667D01*
X127721333Y-140877333D01*
G37*
G36*
X127721333Y-138168000D02*
G01*
X127721333Y-138506667D01*
X128060000Y-138506667D01*
X128398667Y-138506667D01*
X128398667Y-138845333D01*
X128398667Y-139184000D01*
X128737333Y-139184000D01*
X129076000Y-139184000D01*
X129076000Y-139522667D01*
X129076000Y-139861333D01*
X128737333Y-139861333D01*
X128398667Y-139861333D01*
X128398667Y-140200000D01*
X128398667Y-140538667D01*
X128060000Y-140538667D01*
X127721333Y-140538667D01*
X127721333Y-140200000D01*
X127721333Y-139861333D01*
X127382667Y-139861333D01*
X127044000Y-139861333D01*
X127044000Y-138845333D01*
X127044000Y-137829333D01*
X127382667Y-137829333D01*
X127721333Y-137829333D01*
X127721333Y-138168000D01*
G37*
G36*
X108078667Y-138845333D02*
G01*
X108078667Y-139184000D01*
X107740000Y-139184000D01*
X107401333Y-139184000D01*
X107401333Y-138845333D01*
X107401333Y-138506667D01*
X107740000Y-138506667D01*
X108078667Y-138506667D01*
X108078667Y-138845333D01*
G37*
G36*
X108756000Y-138168000D02*
G01*
X108756000Y-138506667D01*
X108417333Y-138506667D01*
X108078667Y-138506667D01*
X108078667Y-138168000D01*
X108078667Y-137829333D01*
X108417333Y-137829333D01*
X108756000Y-137829333D01*
X108756000Y-138168000D01*
G37*
G36*
X128398667Y-137490667D02*
G01*
X128398667Y-137829333D01*
X128060000Y-137829333D01*
X127721333Y-137829333D01*
X127721333Y-137490667D01*
X127721333Y-137152000D01*
X128060000Y-137152000D01*
X128398667Y-137152000D01*
X128398667Y-137490667D01*
G37*
G36*
X107401333Y-134781333D02*
G01*
X107401333Y-135120000D01*
X108078667Y-135120000D01*
X108756000Y-135120000D01*
X108756000Y-134781333D01*
X108756000Y-134442667D01*
X110449333Y-134442667D01*
X112142667Y-134442667D01*
X112142667Y-135120000D01*
X112142667Y-135797333D01*
X111804000Y-135797333D01*
X111465333Y-135797333D01*
X111465333Y-135458667D01*
X111465333Y-135120000D01*
X110449333Y-135120000D01*
X109433333Y-135120000D01*
X109433333Y-135797333D01*
X109433333Y-136474667D01*
X109094667Y-136474667D01*
X108756000Y-136474667D01*
X108756000Y-136136000D01*
X108756000Y-135797333D01*
X108417333Y-135797333D01*
X108078667Y-135797333D01*
X108078667Y-136474667D01*
X108078667Y-137152000D01*
X107401333Y-137152000D01*
X106724000Y-137152000D01*
X106724000Y-136813333D01*
X106724000Y-136474667D01*
X107062667Y-136474667D01*
X107401333Y-136474667D01*
X107401333Y-135797333D01*
X107401333Y-135120000D01*
X107062667Y-135120000D01*
X106724000Y-135120000D01*
X106724000Y-134781333D01*
X106724000Y-134442667D01*
X107062667Y-134442667D01*
X107401333Y-134442667D01*
X107401333Y-134781333D01*
G37*
G36*
X120270667Y-132072000D02*
G01*
X120270667Y-132410667D01*
X120609333Y-132410667D01*
X120948000Y-132410667D01*
X120948000Y-132072000D01*
X120948000Y-131733333D01*
X121286667Y-131733333D01*
X121625333Y-131733333D01*
X121625333Y-132072000D01*
X121625333Y-132410667D01*
X121286667Y-132410667D01*
X120948000Y-132410667D01*
X120948000Y-133426667D01*
X120948000Y-134442667D01*
X120609333Y-134442667D01*
X120270667Y-134442667D01*
X120270667Y-133426667D01*
X120270667Y-132410667D01*
X119932000Y-132410667D01*
X119593333Y-132410667D01*
X119593333Y-132072000D01*
X119593333Y-131733333D01*
X119932000Y-131733333D01*
X120270667Y-131733333D01*
X120270667Y-132072000D01*
G37*
G36*
X119254667Y-133088000D02*
G01*
X119593333Y-133088000D01*
X119593333Y-133765333D01*
X119593333Y-134442667D01*
X119254667Y-134442667D01*
X118916000Y-134442667D01*
X118916000Y-133765333D01*
X118916000Y-133088000D01*
X119254667Y-133088000D01*
G37*
G36*
X118577333Y-132410667D02*
G01*
X118916000Y-132410667D01*
X118916000Y-132749333D01*
X118916000Y-133088000D01*
X118577333Y-133088000D01*
X118238667Y-133088000D01*
X118238667Y-132749333D01*
X118238667Y-132410667D01*
X118577333Y-132410667D01*
G37*
G36*
X117900000Y-131056000D02*
G01*
X118238667Y-131056000D01*
X118238667Y-131733333D01*
X118238667Y-132410667D01*
X117900000Y-132410667D01*
X117561333Y-132410667D01*
X117561333Y-131733333D01*
X117561333Y-131056000D01*
X117900000Y-131056000D01*
G37*
G36*
X114174667Y-129701333D02*
G01*
X114852000Y-129701333D01*
X114852000Y-130040000D01*
X114852000Y-130378667D01*
X115190667Y-130378667D01*
X115529333Y-130378667D01*
X115529333Y-130040000D01*
X115529333Y-129701333D01*
X116206667Y-129701333D01*
X116884000Y-129701333D01*
X116884000Y-130040000D01*
X116884000Y-130378667D01*
X117222667Y-130378667D01*
X117561333Y-130378667D01*
X117561333Y-130717333D01*
X117561333Y-131056000D01*
X117222667Y-131056000D01*
X116884000Y-131056000D01*
X116884000Y-131733333D01*
X116884000Y-132410667D01*
X116545333Y-132410667D01*
X116206667Y-132410667D01*
X116206667Y-131733333D01*
X116206667Y-131056000D01*
X115190667Y-131056000D01*
X114174667Y-131056000D01*
X114174667Y-130717333D01*
X114174667Y-130378667D01*
X113836000Y-130378667D01*
X113497333Y-130378667D01*
X113497333Y-130040000D01*
X113497333Y-129701333D01*
X114174667Y-129701333D01*
G37*
G36*
X113497333Y-129362667D02*
G01*
X113497333Y-129701333D01*
X113158667Y-129701333D01*
X112820000Y-129701333D01*
X112820000Y-129362667D01*
X112820000Y-129024000D01*
X113158667Y-129024000D01*
X113497333Y-129024000D01*
X113497333Y-129362667D01*
G37*
G36*
X113497333Y-131394667D02*
G01*
X113497333Y-132410667D01*
X113158667Y-132410667D01*
X112820000Y-132410667D01*
X112820000Y-132072000D01*
X112820000Y-131733333D01*
X112481333Y-131733333D01*
X112142667Y-131733333D01*
X112142667Y-131056000D01*
X112142667Y-130378667D01*
X112820000Y-130378667D01*
X113497333Y-130378667D01*
X113497333Y-131394667D01*
G37*
G36*
X120270667Y-129701333D02*
G01*
X120270667Y-130378667D01*
X119932000Y-130378667D01*
X119593333Y-130378667D01*
X119593333Y-130717333D01*
X119593333Y-131056000D01*
X119254667Y-131056000D01*
X118916000Y-131056000D01*
X118916000Y-130378667D01*
X118916000Y-129701333D01*
X117900000Y-129701333D01*
X116884000Y-129701333D01*
X116884000Y-129362667D01*
X116884000Y-129024000D01*
X118577333Y-129024000D01*
X120270667Y-129024000D01*
X120270667Y-129701333D01*
G37*
G36*
X121625333Y-130040000D02*
G01*
X121625333Y-130378667D01*
X121286667Y-130378667D01*
X120948000Y-130378667D01*
X120948000Y-130040000D01*
X120948000Y-129701333D01*
X121286667Y-129701333D01*
X121625333Y-129701333D01*
X121625333Y-130040000D01*
G37*
G36*
X107401333Y-151037333D02*
G01*
X107401333Y-151376000D01*
X107062667Y-151376000D01*
X106724000Y-151376000D01*
X106724000Y-151037333D01*
X106724000Y-150698667D01*
X107062667Y-150698667D01*
X107401333Y-150698667D01*
X107401333Y-151037333D01*
G37*
G36*
X123657333Y-148328000D02*
G01*
X123657333Y-148666667D01*
X123318667Y-148666667D01*
X122980000Y-148666667D01*
X122980000Y-148328000D01*
X122980000Y-147989333D01*
X123318667Y-147989333D01*
X123657333Y-147989333D01*
X123657333Y-148328000D01*
G37*
G36*
X127721333Y-144941333D02*
G01*
X127721333Y-145280000D01*
X128398667Y-145280000D01*
X129076000Y-145280000D01*
X129076000Y-145618667D01*
X129076000Y-145957333D01*
X128060000Y-145957333D01*
X127044000Y-145957333D01*
X127044000Y-145618667D01*
X127044000Y-145280000D01*
X126705333Y-145280000D01*
X126366667Y-145280000D01*
X126366667Y-144941333D01*
X126366667Y-144602667D01*
X127044000Y-144602667D01*
X127721333Y-144602667D01*
X127721333Y-144941333D01*
G37*
G36*
X126366667Y-145618667D02*
G01*
X126366667Y-145957333D01*
X126028000Y-145957333D01*
X125689333Y-145957333D01*
X125689333Y-145618667D01*
X125689333Y-145280000D01*
X126028000Y-145280000D01*
X126366667Y-145280000D01*
X126366667Y-145618667D01*
G37*
G36*
X125012000Y-145618667D02*
G01*
X125012000Y-145957333D01*
X124673333Y-145957333D01*
X124334667Y-145957333D01*
X124334667Y-145618667D01*
X124334667Y-145280000D01*
X124673333Y-145280000D01*
X125012000Y-145280000D01*
X125012000Y-145618667D01*
G37*
G36*
X126366667Y-138506667D02*
G01*
X126366667Y-139184000D01*
X126028000Y-139184000D01*
X125689333Y-139184000D01*
X125689333Y-138506667D01*
X125689333Y-137829333D01*
X126028000Y-137829333D01*
X126366667Y-137829333D01*
X126366667Y-138506667D01*
G37*
G36*
X126366667Y-136813333D02*
G01*
X126366667Y-137152000D01*
X126028000Y-137152000D01*
X125689333Y-137152000D01*
X125689333Y-136813333D01*
X125689333Y-136474667D01*
X126028000Y-136474667D01*
X126366667Y-136474667D01*
X126366667Y-136813333D01*
G37*
G36*
X129076000Y-135458667D02*
G01*
X129076000Y-136474667D01*
X128737333Y-136474667D01*
X128398667Y-136474667D01*
X128398667Y-135458667D01*
X128398667Y-134442667D01*
X128737333Y-134442667D01*
X129076000Y-134442667D01*
X129076000Y-135458667D01*
G37*
G36*
X127044000Y-135120000D02*
G01*
X127721333Y-135120000D01*
X127721333Y-135458667D01*
X127721333Y-135797333D01*
X127044000Y-135797333D01*
X126366667Y-135797333D01*
X126366667Y-135458667D01*
X126366667Y-135120000D01*
X127044000Y-135120000D01*
G37*
G36*
X126366667Y-134781333D02*
G01*
X126366667Y-135120000D01*
X126028000Y-135120000D01*
X125689333Y-135120000D01*
X125689333Y-134781333D01*
X125689333Y-134442667D01*
X126028000Y-134442667D01*
X126366667Y-134442667D01*
X126366667Y-134781333D01*
G37*
G36*
X129076000Y-133765333D02*
G01*
X126705333Y-133765333D01*
X124334667Y-133765333D01*
X124334667Y-131394667D01*
X124334667Y-129701333D01*
X125012000Y-129701333D01*
X125012000Y-131394667D01*
X125012000Y-133088000D01*
X126705333Y-133088000D01*
X128398667Y-133088000D01*
X128398667Y-131394667D01*
X128398667Y-129701333D01*
X126705333Y-129701333D01*
X125012000Y-129701333D01*
X124334667Y-129701333D01*
X124334667Y-129024000D01*
X126705333Y-129024000D01*
X129076000Y-129024000D01*
X129076000Y-131394667D01*
X129076000Y-133765333D01*
G37*
G36*
X111465333Y-133765333D02*
G01*
X109094667Y-133765333D01*
X106724000Y-133765333D01*
X106724000Y-131394667D01*
X106724000Y-129701333D01*
X107401333Y-129701333D01*
X107401333Y-131394667D01*
X107401333Y-133088000D01*
X109094667Y-133088000D01*
X110788000Y-133088000D01*
X110788000Y-131394667D01*
X110788000Y-129701333D01*
X109094667Y-129701333D01*
X107401333Y-129701333D01*
X106724000Y-129701333D01*
X106724000Y-129024000D01*
X109094667Y-129024000D01*
X111465333Y-129024000D01*
X111465333Y-131394667D01*
X111465333Y-133765333D01*
G37*
G36*
X127721333Y-149005333D02*
G01*
X127721333Y-150021333D01*
X126705333Y-150021333D01*
X125689333Y-150021333D01*
X125689333Y-149005333D01*
X125689333Y-147989333D01*
X126705333Y-147989333D01*
X127721333Y-147989333D01*
X127721333Y-149005333D01*
G37*
G36*
X118238667Y-148328000D02*
G01*
X118238667Y-148666667D01*
X117900000Y-148666667D01*
X117561333Y-148666667D01*
X117561333Y-148328000D01*
X117561333Y-147989333D01*
X117900000Y-147989333D01*
X118238667Y-147989333D01*
X118238667Y-148328000D01*
G37*
G36*
X115529333Y-144941333D02*
G01*
X115529333Y-145280000D01*
X115868000Y-145280000D01*
X116206667Y-145280000D01*
X116206667Y-145618667D01*
X116206667Y-145957333D01*
X115868000Y-145957333D01*
X115529333Y-145957333D01*
X115529333Y-147312000D01*
X115529333Y-148666667D01*
X115190667Y-148666667D01*
X114852000Y-148666667D01*
X114852000Y-148328000D01*
X114852000Y-147989333D01*
X114513333Y-147989333D01*
X114174667Y-147989333D01*
X114174667Y-147312000D01*
X114174667Y-146634667D01*
X114513333Y-146634667D01*
X114852000Y-146634667D01*
X114852000Y-146296000D01*
X114852000Y-145957333D01*
X114174667Y-145957333D01*
X113497333Y-145957333D01*
X113497333Y-145618667D01*
X113497333Y-145280000D01*
X113836000Y-145280000D01*
X114174667Y-145280000D01*
X114174667Y-144941333D01*
X114174667Y-144602667D01*
X114852000Y-144602667D01*
X115529333Y-144602667D01*
X115529333Y-144941333D01*
G37*
G36*
X115529333Y-139184000D02*
G01*
X115529333Y-139861333D01*
X115868000Y-139861333D01*
X116206667Y-139861333D01*
X116206667Y-140200000D01*
X116206667Y-140538667D01*
X114852000Y-140538667D01*
X113497333Y-140538667D01*
X113497333Y-139861333D01*
X113497333Y-139184000D01*
X114174667Y-139184000D01*
X114852000Y-139184000D01*
X114852000Y-138845333D01*
X114852000Y-138506667D01*
X115190667Y-138506667D01*
X115529333Y-138506667D01*
X115529333Y-139184000D01*
G37*
G36*
X112820000Y-140200000D02*
G01*
X112820000Y-140538667D01*
X112481333Y-140538667D01*
X112142667Y-140538667D01*
X112142667Y-140200000D01*
X112142667Y-139861333D01*
X112481333Y-139861333D01*
X112820000Y-139861333D01*
X112820000Y-140200000D01*
G37*
G36*
X111465333Y-146973333D02*
G01*
X111465333Y-147312000D01*
X111126667Y-147312000D01*
X110788000Y-147312000D01*
X110788000Y-146973333D01*
X110788000Y-146634667D01*
X111126667Y-146634667D01*
X111465333Y-146634667D01*
X111465333Y-146973333D01*
G37*
G36*
X118238667Y-133426667D02*
G01*
X118238667Y-133765333D01*
X117900000Y-133765333D01*
X117561333Y-133765333D01*
X117561333Y-133426667D01*
X117561333Y-133088000D01*
X117900000Y-133088000D01*
X118238667Y-133088000D01*
X118238667Y-133426667D01*
G37*
G36*
X114852000Y-132749333D02*
G01*
X114852000Y-133088000D01*
X115190667Y-133088000D01*
X115529333Y-133088000D01*
X115529333Y-132749333D01*
X115529333Y-132410667D01*
X115868000Y-132410667D01*
X116206667Y-132410667D01*
X116206667Y-132749333D01*
X116206667Y-133088000D01*
X115868000Y-133088000D01*
X115529333Y-133088000D01*
X115529333Y-133426667D01*
X115529333Y-133765333D01*
X115190667Y-133765333D01*
X114852000Y-133765333D01*
X114852000Y-133426667D01*
X114852000Y-133088000D01*
X114513333Y-133088000D01*
X114174667Y-133088000D01*
X114174667Y-132749333D01*
X114174667Y-132410667D01*
X114513333Y-132410667D01*
X114852000Y-132410667D01*
X114852000Y-132749333D01*
G37*
G36*
X127721333Y-131394667D02*
G01*
X127721333Y-132410667D01*
X126705333Y-132410667D01*
X125689333Y-132410667D01*
X125689333Y-131394667D01*
X125689333Y-130378667D01*
X126705333Y-130378667D01*
X127721333Y-130378667D01*
X127721333Y-131394667D01*
G37*
G36*
X110110667Y-131394667D02*
G01*
X110110667Y-132410667D01*
X109094667Y-132410667D01*
X108078667Y-132410667D01*
X108078667Y-131394667D01*
X108078667Y-130378667D01*
X109094667Y-130378667D01*
X110110667Y-130378667D01*
X110110667Y-131394667D01*
G37*
%TD*%
%LPC*%
D14*
%TO.C,J9*%
X134100000Y-67200000D03*
D15*
X136640000Y-67200000D03*
X139180000Y-67200000D03*
%TD*%
D14*
%TO.C,J8*%
X158125000Y-142800000D03*
D15*
X160665000Y-142800000D03*
%TD*%
D14*
%TO.C,J6*%
X130540000Y-67200000D03*
D15*
X128000000Y-67200000D03*
X125460000Y-67200000D03*
%TD*%
D14*
%TO.C,J12*%
X151800000Y-88700000D03*
D15*
X149260000Y-88700000D03*
%TD*%
D16*
%TO.C,J1*%
X135900000Y-110340000D03*
D17*
X137170000Y-110340000D03*
X135900000Y-111610000D03*
X137170000Y-111610000D03*
X135900000Y-112880000D03*
X137170000Y-112880000D03*
X135900000Y-114150000D03*
X137170000Y-114150000D03*
X135900000Y-115420000D03*
X137170000Y-115420000D03*
X135900000Y-116690000D03*
X137170000Y-116690000D03*
X135900000Y-117960000D03*
X137170000Y-117960000D03*
%TD*%
D18*
%TO.C,TP35*%
X91600000Y-68100000D03*
%TD*%
D14*
%TO.C,J18*%
X168600000Y-109025000D03*
D15*
X168600000Y-111565000D03*
%TD*%
D14*
%TO.C,J11*%
X123900000Y-117100000D03*
D15*
X123900000Y-119640000D03*
%TD*%
D14*
%TO.C,J10*%
X116512500Y-76540000D03*
D15*
X116512500Y-74000000D03*
%TD*%
D14*
%TO.C,J5*%
X112712500Y-85200000D03*
D15*
X112712500Y-87740000D03*
%TD*%
D19*
%TO.C,J4*%
X186550000Y-101000000D03*
X186550000Y-106650000D03*
%TD*%
D20*
%TO.C,J2*%
X95512500Y-77780000D03*
D21*
X91712500Y-77780000D03*
D20*
X95512500Y-86420000D03*
D21*
X91712500Y-86420000D03*
%TD*%
D14*
%TO.C,J15*%
X110840000Y-105800000D03*
D15*
X108300000Y-105800000D03*
%TD*%
D18*
%TO.C,TP36*%
X95400000Y-68100000D03*
%TD*%
D14*
%TO.C,J14*%
X159500000Y-114925000D03*
D15*
X162040000Y-114925000D03*
%TD*%
%LPD*%
M02*
